<svg xmlns="http://www.w3.org/2000/svg" xmlns:xlink="http://www.w3.org/1999/xlink" viewBox="0 0 31.99 31.01"><defs><style>.cls-1{isolation:isolate;}.cls-10,.cls-13,.cls-14,.cls-15,.cls-17,.cls-18,.cls-19,.cls-2,.cls-21,.cls-22,.cls-23,.cls-3,.cls-4,.cls-5,.cls-8,.cls-9{fill-rule:evenodd;}.cls-2{fill:url(#linear-gradient);}.cls-3{fill:url(#linear-gradient-2);}.cls-4{fill:url(#linear-gradient-3);}.cls-5{opacity:0.75;fill:url(#New_Gradient_Swatch_159);}.cls-14,.cls-15,.cls-18,.cls-19,.cls-22,.cls-23,.cls-5,.cls-6,.cls-7{mix-blend-mode:screen;}.cls-6{fill:url(#linear-gradient-4);}.cls-7{fill:url(#linear-gradient-5);}.cls-8{fill:#004d80;}.cls-11,.cls-13,.cls-17,.cls-21,.cls-8{mix-blend-mode:multiply;}.cls-9{fill:#5499ed;}.cls-10{fill:url(#linear-gradient-6);}.cls-11{fill:#4d5e6e;opacity:0.5;}.cls-12{fill:url(#linear-gradient-7);}.cls-13{fill:url(#linear-gradient-8);}.cls-14{fill:url(#New_Gradient_Swatch_158);}.cls-15{fill:url(#linear-gradient-9);}.cls-16{fill:url(#linear-gradient-10);}.cls-17{fill:url(#linear-gradient-11);}.cls-18{fill:url(#New_Gradient_Swatch_158-2);}.cls-19{fill:url(#linear-gradient-12);}.cls-20{fill:url(#linear-gradient-13);}.cls-21{fill:url(#linear-gradient-14);}.cls-22{fill:url(#New_Gradient_Swatch_158-3);}.cls-23{fill:url(#linear-gradient-15);}</style><linearGradient id="linear-gradient" x1="16.49" y1="29.29" x2="16.49" y2="1.72" gradientUnits="userSpaceOnUse"><stop offset="0" stop-color="#132540"/><stop offset="0.43" stop-color="#114378"/><stop offset="1" stop-color="#2f65b2"/></linearGradient><linearGradient id="linear-gradient-2" x1="16.49" y1="27.92" x2="16.49" y2="3.09" gradientUnits="userSpaceOnUse"><stop offset="0" stop-color="#0d2f54"/><stop offset="0.33" stop-color="#1a3f63"/><stop offset="1" stop-color="#185b8e"/></linearGradient><linearGradient id="linear-gradient-3" x1="16.49" y1="31.01" x2="16.49" gradientUnits="userSpaceOnUse"><stop offset="0" stop-color="#003073"/><stop offset="0.33" stop-color="#005ed9"/><stop offset="1" stop-color="#1cb7ff"/></linearGradient><linearGradient id="New_Gradient_Swatch_159" x1="16.49" y1="30.61" x2="16.49" y2="0.39" gradientUnits="userSpaceOnUse"><stop offset="0" stop-color="#040819"/><stop offset="0.19"/><stop offset="0.44" stop-color="#0d1d59"/><stop offset="0.52" stop-color="#175c9e"/><stop offset="1" stop-color="#387bba"/></linearGradient><linearGradient id="linear-gradient-4" x1="16.49" y1="8.42" x2="16.49" y2="0.51" gradientUnits="userSpaceOnUse"><stop offset="0" stop-color="#6bb7e0"/><stop offset="1" stop-color="#cff8ff"/></linearGradient><linearGradient id="linear-gradient-5" x1="16.49" y1="29.71" x2="16.49" y2="25.08" gradientUnits="userSpaceOnUse"><stop offset="0" stop-color="#1485de"/><stop offset="1" stop-color="#132d52"/></linearGradient><linearGradient id="linear-gradient-6" x1="23.53" y1="26.01" x2="9.45" y2="11.92" gradientUnits="userSpaceOnUse"><stop offset="0" stop-color="#0a74ff"/><stop offset="1" stop-color="#0ef"/></linearGradient><linearGradient id="linear-gradient-7" x1="3.47" y1="28.59" x2="3.47" y2="15.35" gradientUnits="userSpaceOnUse"><stop offset="0" stop-color="#ed7a00"/><stop offset="1" stop-color="#ffc300"/></linearGradient><linearGradient id="linear-gradient-8" x1="3.71" y1="28.59" x2="3.71" y2="25.88" gradientUnits="userSpaceOnUse"><stop offset="0" stop-color="#e6a750"/><stop offset="1" stop-color="#fff"/></linearGradient><linearGradient id="New_Gradient_Swatch_158" x1="2.82" y1="22.66" x2="2.82" y2="15.53" gradientUnits="userSpaceOnUse"><stop offset="0" stop-color="#000a00"/><stop offset="1" stop-color="#fffb7d"/></linearGradient><linearGradient id="linear-gradient-9" x1="2.37" y1="18.71" x2="2.37" y2="15.61" gradientUnits="userSpaceOnUse"><stop offset="0" stop-color="#000a00"/><stop offset="1" stop-color="#fffdc4"/></linearGradient><linearGradient id="linear-gradient-10" x1="11.31" y1="28.49" x2="11.31" y2="15.99" xlink:href="#linear-gradient-7"/><linearGradient id="linear-gradient-11" x1="11.53" y1="28.49" x2="11.53" y2="24.15" xlink:href="#linear-gradient-8"/><linearGradient id="New_Gradient_Swatch_158-2" x1="11.25" y1="23.05" x2="11.25" y2="16.15" xlink:href="#New_Gradient_Swatch_158"/><linearGradient id="linear-gradient-12" x1="9.8" y1="20.09" x2="9.8" y2="16.27" xlink:href="#linear-gradient-9"/><linearGradient id="linear-gradient-13" x1="20.06" y1="28.63" x2="20.06" y2="16.13" xlink:href="#linear-gradient-7"/><linearGradient id="linear-gradient-14" x1="20.28" y1="28.63" x2="20.28" y2="24.29" xlink:href="#linear-gradient-8"/><linearGradient id="New_Gradient_Swatch_158-3" x1="20" y1="23.19" x2="20" y2="16.29" xlink:href="#New_Gradient_Swatch_158"/><linearGradient id="linear-gradient-15" x1="18.55" y1="20.24" x2="18.55" y2="16.41" xlink:href="#linear-gradient-9"/></defs><title>Asset 6</title><g class="cls-1"><g id="Layer_2" data-name="Layer 2"><g id="Layer_1-2" data-name="Layer 1"><path class="cls-2" d="M16.49,1.72A13.79,13.79,0,1,1,2.7,15.5,13.79,13.79,0,0,1,16.49,1.72Z"/><path class="cls-3" d="M16.49,3.09A12.42,12.42,0,1,1,4.07,15.5,12.42,12.42,0,0,1,16.49,3.09Z"/><path class="cls-4" d="M16.49,2.36A13.15,13.15,0,1,1,3.35,15.5,13.14,13.14,0,0,1,16.49,2.36Zm0-2.36A15.51,15.51,0,1,1,1,15.5,15.5,15.5,0,0,1,16.49,0Z"/><path class="cls-5" d="M16.49.39A15.11,15.11,0,1,0,31.6,15.5,15.11,15.11,0,0,0,16.49.39Zm0,1.58A13.54,13.54,0,1,1,3,15.5,13.54,13.54,0,0,1,16.49,2Z"/><path class="cls-6" d="M4,8.28a.26.26,0,0,1-.37.1A.27.27,0,0,1,3.5,8a15,15,0,0,1,26,0,.27.27,0,0,1-.11.37.26.26,0,0,1-.37-.1,14.46,14.46,0,0,0-25,0Z"/><path class="cls-7" d="M26.14,25.16a.28.28,0,0,1,.4,0,.27.27,0,0,1,0,.39,14.21,14.21,0,0,1-20.1,0,.29.29,0,0,1,0-.39.28.28,0,0,1,.4,0,13.63,13.63,0,0,0,19.3,0Z"/><path class="cls-8" d="M27.23,21.74a12.19,12.19,0,0,1-21.48,0,12.42,12.42,0,0,0,21.48,0Z"/><path class="cls-9" d="M16.49,2.85A12.3,12.3,0,0,1,27.23,9.27a12.42,12.42,0,0,0-21.48,0A12.3,12.3,0,0,1,16.49,2.85Z"/><path class="cls-10" d="M12.23,18c-2.66,1.06-3.76,3.83-4.17,6.62a12.42,12.42,0,0,0,16.86,0c-.41-2.79-1.51-5.56-4.17-6.62a6.91,6.91,0,0,0-.77-.25,1.91,1.91,0,0,0-1.31.11,5.09,5.09,0,0,1-4.36,0A1.91,1.91,0,0,0,13,17.75a6.91,6.91,0,0,0-.77.25ZM11.73,12a5.22,5.22,0,0,0,4.76,5,5.22,5.22,0,0,0,4.76-5,4.65,4.65,0,0,0-4.76-5,4.65,4.65,0,0,0-4.76,5Z"/><path class="cls-11" d="M2.1,26.56A61.75,61.75,0,0,0,2,20.18c-.54.1-1.18.09-1.35-.13-.39-.5-.65-2.59-.27-2.94s3.69-.48,4.25,0a2,2,0,0,1,.47.6c.59,1.17.51,7.12.31,8.83.69.05,1.19.14,1.24.28a5.09,5.09,0,0,1,.07,2c-.09.79-5.67.59-5.92.1a3.72,3.72,0,0,1,0-2.21,5.79,5.79,0,0,1,1.28-.16Z"/><path class="cls-12" d="M2,25.64a62.71,62.71,0,0,0-.13-6.71c-.56.11-1.24.1-1.42-.14C.07,18.26-.21,16.06.2,15.7s3.88-.51,4.47,0a2.17,2.17,0,0,1,.5.63c.61,1.23.53,7.49.32,9.3.73,0,1.25.14,1.3.29A5.21,5.21,0,0,1,6.87,28c-.1.83-6,.62-6.23.11a3.92,3.92,0,0,1,0-2.32A5.35,5.35,0,0,1,2,25.64Z"/><path class="cls-13" d="M6.87,28a5.21,5.21,0,0,0-.08-2.11.08.08,0,0,0,0,0,3.74,3.74,0,0,1-.23.86,2.1,2.1,0,0,1-1.7,1.32c-.89.18-3.48.08-4.16-.58l0,0a.85.85,0,0,1-.16-.28,2.74,2.74,0,0,0,.15,1h0c.31.47,5.28.68,6.12.05A.25.25,0,0,0,6.87,28Z"/><path class="cls-14" d="M5.44,19.74q0-.76-.09-1.53c0-.37-.08-.75-.15-1.11A2.28,2.28,0,0,0,5,16.41a1.85,1.85,0,0,0-.46-.58,5.25,5.25,0,0,0-2.11-.3,10.66,10.66,0,0,0-1.38.09,2.09,2.09,0,0,0-.75.21c-.09.08-.12.39-.13.5a5.36,5.36,0,0,0,0,1v.06a3.46,3.46,0,0,0,.39,1.31c.13.18.79.14,1,.12l.27,0,.19,0v.2c.08,1.25.14,2.49.17,3.74a12.78,12.78,0,0,0,2.32-.39,1.21,1.21,0,0,0,.91-1.19l0-1.34Z"/><path class="cls-15" d="M1.08,18.69c-.12.1-.39-.12-.45-.26a3.92,3.92,0,0,1-.31-2.09c0-.43.19-.53.61-.6s.71-.1,1.08-.12a6.49,6.49,0,0,1,2.33.22c.16.09.12.29-.08.3a12,12,0,0,0-2.53.26.68.68,0,0,0-.5.47c-.09.37,0,1.73-.15,1.82Z"/><path class="cls-11" d="M8.65,27.81c-1.66-2.12-1.77-7.45,0-9.56,1-1.2,4.14-1.25,5.15,0,2,2.46,1.9,7.75-.25,10.12-1.32,1.47-3.77.93-4.9-.53ZM12.16,25c.12-1,.25-3.7-.42-4.47-.45-.51-.91.07-1.07.48a8.31,8.31,0,0,0,0,4.26c.61,2.19,1.24,1.82,1.52-.27Z"/><path class="cls-16" d="M8.51,27c-1.74-2.23-1.86-7.84,0-10.06,1.06-1.27,4.35-1.32,5.42,0,2.15,2.59,2,8.16-.26,10.65-1.4,1.54-4,1-5.16-.56Zm3.69-3c.13-1,.27-3.89-.44-4.71-.47-.53-1,.08-1.13.51a8.72,8.72,0,0,0,0,4.48c.65,2.31,1.31,1.92,1.6-.28Z"/><path class="cls-17" d="M8.51,27c1.19,1.53,3.76,2.1,5.16.56a6.86,6.86,0,0,0,1.45-2.86c.05-.19.09-.38.13-.57a3.18,3.18,0,0,1-.1.33,4.07,4.07,0,0,1-2.83,2.92c-1.29.35-3.62.06-4.51-1.64A5.18,5.18,0,0,0,8.51,27Z"/><path class="cls-18" d="M10.7,19.37c.31-.43.78-.63,1.18-.16s.62,2.13.59,3.4a11.78,11.78,0,0,0,1.8-.66,1.53,1.53,0,0,0,.89-1.67,8.82,8.82,0,0,0-.2-.89A6.18,6.18,0,0,0,13.81,17c-1-1.2-4.18-1.16-5.18,0S7.18,20.7,7.36,22.91h0a12.59,12.59,0,0,0,1.85.14c.34,0,.67,0,1,0a7.84,7.84,0,0,1,.27-3.25,1.87,1.87,0,0,1,.22-.39Z"/><path class="cls-19" d="M10.35,16.35a2.71,2.71,0,0,0-1.6.79,4.94,4.94,0,0,0-1.09,2.58c0,.44.15.5.39.13a6.6,6.6,0,0,1,3.4-3c.31-.12.51-.22.49-.34-.06-.39-1.3-.25-1.59-.18Z"/><path class="cls-11" d="M17.4,28c-1.66-2.13-1.77-7.46,0-9.57,1-1.2,4.14-1.25,5.15,0,2.05,2.46,1.9,7.76-.25,10.12C21,30,18.53,29.41,17.4,28Zm3.51-2.86c.12-1,.25-3.69-.42-4.47-.45-.51-.91.07-1.07.48a8.31,8.31,0,0,0,0,4.26c.61,2.19,1.24,1.82,1.52-.27Z"/><path class="cls-20" d="M17.26,27.17c-1.74-2.24-1.86-7.85,0-10.07,1.06-1.26,4.35-1.31,5.42,0,2.15,2.59,2,8.16-.26,10.65-1.4,1.54-4,1-5.16-.55Zm3.69-3c.13-1,.27-3.89-.44-4.71-.47-.53-1,.08-1.13.51a8.76,8.76,0,0,0,0,4.49c.65,2.3,1.31,1.92,1.6-.29Z"/><path class="cls-21" d="M17.26,27.17c1.19,1.53,3.76,2.09,5.16.55a6.8,6.8,0,0,0,1.45-2.86c.05-.19.09-.38.13-.57a3.37,3.37,0,0,1-.1.34,4.06,4.06,0,0,1-2.83,2.91c-1.29.36-3.62.06-4.51-1.64a5.45,5.45,0,0,0,.7,1.27Z"/><path class="cls-22" d="M19.45,19.51c.31-.43.78-.62,1.18-.16s.62,2.14.59,3.4A12.89,12.89,0,0,0,23,22.1a1.54,1.54,0,0,0,.89-1.68,8.82,8.82,0,0,0-.2-.89,6.18,6.18,0,0,0-1.15-2.36c-1-1.2-4.18-1.15-5.18,0s-1.45,3.63-1.27,5.84h0a12.59,12.59,0,0,0,1.85.14c.34,0,.67,0,1,0a7.84,7.84,0,0,1,.27-3.25,2.16,2.16,0,0,1,.22-.39Z"/><path class="cls-23" d="M19.1,16.5a2.69,2.69,0,0,0-1.6.78,5,5,0,0,0-1.09,2.58c-.05.45.15.5.39.13a6.6,6.6,0,0,1,3.4-3c.31-.12.51-.21.49-.34-.06-.39-1.3-.25-1.59-.17Z"/></g></g></g></svg>