<svg xmlns="http://www.w3.org/2000/svg" xmlns:xlink="http://www.w3.org/1999/xlink" viewBox="0 0 32.92 31.06"><defs><style>.cls-1{isolation:isolate;}.cls-10,.cls-13,.cls-14,.cls-15,.cls-2,.cls-3,.cls-4,.cls-5,.cls-8,.cls-9{fill-rule:evenodd;}.cls-2{fill:url(#linear-gradient);}.cls-3{fill:url(#linear-gradient-2);}.cls-4{fill:url(#linear-gradient-3);}.cls-5{opacity:0.75;fill:url(#New_Gradient_Swatch_159);}.cls-14,.cls-15,.cls-5,.cls-6,.cls-7{mix-blend-mode:screen;}.cls-6{fill:url(#linear-gradient-4);}.cls-7{fill:url(#linear-gradient-5);}.cls-8{fill:#004d80;}.cls-11,.cls-13,.cls-8{mix-blend-mode:multiply;}.cls-9{fill:#5499ed;}.cls-10{fill:url(#linear-gradient-6);}.cls-11{fill:#4d5e6e;opacity:0.5;}.cls-12{fill:url(#linear-gradient-7);}.cls-13{fill:url(#linear-gradient-8);}.cls-14{fill:url(#New_Gradient_Swatch_158);}.cls-15{fill:url(#linear-gradient-9);}</style><linearGradient id="linear-gradient" x1="17.42" y1="29.29" x2="17.42" y2="1.72" gradientUnits="userSpaceOnUse"><stop offset="0" stop-color="#132540"/><stop offset="0.43" stop-color="#114378"/><stop offset="1" stop-color="#2f65b2"/></linearGradient><linearGradient id="linear-gradient-2" x1="17.42" y1="27.92" x2="17.42" y2="3.09" gradientUnits="userSpaceOnUse"><stop offset="0" stop-color="#0d2f54"/><stop offset="0.33" stop-color="#1a3f63"/><stop offset="1" stop-color="#185b8e"/></linearGradient><linearGradient id="linear-gradient-3" x1="17.42" y1="31.01" x2="17.42" gradientUnits="userSpaceOnUse"><stop offset="0" stop-color="#003073"/><stop offset="0.33" stop-color="#005ed9"/><stop offset="1" stop-color="#1cb7ff"/></linearGradient><linearGradient id="New_Gradient_Swatch_159" x1="17.42" y1="30.61" x2="17.42" y2="0.39" gradientUnits="userSpaceOnUse"><stop offset="0" stop-color="#040819"/><stop offset="0.19"/><stop offset="0.44" stop-color="#0d1d59"/><stop offset="0.52" stop-color="#175c9e"/><stop offset="1" stop-color="#387bba"/></linearGradient><linearGradient id="linear-gradient-4" x1="17.42" y1="8.42" x2="17.42" y2="0.51" gradientUnits="userSpaceOnUse"><stop offset="0" stop-color="#6bb7e0"/><stop offset="1" stop-color="#cff8ff"/></linearGradient><linearGradient id="linear-gradient-5" x1="17.42" y1="29.71" x2="17.42" y2="25.08" gradientUnits="userSpaceOnUse"><stop offset="0" stop-color="#1485de"/><stop offset="1" stop-color="#132d52"/></linearGradient><linearGradient id="linear-gradient-6" x1="24.46" y1="26.01" x2="10.37" y2="11.92" gradientUnits="userSpaceOnUse"><stop offset="0" stop-color="#0a74ff"/><stop offset="1" stop-color="#0ef"/></linearGradient><linearGradient id="linear-gradient-7" x1="4.4" y1="30.3" x2="4.4" y2="16.78" gradientUnits="userSpaceOnUse"><stop offset="0" stop-color="#ed7a00"/><stop offset="1" stop-color="#ffc300"/></linearGradient><linearGradient id="linear-gradient-8" x1="4.43" y1="30.3" x2="4.43" y2="24.87" gradientUnits="userSpaceOnUse"><stop offset="0" stop-color="#e6a750"/><stop offset="1" stop-color="#fff"/></linearGradient><linearGradient id="New_Gradient_Swatch_158" x1="4.35" y1="24.29" x2="4.35" y2="16.95" gradientUnits="userSpaceOnUse"><stop offset="0" stop-color="#000a00"/><stop offset="1" stop-color="#fffb7d"/></linearGradient><linearGradient id="linear-gradient-9" x1="3.21" y1="21.58" x2="3.21" y2="17.03" gradientUnits="userSpaceOnUse"><stop offset="0" stop-color="#000a00"/><stop offset="1" stop-color="#fffdc4"/></linearGradient></defs><title>Asset 4</title><g class="cls-1"><g id="Layer_2" data-name="Layer 2"><g id="Layer_1-2" data-name="Layer 1"><path class="cls-2" d="M17.42,1.72A13.79,13.79,0,1,1,3.63,15.5,13.78,13.78,0,0,1,17.42,1.72Z"/><path class="cls-3" d="M17.42,3.09A12.42,12.42,0,1,1,5,15.5,12.41,12.41,0,0,1,17.42,3.09Z"/><path class="cls-4" d="M17.42,2.36A13.15,13.15,0,1,1,4.27,15.5,13.14,13.14,0,0,1,17.42,2.36Zm0-2.36A15.51,15.51,0,1,1,1.91,15.5,15.5,15.5,0,0,1,17.42,0Z"/><path class="cls-5" d="M17.42.39A15.11,15.11,0,1,0,32.53,15.5,15.11,15.11,0,0,0,17.42.39Zm0,1.58A13.54,13.54,0,1,1,3.88,15.5,13.54,13.54,0,0,1,17.42,2Z"/><path class="cls-6" d="M4.91,8.28a.27.27,0,0,1-.38.1A.27.27,0,0,1,4.43,8a15,15,0,0,1,26,0,.27.27,0,0,1-.1.37.27.27,0,0,1-.38-.1,14.45,14.45,0,0,0-25,0Z"/><path class="cls-7" d="M27.07,25.16a.28.28,0,0,1,.39.39,14.21,14.21,0,0,1-20.09,0,.28.28,0,1,1,.39-.39,13.65,13.65,0,0,0,19.31,0Z"/><path class="cls-8" d="M28.16,21.74a12.19,12.19,0,0,1-21.48,0,12.42,12.42,0,0,0,21.48,0Z"/><path class="cls-9" d="M17.42,2.85A12.3,12.3,0,0,1,28.16,9.27a12.42,12.42,0,0,0-21.48,0A12.29,12.29,0,0,1,17.42,2.85Z"/><path class="cls-10" d="M13.15,18C10.5,19.06,9.4,21.83,9,24.62a12.42,12.42,0,0,0,16.86,0c-.42-2.79-1.51-5.56-4.17-6.62a6.91,6.91,0,0,0-.77-.25,1.91,1.91,0,0,0-1.31.11,5.12,5.12,0,0,1-4.37,0,1.91,1.91,0,0,0-1.31-.11,7.66,7.66,0,0,0-.77.25ZM12.66,12a5.22,5.22,0,0,0,4.76,5,5.22,5.22,0,0,0,4.76-5,4.65,4.65,0,0,0-4.76-5,4.64,4.64,0,0,0-4.76,5Z"/><path class="cls-11" d="M.25,27.76c0-.25-.09-.59.1-.76s3.05-.55,3.39.28c.12.3.07.68.32.87a.89.89,0,0,0,1.36-1c-.25-.85-.84-.85-1.56-.9A13.93,13.93,0,0,1,1,26.13c-1-.57-.94-6.06,0-7.25a1.47,1.47,0,0,1,.92-.53c1-.11,5.49-.35,6.26.32.52.46.05,2.51-.32,3-.15.21-3.12,0-4,.1a11.72,11.72,0,0,0-.37,2.12,5.37,5.37,0,0,1,4,.6,3.62,3.62,0,0,1,.63,4.4,4.27,4.27,0,0,1-5,2A3.81,3.81,0,0,1,.25,27.76Z"/><path class="cls-12" d="M0,26.83c0-.27-.09-.62.11-.81s3.21-.57,3.57.3c.12.32.07.71.33.91a.94.94,0,0,0,1.43-1.08c-.26-.9-.88-.9-1.64-.94-1.06-.07-2.55.14-3-.1-1.08-.61-1-6.38,0-7.63a1.51,1.51,0,0,1,1-.56c1.1-.11,5.78-.37,6.59.33.55.49,0,2.65-.34,3.17-.16.21-3.28,0-4.2.1a12.07,12.07,0,0,0-.38,2.23,5.65,5.65,0,0,1,4.17.63C9,24.44,9.06,26.45,8.32,28a4.52,4.52,0,0,1-5.23,2.13A4,4,0,0,1,0,26.83Z"/><path class="cls-13" d="M.25,27.71a4.15,4.15,0,0,0,2.84,2.44A4.52,4.52,0,0,0,8.32,28c.08-.18.15-.36.22-.55a4.45,4.45,0,0,0,.1-2.6,5.2,5.2,0,0,1-.09,1.7,3.63,3.63,0,0,1-3,2.82c-2.18.47-4.41,0-5.37-2,0-.12-.11-.23-.15-.35a3.26,3.26,0,0,0,.18.63Z"/><path class="cls-14" d="M1,17.59c-.55.69-.71,2.72-.73,3.59a14.51,14.51,0,0,0,0,1.61,8,8,0,0,0,.11.87,4.14,4.14,0,0,0,.12.53,12.52,12.52,0,0,0,1.63.1,12.79,12.79,0,0,0,3.52-.48,13.77,13.77,0,0,0,1.53-.52,5.92,5.92,0,0,0-3.55-.39l-.14,0-.22,0,0-.22a12.28,12.28,0,0,1,.39-2.26l0-.11.12,0a6.12,6.12,0,0,1,.86,0c.38,0,.76,0,1.14,0a18.3,18.3,0,0,0,2.1,0A4.17,4.17,0,0,0,8.37,19l0-.09c.06-.33.18-1.27-.11-1.52C7.81,17,5.67,17,5.05,17S3.77,17,3.13,17c-.44,0-.87.05-1.3.09a1.36,1.36,0,0,0-.85.5Z"/><path class="cls-15" d="M4.71,17c-.82,0-1.64,0-2.45.11s-1.15.2-1.4.92a10.64,10.64,0,0,0-.51,2.88c0,.61.44.87.6.38a21.09,21.09,0,0,1,.88-2.83c.32-.62,3-.68,3.81-.89.63-.15.74-.59-.93-.57Z"/></g></g></g></svg>