<svg xmlns="http://www.w3.org/2000/svg" xmlns:xlink="http://www.w3.org/1999/xlink" viewBox="0 0 31.01 31.01"><defs><style>.cls-1{isolation:isolate;}.cls-10,.cls-13,.cls-14,.cls-15,.cls-2,.cls-3,.cls-4,.cls-5,.cls-8,.cls-9{fill-rule:evenodd;}.cls-2{fill:url(#linear-gradient);}.cls-3{fill:url(#linear-gradient-2);}.cls-4{fill:url(#linear-gradient-3);}.cls-5{opacity:0.75;fill:url(#New_Gradient_Swatch_159);}.cls-14,.cls-15,.cls-5,.cls-6,.cls-7{mix-blend-mode:screen;}.cls-6{fill:url(#linear-gradient-4);}.cls-7{fill:url(#linear-gradient-5);}.cls-8{fill:#004d80;}.cls-11,.cls-13,.cls-8{mix-blend-mode:multiply;}.cls-9{fill:#5499ed;}.cls-10{fill:url(#linear-gradient-6);}.cls-11{fill:#4d5e6e;opacity:0.5;}.cls-12{fill:url(#linear-gradient-7);}.cls-13{fill:url(#linear-gradient-8);}.cls-14{fill:url(#New_Gradient_Swatch_158);}.cls-15{fill:url(#linear-gradient-9);}</style><linearGradient id="linear-gradient" x1="15.5" y1="29.29" x2="15.5" y2="1.72" gradientUnits="userSpaceOnUse"><stop offset="0" stop-color="#132540"/><stop offset="0.43" stop-color="#114378"/><stop offset="1" stop-color="#2f65b2"/></linearGradient><linearGradient id="linear-gradient-2" x1="15.5" y1="27.92" x2="15.5" y2="3.09" gradientUnits="userSpaceOnUse"><stop offset="0" stop-color="#0d2f54"/><stop offset="0.33" stop-color="#1a3f63"/><stop offset="1" stop-color="#185b8e"/></linearGradient><linearGradient id="linear-gradient-3" x1="15.5" y1="31.01" x2="15.5" gradientUnits="userSpaceOnUse"><stop offset="0" stop-color="#003073"/><stop offset="0.33" stop-color="#005ed9"/><stop offset="1" stop-color="#1cb7ff"/></linearGradient><linearGradient id="New_Gradient_Swatch_159" x1="15.5" y1="30.61" x2="15.5" y2="0.39" gradientUnits="userSpaceOnUse"><stop offset="0" stop-color="#040819"/><stop offset="0.19"/><stop offset="0.44" stop-color="#0d1d59"/><stop offset="0.52" stop-color="#175c9e"/><stop offset="1" stop-color="#387bba"/></linearGradient><linearGradient id="linear-gradient-4" x1="15.5" y1="8.42" x2="15.5" y2="0.51" gradientUnits="userSpaceOnUse"><stop offset="0" stop-color="#6bb7e0"/><stop offset="1" stop-color="#cff8ff"/></linearGradient><linearGradient id="linear-gradient-5" x1="15.5" y1="29.71" x2="15.5" y2="25.08" gradientUnits="userSpaceOnUse"><stop offset="0" stop-color="#1485de"/><stop offset="1" stop-color="#132d52"/></linearGradient><linearGradient id="linear-gradient-6" x1="22.55" y1="26.01" x2="8.46" y2="11.92" gradientUnits="userSpaceOnUse"><stop offset="0" stop-color="#0a74ff"/><stop offset="1" stop-color="#0ef"/></linearGradient><linearGradient id="linear-gradient-7" x1="5.38" y1="30.16" x2="5.38" y2="16.92" gradientUnits="userSpaceOnUse"><stop offset="0" stop-color="#ed7a00"/><stop offset="1" stop-color="#ffc300"/></linearGradient><linearGradient id="linear-gradient-8" x1="5.62" y1="30.16" x2="5.62" y2="27.45" gradientUnits="userSpaceOnUse"><stop offset="0" stop-color="#e6a750"/><stop offset="1" stop-color="#fff"/></linearGradient><linearGradient id="New_Gradient_Swatch_158" x1="4.73" y1="24.23" x2="4.73" y2="17.09" gradientUnits="userSpaceOnUse"><stop offset="0" stop-color="#000a00"/><stop offset="1" stop-color="#fffb7d"/></linearGradient><linearGradient id="linear-gradient-9" x1="4.27" y1="20.28" x2="4.27" y2="17.17" gradientUnits="userSpaceOnUse"><stop offset="0" stop-color="#000a00"/><stop offset="1" stop-color="#fffdc4"/></linearGradient></defs><title>Asset 8</title><g class="cls-1"><g id="Layer_2" data-name="Layer 2"><g id="Layer_1-2" data-name="Layer 1"><path class="cls-2" d="M15.5,1.72A13.79,13.79,0,1,1,1.72,15.5,13.78,13.78,0,0,1,15.5,1.72Z"/><path class="cls-3" d="M15.5,3.09A12.42,12.42,0,1,1,3.09,15.5,12.42,12.42,0,0,1,15.5,3.09Z"/><path class="cls-4" d="M15.5,2.36A13.15,13.15,0,1,1,2.36,15.5,13.14,13.14,0,0,1,15.5,2.36ZM15.5,0A15.51,15.51,0,1,1,0,15.5,15.5,15.5,0,0,1,15.5,0Z"/><path class="cls-5" d="M15.5.39A15.11,15.11,0,1,0,30.62,15.5,15.12,15.12,0,0,0,15.5.39ZM15.5,2A13.54,13.54,0,1,1,2,15.5,13.54,13.54,0,0,1,15.5,2Z"/><path class="cls-6" d="M3,8.28a.27.27,0,0,1-.38.1A.27.27,0,0,1,2.52,8a15,15,0,0,1,26,0,.27.27,0,0,1-.1.37.27.27,0,0,1-.38-.1,14.44,14.44,0,0,0-25,0Z"/><path class="cls-7" d="M25.16,25.16a.28.28,0,0,1,.39.39,14.21,14.21,0,0,1-20.09,0,.28.28,0,1,1,.39-.39,13.65,13.65,0,0,0,19.31,0Z"/><path class="cls-8" d="M26.24,21.74a12.19,12.19,0,0,1-21.47,0,12.41,12.41,0,0,0,21.47,0Z"/><path class="cls-9" d="M15.5,2.85A12.29,12.29,0,0,1,26.24,9.27a12.41,12.41,0,0,0-21.47,0A12.28,12.28,0,0,1,15.5,2.85Z"/><path class="cls-10" d="M11.24,18c-2.66,1.06-3.75,3.83-4.17,6.62a12.42,12.42,0,0,0,16.86,0c-.41-2.79-1.51-5.56-4.16-6.62a7.66,7.66,0,0,0-.77-.25,1.91,1.91,0,0,0-1.31.11,5.12,5.12,0,0,1-4.37,0A1.91,1.91,0,0,0,12,17.75a6.91,6.91,0,0,0-.77.25ZM10.74,12a5.23,5.23,0,0,0,4.76,5,5.22,5.22,0,0,0,4.76-5,4.64,4.64,0,0,0-4.76-5,4.66,4.66,0,0,0-4.76,5Z"/><path class="cls-11" d="M4,28.12a61.61,61.61,0,0,0-.12-6.37c-.54.1-1.18.09-1.36-.13-.38-.51-.64-2.6-.26-2.94s3.69-.48,4.24,0a2,2,0,0,1,.48.6c.59,1.16.5,7.12.31,8.83.69,0,1.19.13,1.23.28a4.85,4.85,0,0,1,.08,2c-.09.79-5.67.59-5.92.1a3.69,3.69,0,0,1,0-2.2A5,5,0,0,1,4,28.12Z"/><path class="cls-12" d="M3.93,27.21a60.11,60.11,0,0,0-.12-6.71c-.56.1-1.24.09-1.43-.14-.4-.53-.68-2.73-.28-3.09s3.89-.51,4.47,0a1.81,1.81,0,0,1,.5.63c.62,1.23.54,7.49.33,9.29.72,0,1.25.14,1.3.3a5.38,5.38,0,0,1,.08,2.11c-.1.83-6,.62-6.23.1a3.92,3.92,0,0,1,0-2.32,5.52,5.52,0,0,1,1.34-.17Z"/><path class="cls-13" d="M8.78,29.6a5.38,5.38,0,0,0-.08-2.11s0,0,0,0a3.73,3.73,0,0,1-.22.86,2.15,2.15,0,0,1-1.7,1.32c-.89.18-3.49.08-4.16-.59l0,0a.89.89,0,0,1-.15-.27,2.72,2.72,0,0,0,.15,1h0c.31.47,5.28.68,6.11.06a.27.27,0,0,0,.12-.17Z"/><path class="cls-14" d="M7.35,21.31c0-.52,0-1-.1-1.54a10.52,10.52,0,0,0-.14-1.11A2.64,2.64,0,0,0,6.92,18a1.88,1.88,0,0,0-.46-.58,5.25,5.25,0,0,0-2.11-.31,10.83,10.83,0,0,0-1.39.1,2.1,2.1,0,0,0-.74.21c-.09.08-.12.39-.13.5a5.36,5.36,0,0,0,0,1v.05a3.63,3.63,0,0,0,.38,1.32c.14.17.79.14,1,.12l.27,0,.19,0v.2c.08,1.24.14,2.49.16,3.74a12.74,12.74,0,0,0,2.33-.39,1.21,1.21,0,0,0,.9-1.19c0-.45,0-.9,0-1.34Z"/><path class="cls-15" d="M3,20.25c-.12.1-.39-.12-.45-.25a3.93,3.93,0,0,1-.31-2.09c0-.43.18-.54.61-.6a9.46,9.46,0,0,1,1.07-.12,6.33,6.33,0,0,1,2.34.22.16.16,0,0,1-.08.3A11.33,11.33,0,0,0,3.64,18a.65.65,0,0,0-.5.47c-.1.37,0,1.72-.15,1.81Z"/></g></g></g></svg>