<svg xmlns="http://www.w3.org/2000/svg" xmlns:xlink="http://www.w3.org/1999/xlink" viewBox="0 0 32.29 31.01"><defs><style>.cls-1{isolation:isolate;}.cls-10,.cls-13,.cls-14,.cls-16,.cls-17,.cls-18,.cls-2,.cls-3,.cls-4,.cls-5,.cls-8,.cls-9{fill-rule:evenodd;}.cls-2{fill:url(#linear-gradient);}.cls-3{fill:url(#linear-gradient-2);}.cls-4{fill:url(#linear-gradient-3);}.cls-5{opacity:0.75;fill:url(#New_Gradient_Swatch_159);}.cls-14,.cls-17,.cls-18,.cls-5,.cls-6,.cls-7{mix-blend-mode:screen;}.cls-6{fill:url(#linear-gradient-4);}.cls-7{fill:url(#linear-gradient-5);}.cls-8{fill:#004d80;}.cls-11,.cls-13,.cls-16,.cls-8{mix-blend-mode:multiply;}.cls-9{fill:#5499ed;}.cls-10{fill:url(#linear-gradient-6);}.cls-11{fill:#4d5e6e;opacity:0.5;}.cls-12{fill:url(#linear-gradient-7);}.cls-13{fill:url(#linear-gradient-8);}.cls-14{fill:url(#New_Gradient_Swatch_158);}.cls-15{fill:url(#linear-gradient-9);}.cls-16{fill:url(#linear-gradient-10);}.cls-17{fill:url(#New_Gradient_Swatch_158-2);}.cls-18{fill:url(#linear-gradient-11);}</style><linearGradient id="linear-gradient" x1="16.79" y1="29.29" x2="16.79" y2="1.72" gradientUnits="userSpaceOnUse"><stop offset="0" stop-color="#132540"/><stop offset="0.43" stop-color="#114378"/><stop offset="1" stop-color="#2f65b2"/></linearGradient><linearGradient id="linear-gradient-2" x1="16.79" y1="27.92" x2="16.79" y2="3.09" gradientUnits="userSpaceOnUse"><stop offset="0" stop-color="#0d2f54"/><stop offset="0.33" stop-color="#1a3f63"/><stop offset="1" stop-color="#185b8e"/></linearGradient><linearGradient id="linear-gradient-3" x1="16.79" y1="31.01" x2="16.79" gradientUnits="userSpaceOnUse"><stop offset="0" stop-color="#003073"/><stop offset="0.33" stop-color="#005ed9"/><stop offset="1" stop-color="#1cb7ff"/></linearGradient><linearGradient id="New_Gradient_Swatch_159" x1="16.79" y1="30.61" x2="16.79" y2="0.39" gradientUnits="userSpaceOnUse"><stop offset="0" stop-color="#040819"/><stop offset="0.19"/><stop offset="0.44" stop-color="#0d1d59"/><stop offset="0.52" stop-color="#175c9e"/><stop offset="1" stop-color="#387bba"/></linearGradient><linearGradient id="linear-gradient-4" x1="16.79" y1="8.42" x2="16.79" y2="0.51" gradientUnits="userSpaceOnUse"><stop offset="0" stop-color="#6bb7e0"/><stop offset="1" stop-color="#cff8ff"/></linearGradient><linearGradient id="linear-gradient-5" x1="16.79" y1="29.71" x2="16.79" y2="25.08" gradientUnits="userSpaceOnUse"><stop offset="0" stop-color="#1485de"/><stop offset="1" stop-color="#132d52"/></linearGradient><linearGradient id="linear-gradient-6" x1="23.83" y1="26.01" x2="9.75" y2="11.92" gradientUnits="userSpaceOnUse"><stop offset="0" stop-color="#0a74ff"/><stop offset="1" stop-color="#0ef"/></linearGradient><linearGradient id="linear-gradient-7" x1="4.37" y1="29.16" x2="4.37" y2="15.67" gradientUnits="userSpaceOnUse"><stop offset="0" stop-color="#ed7a00"/><stop offset="1" stop-color="#ffc300"/></linearGradient><linearGradient id="linear-gradient-8" x1="4.41" y1="29.16" x2="4.41" y2="23.92" gradientUnits="userSpaceOnUse"><stop offset="0" stop-color="#e6a750"/><stop offset="1" stop-color="#fff"/></linearGradient><linearGradient id="New_Gradient_Swatch_158" x1="4.35" y1="23.28" x2="4.35" y2="15.85" gradientUnits="userSpaceOnUse"><stop offset="0" stop-color="#000a00"/><stop offset="1" stop-color="#fffb7d"/></linearGradient><linearGradient id="linear-gradient-9" x1="12.9" y1="28.7" x2="12.9" y2="16.19" xlink:href="#linear-gradient-7"/><linearGradient id="linear-gradient-10" x1="13.12" y1="28.7" x2="13.12" y2="24.35" xlink:href="#linear-gradient-8"/><linearGradient id="New_Gradient_Swatch_158-2" x1="12.84" y1="23.25" x2="12.84" y2="16.35" xlink:href="#New_Gradient_Swatch_158"/><linearGradient id="linear-gradient-11" x1="11.39" y1="20.3" x2="11.39" y2="16.47" gradientUnits="userSpaceOnUse"><stop offset="0" stop-color="#000a00"/><stop offset="1" stop-color="#fffdc4"/></linearGradient></defs><title>Asset 1</title><g class="cls-1"><g id="Layer_2" data-name="Layer 2"><g id="Layer_1-2" data-name="Layer 1"><path class="cls-2" d="M16.79,1.72A13.79,13.79,0,1,1,3,15.5,13.79,13.79,0,0,1,16.79,1.72Z"/><path class="cls-3" d="M16.79,3.09A12.42,12.42,0,1,1,4.37,15.5,12.41,12.41,0,0,1,16.79,3.09Z"/><path class="cls-4" d="M16.79,2.36A13.15,13.15,0,1,1,3.64,15.5,13.14,13.14,0,0,1,16.79,2.36Zm0-2.36A15.51,15.51,0,1,1,1.29,15.5,15.5,15.5,0,0,1,16.79,0Z"/><path class="cls-5" d="M16.79.39A15.11,15.11,0,1,0,31.9,15.5,15.11,15.11,0,0,0,16.79.39Zm0,1.58A13.54,13.54,0,1,1,3.25,15.5,13.54,13.54,0,0,1,16.79,2Z"/><path class="cls-6" d="M4.28,8.28a.26.26,0,0,1-.37.1A.27.27,0,0,1,3.8,8a15,15,0,0,1,26,0,.27.27,0,0,1-.47.27,14.46,14.46,0,0,0-25,0Z"/><path class="cls-7" d="M26.44,25.16a.28.28,0,0,1,.4,0,.29.29,0,0,1,0,.39,14.45,14.45,0,0,1-4.61,3.08A14.21,14.21,0,0,1,6.74,25.55a.28.28,0,0,1,.39-.39,13.64,13.64,0,0,0,19.31,0Z"/><path class="cls-8" d="M27.53,21.74a12.19,12.19,0,0,1-21.48,0,12.42,12.42,0,0,0,21.48,0Z"/><path class="cls-9" d="M16.79,2.85A12.3,12.3,0,0,1,27.53,9.27a12.42,12.42,0,0,0-21.48,0A12.3,12.3,0,0,1,16.79,2.85Z"/><path class="cls-10" d="M12.53,18c-2.66,1.06-3.76,3.83-4.17,6.62a12.42,12.42,0,0,0,16.86,0c-.42-2.79-1.51-5.56-4.17-6.62a6.91,6.91,0,0,0-.77-.25,1.91,1.91,0,0,0-1.31.11,5.12,5.12,0,0,1-4.37,0,1.88,1.88,0,0,0-1.3-.11,6.91,6.91,0,0,0-.77.25ZM12,12a5.22,5.22,0,0,0,4.76,5,5.22,5.22,0,0,0,4.76-5,4.65,4.65,0,0,0-4.76-5A4.65,4.65,0,0,0,12,12Z"/><path class="cls-11" d="M3.36,29.89A3.17,3.17,0,0,1,.25,26.74a1.12,1.12,0,0,1,.24-.84c.23-.23,1.18-.24,2.6-.15a.8.8,0,0,1,.65.49c.13.31,0,.72.32.88a.94.94,0,0,0,1.32-.91.78.78,0,0,0-.52-.87c-.77-.18-1.77-.1-2.2-.46A1.41,1.41,0,0,1,2.42,23c.48-.53,1.42-.23,2.1-.53.83-.37.85-2.84-.51-2.36a.43.43,0,0,0-.22.56.88.88,0,0,1-.27,1.13,2,2,0,0,1-1.68.43C.23,22-.16,20.2.58,18.86c1-1.84,4-2.18,5.74-1.22,2.67,1.51,3,4.61.31,6.48a2.51,2.51,0,0,1,1.83,3.1c-.5,2.58-3,2.83-5.1,2.67Z"/><path class="cls-12" d="M3.3,29.12A3.35,3.35,0,0,1,0,25.8a1.22,1.22,0,0,1,.25-.88c.25-.24,1.25-.26,2.74-.16a.88.88,0,0,1,.69.51c.13.33,0,.77.33.93a1,1,0,0,0,1.39-.95c0-.4-.12-.83-.55-.92-.81-.19-1.86-.1-2.31-.48a1.49,1.49,0,0,1-.25-2c.51-.56,1.49-.25,2.21-.56.87-.38.9-3-.54-2.48a.44.44,0,0,0-.23.58,1,1,0,0,1-.28,1.2,2.18,2.18,0,0,1-1.78.45C0,20.81-.4,18.93.38,17.51c1.07-1.94,4.25-2.3,6-1.28,2.81,1.59,3.15,4.84.32,6.81a2.66,2.66,0,0,1,1.94,3.27c-.53,2.72-3.13,3-5.38,2.81Z"/><path class="cls-13" d="M.27,27a3.37,3.37,0,0,0,3,2.11c2.07.15,4.43-.05,5.21-2.19a3.74,3.74,0,0,0,.17-.62,2.75,2.75,0,0,0-.53-2.39,3.92,3.92,0,0,1,.08,1.43C8,27.63,5.56,28.8,3.07,28.43a3.23,3.23,0,0,1-2.82-1.8,4.68,4.68,0,0,1-.19-.45A3.61,3.61,0,0,0,.27,27Z"/><path class="cls-14" d="M3.93,18.7a.94.94,0,0,1,.88.06,1.57,1.57,0,0,1,.5,1.4,2.44,2.44,0,0,1-.22.84,1,1,0,0,1-.49.5,2.81,2.81,0,0,1-.86.18H3.68c-.4,0-1,0-1.23.34a.92.92,0,0,0-.16.27,1.5,1.5,0,0,0,0,.89.14.14,0,0,0,0,.06l0,0a13.19,13.19,0,0,0,4.46-.86,2.51,2.51,0,0,0,1.39-1.29,4,4,0,0,0,.24-.69,3.26,3.26,0,0,0,.07-.94,4,4,0,0,0-2.18-3.12,4.8,4.8,0,0,0-2.76-.51,3.84,3.84,0,0,0-3,1.73,2.75,2.75,0,0,0-.25,2.07,1.74,1.74,0,0,0,1.45,1.25,2,2,0,0,0,1.64-.42.78.78,0,0,0,.23-1,.61.61,0,0,1,.33-.8Z"/><path class="cls-11" d="M10.24,28c-1.65-2.13-1.77-7.46,0-9.57,1-1.2,4.14-1.25,5.15,0,2.05,2.46,1.9,7.76-.24,10.12-1.33,1.47-3.78.93-4.91-.52Zm3.51-2.86c.12-1,.25-3.69-.42-4.47-.44-.51-.91.07-1.07.48a8.31,8.31,0,0,0,0,4.26c.61,2.19,1.24,1.83,1.52-.27Z"/><path class="cls-15" d="M10.1,27.23c-1.74-2.24-1.86-7.85,0-10.07,1.06-1.26,4.35-1.31,5.42,0,2.15,2.59,2,8.16-.26,10.65-1.39,1.55-4,1-5.16-.55Zm3.69-3c.14-1,.27-3.89-.44-4.7-.46-.54-.95.07-1.13.5a8.87,8.87,0,0,0,0,4.49c.65,2.3,1.31,1.92,1.6-.29Z"/><path class="cls-16" d="M10.1,27.23c1.19,1.53,3.77,2.1,5.16.55a6.74,6.74,0,0,0,1.45-2.86c.05-.19.09-.38.13-.57l-.09.34a4.09,4.09,0,0,1-2.84,2.91c-1.29.36-3.62.06-4.5-1.64a5.09,5.09,0,0,0,.69,1.27Z"/><path class="cls-17" d="M12.29,19.58c.31-.43.78-.63,1.18-.17s.62,2.14.59,3.4a12.89,12.89,0,0,0,1.8-.65,1.54,1.54,0,0,0,.89-1.68,8.82,8.82,0,0,0-.2-.89,6.18,6.18,0,0,0-1.15-2.36c-1-1.2-4.18-1.15-5.18,0S8.77,20.9,9,23.11H9a12.59,12.59,0,0,0,1.85.14c.34,0,.67,0,1,0A7.84,7.84,0,0,1,12.07,20a1.79,1.79,0,0,1,.22-.38Z"/><path class="cls-18" d="M11.94,16.56a2.7,2.7,0,0,0-1.59.78,4.9,4.9,0,0,0-1.1,2.58c-.05.45.15.5.39.14a6.57,6.57,0,0,1,3.4-3c.31-.12.52-.21.5-.34-.07-.39-1.31-.24-1.6-.17Z"/></g></g></g></svg>