<svg xmlns="http://www.w3.org/2000/svg" xmlns:xlink="http://www.w3.org/1999/xlink" viewBox="0 0 33.29 31.01"><defs><style>.cls-1{isolation:isolate;}.cls-10,.cls-13,.cls-14,.cls-15,.cls-17,.cls-18,.cls-19,.cls-2,.cls-3,.cls-4,.cls-5,.cls-8,.cls-9{fill-rule:evenodd;}.cls-2{fill:url(#linear-gradient);}.cls-3{fill:url(#linear-gradient-2);}.cls-4{fill:url(#linear-gradient-3);}.cls-5{opacity:0.75;fill:url(#New_Gradient_Swatch_159);}.cls-14,.cls-15,.cls-18,.cls-19,.cls-5,.cls-6,.cls-7{mix-blend-mode:screen;}.cls-6{fill:url(#linear-gradient-4);}.cls-7{fill:url(#linear-gradient-5);}.cls-8{fill:#004d80;}.cls-11,.cls-13,.cls-17,.cls-8{mix-blend-mode:multiply;}.cls-9{fill:#5499ed;}.cls-10{fill:url(#linear-gradient-6);}.cls-11{fill:#4d5e6e;opacity:0.5;}.cls-12{fill:url(#linear-gradient-7);}.cls-13{fill:url(#linear-gradient-8);}.cls-14{fill:url(#New_Gradient_Swatch_158);}.cls-15{fill:url(#linear-gradient-9);}.cls-16{fill:url(#linear-gradient-10);}.cls-17{fill:url(#linear-gradient-11);}.cls-18{fill:url(#New_Gradient_Swatch_158-2);}.cls-19{fill:url(#linear-gradient-12);}</style><linearGradient id="linear-gradient" x1="17.79" y1="29.29" x2="17.79" y2="1.72" gradientUnits="userSpaceOnUse"><stop offset="0" stop-color="#132540"/><stop offset="0.43" stop-color="#114378"/><stop offset="1" stop-color="#2f65b2"/></linearGradient><linearGradient id="linear-gradient-2" x1="17.79" y1="27.92" x2="17.79" y2="3.09" gradientUnits="userSpaceOnUse"><stop offset="0" stop-color="#0d2f54"/><stop offset="0.33" stop-color="#1a3f63"/><stop offset="1" stop-color="#185b8e"/></linearGradient><linearGradient id="linear-gradient-3" x1="17.79" y1="31.01" x2="17.79" gradientUnits="userSpaceOnUse"><stop offset="0" stop-color="#003073"/><stop offset="0.33" stop-color="#005ed9"/><stop offset="1" stop-color="#1cb7ff"/></linearGradient><linearGradient id="New_Gradient_Swatch_159" x1="17.79" y1="30.61" x2="17.79" y2="0.39" gradientUnits="userSpaceOnUse"><stop offset="0" stop-color="#040819"/><stop offset="0.19"/><stop offset="0.44" stop-color="#0d1d59"/><stop offset="0.52" stop-color="#175c9e"/><stop offset="1" stop-color="#387bba"/></linearGradient><linearGradient id="linear-gradient-4" x1="17.79" y1="8.42" x2="17.79" y2="0.51" gradientUnits="userSpaceOnUse"><stop offset="0" stop-color="#6bb7e0"/><stop offset="1" stop-color="#cff8ff"/></linearGradient><linearGradient id="linear-gradient-5" x1="17.79" y1="29.71" x2="17.79" y2="25.08" gradientUnits="userSpaceOnUse"><stop offset="0" stop-color="#1485de"/><stop offset="1" stop-color="#132d52"/></linearGradient><linearGradient id="linear-gradient-6" x1="24.83" y1="26.01" x2="10.74" y2="11.92" gradientUnits="userSpaceOnUse"><stop offset="0" stop-color="#0a74ff"/><stop offset="1" stop-color="#0ef"/></linearGradient><linearGradient id="linear-gradient-7" x1="12.6" y1="28.49" x2="12.6" y2="15.99" gradientUnits="userSpaceOnUse"><stop offset="0" stop-color="#ed7a00"/><stop offset="1" stop-color="#ffc300"/></linearGradient><linearGradient id="linear-gradient-8" x1="12.83" y1="28.49" x2="12.83" y2="24.15" gradientUnits="userSpaceOnUse"><stop offset="0" stop-color="#e6a750"/><stop offset="1" stop-color="#fff"/></linearGradient><linearGradient id="New_Gradient_Swatch_158" x1="12.55" y1="23.05" x2="12.55" y2="16.15" gradientUnits="userSpaceOnUse"><stop offset="0" stop-color="#000a00"/><stop offset="1" stop-color="#fffb7d"/></linearGradient><linearGradient id="linear-gradient-9" x1="11.09" y1="20.09" x2="11.09" y2="16.27" gradientUnits="userSpaceOnUse"><stop offset="0" stop-color="#000a00"/><stop offset="1" stop-color="#fffdc4"/></linearGradient><linearGradient id="linear-gradient-10" x1="4.09" y1="28.12" x2="4.09" y2="15.61" xlink:href="#linear-gradient-7"/><linearGradient id="linear-gradient-11" x1="4.09" y1="28.12" x2="4.09" y2="24.74" xlink:href="#linear-gradient-8"/><linearGradient id="New_Gradient_Swatch_158-2" x1="4.1" y1="22.65" x2="4.1" y2="15.77" xlink:href="#New_Gradient_Swatch_158"/><linearGradient id="linear-gradient-12" x1="2.84" y1="20.11" x2="2.84" y2="15.92" xlink:href="#linear-gradient-9"/></defs><title>Asset 5</title><g class="cls-1"><g id="Layer_2" data-name="Layer 2"><g id="Layer_1-2" data-name="Layer 1"><path class="cls-2" d="M17.79,1.72A13.79,13.79,0,1,1,4,15.5,13.78,13.78,0,0,1,17.79,1.72Z"/><path class="cls-3" d="M17.79,3.09A12.42,12.42,0,1,1,5.37,15.5,12.41,12.41,0,0,1,17.79,3.09Z"/><path class="cls-4" d="M17.79,2.36A13.15,13.15,0,1,1,4.64,15.5,13.14,13.14,0,0,1,17.79,2.36Zm0-2.36A15.51,15.51,0,1,1,2.28,15.5,15.5,15.5,0,0,1,17.79,0Z"/><path class="cls-5" d="M17.79.39A15.11,15.11,0,1,0,32.9,15.5,15.11,15.11,0,0,0,17.79.39Zm0,1.58A13.54,13.54,0,1,1,4.25,15.5,13.53,13.53,0,0,1,17.79,2Z"/><path class="cls-6" d="M5.28,8.28a.27.27,0,0,1-.38.1A.27.27,0,0,1,4.8,8a15,15,0,0,1,26,0,.27.27,0,0,1-.1.37.27.27,0,0,1-.38-.1,14.45,14.45,0,0,0-25,0Z"/><path class="cls-7" d="M27.44,25.16a.28.28,0,0,1,.39.39,14.21,14.21,0,0,1-20.09,0,.28.28,0,0,1,.39-.39,13.65,13.65,0,0,0,19.31,0Z"/><path class="cls-8" d="M28.53,21.74a12.19,12.19,0,0,1-21.48,0,12.42,12.42,0,0,0,21.48,0Z"/><path class="cls-9" d="M17.79,2.85A12.31,12.31,0,0,1,28.53,9.27a12.42,12.42,0,0,0-21.48,0A12.29,12.29,0,0,1,17.79,2.85Z"/><path class="cls-10" d="M13.52,18c-2.65,1.06-3.75,3.83-4.16,6.62a12.42,12.42,0,0,0,16.86,0c-.42-2.79-1.51-5.56-4.17-6.62a6.91,6.91,0,0,0-.77-.25,1.91,1.91,0,0,0-1.31.11,5.12,5.12,0,0,1-4.37,0,1.91,1.91,0,0,0-1.31-.11,7.66,7.66,0,0,0-.77.25ZM13,12a5.22,5.22,0,0,0,4.76,5,5.22,5.22,0,0,0,4.76-5,4.65,4.65,0,0,0-4.76-5A4.64,4.64,0,0,0,13,12Z"/><path class="cls-11" d="M10,27.81c-1.66-2.12-1.77-7.45,0-9.56,1-1.2,4.13-1.25,5.15,0,2,2.46,1.9,7.75-.25,10.12-1.33,1.47-3.77.93-4.9-.53ZM13.45,25c.13-1,.26-3.7-.42-4.47-.44-.51-.9.07-1.07.48a8.31,8.31,0,0,0,0,4.26c.62,2.19,1.25,1.82,1.52-.27Z"/><path class="cls-12" d="M9.81,27c-1.75-2.23-1.87-7.84,0-10.06,1.06-1.27,4.35-1.32,5.42,0,2.15,2.59,2,8.16-.26,10.65-1.4,1.54-4,1-5.16-.56Zm3.69-3c.13-1,.27-3.89-.44-4.71-.47-.53-1,.08-1.13.51a8.72,8.72,0,0,0,0,4.48c.64,2.31,1.31,1.92,1.6-.28Z"/><path class="cls-13" d="M9.81,27c1.19,1.53,3.76,2.1,5.16.56a7,7,0,0,0,1.45-2.86c0-.19.09-.38.13-.57a3.18,3.18,0,0,1-.1.33,4.07,4.07,0,0,1-2.84,2.92c-1.29.35-3.62.06-4.5-1.64A4.59,4.59,0,0,0,9.81,27Z"/><path class="cls-14" d="M12,19.37c.32-.43.79-.63,1.19-.16s.62,2.13.58,3.4A11.89,11.89,0,0,0,15.57,22a1.54,1.54,0,0,0,.89-1.67c-.06-.3-.12-.6-.2-.89A6.35,6.35,0,0,0,15.1,17c-1-1.2-4.17-1.16-5.17,0S8.48,20.7,8.66,22.91h0a12.45,12.45,0,0,0,1.84.14c.34,0,.68,0,1,0a7.84,7.84,0,0,1,.27-3.25,1.83,1.83,0,0,1,.21-.39Z"/><path class="cls-15" d="M11.65,16.35a2.65,2.65,0,0,0-1.6.79A5,5,0,0,0,9,19.72c0,.44.16.5.4.13a6.6,6.6,0,0,1,3.4-3c.3-.12.51-.22.49-.34-.06-.39-1.3-.25-1.59-.18Z"/><path class="cls-11" d="M.77,28.36a3.1,3.1,0,0,1-.5-2.63c.3-1.82,3.31-2.64,4.35-3.8.56-.62,0-1.87-1.16-1.88a1.91,1.91,0,0,1-.41,1.63C2.39,22.2.44,21.81.32,21c-.2-1.36-.21-2.79,1.11-3.52a5.45,5.45,0,0,1,4.25-.2c2.29,1,3.16,4.21,1.22,5.9-.53.45-1.82,1.16-3.65,2.48a16,16,0,0,0,3.33-.48c.88-.18,1,0,1.21.61A6.62,6.62,0,0,1,8,27.45a.76.76,0,0,1-.21.61c-1.08.84-6.11,1.09-7,.3Z"/><path class="cls-16" d="M.6,27.62a3.22,3.22,0,0,1-.53-2.77c.31-1.91,3.48-2.78,4.58-4,.59-.65,0-2-1.23-2A2,2,0,0,1,3,20.59c-.7.54-2.76.14-2.88-.7C-.08,18.46-.1,17,1.29,16.18A5.71,5.71,0,0,1,5.77,16c2.4,1,3.32,4.43,1.28,6.2-.56.49-1.92,1.23-3.84,2.62a17.69,17.69,0,0,0,3.5-.5c.93-.2,1.1,0,1.28.63a7.39,7.39,0,0,1,.19,1.75.82.82,0,0,1-.23.64c-1.13.88-6.43,1.14-7.35.31Z"/><path class="cls-17" d="M.23,27.05a1.6,1.6,0,0,0,.37.57c.92.83,6.22.57,7.35-.31l0,0a.87.87,0,0,0,.21-.62A7.39,7.39,0,0,0,8,24.92a1.21,1.21,0,0,1,0-.18,6,6,0,0,1-.26.72A3.47,3.47,0,0,1,5,27.41c-1.1.26-3.31.25-4.22-.52a2.55,2.55,0,0,1-.52-.69A3.21,3.21,0,0,1,0,25.74a3.5,3.5,0,0,0,.23,1.31Z"/><path class="cls-18" d="M1.37,16.32C.15,17,.09,18.29.24,19.51c0,.12,0,.24,0,.35.07.47.9.71,1.28.78a2,2,0,0,0,1.34-.18,2,2,0,0,0,.36-1.57l0-.18h.19a1.64,1.64,0,0,1,1.3.66A1.36,1.36,0,0,1,5,20.61a.94.94,0,0,1-.2.35h0a12.23,12.23,0,0,1-2.49,1.69,11.38,11.38,0,0,0,1.66-.15,11.8,11.8,0,0,0,2.59-.71A2.34,2.34,0,0,0,8,19.47,4,4,0,0,0,5.7,16.12a5.51,5.51,0,0,0-2.61-.31,4.89,4.89,0,0,0-1.72.51Z"/><path class="cls-19" d="M4.2,15.93a4.24,4.24,0,0,0-3.31.95A3.83,3.83,0,0,0,.4,19.63c.15.56.55.61.66.26C1.93,17.11,2.3,17,4.88,16.63c.59-.07.87-.63-.68-.7Z"/></g></g></g></svg>