<svg xmlns="http://www.w3.org/2000/svg" xmlns:xlink="http://www.w3.org/1999/xlink" viewBox="0 0 166.45 164.95"><defs><style>.cls-1{isolation:isolate;}.cls-2{fill:url(#_1321);}.cls-10,.cls-100,.cls-101,.cls-102,.cls-104,.cls-106,.cls-107,.cls-109,.cls-110,.cls-112,.cls-113,.cls-114,.cls-116,.cls-117,.cls-118,.cls-12,.cls-120,.cls-121,.cls-122,.cls-124,.cls-125,.cls-126,.cls-128,.cls-129,.cls-13,.cls-130,.cls-132,.cls-133,.cls-134,.cls-135,.cls-136,.cls-138,.cls-140,.cls-144,.cls-145,.cls-146,.cls-147,.cls-17,.cls-19,.cls-20,.cls-24,.cls-26,.cls-28,.cls-29,.cls-3,.cls-30,.cls-31,.cls-32,.cls-33,.cls-35,.cls-36,.cls-37,.cls-38,.cls-39,.cls-40,.cls-42,.cls-43,.cls-44,.cls-45,.cls-47,.cls-48,.cls-49,.cls-5,.cls-50,.cls-51,.cls-52,.cls-54,.cls-55,.cls-56,.cls-57,.cls-58,.cls-59,.cls-6,.cls-61,.cls-62,.cls-63,.cls-64,.cls-66,.cls-67,.cls-68,.cls-69,.cls-70,.cls-71,.cls-73,.cls-74,.cls-75,.cls-76,.cls-77,.cls-78,.cls-80,.cls-81,.cls-82,.cls-83,.cls-85,.cls-86,.cls-87,.cls-88,.cls-89,.cls-90,.cls-92,.cls-93,.cls-94,.cls-95,.cls-96,.cls-97,.cls-99{opacity:0.5;}.cls-10,.cls-100,.cls-104,.cls-106,.cls-107,.cls-109,.cls-110,.cls-112,.cls-114,.cls-116,.cls-118,.cls-12,.cls-120,.cls-122,.cls-124,.cls-126,.cls-128,.cls-130,.cls-132,.cls-134,.cls-135,.cls-140,.cls-144,.cls-147,.cls-17,.cls-19,.cls-24,.cls-26,.cls-28,.cls-29,.cls-3,.cls-32,.cls-33,.cls-35,.cls-36,.cls-39,.cls-40,.cls-42,.cls-43,.cls-47,.cls-48,.cls-5,.cls-51,.cls-52,.cls-54,.cls-55,.cls-58,.cls-59,.cls-61,.cls-62,.cls-66,.cls-67,.cls-70,.cls-71,.cls-73,.cls-74,.cls-77,.cls-78,.cls-80,.cls-81,.cls-85,.cls-86,.cls-89,.cls-90,.cls-92,.cls-93,.cls-96,.cls-97,.cls-99{mix-blend-mode:multiply;}.cls-3{fill:url(#_1240);}.cls-4{fill:url(#_1321-2);}.cls-5{fill:url(#_1240-2);}.cls-101,.cls-102,.cls-113,.cls-117,.cls-121,.cls-125,.cls-129,.cls-13,.cls-133,.cls-136,.cls-138,.cls-142,.cls-143,.cls-145,.cls-146,.cls-15,.cls-20,.cls-22,.cls-30,.cls-31,.cls-37,.cls-38,.cls-44,.cls-45,.cls-49,.cls-50,.cls-56,.cls-57,.cls-6,.cls-63,.cls-64,.cls-68,.cls-69,.cls-75,.cls-76,.cls-8,.cls-82,.cls-83,.cls-87,.cls-88,.cls-94,.cls-95{mix-blend-mode:color-dodge;}.cls-6{fill:url(#_1056);}.cls-7{fill:url(#linear-gradient);}.cls-142,.cls-143,.cls-15,.cls-22,.cls-8{opacity:0.8;}.cls-8{fill:url(#_1289);}.cls-9{fill:url(#_1321-3);}.cls-10{fill:url(#_1240-3);}.cls-11{fill:url(#_1321-4);}.cls-12{fill:url(#_1240-4);}.cls-13{fill:url(#_1056-2);}.cls-14{fill:url(#linear-gradient-2);}.cls-15{fill:url(#_1289-2);}.cls-16{fill:url(#_1321-5);}.cls-17{fill:url(#_1240-5);}.cls-18{fill:url(#_1321-6);}.cls-19{fill:url(#_1240-6);}.cls-20{fill:url(#_1056-3);}.cls-21{fill:url(#linear-gradient-3);}.cls-22{fill:url(#_1289-3);}.cls-23{fill:url(#_1321-7);}.cls-24{fill:url(#_1071);}.cls-25{fill:url(#_1321-8);}.cls-26{fill:url(#_1240-7);}.cls-27{fill:url(#_1321-9);}.cls-28{fill:url(#_1240-8);}.cls-29{fill:url(#_1071-2);}.cls-30{fill:url(#_1056-4);}.cls-31{fill:url(#_1056-5);}.cls-32{fill:url(#_1240-9);}.cls-33{fill:url(#_1240-10);}.cls-34{fill:url(#_1321-10);}.cls-35{fill:url(#_1240-11);}.cls-36{fill:url(#_1071-3);}.cls-37{fill:url(#_1056-6);}.cls-38{fill:url(#_1056-7);}.cls-39{fill:url(#_1240-12);}.cls-40{fill:url(#_1240-13);}.cls-41{fill:url(#_1321-11);}.cls-42{fill:url(#_1250);}.cls-43{fill:url(#_1071-4);}.cls-44{fill:url(#_1056-8);}.cls-45{fill:url(#_1056-9);}.cls-46{fill:url(#_1321-12);}.cls-47{fill:url(#_1240-14);}.cls-48{fill:url(#_1071-5);}.cls-49{fill:url(#_1056-10);}.cls-50{fill:url(#_1056-11);}.cls-51{fill:url(#_1240-15);}.cls-52{fill:url(#_1240-16);}.cls-53{fill:url(#_1321-13);}.cls-54{fill:url(#_1240-17);}.cls-55{fill:url(#_1071-6);}.cls-56{fill:url(#_1056-12);}.cls-57{fill:url(#_1056-13);}.cls-58{fill:url(#_1240-18);}.cls-59{fill:url(#_1240-19);}.cls-60{fill:url(#_1321-14);}.cls-61{fill:url(#_1250-2);}.cls-62{fill:url(#_1071-7);}.cls-63{fill:url(#_1056-14);}.cls-64{fill:url(#_1056-15);}.cls-65{fill:url(#_1321-15);}.cls-66{fill:url(#_1240-20);}.cls-67{fill:url(#_1071-8);}.cls-68{fill:url(#_1056-16);}.cls-69{fill:url(#_1056-17);}.cls-70{fill:url(#_1240-21);}.cls-71{fill:url(#_1240-22);}.cls-72{fill:url(#_1321-16);}.cls-73{fill:url(#_1240-23);}.cls-74{fill:url(#_1071-9);}.cls-75{fill:url(#_1056-18);}.cls-76{fill:url(#_1056-19);}.cls-77{fill:url(#_1240-24);}.cls-78{fill:url(#_1240-25);}.cls-79{fill:url(#_1321-17);}.cls-80{fill:url(#_1250-3);}.cls-81{fill:url(#_1071-10);}.cls-82{fill:url(#_1056-20);}.cls-83{fill:url(#_1056-21);}.cls-84{fill:url(#_1321-18);}.cls-85{fill:url(#_1240-26);}.cls-86{fill:url(#_1071-11);}.cls-87{fill:url(#_1056-22);}.cls-88{fill:url(#_1056-23);}.cls-89{fill:url(#_1240-27);}.cls-90{fill:url(#_1240-28);}.cls-91{fill:url(#_1321-19);}.cls-92{fill:url(#_1240-29);}.cls-93{fill:url(#_1071-12);}.cls-94{fill:url(#_1056-24);}.cls-95{fill:url(#_1056-25);}.cls-96{fill:url(#_1240-30);}.cls-97{fill:url(#_1240-31);}.cls-98{fill:url(#_1321-20);}.cls-99{fill:url(#_1250-4);}.cls-100{fill:url(#_1071-13);}.cls-101{fill:url(#_1056-26);}.cls-102{fill:url(#_1056-27);}.cls-103{fill:url(#_1321-21);}.cls-104{fill:url(#_1071-14);}.cls-105{fill:url(#_1321-22);}.cls-106{fill:url(#_1240-32);}.cls-107{fill:url(#_1071-15);}.cls-108{fill:url(#_1321-23);}.cls-109{fill:url(#_1240-33);}.cls-110{fill:url(#_1071-16);}.cls-111{fill:url(#_1321-24);}.cls-112{fill:url(#_1240-34);}.cls-113{fill:url(#_1056-28);}.cls-114{fill:url(#_1071-17);}.cls-115{fill:url(#_1321-25);}.cls-116{fill:url(#_1240-35);}.cls-117{fill:url(#_1056-29);}.cls-118{fill:url(#_1071-18);}.cls-119{fill:url(#_1321-26);}.cls-120{fill:url(#_1240-36);}.cls-121{fill:url(#_1056-30);}.cls-122{fill:url(#_1071-19);}.cls-123{fill:url(#_1321-27);}.cls-124{fill:url(#_1240-37);}.cls-125{fill:url(#_1056-31);}.cls-126{fill:url(#_1071-20);}.cls-127{fill:url(#_1321-28);}.cls-128{fill:url(#_1240-38);}.cls-129{fill:url(#_1056-32);}.cls-130{fill:url(#_1071-21);}.cls-131{fill:url(#_1321-29);}.cls-132{fill:url(#_1240-39);}.cls-133{fill:url(#_1056-33);}.cls-134{fill:url(#_1240-40);}.cls-135{fill:url(#_1240-41);}.cls-136{fill:url(#_1056-34);}.cls-137{fill:#736fa8;}.cls-138{fill:url(#_1056-35);}.cls-139{fill:url(#linear-gradient-4);}.cls-140{fill:url(#_1240-42);}.cls-141{fill:#fff;}.cls-142{fill:url(#_1289-4);}.cls-143{fill:url(#_1289-5);}.cls-144{fill:url(#_1240-43);}.cls-145{fill:url(#_1056-36);}.cls-146{fill:url(#_1056-37);}.cls-147{fill:url(#_1240-44);}.cls-148{fill:url(#_1248);}.cls-149{fill:url(#_1248-2);}.cls-150{fill:url(#_1240-45);}.cls-151{fill:url(#_1321-30);}</style><linearGradient id="_1321" x1="83.17" y1="55.49" x2="83.17" y2="-2.88" gradientUnits="userSpaceOnUse"><stop offset="0" stop-color="#86759d"/><stop offset="0.39" stop-color="#98abd2"/><stop offset="1" stop-color="#dae1ef"/></linearGradient><linearGradient id="_1240" x1="83.17" y1="41.27" x2="83.17" y2="12.1" gradientUnits="userSpaceOnUse"><stop offset="0" stop-color="#8980eb"/><stop offset="1" stop-color="#705ab8"/></linearGradient><linearGradient id="_1321-2" x1="83.13" y1="-13.92" x2="83.13" y2="36.34" xlink:href="#_1321"/><linearGradient id="_1240-2" x1="82.89" y1="37.13" x2="82.89" y2="8.05" xlink:href="#_1240"/><linearGradient id="_1056" x1="87.23" y1="1.98" x2="85.39" y2="12.4" gradientUnits="userSpaceOnUse"><stop offset="0" stop-color="#bfd7ff"/><stop offset="1"/></linearGradient><linearGradient id="linear-gradient" x1="93.37" y1="14.52" x2="93.37" y2="3.54" gradientUnits="userSpaceOnUse"><stop offset="0" stop-color="#fff"/><stop offset="1" stop-color="#fff7c4"/></linearGradient><radialGradient id="_1289" cx="85.91" cy="-831.63" r="15.39" gradientTransform="translate(-0.61 879.7) scale(1.01 1.03)" gradientUnits="userSpaceOnUse"><stop offset="0" stop-color="#8980eb"/><stop offset="0.07" stop-color="#6d65ba"/><stop offset="0.13" stop-color="#534e8f"/><stop offset="0.21" stop-color="#3d3968"/><stop offset="0.29" stop-color="#2a2748"/><stop offset="0.37" stop-color="#1b192e"/><stop offset="0.46" stop-color="#0f0e19"/><stop offset="0.57" stop-color="#06060b"/><stop offset="0.69" stop-color="#010103"/><stop offset="0.9"/></radialGradient><linearGradient id="_1321-3" x1="-8745.87" y1="-1541.83" x2="-8745.87" y2="-1600.2" gradientTransform="translate(1597.68 -8662.99) rotate(-90)" xlink:href="#_1321"/><linearGradient id="_1240-3" x1="-8745.87" y1="-1556.05" x2="-8745.87" y2="-1585.23" gradientTransform="translate(1597.68 -8662.99) rotate(-90)" xlink:href="#_1240"/><linearGradient id="_1321-4" x1="-8745.9" y1="-1612.24" x2="-8745.9" y2="-1561.98" gradientTransform="translate(1597.68 -8662.99) rotate(-90)" xlink:href="#_1321"/><linearGradient id="_1240-4" x1="-8746.15" y1="-1560.55" x2="-8746.15" y2="-1589.63" gradientTransform="translate(1597.68 -8662.99) rotate(-90)" xlink:href="#_1240"/><linearGradient id="_1056-2" x1="-8741.81" y1="-1595.7" x2="-8743.65" y2="-1585.27" gradientTransform="translate(1597.68 -8662.99) rotate(-90)" xlink:href="#_1056"/><linearGradient id="linear-gradient-2" x1="-8735.67" y1="-1583.16" x2="-8735.67" y2="-1594.14" gradientTransform="translate(1597.68 -8662.99) rotate(-90)" xlink:href="#linear-gradient"/><radialGradient id="_1289-2" cx="-8743.12" cy="-2156.73" r="15.39" gradientTransform="translate(2299.87 -8724.06) rotate(-90) scale(1.01 1.06)" xlink:href="#_1289"/><linearGradient id="_1321-5" x1="-8745.87" y1="-9553.87" x2="-8745.87" y2="-9612.24" gradientTransform="matrix(0, -1, -1, 0, -9442.91, -8662.99)" xlink:href="#_1321"/><linearGradient id="_1240-5" x1="-8745.87" y1="-9568.09" x2="-8745.87" y2="-9597.27" gradientTransform="matrix(0, -1, -1, 0, -9442.91, -8662.99)" xlink:href="#_1240"/><linearGradient id="_1321-6" x1="-8745.9" y1="-9623.29" x2="-8745.9" y2="-9573.02" gradientTransform="matrix(0, -1, -1, 0, -9442.91, -8662.99)" xlink:href="#_1321"/><linearGradient id="_1240-6" x1="-8746.15" y1="-9572.23" x2="-8746.15" y2="-9601.31" gradientTransform="matrix(0, -1, -1, 0, -9442.91, -8662.99)" xlink:href="#_1240"/><linearGradient id="_1056-3" x1="-8741.81" y1="-9607.38" x2="-8743.65" y2="-9596.95" gradientTransform="matrix(0, -1, -1, 0, -9442.91, -8662.99)" xlink:href="#_1056"/><linearGradient id="linear-gradient-3" x1="-8735.67" y1="-9594.84" x2="-8735.67" y2="-9605.82" gradientTransform="matrix(0, -1, -1, 0, -9442.91, -8662.99)" xlink:href="#linear-gradient"/><radialGradient id="_1289-3" cx="-8743.12" cy="-8801.57" r="15.39" gradientTransform="matrix(0, -1.01, -1.08, 0, -9320.91, -8724.06)" xlink:href="#_1289"/><linearGradient id="_1321-7" x1="83.17" y1="161.88" x2="83.17" y2="130.89" xlink:href="#_1321"/><linearGradient id="_1071" x1="55.73" y1="142.83" x2="110.6" y2="142.83" gradientUnits="userSpaceOnUse"><stop offset="0" stop-color="#4d3fb8"/><stop offset="0.56" stop-color="#6a80e1"/><stop offset="1" stop-color="#80afff"/></linearGradient><linearGradient id="_1321-8" x1="83.13" y1="142.71" x2="83.13" y2="166.96" xlink:href="#_1321"/><linearGradient id="_1240-7" x1="82.89" y1="158.99" x2="82.89" y2="140.24" xlink:href="#_1240"/><linearGradient id="_1321-9" x1="36.35" y1="25.13" x2="53.49" y2="25.13" xlink:href="#_1321"/><linearGradient id="_1240-8" x1="-9053.47" y1="-1376.8" x2="-9040.93" y2="-1352.37" gradientTransform="matrix(-0.96, -0.29, -0.29, 0.96, -9000.72, -1337.18)" xlink:href="#_1240"/><linearGradient id="_1071-2" x1="-9046.65" y1="-1364.59" x2="-9050.41" y2="-1350.68" gradientTransform="matrix(-0.96, -0.29, -0.29, 0.96, -9000.72, -1337.18)" xlink:href="#_1071"/><linearGradient id="_1056-4" x1="-10300.27" y1="-4192.14" x2="-10310.39" y2="-4184.19" gradientTransform="matrix(-0.67, -0.74, -0.74, 0.67, -9989.24, -4768.09)" xlink:href="#_1056"/><linearGradient id="_1056-5" x1="-10300.77" y1="-4201.89" x2="-10290.62" y2="-4201.89" gradientTransform="matrix(-0.67, -0.74, -0.74, 0.67, -9989.24, -4768.09)" xlink:href="#_1056"/><linearGradient id="_1240-9" x1="-9050.14" y1="-1354.76" x2="-9038.2" y2="-1354.76" gradientTransform="matrix(-0.96, -0.29, -0.29, 0.96, -9000.72, -1337.18)" xlink:href="#_1240"/><linearGradient id="_1240-10" x1="-9050.49" y1="-1366.66" x2="-9042.47" y2="-1355.84" gradientTransform="matrix(-0.96, -0.29, -0.29, 0.96, -9000.72, -1337.18)" xlink:href="#_1240"/><linearGradient id="_1321-10" x1="12.94" y1="44.4" x2="43.4" y2="44.4" xlink:href="#_1321"/><linearGradient id="_1240-11" x1="-6033.32" y1="941.54" x2="-6023.23" y2="961.21" gradientTransform="matrix(-0.95, 0.3, 0.3, 0.95, -6004.57, 961.7)" xlink:href="#_1240"/><linearGradient id="_1071-3" x1="-3640.21" y1="812.53" x2="-3651.69" y2="821.55" gradientTransform="matrix(-0.74, 0.67, 0.67, 0.74, -3223.81, 1870.48)" xlink:href="#_1071"/><linearGradient id="_1056-6" x1="-3640.72" y1="814.75" x2="-3650.8" y2="822.67" gradientTransform="matrix(-0.74, 0.67, 0.67, 0.74, -3223.81, 1870.48)" xlink:href="#_1056"/><linearGradient id="_1056-7" x1="-6026.5" y1="947" x2="-6015.71" y2="947" gradientTransform="matrix(-0.95, 0.3, 0.3, 0.95, -6004.57, 961.7)" xlink:href="#_1056"/><linearGradient id="_1240-12" x1="-3650.19" y1="821.58" x2="-3634.49" y2="821.58" gradientTransform="matrix(-0.74, 0.67, 0.67, 0.74, -3223.81, 1870.48)" xlink:href="#_1240"/><linearGradient id="_1240-13" x1="-6031.03" y1="954.21" x2="-6032.9" y2="950.53" gradientTransform="matrix(-0.95, 0.3, 0.3, 0.95, -6004.57, 961.7)" xlink:href="#_1240"/><linearGradient id="_1321-11" x1="39.18" y1="44.75" x2="28.12" y2="23.26" xlink:href="#_1321"/><linearGradient id="_1250" x1="-1533.18" y1="173.45" x2="-1530.53" y2="192.01" gradientTransform="matrix(1, -0.06, 0.06, 1, 1552.34, -233.15)" gradientUnits="userSpaceOnUse"><stop offset="0" stop-color="#705ab8"/><stop offset="1" stop-color="#fff"/></linearGradient><linearGradient id="_1071-4" x1="-8049.06" y1="-228.31" x2="-8061.82" y2="-218.29" gradientTransform="matrix(-1, -0.07, -0.07, 1, -8013.5, -295.03)" xlink:href="#_1071"/><linearGradient id="_1056-8" x1="-8049.82" y1="-226.45" x2="-8061.21" y2="-217.51" gradientTransform="matrix(-1, -0.07, -0.07, 1, -8013.5, -295.03)" xlink:href="#_1056"/><linearGradient id="_1056-9" x1="-8051.53" y1="-237.32" x2="-8038.98" y2="-237.32" gradientTransform="matrix(-1, -0.07, -0.07, 1, -8013.5, -295.03)" xlink:href="#_1056"/><linearGradient id="_1321-12" x1="112.31" y1="25.13" x2="129.46" y2="25.13" xlink:href="#_1321"/><linearGradient id="_1240-14" x1="859.81" y1="1679.34" x2="872.34" y2="1703.77" gradientTransform="translate(-1206.94 -1337.18) rotate(-17.13)" xlink:href="#_1240"/><linearGradient id="_1071-5" x1="867.24" y1="1691.74" x2="863.47" y2="1705.65" gradientTransform="translate(-1206.94 -1337.18) rotate(-17.13)" xlink:href="#_1071"/><linearGradient id="_1056-10" x1="-3316.83" y1="3479.06" x2="-3326.95" y2="3487.01" gradientTransform="translate(-218.42 -4768.09) rotate(-47.69)" xlink:href="#_1056"/><linearGradient id="_1056-11" x1="-3317.33" y1="3469.31" x2="-3307.18" y2="3469.31" gradientTransform="translate(-218.42 -4768.09) rotate(-47.69)" xlink:href="#_1056"/><linearGradient id="_1240-15" x1="863.75" y1="1701.57" x2="875.68" y2="1701.57" gradientTransform="translate(-1206.94 -1337.18) rotate(-17.13)" xlink:href="#_1240"/><linearGradient id="_1240-16" x1="863.4" y1="1689.67" x2="871.42" y2="1700.49" gradientTransform="translate(-1206.94 -1337.18) rotate(-17.13)" xlink:href="#_1240"/><linearGradient id="_1321-13" x1="123.4" y1="44.4" x2="153.5" y2="44.4" xlink:href="#_1321"/><linearGradient id="_1240-17" x1="3853.72" y1="-2200.96" x2="3863.82" y2="-2181.29" gradientTransform="matrix(0.95, 0.3, -0.3, 0.95, -4203.09, 961.7)" xlink:href="#_1240"/><linearGradient id="_1071-6" x1="4079.75" y1="-6116.97" x2="4068.28" y2="-6107.96" gradientTransform="translate(-6983.85 1870.48) rotate(41.91)" xlink:href="#_1071"/><linearGradient id="_1056-12" x1="4079.24" y1="-6114.75" x2="4069.16" y2="-6106.83" gradientTransform="translate(-6983.85 1870.48) rotate(41.91)" xlink:href="#_1056"/><linearGradient id="_1056-13" x1="3860.45" y1="-2195.44" x2="3871.23" y2="-2195.44" gradientTransform="matrix(0.95, 0.3, -0.3, 0.95, -4203.09, 961.7)" xlink:href="#_1056"/><linearGradient id="_1240-18" x1="4069.78" y1="-6107.92" x2="4085.47" y2="-6107.92" gradientTransform="translate(-6983.85 1870.48) rotate(41.91)" xlink:href="#_1240"/><linearGradient id="_1240-19" x1="3856.07" y1="-2188.32" x2="3854.19" y2="-2192" gradientTransform="matrix(0.95, 0.3, -0.3, 0.95, -4203.09, 961.7)" xlink:href="#_1240"/><linearGradient id="_1321-14" x1="136.04" y1="51.98" x2="134.46" y2="29.86" xlink:href="#_1321"/><linearGradient id="_1250-2" x1="-11890.75" y1="-403.3" x2="-11888.1" y2="-384.74" gradientTransform="matrix(-1, -0.06, -0.06, 1, -11760, -233.15)" xlink:href="#_1250"/><linearGradient id="_1071-7" x1="2300.91" y1="484.44" x2="2288.16" y2="494.46" gradientTransform="translate(-2194.16 -295.03) rotate(-3.94)" xlink:href="#_1071"/><linearGradient id="_1056-14" x1="2300.15" y1="486.3" x2="2288.77" y2="495.24" gradientTransform="translate(-2194.16 -295.03) rotate(-3.94)" xlink:href="#_1056"/><linearGradient id="_1056-15" x1="2298.44" y1="475.43" x2="2310.99" y2="475.43" gradientTransform="translate(-2194.16 -295.03) rotate(-3.94)" xlink:href="#_1056"/><linearGradient id="_1321-15" x1="36.35" y1="139.97" x2="53.49" y2="139.97" xlink:href="#_1321"/><linearGradient id="_1240-20" x1="-6018.56" y1="-11221.17" x2="-6006.03" y2="-11196.74" gradientTransform="translate(-9000.72 -8799.09) rotate(162.87)" xlink:href="#_1240"/><linearGradient id="_1071-8" x1="-6011.86" y1="-11208.58" x2="-6015.63" y2="-11194.67" gradientTransform="translate(-9000.72 -8799.09) rotate(162.87)" xlink:href="#_1071"/><linearGradient id="_1056-16" x1="-2683.16" y1="-11126.34" x2="-2693.27" y2="-11118.39" gradientTransform="translate(-9989.24 -5368.17) rotate(132.31)" xlink:href="#_1056"/><linearGradient id="_1056-17" x1="-2683.65" y1="-11136.09" x2="-2673.51" y2="-11136.09" gradientTransform="translate(-9989.24 -5368.17) rotate(132.31)" xlink:href="#_1056"/><linearGradient id="_1240-21" x1="-6015.35" y1="-11198.74" x2="-6003.42" y2="-11198.74" gradientTransform="translate(-9000.72 -8799.09) rotate(162.87)" xlink:href="#_1240"/><linearGradient id="_1240-22" x1="-6015.7" y1="-11210.64" x2="-6007.69" y2="-11199.83" gradientTransform="translate(-9000.72 -8799.09) rotate(162.87)" xlink:href="#_1240"/><linearGradient id="_1321-16" x1="12.94" y1="120.29" x2="43.4" y2="120.29" xlink:href="#_1321"/><linearGradient id="_1240-23" x1="-9153.61" y1="-8875.69" x2="-9143.52" y2="-8856.02" gradientTransform="matrix(-0.95, -0.3, 0.3, -0.95, -6004.57, -11097.96)" xlink:href="#_1240"/><linearGradient id="_1071-9" x1="-10520.86" y1="-6853" x2="-10532.33" y2="-6843.99" gradientTransform="translate(-3223.81 -12006.74) rotate(-138.09)" xlink:href="#_1071"/><linearGradient id="_1056-18" x1="-10521.37" y1="-6850.78" x2="-10531.45" y2="-6842.86" gradientTransform="translate(-3223.81 -12006.74) rotate(-138.09)" xlink:href="#_1056"/><linearGradient id="_1056-19" x1="-9146.79" y1="-8870.23" x2="-9136" y2="-8870.23" gradientTransform="matrix(-0.95, -0.3, 0.3, -0.95, -6004.57, -11097.96)" xlink:href="#_1056"/><linearGradient id="_1240-24" x1="-10530.83" y1="-6843.95" x2="-10515.14" y2="-6843.95" gradientTransform="translate(-3223.81 -12006.74) rotate(-138.09)" xlink:href="#_1240"/><linearGradient id="_1240-25" x1="-9151.32" y1="-8863.02" x2="-9153.2" y2="-8866.7" gradientTransform="matrix(-0.95, -0.3, 0.3, -0.95, -6004.57, -11097.96)" xlink:href="#_1240"/><linearGradient id="_1321-17" x1="39.68" y1="139.69" x2="23.24" y2="129.42" xlink:href="#_1321"/><linearGradient id="_1250-3" x1="-960.5" y1="-10111.09" x2="-957.85" y2="-10092.54" gradientTransform="matrix(1, 0.06, 0.06, -1, 1552.34, -9903.12)" xlink:href="#_1250"/><linearGradient id="_1071-10" x1="-7341.33" y1="-10505.31" x2="-7354.09" y2="-10495.29" gradientTransform="translate(-8013.5 -9841.23) rotate(176.06)" xlink:href="#_1071"/><linearGradient id="_1056-20" x1="-7342.09" y1="-10503.46" x2="-7353.48" y2="-10494.51" gradientTransform="translate(-8013.5 -9841.23) rotate(176.06)" xlink:href="#_1056"/><linearGradient id="_1056-21" x1="-7343.81" y1="-10514.32" x2="-7331.25" y2="-10514.32" gradientTransform="translate(-8013.5 -9841.23) rotate(176.06)" xlink:href="#_1056"/><linearGradient id="_1321-18" x1="112.31" y1="139.97" x2="129.46" y2="139.97" xlink:href="#_1321"/><linearGradient id="_1240-26" x1="3894.71" y1="-8165.03" x2="3907.24" y2="-8140.6" gradientTransform="matrix(0.96, 0.29, 0.29, -0.96, -1206.94, -8799.09)" xlink:href="#_1240"/><linearGradient id="_1071-11" x1="3902.02" y1="-8152.25" x2="3898.25" y2="-8138.34" gradientTransform="matrix(0.96, 0.29, 0.29, -0.96, -1206.94, -8799.09)" xlink:href="#_1071"/><linearGradient id="_1056-22" x1="4300.28" y1="-3455.14" x2="4290.16" y2="-3447.19" gradientTransform="matrix(0.67, 0.74, 0.74, -0.67, -218.42, -5368.17)" xlink:href="#_1056"/><linearGradient id="_1056-23" x1="4299.78" y1="-3464.89" x2="4309.93" y2="-3464.89" gradientTransform="matrix(0.67, 0.74, 0.74, -0.67, -218.42, -5368.17)" xlink:href="#_1056"/><linearGradient id="_1240-27" x1="3898.53" y1="-8142.41" x2="3910.46" y2="-8142.41" gradientTransform="matrix(0.96, 0.29, 0.29, -0.96, -1206.94, -8799.09)" xlink:href="#_1240"/><linearGradient id="_1240-28" x1="3898.18" y1="-8154.31" x2="3906.2" y2="-8143.49" gradientTransform="matrix(0.96, 0.29, 0.29, -0.96, -1206.94, -8799.09)" xlink:href="#_1240"/><linearGradient id="_1321-19" x1="123.4" y1="120.29" x2="153.5" y2="120.29" xlink:href="#_1321"/><linearGradient id="_1240-29" x1="733.43" y1="-12018.19" x2="743.52" y2="-11998.52" gradientTransform="matrix(0.95, -0.3, -0.3, -0.95, -4203.09, -11097.96)" xlink:href="#_1240"/><linearGradient id="_1071-12" x1="-2800.9" y1="-13782.5" x2="-2812.37" y2="-13773.49" gradientTransform="matrix(0.74, -0.67, -0.67, -0.74, -6983.85, -12006.74)" xlink:href="#_1071"/><linearGradient id="_1056-24" x1="-2801.4" y1="-13780.28" x2="-2811.48" y2="-13772.36" gradientTransform="matrix(0.74, -0.67, -0.67, -0.74, -6983.85, -12006.74)" xlink:href="#_1056"/><linearGradient id="_1056-25" x1="740.15" y1="-12012.68" x2="750.94" y2="-12012.68" gradientTransform="matrix(0.95, -0.3, -0.3, -0.95, -4203.09, -11097.96)" xlink:href="#_1056"/><linearGradient id="_1240-30" x1="-2810.87" y1="-13773.45" x2="-2795.17" y2="-13773.45" gradientTransform="matrix(0.74, -0.67, -0.67, -0.74, -6983.85, -12006.74)" xlink:href="#_1240"/><linearGradient id="_1240-31" x1="735.77" y1="-12005.55" x2="733.9" y2="-12009.23" gradientTransform="matrix(0.95, -0.3, -0.3, -0.95, -4203.09, -11097.96)" xlink:href="#_1240"/><linearGradient id="_1321-20" x1="129.85" y1="142.93" x2="140.44" y2="125.24" xlink:href="#_1321"/><linearGradient id="_1250-4" x1="-11318.07" y1="-10687.84" x2="-11315.42" y2="-10669.28" gradientTransform="matrix(-1, 0.06, -0.06, -1, -11760, -9903.12)" xlink:href="#_1250"/><linearGradient id="_1071-13" x1="3008.64" y1="-9792.56" x2="2995.89" y2="-9782.54" gradientTransform="matrix(1, 0.07, 0.07, -1, -2194.16, -9841.23)" xlink:href="#_1071"/><linearGradient id="_1056-26" x1="3007.88" y1="-9790.7" x2="2996.5" y2="-9781.76" gradientTransform="matrix(1, 0.07, 0.07, -1, -2194.16, -9841.23)" xlink:href="#_1056"/><linearGradient id="_1056-27" x1="3006.17" y1="-9801.57" x2="3018.72" y2="-9801.57" gradientTransform="matrix(1, 0.07, 0.07, -1, -2194.16, -9841.23)" xlink:href="#_1056"/><linearGradient id="_1321-21" x1="83.17" y1="154.4" x2="83.17" y2="19.84" xlink:href="#_1321"/><linearGradient id="_1071-14" x1="64.83" y1="129.99" x2="57.45" y2="146.63" xlink:href="#_1071"/><linearGradient id="_1321-22" x1="62.93" y1="145.91" x2="62.93" y2="120.81" xlink:href="#_1321"/><linearGradient id="_1240-32" x1="57.29" y1="146.25" x2="64.22" y2="131.47" xlink:href="#_1240"/><linearGradient id="_1071-15" x1="101.25" y1="129.12" x2="109.72" y2="149.3" xlink:href="#_1071"/><linearGradient id="_1321-23" x1="103.4" y1="146.11" x2="103.4" y2="121.01" xlink:href="#_1321"/><linearGradient id="_1240-33" x1="107.34" y1="145.83" x2="101.97" y2="129.72" xlink:href="#_1240"/><linearGradient id="_1071-16" x1="59.97" y1="24.23" x2="65.5" y2="36.39" xlink:href="#_1071"/><linearGradient id="_1321-24" x1="58.33" y1="18.45" x2="63.17" y2="30.67" xlink:href="#_1321"/><linearGradient id="_1240-34" x1="65.08" y1="35.05" x2="55.6" y2="16.1" xlink:href="#_1240"/><linearGradient id="_1056-28" x1="52.89" y1="7.19" x2="59.93" y2="27.5" xlink:href="#_1056"/><linearGradient id="_1071-17" x1="-12155.35" y1="24.23" x2="-12149.82" y2="36.39" gradientTransform="matrix(-1, 0, 0, 1, -12048.98, 0)" xlink:href="#_1071"/><linearGradient id="_1321-25" x1="-12157" y1="18.45" x2="-12152.15" y2="30.67" gradientTransform="matrix(-1, 0, 0, 1, -12048.98, 0)" xlink:href="#_1321"/><linearGradient id="_1240-35" x1="-12150.25" y1="35.05" x2="-12159.73" y2="16.1" gradientTransform="matrix(-1, 0, 0, 1, -12048.98, 0)" xlink:href="#_1240"/><linearGradient id="_1056-29" x1="-12162.44" y1="7.19" x2="-12155.4" y2="27.5" gradientTransform="matrix(-1, 0, 0, 1, -12048.98, 0)" xlink:href="#_1056"/><linearGradient id="_1071-18" x1="-13991.88" y1="-5426.6" x2="-13986.35" y2="-5414.43" gradientTransform="matrix(-0.71, -0.71, -0.71, 0.71, -13598.81, -5979.67)" xlink:href="#_1071"/><linearGradient id="_1321-26" x1="-13993.52" y1="-5432.38" x2="-13988.68" y2="-5420.16" gradientTransform="matrix(-0.71, -0.71, -0.71, 0.71, -13598.81, -5979.67)" xlink:href="#_1321"/><linearGradient id="_1240-36" x1="-13986.77" y1="-5415.77" x2="-13996.25" y2="-5434.73" gradientTransform="matrix(-0.71, -0.71, -0.71, 0.71, -13598.81, -5979.67)" xlink:href="#_1240"/><linearGradient id="_1056-30" x1="-14001.89" y1="-5377.52" x2="-13995.36" y2="-5358.71" gradientTransform="matrix(-0.71, -0.7, -0.7, 0.71, -13608.32, -5910.02)" xlink:href="#_1056"/><linearGradient id="_1071-19" x1="-6971.28" y1="-12467.08" x2="-6965.75" y2="-12454.92" gradientTransform="matrix(-0.71, 0.71, -0.71, -0.71, -13598.81, -3798.03)" xlink:href="#_1071"/><linearGradient id="_1321-27" x1="-6972.93" y1="-12472.86" x2="-6968.08" y2="-12460.64" gradientTransform="matrix(-0.71, 0.71, -0.71, -0.71, -13598.81, -3798.03)" xlink:href="#_1321"/><linearGradient id="_1240-37" x1="-6966.18" y1="-12456.25" x2="-6975.66" y2="-12475.21" gradientTransform="matrix(-0.71, 0.71, -0.71, -0.71, -13598.81, -3798.03)" xlink:href="#_1240"/><linearGradient id="_1056-31" x1="-7042.63" y1="-12477.95" x2="-7036.11" y2="-12459.14" gradientTransform="matrix(-0.71, 0.7, -0.7, -0.71, -13608.32, -3867.68)" xlink:href="#_1056"/><linearGradient id="_1071-20" x1="-6046.61" y1="2496.23" x2="-6041.08" y2="2508.39" gradientTransform="matrix(0.71, -0.71, 0.71, 0.71, 2544.52, -5979.67)" xlink:href="#_1071"/><linearGradient id="_1321-28" x1="-6048.26" y1="2490.45" x2="-6043.41" y2="2502.67" gradientTransform="matrix(0.71, -0.71, 0.71, 0.71, 2544.52, -5979.67)" xlink:href="#_1321"/><linearGradient id="_1240-38" x1="-6041.51" y1="2507.06" x2="-6050.99" y2="2488.1" gradientTransform="matrix(0.71, -0.71, 0.71, 0.71, 2544.52, -5979.67)" xlink:href="#_1240"/><linearGradient id="_1056-32" x1="-5989.15" y1="2476.04" x2="-5982.51" y2="2495.18" gradientTransform="matrix(0.71, -0.7, 0.7, 0.71, 2554.04, -5910.02)" xlink:href="#_1056"/><linearGradient id="_1071-21" x1="973.99" y1="-4544.25" x2="979.51" y2="-4532.09" gradientTransform="matrix(0.71, 0.71, 0.71, -0.71, 2544.52, -3798.03)" xlink:href="#_1071"/><linearGradient id="_1321-29" x1="972.34" y1="-4550.03" x2="977.19" y2="-4537.82" gradientTransform="matrix(0.71, 0.71, 0.71, -0.71, 2544.52, -3798.03)" xlink:href="#_1321"/><linearGradient id="_1240-39" x1="979.09" y1="-4533.43" x2="969.61" y2="-4552.38" gradientTransform="matrix(0.71, 0.71, 0.71, -0.71, 2544.52, -3798.03)" xlink:href="#_1240"/><linearGradient id="_1056-33" x1="970.29" y1="-4624.35" x2="976.81" y2="-4605.54" gradientTransform="matrix(0.71, 0.7, 0.7, -0.71, 2554.04, -3867.68)" xlink:href="#_1056"/><linearGradient id="_1240-40" x1="83.9" y1="94.82" x2="83.9" y2="145.54" xlink:href="#_1240"/><linearGradient id="_1240-41" x1="84" y1="93.55" x2="84" y2="151.65" xlink:href="#_1240"/><linearGradient id="_1056-34" x1="83.87" y1="26.96" x2="83.87" y2="51.38" xlink:href="#_1056"/><linearGradient id="_1056-35" x1="83.17" y1="141.89" x2="83.17" y2="114.88" xlink:href="#_1056"/><linearGradient id="linear-gradient-4" x1="83.17" y1="130.17" x2="83.17" y2="109.15" xlink:href="#linear-gradient"/><linearGradient id="_1240-42" x1="82.77" y1="68.7" x2="82.77" y2="36.23" xlink:href="#_1240"/><radialGradient id="_1289-4" cx="98.05" cy="31.38" r="9.45" gradientTransform="translate(105.75 -70.67) rotate(76.72)" xlink:href="#_1289"/><radialGradient id="_1289-5" cx="-724.18" cy="-1157.21" r="7.57" gradientTransform="matrix(1.28, 0.34, -0.22, 0.85, 734.41, 1359.32)" xlink:href="#_1289"/><linearGradient id="_1240-43" x1="145.73" y1="92.87" x2="145.73" y2="63.17" xlink:href="#_1240"/><linearGradient id="_1056-36" x1="145.71" y1="85.18" x2="145.71" y2="114.27" xlink:href="#_1056"/><linearGradient id="_1056-37" x1="20.85" y1="85.19" x2="20.85" y2="113.99" xlink:href="#_1056"/><linearGradient id="_1240-44" x1="20.84" y1="92.87" x2="20.84" y2="63.17" xlink:href="#_1240"/><linearGradient id="_1248" x1="66.63" y1="167.06" x2="66.63" y2="123.23" gradientUnits="userSpaceOnUse"><stop offset="0" stop-color="#705ab8"/><stop offset="1" stop-color="#181d3b"/></linearGradient><linearGradient id="_1248-2" x1="99.7" y1="167.06" x2="99.7" y2="123.23" xlink:href="#_1248"/><linearGradient id="_1240-45" x1="54.84" y1="80.38" x2="111.67" y2="80.38" xlink:href="#_1240"/><linearGradient id="_1321-30" x1="82.28" y1="108.14" x2="82.28" y2="51.29" xlink:href="#_1321"/></defs><title>Asset 26</title><g class="cls-1"><g id="Layer_2" data-name="Layer 2"><g id="frame"><path class="cls-2" d="M83.17.14s-19.94,9.72-35,38.91h70C103.1,9.86,83.17.14,83.17.14Z"/><path class="cls-3" d="M83.17,5.49S63.92,20.26,55.73,39.05H110.6C102.42,20.26,83.17,5.49,83.17,5.49Z"/><path class="cls-4" d="M57.55,39.15S68.51,18.41,83,7.36a112.44,112.44,0,0,1,25.72,31.69Z"/><path class="cls-5" d="M57.05,38.8S68.31,14,83.17,5.35c0,0,19.6,14.8,25.55,33.45,0,0-13.67-19.68-24.85-25.79,0,0-13.52,7.55-25.48,25.89Z"/><path class="cls-6" d="M97.77,11.05C86.32,1.58,82.39,1.11,82.39,1.11c-2.18,1.08-7.6,4.52-8,4.81A53.16,53.16,0,0,1,83.17,0S89.52,3.1,97.77,11.05Z"/><path class="cls-7" d="M89.65,4.11c-3.08,2.05,4.95,9,8.12,6.94,0,0-2-2-4.8-4.26Z"/><ellipse class="cls-8" cx="85.9" cy="21.92" rx="15.5" ry="15.87"/><path class="cls-9" d="M.5,82.88s9.71,19.94,38.9,35v-70C10.21,63,.5,82.88.5,82.88Z"/><path class="cls-10" d="M5.85,82.88s14.76,19.25,33.55,27.44V55.45C20.61,63.63,5.85,82.88,5.85,82.88Z"/><path class="cls-11" d="M38.5,108.5S17.77,97.54,6.71,83A112.51,112.51,0,0,1,38.4,57.33Z"/><path class="cls-12" d="M38.8,109S14,97.74,5.35,82.88c0,0,14.8-19.61,33.45-25.55,0,0-19.68,13.67-25.79,24.85,0,0,7.55,13.51,25.89,25.48Z"/><path class="cls-13" d="M11.05,68.28C1.58,79.73,1.11,83.66,1.11,83.66c1.08,2.18,4.52,7.6,4.81,8A53.16,53.16,0,0,1,0,82.88S3.1,76.52,11.05,68.28Z"/><path class="cls-14" d="M4.11,76.4c2.05,3.08,9-5,6.94-8.12a62.77,62.77,0,0,0-4.26,4.8Z"/><ellipse class="cls-15" cx="22.65" cy="80.55" rx="16.25" ry="15.5"/><path class="cls-16" d="M166.31,82.88s-9.72,19.94-38.91,35v-70C156.59,63,166.31,82.88,166.31,82.88Z"/><path class="cls-17" d="M161,82.88s-14.77,19.25-33.56,27.44V55.45C146.19,63.63,161,82.88,161,82.88Z"/><path class="cls-18" d="M127.3,108.5S148,97.54,159.09,83A112.51,112.51,0,0,0,127.4,57.33Z"/><path class="cls-19" d="M127.64,109s24.79-11.25,33.46-26.11c0,0-14.8-19.61-33.46-25.55,0,0,19.68,13.67,25.8,24.85,0,0-7.56,13.51-25.9,25.48Z"/><path class="cls-20" d="M155.39,68.28c9.47,11.45,10,15.38,10,15.38-1.09,2.18-4.53,7.6-4.81,8a53.16,53.16,0,0,0,5.92-8.79S163.35,76.52,155.39,68.28Z"/><path class="cls-21" d="M162.34,76.4c-2.06,3.08-9-5-7-8.12a62.77,62.77,0,0,1,4.26,4.8C161.94,75.92,162.34,76.4,162.34,76.4Z"/><ellipse class="cls-22" cx="143.85" cy="80.55" rx="16.55" ry="15.5"/><path class="cls-23" d="M83.17,165s-19.94-9.71-35-38.9h70C103.1,155.24,83.17,165,83.17,165Z"/><path class="cls-24" d="M83.17,159.6s-17.84-13.31-27.44-33.55H110.6C102.42,144.84,83.17,159.6,83.17,159.6Z"/><path class="cls-25" d="M57.55,126s11,20.73,25.45,31.79a112.44,112.44,0,0,0,25.72-31.69Z"/><path class="cls-26" d="M57.05,126s3.26,14.52,26.12,33.46c0,0,19.6-14.8,25.55-33.46,0,0-13.67,7.3-24.85,13.42,0,0-9.49-1.34-25.48-13.52Z"/><path class="cls-27" d="M36.35,25.88a2.4,2.4,0,0,0,0,.46v.06a8,8,0,0,0,.34,1.42h0c1.09,3.24,4.33,7.75,6.28,10.29l.06.08c.47.62.86,1.11,1.12,1.43h0c.21.27.34.42.34.42h3.15c3-4.07,5.78-11.41,5.81-14.32a2.72,2.72,0,0,0-.08-.76A20.09,20.09,0,0,0,52,22.07c-2.37-4.45-7-12-8-11.86-.63.07-4,5.64-6,10.36A16.69,16.69,0,0,0,36.35,25.88Z"/><path class="cls-28" d="M36.35,25.88a2.4,2.4,0,0,0,0,.46v.06a8,8,0,0,0,.34,1.42h0c1.09,3.24,4.33,7.75,6.28,10.29l.06.08c.47.62.86,1.11,1.12,1.43h0c.21.27.34.42.34.42h3.15c3-4.07,5.78-11.41,5.81-14.32A6.93,6.93,0,0,1,47.87,31a10,10,0,0,1-2.77.1h0l-.47-.06L44.23,31a13.53,13.53,0,0,1-2.72-.71s-2.67-1.78-3.23-4.15c-.22-1,0-3,.92-5.8A45.66,45.66,0,0,1,44,10.21c-.63.07-4,5.64-6,10.36A16.69,16.69,0,0,0,36.35,25.88Z"/><path class="cls-29" d="M47.21,24.93c1.44,5.66-1.33,14.73-1.33,14.73s.25-8.34-.93-12.61S46.77,23.18,47.21,24.93Z"/><path class="cls-30" d="M44.59,25.32c1.51,5.05,1.29,14.34,1.29,14.34Z"/><path class="cls-31" d="M52.14,21c-2,1.47-6.71-10-5.3-8.59C47.93,13.5,52.14,21,52.14,21Z"/><path class="cls-32" d="M36.85,26V26a5.59,5.59,0,0,0,.34,1.41v0c1.09,3.06,4.45,7.85,6.28,10.28l.06.09c.59.78,1,1.31,1.12,1.42h0c1.16,1.17.14-.75-4-8.28C38.81,27.67,36.78,24.81,36.85,26Z"/><path class="cls-33" d="M43.48,37.73l.06.09c.59.78,1,1.31,1.12,1.42a58.06,58.06,0,0,0,.05-8.62c-.61-5-1.37-9.4-2.45-10A4.7,4.7,0,0,0,39.68,20a4,4,0,0,0-1.21.22,16.69,16.69,0,0,0-1.64,5.31,2.5,2.5,0,0,0,0,.47V26a5.59,5.59,0,0,0,.34,1.41v0C38.29,30.69,41.53,35.2,43.48,37.73Z"/><path class="cls-34" d="M28.5,52.94a3.17,3.17,0,0,0,.53,0h0a7.93,7.93,0,0,0,1.28-.29h0c3.22-1,7.76-4.23,10.34-6.17l.08-.07c.64-.48,1.15-.88,1.48-1.14v0c.27-.21.14-.33.14-.33l1-.77-1-.1V41.75s-11-5.84-13.93-5.89a2.76,2.76,0,0,0-.76.07,20.45,20.45,0,0,0-2.89,1.35h0c-1,.51-2.1,1.13-3.26,1.8-4.12,2.37-8.69,5.32-8.61,6.1S24.72,52.84,28.5,52.94Z"/><path class="cls-35" d="M28.5,52.94a3.17,3.17,0,0,0,.53,0h0a7.93,7.93,0,0,0,1.28-.29h0c3.22-1,7.76-4.23,10.34-6.17l.08-.07c.64-.48,1.15-.88,1.48-1.14v0c.27-.21.14-.33.14-.33l1-.77-1-.1V41.75s-11-5.84-13.93-5.89a6.91,6.91,0,0,1,5.23,5.63,10,10,0,0,1,.12,2.1c0,.22,0,.45,0,.66v0c0,.16,0,.32-.05.47a13.91,13.91,0,0,1-.79,3.07S31.14,50.48,28.77,51c-1.95.44-8.4-1.12-15.83-5.84C13,46.09,24.72,52.84,28.5,52.94Z"/><path class="cls-36" d="M26.7,43.58c5.55-5,16,.44,16,.44s-8.31-.31-12.57.84S26,44.18,26.7,43.58Z"/><path class="cls-37" d="M28.38,45.2C33.43,43.74,42.68,44,42.68,44Z"/><path class="cls-38" d="M15.51,42.87c1,.89,5.53-.81,8.06-2.65,1.28-.94,2-1.91,1.55-2.61l-.3-.33h0l-3.26,1.8Z"/><path class="cls-39" d="M34,49.18c7.52-4.1,9.44-5.1,8.27-4-.48.46-9.8,7.52-13.3,7.69C27.82,53,30.69,51,34,49.18Z"/><path class="cls-40" d="M21.55,39.08l.17.06a7.71,7.71,0,0,1,1.85,1.08,16.05,16.05,0,0,1,3.14,3.36s1.72-1.1,5.76-1c5.37.1,7,1,9.59,1.44h0l.24,0h0c.11,0,.23,0,.06.07l1-.1V41.75c-4.73-3.06-12-5.84-14.93-5.89a2.76,2.76,0,0,0-.76.07,20.45,20.45,0,0,0-2.89,1.35h0C23.84,37.79,22.71,38.41,21.55,39.08Z"/><path class="cls-41" d="M24.9,37.36c3.23,3.51,17.67,5.16,17.67,5.16l2.57-2.45C44.45,34.39,41,26.3,38.72,23.9a3.39,3.39,0,0,0-.66-.56C35.92,22.11,19.89,17.52,19,18.65,18.29,19.45,22,34.22,24.9,37.36Z"/><path class="cls-42" d="M24.9,37.36c3.23,3.51,17.67,5.16,17.67,5.16l2.57-2.45C44.45,34.39,41,26.3,38.72,23.9c4.44,8.82-6.19,13-6.19,13s-2.27.66-5.53-1.56c-1.86-1.28-6-7-8-16.73C18.29,19.45,22,34.22,24.9,37.36Z"/><path class="cls-43" d="M31,29.29c7.45,2,12.25,12.55,12.25,12.55s-6.29-7-10.58-9.53S30.06,29,31,29.29Z"/><path class="cls-44" d="M31.07,31.18c5.16,2.93,12.22,10.66,12.22,10.66Z"/><path class="cls-45" d="M35,22.14c-.52,2.8-14.35-3.61-12.12-3.22A124.54,124.54,0,0,1,35,22.14Z"/><path class="cls-46" d="M129.46,25.88a3.67,3.67,0,0,1,0,.46v.06a7.24,7.24,0,0,1-.34,1.42h0c-1.1,3.24-4.34,7.75-6.28,10.29l-.07.08c-.47.62-.86,1.11-1.12,1.43h0l-.33.42h-3.16c-3-4.07-5.77-11.41-5.81-14.32a2.72,2.72,0,0,1,.08-.76,21.28,21.28,0,0,1,1.37-2.9c2.38-4.45,7-12,8-11.86.62.07,4,5.64,6,10.36A17.23,17.23,0,0,1,129.46,25.88Z"/><path class="cls-47" d="M129.46,25.88a3.67,3.67,0,0,1,0,.46v.06a7.24,7.24,0,0,1-.34,1.42h0c-1.1,3.24-4.34,7.75-6.28,10.29l-.07.08c-.47.62-.86,1.11-1.12,1.43h0l-.33.42h-3.16c-3-4.07-5.77-11.41-5.81-14.32A7,7,0,0,0,117.93,31a10,10,0,0,0,2.77.1h0l.47-.06.37-.05a13.78,13.78,0,0,0,2.72-.71s2.67-1.78,3.22-4.15c.23-1,0-3-.91-5.8a46.11,46.11,0,0,0-4.83-10.13c.62.07,4,5.64,6,10.36A17.23,17.23,0,0,1,129.46,25.88Z"/><path class="cls-48" d="M119.23,24.93c-1.44,5.66,1.33,14.73,1.33,14.73s-.25-8.34.94-12.61S119.67,23.18,119.23,24.93Z"/><path class="cls-49" d="M121.85,25.32c-1.51,5.05-1.29,14.34-1.29,14.34Z"/><path class="cls-50" d="M114.3,21c2,1.47,6.71-10,5.3-8.59C118.51,13.5,114.3,21,114.3,21Z"/><path class="cls-51" d="M129.59,26V26a5.59,5.59,0,0,1-.34,1.41v0c-1.09,3.06-4.45,7.85-6.28,10.28l-.06.09c-.59.78-1,1.31-1.12,1.42h0c-1.16,1.17-.13-.75,4-8.28C127.63,27.67,129.66,24.81,129.59,26Z"/><path class="cls-52" d="M123,37.73l-.06.09c-.59.78-1,1.31-1.12,1.42a59.56,59.56,0,0,1,0-8.62c.62-5,1.38-9.4,2.45-10a4.71,4.71,0,0,1,2.59-.64,4,4,0,0,1,1.21.22,16.88,16.88,0,0,1,1.63,5.31,2.5,2.5,0,0,1,0,.47V26a5.59,5.59,0,0,1-.34,1.41v0C128.15,30.69,124.91,35.2,123,37.73Z"/><path class="cls-53" d="M137.94,52.94a3.21,3.21,0,0,1-.53,0h0a7.49,7.49,0,0,1-1.28-.29h0c-3.22-1-7.76-4.23-10.33-6.17l-.09-.07c-.64-.48-1.14-.88-1.48-1.14v0a2.5,2.5,0,0,0-.78-.33l1-.77-1-.1V41.75s11.67-5.84,14.57-5.89a2.76,2.76,0,0,1,.76.07,20.94,20.94,0,0,1,2.9,1.35h0c1,.51,2.1,1.13,3.26,1.8,4.13,2.37,8.7,5.32,8.61,6.1S141.72,52.84,137.94,52.94Z"/><path class="cls-54" d="M137.94,52.94a3.21,3.21,0,0,1-.53,0h0a7.49,7.49,0,0,1-1.28-.29h0c-3.22-1-7.76-4.23-10.33-6.17l-.09-.07c-.64-.48-1.14-.88-1.48-1.14v0a2.5,2.5,0,0,0-.78-.33l1-.77-1-.1V41.75s11.67-5.84,14.57-5.89a6.93,6.93,0,0,0-5.23,5.63,10,10,0,0,0-.12,2.1c0,.22,0,.45,0,.66v0c0,.16,0,.32.05.47a13.91,13.91,0,0,0,.79,3.07s1.79,2.65,4.16,3.19c2,.44,8.4-1.12,15.83-5.84C153.4,46.09,141.72,52.84,137.94,52.94Z"/><path class="cls-55" d="M139.74,43.58c-5.55-5-16,.44-16,.44s8.31-.31,12.58.84S140.4,44.18,139.74,43.58Z"/><path class="cls-56" d="M138.06,45.2C133,43.74,123.76,44,123.76,44Z"/><path class="cls-57" d="M150.93,42.87c-1,.89-5.53-.81-8.05-2.65-1.29-.94-2-1.91-1.56-2.61l.31-.33h0l3.26,1.8Z"/><path class="cls-58" d="M132.46,49.18c-7.53-4.1-9.45-5.1-8.28-4,.48.46,9.8,7.52,13.3,7.69C138.62,53,135.76,51,132.46,49.18Z"/><path class="cls-59" d="M144.89,39.08l-.17.06a7.46,7.46,0,0,0-1.84,1.08,15.74,15.74,0,0,0-3.14,3.36s-1.73-1.1-5.77-1c-5.37.1-7,1-9.58,1.44h0l-.24,0h0a6,6,0,0,1-.71.07l1-.1V41.75c3.37-3.06,10.67-5.84,13.57-5.89a2.76,2.76,0,0,1,.76.07,20.94,20.94,0,0,1,2.9,1.35h0C142.61,37.79,143.73,38.41,144.89,39.08Z"/><path class="cls-60" d="M141.54,37.36c-3.23,3.51-17.67,5.16-17.67,5.16l-2.57-2.45c.7-5.68,4.18-13.77,6.43-16.17a3.1,3.1,0,0,1,.65-.56c2.15-1.23,18.17-5.82,19.11-4.69C148.15,19.45,144.44,34.22,141.54,37.36Z"/><path class="cls-61" d="M141.54,37.36c-3.23,3.51-17.67,5.16-17.67,5.16l-2.57-2.45c.7-5.68,4.18-13.77,6.43-16.17-4.44,8.82,6.19,13,6.19,13s2.26.66,5.52-1.56c1.87-1.28,6-7,8.05-16.73C148.15,19.45,144.44,34.22,141.54,37.36Z"/><path class="cls-62" d="M135.41,29.29c-7.46,2-12.25,12.55-12.25,12.55s6.28-7,10.57-9.53S136.38,29,135.41,29.29Z"/><path class="cls-63" d="M135.37,31.18c-5.16,2.93-12.21,10.66-12.21,10.66Z"/><path class="cls-64" d="M131.48,22.14c.52,2.8,14.35-3.61,12.12-3.22A125.4,125.4,0,0,0,131.48,22.14Z"/><path class="cls-65" d="M36.35,139.22a2.5,2.5,0,0,1,0-.47v-.05a7.84,7.84,0,0,1,.34-1.42h0C37.81,134,41.05,129.51,43,127l.06-.09c.47-.61.86-1.1,1.12-1.42h0l.34-.41h3.15c3,4.06,5.78,11.41,5.81,14.32a2.72,2.72,0,0,1-.08.76A20.13,20.13,0,0,1,52,143c-2.37,4.46-7,12-8,11.87-.63-.07-4-5.65-6-10.36A16.69,16.69,0,0,1,36.35,139.22Z"/><path class="cls-66" d="M36.35,139.22a2.5,2.5,0,0,1,0-.47v-.05a7.84,7.84,0,0,1,.34-1.42h0C37.81,134,41.05,129.51,43,127l.06-.09c.47-.61.86-1.1,1.12-1.42h0l.34-.41h3.15c3,4.06,5.78,11.41,5.81,14.32a7,7,0,0,0-5.62-5.29A10.39,10.39,0,0,0,45.1,134h0l-.47,0-.36.05a13.91,13.91,0,0,0-2.72.72s-2.67,1.78-3.23,4.15c-.22,1,0,3,.92,5.8A46.08,46.08,0,0,0,44,154.89c-.63-.07-4-5.65-6-10.36A16.69,16.69,0,0,1,36.35,139.22Z"/><path class="cls-67" d="M47.21,139.76C48.65,134.1,45.88,125,45.88,125s.25,8.34-.93,12.61S46.77,141.51,47.21,139.76Z"/><path class="cls-68" d="M44.59,139.37C46.1,134.32,45.88,125,45.88,125Z"/><path class="cls-69" d="M52.14,143.72c-2-1.48-6.71,10-5.3,8.58C47.93,151.19,52.14,143.72,52.14,143.72Z"/><path class="cls-70" d="M36.85,138.73v-.06a5.59,5.59,0,0,1,.34-1.41v0c1.09-3.06,4.45-7.85,6.28-10.28l.06-.09c.59-.78,1-1.3,1.12-1.42h0c1.16-1.17.14.76-4,8.28C38.81,137,36.78,139.88,36.85,138.73Z"/><path class="cls-71" d="M43.48,127l.06-.09c.59-.78,1-1.3,1.12-1.42a58.06,58.06,0,0,1,.05,8.62c-.61,5-1.37,9.4-2.45,10a4.7,4.7,0,0,1-2.58.64,4,4,0,0,1-1.21-.22,16.69,16.69,0,0,1-1.64-5.31,2.5,2.5,0,0,1,0-.47v-.06a5.59,5.59,0,0,1,.34-1.41v0C38.29,134,41.53,129.49,43.48,127Z"/><path class="cls-72" d="M28.5,111.75a4.78,4.78,0,0,1,.53,0h0a6.91,6.91,0,0,1,1.28.28h0c3.22,1,7.76,4.23,10.34,6.17l.08.07c.64.48,1.15.88,1.48,1.15h0c.27.21.14.33.14.33l1,.77-1,.1v2.27s-11,5.84-13.93,5.89a2.42,2.42,0,0,1-.76-.07,20.45,20.45,0,0,1-2.89-1.35h0c-1-.51-2.1-1.13-3.26-1.8-4.12-2.37-8.69-5.32-8.61-6.1S24.72,111.85,28.5,111.75Z"/><path class="cls-73" d="M28.5,111.75a4.78,4.78,0,0,1,.53,0h0a6.91,6.91,0,0,1,1.28.28h0c3.22,1,7.76,4.23,10.34,6.17l.08.07c.64.48,1.15.88,1.48,1.15h0c.27.21.14.33.14.33l1,.77-1,.1v2.27s-11,5.84-13.93,5.89a6.91,6.91,0,0,0,5.23-5.63,10,10,0,0,0,.12-2.1c0-.22,0-.44,0-.66v0c0-.16,0-.32-.05-.47a13.91,13.91,0,0,0-.79-3.07s-1.79-2.65-4.16-3.18c-1.95-.45-8.4,1.11-15.83,5.83C13,118.6,24.72,111.85,28.5,111.75Z"/><path class="cls-74" d="M26.7,121.11c5.55,5,16-.44,16-.44s-8.31.31-12.57-.84S26,120.52,26.7,121.11Z"/><path class="cls-75" d="M28.38,119.49c5.05,1.47,14.3,1.18,14.3,1.18Z"/><path class="cls-76" d="M15.51,121.82c1-.89,5.53.81,8.06,2.66,1.28.93,2,1.91,1.55,2.6l-.3.33h0l-3.26-1.8Z"/><path class="cls-77" d="M34,115.51c7.52,4.1,9.44,5.11,8.27,4-.48-.47-9.8-7.53-13.3-7.7C27.82,111.71,30.69,113.71,34,115.51Z"/><path class="cls-78" d="M21.55,125.61a1.15,1.15,0,0,0,.17-.06,8,8,0,0,0,1.85-1.07,16.24,16.24,0,0,0,3.14-3.37s1.72,1.1,5.76,1c5.37-.1,7-1,9.59-1.44h0l.24,0h0c.11,0,.23,0,.06-.07l1,.1v2.27c-4.73,3.06-12,5.84-14.93,5.89a2.42,2.42,0,0,1-.76-.07,20.45,20.45,0,0,1-2.89-1.35h0C23.84,126.9,22.71,126.28,21.55,125.61Z"/><path class="cls-79" d="M24.9,127.33c3.23-3.51,17.67-5.16,17.67-5.16l2.57,2.45c-.69,5.68-4.18,13.78-6.42,16.17a3.39,3.39,0,0,1-.66.56C35.92,142.59,19.89,147.18,19,146,18.29,145.25,22,130.47,24.9,127.33Z"/><path class="cls-80" d="M24.9,127.33c3.23-3.51,17.67-5.16,17.67-5.16l2.57,2.45c-.69,5.68-4.18,13.78-6.42,16.17,4.44-8.82-6.19-13-6.19-13s-2.27-.66-5.53,1.56c-1.86,1.28-6,7-8,16.73C18.29,145.25,22,130.47,24.9,127.33Z"/><path class="cls-81" d="M31,135.4c7.45-2,12.25-12.55,12.25-12.55s-6.29,7-10.58,9.53S30.06,135.67,31,135.4Z"/><path class="cls-82" d="M31.07,133.51c5.16-2.93,12.22-10.66,12.22-10.66Z"/><path class="cls-83" d="M35,142.55c-.52-2.8-14.35,3.61-12.12,3.22A124.54,124.54,0,0,0,35,142.55Z"/><path class="cls-84" d="M129.46,139.22a3.83,3.83,0,0,0,0-.47v-.05a7.08,7.08,0,0,0-.34-1.42h0c-1.1-3.25-4.34-7.76-6.28-10.29l-.07-.09c-.47-.61-.86-1.1-1.12-1.42h0l-.33-.41h-3.16c-3,4.06-5.77,11.41-5.81,14.32a2.72,2.72,0,0,0,.08.76,21.35,21.35,0,0,0,1.37,2.89c2.38,4.46,7,12,8,11.87.62-.07,4-5.65,6-10.36A17.23,17.23,0,0,0,129.46,139.22Z"/><path class="cls-85" d="M129.46,139.22a3.83,3.83,0,0,0,0-.47v-.05a7.08,7.08,0,0,0-.34-1.42h0c-1.1-3.25-4.34-7.76-6.28-10.29l-.07-.09c-.47-.61-.86-1.1-1.12-1.42h0l-.33-.41h-3.16c-3,4.06-5.77,11.41-5.81,14.32,1.08-3.5,3.34-4.88,5.62-5.29a10.39,10.39,0,0,1,2.77-.09h0l.47,0,.37.05a14.18,14.18,0,0,1,2.72.72s2.67,1.78,3.22,4.15c.23,1,0,3-.91,5.8a46.54,46.54,0,0,1-4.83,10.13c.62-.07,4-5.65,6-10.36A17.23,17.23,0,0,0,129.46,139.22Z"/><path class="cls-86" d="M119.23,139.76c-1.44-5.66,1.33-14.73,1.33-14.73s-.25,8.34.94,12.61S119.67,141.51,119.23,139.76Z"/><path class="cls-87" d="M121.85,139.37c-1.51-5.05-1.29-14.34-1.29-14.34Z"/><path class="cls-88" d="M114.3,143.72c2-1.48,6.71,10,5.3,8.58C118.51,151.19,114.3,143.72,114.3,143.72Z"/><path class="cls-89" d="M129.59,138.73v-.06a5.59,5.59,0,0,0-.34-1.41v0c-1.09-3.06-4.45-7.85-6.28-10.28l-.06-.09c-.59-.78-1-1.3-1.12-1.42h0c-1.16-1.17-.13.76,4,8.28C127.63,137,129.66,139.88,129.59,138.73Z"/><path class="cls-90" d="M123,127l-.06-.09c-.59-.78-1-1.3-1.12-1.42a59.56,59.56,0,0,0,0,8.62c.62,5,1.38,9.4,2.45,10a4.71,4.71,0,0,0,2.59.64,4,4,0,0,0,1.21-.22,16.88,16.88,0,0,0,1.63-5.31,2.5,2.5,0,0,0,0-.47v-.06a5.59,5.59,0,0,0-.34-1.41v0C128.15,134,124.91,129.49,123,127Z"/><path class="cls-91" d="M137.94,111.75a4.88,4.88,0,0,0-.53,0h0a6.58,6.58,0,0,0-1.28.28h0c-3.22,1-7.76,4.23-10.33,6.17l-.09.07c-.64.48-1.14.88-1.48,1.15h0a2.5,2.5,0,0,1-.78.33l1,.77-1,.1v2.27s11.67,5.84,14.57,5.89a2.42,2.42,0,0,0,.76-.07,20.94,20.94,0,0,0,2.9-1.35h0c1-.51,2.1-1.13,3.26-1.8,4.13-2.37,8.7-5.32,8.61-6.1S141.72,111.85,137.94,111.75Z"/><path class="cls-92" d="M137.94,111.75a4.88,4.88,0,0,0-.53,0h0a6.58,6.58,0,0,0-1.28.28h0c-3.22,1-7.76,4.23-10.33,6.17l-.09.07c-.64.48-1.14.88-1.48,1.15h0a2.5,2.5,0,0,1-.78.33l1,.77-1,.1v2.27s11.67,5.84,14.57,5.89a6.93,6.93,0,0,1-5.23-5.63,10,10,0,0,1-.12-2.1c0-.22,0-.44,0-.66v0c0-.16,0-.32.05-.47a13.91,13.91,0,0,1,.79-3.07s1.79-2.65,4.16-3.18c2-.45,8.4,1.11,15.83,5.83C153.4,118.6,141.72,111.85,137.94,111.75Z"/><path class="cls-93" d="M139.74,121.11c-5.55,5-16-.44-16-.44s8.31.31,12.58-.84S140.4,120.52,139.74,121.11Z"/><path class="cls-94" d="M138.06,119.49c-5.05,1.47-14.3,1.18-14.3,1.18Z"/><path class="cls-95" d="M150.93,121.82c-1-.89-5.53.81-8.05,2.66-1.29.93-2,1.91-1.56,2.6l.31.33h0l3.26-1.8Z"/><path class="cls-96" d="M132.46,115.51c-7.53,4.1-9.45,5.11-8.28,4,.48-.47,9.8-7.53,13.3-7.7C138.62,111.71,135.76,113.71,132.46,115.51Z"/><path class="cls-97" d="M144.89,125.61a1.15,1.15,0,0,1-.17-.06,7.75,7.75,0,0,1-1.84-1.07,15.92,15.92,0,0,1-3.14-3.37s-1.73,1.1-5.77,1c-5.37-.1-7-1-9.58-1.44h0l-.24,0h0a6,6,0,0,0-.71-.07l1,.1v2.27c3.37,3.06,10.67,5.84,13.57,5.89a2.42,2.42,0,0,0,.76-.07,20.94,20.94,0,0,0,2.9-1.35h0C142.61,126.9,143.73,126.28,144.89,125.61Z"/><path class="cls-98" d="M141.54,127.33c-3.23-3.51-17.67-5.16-17.67-5.16l-2.57,2.45c.7,5.68,4.18,13.78,6.43,16.17a3.1,3.1,0,0,0,.65.56c2.15,1.24,18.17,5.83,19.11,4.69C148.15,145.25,144.44,130.47,141.54,127.33Z"/><path class="cls-99" d="M141.54,127.33c-3.23-3.51-17.67-5.16-17.67-5.16l-2.57,2.45c.7,5.68,4.18,13.78,6.43,16.17-4.44-8.82,6.19-13,6.19-13s2.26-.66,5.52,1.56c1.87,1.28,6,7,8.05,16.73C148.15,145.25,144.44,130.47,141.54,127.33Z"/><path class="cls-100" d="M135.41,135.4c-7.46-2-12.25-12.55-12.25-12.55s6.28,7,10.57,9.53S136.38,135.67,135.41,135.4Z"/><path class="cls-101" d="M135.37,133.51c-5.16-2.93-12.21-10.66-12.21-10.66Z"/><path class="cls-102" d="M131.48,142.55c.52-2.8,14.35,3.61,12.12,3.22A125.4,125.4,0,0,1,131.48,142.55Z"/><path class="cls-103" d="M151.34,108.91c.59-1.42-7.65-16.76-11.06-23a57.09,57.09,0,0,0,0-6.88c3.41-6.23,11.1-21.41,11.06-23a25.47,25.47,0,0,0,0-2.9c-.58-1.39-18.05-6.32-25-8.23a58.59,58.59,0,0,0-6.46-6.34c-1.75-6.36-7-25.12-8.43-25.73-1.73-.72-24.21,11.73-25.54,12.47-.91-.05-1.82-.07-2.74-.07s-1.84,0-2.75.07c-1.32-.74-23.81-13.19-25.54-12.47-1.43.61-6.68,19.37-8.43,25.73A57.64,57.64,0,0,0,40,44.92c-7,1.91-24.43,6.84-25,8.23a25.47,25.47,0,0,0,0,2.9c0,2.06,7.66,16.76,11.06,23a38.18,38.18,0,0,0,0,6.88c-3.4,6.23-11.65,21.57-11.06,23,.06.13-.12,2.61,0,2.9.58,1.38,18,6.31,25,8.23a57.55,57.55,0,0,0,6.45,6.33c1.75,6.37,7,25.13,8.43,25.73,1.73.72,24.22-11.73,25.54-12.46.91,0,1.82.07,2.75.07s1.83,0,2.74-.07c1.33.73,23.81,13.18,25.54,12.46,1.43-.6,6.68-19.36,8.43-25.73a58.5,58.5,0,0,0,6.46-6.33c6.95-1.92,24.42-6.85,25-8.23C151.46,111.52,151.28,109,151.34,108.91Zm-25-26.43A43.14,43.14,0,1,1,83.17,39.36,43.14,43.14,0,0,1,126.3,82.48Z"/><path class="cls-104" d="M73.29,138.89l.61.1a37.87,37.87,0,0,1-5.29,3.16h0c-1,.5-2,.94-3,1.34l-.09,0a48.3,48.3,0,0,1-8.44,2.63h0a61.19,61.19,0,0,1-4.75-12.76s0,0,0,0l0-.14c-.27-1.08-.49-2.06-.66-2.92l.45.29.75.48.63.39a56.83,56.83,0,0,0,19.18,7.32Z"/><path class="cls-105" d="M73,138.84c-3,2-8.91,5.32-15.45,6.29,0,0-2.74-4.28-4.74-14.07l.63.39a56.83,56.83,0,0,0,19.18,7.32Z"/><path class="cls-106" d="M73.29,138.89a25.47,25.47,0,0,1-4.68,3.26h0c-.84.44-1.84.89-3,1.34l-.09,0a66.57,66.57,0,0,1-8.44,2.63h0a56,56,0,0,1-4.75-12.76s0,0,0,0l0-.14a11.89,11.89,0,0,1-.21-2.63l.75.48.63.39a34.09,34.09,0,0,0,5.13,9.42,27.47,27.47,0,0,0,14.05-2.1Z"/><path class="cls-107" d="M114.69,130.29c-.17.86-.39,1.84-.66,2.92l0,.14s0,0,0,0a61.19,61.19,0,0,1-4.75,12.76h0a48.26,48.26,0,0,1-8.45-2.63l-.08,0c-1-.4-2-.85-3-1.36A37.3,37.3,0,0,1,92.43,139l.61-.1.65-.12a57,57,0,0,0,19.18-7.32l.62-.39.75-.48Z"/><path class="cls-108" d="M113.49,131.26c-2,9.79-4.73,14.08-4.73,14.08-6.55-1-12.41-4.29-15.46-6.29h0l.39-.07a57,57,0,0,0,19.18-7.33Z"/><path class="cls-109" d="M114,133.21l0,.14s0,0,0,0a56,56,0,0,1-4.75,12.76h0a67.26,67.26,0,0,1-8.45-2.63l-.08,0c-1.11-.45-2.11-.9-3-1.34l0,0A25.23,25.23,0,0,1,93,138.89l.65-.12a27.43,27.43,0,0,0,14,2.1,34.39,34.39,0,0,0,5.14-9.42l.62-.39.75-.48A11.89,11.89,0,0,1,114,133.21Z"/><path class="cls-110" d="M73.29,26.13l.61-.1a37.87,37.87,0,0,0-5.29-3.16h0c-1-.5-2-.94-3-1.34l-.09,0a48.3,48.3,0,0,0-8.44-2.63h0a61.19,61.19,0,0,0-4.75,12.76s0,0,0,0l0,.14c-.27,1.08-.49,2.06-.66,2.92l.45-.3.75-.47.63-.39a57.06,57.06,0,0,1,19.18-7.33Z"/><path class="cls-111" d="M73,26.17c-3-2-8.91-5.31-15.45-6.29,0,0-2.74,4.29-4.74,14.08l.63-.39a57.06,57.06,0,0,1,19.18-7.33Z"/><path class="cls-112" d="M73.29,26.13a25.47,25.47,0,0,0-4.68-3.26h0a31.26,31.26,0,0,0-3-1.34l-.09,0a66.57,66.57,0,0,0-8.44-2.63h0a56,56,0,0,0-4.75,12.76s0,0,0,0l0,.14a11.84,11.84,0,0,0-.21,2.62l.75-.47.63-.39a34.09,34.09,0,0,1,5.13-9.42,27.52,27.52,0,0,1,14.05,2.09Z"/><path class="cls-113" d="M67.27,18.26c-5.71-2.09-11.75-4-11.75-4-1.85,2.85-5.83,13.08-6,13.56,2.09-7.11,4.48-14.6,5.39-15s6.55,2.4,12.37,5.41Z"/><path class="cls-114" d="M93.06,26.13l-.61-.1a38.36,38.36,0,0,1,5.28-3.16h0c1-.5,2-.94,2.95-1.34l.09,0a48,48,0,0,1,8.44-2.63h0A60.72,60.72,0,0,1,114,31.63a.06.06,0,0,0,0,0l0,.14c.27,1.08.49,2.06.66,2.92l-.45-.3-.75-.47-.63-.39A57.14,57.14,0,0,0,93.7,26.24Z"/><path class="cls-115" d="M93.32,26.17c3.05-2,8.91-5.31,15.45-6.29,0,0,2.74,4.29,4.74,14.08l-.63-.39A57.14,57.14,0,0,0,93.7,26.24Z"/><path class="cls-116" d="M93.06,26.13a25.69,25.69,0,0,1,4.67-3.26h0a31.26,31.26,0,0,1,2.95-1.34l.09,0a66.57,66.57,0,0,1,8.44-2.63h0A55.76,55.76,0,0,1,114,31.63a.06.06,0,0,0,0,0l0,.14a11.84,11.84,0,0,1,.21,2.62l-.75-.47-.63-.39a34.62,34.62,0,0,0-5.13-9.42,27.52,27.52,0,0,0-14,2.09Z"/><path class="cls-117" d="M99.08,18.26c5.7-2.09,11.75-4,11.75-4,1.85,2.85,5.83,13.08,6,13.56-2.09-7.11-4.49-14.6-5.39-15s-6.56,2.4-12.38,5.41Z"/><path class="cls-118" d="M129.79,49.36l-.36-.5a37.37,37.37,0,0,1,6,1.5h0c1.07.35,2.08.74,3,1.13a.2.2,0,0,0,.08,0,49,49,0,0,1,7.84,4.1h0v0a60.82,60.82,0,0,1-5.65,12.39.08.08,0,0,1,0,0l-.07.12c-.57,1-1.11,1.8-1.6,2.53,0-.17-.07-.35-.11-.53s-.13-.58-.19-.86-.12-.48-.17-.72a56.81,56.81,0,0,0-8.41-18.73Z"/><path class="cls-119" d="M129.94,49.58c3.57.74,10.06,2.53,15.38,6.46,0,0-1.09,5-6.58,13.31-.06-.24-.12-.48-.17-.72a56.81,56.81,0,0,0-8.41-18.73Z"/><path class="cls-120" d="M129.79,49.36a25.25,25.25,0,0,1,5.6,1h0a31.26,31.26,0,0,1,3,1.13.2.2,0,0,0,.08,0,66.38,66.38,0,0,1,7.84,4.1h0v0a56.32,56.32,0,0,1-5.65,12.39.08.08,0,0,1,0,0l-.07.12a11.78,11.78,0,0,1-1.71,2c-.06-.29-.13-.58-.19-.86s-.12-.48-.17-.72a34.43,34.43,0,0,0,3-10.3,27.43,27.43,0,0,0-11.42-8.43Z"/><path class="cls-121" d="M139.39,48.67c5.14,2.32,10.37,5,10.37,5-.63,3.09-4.63,12.44-4.81,12.88,3.22-6.06,6.5-12.57,6.15-13.4s-5.9-2.67-11.7-4.46Z"/><path class="cls-122" d="M129.79,115.54l-.36.51a38.47,38.47,0,0,0,6-1.5h0c1.07-.36,2.08-.74,3-1.14l.08,0a47.66,47.66,0,0,0,7.84-4.11h0v0a61.07,61.07,0,0,0-5.65-12.39l0,0s-.05-.08-.07-.13c-.57-1-1.11-1.8-1.6-2.53,0,.18-.07.36-.11.53s-.13.58-.19.87-.12.48-.17.72A57,57,0,0,1,130.16,115Z"/><path class="cls-123" d="M129.94,115.33c3.57-.74,10.06-2.53,15.38-6.46,0,0-1.09-5-6.58-13.31-.06.24-.12.48-.17.72A57,57,0,0,1,130.16,115Z"/><path class="cls-124" d="M129.79,115.54a25.13,25.13,0,0,0,5.6-1h0a31.52,31.52,0,0,0,3-1.14l.08,0a68.08,68.08,0,0,0,7.84-4.11h0v0a56.55,56.55,0,0,0-5.65-12.39l0,0s-.05-.08-.07-.13a12.18,12.18,0,0,0-1.71-2c-.06.29-.13.58-.19.87s-.12.48-.17.72a34.37,34.37,0,0,1,3,10.29A27.4,27.4,0,0,1,130.16,115Z"/><path class="cls-125" d="M139.39,116.23c5.14-2.32,10.37-5,10.37-5-.63-3.1-4.63-12.45-4.81-12.89,3.22,6.07,6.5,12.58,6.15,13.41s-5.9,2.67-11.7,4.45Z"/><path class="cls-126" d="M36.28,49.36l.36-.5a37.5,37.5,0,0,0-6,1.5h0c-1.06.35-2.08.74-3,1.13l-.09,0a48.1,48.1,0,0,0-7.83,4.1h0v0a60.3,60.3,0,0,0,5.64,12.39.08.08,0,0,1,0,0l.08.12c.57,1,1.11,1.8,1.59,2.53,0-.17.08-.35.11-.53s.13-.58.2-.86.11-.48.17-.72A56.81,56.81,0,0,1,35.91,49.9Z"/><path class="cls-127" d="M36.12,49.58c-3.56.74-10.06,2.53-15.38,6.46,0,0,1.09,5,6.59,13.31.05-.24.11-.48.17-.72A56.81,56.81,0,0,1,35.91,49.9Z"/><path class="cls-128" d="M36.28,49.36a25.42,25.42,0,0,0-5.61,1h0a31.15,31.15,0,0,0-3,1.13l-.09,0a66.3,66.3,0,0,0-7.83,4.1h0v0a55.44,55.44,0,0,0,5.64,12.39.08.08,0,0,1,0,0l.08.12a12.19,12.19,0,0,0,1.7,2c.07-.29.13-.58.2-.86s.11-.48.17-.72a34.44,34.44,0,0,1-3-10.3A27.51,27.51,0,0,1,35.91,49.9Z"/><path class="cls-129" d="M26.67,48.67c-5.13,2.32-10.36,5-10.36,5,.62,3.09,4.66,12.82,4.85,13.26C18,61.15,14.73,53.45,15,53.13c.49-.68,5.89-2.67,11.69-4.46Z"/><path class="cls-130" d="M36.28,115.54l.36.51a38.6,38.6,0,0,1-6-1.5h0c-1.06-.36-2.08-.74-3-1.14l-.09,0a46.79,46.79,0,0,1-7.83-4.11h0v0a60.55,60.55,0,0,1,5.64-12.39s0,0,0,0l.08-.13c.57-1,1.11-1.8,1.59-2.53,0,.18.08.36.11.53s.13.58.2.87.11.48.17.72A57,57,0,0,0,35.91,115Z"/><path class="cls-131" d="M36.12,115.33c-3.56-.74-10.06-2.53-15.38-6.46,0,0,1.09-5,6.59-13.31.05.24.11.48.17.72A57,57,0,0,0,35.91,115Z"/><path class="cls-132" d="M36.28,115.54a25.29,25.29,0,0,1-5.61-1h0a31.41,31.41,0,0,1-3-1.14l-.09,0a68,68,0,0,1-7.83-4.11h0v0a55.65,55.65,0,0,1,5.64-12.39s0,0,0,0l.08-.13a12.62,12.62,0,0,1,1.7-2c.07.29.13.58.2.87s.11.48.17.72a34.38,34.38,0,0,0-3,10.29A27.48,27.48,0,0,0,35.91,115Z"/><path class="cls-133" d="M26.67,116.23c-5.13-2.32-10.36-5-10.36-5,.62-3.1,4.62-12.45,4.81-12.89C17.89,104.44,14.61,111,15,111.78s5.89,2.67,11.69,4.45Z"/><path class="cls-134" d="M136.38,103.53a57.24,57.24,0,0,1-104.95,3.4C52.52,126.36,95.4,144.51,136.38,103.53Z"/><path class="cls-135" d="M133,118.17c-2.58.74-4.93,1.4-6.64,1.87a59.4,59.4,0,0,1-6.46,6.33c-.5,1.82-1.29,4.66-2.19,7.8a71,71,0,0,1-22.2,10.66c-4.84-2.56-9-4.89-9.58-5.19-.91,0-1.82.07-2.74.07s-1.84,0-2.75-.07c-.56.31-4.87,2.7-9.8,5.3a63.82,63.82,0,0,1-21.85-10.33c-1-3.31-1.79-6.33-2.32-8.24A58.42,58.42,0,0,1,40,120l-5.4-1.51a29,29,0,0,1-3.17-11.6c15.19,25.12,66.17,55,105-3.4C137.11,108.33,135.77,113.34,133,118.17Z"/><path class="cls-136" d="M83.17,25.25a57.24,57.24,0,0,0-54.83,40.8C37.7,45.34,59,35.38,83.17,35.38c26.39,0,48.35,12.69,56.22,36.45A57.22,57.22,0,0,0,83.17,25.25Z"/><path class="cls-137" d="M83.17,35.38a47.09,47.09,0,1,0,47.08,47.09A47.09,47.09,0,0,0,83.17,35.38Zm0,90.22A43.14,43.14,0,1,1,126.3,82.47,43.13,43.13,0,0,1,83.17,125.6Z"/><path class="cls-138" d="M45.27,110.41s12.61,15.19,37.9,15.19,37.89-15.19,37.89-15.19-12.3,19.82-37.89,19.82S45.27,110.41,45.27,110.41Z"/><path class="cls-139" d="M45.27,110.41a47.08,47.08,0,0,0,75.79,0s-12.3,19.82-37.89,19.82S45.27,110.41,45.27,110.41Z"/><path class="cls-140" d="M128.49,69.65c-1.11-.63-2.82-1.66-5.32-3.34h0A43.15,43.15,0,0,0,42.6,67.77a42.37,42.37,0,0,1-5.55,5.14,47.1,47.1,0,0,1,91.44-3.26Z"/><path class="cls-141" d="M83.17,30.73C81.29,33.14,96.23,37.09,98,35.38s.11-4.23-3.26-4.65S84.64,28.83,83.17,30.73Z"/><path class="cls-141" d="M79.83,130.12c-1.08-2,10.69-4.05,12.34-2.57s-1.29,2.06-1.29,2.06Z"/><circle class="cls-142" cx="97.76" cy="31.66" r="9.42" transform="translate(44.49 119.53) rotate(-76.72)"/><path class="cls-143" d="M72.85,137c-.94,3.54-6,5.26-11.42,3.84s-9-5.43-8-9,6.05-5.26,11.42-3.84S73.78,133.5,72.85,137Z"/><path class="cls-144" d="M151.35,56.05c0,1.58-7.65,16.76-11.06,23l-.23-3.71s9.69-15.07,11.05-22.2l.29.59h0C151.42,54.55,151.35,55.94,151.35,56.05Z"/><path class="cls-145" d="M151.34,111.81a.63.63,0,0,1-.18.2l-.06-.23c-2.32-8.47-11-22.18-11-22.18l.23-3.68c3.41,6.23,11.65,21.57,11.06,23C151.28,109,151.46,111.52,151.34,111.81Z"/><path class="cls-146" d="M26.4,85.92v4.26a105.11,105.11,0,0,0-11.07,21.57c-.09-.47.06-2.72,0-2.84C14.75,107.49,23,92.15,26.4,85.92Z"/><path class="cls-147" d="M26.4,74.54V79c-3.41-6.23-11.1-20.93-11.06-23a27.31,27.31,0,0,1,0-2.88C20.27,67,26.4,74.54,26.4,74.54Z"/><path class="cls-148" d="M77.87,139.44l2.55.2c-1.32.73-23.81,13.19-25.53,12.46-.42-.18-1.16-1.88-2-4.38.09.2,1.67,3.45,2.51,3.45S77.87,139.44,77.87,139.44Z"/><path class="cls-149" d="M113.48,147.74c-.88,2.48-1.62,4.18-2,4.36-1.73.73-24.21-11.73-25.54-12.46l3.19-.26s15.15,9.49,21.32,11.39C112,151.25,113.36,148,113.48,147.74Z"/><path class="cls-150" d="M111.07,93.49a27.16,27.16,0,0,0-2.73-.22,13.55,13.55,0,0,1-9.16-6.73,13.17,13.17,0,0,1-1-9.92c1.31-4.36,3-6,6.36-7.78a12.25,12.25,0,0,1,4.22-1.42,13.48,13.48,0,0,0,2.3-.22.86.86,0,0,0,.62-.52c0-.08,0-.25,0-.31-.56-.52-3.29-.56-4.18-.79a13.12,13.12,0,0,1-9.77-11.67c0-.47.1-1.47-.21-1.8a1.78,1.78,0,0,0-.82-.11c-.21.14-.26.16-.31.41-.19.89,0,1.87-.2,2.77a13.31,13.31,0,0,1-5.66,8.59,13,13,0,0,1-9.67,2A13.13,13.13,0,0,1,70.18,53.22c0-.4,0-.94-.3-1.22A4.39,4.39,0,0,0,69,52c-.17,1.11-.15,2.23-.35,3.35a13.19,13.19,0,0,1-5.25,8.2c-2.54,1.84-4.93,2.28-8,2.51a.64.64,0,0,0-.56.26,1.37,1.37,0,0,0,.12.8c.65.33,2.86.35,3.76.53a13.2,13.2,0,0,1,9.46,8.62,13,13,0,0,1-.71,10,13.22,13.22,0,0,1-7.56,6.56c-1.78.58-2.87.37-4.46.7a.91.91,0,0,0-.58.3.84.84,0,0,0,.06.62c.79.74,2.76.37,3.81.64a13.41,13.41,0,0,1,10.14,12.23,3.71,3.71,0,0,0,.13,1.41,1.1,1.1,0,0,0,.69.12,1,1,0,0,0,.45-.78c.12-.76,0-1.54.16-2.3a13.39,13.39,0,0,1,5.22-8.44,13,13,0,0,1,18.26,2.87,13.36,13.36,0,0,1,2.52,7.65c0,.34,0,.82.4.91a3.64,3.64,0,0,0,.74,0c.42-.72.19-2.25.35-3.13A13,13,0,0,1,110,94.78a11.21,11.21,0,0,0,1.17,0,.47.47,0,0,0,.36-.23.89.89,0,0,0,0-.51A.81.81,0,0,0,111.07,93.49ZM93.25,88.72a13,13,0,0,1-18.07,1.91,13.07,13.07,0,1,1,18.07-1.91Z"/><path class="cls-151" d="M110.09,92.82a24.33,24.33,0,0,0-2.73-.21,13.56,13.56,0,0,1-9.16-6.74,13.06,13.06,0,0,1,5.35-17.7,12.25,12.25,0,0,1,4.22-1.42,13.47,13.47,0,0,0,2.3-.21.9.9,0,0,0,.63-.52c0-.09,0-.26,0-.31-.56-.53-3.28-.56-4.18-.8A13.12,13.12,0,0,1,96.7,53.24c0-.47.11-1.47-.21-1.79a1.55,1.55,0,0,0-.82-.11.49.49,0,0,0-.31.41c-.19.88,0,1.87-.2,2.76a13.31,13.31,0,0,1-5.66,8.6,13,13,0,0,1-9.67,2A13.13,13.13,0,0,1,69.2,52.56c0-.41,0-1-.3-1.22a4.33,4.33,0,0,0-.88,0c-.18,1.11-.16,2.24-.36,3.35a13.19,13.19,0,0,1-5.25,8.2c-2.54,1.84-4.93,2.28-8,2.51a.7.7,0,0,0-.56.26,1.49,1.49,0,0,0,.12.81,27.75,27.75,0,0,0,3.76.52,13.2,13.2,0,0,1,9.46,8.62,13,13,0,0,1-.71,10A13.2,13.2,0,0,1,59,92.1c-1.79.59-2.88.37-4.47.7a.91.91,0,0,0-.58.3.86.86,0,0,0,.06.63c.8.73,2.76.36,3.81.63a13.41,13.41,0,0,1,10.14,12.23A3.69,3.69,0,0,0,68,108a1,1,0,0,0,.69.12,1,1,0,0,0,.45-.77c.12-.76,0-1.54.16-2.3a13.36,13.36,0,0,1,5.23-8.45,13,13,0,0,1,18.25,2.87,13.41,13.41,0,0,1,2.52,7.65c0,.34,0,.82.4.91a3.67,3.67,0,0,0,.74,0c.42-.73.19-2.26.35-3.14a13.19,13.19,0,0,1,9.4-10.37,13.94,13.94,0,0,1,2.81-.44,11.14,11.14,0,0,0,1.16,0,.48.48,0,0,0,.36-.24.86.86,0,0,0,0-.5C110.47,93.06,110.4,92.92,110.09,92.82ZM92.27,88.05A13,13,0,0,1,74.2,90,13.05,13.05,0,1,1,95.26,78.39,13,13,0,0,1,92.27,88.05Z"/><path class="cls-141" d="M84.5,65.07c-.56.72,3.9,1.89,4.43,1.38s0-1.26-1-1.38S84.94,64.5,84.5,65.07Z"/></g></g></g></svg>