<svg xmlns="http://www.w3.org/2000/svg" xmlns:xlink="http://www.w3.org/1999/xlink" viewBox="0 0 163.61 162.02"><defs><style>.cls-1{isolation:isolate;}.cls-2{fill:url(#_92);}.cls-10,.cls-101,.cls-102,.cls-106,.cls-109,.cls-112,.cls-113,.cls-116,.cls-117,.cls-12,.cls-120,.cls-121,.cls-124,.cls-125,.cls-128,.cls-129,.cls-13,.cls-132,.cls-133,.cls-134,.cls-135,.cls-136,.cls-138,.cls-140,.cls-144,.cls-145,.cls-146,.cls-147,.cls-150,.cls-17,.cls-19,.cls-20,.cls-26,.cls-28,.cls-3,.cls-30,.cls-31,.cls-32,.cls-33,.cls-35,.cls-37,.cls-38,.cls-39,.cls-40,.cls-42,.cls-44,.cls-45,.cls-47,.cls-49,.cls-5,.cls-50,.cls-51,.cls-52,.cls-54,.cls-56,.cls-57,.cls-58,.cls-59,.cls-6,.cls-61,.cls-63,.cls-64,.cls-66,.cls-68,.cls-69,.cls-70,.cls-71,.cls-73,.cls-75,.cls-76,.cls-77,.cls-78,.cls-80,.cls-82,.cls-83,.cls-85,.cls-87,.cls-88,.cls-89,.cls-90,.cls-92,.cls-94,.cls-95,.cls-96,.cls-97,.cls-99{opacity:0.5;}.cls-10,.cls-106,.cls-109,.cls-112,.cls-116,.cls-12,.cls-120,.cls-124,.cls-128,.cls-132,.cls-134,.cls-135,.cls-140,.cls-144,.cls-147,.cls-17,.cls-19,.cls-26,.cls-28,.cls-3,.cls-32,.cls-33,.cls-35,.cls-39,.cls-40,.cls-42,.cls-47,.cls-5,.cls-51,.cls-52,.cls-54,.cls-58,.cls-59,.cls-61,.cls-66,.cls-70,.cls-71,.cls-73,.cls-77,.cls-78,.cls-80,.cls-85,.cls-89,.cls-90,.cls-92,.cls-96,.cls-97,.cls-99{mix-blend-mode:multiply;}.cls-3{fill:url(#_27);}.cls-4{fill:url(#_92-2);}.cls-5{fill:url(#_27-2);}.cls-101,.cls-102,.cls-113,.cls-117,.cls-121,.cls-125,.cls-129,.cls-13,.cls-133,.cls-136,.cls-138,.cls-142,.cls-143,.cls-145,.cls-146,.cls-15,.cls-20,.cls-22,.cls-30,.cls-31,.cls-37,.cls-38,.cls-44,.cls-45,.cls-49,.cls-50,.cls-56,.cls-57,.cls-6,.cls-63,.cls-64,.cls-68,.cls-69,.cls-75,.cls-76,.cls-8,.cls-82,.cls-83,.cls-87,.cls-88,.cls-94,.cls-95{mix-blend-mode:color-dodge;}.cls-6{fill:url(#_28);}.cls-7{fill:url(#linear-gradient);}.cls-142,.cls-143,.cls-15,.cls-22,.cls-8{opacity:0.6;}.cls-8{fill:url(#_21);}.cls-9{fill:url(#_92-3);}.cls-10{fill:url(#_27-3);}.cls-11{fill:url(#_92-4);}.cls-12{fill:url(#_27-4);}.cls-13{fill:url(#_28-2);}.cls-14{fill:url(#linear-gradient-2);}.cls-15{fill:url(#_21-2);}.cls-16{fill:url(#_92-5);}.cls-17{fill:url(#_27-5);}.cls-18{fill:url(#_92-6);}.cls-19{fill:url(#_27-6);}.cls-20{fill:url(#_28-3);}.cls-21{fill:url(#linear-gradient-3);}.cls-22{fill:url(#_21-3);}.cls-23{fill:url(#_92-7);}.cls-24{fill:#ffba2c;}.cls-25{fill:url(#_92-8);}.cls-26{fill:url(#_27-7);}.cls-27{fill:url(#_92-9);}.cls-28{fill:url(#_27-8);}.cls-29{fill:url(#_79);}.cls-30{fill:url(#_28-4);}.cls-31{fill:url(#_28-5);}.cls-32{fill:url(#_27-9);}.cls-33{fill:url(#_27-10);}.cls-34{fill:url(#_92-10);}.cls-35{fill:url(#_27-11);}.cls-36{fill:url(#_79-2);}.cls-37{fill:url(#_28-6);}.cls-38{fill:url(#_28-7);}.cls-39{fill:url(#_27-12);}.cls-40{fill:url(#_27-13);}.cls-41{fill:url(#_92-11);}.cls-42{fill:url(#_27-14);}.cls-43{fill:url(#_79-3);}.cls-44{fill:url(#_28-8);}.cls-45{fill:url(#_28-9);}.cls-46{fill:url(#_92-12);}.cls-47{fill:url(#_27-15);}.cls-48{fill:url(#_79-4);}.cls-49{fill:url(#_28-10);}.cls-50{fill:url(#_28-11);}.cls-51{fill:url(#_27-16);}.cls-52{fill:url(#_27-17);}.cls-53{fill:url(#_92-13);}.cls-54{fill:url(#_27-18);}.cls-55{fill:url(#_79-5);}.cls-56{fill:url(#_28-12);}.cls-57{fill:url(#_28-13);}.cls-58{fill:url(#_27-19);}.cls-59{fill:url(#_27-20);}.cls-60{fill:url(#_92-14);}.cls-61{fill:url(#_27-21);}.cls-62{fill:url(#_79-6);}.cls-63{fill:url(#_28-14);}.cls-64{fill:url(#_28-15);}.cls-65{fill:url(#_92-15);}.cls-66{fill:url(#_27-22);}.cls-67{fill:url(#_79-7);}.cls-68{fill:url(#_28-16);}.cls-69{fill:url(#_28-17);}.cls-70{fill:url(#_27-23);}.cls-71{fill:url(#_27-24);}.cls-72{fill:url(#_92-16);}.cls-73{fill:url(#_27-25);}.cls-74{fill:url(#_79-8);}.cls-75{fill:url(#_28-18);}.cls-76{fill:url(#_28-19);}.cls-77{fill:url(#_27-26);}.cls-78{fill:url(#_27-27);}.cls-79{fill:url(#_92-17);}.cls-80{fill:url(#_27-28);}.cls-81{fill:url(#_79-9);}.cls-82{fill:url(#_28-20);}.cls-83{fill:url(#_28-21);}.cls-84{fill:url(#_92-18);}.cls-85{fill:url(#_27-29);}.cls-86{fill:url(#_79-10);}.cls-87{fill:url(#_28-22);}.cls-88{fill:url(#_28-23);}.cls-89{fill:url(#_27-30);}.cls-90{fill:url(#_27-31);}.cls-91{fill:url(#_92-19);}.cls-92{fill:url(#_27-32);}.cls-93{fill:url(#_79-11);}.cls-94{fill:url(#_28-24);}.cls-95{fill:url(#_28-25);}.cls-96{fill:url(#_27-33);}.cls-97{fill:url(#_27-34);}.cls-98{fill:url(#_92-20);}.cls-99{fill:url(#_27-35);}.cls-100{fill:url(#_79-12);}.cls-101{fill:url(#_28-26);}.cls-102{fill:url(#_28-27);}.cls-103{fill:url(#_92-21);}.cls-104{fill:url(#_29);}.cls-105{fill:url(#_19);}.cls-106{fill:url(#_27-36);}.cls-107{fill:url(#_29-2);}.cls-108{fill:url(#_19-2);}.cls-109{fill:url(#_27-37);}.cls-110{fill:url(#_29-3);}.cls-111{fill:url(#_92-22);}.cls-112{fill:url(#_27-38);}.cls-113{fill:url(#_28-28);}.cls-114{fill:url(#_29-4);}.cls-115{fill:url(#_92-23);}.cls-116{fill:url(#_27-39);}.cls-117{fill:url(#_28-29);}.cls-118{fill:url(#_29-5);}.cls-119{fill:url(#_92-24);}.cls-120{fill:url(#_27-40);}.cls-121{fill:url(#_28-30);}.cls-122{fill:url(#_29-6);}.cls-123{fill:url(#_92-25);}.cls-124{fill:url(#_27-41);}.cls-125{fill:url(#_28-31);}.cls-126{fill:url(#_29-7);}.cls-127{fill:url(#_92-26);}.cls-128{fill:url(#_27-42);}.cls-129{fill:url(#_28-32);}.cls-130{fill:url(#_29-8);}.cls-131{fill:url(#_92-27);}.cls-132{fill:url(#_27-43);}.cls-133{fill:url(#_28-33);}.cls-134{fill:url(#_27-44);}.cls-135{fill:url(#_27-45);}.cls-136{fill:url(#_28-34);}.cls-137{fill:url(#_29-9);}.cls-138{fill:url(#_28-35);}.cls-139{fill:url(#linear-gradient-4);}.cls-140{fill:url(#_27-46);}.cls-141{fill:#fff;}.cls-142{fill:url(#_21-4);}.cls-143{fill:url(#_26);}.cls-144{fill:url(#_27-47);}.cls-145{fill:url(#_28-36);}.cls-146{fill:url(#_28-37);}.cls-147{fill:url(#_27-48);}.cls-148{fill:url(#_18);}.cls-149{fill:url(#_18-2);}.cls-150{fill:url(#_27-49);}.cls-151{fill:url(#linear-gradient-5);}</style><linearGradient id="_92" x1="81.75" y1="54.41" x2="81.75" y2="-2.97" gradientUnits="userSpaceOnUse"><stop offset="0" stop-color="#ca6b34"/><stop offset="0.67" stop-color="#ffa933"/><stop offset="1" stop-color="#ffbd2b"/></linearGradient><linearGradient id="_27" x1="81.75" y1="40.43" x2="81.75" y2="11.75" gradientUnits="userSpaceOnUse"><stop offset="0" stop-color="#fff"/><stop offset="0.44" stop-color="#ed8a1d"/><stop offset="1" stop-color="#b41e2d"/></linearGradient><linearGradient id="_92-2" x1="81.72" y1="-13.93" x2="81.72" y2="35.48" xlink:href="#_92"/><linearGradient id="_27-2" x1="81.48" y1="36.49" x2="81.48" y2="7.91" xlink:href="#_27"/><linearGradient id="_28" x1="85.74" y1="1.94" x2="83.93" y2="12.19" gradientUnits="userSpaceOnUse"><stop offset="0" stop-color="#ebbd38"/><stop offset="1"/></linearGradient><linearGradient id="linear-gradient" x1="91.78" y1="14.27" x2="91.78" y2="3.48" gradientUnits="userSpaceOnUse"><stop offset="0" stop-color="#fff"/><stop offset="1" stop-color="#fff7c4"/></linearGradient><radialGradient id="_21" cx="84.45" cy="-779.65" r="15.13" gradientTransform="translate(0 964.16) scale(1 1.21)" gradientUnits="userSpaceOnUse"><stop offset="0" stop-color="#f4a940"/><stop offset="0.09" stop-color="#e6a03c"/><stop offset="0.27" stop-color="#c38733"/><stop offset="0.51" stop-color="#895f24"/><stop offset="0.8" stop-color="#39280f"/><stop offset="1"/></radialGradient><linearGradient id="_92-3" x1="-8438.46" y1="-1235.89" x2="-8438.46" y2="-1293.27" gradientTransform="translate(1290.3 -8356.98) rotate(-90)" xlink:href="#_92"/><linearGradient id="_27-3" x1="-8438.46" y1="-1249.87" x2="-8438.46" y2="-1278.55" gradientTransform="translate(1290.3 -8356.98) rotate(-90)" xlink:href="#_27"/><linearGradient id="_92-4" x1="-8438.49" y1="-1304.22" x2="-8438.49" y2="-1254.82" gradientTransform="translate(1290.3 -8356.98) rotate(-90)" xlink:href="#_92"/><linearGradient id="_27-4" x1="-8438.73" y1="-1253.8" x2="-8438.73" y2="-1282.39" gradientTransform="translate(1290.3 -8356.98) rotate(-90)" xlink:href="#_27"/><linearGradient id="_28-2" x1="-8434.46" y1="-1288.35" x2="-8436.27" y2="-1278.1" gradientTransform="translate(1290.3 -8356.98) rotate(-90)" xlink:href="#_28"/><linearGradient id="linear-gradient-2" x1="-8428.43" y1="-1276.03" x2="-8428.43" y2="-1286.82" gradientTransform="translate(1290.3 -8356.98) rotate(-90)" xlink:href="#linear-gradient"/><radialGradient id="_21-2" cx="-8435.76" cy="-1849.82" r="15.13" gradientTransform="translate(2254.46 -8356.98) rotate(-90) scale(1 1.21)" xlink:href="#_21"/><linearGradient id="_92-5" x1="-8438.46" y1="-9246.12" x2="-8438.46" y2="-9303.49" gradientTransform="matrix(0, -1, -1, 0, -9136.91, -8356.98)" xlink:href="#_92"/><linearGradient id="_27-5" x1="-8438.46" y1="-9260.09" x2="-8438.46" y2="-9288.77" gradientTransform="matrix(0, -1, -1, 0, -9136.91, -8356.98)" xlink:href="#_27"/><linearGradient id="_92-6" x1="-8438.49" y1="-9314.45" x2="-8438.49" y2="-9265.04" gradientTransform="matrix(0, -1, -1, 0, -9136.91, -8356.98)" xlink:href="#_92"/><linearGradient id="_27-6" x1="-8438.73" y1="-9264.03" x2="-8438.73" y2="-9292.61" gradientTransform="matrix(0, -1, -1, 0, -9136.91, -8356.98)" xlink:href="#_27"/><linearGradient id="_28-3" x1="-8434.46" y1="-9298.58" x2="-8436.27" y2="-9288.33" gradientTransform="matrix(0, -1, -1, 0, -9136.91, -8356.98)" xlink:href="#_28"/><linearGradient id="linear-gradient-3" x1="-8428.43" y1="-9286.25" x2="-8428.43" y2="-9297.04" gradientTransform="matrix(0, -1, -1, 0, -9136.91, -8356.98)" xlink:href="#linear-gradient"/><radialGradient id="_21-3" cx="-8435.76" cy="-8493.45" r="15.13" gradientTransform="matrix(0, -1, -1.21, 0, -10101.08, -8356.98)" xlink:href="#_21"/><linearGradient id="_92-7" x1="81.75" y1="159" x2="81.75" y2="128.53" xlink:href="#_92"/><linearGradient id="_92-8" x1="81.72" y1="140.26" x2="81.72" y2="164.09" xlink:href="#_92"/><linearGradient id="_27-7" x1="81.48" y1="156.28" x2="81.48" y2="137.85" xlink:href="#_27"/><linearGradient id="_92-9" x1="36.2" y1="24.32" x2="53.05" y2="24.32" xlink:href="#_92"/><linearGradient id="_27-8" x1="-8963.81" y1="-1363.85" x2="-8951.49" y2="-1339.83" gradientTransform="matrix(-0.96, -0.29, -0.29, 0.96, -8911.72, -1323.77)" xlink:href="#_27"/><linearGradient id="_79" x1="-8956.76" y1="-1351.35" x2="-8960.47" y2="-1337.68" gradientTransform="matrix(-0.96, -0.29, -0.29, 0.96, -8911.72, -1323.77)" gradientUnits="userSpaceOnUse"><stop offset="0" stop-color="#f27a13"/><stop offset="1" stop-color="#b41e2d"/></linearGradient><linearGradient id="_28-4" x1="-10073.78" y1="-4092.15" x2="-10083.73" y2="-4084.34" gradientTransform="matrix(-0.67, -0.74, -0.74, 0.67, -9763.59, -4668.37)" xlink:href="#_28"/><linearGradient id="_28-5" x1="-10074.27" y1="-4101.74" x2="-10064.3" y2="-4101.74" gradientTransform="matrix(-0.67, -0.74, -0.74, 0.67, -9763.59, -4668.37)" xlink:href="#_28"/><linearGradient id="_27-9" x1="-8960.19" y1="-1341.68" x2="-8948.46" y2="-1341.68" gradientTransform="matrix(-0.96, -0.29, -0.29, 0.96, -8911.72, -1323.77)" xlink:href="#_27"/><linearGradient id="_27-10" x1="-8960.54" y1="-1353.38" x2="-8952.66" y2="-1342.75" gradientTransform="matrix(-0.96, -0.29, -0.29, 0.96, -8911.72, -1323.77)" xlink:href="#_27"/><linearGradient id="_92-10" x1="12.72" y1="43.64" x2="41.98" y2="43.64" xlink:href="#_92"/><linearGradient id="_27-11" x1="-6127" y1="955.31" x2="-6117.06" y2="974.69" gradientTransform="matrix(-0.95, 0.3, 0.3, 0.95, -6098.81, 976.32)" xlink:href="#_27"/><linearGradient id="_79-2" x1="-3846.41" y1="890.59" x2="-3857.69" y2="899.45" gradientTransform="matrix(-0.74, 0.67, 0.67, 0.74, -3429.88, 1949.39)" xlink:href="#_79"/><linearGradient id="_28-6" x1="-3846.91" y1="892.77" x2="-3856.82" y2="900.56" gradientTransform="matrix(-0.74, 0.67, 0.67, 0.74, -3429.88, 1949.39)" xlink:href="#_28"/><linearGradient id="_28-7" x1="-6120.52" y1="960.85" x2="-6109.92" y2="960.85" gradientTransform="matrix(-0.95, 0.3, 0.3, 0.95, -6098.81, 976.32)" xlink:href="#_28"/><linearGradient id="_27-12" x1="-3856.21" y1="899.48" x2="-3840.79" y2="899.48" gradientTransform="matrix(-0.74, 0.67, 0.67, 0.74, -3429.88, 1949.39)" xlink:href="#_27"/><linearGradient id="_27-13" x1="-6124.67" y1="967.78" x2="-6126.52" y2="964.16" gradientTransform="matrix(-0.95, 0.3, 0.3, 0.95, -6098.81, 976.32)" xlink:href="#_27"/><linearGradient id="_92-11" x1="38.51" y1="43.99" x2="27.64" y2="22.87" xlink:href="#_92"/><linearGradient id="_27-14" x1="-1516.63" y1="173.52" x2="-1514.03" y2="191.76" gradientTransform="matrix(1, -0.06, 0.06, 1, 1535.28, -232.73)" xlink:href="#_27"/><linearGradient id="_79-3" x1="-8028.79" y1="-228.12" x2="-8041.33" y2="-218.27" gradientTransform="matrix(-1, -0.07, -0.07, 1, -7993.81, -294.34)" xlink:href="#_79"/><linearGradient id="_28-8" x1="-8029.54" y1="-226.3" x2="-8040.73" y2="-217.5" gradientTransform="matrix(-1, -0.07, -0.07, 1, -7993.81, -294.34)" xlink:href="#_28"/><linearGradient id="_28-9" x1="-8031.22" y1="-236.98" x2="-8018.88" y2="-236.98" gradientTransform="matrix(-1, -0.07, -0.07, 1, -7993.81, -294.34)" xlink:href="#_28"/><linearGradient id="_92-12" x1="110.56" y1="24.32" x2="127.41" y2="24.32" xlink:href="#_92"/><linearGradient id="_27-15" x1="948.68" y1="1692.05" x2="961" y2="1716.07" gradientTransform="translate(-1297.32 -1323.77) rotate(-17.13)" xlink:href="#_27"/><linearGradient id="_79-4" x1="955.73" y1="1704.55" x2="952.02" y2="1718.23" gradientTransform="translate(-1297.32 -1323.77) rotate(-17.13)" xlink:href="#_79"/><linearGradient id="_28-10" x1="-3091.33" y1="3577.97" x2="-3101.27" y2="3585.78" gradientTransform="translate(-445.45 -4668.37) rotate(-47.69)" xlink:href="#_28"/><linearGradient id="_28-11" x1="-3091.82" y1="3568.39" x2="-3081.84" y2="3568.39" gradientTransform="translate(-445.45 -4668.37) rotate(-47.69)" xlink:href="#_28"/><linearGradient id="_27-16" x1="952.3" y1="1714.22" x2="964.03" y2="1714.22" gradientTransform="translate(-1297.32 -1323.77) rotate(-17.13)" xlink:href="#_27"/><linearGradient id="_27-17" x1="951.95" y1="1702.52" x2="959.83" y2="1713.16" gradientTransform="translate(-1297.32 -1323.77) rotate(-17.13)" xlink:href="#_27"/><linearGradient id="_92-13" x1="121.63" y1="43.64" x2="150.89" y2="43.64" xlink:href="#_92"/><linearGradient id="_27-18" x1="3758.55" y1="-2186.7" x2="3768.5" y2="-2167.32" gradientTransform="matrix(0.95, 0.3, -0.3, 0.95, -4110.23, 976.32)" xlink:href="#_27"/><linearGradient id="_79-5" x1="3872.47" y1="-6037.94" x2="3861.19" y2="-6029.08" gradientTransform="translate(-6779.15 1949.39) rotate(41.91)" xlink:href="#_79"/><linearGradient id="_28-12" x1="3871.97" y1="-6035.76" x2="3862.06" y2="-6027.97" gradientTransform="translate(-6779.15 1949.39) rotate(41.91)" xlink:href="#_28"/><linearGradient id="_28-13" x1="3765.03" y1="-2181.15" x2="3775.63" y2="-2181.15" gradientTransform="matrix(0.95, 0.3, -0.3, 0.95, -4110.23, 976.32)" xlink:href="#_28"/><linearGradient id="_27-19" x1="3862.66" y1="-6029.05" x2="3878.09" y2="-6029.05" gradientTransform="translate(-6779.15 1949.39) rotate(41.91)" xlink:href="#_27"/><linearGradient id="_27-20" x1="3760.88" y1="-2174.22" x2="3759.03" y2="-2177.84" gradientTransform="matrix(0.95, 0.3, -0.3, 0.95, -4110.23, 976.32)" xlink:href="#_27"/><linearGradient id="_92-14" x1="133.72" y1="51.09" x2="132.17" y2="29.35" xlink:href="#_92"/><linearGradient id="_27-21" x1="-11872.75" y1="-403.15" x2="-11870.14" y2="-384.91" gradientTransform="matrix(-1, -0.06, -0.06, 1, -11744.32, -232.73)" xlink:href="#_27"/><linearGradient id="_79-6" x1="2319.73" y1="484.53" x2="2307.2" y2="494.38" gradientTransform="translate(-2215.23 -294.34) rotate(-3.94)" xlink:href="#_79"/><linearGradient id="_28-14" x1="2318.99" y1="486.36" x2="2307.79" y2="495.15" gradientTransform="translate(-2215.23 -294.34) rotate(-3.94)" xlink:href="#_28"/><linearGradient id="_28-15" x1="2317.3" y1="475.67" x2="2329.64" y2="475.67" gradientTransform="translate(-2215.23 -294.34) rotate(-3.94)" xlink:href="#_28"/><linearGradient id="_92-15" x1="36.2" y1="137.56" x2="53.05" y2="137.56" xlink:href="#_92"/><linearGradient id="_27-22" x1="-6110.56" y1="-10618.98" x2="-6098.24" y2="-10594.97" gradientTransform="translate(-8911.72 -8199.12) rotate(162.87)" xlink:href="#_27"/><linearGradient id="_79-7" x1="-6103.52" y1="-10606.48" x2="-6107.22" y2="-10592.81" gradientTransform="translate(-8911.72 -8199.12) rotate(162.87)" xlink:href="#_79"/><linearGradient id="_28-16" x1="-2912.31" y1="-10611.56" x2="-2922.26" y2="-10603.75" gradientTransform="translate(-9763.59 -4854.51) rotate(132.31)" xlink:href="#_28"/><linearGradient id="_28-17" x1="-2912.8" y1="-10621.14" x2="-2902.83" y2="-10621.14" gradientTransform="translate(-9763.59 -4854.51) rotate(132.31)" xlink:href="#_28"/><linearGradient id="_27-23" x1="-6106.95" y1="-10596.82" x2="-6095.22" y2="-10596.82" gradientTransform="translate(-8911.72 -8199.12) rotate(162.87)" xlink:href="#_27"/><linearGradient id="_27-24" x1="-6107.29" y1="-10608.52" x2="-6099.41" y2="-10597.88" gradientTransform="translate(-8911.72 -8199.12) rotate(162.87)" xlink:href="#_27"/><linearGradient id="_92-16" x1="12.72" y1="118.24" x2="41.98" y2="118.24" xlink:href="#_92"/><linearGradient id="_27-25" x1="-9060.64" y1="-8274.67" x2="-9050.7" y2="-8255.29" gradientTransform="matrix(-0.95, -0.3, 0.3, -0.95, -6098.81, -10499.21)" xlink:href="#_27"/><linearGradient id="_79-8" x1="-10315.47" y1="-6316.41" x2="-10326.74" y2="-6307.55" gradientTransform="translate(-3429.88 -11472.28) rotate(-138.09)" xlink:href="#_79"/><linearGradient id="_28-18" x1="-10315.97" y1="-6314.22" x2="-10325.88" y2="-6306.44" gradientTransform="translate(-3429.88 -11472.28) rotate(-138.09)" xlink:href="#_28"/><linearGradient id="_28-19" x1="-9054.17" y1="-8269.13" x2="-9043.56" y2="-8269.13" gradientTransform="matrix(-0.95, -0.3, 0.3, -0.95, -6098.81, -10499.21)" xlink:href="#_28"/><linearGradient id="_27-26" x1="-10325.27" y1="-6307.51" x2="-10309.84" y2="-6307.51" gradientTransform="translate(-3429.88 -11472.28) rotate(-138.09)" xlink:href="#_27"/><linearGradient id="_27-27" x1="-9058.32" y1="-8262.2" x2="-9060.16" y2="-8265.82" gradientTransform="matrix(-0.95, -0.3, 0.3, -0.95, -6098.81, -10499.21)" xlink:href="#_27"/><linearGradient id="_92-17" x1="39" y1="137.31" x2="22.85" y2="127.21" xlink:href="#_92"/><linearGradient id="_27-28" x1="-978.21" y1="-9495.82" x2="-975.61" y2="-9477.58" gradientTransform="matrix(1, 0.06, 0.06, -1, 1535.28, -9290.16)" xlink:href="#_27"/><linearGradient id="_79-9" x1="-7363.4" y1="-9890.37" x2="-7375.93" y2="-9880.52" gradientTransform="translate(-7993.81 -9228.54) rotate(176.06)" xlink:href="#_79"/><linearGradient id="_28-20" x1="-7364.14" y1="-9888.55" x2="-7375.33" y2="-9879.75" gradientTransform="translate(-7993.81 -9228.54) rotate(176.06)" xlink:href="#_28"/><linearGradient id="_28-21" x1="-7365.82" y1="-9899.23" x2="-7353.49" y2="-9899.23" gradientTransform="translate(-7993.81 -9228.54) rotate(176.06)" xlink:href="#_28"/><linearGradient id="_92-18" x1="110.56" y1="137.56" x2="127.41" y2="137.56" xlink:href="#_92"/><linearGradient id="_27-29" x1="3801.93" y1="-7563.08" x2="3814.25" y2="-7539.07" gradientTransform="matrix(0.96, 0.29, 0.29, -0.96, -1297.32, -8199.12)" xlink:href="#_27"/><linearGradient id="_79-10" x1="3808.97" y1="-7550.58" x2="3805.27" y2="-7536.91" gradientTransform="matrix(0.96, 0.29, 0.29, -0.96, -1297.32, -8199.12)" xlink:href="#_79"/><linearGradient id="_28-22" x1="4070.14" y1="-2941.44" x2="4060.2" y2="-2933.62" gradientTransform="matrix(0.67, 0.74, 0.74, -0.67, -445.45, -4854.51)" xlink:href="#_28"/><linearGradient id="_28-23" x1="4069.65" y1="-2951.02" x2="4079.63" y2="-2951.02" gradientTransform="matrix(0.67, 0.74, 0.74, -0.67, -445.45, -4854.51)" xlink:href="#_28"/><linearGradient id="_27-30" x1="3805.54" y1="-7540.91" x2="3817.27" y2="-7540.91" gradientTransform="matrix(0.96, 0.29, 0.29, -0.96, -1297.32, -8199.12)" xlink:href="#_27"/><linearGradient id="_27-31" x1="3805.2" y1="-7552.61" x2="3813.08" y2="-7541.98" gradientTransform="matrix(0.96, 0.29, 0.29, -0.96, -1297.32, -8199.12)" xlink:href="#_27"/><linearGradient id="_92-19" x1="121.63" y1="118.24" x2="150.89" y2="118.24" xlink:href="#_92"/><linearGradient id="_27-32" x1="824.91" y1="-11416.68" x2="834.85" y2="-11397.3" gradientTransform="matrix(0.95, -0.3, -0.3, -0.95, -4110.23, -10499.21)" xlink:href="#_27"/><linearGradient id="_79-11" x1="-2596.59" y1="-13244.93" x2="-2607.87" y2="-13236.07" gradientTransform="matrix(0.74, -0.67, -0.67, -0.74, -6779.15, -11472.28)" xlink:href="#_79"/><linearGradient id="_28-24" x1="-2597.09" y1="-13242.75" x2="-2607" y2="-13234.96" gradientTransform="matrix(0.74, -0.67, -0.67, -0.74, -6779.15, -11472.28)" xlink:href="#_28"/><linearGradient id="_28-25" x1="831.38" y1="-11411.14" x2="841.99" y2="-11411.14" gradientTransform="matrix(0.95, -0.3, -0.3, -0.95, -4110.23, -10499.21)" xlink:href="#_28"/><linearGradient id="_27-33" x1="-2606.39" y1="-13236.04" x2="-2590.97" y2="-13236.04" gradientTransform="matrix(0.74, -0.67, -0.67, -0.74, -6779.15, -11472.28)" xlink:href="#_27"/><linearGradient id="_27-34" x1="827.23" y1="-11404.21" x2="825.39" y2="-11407.83" gradientTransform="matrix(0.95, -0.3, -0.3, -0.95, -4110.23, -10499.21)" xlink:href="#_27"/><linearGradient id="_92-20" x1="127.64" y1="140.5" x2="138.05" y2="123.1" xlink:href="#_92"/><linearGradient id="_27-35" x1="-11334.33" y1="-10072.49" x2="-11331.72" y2="-10054.25" gradientTransform="matrix(-1, 0.06, -0.06, -1, -11744.32, -9290.16)" xlink:href="#_27"/><linearGradient id="_79-12" x1="2985.13" y1="-9177.72" x2="2972.59" y2="-9167.87" gradientTransform="matrix(1, 0.07, 0.07, -1, -2215.23, -9228.54)" xlink:href="#_79"/><linearGradient id="_28-26" x1="2984.38" y1="-9175.89" x2="2973.19" y2="-9167.1" gradientTransform="matrix(1, 0.07, 0.07, -1, -2215.23, -9228.54)" xlink:href="#_28"/><linearGradient id="_28-27" x1="2982.7" y1="-9186.58" x2="2995.03" y2="-9186.58" gradientTransform="matrix(1, 0.07, 0.07, -1, -2215.23, -9228.54)" xlink:href="#_28"/><linearGradient id="_92-21" x1="81.75" y1="151.77" x2="81.75" y2="19.5" xlink:href="#_92"/><linearGradient id="_29" x1="63.72" y1="127.78" x2="56.48" y2="144.14" gradientUnits="userSpaceOnUse"><stop offset="0" stop-color="#ca6b34"/><stop offset="0.17" stop-color="#cc6e34"/><stop offset="0.29" stop-color="#d27733"/><stop offset="0.39" stop-color="#db8631"/><stop offset="0.48" stop-color="#e99b2f"/><stop offset="0.57" stop-color="#fbb72c"/><stop offset="0.59" stop-color="#ffbd2b"/><stop offset="1" stop-color="#ffa933"/></linearGradient><linearGradient id="_19" x1="61.86" y1="142.74" x2="61.86" y2="121.08" gradientUnits="userSpaceOnUse"><stop offset="0" stop-color="#ca6b34"/><stop offset="0.74" stop-color="#ffbd2b"/><stop offset="1" stop-color="#ffa933"/></linearGradient><linearGradient id="_27-36" x1="56.31" y1="143.76" x2="63.13" y2="129.24" xlink:href="#_27"/><linearGradient id="_29-2" x1="99.52" y1="126.92" x2="107.85" y2="146.76" xlink:href="#_29"/><linearGradient id="_19-2" x1="101.64" y1="142.74" x2="101.64" y2="121.08" xlink:href="#_19"/><linearGradient id="_27-37" x1="105.51" y1="143.35" x2="100.23" y2="127.51" xlink:href="#_27"/><linearGradient id="_29-3" x1="58.95" y1="23.81" x2="64.39" y2="35.77" xlink:href="#_29"/><linearGradient id="_92-22" x1="57.33" y1="18.13" x2="62.1" y2="30.14" xlink:href="#_92"/><linearGradient id="_27-38" x1="63.97" y1="34.46" x2="54.65" y2="15.82" xlink:href="#_27"/><linearGradient id="_28-28" x1="51.99" y1="7.07" x2="58.91" y2="27.03" xlink:href="#_28"/><linearGradient id="_29-4" x1="-12154.92" y1="23.81" x2="-12149.48" y2="35.77" gradientTransform="matrix(-1, 0, 0, 1, -12050.35, 0)" xlink:href="#_29"/><linearGradient id="_92-23" x1="-12156.53" y1="18.13" x2="-12151.77" y2="30.14" gradientTransform="matrix(-1, 0, 0, 1, -12050.35, 0)" xlink:href="#_92"/><linearGradient id="_27-39" x1="-12149.9" y1="34.46" x2="-12159.22" y2="15.82" gradientTransform="matrix(-1, 0, 0, 1, -12050.35, 0)" xlink:href="#_27"/><linearGradient id="_28-29" x1="-12161.88" y1="7.07" x2="-12154.96" y2="27.03" gradientTransform="matrix(-1, 0, 0, 1, -12050.35, 0)" xlink:href="#_28"/><linearGradient id="_29-5" x1="-13774.11" y1="-5336.57" x2="-13768.67" y2="-5324.61" gradientTransform="matrix(-0.71, -0.71, -0.71, 0.71, -13383.43, -5890.63)" xlink:href="#_29"/><linearGradient id="_92-24" x1="-13775.73" y1="-5342.25" x2="-13770.97" y2="-5330.24" gradientTransform="matrix(-0.71, -0.71, -0.71, 0.71, -13383.43, -5890.63)" xlink:href="#_92"/><linearGradient id="_27-40" x1="-13769.09" y1="-5325.92" x2="-13778.41" y2="-5344.56" gradientTransform="matrix(-0.71, -0.71, -0.71, 0.71, -13383.43, -5890.63)" xlink:href="#_27"/><linearGradient id="_28-30" x1="-13785.9" y1="-5289.09" x2="-13779.49" y2="-5270.6" gradientTransform="matrix(-0.71, -0.7, -0.7, 0.71, -13394.82, -5822.85)" xlink:href="#_28"/><linearGradient id="_29-6" x1="-7188.61" y1="-11940.72" x2="-7183.18" y2="-11928.76" gradientTransform="matrix(-0.71, 0.71, -0.71, -0.71, -13383.43, -3273.69)" xlink:href="#_29"/><linearGradient id="_92-25" x1="-7190.23" y1="-11946.4" x2="-7185.47" y2="-11934.39" gradientTransform="matrix(-0.71, 0.71, -0.71, -0.71, -13383.43, -3273.69)" xlink:href="#_92"/><linearGradient id="_27-41" x1="-7183.6" y1="-11930.08" x2="-7192.91" y2="-11948.71" gradientTransform="matrix(-0.71, 0.71, -0.71, -0.71, -13383.43, -3273.69)" xlink:href="#_27"/><linearGradient id="_28-31" x1="-7257.94" y1="-11949.48" x2="-7251.53" y2="-11930.98" gradientTransform="matrix(-0.71, 0.7, -0.7, -0.71, -13394.82, -3341.47)" xlink:href="#_28"/><linearGradient id="_29-7" x1="-5829.87" y1="2585.23" x2="-5824.44" y2="2597.19" gradientTransform="matrix(0.71, -0.71, 0.71, 0.71, 2327.77, -5890.63)" xlink:href="#_29"/><linearGradient id="_92-26" x1="-5831.49" y1="2579.55" x2="-5826.73" y2="2591.56" gradientTransform="matrix(0.71, -0.71, 0.71, 0.71, 2327.77, -5890.63)" xlink:href="#_92"/><linearGradient id="_27-42" x1="-5824.85" y1="2595.88" x2="-5834.17" y2="2577.24" gradientTransform="matrix(0.71, -0.71, 0.71, 0.71, 2327.77, -5890.63)" xlink:href="#_27"/><linearGradient id="_28-32" x1="-5774.19" y1="2563.46" x2="-5767.67" y2="2582.27" gradientTransform="matrix(0.71, -0.7, 0.7, 0.71, 2339.16, -5822.85)" xlink:href="#_28"/><linearGradient id="_29-8" x1="755.63" y1="-4018.92" x2="761.06" y2="-4006.96" gradientTransform="matrix(0.71, 0.71, 0.71, -0.71, 2327.77, -3273.69)" xlink:href="#_29"/><linearGradient id="_92-27" x1="754.01" y1="-4024.6" x2="758.77" y2="-4012.59" gradientTransform="matrix(0.71, 0.71, 0.71, -0.71, 2327.77, -3273.69)" xlink:href="#_92"/><linearGradient id="_27-43" x1="760.64" y1="-4008.27" x2="751.33" y2="-4026.91" gradientTransform="matrix(0.71, 0.71, 0.71, -0.71, 2327.77, -3273.69)" xlink:href="#_27"/><linearGradient id="_28-33" x1="753.95" y1="-4096.89" x2="760.36" y2="-4078.39" gradientTransform="matrix(0.71, 0.7, 0.7, -0.71, 2339.16, -3341.47)" xlink:href="#_28"/><linearGradient id="_27-44" x1="82.47" y1="93.2" x2="82.47" y2="143.06" xlink:href="#_27"/><linearGradient id="_27-45" x1="82.57" y1="91.96" x2="82.57" y2="149.07" xlink:href="#_27"/><linearGradient id="_28-34" x1="82.44" y1="26.5" x2="82.44" y2="50.5" xlink:href="#_28"/><linearGradient id="_29-9" x1="81.75" y1="32.17" x2="81.75" y2="135.36" xlink:href="#_29"/><linearGradient id="_28-35" x1="81.75" y1="139.48" x2="81.75" y2="112.92" xlink:href="#_28"/><linearGradient id="linear-gradient-4" x1="81.75" y1="127.95" x2="81.75" y2="107.29" xlink:href="#linear-gradient"/><linearGradient id="_27-46" x1="81.36" y1="67.53" x2="81.36" y2="35.62" xlink:href="#_27"/><radialGradient id="_21-4" cx="90.6" cy="31.72" r="16.27" gradientTransform="matrix(0.16, 0.97, -0.68, 0.23, 98.58, -67.35)" xlink:href="#_21"/><radialGradient id="_26" cx="-784.55" cy="-1191.7" r="7.44" gradientTransform="matrix(1.28, 0.34, -0.22, 0.85, 803.15, 1406.69)" gradientUnits="userSpaceOnUse"><stop offset="0" stop-color="#e75a29"/><stop offset="0.18" stop-color="#ad431f"/><stop offset="0.4" stop-color="#702c14"/><stop offset="0.59" stop-color="#40190b"/><stop offset="0.77" stop-color="#1d0b05"/><stop offset="0.91" stop-color="#080301"/><stop offset="1"/></radialGradient><linearGradient id="_27-47" x1="143.24" y1="91.29" x2="143.24" y2="62.09" xlink:href="#_27"/><linearGradient id="_28-36" x1="143.23" y1="83.73" x2="143.23" y2="112.33" xlink:href="#_28"/><linearGradient id="_28-37" x1="20.15" y1="83.74" x2="20.15" y2="112.04" xlink:href="#_28"/><linearGradient id="_27-48" x1="20.15" y1="91.29" x2="20.15" y2="62.09" xlink:href="#_27"/><linearGradient id="_18" x1="65.5" y1="158.11" x2="65.5" y2="137.85" gradientUnits="userSpaceOnUse"><stop offset="0" stop-color="#d16509"/><stop offset="1" stop-color="#8d2c1b"/></linearGradient><linearGradient id="_18-2" x1="98" y1="158.11" x2="98" y2="137.85" xlink:href="#_18"/><linearGradient id="_27-49" x1="53.42" y1="81.02" x2="110.26" y2="81.02" xlink:href="#_27"/><linearGradient id="linear-gradient-5" x1="80.86" y1="108.77" x2="80.86" y2="51.93" gradientUnits="userSpaceOnUse"><stop offset="0" stop-color="#ca6b34"/><stop offset="0.13" stop-color="#cc6e34"/><stop offset="0.22" stop-color="#d27733"/><stop offset="0.3" stop-color="#db8631"/><stop offset="0.37" stop-color="#e99b2f"/><stop offset="0.43" stop-color="#fbb72c"/><stop offset="0.44" stop-color="#ffbd2b"/><stop offset="1" stop-color="#ffa933"/></linearGradient></defs><title>Asset 31</title><g class="cls-1"><g id="Layer_2" data-name="Layer 2"><g id="frame"><path class="cls-2" d="M81.75,0S62.15,9.55,47.34,38.24h68.82C101.35,9.55,81.75,0,81.75,0Z"/><path class="cls-3" d="M81.75,5.26s-18.92,14.51-27,33h53.94C100.67,19.77,81.75,5.26,81.75,5.26Z"/><path class="cls-4" d="M56.57,38.24S67.34,17.86,81.59,7a110.62,110.62,0,0,1,25.28,31.15Z"/><path class="cls-5" d="M56.08,38.14S67.14,13.78,81.75,5.26c0,0,19.27,14.55,25.12,32.88,0,0-13.44-19.34-24.43-25.35,0,0-13.28,7.42-25,25.45Z"/><path class="cls-6" d="M96.11,10.86C84.85,1.56,81,1.09,81,1.09c-2.13,1.07-7.47,4.44-7.86,4.73A51.89,51.89,0,0,1,81.75,0S88,3.05,96.11,10.86Z"/><path class="cls-7" d="M88.13,4c-3,2,4.86,8.84,8,6.82,0,0-1.93-1.93-4.72-4.18S88.13,4,88.13,4Z"/><ellipse class="cls-8" cx="84.45" cy="24.14" rx="15.13" ry="18.24"/><path class="cls-9" d="M0,81.47s9.55,19.6,38.24,34.41V47.06C9.55,61.87,0,81.47,0,81.47Z"/><path class="cls-10" d="M5.26,81.47s14.51,18.92,33,27V54.5C19.77,62.55,5.26,81.47,5.26,81.47Z"/><path class="cls-11" d="M38.24,106.65S17.86,95.88,7,81.63A110.81,110.81,0,0,1,38.14,56.35Z"/><path class="cls-12" d="M38.14,107.14S13.78,96.08,5.26,81.47c0,0,14.55-19.27,32.88-25.12,0,0-19.34,13.44-25.35,24.43,0,0,7.42,13.28,25.45,25Z"/><path class="cls-13" d="M10.86,67.11C1.56,78.37,1.09,82.24,1.09,82.24c1.07,2.13,4.44,7.47,4.73,7.86A51.89,51.89,0,0,1,0,81.47S3.05,75.22,10.86,67.11Z"/><path class="cls-14" d="M4,75.09c2,3,8.84-4.86,6.82-8,0,0-1.93,1.93-4.18,4.72S4,75.09,4,75.09Z"/><ellipse class="cls-15" cx="24.14" cy="78.77" rx="18.24" ry="15.13"/><path class="cls-16" d="M163.61,81.47s-9.55,19.6-38.24,34.41V47.06C154.06,61.87,163.61,81.47,163.61,81.47Z"/><path class="cls-17" d="M158.35,81.47s-14.51,18.92-33,27V54.5C143.84,62.55,158.35,81.47,158.35,81.47Z"/><path class="cls-18" d="M125.37,106.65s20.38-10.77,31.25-25a110.81,110.81,0,0,0-31.15-25.28Z"/><path class="cls-19" d="M125.47,107.14s24.36-11.06,32.88-25.67c0,0-14.55-19.27-32.88-25.12,0,0,19.34,13.44,25.35,24.43,0,0-7.42,13.28-25.45,25Z"/><path class="cls-20" d="M152.75,67.11c9.3,11.26,9.77,15.13,9.77,15.13-1.07,2.13-4.44,7.47-4.73,7.86a51.89,51.89,0,0,0,5.82-8.63S160.56,75.22,152.75,67.11Z"/><path class="cls-21" d="M159.57,75.09c-2,3-8.84-4.86-6.82-8,0,0,1.93,1.93,4.18,4.72S159.57,75.09,159.57,75.09Z"/><ellipse class="cls-22" cx="139.47" cy="78.77" rx="18.24" ry="15.13"/><path class="cls-23" d="M81.75,162s-19.6-9.55-34.41-38.24h68.82C101.35,152.47,81.75,162,81.75,162Z"/><path class="cls-24" d="M81.75,156.76s-17.54-13.09-27-33h53.94C100.67,142.25,81.75,156.76,81.75,156.76Z"/><path class="cls-25" d="M56.57,123.78s10.77,20.38,25,31.25a110.62,110.62,0,0,0,25.28-31.15Z"/><path class="cls-26" d="M56.08,123.88s2.54,13.68,25.67,32.88c0,0,19.27-14.55,25.12-32.88,0,0-13.44,7.17-24.43,13.18,0,0-9.32-1.31-25-13.28Z"/><path class="cls-27" d="M36.2,25.06c0,.14,0,.3,0,.46a.11.11,0,0,0,0,.05A6.62,6.62,0,0,0,36.56,27v0c1.08,3.19,4.26,7.62,6.18,10.11l.06.09c.46.6.85,1.08,1.1,1.39h0l.33.41h3.1c3-4,5.68-11.21,5.71-14.08a2.69,2.69,0,0,0-.08-.75,21,21,0,0,0-1.34-2.84c-2.34-4.38-6.9-11.78-7.88-11.66-.62.07-3.91,5.55-5.94,10.18A16.47,16.47,0,0,0,36.2,25.06Z"/><path class="cls-28" d="M36.2,25.06c0,.14,0,.3,0,.46a.11.11,0,0,0,0,.05A6.62,6.62,0,0,0,36.56,27v0c1.08,3.19,4.26,7.62,6.18,10.11l.06.09c.46.6.85,1.08,1.1,1.39h0l.33.41h3.1c3-4,5.68-11.21,5.71-14.08a6.84,6.84,0,0,1-5.52,5.2,10,10,0,0,1-2.72.09h0l-.46-.05-.36,0a13.78,13.78,0,0,1-2.68-.7s-2.62-1.76-3.17-4.08c-.22-.95,0-3,.9-5.7a45.27,45.27,0,0,1,4.75-10c-.62.07-3.91,5.55-5.94,10.18A16.47,16.47,0,0,0,36.2,25.06Z"/><path class="cls-29" d="M46.41,24.51C47.82,30.07,45.1,39,45.1,39s.25-8.2-.92-12.4S46,22.78,46.41,24.51Z"/><path class="cls-30" d="M43.83,24.89c1.49,5,1.27,14.1,1.27,14.1Z"/><path class="cls-31" d="M51.25,20.62c-2,1.45-6.59-9.85-5.2-8.44C47.12,13.27,51.25,20.62,51.25,20.62Z"/><path class="cls-32" d="M36.22,25.52a.11.11,0,0,0,0,.05A5.31,5.31,0,0,0,36.56,27v0c1.08,3,4.38,7.72,6.18,10.11l.06.09c.58.77,1,1.28,1.1,1.39h0c1.14,1.15.13-.74-4-8.14C38.15,27.2,36.16,24.39,36.22,25.52Z"/><path class="cls-33" d="M42.74,37.09l.06.09c.58.77,1,1.28,1.1,1.39A59,59,0,0,0,44,30.1c-.6-4.92-1.35-9.24-2.41-9.85A4.62,4.62,0,0,0,39,19.62a3.9,3.9,0,0,0-1.19.22,16.47,16.47,0,0,0-1.61,5.22c0,.14,0,.3,0,.46a.11.11,0,0,0,0,.05A5.31,5.31,0,0,0,36.56,27v0C37.64,30.17,40.82,34.6,42.74,37.09Z"/><path class="cls-34" d="M28,52a4.79,4.79,0,0,0,.52,0h0a6.57,6.57,0,0,0,1.26-.28h0c3.16-1,7.62-4.15,10.15-6.06l.09-.07,1.45-1.12v0l.41-.32v-.86L42,41c-4-3-11.14-5.74-14-5.79a2.32,2.32,0,0,0-.74.07,21.28,21.28,0,0,0-2.85,1.32h0c-1,.51-2.06,1.12-3.2,1.77-4.06,2.33-8.55,5.24-8.47,6S24.3,51.94,28,52Z"/><path class="cls-35" d="M28,52a4.79,4.79,0,0,0,.52,0h0a6.57,6.57,0,0,0,1.26-.28h0c3.16-1,7.62-4.15,10.15-6.06l.09-.07,1.45-1.12v0l.41-.32v-.86L42,41c-4-3-11.14-5.74-14-5.79a6.8,6.8,0,0,1,5.15,5.54,9.52,9.52,0,0,1,.12,2.05c0,.23,0,.45,0,.66v0l-.06.46a13.57,13.57,0,0,1-.77,3s-1.76,2.6-4.09,3.13c-1.91.43-8.26-1.1-15.56-5.74C12.82,45.3,24.3,51.94,28,52Z"/><path class="cls-36" d="M26.25,42.84c5.45-4.9,15.71.43,15.71.43s-8.17-.31-12.37.83S25.6,43.42,26.25,42.84Z"/><path class="cls-37" d="M27.9,44.43C32.86,43,42,43.27,42,43.27Z"/><path class="cls-38" d="M15.25,42.14c1,.87,5.44-.8,7.92-2.61,1.26-.92,2-1.88,1.52-2.56l-.3-.33h0l-3.2,1.77Z"/><path class="cls-39" d="M33.41,48.35c7.4-4,9.28-5,8.13-3.9-.47.47-9.63,7.4-13.07,7.57C27.35,52.08,30.16,50.11,33.41,48.35Z"/><path class="cls-40" d="M21.19,38.41l.16.06a7.79,7.79,0,0,1,1.82,1.06,15.65,15.65,0,0,1,3.08,3.31s1.7-1.09,5.67-1c5.27.11,6.89,1,9.42,1.42h0l.24,0h0l.35.07v-.1L42,41c-4-3-11.14-5.74-14-5.79a2.32,2.32,0,0,0-.74.07,21.28,21.28,0,0,0-2.85,1.32h0C23.43,37.15,22.33,37.76,21.19,38.41Z"/><path class="cls-41" d="M24.48,36.73c3.17,3.45,17.37,5.06,17.37,5.06l2.52-2.41c-.68-5.57-4.11-13.53-6.31-15.89a2.93,2.93,0,0,0-.65-.54c-2.1-1.22-17.86-5.73-18.79-4.62C18,19.11,21.63,33.64,24.48,36.73Z"/><path class="cls-42" d="M24.48,36.73c3.17,3.45,17.37,5.06,17.37,5.06l2.52-2.41c-.68-5.57-4.11-13.53-6.31-15.89C42.42,32.17,32,36.31,32,36.31s-2.23.65-5.43-1.53c-1.83-1.26-5.93-6.88-7.92-16.45C18,19.11,21.63,33.64,24.48,36.73Z"/><path class="cls-43" d="M30.51,28.79c7.33,2,12,12.34,12,12.34s-6.18-6.86-10.4-9.37S29.55,28.53,30.51,28.79Z"/><path class="cls-44" d="M30.55,30.65c5.07,2.88,12,10.48,12,10.48Z"/><path class="cls-45" d="M34.36,21.77c-.51,2.74-14.1-3.56-11.91-3.18C26.72,19.34,34.36,21.77,34.36,21.77Z"/><path class="cls-46" d="M127.41,25.06c0,.14,0,.3,0,.46a.07.07,0,0,0,0,.05,7.31,7.31,0,0,1-.33,1.39v0c-1.07,3.19-4.26,7.62-6.17,10.11l-.06.09c-.47.6-.85,1.08-1.11,1.39h0l-.33.41h-3.1c-3-4-5.68-11.21-5.71-14.08a2.73,2.73,0,0,1,.07-.75A21.45,21.45,0,0,1,112,21.32c2.33-4.38,6.9-11.78,7.88-11.66.61.07,3.91,5.55,5.94,10.18A17,17,0,0,1,127.41,25.06Z"/><path class="cls-47" d="M127.41,25.06c0,.14,0,.3,0,.46a.07.07,0,0,0,0,.05,7.31,7.31,0,0,1-.33,1.39v0c-1.07,3.19-4.26,7.62-6.17,10.11l-.06.09c-.47.6-.85,1.08-1.11,1.39h0l-.33.41h-3.1c-3-4-5.68-11.21-5.71-14.08a6.84,6.84,0,0,0,5.52,5.2,10,10,0,0,0,2.72.09h0l.46-.05.36,0a13.78,13.78,0,0,0,2.68-.7s2.62-1.76,3.17-4.08c.22-.95,0-3-.9-5.7a45.27,45.27,0,0,0-4.75-10c.61.07,3.91,5.55,5.94,10.18A17,17,0,0,1,127.41,25.06Z"/><path class="cls-48" d="M117.2,24.51C115.79,30.07,118.51,39,118.51,39s-.25-8.2.92-12.4S117.63,22.78,117.2,24.51Z"/><path class="cls-49" d="M119.77,24.89c-1.48,5-1.26,14.1-1.26,14.1Z"/><path class="cls-50" d="M112.36,20.62c2,1.45,6.59-9.85,5.2-8.44C116.49,13.27,112.36,20.62,112.36,20.62Z"/><path class="cls-51" d="M127.39,25.52a.07.07,0,0,0,0,.05,5.74,5.74,0,0,1-.33,1.39v0c-1.07,3-4.37,7.72-6.17,10.11l-.06.09c-.58.77-1,1.28-1.11,1.39h0c-1.14,1.15-.13-.74,4-8.14C125.46,27.2,127.45,24.39,127.39,25.52Z"/><path class="cls-52" d="M120.87,37.09l-.06.09c-.58.77-1,1.28-1.11,1.39a59.56,59.56,0,0,1,0-8.47c.6-4.92,1.35-9.24,2.41-9.85a4.62,4.62,0,0,1,2.54-.63,3.9,3.9,0,0,1,1.19.22,17,17,0,0,1,1.61,5.22c0,.14,0,.3,0,.46a.07.07,0,0,0,0,.05,5.74,5.74,0,0,1-.33,1.39v0C126,30.17,122.78,34.6,120.87,37.09Z"/><path class="cls-53" d="M135.59,52a4.7,4.7,0,0,1-.52,0h0a6.57,6.57,0,0,1-1.26-.28h0c-3.16-1-7.62-4.15-10.15-6.06l-.09-.07c-.63-.47-1.13-.87-1.45-1.12v0c-.27-.2-.41-.32-.41-.32v-.86l0-2.23c4-3,11.14-5.74,14-5.79a2.39,2.39,0,0,1,.75.07,21.34,21.34,0,0,1,2.84,1.32h0c1,.51,2.06,1.12,3.2,1.77,4.06,2.33,8.55,5.24,8.47,6S139.31,51.94,135.59,52Z"/><path class="cls-54" d="M135.59,52a4.7,4.7,0,0,1-.52,0h0a6.57,6.57,0,0,1-1.26-.28h0c-3.16-1-7.62-4.15-10.15-6.06l-.09-.07c-.63-.47-1.13-.87-1.45-1.12v0c-.27-.2-.41-.32-.41-.32v-.86l0-2.23c4-3,11.14-5.74,14-5.79a6.8,6.8,0,0,0-5.14,5.54,9.52,9.52,0,0,0-.12,2.05c0,.23,0,.45,0,.66v0c0,.15,0,.31.05.46a13.57,13.57,0,0,0,.77,3s1.77,2.6,4.09,3.13c1.92.43,8.26-1.1,15.57-5.74C150.79,45.3,139.31,51.94,135.59,52Z"/><path class="cls-55" d="M137.36,42.84c-5.46-4.9-15.71.43-15.71.43s8.17-.31,12.36.83S138,43.42,137.36,42.84Z"/><path class="cls-56" d="M135.71,44.43c-5-1.44-14.06-1.16-14.06-1.16Z"/><path class="cls-57" d="M148.36,42.14c-1,.87-5.44-.8-7.92-2.61-1.26-.92-2-1.88-1.52-2.56l.29-.33h0l3.2,1.77Z"/><path class="cls-58" d="M130.2,48.35c-7.4-4-9.29-5-8.13-3.9.47.47,9.63,7.4,13.07,7.57C136.26,52.08,133.44,50.11,130.2,48.35Z"/><path class="cls-59" d="M142.42,38.41l-.16.06a7.59,7.59,0,0,0-1.82,1.06,15.65,15.65,0,0,0-3.08,3.31s-1.7-1.09-5.67-1c-5.28.11-6.9,1-9.42,1.42h0l-.24,0h0l-.34.07v-.1l0-2.23c4-3,11.14-5.74,14-5.79a2.39,2.39,0,0,1,.75.07,21.34,21.34,0,0,1,2.84,1.32h0C140.18,37.15,141.28,37.76,142.42,38.41Z"/><path class="cls-60" d="M139.13,36.73c-3.17,3.45-17.37,5.06-17.37,5.06l-2.52-2.41c.68-5.57,4.11-13.53,6.31-15.89a2.93,2.93,0,0,1,.65-.54c2.1-1.22,17.86-5.73,18.78-4.62C145.63,19.11,142,33.64,139.13,36.73Z"/><path class="cls-61" d="M139.13,36.73c-3.17,3.45-17.37,5.06-17.37,5.06l-2.52-2.41c.68-5.57,4.11-13.53,6.31-15.89-4.36,8.68,6.09,12.82,6.09,12.82s2.22.65,5.42-1.53C138.9,33.52,143,27.9,145,18.33,145.63,19.11,142,33.64,139.13,36.73Z"/><path class="cls-62" d="M133.1,28.79c-7.33,2-12,12.34-12,12.34s6.18-6.86,10.4-9.37S134.06,28.53,133.1,28.79Z"/><path class="cls-63" d="M133.06,30.65c-5.07,2.88-12,10.48-12,10.48Z"/><path class="cls-64" d="M129.24,21.77c.52,2.74,14.11-3.56,11.91-3.18C136.89,19.34,129.24,21.77,129.24,21.77Z"/><path class="cls-65" d="M36.2,136.83c0-.15,0-.3,0-.46a.13.13,0,0,1,0-.06,6.92,6.92,0,0,1,.33-1.39h0c1.08-3.19,4.26-7.62,6.18-10.11l.06-.09c.46-.6.85-1.08,1.1-1.4h0l.33-.41h3.1c3,4,5.68,11.21,5.71,14.08a2.57,2.57,0,0,1-.08.74,20.91,20.91,0,0,1-1.34,2.85c-2.34,4.37-6.9,11.77-7.88,11.66-.62-.07-3.91-5.55-5.94-10.18A16.55,16.55,0,0,1,36.2,136.83Z"/><path class="cls-66" d="M36.2,136.83c0-.15,0-.3,0-.46a.13.13,0,0,1,0-.06,6.92,6.92,0,0,1,.33-1.39h0c1.08-3.19,4.26-7.62,6.18-10.11l.06-.09c.46-.6.85-1.08,1.1-1.4h0l.33-.41h3.1c3,4,5.68,11.21,5.71,14.08a6.81,6.81,0,0,0-5.52-5.2,10.06,10.06,0,0,0-2.72-.1h0l-.46.05-.36,0a13.78,13.78,0,0,0-2.68.7s-2.62,1.75-3.17,4.08c-.22,1,0,3,.9,5.7a45.27,45.27,0,0,0,4.75,10c-.62-.07-3.91-5.55-5.94-10.18A16.55,16.55,0,0,1,36.2,136.83Z"/><path class="cls-67" d="M46.41,137.38c1.41-5.57-1.31-14.48-1.31-14.48s.25,8.2-.92,12.4S46,139.1,46.41,137.38Z"/><path class="cls-68" d="M43.83,137c1.49-5,1.27-14.1,1.27-14.1Z"/><path class="cls-69" d="M51.25,141.27c-2-1.45-6.59,9.85-5.2,8.44C47.12,148.62,51.25,141.27,51.25,141.27Z"/><path class="cls-70" d="M36.22,136.37a.13.13,0,0,1,0-.06,5.4,5.4,0,0,1,.33-1.39h0c1.08-3,4.38-7.72,6.18-10.11l.06-.09c.58-.77,1-1.28,1.1-1.4h0c1.14-1.15.13.74-4,8.13C38.15,134.68,36.16,137.5,36.22,136.37Z"/><path class="cls-71" d="M42.74,124.8l.06-.09c.58-.77,1-1.28,1.1-1.4a59.17,59.17,0,0,1,.05,8.48c-.6,4.91-1.35,9.24-2.41,9.85a4.62,4.62,0,0,1-2.54.63,3.9,3.9,0,0,1-1.19-.22,16.55,16.55,0,0,1-1.61-5.22c0-.15,0-.3,0-.46a.13.13,0,0,1,0-.06,5.4,5.4,0,0,1,.33-1.39h0C37.64,131.72,40.82,127.29,42.74,124.8Z"/><path class="cls-72" d="M28,109.85a3.13,3.13,0,0,1,.52,0h0a6.64,6.64,0,0,1,1.26.29h0c3.16,1,7.62,4.16,10.15,6.07l.09.07,1.45,1.12h0l.41.33v.86l0,2.23c-4,3-11.14,5.74-14,5.79a3.09,3.09,0,0,1-.74-.07,20.46,20.46,0,0,1-2.85-1.33h0c-1-.5-2.06-1.11-3.2-1.77-4.06-2.32-8.55-5.23-8.47-6S24.3,109.94,28,109.85Z"/><path class="cls-73" d="M28,109.85a3.13,3.13,0,0,1,.52,0h0a6.64,6.64,0,0,1,1.26.29h0c3.16,1,7.62,4.16,10.15,6.07l.09.07,1.45,1.12h0l.41.33v.86l0,2.23c-4,3-11.14,5.74-14,5.79a6.82,6.82,0,0,0,5.15-5.54,9.65,9.65,0,0,0,.12-2.06c0-.22,0-.44,0-.65v0l-.06-.46a13.57,13.57,0,0,0-.77-3s-1.76-2.6-4.09-3.13c-1.91-.44-8.26,1.09-15.56,5.74C12.82,116.58,24.3,109.94,28,109.85Z"/><path class="cls-74" d="M26.25,119.05C31.7,124,42,118.62,42,118.62s-8.17.3-12.37-.83S25.6,118.46,26.25,119.05Z"/><path class="cls-75" d="M27.9,117.45c5,1.45,14.06,1.17,14.06,1.17Z"/><path class="cls-76" d="M15.25,119.75c1-.88,5.44.79,7.92,2.61,1.26.91,2,1.87,1.52,2.55l-.3.33h0l-3.2-1.77Z"/><path class="cls-77" d="M33.41,113.54c7.4,4,9.28,5,8.13,3.89-.47-.46-9.63-7.39-13.07-7.56C27.35,109.81,30.16,111.77,33.41,113.54Z"/><path class="cls-78" d="M21.19,123.47l.16-.06a7.74,7.74,0,0,0,1.82-1,15.92,15.92,0,0,0,3.08-3.31s1.7,1.08,5.67,1c5.27-.1,6.89-1,9.42-1.42h0l.24,0h0l.35-.07v.1l0,2.23c-4,3-11.14,5.74-14,5.79a3.09,3.09,0,0,1-.74-.07,20.46,20.46,0,0,1-2.85-1.33h0C23.43,124.74,22.33,124.13,21.19,123.47Z"/><path class="cls-79" d="M24.48,125.16c3.17-3.45,17.37-5.07,17.37-5.07l2.52,2.41c-.68,5.58-4.11,13.54-6.31,15.89a2.75,2.75,0,0,1-.65.55c-2.1,1.22-17.86,5.73-18.79,4.61C18,142.77,21.63,128.25,24.48,125.16Z"/><path class="cls-80" d="M24.48,125.16c3.17-3.45,17.37-5.07,17.37-5.07l2.52,2.41c-.68,5.58-4.11,13.54-6.31,15.89,4.36-8.67-6.09-12.81-6.09-12.81s-2.23-.65-5.43,1.53c-1.83,1.25-5.93,6.87-7.92,16.44C18,142.77,21.63,128.25,24.48,125.16Z"/><path class="cls-81" d="M30.51,133.1c7.33-2,12-12.34,12-12.34s-6.18,6.86-10.4,9.37S29.55,133.36,30.51,133.1Z"/><path class="cls-82" d="M30.55,131.24c5.07-2.89,12-10.48,12-10.48Z"/><path class="cls-83" d="M34.36,140.12c-.51-2.75-14.1,3.55-11.91,3.17A123.1,123.1,0,0,0,34.36,140.12Z"/><path class="cls-84" d="M127.41,136.83c0-.15,0-.3,0-.46a.13.13,0,0,1,0-.06,7.68,7.68,0,0,0-.33-1.39h0c-1.07-3.19-4.26-7.62-6.17-10.11l-.06-.09-1.11-1.4h0l-.33-.41h-3.1c-3,4-5.68,11.21-5.71,14.08a2.61,2.61,0,0,0,.07.74,21.38,21.38,0,0,0,1.35,2.85c2.33,4.37,6.9,11.77,7.88,11.66.61-.07,3.91-5.55,5.94-10.18A17.1,17.1,0,0,0,127.41,136.83Z"/><path class="cls-85" d="M127.41,136.83c0-.15,0-.3,0-.46a.13.13,0,0,1,0-.06,7.68,7.68,0,0,0-.33-1.39h0c-1.07-3.19-4.26-7.62-6.17-10.11l-.06-.09-1.11-1.4h0l-.33-.41h-3.1c-3,4-5.68,11.21-5.71,14.08a6.81,6.81,0,0,1,5.52-5.2,10,10,0,0,1,2.72-.1h0l.46.05.36,0a13.78,13.78,0,0,1,2.68.7s2.62,1.75,3.17,4.08c.22,1,0,3-.9,5.7a45.27,45.27,0,0,1-4.75,10c.61-.07,3.91-5.55,5.94-10.18A17.1,17.1,0,0,0,127.41,136.83Z"/><path class="cls-86" d="M117.2,137.38c-1.41-5.57,1.31-14.48,1.31-14.48s-.25,8.2.92,12.4S117.63,139.1,117.2,137.38Z"/><path class="cls-87" d="M119.77,137c-1.48-5-1.26-14.1-1.26-14.1Z"/><path class="cls-88" d="M112.36,141.27c2-1.45,6.59,9.85,5.2,8.44C116.49,148.62,112.36,141.27,112.36,141.27Z"/><path class="cls-89" d="M127.39,136.37a.13.13,0,0,1,0-.06,5.85,5.85,0,0,0-.33-1.39h0c-1.07-3-4.37-7.72-6.17-10.11l-.06-.09c-.58-.77-1-1.28-1.11-1.4h0c-1.14-1.15-.13.74,4,8.13C125.46,134.68,127.45,137.5,127.39,136.37Z"/><path class="cls-90" d="M120.87,124.8l-.06-.09c-.58-.77-1-1.28-1.11-1.4a59.72,59.72,0,0,0,0,8.48c.6,4.91,1.35,9.24,2.41,9.85a4.62,4.62,0,0,0,2.54.63,3.9,3.9,0,0,0,1.19-.22,17.1,17.1,0,0,0,1.61-5.22c0-.15,0-.3,0-.46a.13.13,0,0,1,0-.06,5.85,5.85,0,0,0-.33-1.39h0C126,131.72,122.78,127.29,120.87,124.8Z"/><path class="cls-91" d="M135.59,109.85a3.09,3.09,0,0,0-.52,0h0a6.64,6.64,0,0,0-1.26.29h0c-3.16,1-7.62,4.16-10.15,6.07l-.09.07c-.63.47-1.13.86-1.45,1.12h0l-.41.33v.86l0,2.23c4,3,11.14,5.74,14,5.79a3.18,3.18,0,0,0,.75-.07,20.52,20.52,0,0,0,2.84-1.33h0c1-.5,2.06-1.11,3.2-1.77,4.06-2.32,8.55-5.23,8.47-6S139.31,109.94,135.59,109.85Z"/><path class="cls-92" d="M135.59,109.85a3.09,3.09,0,0,0-.52,0h0a6.64,6.64,0,0,0-1.26.29h0c-3.16,1-7.62,4.16-10.15,6.07l-.09.07c-.63.47-1.13.86-1.45,1.12h0l-.41.33v.86l0,2.23c4,3,11.14,5.74,14,5.79a6.82,6.82,0,0,1-5.14-5.54,9.65,9.65,0,0,1-.12-2.06c0-.22,0-.44,0-.65v0c0-.16,0-.31.05-.46a13.57,13.57,0,0,1,.77-3s1.77-2.6,4.09-3.13c1.92-.44,8.26,1.09,15.57,5.74C150.79,116.58,139.31,109.94,135.59,109.85Z"/><path class="cls-93" d="M137.36,119.05c-5.46,4.9-15.71-.43-15.71-.43s8.17.3,12.36-.83S138,118.46,137.36,119.05Z"/><path class="cls-94" d="M135.71,117.45c-5,1.45-14.06,1.17-14.06,1.17Z"/><path class="cls-95" d="M148.36,119.75c-1-.88-5.44.79-7.92,2.61-1.26.91-2,1.87-1.52,2.55l.29.33h0l3.2-1.77Z"/><path class="cls-96" d="M130.2,113.54c-7.4,4-9.29,5-8.13,3.89.47-.46,9.63-7.39,13.07-7.56C136.26,109.81,133.44,111.77,130.2,113.54Z"/><path class="cls-97" d="M142.42,123.47l-.16-.06a7.55,7.55,0,0,1-1.82-1,15.92,15.92,0,0,1-3.08-3.31s-1.7,1.08-5.67,1c-5.28-.1-6.9-1-9.42-1.42h0l-.24,0h0l-.34-.07v.1l0,2.23c4,3,11.14,5.74,14,5.79a3.18,3.18,0,0,0,.75-.07,20.52,20.52,0,0,0,2.84-1.33h0C140.18,124.74,141.28,124.13,142.42,123.47Z"/><path class="cls-98" d="M139.13,125.16c-3.17-3.45-17.37-5.07-17.37-5.07l-2.52,2.41c.68,5.58,4.11,13.54,6.31,15.89a2.75,2.75,0,0,0,.65.55c2.1,1.22,17.86,5.73,18.78,4.61C145.63,142.77,142,128.25,139.13,125.16Z"/><path class="cls-99" d="M139.13,125.16c-3.17-3.45-17.37-5.07-17.37-5.07l-2.52,2.41c.68,5.58,4.11,13.54,6.31,15.89-4.36-8.67,6.09-12.81,6.09-12.81s2.22-.65,5.42,1.53c1.84,1.25,5.94,6.87,7.92,16.44C145.63,142.77,142,128.25,139.13,125.16Z"/><path class="cls-100" d="M133.1,133.1c-7.33-2-12-12.34-12-12.34s6.18,6.86,10.4,9.37S134.06,133.36,133.1,133.1Z"/><path class="cls-101" d="M133.06,131.24c-5.07-2.89-12-10.48-12-10.48Z"/><path class="cls-102" d="M129.24,140.12c.52-2.75,14.11,3.55,11.91,3.17C136.89,142.55,129.24,140.12,129.24,140.12Z"/><path class="cls-103" d="M148.76,107.05c.58-1.39-7.52-16.47-10.87-22.6a52.92,52.92,0,0,0,0-6.76c3.35-6.12,10.91-21,10.87-22.6a22.55,22.55,0,0,0,0-2.85c-.57-1.36-17.74-6.21-24.58-8.09a55.59,55.59,0,0,0-6.34-6.22c-1.72-6.26-6.88-24.7-8.29-25.29-1.7-.72-23.8,11.52-25.1,12.24q-1.35-.06-2.7-.06t-2.7.06c-1.3-.72-23.4-13-25.1-12.24-1.41.59-6.57,19-8.29,25.29a56.51,56.51,0,0,0-6.35,6.22c-6.83,1.88-24,6.73-24.57,8.09a22.55,22.55,0,0,0,0,2.85c0,2,7.52,16.48,10.87,22.6a35.84,35.84,0,0,0,0,6.76c-3.35,6.13-11.46,21.21-10.87,22.6,0,.13-.12,2.57,0,2.85.57,1.37,17.74,6.21,24.57,8.09a57.47,57.47,0,0,0,6.35,6.23c1.72,6.26,6.88,24.7,8.29,25.29,1.7.71,23.8-11.53,25.1-12.25.89,0,1.79.07,2.7.07s1.8,0,2.7-.07c1.3.72,23.4,13,25.1,12.25,1.41-.59,6.57-19,8.29-25.29a56.52,56.52,0,0,0,6.34-6.23c6.84-1.88,24-6.72,24.58-8.09C148.88,109.62,148.71,107.18,148.76,107.05Zm-24.61-26a42.4,42.4,0,1,1-42.4-42.38A42.41,42.41,0,0,1,124.15,81.07Z"/><path class="cls-104" d="M72,136.52l.6.11a36.93,36.93,0,0,1-5.19,3.09l0,0c-1,.49-2,.92-2.9,1.31l-.08,0a47.9,47.9,0,0,1-8.3,2.58h0a59.82,59.82,0,0,1-4.67-12.54s0,0,0-.05l0-.13c-.27-1.06-.48-2-.65-2.87l.44.29.74.47.62.38a56,56,0,0,0,18.85,7.2Z"/><path class="cls-105" d="M71.78,136.48c-3,2-8.75,5.23-15.18,6.18,0,0-2.69-4.21-4.66-13.83l.62.38a56,56,0,0,0,18.85,7.2Z"/><path class="cls-106" d="M72,136.52a24.21,24.21,0,0,1-4.59,3.2l0,0a31.46,31.46,0,0,1-2.9,1.31l-.08,0a65.93,65.93,0,0,1-8.3,2.58h0a55.1,55.1,0,0,1-4.67-12.54s0,0,0-.05l0-.13a11.44,11.44,0,0,1-.21-2.58l.74.47.62.38a33.59,33.59,0,0,0,5,9.26,27,27,0,0,0,13.81-2.06Z"/><path class="cls-107" d="M112.74,128.07c-.17.84-.38,1.81-.65,2.87l0,.13s0,0,0,.05a59.82,59.82,0,0,1-4.67,12.54h0a47.68,47.68,0,0,1-8.31-2.59l-.07,0c-1-.39-1.93-.83-2.93-1.33a37,37,0,0,1-5.19-3.1l.6-.1.63-.11a56,56,0,0,0,18.85-7.2l.62-.38.73-.47Z"/><path class="cls-108" d="M111.56,128.83c-2,9.62-4.66,13.83-4.66,13.83-6.43-.95-12.19-4.22-15.18-6.18h0l.38-.07a56,56,0,0,0,18.85-7.2Z"/><path class="cls-109" d="M112.09,130.94l0,.13s0,0,0,.05a55.66,55.66,0,0,1-4.67,12.54h0a65.54,65.54,0,0,1-8.31-2.59l-.07,0a31.46,31.46,0,0,1-2.9-1.31l0,0a24.68,24.68,0,0,1-4.59-3.2l.63-.11a27,27,0,0,0,13.8,2.06,33.63,33.63,0,0,0,5-9.26l.62-.38.73-.47A11.44,11.44,0,0,1,112.09,130.94Z"/><path class="cls-110" d="M72,25.68l.6-.1a38,38,0,0,0-5.19-3.1h0c-1-.49-2-.93-2.9-1.31l-.08,0a46.88,46.88,0,0,0-8.3-2.58h0a59.82,59.82,0,0,0-4.67,12.54s0,0,0,0l0,.14c-.27,1.06-.48,2-.65,2.87l.44-.29.74-.47.62-.38a56,56,0,0,1,18.85-7.2Z"/><path class="cls-111" d="M71.78,25.73A39.72,39.72,0,0,0,56.6,19.55s-2.69,4.21-4.66,13.83l.62-.38a56,56,0,0,1,18.85-7.2Z"/><path class="cls-112" d="M72,25.68a24.68,24.68,0,0,0-4.59-3.2h0a29,29,0,0,0-2.9-1.31l-.08,0a65.93,65.93,0,0,0-8.3-2.58h0a55.1,55.1,0,0,0-4.67,12.54s0,0,0,0l0,.14a11.44,11.44,0,0,0-.21,2.58l.74-.47.62-.38a33.59,33.59,0,0,1,5-9.26A27,27,0,0,1,71.41,25.8Z"/><path class="cls-113" d="M66.12,18C60.51,15.9,54.58,14,54.58,14c-1.82,2.8-5.74,12.86-5.92,13.33,2.05-7,4.41-14.35,5.29-14.72S60.4,15,66.12,18Z"/><path class="cls-114" d="M91.48,25.68l-.61-.1a38.09,38.09,0,0,1,5.2-3.1h0c1-.49,2-.93,2.89-1.31l.09,0a46.88,46.88,0,0,1,8.3-2.58h0a58.71,58.71,0,0,1,4.67,12.54s0,0,0,0l0,.14c.26,1.06.48,2,.65,2.87l-.45-.29-.74-.47L111,33a56,56,0,0,0-18.85-7.2Z"/><path class="cls-115" d="M91.73,25.73c3-2,8.76-5.23,15.19-6.18,0,0,2.69,4.21,4.65,13.83L111,33a56,56,0,0,0-18.85-7.2Z"/><path class="cls-116" d="M91.48,25.68a24.68,24.68,0,0,1,4.59-3.2h0A27.76,27.76,0,0,1,99,21.16l.09,0a64.91,64.91,0,0,1,8.3-2.58h0a54.56,54.56,0,0,1,4.67,12.54s0,0,0,0l0,.14a12.05,12.05,0,0,1,.2,2.58l-.74-.47L111,33a33.9,33.9,0,0,0-5-9.26,27,27,0,0,0-13.8,2.06Z"/><path class="cls-117" d="M97.39,18C103,15.9,108.94,14,108.94,14c1.82,2.8,5.73,12.86,5.92,13.33-2.06-7-4.41-14.35-5.3-14.72S103.12,15,97.4,18Z"/><path class="cls-118" d="M127.58,48.52l-.36-.49a37.32,37.32,0,0,1,5.87,1.47h0c1,.35,2,.73,3,1.12l.08,0a47.73,47.73,0,0,1,7.7,4h0a59.29,59.29,0,0,1-5.54,12.18l0,0a.75.75,0,0,1-.07.12c-.56.94-1.09,1.77-1.57,2.49,0-.17-.07-.35-.11-.52s-.12-.57-.19-.86-.11-.47-.16-.7a56,56,0,0,0-8.27-18.41Z"/><path class="cls-119" d="M127.73,48.74c3.5.72,9.89,2.48,15.12,6.34,0,0-1.08,4.88-6.48,13.08-.05-.23-.11-.47-.16-.7a56,56,0,0,0-8.27-18.41Z"/><path class="cls-120" d="M127.58,48.52a24.87,24.87,0,0,1,5.51,1h0a28,28,0,0,1,3,1.12l.08,0a65.5,65.5,0,0,1,7.7,4h0a54.5,54.5,0,0,1-5.54,12.18l0,0a.75.75,0,0,1-.07.12,11.79,11.79,0,0,1-1.68,2c-.06-.29-.12-.57-.19-.86s-.11-.47-.16-.7a33.7,33.7,0,0,0,3-10.12,27,27,0,0,0-11.23-8.29Z"/><path class="cls-121" d="M137,47.84c5,2.28,10.19,4.9,10.19,4.9-.62,3-4.55,12.23-4.73,12.66,3.17-6,6.39-12.36,6.05-13.18s-5.8-2.62-11.5-4.38Z"/><path class="cls-122" d="M127.58,113.57l-.36.5a37.32,37.32,0,0,0,5.87-1.47h0c1-.35,2-.73,3-1.12l.08,0a46.82,46.82,0,0,0,7.7-4h0v0a59.43,59.43,0,0,0-5.54-12.17l0,0a.75.75,0,0,0-.07-.12c-.56-.94-1.09-1.77-1.57-2.49,0,.17-.07.35-.11.52s-.12.57-.19.85-.11.47-.16.71a56,56,0,0,1-8.27,18.41Z"/><path class="cls-123" d="M127.73,113.36c3.5-.72,9.89-2.48,15.12-6.35,0,0-1.08-4.88-6.48-13.08-.05.24-.11.47-.16.71a56,56,0,0,1-8.27,18.41Z"/><path class="cls-124" d="M127.58,113.57a24.75,24.75,0,0,0,5.51-1h0c.89-.28,1.9-.66,3-1.12l.08,0a64,64,0,0,0,7.7-4h0v0a54.54,54.54,0,0,0-5.54-12.17l0,0a.75.75,0,0,0-.07-.12,11.41,11.41,0,0,0-1.68-2c-.06.28-.12.57-.19.85s-.11.47-.16.71a33.53,33.53,0,0,1,3,10.12,27,27,0,0,1-11.23,8.29Z"/><path class="cls-125" d="M137,114.25c5-2.28,10.19-4.89,10.19-4.89-.62-3-4.55-12.23-4.73-12.66,3.17,6,6.39,12.36,6.05,13.18s-5.8,2.62-11.5,4.37Z"/><path class="cls-126" d="M35.66,48.52,36,48a37.47,37.47,0,0,0-5.86,1.47h0c-1.05.35-2,.73-3,1.12l-.09,0a47.73,47.73,0,0,0-7.7,4h0A59.27,59.27,0,0,0,24.9,66.89s0,0,0,0l.08.12c.56.94,1.09,1.77,1.56,2.49,0-.17.08-.35.11-.52s.13-.57.19-.86.11-.47.17-.7a56,56,0,0,1,8.26-18.41Z"/><path class="cls-127" d="M35.51,48.74a39.94,39.94,0,0,0-15.12,6.34S21.46,60,26.86,68.16c.06-.23.11-.47.17-.7a56,56,0,0,1,8.26-18.41Z"/><path class="cls-128" d="M35.66,48.52a24.87,24.87,0,0,0-5.51,1h0a28,28,0,0,0-3,1.12l-.09,0a67.11,67.11,0,0,0-7.7,4h0A54.83,54.83,0,0,0,24.9,66.89s0,0,0,0l.08.12a11.72,11.72,0,0,0,1.67,2c.06-.29.13-.57.19-.86s.11-.47.17-.7a33.7,33.7,0,0,1-3-10.12,27,27,0,0,1,11.22-8.29Z"/><path class="cls-129" d="M26.22,47.84c-5,2.28-10.19,4.9-10.19,4.9.61,3,4.58,12.6,4.77,13-3.06-5.66-6.32-13.23-6.09-13.55.49-.67,5.8-2.62,11.5-4.38Z"/><path class="cls-130" d="M35.66,113.57c.12.17.23.34.35.5a37.47,37.47,0,0,1-5.86-1.47h0c-1.05-.35-2-.73-3-1.12l-.09,0a46.82,46.82,0,0,1-7.7-4h0v0A59.41,59.41,0,0,1,24.9,95.21l0,0,.08-.12c.56-.94,1.09-1.77,1.56-2.49,0,.17.08.35.11.52s.13.57.19.85.11.47.17.71a56,56,0,0,0,8.26,18.41Z"/><path class="cls-131" d="M35.51,113.36c-3.51-.72-9.89-2.48-15.12-6.35,0,0,1.07-4.88,6.47-13.08.06.24.11.47.17.71a56,56,0,0,0,8.26,18.41Z"/><path class="cls-132" d="M35.66,113.57a24.75,24.75,0,0,1-5.51-1h0c-.89-.28-1.9-.66-3-1.12l-.09,0a65.56,65.56,0,0,1-7.7-4h0v0A54.87,54.87,0,0,1,24.9,95.21l0,0,.08-.12a11.34,11.34,0,0,1,1.67-2c.06.28.13.57.19.85s.11.47.17.71a33.53,33.53,0,0,0-3,10.12,27,27,0,0,0,11.22,8.29Z"/><path class="cls-133" d="M26.22,114.25C21.17,112,16,109.36,16,109.36c.61-3,4.55-12.23,4.73-12.66-3.18,6-6.39,12.36-6.05,13.18s5.8,2.62,11.5,4.37Z"/><path class="cls-134" d="M134.05,101.77A56.26,56.26,0,0,1,30.9,105.11C51.63,124.21,93.77,142.05,134.05,101.77Z"/><path class="cls-135" d="M130.72,116.16c-2.54.73-4.85,1.37-6.54,1.83a56.52,56.52,0,0,1-6.34,6.23c-.49,1.79-1.27,4.58-2.15,7.66a69.74,69.74,0,0,1-21.82,10.48c-4.76-2.52-8.88-4.8-9.42-5.1-.9,0-1.8.07-2.7.07s-1.81,0-2.7-.07c-.55.31-4.78,2.65-9.63,5.21a62.76,62.76,0,0,1-21.48-10.15c-.94-3.26-1.76-6.23-2.28-8.1A56.52,56.52,0,0,1,39.32,118c-1.41-.38-3.26-.9-5.31-1.48a28.52,28.52,0,0,1-3.11-11.4c14.93,24.69,65,54.09,103.15-3.34C134.77,106.49,133.46,111.41,130.72,116.16Z"/><path class="cls-136" d="M81.75,24.82a56.27,56.27,0,0,0-53.89,40.1C37.06,44.57,58,34.78,81.75,34.78c25.94,0,47.53,12.48,55.27,35.82A56.26,56.26,0,0,0,81.75,24.82Z"/><path class="cls-137" d="M81.75,34.78A46.28,46.28,0,1,0,128,81.06,46.28,46.28,0,0,0,81.75,34.78Zm0,88.68a42.4,42.4,0,1,1,42.4-42.4A42.4,42.4,0,0,1,81.75,123.46Z"/><path class="cls-138" d="M44.5,108.53s12.4,14.93,37.25,14.93S119,108.53,119,108.53,106.9,128,81.75,128,44.5,108.53,44.5,108.53Z"/><path class="cls-139" d="M44.5,108.53a46.29,46.29,0,0,0,74.5,0S106.9,128,81.75,128,44.5,108.53,44.5,108.53Z"/><path class="cls-140" d="M126.3,68.47c-1.09-.62-2.77-1.64-5.22-3.29h0a42.42,42.42,0,0,0-79.2,1.44,41.73,41.73,0,0,1-5.45,5,46.3,46.3,0,0,1,89.88-3.2Z"/><path class="cls-141" d="M81.75,30.2c-1.84,2.38,12.84,6.26,14.6,4.58s.1-4.16-3.21-4.58S83.2,28.34,81.75,30.2Z"/><path class="cls-141" d="M78.47,127.9c-1.06-2,10.51-4,12.13-2.53s-1.27,2-1.27,2Z"/><ellipse class="cls-142" cx="91.45" cy="28.1" rx="11.33" ry="16.27" transform="translate(43.25 110.74) rotate(-76.83)"/><path class="cls-143" d="M71.61,134.71c-.92,3.48-5.94,5.17-11.22,3.77s-8.81-5.34-7.89-8.82,5.94-5.17,11.21-3.77S72.52,131.23,71.61,134.71Z"/><path class="cls-144" d="M148.76,55.1c0,1.55-7.52,16.47-10.87,22.59L137.66,74s9.52-14.8,10.86-21.82l.29.59h0C148.83,53.62,148.76,55,148.76,55.1Z"/><path class="cls-145" d="M148.76,109.9a.49.49,0,0,1-.17.2,1.87,1.87,0,0,0-.07-.22c-2.28-8.33-10.86-21.8-10.86-21.8l.23-3.63c3.35,6.13,11.45,21.21,10.87,22.6C148.71,107.18,148.88,109.62,148.76,109.9Z"/><path class="cls-146" d="M25.61,84.45v4.2a103.16,103.16,0,0,0-10.89,21.2c-.08-.47.07-2.67,0-2.8C14.15,105.66,22.26,90.58,25.61,84.45Z"/><path class="cls-147" d="M25.61,73.27v4.42C22.26,71.57,14.7,57.12,14.74,55.1a24,24,0,0,1,0-2.83C19.58,65.82,25.61,73.27,25.61,73.27Z"/><path class="cls-148" d="M76.55,137.06l2.5.2c-1.3.72-23.4,13-25.1,12.25-.41-.17-1.14-1.85-2-4.3.09.2,1.64,3.38,2.47,3.38S76.55,137.06,76.55,137.06Z"/><path class="cls-149" d="M111.55,145.22c-.87,2.44-1.59,4.12-2,4.29-1.7.71-23.8-11.53-25.1-12.25l3.13-.26s14.9,9.34,21,11.2C110.08,148.68,111.43,145.5,111.55,145.22Z"/><path class="cls-150" d="M109.65,94.12a24.33,24.33,0,0,0-2.73-.21,13.53,13.53,0,0,1-9.16-6.74,13.14,13.14,0,0,1-1-9.91c1.31-4.36,3-6,6.36-7.78a11.85,11.85,0,0,1,4.22-1.42,14.57,14.57,0,0,0,2.3-.22.88.88,0,0,0,.63-.52c0-.08,0-.26-.05-.31-.56-.52-3.28-.56-4.18-.79a13.13,13.13,0,0,1-9.77-11.68c0-.47.11-1.46-.21-1.79a1.78,1.78,0,0,0-.82-.11.49.49,0,0,0-.31.41c-.19.88,0,1.87-.2,2.77a13.31,13.31,0,0,1-5.66,8.59,13,13,0,0,1-9.67,2A13.11,13.11,0,0,1,68.76,53.86c0-.4,0-1-.3-1.22a5.19,5.19,0,0,0-.88,0c-.18,1.11-.16,2.24-.36,3.35A13.24,13.24,0,0,1,62,64.16C59.43,66,57,66.44,54,66.66a.68.68,0,0,0-.56.27,1.47,1.47,0,0,0,.12.8c.65.33,2.86.34,3.76.52a13.22,13.22,0,0,1,9.46,8.62,13,13,0,0,1-.71,10,13.24,13.24,0,0,1-7.55,6.56c-1.79.58-2.88.36-4.47.7a.9.9,0,0,0-.58.29.86.86,0,0,0,.06.63c.8.74,2.76.37,3.81.64a13.39,13.39,0,0,1,10.14,12.22,3.67,3.67,0,0,0,.13,1.41,1,1,0,0,0,.69.13,1,1,0,0,0,.45-.78c.12-.76,0-1.54.16-2.3a13.39,13.39,0,0,1,5.23-8.45A13.15,13.15,0,0,1,84,95.56a13,13,0,0,1,8.39,5.22,13.36,13.36,0,0,1,2.52,7.65c0,.33,0,.82.4.9a3.67,3.67,0,0,0,.74,0c.42-.73.19-2.25.35-3.14a13.19,13.19,0,0,1,9.4-10.37,13.94,13.94,0,0,1,2.81-.44,11.14,11.14,0,0,0,1.16,0,.48.48,0,0,0,.36-.24.85.85,0,0,0,0-.5C110,94.36,110,94.22,109.65,94.12ZM91.83,89.35A13,13,0,0,1,83.12,94a13,13,0,0,1-11.5-21.13A13.28,13.28,0,0,1,80.72,68,13,13,0,0,1,91.83,89.35Z"/><path class="cls-151" d="M108.67,93.46a26.92,26.92,0,0,0-2.73-.22,13.55,13.55,0,0,1-9.16-6.73,13,13,0,0,1,5.36-17.7,12.2,12.2,0,0,1,4.21-1.42,13.48,13.48,0,0,0,2.3-.22.88.88,0,0,0,.63-.52c0-.08,0-.25,0-.31-.56-.52-3.28-.56-4.18-.79a13.14,13.14,0,0,1-9.77-11.67c0-.47.11-1.47-.21-1.8a1.78,1.78,0,0,0-.82-.11c-.21.14-.25.16-.31.41-.19.89,0,1.87-.2,2.77a13.31,13.31,0,0,1-5.66,8.59,13,13,0,0,1-9.67,2A13.13,13.13,0,0,1,67.78,53.19c0-.4,0-.94-.3-1.22a4.32,4.32,0,0,0-.88,0c-.18,1.11-.16,2.23-.36,3.35A13.19,13.19,0,0,1,61,63.49c-2.54,1.84-4.93,2.28-8,2.51a.64.64,0,0,0-.56.26,1.46,1.46,0,0,0,.12.8c.65.33,2.86.35,3.76.53a13.2,13.2,0,0,1,9.46,8.62,13,13,0,0,1-.71,10,13.24,13.24,0,0,1-7.55,6.56c-1.79.58-2.88.37-4.47.7a.94.94,0,0,0-.58.3.89.89,0,0,0,.06.62c.8.74,2.76.37,3.81.64a13.41,13.41,0,0,1,10.14,12.23,3.71,3.71,0,0,0,.13,1.41,1.1,1.1,0,0,0,.69.12,1,1,0,0,0,.45-.78c.12-.76,0-1.54.16-2.3a13.36,13.36,0,0,1,5.23-8.44,13,13,0,0,1,18.25,2.87,13.29,13.29,0,0,1,2.52,7.65c0,.34,0,.82.4.91a3.66,3.66,0,0,0,.74,0c.42-.72.19-2.25.35-3.13a13,13,0,0,1,12.21-10.81,11.13,11.13,0,0,0,1.16,0,.47.47,0,0,0,.36-.23,1,1,0,0,0,.06-.51C109.05,93.7,109,93.56,108.67,93.46ZM90.85,88.69A13,13,0,0,1,72.78,90.6a13.28,13.28,0,0,1-4.92-8.78,13.14,13.14,0,0,1,2.78-9.62,13.3,13.3,0,0,1,9.1-4.9A13.05,13.05,0,0,1,90.85,88.69Z"/><path class="cls-141" d="M83.08,65.7c-.55.72,3.9,1.9,4.43,1.39s0-1.26-1-1.39S83.52,65.14,83.08,65.7Z"/></g></g></g></svg>