<svg xmlns="http://www.w3.org/2000/svg" xmlns:xlink="http://www.w3.org/1999/xlink" viewBox="0 0 138.17 142.57"><defs><style>.cls-1{isolation:isolate;}.cls-2{fill:url(#_92);}.cls-10,.cls-100,.cls-103,.cls-104,.cls-107,.cls-108,.cls-109,.cls-110,.cls-111,.cls-113,.cls-115,.cls-119,.cls-12,.cls-120,.cls-121,.cls-122,.cls-125,.cls-13,.cls-14,.cls-15,.cls-17,.cls-19,.cls-20,.cls-22,.cls-24,.cls-25,.cls-26,.cls-27,.cls-29,.cls-3,.cls-31,.cls-32,.cls-33,.cls-34,.cls-36,.cls-38,.cls-39,.cls-41,.cls-43,.cls-44,.cls-45,.cls-46,.cls-48,.cls-5,.cls-50,.cls-51,.cls-52,.cls-53,.cls-55,.cls-57,.cls-58,.cls-6,.cls-60,.cls-62,.cls-63,.cls-64,.cls-65,.cls-67,.cls-69,.cls-7,.cls-70,.cls-71,.cls-72,.cls-74,.cls-76,.cls-77,.cls-8,.cls-81,.cls-84,.cls-87,.cls-88,.cls-91,.cls-92,.cls-95,.cls-96,.cls-99{opacity:0.5;}.cls-10,.cls-103,.cls-107,.cls-109,.cls-110,.cls-115,.cls-119,.cls-122,.cls-14,.cls-15,.cls-17,.cls-22,.cls-26,.cls-27,.cls-29,.cls-3,.cls-33,.cls-34,.cls-36,.cls-41,.cls-45,.cls-46,.cls-48,.cls-52,.cls-53,.cls-55,.cls-60,.cls-64,.cls-65,.cls-67,.cls-7,.cls-71,.cls-72,.cls-74,.cls-8,.cls-81,.cls-84,.cls-87,.cls-91,.cls-95,.cls-99{mix-blend-mode:multiply;}.cls-3{fill:url(#_27);}.cls-4{fill:url(#_79);}.cls-100,.cls-104,.cls-108,.cls-111,.cls-113,.cls-117,.cls-118,.cls-12,.cls-120,.cls-121,.cls-13,.cls-19,.cls-20,.cls-24,.cls-25,.cls-31,.cls-32,.cls-38,.cls-39,.cls-43,.cls-44,.cls-5,.cls-50,.cls-51,.cls-57,.cls-58,.cls-6,.cls-62,.cls-63,.cls-69,.cls-70,.cls-76,.cls-77,.cls-88,.cls-92,.cls-96{mix-blend-mode:color-dodge;}.cls-5{fill:url(#_28);}.cls-6{fill:url(#_28-2);}.cls-7{fill:url(#_27-2);}.cls-8{fill:url(#_27-3);}.cls-9{fill:url(#_92-2);}.cls-10{fill:url(#_27-4);}.cls-11{fill:url(#_79-2);}.cls-12{fill:url(#_28-3);}.cls-13{fill:url(#_28-4);}.cls-14{fill:url(#_27-5);}.cls-15{fill:url(#_27-6);}.cls-16{fill:url(#_92-3);}.cls-17{fill:url(#_27-7);}.cls-18{fill:url(#_79-3);}.cls-19{fill:url(#_28-5);}.cls-20{fill:url(#_28-6);}.cls-21{fill:url(#_92-4);}.cls-22{fill:url(#_27-8);}.cls-23{fill:url(#_79-4);}.cls-24{fill:url(#_28-7);}.cls-25{fill:url(#_28-8);}.cls-26{fill:url(#_27-9);}.cls-27{fill:url(#_27-10);}.cls-28{fill:url(#_92-5);}.cls-29{fill:url(#_27-11);}.cls-30{fill:url(#_79-5);}.cls-31{fill:url(#_28-9);}.cls-32{fill:url(#_28-10);}.cls-33{fill:url(#_27-12);}.cls-34{fill:url(#_27-13);}.cls-35{fill:url(#_92-6);}.cls-36{fill:url(#_27-14);}.cls-37{fill:url(#_79-6);}.cls-38{fill:url(#_28-11);}.cls-39{fill:url(#_28-12);}.cls-40{fill:url(#_92-7);}.cls-41{fill:url(#_27-15);}.cls-42{fill:url(#_79-7);}.cls-43{fill:url(#_28-13);}.cls-44{fill:url(#_28-14);}.cls-45{fill:url(#_27-16);}.cls-46{fill:url(#_27-17);}.cls-47{fill:url(#_92-8);}.cls-48{fill:url(#_27-18);}.cls-49{fill:url(#_79-8);}.cls-50{fill:url(#_28-15);}.cls-51{fill:url(#_28-16);}.cls-52{fill:url(#_27-19);}.cls-53{fill:url(#_27-20);}.cls-54{fill:url(#_92-9);}.cls-55{fill:url(#_27-21);}.cls-56{fill:url(#_79-9);}.cls-57{fill:url(#_28-17);}.cls-58{fill:url(#_28-18);}.cls-59{fill:url(#_92-10);}.cls-60{fill:url(#_27-22);}.cls-61{fill:url(#_79-10);}.cls-62{fill:url(#_28-19);}.cls-63{fill:url(#_28-20);}.cls-64{fill:url(#_27-23);}.cls-65{fill:url(#_27-24);}.cls-66{fill:url(#_92-11);}.cls-67{fill:url(#_27-25);}.cls-68{fill:url(#_79-11);}.cls-69{fill:url(#_28-21);}.cls-70{fill:url(#_28-22);}.cls-71{fill:url(#_27-26);}.cls-72{fill:url(#_27-27);}.cls-73{fill:url(#_92-12);}.cls-74{fill:url(#_27-28);}.cls-75{fill:url(#_79-12);}.cls-76{fill:url(#_28-23);}.cls-77{fill:url(#_28-24);}.cls-78{fill:url(#_92-13);}.cls-79{fill:url(#_29);}.cls-80{fill:url(#_19);}.cls-81{fill:url(#_27-29);}.cls-82{fill:url(#_29-2);}.cls-83{fill:url(#_19-2);}.cls-84{fill:url(#_27-30);}.cls-85{fill:url(#_29-3);}.cls-86{fill:url(#_92-14);}.cls-87{fill:url(#_27-31);}.cls-88{fill:url(#_28-25);}.cls-89{fill:url(#_29-4);}.cls-90{fill:url(#_92-15);}.cls-91{fill:url(#_27-32);}.cls-92{fill:url(#_28-26);}.cls-93{fill:url(#_29-5);}.cls-94{fill:url(#_92-16);}.cls-95{fill:url(#_27-33);}.cls-96{fill:url(#_28-27);}.cls-97{fill:url(#_29-6);}.cls-98{fill:url(#_92-17);}.cls-99{fill:url(#_27-34);}.cls-100{fill:url(#_28-28);}.cls-101{fill:url(#_29-7);}.cls-102{fill:url(#_92-18);}.cls-103{fill:url(#_27-35);}.cls-104{fill:url(#_28-29);}.cls-105{fill:url(#_29-8);}.cls-106{fill:url(#_92-19);}.cls-107{fill:url(#_27-36);}.cls-108{fill:url(#_28-30);}.cls-109{fill:url(#_27-37);}.cls-110{fill:url(#_27-38);}.cls-111{fill:url(#_28-31);}.cls-112{fill:url(#_29-9);}.cls-113{fill:url(#_28-32);}.cls-114{fill:url(#linear-gradient);}.cls-115{fill:url(#_27-39);}.cls-116{fill:#fff;}.cls-117,.cls-118{opacity:0.6;}.cls-117{fill:url(#_21);}.cls-118{fill:url(#_26);}.cls-119{fill:url(#_27-40);}.cls-120{fill:url(#_28-33);}.cls-121{fill:url(#_28-34);}.cls-122{fill:url(#_27-41);}.cls-123{fill:url(#_18);}.cls-124{fill:url(#_18-2);}.cls-125{fill:url(#_27-42);}.cls-126{fill:url(#linear-gradient-2);}</style><linearGradient id="_92" x1="23.48" y1="14.67" x2="40.33" y2="14.67" gradientUnits="userSpaceOnUse"><stop offset="0" stop-color="#ca6b34"/><stop offset="0.67" stop-color="#ffa933"/><stop offset="1" stop-color="#ffbd2b"/></linearGradient><linearGradient id="_27" x1="-8597.21" y1="-1316.36" x2="-8584.89" y2="-1292.35" gradientTransform="matrix(-0.96, -0.29, -0.29, 0.96, -8560.13, -1270.8)" gradientUnits="userSpaceOnUse"><stop offset="0" stop-color="#fff"/><stop offset="0.44" stop-color="#ed8a1d"/><stop offset="1" stop-color="#b41e2d"/></linearGradient><linearGradient id="_79" x1="-8590.17" y1="-1303.86" x2="-8593.87" y2="-1290.19" gradientTransform="matrix(-0.96, -0.29, -0.29, 0.96, -8560.13, -1270.8)" gradientUnits="userSpaceOnUse"><stop offset="0" stop-color="#f27a13"/><stop offset="1" stop-color="#b41e2d"/></linearGradient><linearGradient id="_28" x1="-9762.01" y1="-3958.4" x2="-9771.95" y2="-3950.58" gradientTransform="matrix(-0.67, -0.74, -0.74, 0.67, -9467.51, -4537.52)" gradientUnits="userSpaceOnUse"><stop offset="0" stop-color="#ebbd38"/><stop offset="1"/></linearGradient><linearGradient id="_28-2" x1="-9762.5" y1="-3967.98" x2="-9752.52" y2="-3967.98" xlink:href="#_28"/><linearGradient id="_27-2" x1="-8593.6" y1="-1294.19" x2="-8581.87" y2="-1294.19" xlink:href="#_27"/><linearGradient id="_27-3" x1="-8593.94" y1="-1305.89" x2="-8586.06" y2="-1295.26" xlink:href="#_27"/><linearGradient id="_92-2" x1="0" y1="33.99" x2="29.26" y2="33.99" xlink:href="#_92"/><linearGradient id="_27-4" x1="-5760.87" y1="886.9" x2="-5750.92" y2="906.28" gradientTransform="matrix(-0.95, 0.3, 0.3, 0.95, -5741.88, 920.96)" xlink:href="#_27"/><linearGradient id="_79-2" x1="-3520.77" y1="751.35" x2="-3532.05" y2="760.21" gradientTransform="matrix(-0.74, 0.67, 0.67, 0.74, -3107.25, 1825.83)" xlink:href="#_79"/><linearGradient id="_28-3" x1="-3521.27" y1="753.53" x2="-3531.18" y2="761.32" gradientTransform="matrix(-0.74, 0.67, 0.67, 0.74, -3107.25, 1825.83)" xlink:href="#_28"/><linearGradient id="_28-4" x1="-5754.39" y1="892.44" x2="-5743.79" y2="892.44" gradientTransform="matrix(-0.95, 0.3, 0.3, 0.95, -5741.88, 920.96)" xlink:href="#_28"/><linearGradient id="_27-5" x1="-3530.57" y1="760.24" x2="-3515.15" y2="760.24" gradientTransform="matrix(-0.74, 0.67, 0.67, 0.74, -3107.25, 1825.83)" xlink:href="#_27"/><linearGradient id="_27-6" x1="-5758.54" y1="899.37" x2="-5760.39" y2="895.75" gradientTransform="matrix(-0.95, 0.3, 0.3, 0.95, -5741.88, 920.96)" xlink:href="#_27"/><linearGradient id="_92-3" x1="25.79" y1="34.33" x2="14.92" y2="13.21" xlink:href="#_92"/><linearGradient id="_27-7" x1="-1529.05" y1="153.08" x2="-1526.44" y2="171.32" gradientTransform="matrix(1, -0.06, 0.06, 1, 1536.1, -222.67)" xlink:href="#_27"/><linearGradient id="_79-3" x1="-7654.02" y1="-224.45" x2="-7666.56" y2="-214.6" gradientTransform="matrix(-1, -0.07, -0.07, 1, -7632.41, -281.91)" xlink:href="#_79"/><linearGradient id="_28-5" x1="-7654.77" y1="-222.62" x2="-7665.96" y2="-213.83" gradientTransform="matrix(-1, -0.07, -0.07, 1, -7632.41, -281.91)" xlink:href="#_28"/><linearGradient id="_28-6" x1="-7656.45" y1="-233.31" x2="-7644.11" y2="-233.31" gradientTransform="matrix(-1, -0.07, -0.07, 1, -7632.41, -281.91)" xlink:href="#_28"/><linearGradient id="_92-4" x1="97.84" y1="14.67" x2="114.69" y2="14.67" xlink:href="#_92"/><linearGradient id="_27-8" x1="944.55" y1="1625.25" x2="956.87" y2="1649.26" gradientTransform="translate(-1286.41 -1270.8) rotate(-17.13)" xlink:href="#_27"/><linearGradient id="_79-4" x1="951.59" y1="1637.75" x2="947.89" y2="1651.42" gradientTransform="translate(-1286.41 -1270.8) rotate(-17.13)" xlink:href="#_79"/><linearGradient id="_28-7" x1="-3040.7" y1="3424.86" x2="-3050.64" y2="3432.67" gradientTransform="translate(-379.02 -4537.52) rotate(-47.69)" xlink:href="#_28"/><linearGradient id="_28-8" x1="-3041.19" y1="3415.28" x2="-3031.21" y2="3415.28" gradientTransform="translate(-379.02 -4537.52) rotate(-47.69)" xlink:href="#_28"/><linearGradient id="_27-9" x1="948.16" y1="1647.42" x2="959.89" y2="1647.42" gradientTransform="translate(-1286.41 -1270.8) rotate(-17.13)" xlink:href="#_27"/><linearGradient id="_27-10" x1="947.82" y1="1635.72" x2="955.7" y2="1646.35" gradientTransform="translate(-1286.41 -1270.8) rotate(-17.13)" xlink:href="#_27"/><linearGradient id="_92-5" x1="108.91" y1="33.99" x2="138.17" y2="33.99" xlink:href="#_92"/><linearGradient id="_27-11" x1="3754.96" y1="-2137.6" x2="3764.91" y2="-2118.22" gradientTransform="matrix(0.95, 0.3, -0.3, 0.95, -4104.65, 920.96)" xlink:href="#_27"/><linearGradient id="_79-5" x1="3909.42" y1="-5918.05" x2="3898.14" y2="-5909.19" gradientTransform="translate(-6739.28 1825.83) rotate(41.91)" xlink:href="#_79"/><linearGradient id="_28-9" x1="3908.92" y1="-5915.86" x2="3899.01" y2="-5908.08" gradientTransform="translate(-6739.28 1825.83) rotate(41.91)" xlink:href="#_28"/><linearGradient id="_28-10" x1="3761.44" y1="-2132.06" x2="3772.04" y2="-2132.06" gradientTransform="matrix(0.95, 0.3, -0.3, 0.95, -4104.65, 920.96)" xlink:href="#_28"/><linearGradient id="_27-12" x1="3899.61" y1="-5909.16" x2="3915.04" y2="-5909.16" gradientTransform="translate(-6739.28 1825.83) rotate(41.91)" xlink:href="#_27"/><linearGradient id="_27-13" x1="3757.29" y1="-2125.13" x2="3755.44" y2="-2128.75" gradientTransform="matrix(0.95, 0.3, -0.3, 0.95, -4104.65, 920.96)" xlink:href="#_27"/><linearGradient id="_92-6" x1="121" y1="41.44" x2="119.45" y2="19.69" xlink:href="#_92"/><linearGradient id="_27-14" x1="-11497.84" y1="-402.02" x2="-11495.24" y2="-383.78" gradientTransform="matrix(-1, -0.06, -0.06, 1, -11382.63, -222.67)" xlink:href="#_27"/><linearGradient id="_79-6" x1="2307.46" y1="461.55" x2="2294.92" y2="471.4" gradientTransform="translate(-2214.13 -281.91) rotate(-3.94)" xlink:href="#_79"/><linearGradient id="_28-11" x1="2306.71" y1="463.38" x2="2295.52" y2="472.17" gradientTransform="translate(-2214.13 -281.91) rotate(-3.94)" xlink:href="#_28"/><linearGradient id="_28-12" x1="2305.03" y1="452.69" x2="2317.37" y2="452.69" gradientTransform="translate(-2214.13 -281.91) rotate(-3.94)" xlink:href="#_28"/><linearGradient id="_92-7" x1="23.48" y1="127.91" x2="40.33" y2="127.91" xlink:href="#_92"/><linearGradient id="_27-15" x1="-5743.93" y1="-10571.62" x2="-5731.6" y2="-10547.61" gradientTransform="translate(-8560.13 -8271.53) rotate(162.87)" xlink:href="#_27"/><linearGradient id="_79-7" x1="-5736.88" y1="-10559.12" x2="-5740.58" y2="-10545.45" gradientTransform="translate(-8560.13 -8271.53) rotate(162.87)" xlink:href="#_79"/><linearGradient id="_28-13" x1="-2600.44" y1="-10477.89" x2="-2610.38" y2="-10470.08" gradientTransform="translate(-9467.51 -5004.81) rotate(132.31)" xlink:href="#_28"/><linearGradient id="_28-14" x1="-2600.93" y1="-10487.48" x2="-2590.95" y2="-10487.48" gradientTransform="translate(-9467.51 -5004.81) rotate(132.31)" xlink:href="#_28"/><linearGradient id="_27-16" x1="-5740.31" y1="-10549.45" x2="-5728.58" y2="-10549.45" gradientTransform="translate(-8560.13 -8271.53) rotate(162.87)" xlink:href="#_27"/><linearGradient id="_27-17" x1="-5740.66" y1="-10561.15" x2="-5732.77" y2="-10550.52" gradientTransform="translate(-8560.13 -8271.53) rotate(162.87)" xlink:href="#_27"/><linearGradient id="_92-8" x1="0" y1="108.59" x2="29.26" y2="108.59" xlink:href="#_92"/><linearGradient id="_27-18" x1="-8694.55" y1="-8343.21" x2="-8684.61" y2="-8323.83" gradientTransform="matrix(-0.95, -0.3, 0.3, -0.95, -5741.88, -10463.29)" xlink:href="#_27"/><linearGradient id="_79-8" x1="-9989.92" y1="-6455.74" x2="-10001.19" y2="-6446.88" gradientTransform="translate(-3107.25 -11368.16) rotate(-138.09)" xlink:href="#_79"/><linearGradient id="_28-15" x1="-9990.42" y1="-6453.56" x2="-10000.32" y2="-6445.77" gradientTransform="translate(-3107.25 -11368.16) rotate(-138.09)" xlink:href="#_28"/><linearGradient id="_28-16" x1="-8688.07" y1="-8337.67" x2="-8677.47" y2="-8337.67" gradientTransform="matrix(-0.95, -0.3, 0.3, -0.95, -5741.88, -10463.29)" xlink:href="#_28"/><linearGradient id="_27-19" x1="-9999.72" y1="-6446.85" x2="-9984.29" y2="-6446.85" gradientTransform="translate(-3107.25 -11368.16) rotate(-138.09)" xlink:href="#_27"/><linearGradient id="_27-20" x1="-8692.22" y1="-8330.74" x2="-8694.07" y2="-8334.36" gradientTransform="matrix(-0.95, -0.3, 0.3, -0.95, -5741.88, -10463.29)" xlink:href="#_27"/><linearGradient id="_92-9" x1="26.28" y1="127.65" x2="10.13" y2="117.56" xlink:href="#_92"/><linearGradient id="_27-21" x1="-990.62" y1="-9516.39" x2="-988.01" y2="-9498.15" gradientTransform="matrix(1, 0.06, 0.06, -1, 1536.1, -9319.66)" xlink:href="#_27"/><linearGradient id="_79-9" x1="-6988.62" y1="-9886.83" x2="-7001.16" y2="-9876.98" gradientTransform="translate(-7632.41 -9260.42) rotate(176.06)" xlink:href="#_79"/><linearGradient id="_28-17" x1="-6989.37" y1="-9885.01" x2="-7000.56" y2="-9876.21" gradientTransform="translate(-7632.41 -9260.42) rotate(176.06)" xlink:href="#_28"/><linearGradient id="_28-18" x1="-6991.05" y1="-9895.69" x2="-6978.71" y2="-9895.69" gradientTransform="translate(-7632.41 -9260.42) rotate(176.06)" xlink:href="#_28"/><linearGradient id="_92-10" x1="97.84" y1="127.91" x2="114.69" y2="127.91" xlink:href="#_92"/><linearGradient id="_27-22" x1="3797.83" y1="-7630.01" x2="3810.16" y2="-7606" gradientTransform="matrix(0.96, 0.29, 0.29, -0.96, -1286.41, -8271.53)" xlink:href="#_27"/><linearGradient id="_79-10" x1="3804.88" y1="-7617.51" x2="3801.18" y2="-7603.84" gradientTransform="matrix(0.96, 0.29, 0.29, -0.96, -1286.41, -8271.53)" xlink:href="#_79"/><linearGradient id="_28-19" x1="4120.87" y1="-3094.64" x2="4110.93" y2="-3086.82" gradientTransform="matrix(0.67, 0.74, 0.74, -0.67, -379.02, -5004.81)" xlink:href="#_28"/><linearGradient id="_28-20" x1="4120.38" y1="-3104.22" x2="4130.36" y2="-3104.22" gradientTransform="matrix(0.67, 0.74, 0.74, -0.67, -379.02, -5004.81)" xlink:href="#_28"/><linearGradient id="_27-23" x1="3801.45" y1="-7607.84" x2="3813.18" y2="-7607.84" gradientTransform="matrix(0.96, 0.29, 0.29, -0.96, -1286.41, -8271.53)" xlink:href="#_27"/><linearGradient id="_27-24" x1="3801.1" y1="-7619.54" x2="3808.99" y2="-7608.91" gradientTransform="matrix(0.96, 0.29, 0.29, -0.96, -1286.41, -8271.53)" xlink:href="#_27"/><linearGradient id="_92-11" x1="108.91" y1="108.59" x2="138.17" y2="108.59" xlink:href="#_92"/><linearGradient id="_27-25" x1="821.28" y1="-11367.71" x2="831.22" y2="-11348.33" gradientTransform="matrix(0.95, -0.3, -0.3, -0.95, -4104.65, -10463.29)" xlink:href="#_27"/><linearGradient id="_79-11" x1="-2559.73" y1="-13125.14" x2="-2571" y2="-13116.28" gradientTransform="matrix(0.74, -0.67, -0.67, -0.74, -6739.28, -11368.16)" xlink:href="#_79"/><linearGradient id="_28-21" x1="-2560.23" y1="-13122.95" x2="-2570.13" y2="-13115.17" gradientTransform="matrix(0.74, -0.67, -0.67, -0.74, -6739.28, -11368.16)" xlink:href="#_28"/><linearGradient id="_28-22" x1="827.75" y1="-11362.16" x2="838.36" y2="-11362.16" gradientTransform="matrix(0.95, -0.3, -0.3, -0.95, -4104.65, -10463.29)" xlink:href="#_28"/><linearGradient id="_27-26" x1="-2569.53" y1="-13116.25" x2="-2554.1" y2="-13116.25" gradientTransform="matrix(0.74, -0.67, -0.67, -0.74, -6739.28, -11368.16)" xlink:href="#_27"/><linearGradient id="_27-27" x1="823.6" y1="-11355.23" x2="821.76" y2="-11358.85" gradientTransform="matrix(0.95, -0.3, -0.3, -0.95, -4104.65, -10463.29)" xlink:href="#_27"/><linearGradient id="_92-12" x1="114.92" y1="130.84" x2="125.33" y2="113.45" xlink:href="#_92"/><linearGradient id="_27-28" x1="-10959.41" y1="-10071.49" x2="-10956.81" y2="-10053.25" gradientTransform="matrix(-1, 0.06, -0.06, -1, -11382.63, -9319.66)" xlink:href="#_27"/><linearGradient id="_79-12" x1="2972.86" y1="-9200.83" x2="2960.33" y2="-9190.98" gradientTransform="matrix(1, 0.07, 0.07, -1, -2214.13, -9260.42)" xlink:href="#_79"/><linearGradient id="_28-23" x1="2972.12" y1="-9199.01" x2="2960.93" y2="-9190.21" gradientTransform="matrix(1, 0.07, 0.07, -1, -2214.13, -9260.42)" xlink:href="#_28"/><linearGradient id="_28-24" x1="2970.43" y1="-9209.69" x2="2982.77" y2="-9209.69" gradientTransform="matrix(1, 0.07, 0.07, -1, -2214.13, -9260.42)" xlink:href="#_28"/><linearGradient id="_92-13" x1="69.03" y1="142.11" x2="69.03" y2="9.85" xlink:href="#_92"/><linearGradient id="_29" x1="51" y1="118.12" x2="43.76" y2="134.48" gradientUnits="userSpaceOnUse"><stop offset="0" stop-color="#ca6b34"/><stop offset="0.17" stop-color="#cc6e34"/><stop offset="0.29" stop-color="#d27733"/><stop offset="0.39" stop-color="#db8631"/><stop offset="0.48" stop-color="#e99b2f"/><stop offset="0.57" stop-color="#fbb72c"/><stop offset="0.59" stop-color="#ffbd2b"/><stop offset="1" stop-color="#ffa933"/></linearGradient><linearGradient id="_19" x1="49.14" y1="133.08" x2="49.14" y2="111.42" gradientUnits="userSpaceOnUse"><stop offset="0" stop-color="#ca6b34"/><stop offset="0.74" stop-color="#ffbd2b"/><stop offset="1" stop-color="#ffa933"/></linearGradient><linearGradient id="_27-29" x1="43.59" y1="134.1" x2="50.41" y2="119.58" gradientTransform="matrix(1, 0, 0, 1, 0, 0)" xlink:href="#_27"/><linearGradient id="_29-2" x1="86.81" y1="117.27" x2="95.13" y2="137.1" xlink:href="#_29"/><linearGradient id="_19-2" x1="88.92" y1="133.08" x2="88.92" y2="111.42" xlink:href="#_19"/><linearGradient id="_27-30" x1="92.79" y1="133.69" x2="87.51" y2="117.85" gradientTransform="matrix(1, 0, 0, 1, 0, 0)" xlink:href="#_27"/><linearGradient id="_29-3" x1="46.23" y1="14.16" x2="51.67" y2="26.11" xlink:href="#_29"/><linearGradient id="_92-14" x1="44.61" y1="8.48" x2="49.38" y2="20.49" xlink:href="#_92"/><linearGradient id="_27-31" x1="51.25" y1="24.8" x2="41.93" y2="6.17" gradientTransform="matrix(1, 0, 0, 1, 0, 0)" xlink:href="#_27"/><linearGradient id="_28-25" x1="39.27" y1="-2.58" x2="46.19" y2="17.37" gradientTransform="matrix(1, 0, 0, 1, 0, 0)" xlink:href="#_28"/><linearGradient id="_29-4" x1="-11779.7" y1="14.16" x2="-11774.26" y2="26.11" gradientTransform="matrix(-1, 0, 0, 1, -11687.85, 0)" xlink:href="#_29"/><linearGradient id="_92-15" x1="-11781.31" y1="8.48" x2="-11776.55" y2="20.49" gradientTransform="matrix(-1, 0, 0, 1, -11687.85, 0)" xlink:href="#_92"/><linearGradient id="_27-32" x1="-11774.68" y1="24.8" x2="-11784" y2="6.17" gradientTransform="matrix(-1, 0, 0, 1, -11687.85, 0)" xlink:href="#_27"/><linearGradient id="_28-26" x1="-11786.66" y1="-2.58" x2="-11779.74" y2="17.37" gradientTransform="matrix(-1, 0, 0, 1, -11687.85, 0)" xlink:href="#_28"/><linearGradient id="_29-5" x1="-13455.55" y1="-5209.28" x2="-13450.12" y2="-5197.32" gradientTransform="matrix(-0.71, -0.71, -0.71, 0.71, -13080.7, -5765.49)" xlink:href="#_29"/><linearGradient id="_92-16" x1="-13457.17" y1="-5214.96" x2="-13452.41" y2="-5202.95" gradientTransform="matrix(-0.71, -0.71, -0.71, 0.71, -13080.7, -5765.49)" xlink:href="#_92"/><linearGradient id="_27-33" x1="-13450.54" y1="-5198.63" x2="-13459.85" y2="-5217.27" gradientTransform="matrix(-0.71, -0.71, -0.71, 0.71, -13080.7, -5765.49)" xlink:href="#_27"/><linearGradient id="_28-27" x1="-13466.17" y1="-5163" x2="-13459.76" y2="-5144.5" gradientTransform="matrix(-0.71, -0.7, -0.7, 0.71, -13090.92, -5698.75)" xlink:href="#_28"/><linearGradient id="_29-6" x1="-6869.96" y1="-11813.52" x2="-6864.53" y2="-11801.57" gradientTransform="matrix(-0.71, 0.71, -0.71, -0.71, -13080.7, -3418.28)" xlink:href="#_29"/><linearGradient id="_92-17" x1="-6871.58" y1="-11819.2" x2="-6866.82" y2="-11807.19" gradientTransform="matrix(-0.71, 0.71, -0.71, -0.71, -13080.7, -3418.28)" xlink:href="#_92"/><linearGradient id="_27-34" x1="-6864.95" y1="-11802.88" x2="-6874.26" y2="-11821.51" gradientTransform="matrix(-0.71, 0.71, -0.71, -0.71, -13080.7, -3418.28)" xlink:href="#_27"/><linearGradient id="_28-28" x1="-6938.12" y1="-11823.48" x2="-6931.71" y2="-11804.98" gradientTransform="matrix(-0.71, 0.7, -0.7, -0.71, -13090.92, -3485.01)" xlink:href="#_28"/><linearGradient id="_29-7" x1="-5786.02" y1="2438.59" x2="-5780.58" y2="2450.55" gradientTransform="matrix(0.71, -0.71, 0.71, 0.71, 2387.54, -5765.49)" xlink:href="#_29"/><linearGradient id="_92-18" x1="-5787.64" y1="2432.91" x2="-5782.87" y2="2444.92" gradientTransform="matrix(0.71, -0.71, 0.71, 0.71, 2387.54, -5765.49)" xlink:href="#_92"/><linearGradient id="_27-35" x1="-5781" y1="2449.24" x2="-5790.32" y2="2430.6" gradientTransform="matrix(0.71, -0.71, 0.71, 0.71, 2387.54, -5765.49)" xlink:href="#_27"/><linearGradient id="_28-29" x1="-5731.33" y1="2418.06" x2="-5724.92" y2="2436.55" gradientTransform="matrix(0.71, -0.7, 0.7, 0.71, 2397.76, -5698.75)" xlink:href="#_28"/><linearGradient id="_29-8" x1="799.57" y1="-4165.65" x2="805.01" y2="-4153.69" gradientTransform="matrix(0.71, 0.71, 0.71, -0.71, 2387.54, -3418.28)" xlink:href="#_29"/><linearGradient id="_92-19" x1="797.96" y1="-4171.33" x2="802.72" y2="-4159.32" gradientTransform="matrix(0.71, 0.71, 0.71, -0.71, 2387.54, -3418.28)" xlink:href="#_92"/><linearGradient id="_27-36" x1="804.59" y1="-4155.01" x2="795.27" y2="-4173.64" gradientTransform="matrix(0.71, 0.71, 0.71, -0.71, 2387.54, -3418.28)" xlink:href="#_27"/><linearGradient id="_28-30" x1="796.72" y1="-4242.42" x2="803.13" y2="-4223.93" gradientTransform="matrix(0.71, 0.7, 0.7, -0.71, 2397.76, -3485.01)" xlink:href="#_28"/><linearGradient id="_27-37" x1="69.76" y1="83.55" x2="69.76" y2="133.4" gradientTransform="matrix(1, 0, 0, 1, 0, 0)" xlink:href="#_27"/><linearGradient id="_27-38" x1="69.85" y1="82.3" x2="69.85" y2="139.41" gradientTransform="matrix(1, 0, 0, 1, 0, 0)" xlink:href="#_27"/><linearGradient id="_28-31" x1="69.72" y1="16.85" x2="69.72" y2="40.85" gradientTransform="matrix(1, 0, 0, 1, 0, 0)" xlink:href="#_28"/><linearGradient id="_29-9" x1="69.03" y1="22.51" x2="69.03" y2="125.7" xlink:href="#_29"/><linearGradient id="_28-32" x1="69.03" y1="129.82" x2="69.03" y2="103.26" gradientTransform="matrix(1, 0, 0, 1, 0, 0)" xlink:href="#_28"/><linearGradient id="linear-gradient" x1="69.03" y1="118.3" x2="69.03" y2="97.63" gradientUnits="userSpaceOnUse"><stop offset="0" stop-color="#fff"/><stop offset="1" stop-color="#fff7c4"/></linearGradient><linearGradient id="_27-39" x1="68.64" y1="57.87" x2="68.64" y2="25.96" gradientTransform="matrix(1, 0, 0, 1, 0, 0)" xlink:href="#_27"/><radialGradient id="_21" cx="77.88" cy="22.07" r="16.27" gradientTransform="matrix(0.1, 0.97, -0.42, 0.23, 79.47, -58.75)" gradientUnits="userSpaceOnUse"><stop offset="0" stop-color="#f4a940"/><stop offset="0.09" stop-color="#e6a03c"/><stop offset="0.27" stop-color="#c38733"/><stop offset="0.51" stop-color="#895f24"/><stop offset="0.8" stop-color="#39280f"/><stop offset="1"/></radialGradient><radialGradient id="_26" cx="-744.5" cy="-1144.79" r="7.44" gradientTransform="matrix(1.28, 0.34, -0.22, 0.85, 749.48, 1343.75)" gradientUnits="userSpaceOnUse"><stop offset="0" stop-color="#e75a29"/><stop offset="0.18" stop-color="#ad431f"/><stop offset="0.4" stop-color="#702c14"/><stop offset="0.59" stop-color="#40190b"/><stop offset="0.77" stop-color="#1d0b05"/><stop offset="0.91" stop-color="#080301"/><stop offset="1"/></radialGradient><linearGradient id="_27-40" x1="130.52" y1="81.63" x2="130.52" y2="52.43" gradientTransform="matrix(1, 0, 0, 1, 0, 0)" xlink:href="#_27"/><linearGradient id="_28-33" x1="130.51" y1="74.07" x2="130.51" y2="102.67" gradientTransform="matrix(1, 0, 0, 1, 0, 0)" xlink:href="#_28"/><linearGradient id="_28-34" x1="7.43" y1="74.08" x2="7.43" y2="102.39" gradientTransform="matrix(1, 0, 0, 1, 0, 0)" xlink:href="#_28"/><linearGradient id="_27-41" x1="7.43" y1="81.63" x2="7.43" y2="52.43" gradientTransform="matrix(1, 0, 0, 1, 0, 0)" xlink:href="#_27"/><linearGradient id="_18" x1="52.78" y1="148.46" x2="52.78" y2="128.19" gradientUnits="userSpaceOnUse"><stop offset="0" stop-color="#d16509"/><stop offset="1" stop-color="#8d2c1b"/></linearGradient><linearGradient id="_18-2" x1="85.28" y1="148.46" x2="85.28" y2="128.19" xlink:href="#_18"/><linearGradient id="_27-42" x1="41.75" y1="69.3" x2="98.58" y2="69.3" gradientTransform="matrix(1, 0, 0, 1, 0, 0)" xlink:href="#_27"/><linearGradient id="linear-gradient-2" x1="69.18" y1="97.05" x2="69.18" y2="40.21" gradientUnits="userSpaceOnUse"><stop offset="0" stop-color="#ca6b34"/><stop offset="0.13" stop-color="#cc6e34"/><stop offset="0.22" stop-color="#d27733"/><stop offset="0.3" stop-color="#db8631"/><stop offset="0.37" stop-color="#e99b2f"/><stop offset="0.43" stop-color="#fbb72c"/><stop offset="0.44" stop-color="#ffbd2b"/><stop offset="1" stop-color="#ffa933"/></linearGradient></defs><title>Asset 30</title><g class="cls-1"><g id="Layer_2" data-name="Layer 2"><g id="frame"><path class="cls-2" d="M23.48,15.4c0,.15,0,.3,0,.46a.13.13,0,0,1,0,.06,6.92,6.92,0,0,0,.33,1.39h0c1.07,3.19,4.25,7.62,6.17,10.12l.06.08,1.1,1.4h0l.33.41h3.1c3-4,5.68-11.21,5.71-14.08a2.61,2.61,0,0,0-.07-.74,21.38,21.38,0,0,0-1.35-2.85C36.57,7.29,32-.11,31,0c-.61.07-3.91,5.55-5.94,10.18A16.82,16.82,0,0,0,23.48,15.4Z"/><path class="cls-3" d="M23.48,15.4c0,.15,0,.3,0,.46a.13.13,0,0,1,0,.06,6.92,6.92,0,0,0,.33,1.39h0c1.07,3.19,4.25,7.62,6.17,10.12l.06.08,1.1,1.4h0l.33.41h3.1c3-4,5.68-11.21,5.71-14.08a6.81,6.81,0,0,1-5.52,5.2,10,10,0,0,1-2.72.1h0l-.46-.06-.36,0a13.78,13.78,0,0,1-2.68-.7S25.93,18,25.38,15.66c-.22-.95,0-3,.9-5.7A45.27,45.27,0,0,1,31,0c-.61.07-3.91,5.55-5.94,10.18A16.82,16.82,0,0,0,23.48,15.4Z"/><path class="cls-4" d="M33.69,14.85c1.41,5.57-1.31,14.48-1.31,14.48s.25-8.2-.92-12.4S33.26,13.13,33.69,14.85Z"/><path class="cls-5" d="M31.12,15.23c1.48,5,1.26,14.1,1.26,14.1Z"/><path class="cls-6" d="M38.53,11c-2,1.45-6.59-9.85-5.2-8.44C34.4,3.61,38.53,11,38.53,11Z"/><path class="cls-7" d="M23.5,15.86a.13.13,0,0,1,0,.06,5.31,5.31,0,0,0,.33,1.39h0c1.07,3,4.37,7.72,6.17,10.12l.06.08c.58.77,1,1.28,1.1,1.4h0c1.14,1.15.13-.74-4-8.13C25.43,17.55,23.44,14.73,23.5,15.86Z"/><path class="cls-8" d="M30,27.44l.06.08c.58.77,1,1.28,1.1,1.4a57.64,57.64,0,0,0,.05-8.48c-.6-4.91-1.35-9.24-2.41-9.85A4.71,4.71,0,0,0,26.28,10a3.9,3.9,0,0,0-1.19.22,16.82,16.82,0,0,0-1.61,5.22c0,.15,0,.3,0,.46a.13.13,0,0,1,0,.06,5.31,5.31,0,0,0,.33,1.39h0C24.92,20.51,28.1,24.94,30,27.44Z"/><path class="cls-9" d="M15.3,42.38a3.09,3.09,0,0,0,.52,0h0a6.64,6.64,0,0,0,1.26-.29h0c3.16-1,7.62-4.16,10.15-6.07l.09-.07c.62-.47,1.13-.86,1.45-1.12h0l.41-.33v-.86l0-2.23c-4-3-11.14-5.74-14-5.79a3.15,3.15,0,0,0-.74.07A20.52,20.52,0,0,0,11.68,27h0c-1,.5-2.06,1.11-3.2,1.77C4.41,31.08-.08,34,0,34.75S11.58,42.29,15.3,42.38Z"/><path class="cls-10" d="M15.3,42.38a3.09,3.09,0,0,0,.52,0h0a6.64,6.64,0,0,0,1.26-.29h0c3.16-1,7.62-4.16,10.15-6.07l.09-.07c.62-.47,1.13-.86,1.45-1.12h0l.41-.33v-.86l0-2.23c-4-3-11.14-5.74-14-5.79a6.82,6.82,0,0,1,5.15,5.54,9.65,9.65,0,0,1,.12,2.06c0,.22,0,.44-.05.65v0c0,.16,0,.31-.05.46a13.23,13.23,0,0,1-.78,3s-1.76,2.6-4.08,3.13C13.65,40.93,7.31,39.4,0,34.75.1,35.65,11.58,42.29,15.3,42.38Z"/><path class="cls-11" d="M13.53,33.18c5.46-4.9,15.71.43,15.71.43s-8.17-.3-12.36.83S12.88,33.77,13.53,33.18Z"/><path class="cls-12" d="M15.18,34.78c5-1.45,14.06-1.17,14.06-1.17Z"/><path class="cls-13" d="M2.53,32.48c1,.88,5.44-.79,7.92-2.6,1.26-.92,2-1.88,1.52-2.56L11.68,27h0l-3.2,1.77Z"/><path class="cls-14" d="M20.69,38.69c7.4-4,9.29-5,8.13-3.89-.47.46-9.63,7.39-13.07,7.57C14.63,42.42,17.44,40.46,20.69,38.69Z"/><path class="cls-15" d="M8.47,28.76l.16.06a7.45,7.45,0,0,1,1.82,1.06,15.73,15.73,0,0,1,3.08,3.3s1.7-1.08,5.67-1c5.27.1,6.89,1,9.42,1.42h0l.24,0h0l.34.07v-.1l0-2.23c-4-3-11.14-5.74-14-5.79a3.15,3.15,0,0,0-.74.07A20.52,20.52,0,0,0,11.68,27h0C10.71,27.49,9.61,28.1,8.47,28.76Z"/><path class="cls-16" d="M11.76,27.07c3.17,3.45,17.37,5.07,17.37,5.07l2.52-2.41c-.68-5.58-4.11-13.54-6.31-15.89a3,3,0,0,0-.65-.55C22.59,12.07,6.83,7.56,5.91,8.68,5.26,9.46,8.91,24,11.76,27.07Z"/><path class="cls-17" d="M11.76,27.07c3.17,3.45,17.37,5.07,17.37,5.07l2.52-2.41c-.68-5.58-4.11-13.54-6.31-15.89,4.36,8.67-6.09,12.81-6.09,12.81s-2.22.65-5.43-1.53C12,23.87,7.89,18.25,5.91,8.68,5.26,9.46,8.91,24,11.76,27.07Z"/><path class="cls-18" d="M17.79,19.13c7.33,2,12,12.34,12,12.34s-6.18-6.86-10.4-9.37S16.83,18.87,17.79,19.13Z"/><path class="cls-19" d="M17.83,21c5.07,2.89,12,10.48,12,10.48Z"/><path class="cls-20" d="M21.64,12.11c-.51,2.75-14.1-3.55-11.9-3.17C14,9.68,21.64,12.11,21.64,12.11Z"/><path class="cls-21" d="M114.69,15.4c0,.15,0,.3,0,.46s0,0,0,.06a6.92,6.92,0,0,1-.33,1.39h0c-1.08,3.19-4.26,7.62-6.18,10.12l-.06.08-1.1,1.4h0l-.33.41h-3.1c-3-4-5.68-11.21-5.71-14.08a2.26,2.26,0,0,1,.08-.74,20.91,20.91,0,0,1,1.34-2.85C101.6,7.29,106.16-.11,107.14,0c.62.07,3.91,5.55,5.94,10.18A16.82,16.82,0,0,1,114.69,15.4Z"/><path class="cls-22" d="M114.69,15.4c0,.15,0,.3,0,.46s0,0,0,.06a6.92,6.92,0,0,1-.33,1.39h0c-1.08,3.19-4.26,7.62-6.18,10.12l-.06.08-1.1,1.4h0l-.33.41h-3.1c-3-4-5.68-11.21-5.71-14.08a6.81,6.81,0,0,0,5.52,5.2,10,10,0,0,0,2.72.1h0l.46-.06.36,0a13.78,13.78,0,0,0,2.68-.7s2.62-1.75,3.17-4.08c.22-.95,0-3-.9-5.7a45.27,45.27,0,0,0-4.75-10c.62.07,3.91,5.55,5.94,10.18A16.82,16.82,0,0,1,114.69,15.4Z"/><path class="cls-23" d="M104.48,14.85c-1.41,5.57,1.31,14.48,1.31,14.48s-.25-8.2.92-12.4S104.92,13.13,104.48,14.85Z"/><path class="cls-24" d="M107.05,15.23c-1.48,5-1.26,14.1-1.26,14.1Z"/><path class="cls-25" d="M99.64,11c2,1.45,6.59-9.85,5.2-8.44C103.77,3.61,99.64,11,99.64,11Z"/><path class="cls-26" d="M114.67,15.86s0,0,0,.06a5.31,5.31,0,0,1-.33,1.39h0c-1.08,3-4.38,7.72-6.18,10.12l-.06.08c-.58.77-1,1.28-1.1,1.4h0c-1.14,1.15-.13-.74,4-8.13C112.74,17.55,114.73,14.73,114.67,15.86Z"/><path class="cls-27" d="M108.15,27.44l-.06.08c-.58.77-1,1.28-1.1,1.4a57.64,57.64,0,0,1,0-8.48c.6-4.91,1.35-9.24,2.41-9.85a4.71,4.71,0,0,1,2.54-.63,3.9,3.9,0,0,1,1.19.22,16.82,16.82,0,0,1,1.61,5.22c0,.15,0,.3,0,.46s0,0,0,.06a5.31,5.31,0,0,1-.33,1.39h0C113.25,20.51,110.07,24.94,108.15,27.44Z"/><path class="cls-28" d="M122.87,42.38a3.09,3.09,0,0,1-.52,0h0a6.64,6.64,0,0,1-1.26-.29h0c-3.16-1-7.62-4.16-10.15-6.07l-.09-.07-1.45-1.12h0l-.41-.33v-.86l0-2.23c4-3,11.14-5.74,14-5.79a3.15,3.15,0,0,1,.74.07A20.52,20.52,0,0,1,126.49,27h0c1,.5,2.06,1.11,3.2,1.77,4.06,2.32,8.55,5.23,8.47,6S126.59,42.29,122.87,42.38Z"/><path class="cls-29" d="M122.87,42.38a3.09,3.09,0,0,1-.52,0h0a6.64,6.64,0,0,1-1.26-.29h0c-3.16-1-7.62-4.16-10.15-6.07l-.09-.07-1.45-1.12h0l-.41-.33v-.86l0-2.23c4-3,11.14-5.74,14-5.79a6.82,6.82,0,0,0-5.15,5.54,9.65,9.65,0,0,0-.12,2.06c0,.22,0,.44,0,.65v0c0,.16,0,.31,0,.46a13.23,13.23,0,0,0,.78,3s1.76,2.6,4.09,3.13c1.91.44,8.26-1.09,15.56-5.74C138.07,35.65,126.59,42.29,122.87,42.38Z"/><path class="cls-30" d="M124.64,33.18c-5.46-4.9-15.71.43-15.71.43s8.17-.3,12.36.83S125.29,33.77,124.64,33.18Z"/><path class="cls-31" d="M123,34.78c-5-1.45-14.06-1.17-14.06-1.17Z"/><path class="cls-32" d="M135.64,32.48c-1,.88-5.44-.79-7.92-2.6-1.26-.92-2-1.88-1.52-2.56l.29-.33h0l3.2,1.77Z"/><path class="cls-33" d="M117.48,38.69c-7.4-4-9.29-5-8.13-3.89.47.46,9.63,7.39,13.07,7.57C123.54,42.42,120.73,40.46,117.48,38.69Z"/><path class="cls-34" d="M129.7,28.76l-.16.06a7.45,7.45,0,0,0-1.82,1.06,15.73,15.73,0,0,0-3.08,3.3s-1.7-1.08-5.67-1c-5.27.1-6.89,1-9.42,1.42h0l-.24,0h0l-.35.07v-.1l0-2.23c4-3,11.14-5.74,14-5.79a3.15,3.15,0,0,1,.74.07A20.52,20.52,0,0,1,126.49,27h0C127.46,27.49,128.56,28.1,129.7,28.76Z"/><path class="cls-35" d="M126.41,27.07C123.24,30.52,109,32.14,109,32.14l-2.52-2.41c.68-5.58,4.11-13.54,6.31-15.89a3,3,0,0,1,.65-.55c2.1-1.22,17.86-5.73,18.78-4.61C132.91,9.46,129.26,24,126.41,27.07Z"/><path class="cls-36" d="M126.41,27.07C123.24,30.52,109,32.14,109,32.14l-2.52-2.41c.68-5.58,4.11-13.54,6.31-15.89-4.36,8.67,6.09,12.81,6.09,12.81s2.23.65,5.43-1.53c1.83-1.25,5.93-6.87,7.91-16.44C132.91,9.46,129.26,24,126.41,27.07Z"/><path class="cls-37" d="M120.38,19.13c-7.33,2-12,12.34-12,12.34s6.18-6.86,10.4-9.37S121.34,18.87,120.38,19.13Z"/><path class="cls-38" d="M120.34,21c-5.07,2.89-12,10.48-12,10.48Z"/><path class="cls-39" d="M116.53,12.11c.51,2.75,14.1-3.55,11.91-3.17A123.1,123.1,0,0,0,116.53,12.11Z"/><path class="cls-40" d="M23.48,127.17c0-.14,0-.3,0-.46a.07.07,0,0,0,0,0,6.62,6.62,0,0,1,.33-1.39v0c1.07-3.19,4.25-7.62,6.17-10.11l.06-.09,1.1-1.39h0l.33-.41h3.1c3,4,5.68,11.21,5.71,14.08a2.73,2.73,0,0,1-.07.75,21.45,21.45,0,0,1-1.35,2.84c-2.34,4.38-6.9,11.78-7.88,11.66-.61-.07-3.91-5.55-5.94-10.18A16.74,16.74,0,0,1,23.48,127.17Z"/><path class="cls-41" d="M23.48,127.17c0-.14,0-.3,0-.46a.07.07,0,0,0,0,0,6.62,6.62,0,0,1,.33-1.39v0c1.07-3.19,4.25-7.62,6.17-10.11l.06-.09,1.1-1.39h0l.33-.41h3.1c3,4,5.68,11.21,5.71,14.08a6.84,6.84,0,0,0-5.52-5.2,10,10,0,0,0-2.72-.09h0l-.46,0-.36,0a13.78,13.78,0,0,0-2.68.7s-2.62,1.76-3.17,4.08c-.22,1,0,3,.9,5.7a45.27,45.27,0,0,0,4.75,10c-.61-.07-3.91-5.55-5.94-10.18A16.74,16.74,0,0,1,23.48,127.17Z"/><path class="cls-42" d="M33.69,127.72c1.41-5.56-1.31-14.48-1.31-14.48s.25,8.2-.92,12.4S33.26,129.45,33.69,127.72Z"/><path class="cls-43" d="M31.12,127.34c1.48-5,1.26-14.1,1.26-14.1Z"/><path class="cls-44" d="M38.53,131.61c-2-1.45-6.59,9.85-5.2,8.44C34.4,139,38.53,131.61,38.53,131.61Z"/><path class="cls-45" d="M23.5,126.71a.07.07,0,0,0,0,0,5.31,5.31,0,0,1,.33-1.39v0c1.07-3,4.37-7.72,6.17-10.11l.06-.09c.58-.76,1-1.28,1.1-1.39h0c1.14-1.15.13.74-4,8.14C25.43,125,23.44,127.84,23.5,126.71Z"/><path class="cls-46" d="M30,115.14l.06-.09c.58-.76,1-1.28,1.1-1.39a57.5,57.5,0,0,1,.05,8.47c-.6,4.92-1.35,9.24-2.41,9.85a4.62,4.62,0,0,1-2.54.63,3.9,3.9,0,0,1-1.19-.22,16.74,16.74,0,0,1-1.61-5.22c0-.14,0-.3,0-.46a.07.07,0,0,0,0,0,5.31,5.31,0,0,1,.33-1.39v0C24.92,122.06,28.1,117.63,30,115.14Z"/><path class="cls-47" d="M15.3,100.19a4.7,4.7,0,0,1,.52,0h0a6.57,6.57,0,0,1,1.26.28h0c3.16,1,7.62,4.15,10.15,6.07l.09.06,1.45,1.12v0l.41.32V109l0,2.23c-4,3-11.14,5.74-14,5.79a2.35,2.35,0,0,1-.74-.07,21.34,21.34,0,0,1-2.84-1.32h0c-1-.51-2.06-1.12-3.2-1.77-4.06-2.33-8.55-5.24-8.47-6S11.58,100.29,15.3,100.19Z"/><path class="cls-48" d="M15.3,100.19a4.7,4.7,0,0,1,.52,0h0a6.57,6.57,0,0,1,1.26.28h0c3.16,1,7.62,4.15,10.15,6.07l.09.06,1.45,1.12v0l.41.32V109l0,2.23c-4,3-11.14,5.74-14,5.79a6.8,6.8,0,0,0,5.15-5.54,9.52,9.52,0,0,0,.12-2c0-.23,0-.45-.05-.66v0c0-.15,0-.31-.05-.46a13.23,13.23,0,0,0-.78-3s-1.76-2.6-4.08-3.13c-1.92-.43-8.26,1.1-15.57,5.74C.1,106.93,11.58,100.29,15.3,100.19Z"/><path class="cls-49" d="M13.53,109.39c5.46,4.9,15.71-.43,15.71-.43s-8.17.31-12.36-.83S12.88,108.81,13.53,109.39Z"/><path class="cls-50" d="M15.18,107.8c5,1.44,14.06,1.16,14.06,1.16Z"/><path class="cls-51" d="M2.53,110.09c1-.87,5.44.8,7.92,2.61,1.26.92,2,1.88,1.52,2.56l-.29.33h0l-3.2-1.77Z"/><path class="cls-52" d="M20.69,103.88c7.4,4,9.29,5,8.13,3.9-.47-.46-9.63-7.4-13.07-7.57C14.63,100.15,17.44,102.12,20.69,103.88Z"/><path class="cls-53" d="M8.47,113.82l.16-.06a7.79,7.79,0,0,0,1.82-1.06,15.65,15.65,0,0,0,3.08-3.31s1.7,1.09,5.67,1c5.27-.11,6.89-1,9.42-1.42h0l.24,0h0l.34-.07v.1l0,2.23c-4,3-11.14,5.74-14,5.79a2.35,2.35,0,0,1-.74-.07,21.34,21.34,0,0,1-2.84-1.32h0C10.71,115.08,9.61,114.47,8.47,113.82Z"/><path class="cls-54" d="M11.76,115.5c3.17-3.45,17.37-5.06,17.37-5.06l2.52,2.41c-.68,5.57-4.11,13.53-6.31,15.89a2.93,2.93,0,0,1-.65.54C22.59,130.5,6.83,135,5.91,133.9,5.26,133.12,8.91,118.59,11.76,115.5Z"/><path class="cls-55" d="M11.76,115.5c3.17-3.45,17.37-5.06,17.37-5.06l2.52,2.41c-.68,5.57-4.11,13.53-6.31,15.89,4.36-8.68-6.09-12.82-6.09-12.82s-2.22-.65-5.43,1.53c-1.83,1.26-5.93,6.88-7.91,16.45C5.26,133.12,8.91,118.59,11.76,115.5Z"/><path class="cls-56" d="M17.79,123.44c7.33-2,12-12.34,12-12.34s-6.18,6.86-10.4,9.37S16.83,123.7,17.79,123.44Z"/><path class="cls-57" d="M17.83,121.58c5.07-2.88,12-10.48,12-10.48Z"/><path class="cls-58" d="M21.64,130.46c-.51-2.74-14.1,3.56-11.9,3.18C14,132.89,21.64,130.46,21.64,130.46Z"/><path class="cls-59" d="M114.69,127.17c0-.14,0-.3,0-.46a.43.43,0,0,1,0,0,6.62,6.62,0,0,0-.33-1.39v0c-1.08-3.19-4.26-7.62-6.18-10.11l-.06-.09-1.1-1.39h0l-.33-.41h-3.1c-3,4-5.68,11.21-5.71,14.08a2.36,2.36,0,0,0,.08.75,21,21,0,0,0,1.34,2.84c2.34,4.38,6.9,11.78,7.88,11.66.62-.07,3.91-5.55,5.94-10.18A16.74,16.74,0,0,0,114.69,127.17Z"/><path class="cls-60" d="M114.69,127.17c0-.14,0-.3,0-.46a.43.43,0,0,1,0,0,6.62,6.62,0,0,0-.33-1.39v0c-1.08-3.19-4.26-7.62-6.18-10.11l-.06-.09-1.1-1.39h0l-.33-.41h-3.1c-3,4-5.68,11.21-5.71,14.08a6.84,6.84,0,0,1,5.52-5.2,10,10,0,0,1,2.72-.09h0l.46,0,.36,0a13.78,13.78,0,0,1,2.68.7s2.62,1.76,3.17,4.08c.22,1,0,3-.9,5.7a45.27,45.27,0,0,1-4.75,10c.62-.07,3.91-5.55,5.94-10.18A16.74,16.74,0,0,0,114.69,127.17Z"/><path class="cls-61" d="M104.48,127.72c-1.41-5.56,1.31-14.48,1.31-14.48s-.25,8.2.92,12.4S104.92,129.45,104.48,127.72Z"/><path class="cls-62" d="M107.05,127.34c-1.48-5-1.26-14.1-1.26-14.1Z"/><path class="cls-63" d="M99.64,131.61c2-1.45,6.59,9.85,5.2,8.44C103.77,139,99.64,131.61,99.64,131.61Z"/><path class="cls-64" d="M114.67,126.71a.43.43,0,0,1,0,0,5.31,5.31,0,0,0-.33-1.39v0c-1.08-3-4.38-7.72-6.18-10.11l-.06-.09c-.58-.76-1-1.28-1.1-1.39h0c-1.14-1.15-.13.74,4,8.14C112.74,125,114.73,127.84,114.67,126.71Z"/><path class="cls-65" d="M108.15,115.14l-.06-.09c-.58-.76-1-1.28-1.1-1.39a57.5,57.5,0,0,0,0,8.47c.6,4.92,1.35,9.24,2.41,9.85a4.62,4.62,0,0,0,2.54.63,3.9,3.9,0,0,0,1.19-.22,16.74,16.74,0,0,0,1.61-5.22c0-.14,0-.3,0-.46a.43.43,0,0,1,0,0,5.31,5.31,0,0,0-.33-1.39v0C113.25,122.06,110.07,117.63,108.15,115.14Z"/><path class="cls-66" d="M122.87,100.19a4.7,4.7,0,0,0-.52,0h0a6.57,6.57,0,0,0-1.26.28h0c-3.16,1-7.62,4.15-10.15,6.07l-.09.06-1.45,1.12v0l-.41.32V109l0,2.23c4,3,11.14,5.74,14,5.79a2.35,2.35,0,0,0,.74-.07,21.34,21.34,0,0,0,2.84-1.32h0c1-.51,2.06-1.12,3.2-1.77,4.06-2.33,8.55-5.24,8.47-6S126.59,100.29,122.87,100.19Z"/><path class="cls-67" d="M122.87,100.19a4.7,4.7,0,0,0-.52,0h0a6.57,6.57,0,0,0-1.26.28h0c-3.16,1-7.62,4.15-10.15,6.07l-.09.06-1.45,1.12v0l-.41.32V109l0,2.23c4,3,11.14,5.74,14,5.79a6.8,6.8,0,0,1-5.15-5.54,9.52,9.52,0,0,1-.12-2c0-.23,0-.45,0-.66v0c0-.15,0-.31,0-.46a13.23,13.23,0,0,1,.78-3s1.76-2.6,4.09-3.13c1.91-.43,8.26,1.1,15.56,5.74C138.07,106.93,126.59,100.29,122.87,100.19Z"/><path class="cls-68" d="M124.64,109.39c-5.46,4.9-15.71-.43-15.71-.43s8.17.31,12.36-.83S125.29,108.81,124.64,109.39Z"/><path class="cls-69" d="M123,107.8c-5,1.44-14.06,1.16-14.06,1.16Z"/><path class="cls-70" d="M135.64,110.09c-1-.87-5.44.8-7.92,2.61-1.26.92-2,1.88-1.52,2.56l.29.33h0l3.2-1.77Z"/><path class="cls-71" d="M117.48,103.88c-7.4,4-9.29,5-8.13,3.9.47-.46,9.63-7.4,13.07-7.57C123.54,100.15,120.73,102.12,117.48,103.88Z"/><path class="cls-72" d="M129.7,113.82l-.16-.06a7.79,7.79,0,0,1-1.82-1.06,15.65,15.65,0,0,1-3.08-3.31s-1.7,1.09-5.67,1c-5.27-.11-6.89-1-9.42-1.42h0l-.24,0h0l-.35-.07v.1l0,2.23c4,3,11.14,5.74,14,5.79a2.35,2.35,0,0,0,.74-.07,21.34,21.34,0,0,0,2.84-1.32h0C127.46,115.08,128.56,114.47,129.7,113.82Z"/><path class="cls-73" d="M126.41,115.5c-3.17-3.45-17.37-5.06-17.37-5.06l-2.52,2.41c.68,5.57,4.11,13.53,6.31,15.89a2.93,2.93,0,0,0,.65.54c2.1,1.22,17.86,5.73,18.78,4.62C132.91,133.12,129.26,118.59,126.41,115.5Z"/><path class="cls-74" d="M126.41,115.5c-3.17-3.45-17.37-5.06-17.37-5.06l-2.52,2.41c.68,5.57,4.11,13.53,6.31,15.89-4.36-8.68,6.09-12.82,6.09-12.82s2.23-.65,5.43,1.53c1.83,1.26,5.93,6.88,7.91,16.45C132.91,133.12,129.26,118.59,126.41,115.5Z"/><path class="cls-75" d="M120.38,123.44c-7.33-2-12-12.34-12-12.34s6.18,6.86,10.4,9.37S121.34,123.7,120.38,123.44Z"/><path class="cls-76" d="M120.34,121.58c-5.07-2.88-12-10.48-12-10.48Z"/><path class="cls-77" d="M116.53,130.46c.51-2.74,14.1,3.56,11.91,3.18C124.17,132.89,116.53,130.46,116.53,130.46Z"/><path class="cls-78" d="M136,97.4c.59-1.4-7.52-16.48-10.87-22.6a52.92,52.92,0,0,0,0-6.76c3.35-6.13,10.92-21,10.87-22.6a22.55,22.55,0,0,0,0-2.85c-.57-1.36-17.74-6.21-24.57-8.09a57.47,57.47,0,0,0-6.35-6.23C103.4,22,98.24,3.57,96.83,3c-1.7-.71-23.8,11.53-25.1,12.25-.89,0-1.79-.07-2.7-.07s-1.8,0-2.7.07C65,14.51,42.93,2.27,41.23,3c-1.41.59-6.57,19-8.29,25.29A56.52,56.52,0,0,0,26.6,34.5c-6.84,1.88-24,6.73-24.58,8.09a22.55,22.55,0,0,0,0,2.85c0,2,7.52,16.47,10.87,22.6a36.87,36.87,0,0,0,0,6.76C9.54,80.92,1.44,96,2,97.4c0,.13-.12,2.56,0,2.85.57,1.36,17.74,6.21,24.58,8.09a55.59,55.59,0,0,0,6.34,6.22c1.72,6.26,6.88,24.7,8.29,25.29,1.7.72,23.8-11.52,25.1-12.24q1.35.06,2.7.06t2.7-.06c1.3.72,23.4,13,25.1,12.24,1.41-.59,6.57-19,8.29-25.29a56.51,56.51,0,0,0,6.35-6.22c6.83-1.88,24-6.73,24.57-8.09C136.16,100,136,97.53,136,97.4Zm-24.61-26A42.4,42.4,0,1,1,69,29,42.4,42.4,0,0,1,111.43,71.42Z"/><path class="cls-79" d="M59.32,126.87l.6.1a38,38,0,0,1-5.19,3.1h0c-1,.49-2,.93-2.9,1.32l-.08,0a45.91,45.91,0,0,1-8.3,2.58h0v0a59.82,59.82,0,0,1-4.67-12.54s0,0,0,0l0-.14c-.27-1.06-.48-2-.65-2.87l.45.29.73.47.62.38a56,56,0,0,0,18.85,7.2Z"/><path class="cls-80" d="M59.06,126.82A39.87,39.87,0,0,1,43.88,133s-2.69-4.22-4.66-13.84l.62.38a56,56,0,0,0,18.85,7.2Z"/><path class="cls-81" d="M59.32,126.87a24.68,24.68,0,0,1-4.59,3.2h0a29.09,29.09,0,0,1-2.9,1.32l-.08,0a65.93,65.93,0,0,1-8.3,2.58h0v0a55.42,55.42,0,0,1-4.67-12.54s0,0,0,0l0-.14a11.44,11.44,0,0,1-.2-2.58l.73.47.62.38a33.61,33.61,0,0,0,5,9.26,26.87,26.87,0,0,0,13.8-2.06Z"/><path class="cls-82" d="M100,118.41c-.17.85-.38,1.81-.65,2.87l0,.14s0,0,0,0A59.82,59.82,0,0,1,94.66,134v0h0a47.11,47.11,0,0,1-8.31-2.58l-.07,0c-1-.4-1.93-.84-2.93-1.33a38,38,0,0,1-5.19-3.1l.6-.1.63-.12a55.9,55.9,0,0,0,18.85-7.2l.62-.38.74-.47Z"/><path class="cls-83" d="M98.84,119.17c-2,9.62-4.65,13.84-4.65,13.84A39.86,39.86,0,0,1,79,126.82h0l.37-.07a55.9,55.9,0,0,0,18.85-7.2Z"/><path class="cls-84" d="M99.37,121.28l0,.14s0,0,0,0A54.32,54.32,0,0,1,94.66,134v0h0a66.1,66.1,0,0,1-8.31-2.58l-.07,0a31.34,31.34,0,0,1-2.9-1.32h0a24.68,24.68,0,0,1-4.59-3.2l.63-.12a26.9,26.9,0,0,0,13.81,2.06,33.31,33.31,0,0,0,5-9.26l.62-.38.74-.47A11.44,11.44,0,0,1,99.37,121.28Z"/><path class="cls-85" d="M59.32,16l.6-.1a37,37,0,0,0-5.19-3.1l0,0c-1-.49-2-.92-2.9-1.31l-.08,0a47.45,47.45,0,0,0-8.3-2.59h0a59.68,59.68,0,0,0-4.67,12.55s0,0,0,0l0,.13c-.27,1.06-.48,2-.65,2.87l.45-.29.73-.47.62-.38a56,56,0,0,1,18.85-7.2Z"/><path class="cls-86" d="M59.06,16.07c-3-2-8.75-5.22-15.18-6.18,0,0-2.69,4.21-4.66,13.83l.62-.38a56,56,0,0,1,18.85-7.2Z"/><path class="cls-87" d="M59.32,16a24.68,24.68,0,0,0-4.59-3.2l0,0a29.2,29.2,0,0,0-2.9-1.31l-.08,0a65.88,65.88,0,0,0-8.3-2.59h0a55.87,55.87,0,0,0-4.67,12.55s0,0,0,0l0,.13a11.49,11.49,0,0,0-.2,2.58l.73-.47.62-.38a33.9,33.9,0,0,1,5-9.26,27,27,0,0,1,13.8,2.06Z"/><path class="cls-88" d="M53.41,8.3C47.8,6.24,41.86,4.37,41.86,4.37,40,7.18,36.12,17.23,35.94,17.7,38,10.71,40.35,3.35,41.23,3S47.68,5.34,53.4,8.29Z"/><path class="cls-89" d="M78.76,16l-.61-.1a37.68,37.68,0,0,1,5.2-3.1l0,0c1-.49,2-.92,2.9-1.31l.08,0a47.45,47.45,0,0,1,8.3-2.59h0a59.68,59.68,0,0,1,4.67,12.55.08.08,0,0,0,0,0l0,.13c.27,1.06.48,2,.65,2.87l-.45-.29-.73-.47-.62-.38a56,56,0,0,0-18.85-7.2Z"/><path class="cls-90" d="M79,16.07c3-2,8.76-5.22,15.19-6.18,0,0,2.69,4.21,4.66,13.83l-.62-.38a56,56,0,0,0-18.85-7.2Z"/><path class="cls-91" d="M78.76,16a24.68,24.68,0,0,1,4.59-3.2l0,0a29.2,29.2,0,0,1,2.9-1.31l.08,0a65.88,65.88,0,0,1,8.3-2.59h0a55.87,55.87,0,0,1,4.67,12.55.08.08,0,0,0,0,0l0,.13a12.11,12.11,0,0,1,.2,2.58l-.73-.47-.62-.38a33.9,33.9,0,0,0-5-9.26,27,27,0,0,0-13.8,2.06Z"/><path class="cls-92" d="M84.67,8.3c5.61-2.06,11.55-3.93,11.55-3.93C98,7.18,102,17.23,102.14,17.7c-2.06-7-4.41-14.35-5.29-14.72S90.4,5.34,84.68,8.29Z"/><path class="cls-93" d="M114.86,38.87l-.36-.5a36.25,36.25,0,0,1,5.87,1.48h0c1,.35,2,.73,3,1.12l.08,0a46.31,46.31,0,0,1,7.7,4h0v0a60.31,60.31,0,0,1-5.55,12.18s0,0,0,0l-.08.12c-.56.94-1.09,1.78-1.56,2.49,0-.17-.08-.35-.11-.52s-.13-.57-.2-.85-.11-.47-.16-.7a55.94,55.94,0,0,0-8.27-18.42Z"/><path class="cls-94" d="M115,39.08c3.51.72,9.89,2.48,15.12,6.35,0,0-1.07,4.88-6.48,13.08-.05-.24-.11-.47-.16-.7a55.94,55.94,0,0,0-8.27-18.42Z"/><path class="cls-95" d="M114.86,38.87a24.3,24.3,0,0,1,5.51,1h0c.89.28,1.9.66,3,1.12l.08,0a64,64,0,0,1,7.7,4h0v0a55.61,55.61,0,0,1-5.55,12.18s0,0,0,0l-.08.12a11.79,11.79,0,0,1-1.67,2c-.07-.28-.13-.57-.2-.85s-.11-.47-.16-.7a33.68,33.68,0,0,0,3-10.13,27,27,0,0,0-11.23-8.29Z"/><path class="cls-96" d="M124.3,38.19c5,2.28,10.19,4.89,10.19,4.89-.62,3-4.55,12.23-4.73,12.66,3.17-6,6.39-12.36,6.05-13.18s-5.8-2.62-11.5-4.37Z"/><path class="cls-97" d="M114.86,103.92l-.36.5a38.46,38.46,0,0,0,5.87-1.48h0c1-.35,2-.73,3-1.12l.08,0a47.2,47.2,0,0,0,7.7-4h0a59.8,59.8,0,0,0-5.55-12.18.08.08,0,0,1,0,0l-.08-.12c-.56-.94-1.09-1.77-1.56-2.49,0,.18-.08.35-.11.52s-.13.57-.2.86-.11.47-.16.7a55.89,55.89,0,0,1-8.27,18.41Z"/><path class="cls-98" d="M115,103.71c3.51-.73,9.89-2.49,15.12-6.35,0,0-1.07-4.88-6.48-13.08-.05.23-.11.47-.16.7a55.89,55.89,0,0,1-8.27,18.41Z"/><path class="cls-99" d="M114.86,103.92a24.87,24.87,0,0,0,5.51-1h0a28,28,0,0,0,3-1.12l.08,0a65.5,65.5,0,0,0,7.7-4h0a55.39,55.39,0,0,0-5.55-12.18.08.08,0,0,1,0,0l-.08-.12a12.21,12.21,0,0,0-1.67-2c-.07.29-.13.57-.2.86s-.11.47-.16.7a33.7,33.7,0,0,1,3,10.12,27,27,0,0,1-11.23,8.29Z"/><path class="cls-100" d="M124.3,104.6c5-2.28,10.19-4.89,10.19-4.89-.62-3-4.55-12.24-4.73-12.67,3.17,6,6.39,12.36,6.05,13.18s-5.8,2.62-11.5,4.38Z"/><path class="cls-101" d="M22.94,38.87l.36-.5a36.25,36.25,0,0,0-5.87,1.48h0c-1,.35-2,.73-3,1.12l-.08,0a46.67,46.67,0,0,0-7.71,4h0v0a59.77,59.77,0,0,0,5.55,12.18s0,0,0,0l.08.12c.56.94,1.09,1.78,1.56,2.49,0-.17.08-.35.11-.52s.13-.57.19-.85.11-.47.17-.7a55.94,55.94,0,0,1,8.27-18.42Z"/><path class="cls-102" d="M22.79,39.08c-3.51.72-9.89,2.48-15.12,6.35,0,0,1.07,4.88,6.47,13.08.06-.24.11-.47.17-.7a55.94,55.94,0,0,1,8.27-18.42Z"/><path class="cls-103" d="M22.94,38.87a24.3,24.3,0,0,0-5.51,1h0c-.89.28-1.9.66-3,1.12l-.08,0a64.87,64.87,0,0,0-7.71,4h0v0a55,55,0,0,0,5.55,12.18s0,0,0,0l.08.12a11.79,11.79,0,0,0,1.67,2c.07-.28.13-.57.19-.85s.11-.47.17-.7a33.68,33.68,0,0,1-3-10.13,27,27,0,0,1,11.23-8.29Z"/><path class="cls-104" d="M13.5,38.19C8.45,40.47,3.31,43.08,3.31,43.08c.62,3,4.55,12.23,4.73,12.66-3.17-6-6.39-12.36-6-13.18s5.8-2.62,11.5-4.37Z"/><path class="cls-105" d="M22.94,103.92l.36.5a38.46,38.46,0,0,1-5.87-1.48h0c-1-.35-2-.73-3-1.12l-.08,0a47.58,47.58,0,0,1-7.71-4h0a59.27,59.27,0,0,1,5.55-12.18.08.08,0,0,0,0,0l.08-.12c.56-.94,1.09-1.77,1.56-2.49,0,.18.08.35.11.52s.13.57.19.86.11.47.17.7a55.89,55.89,0,0,0,8.27,18.41Z"/><path class="cls-106" d="M22.79,103.71c-3.51-.73-9.89-2.49-15.12-6.35,0,0,1.07-4.88,6.47-13.08.06.23.11.47.17.7a55.89,55.89,0,0,0,8.27,18.41Z"/><path class="cls-107" d="M22.94,103.92a24.87,24.87,0,0,1-5.51-1h0a28,28,0,0,1-3-1.12l-.08,0a66.38,66.38,0,0,1-7.71-4h0a54.83,54.83,0,0,1,5.55-12.18.08.08,0,0,0,0,0l.08-.12a12.21,12.21,0,0,1,1.67-2c.07.29.13.57.19.86s.11.47.17.7a33.7,33.7,0,0,0-3,10.12,27,27,0,0,0,11.23,8.29Z"/><path class="cls-108" d="M13.5,104.6c-5.05-2.28-10.19-4.89-10.19-4.89C3.93,96.67,7.86,87.47,8,87,4.87,93,1.65,99.4,2,100.22s5.8,2.62,11.5,4.38Z"/><path class="cls-109" d="M121.33,92.12A56.25,56.25,0,0,1,18.18,95.45C38.91,114.55,81.06,132.39,121.33,92.12Z"/><path class="cls-110" d="M118,106.5c-2.54.73-4.85,1.37-6.53,1.84a56.51,56.51,0,0,1-6.35,6.22c-.49,1.79-1.27,4.58-2.15,7.67A69.72,69.72,0,0,1,81.15,132.7c-4.76-2.51-8.88-4.79-9.42-5.09q-1.33.06-2.7.06c-.91,0-1.8,0-2.7-.06-.55.3-4.78,2.65-9.63,5.21a63,63,0,0,1-21.48-10.16c-.94-3.25-1.76-6.22-2.28-8.1a55.59,55.59,0,0,1-6.34-6.22c-1.41-.39-3.26-.9-5.31-1.49a28.43,28.43,0,0,1-3.11-11.4c14.93,24.7,65,54.1,103.15-3.33C122.05,96.83,120.74,101.75,118,106.5Z"/><path class="cls-111" d="M69,15.16A56.27,56.27,0,0,0,15.14,55.27C24.34,34.92,45.24,25.12,69,25.12c26,0,47.54,12.48,55.27,35.83A56.26,56.26,0,0,0,69,15.16Z"/><path class="cls-112" d="M69,25.12A46.29,46.29,0,1,0,115.31,71.4,46.28,46.28,0,0,0,69,25.12Zm0,88.68a42.4,42.4,0,1,1,42.4-42.4A42.4,42.4,0,0,1,69,113.8Z"/><path class="cls-113" d="M31.78,98.87S44.18,113.8,69,113.8s37.25-14.93,37.25-14.93S94.19,118.36,69,118.36,31.78,98.87,31.78,98.87Z"/><path class="cls-114" d="M31.78,98.87a46.27,46.27,0,0,0,74.5,0S94.19,118.36,69,118.36,31.78,98.87,31.78,98.87Z"/><path class="cls-115" d="M113.58,58.81c-1.09-.62-2.76-1.64-5.22-3.28h0A42.42,42.42,0,0,0,29.15,57a41.73,41.73,0,0,1-5.45,5,46.3,46.3,0,0,1,89.88-3.2Z"/><path class="cls-116" d="M69,20.55c-1.84,2.37,12.84,6.25,14.6,4.57s.11-4.16-3.21-4.57S70.48,18.68,69,20.55Z"/><path class="cls-116" d="M65.76,118.25c-1.07-2,10.5-4,12.12-2.53s-1.27,2-1.27,2Z"/><ellipse class="cls-117" cx="77.87" cy="22.12" rx="6.96" ry="16.27" transform="translate(38.59 92.9) rotate(-76.83)"/><path class="cls-118" d="M58.89,125.05c-.92,3.48-5.94,5.17-11.22,3.78s-8.81-5.34-7.89-8.82,5.94-5.17,11.22-3.78S59.81,121.57,58.89,125.05Z"/><path class="cls-119" d="M136,45.44c0,1.56-7.52,16.47-10.87,22.6l-.23-3.65s9.53-14.81,10.87-21.83l.28.59h0C136.11,44,136,45.33,136,45.44Z"/><path class="cls-120" d="M136,100.25a.56.56,0,0,1-.17.2l-.06-.23c-2.29-8.33-10.87-21.8-10.87-21.8l.23-3.62C128.52,80.92,136.63,96,136,97.4,136,97.53,136.16,100,136,100.25Z"/><path class="cls-121" d="M12.89,74.8V79A103.16,103.16,0,0,0,2,100.19c-.08-.46.07-2.67,0-2.79C1.44,96,9.54,80.92,12.89,74.8Z"/><path class="cls-122" d="M12.89,63.62V68C9.54,61.91,2,47.47,2,45.44a26.38,26.38,0,0,1,0-2.83C6.87,56.16,12.89,63.62,12.89,63.62Z"/><path class="cls-123" d="M63.83,127.41l2.5.2c-1.3.72-23.4,13-25.1,12.24-.41-.17-1.14-1.85-2-4.3.09.2,1.64,3.39,2.47,3.39S63.83,127.41,63.83,127.41Z"/><path class="cls-124" d="M98.83,135.57c-.86,2.44-1.59,4.11-2,4.28-1.7.72-23.8-11.52-25.1-12.24l3.13-.26s14.9,9.33,21,11.2C97.36,139,98.71,135.84,98.83,135.57Z"/><path class="cls-125" d="M98,82.4a24.34,24.34,0,0,0-2.72-.21,13.53,13.53,0,0,1-9.17-6.74,13.24,13.24,0,0,1-1-9.91c1.31-4.36,3-6,6.37-7.79a12.2,12.2,0,0,1,4.21-1.42A13.59,13.59,0,0,0,98,56.12a.88.88,0,0,0,.62-.52c0-.09,0-.26,0-.31-.55-.52-3.28-.56-4.18-.79a13.14,13.14,0,0,1-9.76-11.68c0-.47.1-1.46-.22-1.79a1.64,1.64,0,0,0-.82-.11.49.49,0,0,0-.31.41c-.19.88,0,1.87-.19,2.77a13.29,13.29,0,0,1-5.67,8.59,13,13,0,0,1-9.67,2A13.08,13.08,0,0,1,57.09,42.14c0-.41,0-1-.3-1.22a4.46,4.46,0,0,0-.89,0c-.18,1.11-.16,2.24-.36,3.35a13.16,13.16,0,0,1-5.25,8.21c-2.54,1.84-4.92,2.27-8,2.5a.68.68,0,0,0-.57.27,1.39,1.39,0,0,0,.13.8,27.59,27.59,0,0,0,3.75.52,13.21,13.21,0,0,1,9.46,8.62,12.94,12.94,0,0,1-.71,10,13.19,13.19,0,0,1-7.55,6.57c-1.78.58-2.88.36-4.46.7a.57.57,0,0,0-.52.92c.79.74,2.75.37,3.81.63A13.4,13.4,0,0,1,55.79,96.17a3.88,3.88,0,0,0,.13,1.41,1,1,0,0,0,.69.12,1,1,0,0,0,.46-.77c.11-.76,0-1.54.16-2.3a13.37,13.37,0,0,1,5.22-8.45,13.18,13.18,0,0,1,9.87-2.34,13,13,0,0,1,8.38,5.22,13.29,13.29,0,0,1,2.52,7.65c0,.33,0,.82.4.9a3.74,3.74,0,0,0,.75,0c.41-.73.19-2.26.35-3.14a13.16,13.16,0,0,1,9.4-10.37,14,14,0,0,1,2.8-.44,11.43,11.43,0,0,0,1.17,0,.48.48,0,0,0,.36-.24,1,1,0,0,0,0-.5C98.36,82.64,98.28,82.5,98,82.4ZM80.16,77.63a13,13,0,0,1-18.07,1.91,13.07,13.07,0,0,1,7-23.29A13.05,13.05,0,0,1,80.16,77.63Z"/><path class="cls-126" d="M97,81.73c-.84-.27-1.85,0-2.72-.21a13.53,13.53,0,0,1-9.17-6.74,13,13,0,0,1,5.36-17.69,11.86,11.86,0,0,1,4.21-1.42A14.7,14.7,0,0,0,97,55.45a.88.88,0,0,0,.62-.52c0-.08,0-.26,0-.31-.56-.52-3.29-.56-4.19-.79a13.13,13.13,0,0,1-9.76-11.67c0-.47.1-1.47-.21-1.8a1.8,1.8,0,0,0-.83-.11c-.21.13-.25.16-.3.41-.19.89,0,1.87-.2,2.77A13.29,13.29,0,0,1,76.4,52a12.91,12.91,0,0,1-9.66,2A13.08,13.08,0,0,1,56.11,41.47c0-.4,0-.95-.3-1.22a5.31,5.31,0,0,0-.89,0c-.18,1.11-.16,2.24-.36,3.36a13.11,13.11,0,0,1-5.25,8.2c-2.54,1.84-4.92,2.28-8,2.5a.67.67,0,0,0-.56.27,1.3,1.3,0,0,0,.12.8c.64.33,2.86.34,3.75.52a13.23,13.23,0,0,1,9.46,8.62,12.92,12.92,0,0,1-.71,10A13.18,13.18,0,0,1,45.85,81c-1.78.58-2.88.36-4.46.7a.87.87,0,0,0-.58.3.84.84,0,0,0,.06.62c.79.74,2.76.37,3.81.64A13.37,13.37,0,0,1,54.81,95.51a4.07,4.07,0,0,0,.13,1.4,1.05,1.05,0,0,0,.69.13,1,1,0,0,0,.46-.78c.11-.76,0-1.54.16-2.3a13.35,13.35,0,0,1,5.22-8.44,13.14,13.14,0,0,1,9.87-2.34,13,13,0,0,1,8.39,5.21A13.35,13.35,0,0,1,82.24,96c0,.33,0,.82.4.91a4.67,4.67,0,0,0,.75,0c.41-.72.19-2.25.35-3.14a13.15,13.15,0,0,1,9.4-10.36,12.66,12.66,0,0,1,2.8-.44,11.33,11.33,0,0,0,1.17,0,.46.46,0,0,0,.36-.24.94.94,0,0,0,0-.5A.82.82,0,0,0,97,81.73ZM79.18,77a13,13,0,0,1-18.07,1.92A13.05,13.05,0,1,1,77.55,58.61,13,13,0,0,1,79.18,77Z"/><path class="cls-116" d="M71.41,54c-.56.72,3.89,1.9,4.43,1.39s0-1.26-1-1.39S71.85,53.42,71.41,54Z"/></g></g></g></svg>