<svg xmlns="http://www.w3.org/2000/svg" xmlns:xlink="http://www.w3.org/1999/xlink" viewBox="0 0 154.73 157.88"><defs><style>.cls-1{fill:#71647e;}.cls-2{isolation:isolate;}.cls-3{clip-path:url(#clip-path);}.cls-14,.cls-4{fill:#542c4a;}.cls-12,.cls-30,.cls-5{fill:#51385b;}.cls-14,.cls-17,.cls-19,.cls-21,.cls-23,.cls-25,.cls-27,.cls-29,.cls-35,.cls-36,.cls-5{opacity:0.5;}.cls-10,.cls-11,.cls-31,.cls-6,.cls-7,.cls-8,.cls-9{opacity:0.8;}.cls-6{fill:url(#_2);}.cls-7{fill:url(#_2-2);}.cls-8{fill:url(#_2-3);}.cls-9{fill:url(#_2-4);}.cls-10{fill:url(#_2-5);}.cls-11{fill:url(#_2-6);}.cls-13{fill:url(#_2-7);}.cls-15{fill:url(#_2-8);}.cls-16{fill:url(#_2-9);}.cls-17,.cls-19,.cls-21,.cls-23,.cls-25,.cls-27,.cls-29,.cls-35,.cls-36{mix-blend-mode:color-dodge;}.cls-17{fill:url(#_1099);}.cls-18{fill:url(#_2-10);}.cls-19{fill:url(#_1099-2);}.cls-20{fill:url(#_2-11);}.cls-21{fill:url(#_1099-3);}.cls-22{fill:url(#_2-12);}.cls-23{fill:url(#_1099-4);}.cls-24{fill:url(#_2-13);}.cls-25{fill:url(#_1099-5);}.cls-26{fill:url(#_2-14);}.cls-27{fill:url(#_1099-6);}.cls-28{fill:#451f47;}.cls-28,.cls-30,.cls-33,.cls-41{opacity:0.7;}.cls-29{fill:url(#_1099-7);}.cls-31{fill:url(#_2-15);}.cls-32{fill:url(#linear-gradient);}.cls-33{fill:url(#radial-gradient);}.cls-34{fill:#fff;}.cls-35{fill:url(#_1099-8);}.cls-36{fill:url(#_1099-9);}.cls-37{fill:url(#_37);}.cls-38{fill:url(#_37-2);}.cls-39{fill:url(#radial-gradient-2);}.cls-40{fill:url(#linear-gradient-2);}.cls-41{fill:url(#radial-gradient-3);}</style><clipPath id="clip-path"><path id="SVGID" class="cls-1" d="M145,104.85c.6-1.42-7.65-16.76-11.06-23A52.7,52.7,0,0,0,134,75c3.41-6.23,11.11-21.41,11.06-23a21.56,21.56,0,0,0,0-2.9c-.58-1.39-18-6.32-25-8.23a56,56,0,0,0-6.46-6.33c-1.74-6.37-7-25.13-8.43-25.73-1.72-.73-24.21,11.72-25.53,12.46-.91-.05-1.83-.07-2.75-.07s-1.84,0-2.75.07C72.8,20.52,50.32,8.07,48.59,8.8c-1.44.6-6.69,19.36-8.43,25.72a56.89,56.89,0,0,0-6.46,6.34c-7,1.91-24.42,6.84-25,8.23a23.35,23.35,0,0,0,0,2.9c0,2.06,7.65,16.76,11.06,23a36.14,36.14,0,0,0,0,6.88c-3.41,6.23-11.65,21.57-11.06,23,.06.13-.12,2.61,0,2.9.58,1.38,18.05,6.31,25,8.23a56.8,56.8,0,0,0,6.46,6.33c1.74,6.37,7,25.13,8.43,25.73,1.73.73,24.21-11.72,25.53-12.46.91,0,1.83.07,2.75.07s1.84,0,2.75-.07c1.32.74,23.81,13.19,25.53,12.46,1.44-.6,6.69-19.36,8.43-25.73A56.8,56.8,0,0,0,120,116c7-1.92,24.42-6.85,25-8.23C145.17,107.46,145,105,145,104.85ZM120,78.42A43.14,43.14,0,1,1,76.87,35.3,43.14,43.14,0,0,1,120,78.42Z"/></clipPath><linearGradient id="_2" x1="46.57" y1="32.18" x2="79.19" y2="32.18" gradientUnits="userSpaceOnUse"><stop offset="0" stop-color="#a3849f"/><stop offset="1" stop-color="#9a95a5"/></linearGradient><linearGradient id="_2-2" x1="122.09" y1="164.24" x2="104.09" y2="6.14" xlink:href="#_2"/><linearGradient id="_2-3" x1="38.75" y1="173.72" x2="20.75" y2="15.62" xlink:href="#_2"/><linearGradient id="_2-4" x1="63.37" y1="170.92" x2="45.37" y2="12.82" xlink:href="#_2"/><linearGradient id="_2-5" x1="92.1" y1="167.65" x2="74.1" y2="9.55" xlink:href="#_2"/><linearGradient id="_2-6" x1="130.34" y1="163.3" x2="112.34" y2="5.2" xlink:href="#_2"/><linearGradient id="_2-7" x1="56.64" y1="141.15" x2="56.64" y2="119.11" xlink:href="#_2"/><linearGradient id="_2-8" x1="97.1" y1="141.42" x2="97.1" y2="119.38" xlink:href="#_2"/><linearGradient id="_2-9" x1="46.55" y1="22.86" x2="66.73" y2="22.86" xlink:href="#_2"/><linearGradient id="_1099" x1="46.6" y1="3.14" x2="53.63" y2="23.44" gradientUnits="userSpaceOnUse"><stop offset="0" stop-color="#95a8cf"/><stop offset="1"/></linearGradient><linearGradient id="_2-10" x1="87.03" y1="22.86" x2="107.21" y2="22.86" xlink:href="#_2"/><linearGradient id="_1099-2" x1="-11409.51" y1="3.14" x2="-11402.47" y2="23.44" gradientTransform="matrix(-1, 0, 0, 1, -11302.34, 0)" xlink:href="#_1099"/><linearGradient id="_2-11" x1="123.65" y1="55.4" x2="139.03" y2="55.4" xlink:href="#_2"/><linearGradient id="_1099-3" x1="-13357.43" y1="-5115.86" x2="-13350.91" y2="-5097.04" gradientTransform="matrix(-0.71, -0.7, -0.7, 0.71, -12971.18, -5649.84)" xlink:href="#_1099"/><linearGradient id="_2-12" x1="123.65" y1="101.38" x2="139.03" y2="101.38" xlink:href="#_2"/><linearGradient id="_1099-4" x1="-6398.26" y1="-12216.2" x2="-6391.74" y2="-12197.38" gradientTransform="matrix(-0.71, 0.7, -0.7, -0.71, -12971.18, -4135.85)" xlink:href="#_1099"/><linearGradient id="_2-13" x1="14.45" y1="55.4" x2="29.83" y2="55.4" xlink:href="#_2"/><linearGradient id="_1099-5" x1="-5886.7" y1="2206.34" x2="-5880.18" y2="2225.15" gradientTransform="matrix(0.71, -0.7, 0.7, 0.71, 2663.53, -5649.84)" xlink:href="#_1099"/><linearGradient id="_2-14" x1="14.45" y1="101.38" x2="29.83" y2="101.38" xlink:href="#_2"/><linearGradient id="_1099-6" x1="1072.47" y1="-4894" x2="1078.99" y2="-4875.19" gradientTransform="matrix(0.71, 0.7, 0.7, -0.71, 2663.53, -4135.85)" xlink:href="#_1099"/><linearGradient id="_1099-7" x1="77.57" y1="22.91" x2="77.57" y2="47.32" xlink:href="#_1099"/><linearGradient id="_2-15" x1="76.87" y1="137.84" x2="76.87" y2="110.82" xlink:href="#_2"/><linearGradient id="linear-gradient" x1="76.87" y1="126.11" x2="76.87" y2="105.09" gradientUnits="userSpaceOnUse"><stop offset="0" stop-color="#fff"/><stop offset="1" stop-color="#fff7c4"/></linearGradient><radialGradient id="radial-gradient" cx="76.48" cy="50.09" r="34.94" gradientUnits="userSpaceOnUse"><stop offset="0.02" stop-color="#5a4153"/><stop offset="0.95" stop-color="#3e2645"/></radialGradient><linearGradient id="_1099-8" x1="139.42" y1="81.12" x2="139.42" y2="110.21" xlink:href="#_1099"/><linearGradient id="_1099-9" x1="14.17" y1="81.13" x2="14.17" y2="109.93" xlink:href="#_1099"/><radialGradient id="_37" cx="60.34" cy="141.73" r="10.73" xlink:href="#radial-gradient"/><radialGradient id="_37-2" cx="93.4" cy="141.69" r="10.74" xlink:href="#radial-gradient"/><radialGradient id="radial-gradient-2" cx="76.32" cy="79.73" r="28.42" xlink:href="#radial-gradient"/><linearGradient id="linear-gradient-2" x1="46.93" y1="79.06" x2="103.76" y2="79.06" gradientUnits="userSpaceOnUse"><stop offset="0" stop-color="#7585a4"/><stop offset="1" stop-color="#614e6c"/></linearGradient><radialGradient id="radial-gradient-3" cx="75.18" cy="70.54" r="10.65" gradientTransform="translate(-2.68 -20.11) scale(1.04 1.31)" xlink:href="#radial-gradient"/></defs><title>Asset 24</title><g class="cls-2"><g id="Layer_2" data-name="Layer 2"><g id="frame"><path id="SVGID-2" data-name="SVGID" class="cls-1" d="M145,104.85c.6-1.42-7.65-16.76-11.06-23A52.7,52.7,0,0,0,134,75c3.41-6.23,11.11-21.41,11.06-23a21.56,21.56,0,0,0,0-2.9c-.58-1.39-18-6.32-25-8.23a56,56,0,0,0-6.46-6.33c-1.74-6.37-7-25.13-8.43-25.73-1.72-.73-24.21,11.72-25.53,12.46-.91-.05-1.83-.07-2.75-.07s-1.84,0-2.75.07C72.8,20.52,50.32,8.07,48.59,8.8c-1.44.6-6.69,19.36-8.43,25.72a56.89,56.89,0,0,0-6.46,6.34c-7,1.91-24.42,6.84-25,8.23a23.35,23.35,0,0,0,0,2.9c0,2.06,7.65,16.76,11.06,23a36.14,36.14,0,0,0,0,6.88c-3.41,6.23-11.65,21.57-11.06,23,.06.13-.12,2.61,0,2.9.58,1.38,18.05,6.31,25,8.23a56.8,56.8,0,0,0,6.46,6.33c1.74,6.37,7,25.13,8.43,25.73,1.73.73,24.21-11.72,25.53-12.46.91,0,1.83.07,2.75.07s1.84,0,2.75-.07c1.32.74,23.81,13.19,25.53,12.46,1.44-.6,6.69-19.36,8.43-25.73A56.8,56.8,0,0,0,120,116c7-1.92,24.42-6.85,25-8.23C145.17,107.46,145,105,145,104.85ZM120,78.42A43.14,43.14,0,1,1,76.87,35.3,43.14,43.14,0,0,1,120,78.42Z"/><g class="cls-3"><path class="cls-4" d="M129.56,73.24c.82,2.85,25.17,2.53,25.17,2.53l-.2,2s-21-3.59-24.44-2.46,2.23,29.14,2.23,29.14l-2.44-1.35S128.68,82,127.72,71.4c0,0-.48-7-1.1-6.93-1.14.09-25-1.4-25-1.4l.15-1.46s18,3.2,24.56,1.18c2.1-.64,1.07-27.15,1.07-27.15l1.35,1.24S127.79,67.09,129.56,73.24Z"/><path class="cls-4" d="M90.06,24.09C92.87,23.52,94.43,0,94.43,0l1.92.35s-5.07,20-4.24,23.39,28.29.08,28.29.08l-1.49,2.25s-20.47-.46-30.76-.34c0,0-6.77-.07-6.77.53,0,1.11-3.26,24-3.26,24L76.72,50s4.46-17.08,3-23.61c-.46-2.08-26.12-3.11-26.12-3.11l1.3-1.21S84,25.33,90.06,24.09Z"/><path class="cls-4" d="M23.31,64.14c-.51-2.51-21.54-3.9-21.54-3.9l.32-1.71S20,63.05,23,62.31,23.06,37,23.06,37l2,1.34s-.41,18.29-.31,27.5c0,0-.06,6,.48,6,1,0,21.43,2.91,21.43,2.91l-.23,1.25s-15.27-4-21.11-2.69c-1.85.41-2.77,23.35-2.77,23.35l-1.08-1.17S24.42,69.57,23.31,64.14Z"/><path class="cls-4" d="M79.76,128.93c2.94-.79,3.06-25.87,3.06-25.87l2.06.24s-4.07,21.57-3,25.13S112,126.66,112,126.66l-1.44,2.49s-21.77.85-32.71,1.65c0,0-7.19.36-7.15,1,.07,1.17-1.9,25.67-1.9,25.67l-1.5-.17S70.9,138.87,68.93,132c-.62-2.17-28-1.59-28-1.59l1.3-1.37S73.39,130.65,79.76,128.93Z"/><path class="cls-4" d="M35.59,114.09c.39,1.89,21.24,1.79,21.24,1.79l.9.83s-19.74-1.39-22-.83,0,18,0,18l-1.52-1s.31-13.76.23-20.69c0,0,0-4.55-.36-4.55-.74,0-16.11-2.19-16.11-2.19l.17-.94s11.48,3,15.87,2C35.43,106.2,36.12,89,36.12,89l.81.87S34.76,110,35.59,114.09Z"/><path class="cls-4" d="M45.08,34.76c-.72-1.77-16.36.09-16.36.09v-1.3s13.76.87,15.89-.09-3.43-18.6-3.43-18.6l1.66.71s2.22,13.5,3.56,20.25c0,0,.79,4.45,1.18,4.38.73-.14,16.15-.81,16.15-.81v1s-11.77-.83-15.88.92C46.54,41.82,49,58.8,49,58.8l-.95-.7S46.64,38.6,45.08,34.76Z"/><path class="cls-5" d="M83.21,27.24c-1,1.37-4.2,29.12-2.85,31.7s41.41,4.67,44.18,2.65,3.82-29.85,0-32.1S84.56,25.44,83.21,27.24Z"/><path class="cls-6" d="M76.87,26.5c-9.34-1.21-28-3.31-29.21.59s-2,10.8.9,11.62,28.1,1.43,29-.37S81.05,27,76.87,26.5Z"/><path class="cls-5" d="M90,22.74c-.36,1.63-25.34.29-32.84-1.55-1.95-.48-1.35-14.65,1.12-15.63s34.44-1.35,34.47.53S90.46,20.71,90,22.74Z"/><path class="cls-7" d="M96.41,6C93.42,13,92,23.55,93.26,23.77s19.65,1.39,23.4-.91.83-15.35-2.1-16S97.18,4.25,96.41,6Z"/><path class="cls-5" d="M43.54,35.3c-5.24-2.16-16.35.11-17,2.29s-1.42,32.4-.6,33.15,19.41,4.2,20.77,2.17S47.81,37.06,43.54,35.3Z"/><path class="cls-8" d="M26,74.64c-1.42,4.26-3.9,26.62-3.53,28.05s10.78,5,11.28,2.62,3-28.35,1.92-30S26.74,72.37,26,74.64Z"/><path class="cls-5" d="M21.87,64.89C20.47,63,9.19,60.81,7.54,62.47s-1.8,32,.75,33.24,12.9.62,13.09-2.8S23.81,67.54,21.87,64.89Z"/><path class="cls-5" d="M35.92,112.51c1.42,2.52,14.47,3.62,14.89,2.1s2.5-20.77.95-22.12-13.41-4.94-14.37-1.35S35.2,111.24,35.92,112.51Z"/><path class="cls-5" d="M33.74,108.54c-1.48-2.2-30.85-5-32.35-3.45s-2.7,18.9,1.5,20.4,31,2.78,30.85,0S34.44,109.58,33.74,108.54Z"/><path class="cls-9" d="M37,116.26c-2.25-.26-1.73,8.84-1.12,10.74.45,1.43,41.19,1.73,42.57,0s3.11-9.45,0-9.45C70.16,117.55,42.71,116.93,37,116.26Z"/><path class="cls-5" d="M35.92,130.42c-.89,2.06.72,26.21,4.17,27.06s26.59.26,26.64-1.24,2.44-23.14.88-24S36.38,129.35,35.92,130.42Z"/><path class="cls-10" d="M71.86,132.94c-.44,1.79-4.25,23.37-1.25,23.9s37.25,1.8,37.79-5.48,2.68-20.66-1.2-20.94S72.32,131.11,71.86,132.94Z"/><path class="cls-5" d="M83,127.13c1.05,1.45,30.82-.14,31-1.64s1.76-17.23.32-18.59-26.72-4.79-28.14-2.44S81.56,125.17,83,127.13Z"/><path class="cls-11" d="M117.14,110.49c0,.83,11.92,1.33,12.49-.87S127.31,66.51,126,65.29s-9.15-.94-9.75.86S118.36,87.17,117.14,110.49Z"/><path class="cls-5" d="M117.34,113.79c-1.78,3-2.25,17.4,0,18.45s16.07.07,15.76-3.75-.46-11.74-2.41-12.81S118.56,111.7,117.34,113.79Z"/><path class="cls-5" d="M130.28,76.36c-.42,2.55,1.55,25.29,2.43,26.7s19.35,4.67,20.55-2,2.48-21.39-.82-22.29S130.58,74.57,130.28,76.36Z"/><path class="cls-5" d="M130.28,71.49c1.09,1.59,19.23,3.22,20.66,1.8s.75-29.25-1.43-30.38-18.74-2.84-19.81-1S129.05,69.69,130.28,71.49Z"/><path class="cls-4" d="M124,76.05s-2.26,2.44-.47,9C123.49,85,130.08,81.41,124,76.05Z"/><path class="cls-4" d="M31.46,90.88S28.68,97,34.07,98.06C34.07,98.06,34.05,92.84,31.46,90.88Z"/><path class="cls-4" d="M66.73,23.41s2.18,5.9,9,.55C75.76,24,68.71,22.59,66.73,23.41Z"/></g><path class="cls-12" d="M67,134.83l.62.1a38.45,38.45,0,0,1-5.29,3.16h0c-1,.5-2,.94-2.94,1.34l-.09,0a48.3,48.3,0,0,1-8.44,2.63h0a60.07,60.07,0,0,1-4.75-12.76.08.08,0,0,1,0,0s0-.1,0-.14c-.27-1.08-.48-2.06-.66-2.92l.46.29q.38.26.75.48l.62.39a56.91,56.91,0,0,0,19.18,7.32Z"/><path class="cls-13" d="M66.73,134.79c-3,2-8.91,5.31-15.45,6.29,0,0-2.73-4.29-4.73-14.08l.62.39a56.91,56.91,0,0,0,19.18,7.32Z"/><path class="cls-14" d="M67,134.83a25.33,25.33,0,0,1-4.67,3.26h0c-.84.44-1.83.89-2.94,1.34l-.09,0a67.61,67.61,0,0,1-8.44,2.63h0a55.48,55.48,0,0,1-4.75-12.76.08.08,0,0,1,0,0s0-.1,0-.14a12.53,12.53,0,0,1-.2-2.63q.38.26.75.48l.62.39a34.39,34.39,0,0,0,5.14,9.42,27.43,27.43,0,0,0,14-2.1Z"/><path class="cls-12" d="M108.4,126.23c-.17.86-.39,1.84-.66,2.92l0,.14s0,0,0,0a60.72,60.72,0,0,1-4.76,12.76h0a48.49,48.49,0,0,1-8.46-2.63l-.07,0c-1-.4-2-.85-3-1.36a37.3,37.3,0,0,1-5.28-3.15l.61-.1.64-.12a56.91,56.91,0,0,0,19.18-7.32l.63-.39q.38-.23.75-.48Z"/><path class="cls-15" d="M107.2,127.27c-2,9.79-4.74,14.07-4.74,14.07-6.54-1-12.4-4.29-15.45-6.29h0l.38-.07a56.91,56.91,0,0,0,19.18-7.32Z"/><path class="cls-14" d="M107.74,129.15l0,.14s0,0,0,0a55.76,55.76,0,0,1-4.76,12.76h0a67.44,67.44,0,0,1-8.46-2.63l-.07,0c-1.11-.45-2.11-.9-3-1.34l0,0a25.23,25.23,0,0,1-4.67-3.25l.64-.12a27.43,27.43,0,0,0,14,2.1,34.13,34.13,0,0,0,5.14-9.42l.63-.39q.38-.23.75-.48A11.89,11.89,0,0,1,107.74,129.15Z"/><path class="cls-12" d="M67,22.07l.62-.1a38.45,38.45,0,0,0-5.29-3.16h0c-1-.5-2-.94-2.94-1.34l-.09,0a48.3,48.3,0,0,0-8.44-2.63h0a60.07,60.07,0,0,0-4.75,12.76.08.08,0,0,0,0,0c0,.05,0,.1,0,.14-.27,1.08-.48,2.06-.66,2.92l.46-.29.75-.48.62-.39a56.91,56.91,0,0,1,19.18-7.32Z"/><path class="cls-16" d="M66.73,22.11c-3-2-8.91-5.31-15.45-6.28,0,0-2.73,4.28-4.73,14.07l.62-.39a56.91,56.91,0,0,1,19.18-7.32Z"/><path class="cls-14" d="M67,22.07a25.33,25.33,0,0,0-4.67-3.26h0c-.84-.44-1.83-.89-2.94-1.34l-.09,0a67.61,67.61,0,0,0-8.44-2.63h0a55.48,55.48,0,0,0-4.75,12.76.08.08,0,0,0,0,0c0,.05,0,.1,0,.14a12.53,12.53,0,0,0-.2,2.63l.75-.48.62-.39a34.39,34.39,0,0,1,5.14-9.42,27.43,27.43,0,0,1,14,2.1Z"/><path class="cls-17" d="M61,14.2c-5.71-2.09-11.75-4-11.75-4-1.85,2.86-5.84,13.09-6,13.56,2.09-7.11,4.48-14.6,5.38-15S55.15,11.19,61,14.2Z"/><path class="cls-12" d="M86.77,22.07l-.62-.1a38.45,38.45,0,0,1,5.29-3.16h0c1-.5,2-.94,2.94-1.34l.09,0a48.3,48.3,0,0,1,8.44-2.63h0a60.07,60.07,0,0,1,4.75,12.76.08.08,0,0,1,0,0c0,.05,0,.1,0,.14.27,1.08.48,2.06.66,2.92l-.46-.29-.75-.48-.62-.39a56.91,56.91,0,0,0-19.18-7.32Z"/><path class="cls-18" d="M87,22.11c3-2,8.91-5.31,15.45-6.28,0,0,2.73,4.28,4.73,14.07l-.62-.39a56.91,56.91,0,0,0-19.18-7.32Z"/><path class="cls-14" d="M86.77,22.07a25.33,25.33,0,0,1,4.67-3.26h0c.84-.44,1.83-.89,2.94-1.34l.09,0a67.61,67.61,0,0,1,8.44-2.63h0a55.48,55.48,0,0,1,4.75,12.76.08.08,0,0,1,0,0c0,.05,0,.1,0,.14a12.53,12.53,0,0,1,.2,2.63l-.75-.48-.62-.39a34.39,34.39,0,0,0-5.14-9.42,27.43,27.43,0,0,0-14,2.1Z"/><path class="cls-19" d="M92.78,14.2c5.71-2.09,11.75-4,11.75-4,1.85,2.86,5.84,13.09,6,13.56-2.09-7.11-4.48-14.6-5.38-15s-6.56,2.39-12.38,5.4Z"/><path class="cls-12" d="M123.49,45.31l-.36-.51a37.5,37.5,0,0,1,6,1.5h0c1.06.36,2.08.74,3,1.13l.09,0a48.1,48.1,0,0,1,7.83,4.1h0A60.3,60.3,0,0,1,134.44,64a.08.08,0,0,0,0,0l-.08.12c-.57.95-1.11,1.8-1.59,2.53,0-.17-.08-.35-.11-.53s-.13-.58-.2-.86-.11-.48-.17-.72a57.08,57.08,0,0,0-8.4-18.73Z"/><path class="cls-20" d="M123.65,45.52c3.56.74,10.06,2.53,15.38,6.46,0,0-1.09,5-6.59,13.31-.05-.24-.11-.48-.17-.72a57.08,57.08,0,0,0-8.4-18.73Z"/><path class="cls-14" d="M123.49,45.31a25.29,25.29,0,0,1,5.61,1h0a31.15,31.15,0,0,1,3,1.13l.09,0a67.83,67.83,0,0,1,7.83,4.1h0A55.44,55.44,0,0,1,134.44,64a.08.08,0,0,0,0,0l-.08.12a11.72,11.72,0,0,1-1.7,2c-.07-.29-.13-.58-.2-.86s-.11-.48-.17-.72a34.07,34.07,0,0,0,3-10.3,27.52,27.52,0,0,0-11.42-8.43Z"/><path class="cls-21" d="M133.1,44.61c5.13,2.32,10.36,5,10.36,5-.62,3.09-4.62,12.45-4.81,12.88,3.23-6.06,6.51-12.57,6.15-13.4s-5.89-2.67-11.69-4.46Z"/><path class="cls-12" d="M123.49,111.48l-.36.51a38.6,38.6,0,0,0,6-1.5h0c1.06-.36,2.08-.74,3-1.14l.09,0a48.1,48.1,0,0,0,7.83-4.1h0a60.05,60.05,0,0,0-5.64-12.39l0,0-.08-.12c-.57-1-1.11-1.81-1.59-2.54,0,.18-.08.36-.11.53s-.13.58-.2.87-.11.48-.17.72a57.17,57.17,0,0,1-8.4,18.73Z"/><path class="cls-22" d="M123.65,111.27c3.56-.74,10.06-2.53,15.38-6.46,0,0-1.09-5-6.59-13.31-.05.24-.11.48-.17.72a57.17,57.17,0,0,1-8.4,18.73Z"/><path class="cls-14" d="M123.49,111.48a25.29,25.29,0,0,0,5.61-1h0a29,29,0,0,0,3-1.14l.09,0a69.43,69.43,0,0,0,7.83-4.1h0a55.22,55.22,0,0,0-5.64-12.39l0,0-.08-.12a11.78,11.78,0,0,0-1.7-2c-.07.29-.13.58-.2.87s-.11.48-.17.72a34.09,34.09,0,0,1,3,10.29A27.49,27.49,0,0,1,123.87,111Z"/><path class="cls-23" d="M133.1,112.18c5.13-2.32,10.36-5,10.36-5-.62-3.09-4.62-12.45-4.81-12.89,3.23,6.07,6.51,12.58,6.15,13.41s-5.89,2.67-11.69,4.45Z"/><path class="cls-12" d="M30,45.31l.36-.51a37.37,37.37,0,0,0-6,1.5h0c-1.07.36-2.08.74-3,1.13l-.09,0a49,49,0,0,0-7.84,4.1h0A60.82,60.82,0,0,0,19,64l0,0,.07.12c.57.95,1.11,1.8,1.6,2.53,0-.17.07-.35.11-.53s.13-.58.19-.86.12-.48.17-.72a56.9,56.9,0,0,1,8.41-18.73Z"/><path class="cls-24" d="M29.83,45.52c-3.57.74-10.06,2.53-15.38,6.46,0,0,1.09,5,6.58,13.31.06-.24.12-.48.17-.72a56.9,56.9,0,0,1,8.41-18.73Z"/><path class="cls-14" d="M30,45.31a25.13,25.13,0,0,0-5.6,1h0a31.15,31.15,0,0,0-3,1.13l-.09,0a67.91,67.91,0,0,0-7.84,4.1h0A56.32,56.32,0,0,0,19,64l0,0,.07.12a11.78,11.78,0,0,0,1.71,2c.06-.29.13-.58.19-.86s.12-.48.17-.72a34.35,34.35,0,0,1-3-10.3,27.43,27.43,0,0,1,11.42-8.43Z"/><path class="cls-25" d="M20.38,44.61c-5.13,2.32-10.37,5-10.37,5,.63,3.09,4.63,12.45,4.82,12.88C11.6,56.41,8.32,49.9,8.67,49.07s5.9-2.67,11.7-4.46Z"/><path class="cls-12" d="M30,111.48l.36.51a38.47,38.47,0,0,1-6-1.5h0q-1.61-.54-3-1.14l-.09,0a49,49,0,0,1-7.84-4.1h0A60.56,60.56,0,0,1,19,92.8a.05.05,0,0,1,0,0l.07-.12c.57-1,1.11-1.81,1.6-2.54,0,.18.07.36.11.53s.13.58.19.87.12.48.17.72A57,57,0,0,0,29.61,111Z"/><path class="cls-26" d="M29.83,111.27c-3.57-.74-10.06-2.53-15.38-6.46,0,0,1.09-5,6.58-13.31.06.24.12.48.17.72A57,57,0,0,0,29.61,111Z"/><path class="cls-14" d="M30,111.48a25.13,25.13,0,0,1-5.6-1h0a29,29,0,0,1-3-1.14l-.09,0a69.52,69.52,0,0,1-7.84-4.1h0A56.1,56.1,0,0,1,19,92.8a.05.05,0,0,1,0,0l.07-.12a11.84,11.84,0,0,1,1.71-2c.06.29.13.58.19.87s.12.48.17.72a34.37,34.37,0,0,0-3,10.29A27.4,27.4,0,0,0,29.61,111Z"/><path class="cls-27" d="M20.38,112.18c-5.13-2.32-10.37-5-10.37-5,.63-3.09,4.63-12.45,4.82-12.89-3.23,6.07-6.51,12.58-6.16,13.41s5.9,2.67,11.7,4.45Z"/><path class="cls-28" d="M130.08,99.48a57.24,57.24,0,0,1-104.94,3.39C46.23,122.3,89.11,140.45,130.08,99.48Z"/><path class="cls-28" d="M126.69,114.11c-2.58.74-4.93,1.4-6.65,1.87a56.8,56.8,0,0,1-6.46,6.33c-.5,1.82-1.28,4.66-2.18,7.8a70.94,70.94,0,0,1-22.2,10.66c-4.84-2.56-9-4.88-9.58-5.19-.91,0-1.83.07-2.75.07s-1.83,0-2.74-.07c-.56.31-4.87,2.7-9.8,5.3a63.86,63.86,0,0,1-21.86-10.33c-.95-3.31-1.79-6.33-2.31-8.24A56.8,56.8,0,0,1,33.7,116l-5.4-1.51a29.13,29.13,0,0,1-3.16-11.6c15.19,25.12,66.16,55,104.94-3.39C130.81,104.28,129.48,109.28,126.69,114.11Z"/><path class="cls-29" d="M76.87,21.19A57.23,57.23,0,0,0,22.05,62c9.36-20.7,30.62-30.67,54.82-30.67,26.4,0,48.36,12.7,56.23,36.45A57.24,57.24,0,0,0,76.87,21.19Z"/><path class="cls-30" d="M76.87,31.32A47.09,47.09,0,1,0,124,78.41,47.08,47.08,0,0,0,76.87,31.32Zm0,90.22A43.14,43.14,0,1,1,120,78.41,43.13,43.13,0,0,1,76.87,121.54Z"/><path class="cls-31" d="M39,106.35s12.62,15.19,37.9,15.19,37.9-15.19,37.9-15.19-12.31,19.82-37.9,19.82S39,106.35,39,106.35Z"/><path class="cls-32" d="M39,106.35a47.09,47.09,0,0,0,75.8,0s-12.31,19.82-37.9,19.82S39,106.35,39,106.35Z"/><path class="cls-33" d="M122.19,65.6c-1.11-.64-2.81-1.67-5.31-3.35h0A43.15,43.15,0,0,0,36.3,63.72a42.2,42.2,0,0,1-5.54,5.13,47.09,47.09,0,0,1,91.43-3.25Z"/><path class="cls-34" d="M73.54,126.06c-1.09-2,10.68-4,12.34-2.57s-1.3,2.06-1.3,2.06Z"/><path class="cls-34" d="M93.33,32.16C93,29.9,104.76,32,105.81,34s-1.93,1.49-1.93,1.49Z"/><path class="cls-14" d="M144.67,52c0,1.58-7.66,16.76-11.06,23l-.24-3.71s9.69-15.06,11.06-22.2l.29.59h0C144.73,50.49,144.67,51.88,144.67,52Z"/><path class="cls-35" d="M145,107.75a.49.49,0,0,1-.17.2c0-.07,0-.15-.07-.23-2.32-8.47-11.05-22.18-11.05-22.18l.23-3.68c3.41,6.23,11.66,21.57,11.06,23C145,105,145.17,107.46,145,107.75Z"/><path class="cls-36" d="M19.72,81.86v4.26A104.86,104.86,0,0,0,8.64,107.69c-.09-.47.07-2.71,0-2.84C8.06,103.43,16.31,88.09,19.72,81.86Z"/><path class="cls-14" d="M19.72,70.48V75C16.31,68.75,8.61,54.05,8.66,52a24.7,24.7,0,0,1,0-2.87C13.59,62.9,19.72,70.48,19.72,70.48Z"/><path class="cls-37" d="M71.58,135.38l2.55.2c-1.33.74-23.81,13.19-25.54,12.46-.42-.17-1.16-1.88-2-4.38.1.21,1.68,3.45,2.52,3.45S71.58,135.38,71.58,135.38Z"/><path class="cls-38" d="M107.19,143.68c-.88,2.48-1.62,4.19-2,4.36-1.72.73-24.21-11.72-25.53-12.46l3.19-.26s15.15,9.49,21.32,11.39C105.69,147.19,107.07,144,107.19,143.68Z"/><path class="cls-39" d="M104.13,92.83c-.84-.27-1.85,0-2.72-.21a13.53,13.53,0,0,1-9.17-6.74,13.24,13.24,0,0,1-1-9.91c1.31-4.36,3-6,6.37-7.78a11.8,11.8,0,0,1,4.21-1.42,14.7,14.7,0,0,0,2.31-.22.88.88,0,0,0,.62-.52c0-.08,0-.26,0-.31-.56-.52-3.29-.56-4.19-.79a13.13,13.13,0,0,1-9.76-11.67c0-.47.1-1.47-.21-1.8a1.82,1.82,0,0,0-.83-.11c-.21.13-.25.16-.3.41-.2.88,0,1.87-.2,2.77a13.29,13.29,0,0,1-5.67,8.59,12.92,12.92,0,0,1-9.67,2A13.08,13.08,0,0,1,63.25,52.57c0-.4,0-1-.3-1.22a5.35,5.35,0,0,0-.89,0c-.18,1.11-.16,2.24-.36,3.36a13.11,13.11,0,0,1-5.25,8.2c-2.54,1.84-4.92,2.28-8,2.5a.7.7,0,0,0-.57.27,1.38,1.38,0,0,0,.13.8c.64.33,2.86.34,3.75.52a13.23,13.23,0,0,1,9.46,8.62,13,13,0,0,1-.71,10A13.18,13.18,0,0,1,53,92.12c-1.78.58-2.88.36-4.46.7a.87.87,0,0,0-.58.3.84.84,0,0,0,.06.62c.79.74,2.75.37,3.81.64A13.38,13.38,0,0,1,62,106.61a3.84,3.84,0,0,0,.13,1.4,1.05,1.05,0,0,0,.69.13,1,1,0,0,0,.46-.78c.11-.76,0-1.54.16-2.3a13.35,13.35,0,0,1,5.22-8.44,13.18,13.18,0,0,1,9.87-2.35,13,13,0,0,1,8.38,5.22,13.29,13.29,0,0,1,2.52,7.65c0,.33,0,.82.4.91a4.67,4.67,0,0,0,.75,0c.41-.73.19-2.25.35-3.14a13.15,13.15,0,0,1,9.4-10.36,12.66,12.66,0,0,1,2.8-.44,11.45,11.45,0,0,0,1.17,0,.46.46,0,0,0,.36-.24.94.94,0,0,0,0-.5A.82.82,0,0,0,104.13,92.83ZM86.32,88.06A13,13,0,0,1,68.25,90,13.05,13.05,0,1,1,84.69,69.71a13,13,0,0,1,1.63,18.35Z"/><path class="cls-40" d="M103.15,92.17a24.34,24.34,0,0,0-2.72-.21,13.59,13.59,0,0,1-9.17-6.74,13,13,0,0,1,5.36-17.7,12.27,12.27,0,0,1,4.21-1.42,13.59,13.59,0,0,0,2.31-.21.89.89,0,0,0,.62-.53c0-.08,0-.25,0-.31-.56-.52-3.29-.55-4.19-.79a13.13,13.13,0,0,1-9.76-11.67c0-.47.1-1.47-.21-1.79a1.68,1.68,0,0,0-.83-.12c-.21.14-.25.16-.3.42-.19.88,0,1.86-.2,2.76a13.31,13.31,0,0,1-5.67,8.6,13,13,0,0,1-9.66,2A13.1,13.1,0,0,1,62.27,51.9c0-.4,0-.94-.3-1.21a4.43,4.43,0,0,0-.89,0c-.18,1.11-.16,2.23-.36,3.35a13.11,13.11,0,0,1-5.25,8.2c-2.54,1.84-4.92,2.28-8,2.51a.68.68,0,0,0-.56.26,1.33,1.33,0,0,0,.12.81,27.59,27.59,0,0,0,3.75.52,13.19,13.19,0,0,1,9.46,8.62,12.9,12.9,0,0,1-.71,10A13.14,13.14,0,0,1,52,91.45c-1.78.58-2.88.37-4.46.7a.91.91,0,0,0-.58.3.83.83,0,0,0,.06.62c.79.74,2.76.37,3.81.64A13.39,13.39,0,0,1,61,105.94a4.15,4.15,0,0,0,.13,1.41,1.11,1.11,0,0,0,.69.12,1,1,0,0,0,.46-.78c.11-.76,0-1.54.16-2.3A13.35,13.35,0,0,1,67.63,96a13,13,0,0,1,18.26,2.87,13.4,13.4,0,0,1,2.51,7.65c0,.34,0,.82.4.91a3.74,3.74,0,0,0,.75,0c.41-.73.19-2.26.35-3.14A13.16,13.16,0,0,1,99.3,93.9a14,14,0,0,1,2.8-.44,9.08,9.08,0,0,0,1.17,0,.45.45,0,0,0,.36-.23,1,1,0,0,0,.05-.51A.8.8,0,0,0,103.15,92.17ZM85.34,87.4a13,13,0,0,1-18.07,1.91A13.05,13.05,0,1,1,83.71,69,13,13,0,0,1,85.34,87.4Z"/><path class="cls-4" d="M89.25,94.66c-.28-1-11.57-2.52-11.57-2.52l1-.4s8.53,2.07,10,1.88.91-13.92.91-13.92l.49,2.7s-.26,9.34-.14,13c0,0,0,2.39.29,2.41.49,0,2.58.37,2.58.37l-.07.22s.43-.32-2.45,0c-.92.1-1.2,9.15-1.2,9.15l-.55-.5S89.84,96.85,89.25,94.66Z"/><path class="cls-34" d="M84.71,63.65c.08-.59,2.83.75,3,1.3s-.58.24-.58.24Z"/><path class="cls-41" d="M89.84,78.38c-.35-.25-.89-.66-1.68-1.33h0c-2-6.31-7-11.08-12.79-11.08-5.9,0-10.81,5-12.71,11.66a16.13,16.13,0,0,1-1.75,2.05c1.39-8.54,7.4-15,14.59-15C82.32,64.71,88.08,70.49,89.84,78.38Z"/></g></g></g></svg>