<svg xmlns="http://www.w3.org/2000/svg" xmlns:xlink="http://www.w3.org/1999/xlink" viewBox="0 0 134.13 136.93"><defs><style>.cls-1{isolation:isolate;}.cls-2{fill:url(#_92);}.cls-3{fill:url(#_29);}.cls-4{fill:url(#_19);}.cls-11,.cls-12,.cls-15,.cls-16,.cls-19,.cls-20,.cls-23,.cls-24,.cls-27,.cls-28,.cls-31,.cls-32,.cls-33,.cls-34,.cls-35,.cls-37,.cls-39,.cls-43,.cls-44,.cls-45,.cls-46,.cls-49,.cls-5,.cls-8{opacity:0.5;}.cls-11,.cls-15,.cls-19,.cls-23,.cls-27,.cls-31,.cls-33,.cls-34,.cls-39,.cls-43,.cls-46,.cls-5,.cls-8{mix-blend-mode:multiply;}.cls-5{fill:url(#_27);}.cls-6{fill:url(#_29-2);}.cls-7{fill:url(#_19-2);}.cls-8{fill:url(#_27-2);}.cls-9{fill:url(#_29-3);}.cls-10{fill:url(#_92-2);}.cls-11{fill:url(#_27-3);}.cls-12,.cls-16,.cls-20,.cls-24,.cls-28,.cls-32,.cls-35,.cls-37,.cls-41,.cls-42,.cls-44,.cls-45{mix-blend-mode:color-dodge;}.cls-12{fill:url(#_28);}.cls-13{fill:url(#_29-4);}.cls-14{fill:url(#_92-3);}.cls-15{fill:url(#_27-4);}.cls-16{fill:url(#_28-2);}.cls-17{fill:url(#_29-5);}.cls-18{fill:url(#_92-4);}.cls-19{fill:url(#_27-5);}.cls-20{fill:url(#_28-3);}.cls-21{fill:url(#_29-6);}.cls-22{fill:url(#_92-5);}.cls-23{fill:url(#_27-6);}.cls-24{fill:url(#_28-4);}.cls-25{fill:url(#_29-7);}.cls-26{fill:url(#_92-6);}.cls-27{fill:url(#_27-7);}.cls-28{fill:url(#_28-5);}.cls-29{fill:url(#_29-8);}.cls-30{fill:url(#_92-7);}.cls-31{fill:url(#_27-8);}.cls-32{fill:url(#_28-6);}.cls-33{fill:url(#_27-9);}.cls-34{fill:url(#_27-10);}.cls-35{fill:url(#_28-7);}.cls-36{fill:url(#_29-9);}.cls-37{fill:url(#_28-8);}.cls-38{fill:url(#linear-gradient);}.cls-39{fill:url(#_27-11);}.cls-40{fill:#fff;}.cls-41,.cls-42{opacity:0.6;}.cls-41{fill:url(#_21);}.cls-42{fill:url(#_26);}.cls-43{fill:url(#_27-12);}.cls-44{fill:url(#_28-9);}.cls-45{fill:url(#_28-10);}.cls-46{fill:url(#_27-13);}.cls-47{fill:url(#_18);}.cls-48{fill:url(#_18-2);}.cls-49{fill:url(#_27-14);}.cls-50{fill:url(#linear-gradient-2);}</style><linearGradient id="_92" x1="67.06" y1="139.16" x2="67.06" y2="6.9" gradientUnits="userSpaceOnUse"><stop offset="0" stop-color="#ca6b34"/><stop offset="0.67" stop-color="#ffa933"/><stop offset="1" stop-color="#ffbd2b"/></linearGradient><linearGradient id="_29" x1="49.04" y1="115.17" x2="41.79" y2="131.53" gradientUnits="userSpaceOnUse"><stop offset="0" stop-color="#ca6b34"/><stop offset="0.17" stop-color="#cc6e34"/><stop offset="0.29" stop-color="#d27733"/><stop offset="0.39" stop-color="#db8631"/><stop offset="0.48" stop-color="#e99b2f"/><stop offset="0.57" stop-color="#fbb72c"/><stop offset="0.59" stop-color="#ffbd2b"/><stop offset="1" stop-color="#ffa933"/></linearGradient><linearGradient id="_19" x1="47.18" y1="130.13" x2="47.18" y2="108.47" gradientUnits="userSpaceOnUse"><stop offset="0" stop-color="#ca6b34"/><stop offset="0.74" stop-color="#ffbd2b"/><stop offset="1" stop-color="#ffa933"/></linearGradient><linearGradient id="_27" x1="41.63" y1="131.15" x2="48.44" y2="116.63" gradientUnits="userSpaceOnUse"><stop offset="0" stop-color="#fff"/><stop offset="0.44" stop-color="#ed8a1d"/><stop offset="1" stop-color="#b41e2d"/></linearGradient><linearGradient id="_29-2" x1="84.84" y1="114.32" x2="93.17" y2="134.15" xlink:href="#_29"/><linearGradient id="_19-2" x1="86.95" y1="130.13" x2="86.95" y2="108.47" xlink:href="#_19"/><linearGradient id="_27-2" x1="90.83" y1="130.74" x2="85.55" y2="114.9" xlink:href="#_27"/><linearGradient id="_29-3" x1="44.27" y1="11.21" x2="49.7" y2="23.17" xlink:href="#_29"/><linearGradient id="_92-2" x1="42.65" y1="5.53" x2="47.41" y2="17.54" xlink:href="#_92"/><linearGradient id="_27-3" x1="49.28" y1="21.85" x2="39.96" y2="3.22" xlink:href="#_27"/><linearGradient id="_28" x1="37.3" y1="-5.53" x2="44.22" y2="14.42" gradientUnits="userSpaceOnUse"><stop offset="0" stop-color="#ebbd38"/><stop offset="1"/></linearGradient><linearGradient id="_29-4" x1="-11423.31" y1="11.21" x2="-11417.88" y2="23.17" gradientTransform="matrix(-1, 0, 0, 1, -11333.43, 0)" xlink:href="#_29"/><linearGradient id="_92-3" x1="-11424.93" y1="5.53" x2="-11420.17" y2="17.54" gradientTransform="matrix(-1, 0, 0, 1, -11333.43, 0)" xlink:href="#_92"/><linearGradient id="_27-4" x1="-11418.3" y1="21.85" x2="-11427.61" y2="3.22" gradientTransform="matrix(-1, 0, 0, 1, -11333.43, 0)" xlink:href="#_27"/><linearGradient id="_28-2" x1="-11430.27" y1="-5.53" x2="-11423.36" y2="14.42" gradientTransform="matrix(-1, 0, 0, 1, -11333.43, 0)" xlink:href="#_28"/><linearGradient id="_29-5" x1="-13151.38" y1="-5085.67" x2="-13145.94" y2="-5073.72" gradientTransform="matrix(-0.71, -0.71, -0.71, 0.71, -12780, -5641.19)" xlink:href="#_29"/><linearGradient id="_92-4" x1="-13152.99" y1="-5091.35" x2="-13148.23" y2="-5079.34" gradientTransform="matrix(-0.71, -0.71, -0.71, 0.71, -12780, -5641.19)" xlink:href="#_92"/><linearGradient id="_27-5" x1="-13146.36" y1="-5075.03" x2="-13155.68" y2="-5093.66" gradientTransform="matrix(-0.71, -0.71, -0.71, 0.71, -12780, -5641.19)" xlink:href="#_27"/><linearGradient id="_28-3" x1="-13160.92" y1="-5040.5" x2="-13154.5" y2="-5022" gradientTransform="matrix(-0.71, -0.7, -0.7, 0.71, -12789.13, -5575.51)" xlink:href="#_28"/><linearGradient id="_29-6" x1="-6565.97" y1="-11689.73" x2="-6560.53" y2="-11677.78" gradientTransform="matrix(-0.71, 0.71, -0.71, -0.71, -12780, -3548.22)" xlink:href="#_29"/><linearGradient id="_92-5" x1="-6567.59" y1="-11695.41" x2="-6562.82" y2="-11683.4" gradientTransform="matrix(-0.71, 0.71, -0.71, -0.71, -12780, -3548.22)" xlink:href="#_92"/><linearGradient id="_27-6" x1="-6560.95" y1="-11679.09" x2="-6570.27" y2="-11697.72" gradientTransform="matrix(-0.71, 0.71, -0.71, -0.71, -12780, -3548.22)" xlink:href="#_27"/><linearGradient id="_28-4" x1="-6633.05" y1="-11700.79" x2="-6626.63" y2="-11682.3" gradientTransform="matrix(-0.71, 0.7, -0.7, -0.71, -12789.13, -3613.89)" xlink:href="#_28"/><linearGradient id="_29-7" x1="-5735.59" y1="2309.16" x2="-5730.16" y2="2321.12" gradientTransform="matrix(0.71, -0.71, 0.71, 0.71, 2441.26, -5641.19)" xlink:href="#_29"/><linearGradient id="_92-6" x1="-5737.21" y1="2303.48" x2="-5732.45" y2="2315.49" gradientTransform="matrix(0.71, -0.71, 0.71, 0.71, 2441.26, -5641.19)" xlink:href="#_92"/><linearGradient id="_27-7" x1="-5730.58" y1="2319.81" x2="-5739.89" y2="2301.17" gradientTransform="matrix(0.71, -0.71, 0.71, 0.71, 2441.26, -5641.19)" xlink:href="#_27"/><linearGradient id="_28-5" x1="-5681.99" y1="2289.73" x2="-5675.58" y2="2308.22" gradientTransform="matrix(0.71, -0.7, 0.7, 0.71, 2450.38, -5575.51)" xlink:href="#_28"/><linearGradient id="_29-8" x1="849.81" y1="-4294.9" x2="855.25" y2="-4282.94" gradientTransform="matrix(0.71, 0.71, 0.71, -0.71, 2441.26, -3548.22)" xlink:href="#_29"/><linearGradient id="_92-7" x1="848.2" y1="-4300.58" x2="852.96" y2="-4288.57" gradientTransform="matrix(0.71, 0.71, 0.71, -0.71, 2441.26, -3548.22)" xlink:href="#_92"/><linearGradient id="_27-8" x1="854.83" y1="-4284.25" x2="845.51" y2="-4302.89" gradientTransform="matrix(0.71, 0.71, 0.71, -0.71, 2441.26, -3548.22)" xlink:href="#_27"/><linearGradient id="_28-6" x1="845.88" y1="-4370.56" x2="852.29" y2="-4352.07" gradientTransform="matrix(0.71, 0.7, 0.7, -0.71, 2450.38, -3613.89)" xlink:href="#_28"/><linearGradient id="_27-9" x1="67.79" y1="80.6" x2="67.79" y2="130.45" xlink:href="#_27"/><linearGradient id="_27-10" x1="67.89" y1="79.35" x2="67.89" y2="136.46" xlink:href="#_27"/><linearGradient id="_28-7" x1="67.75" y1="13.9" x2="67.75" y2="37.9" xlink:href="#_28"/><linearGradient id="_29-9" x1="67.06" y1="19.56" x2="67.06" y2="122.75" xlink:href="#_29"/><linearGradient id="_28-8" x1="67.06" y1="126.87" x2="67.06" y2="100.31" xlink:href="#_28"/><linearGradient id="linear-gradient" x1="67.06" y1="115.35" x2="67.06" y2="94.68" gradientUnits="userSpaceOnUse"><stop offset="0" stop-color="#fff"/><stop offset="1" stop-color="#fff7c4"/></linearGradient><linearGradient id="_27-11" x1="66.67" y1="54.92" x2="66.67" y2="23.01" xlink:href="#_27"/><radialGradient id="_21" cx="76.59" cy="14.71" r="11.81" gradientTransform="matrix(0.09, 0.99, -0.62, 0.15, 77.8, -58.87)" gradientUnits="userSpaceOnUse"><stop offset="0" stop-color="#f4a940"/><stop offset="0.09" stop-color="#e6a03c"/><stop offset="0.27" stop-color="#c38733"/><stop offset="0.51" stop-color="#895f24"/><stop offset="0.8" stop-color="#39280f"/><stop offset="1"/></radialGradient><radialGradient id="_26" cx="-697.75" cy="-1095.5" r="7.44" gradientTransform="matrix(1.28, 0.34, -0.22, 0.85, 698.5, 1283.24)" gradientUnits="userSpaceOnUse"><stop offset="0" stop-color="#e75a29"/><stop offset="0.18" stop-color="#ad431f"/><stop offset="0.4" stop-color="#702c14"/><stop offset="0.59" stop-color="#40190b"/><stop offset="0.77" stop-color="#1d0b05"/><stop offset="0.91" stop-color="#080301"/><stop offset="1"/></radialGradient><linearGradient id="_27-12" x1="128.55" y1="78.68" x2="128.55" y2="49.48" xlink:href="#_27"/><linearGradient id="_28-9" x1="128.55" y1="71.12" x2="128.55" y2="99.72" xlink:href="#_28"/><linearGradient id="_28-10" x1="5.47" y1="71.13" x2="5.47" y2="99.44" xlink:href="#_28"/><linearGradient id="_27-13" x1="5.46" y1="78.68" x2="5.46" y2="49.48" xlink:href="#_27"/><linearGradient id="_18" x1="50.81" y1="145.51" x2="50.81" y2="125.24" gradientUnits="userSpaceOnUse"><stop offset="0" stop-color="#d16509"/><stop offset="1" stop-color="#8d2c1b"/></linearGradient><linearGradient id="_18-2" x1="83.31" y1="145.51" x2="83.31" y2="125.24" xlink:href="#_18"/><linearGradient id="_27-14" x1="38.96" y1="67.48" x2="95.79" y2="67.48" xlink:href="#_27"/><linearGradient id="linear-gradient-2" x1="66.39" y1="95.23" x2="66.39" y2="38.39" gradientUnits="userSpaceOnUse"><stop offset="0" stop-color="#ca6b34"/><stop offset="0.13" stop-color="#cc6e34"/><stop offset="0.22" stop-color="#d27733"/><stop offset="0.3" stop-color="#db8631"/><stop offset="0.37" stop-color="#e99b2f"/><stop offset="0.43" stop-color="#fbb72c"/><stop offset="0.44" stop-color="#ffbd2b"/><stop offset="1" stop-color="#ffa933"/></linearGradient></defs><title>Asset 29</title><g class="cls-1"><g id="Layer_2" data-name="Layer 2"><g id="frame"><path class="cls-2" d="M134.08,94.45c.58-1.39-7.53-16.48-10.88-22.6a52.92,52.92,0,0,0,0-6.76c3.35-6.13,10.92-21,10.88-22.6a27.06,27.06,0,0,0,0-2.85c-.58-1.36-17.74-6.21-24.58-8.09a56.61,56.61,0,0,0-6.35-6.23C101.44,19.06,96.28.62,94.86,0c-1.69-.71-23.8,11.53-25.1,12.25-.89,0-1.79-.07-2.7-.07s-1.8,0-2.7.07C63.06,11.56,41-.68,39.26,0c-1.41.59-6.57,19-8.28,25.29a56.61,56.61,0,0,0-6.35,6.23C17.79,33.43.62,38.28.05,39.64a24.6,24.6,0,0,0,0,2.85c0,2,7.53,16.47,10.87,22.6a37.91,37.91,0,0,0,0,6.76C7.58,78-.53,93.06.05,94.45c.06.13-.12,2.56,0,2.85.57,1.36,17.74,6.21,24.58,8.09A55.67,55.67,0,0,0,31,111.61c1.71,6.26,6.87,24.7,8.28,25.29,1.7.72,23.8-11.52,25.1-12.24q1.35.06,2.7.06t2.7-.06c1.3.72,23.41,13,25.1,12.24,1.42-.59,6.58-19,8.29-25.29a55.67,55.67,0,0,0,6.35-6.22c6.84-1.88,24-6.73,24.58-8.09C134.19,97,134,94.58,134.08,94.45Zm-24.62-26a42.4,42.4,0,1,1-42.4-42.39A42.39,42.39,0,0,1,109.46,68.47Z"/><path class="cls-3" d="M57.35,123.92l.61.1a38.09,38.09,0,0,1-5.2,3.1h0c-1,.49-2,.93-2.89,1.32l-.09,0a45.91,45.91,0,0,1-8.3,2.58h0v0a59.35,59.35,0,0,1-4.68-12.54.06.06,0,0,0,0,0l0-.14c-.26-1.06-.48-2-.65-2.87l.45.29.74.47.61.38a55.57,55.57,0,0,0,18.85,7.2Z"/><path class="cls-4" d="M57.1,123.87c-3,2-8.76,5.23-15.19,6.19,0,0-2.69-4.22-4.65-13.84l.61.38a55.57,55.57,0,0,0,18.85,7.2Z"/><path class="cls-5" d="M57.35,123.92a24.68,24.68,0,0,1-4.59,3.2h0a29.92,29.92,0,0,1-2.89,1.32l-.09,0a64.91,64.91,0,0,1-8.3,2.58h0v0a54.6,54.6,0,0,1-4.68-12.54.06.06,0,0,0,0,0l0-.14a12.05,12.05,0,0,1-.2-2.58l.74.47.61.38a33.61,33.61,0,0,0,5.05,9.26,26.87,26.87,0,0,0,13.8-2.06Z"/><path class="cls-6" d="M98.06,115.46c-.17.85-.39,1.81-.65,2.87a.74.74,0,0,1,0,.14.06.06,0,0,1,0,0,59.26,59.26,0,0,1-4.67,12.54v0h0a46.84,46.84,0,0,1-8.31-2.58l-.08,0c-1-.39-1.93-.84-2.93-1.33a38,38,0,0,1-5.19-3.1l.6-.1.63-.12a55.54,55.54,0,0,0,18.86-7.2l.61-.38.74-.47Z"/><path class="cls-7" d="M96.87,116.22c-2,9.62-4.65,13.84-4.65,13.84-6.43-1-12.19-4.22-15.19-6.19h0l.37-.07a55.54,55.54,0,0,0,18.86-7.2Z"/><path class="cls-8" d="M97.41,118.33a.74.74,0,0,1,0,.14.06.06,0,0,1,0,0,54.32,54.32,0,0,1-4.67,12.54v0h0a65.09,65.09,0,0,1-8.31-2.58l-.08,0a31.34,31.34,0,0,1-2.9-1.32h0a25,25,0,0,1-4.59-3.2l.63-.12a26.91,26.91,0,0,0,13.81,2.06,33.61,33.61,0,0,0,5.05-9.26l.61-.38.74-.47A12.05,12.05,0,0,1,97.41,118.33Z"/><path class="cls-9" d="M57.35,13.08,58,13a37.1,37.1,0,0,0-5.2-3.1l0,0c-1-.48-2-.92-2.89-1.31l-.09,0a47.45,47.45,0,0,0-8.3-2.59h0a59.21,59.21,0,0,0-4.68,12.55.08.08,0,0,1,0,0l0,.13c-.26,1.06-.48,2-.65,2.87l.45-.29.74-.47.61-.38a56,56,0,0,1,18.85-7.2Z"/><path class="cls-10" d="M57.1,13.12c-3-2-8.76-5.22-15.19-6.18,0,0-2.69,4.21-4.65,13.83l.61-.38a56,56,0,0,1,18.85-7.2Z"/><path class="cls-11" d="M57.35,13.08a24.68,24.68,0,0,0-4.59-3.2l0,0c-.82-.43-1.8-.87-2.89-1.31l-.09,0a64.86,64.86,0,0,0-8.3-2.59h0a55,55,0,0,0-4.68,12.55.08.08,0,0,1,0,0l0,.13a12.11,12.11,0,0,0-.2,2.58l.74-.47.61-.38a33.9,33.9,0,0,1,5.05-9.26,27,27,0,0,1,13.8,2.06Z"/><path class="cls-12" d="M51.44,5.35C45.83,3.29,39.89,1.42,39.89,1.42,38.07,4.23,34.16,14.28,34,14.75,36,7.76,38.38.4,39.27,0s6.44,2.36,12.16,5.31Z"/><path class="cls-13" d="M76.79,13.08l-.6-.1a37,37,0,0,1,5.19-3.1l0,0c1-.48,2-.92,2.9-1.31l.08,0a47.45,47.45,0,0,1,8.3-2.59h0a59.68,59.68,0,0,1,4.67,12.55s0,0,0,0l0,.13c.27,1.06.48,2,.65,2.87l-.45-.29-.73-.47-.62-.38a56,56,0,0,0-18.85-7.2Z"/><path class="cls-14" d="M77.05,13.12c3-2,8.75-5.22,15.18-6.18,0,0,2.69,4.21,4.66,13.83l-.62-.38a56,56,0,0,0-18.85-7.2Z"/><path class="cls-15" d="M76.79,13.08a24.68,24.68,0,0,1,4.59-3.2l0,0a31.7,31.7,0,0,1,2.9-1.31l.08,0a65.88,65.88,0,0,1,8.3-2.59h0a55.31,55.31,0,0,1,4.67,12.55s0,0,0,0l0,.13a10.93,10.93,0,0,1,.2,2.58l-.73-.47-.62-.38a33.59,33.59,0,0,0-5-9.26,27,27,0,0,0-13.81,2.06Z"/><path class="cls-16" d="M82.71,5.35c5.6-2.06,11.54-3.93,11.54-3.93,1.82,2.81,5.74,12.86,5.92,13.33C98.12,7.76,95.76.4,94.88,0S88.43,2.39,82.71,5.34Z"/><path class="cls-17" d="M112.89,35.92l-.35-.5a37.48,37.48,0,0,1,5.86,1.48h0c1,.36,2,.73,3,1.12l.09,0a46.82,46.82,0,0,1,7.7,4h0v0a59.77,59.77,0,0,1-5.55,12.18l0,0a.75.75,0,0,0-.07.12c-.56.94-1.09,1.78-1.57,2.49,0-.17-.07-.35-.11-.52s-.13-.57-.19-.85-.11-.47-.17-.7a55.92,55.92,0,0,0-8.26-18.42Z"/><path class="cls-18" d="M113,36.13c3.51.73,9.89,2.48,15.12,6.35,0,0-1.07,4.88-6.47,13.08-.06-.24-.11-.47-.17-.7a55.92,55.92,0,0,0-8.26-18.42Z"/><path class="cls-19" d="M112.89,35.92a24.78,24.78,0,0,1,5.51,1h0c.89.28,1.9.66,3,1.12l.09,0a65.56,65.56,0,0,1,7.7,4h0v0a55,55,0,0,1-5.55,12.18l0,0a.75.75,0,0,0-.07.12,11.86,11.86,0,0,1-1.68,2c-.06-.28-.13-.57-.19-.85s-.11-.47-.17-.7a34,34,0,0,0,3-10.13,27,27,0,0,0-11.23-8.29Z"/><path class="cls-20" d="M122.33,35.24c5,2.28,10.19,4.89,10.19,4.89-.61,3-4.54,12.23-4.73,12.66,3.18-6,6.39-12.36,6-13.18S128,37,122.34,35.24Z"/><path class="cls-21" d="M112.89,101c-.12.16-.23.33-.35.5A38.62,38.62,0,0,0,118.4,100h0c1-.35,2-.73,3-1.11l.09,0a47.73,47.73,0,0,0,7.7-4h0a59.27,59.27,0,0,0-5.55-12.18s0,0,0,0a.75.75,0,0,1-.07-.12C123,81.5,122.47,80.67,122,80c0,.18-.07.35-.11.52s-.13.57-.19.86-.11.47-.17.7a55.87,55.87,0,0,1-8.26,18.41Z"/><path class="cls-22" d="M113,100.76c3.51-.73,9.89-2.49,15.12-6.35,0,0-1.07-4.88-6.47-13.08-.06.23-.11.47-.17.7a55.87,55.87,0,0,1-8.26,18.41Z"/><path class="cls-23" d="M112.89,101a24.78,24.78,0,0,0,5.51-1h0a30.09,30.09,0,0,0,3-1.11l.09,0a67.11,67.11,0,0,0,7.7-4h0a54.83,54.83,0,0,0-5.55-12.18s0,0,0,0a.75.75,0,0,1-.07-.12,12.28,12.28,0,0,0-1.68-2c-.06.29-.13.57-.19.86s-.11.47-.17.7a34,34,0,0,1,3,10.12,27,27,0,0,1-11.23,8.29Z"/><path class="cls-24" d="M122.33,101.65c5-2.28,10.19-4.89,10.19-4.89-.61-3-4.54-12.24-4.73-12.67,3.18,6,6.39,12.36,6,13.18s-5.8,2.62-11.5,4.38Z"/><path class="cls-25" d="M21,35.92l.36-.5a37.6,37.6,0,0,0-5.87,1.48h0c-1,.36-2,.73-3,1.12l-.08,0a46.82,46.82,0,0,0-7.7,4h0v0a59.78,59.78,0,0,0,5.54,12.18l0,0a.75.75,0,0,0,.07.12c.56.94,1.09,1.78,1.57,2.49,0-.17.07-.35.11-.52s.12-.57.19-.85.11-.47.16-.7a56.15,56.15,0,0,1,8.27-18.42Z"/><path class="cls-26" d="M20.82,36.13c-3.5.73-9.89,2.48-15.12,6.35,0,0,1.08,4.88,6.48,13.08.05-.24.11-.47.16-.7a56.15,56.15,0,0,1,8.27-18.42Z"/><path class="cls-27" d="M21,35.92a24.87,24.87,0,0,0-5.51,1h0c-.89.28-1.9.66-3,1.12l-.08,0a64,64,0,0,0-7.7,4h0v0a54.72,54.72,0,0,0,5.54,12.18l0,0a.75.75,0,0,0,.07.12,11.41,11.41,0,0,0,1.68,2c.06-.28.12-.57.19-.85s.11-.47.16-.7a34,34,0,0,1-3-10.13,27,27,0,0,1,11.23-8.29Z"/><path class="cls-28" d="M11.53,35.24c-5,2.28-10.19,4.89-10.19,4.89.62,3,4.55,12.23,4.73,12.66-3.17-6-6.39-12.36-6-13.18S5.82,37,11.52,35.24Z"/><path class="cls-29" d="M21,101l.36.5A38.75,38.75,0,0,1,15.46,100h0c-1-.35-2-.73-3-1.11a.2.2,0,0,0-.08,0,47.73,47.73,0,0,1-7.7-4h0A59.29,59.29,0,0,1,10.21,82.6l0,0a.75.75,0,0,1,.07-.12c.56-.94,1.09-1.77,1.57-2.49,0,.18.07.35.11.52s.12.57.19.86.11.47.16.7a56.1,56.1,0,0,0,8.27,18.41Z"/><path class="cls-30" d="M20.82,100.76c-3.5-.73-9.89-2.49-15.12-6.35,0,0,1.08-4.88,6.48-13.08.05.23.11.47.16.7a56.1,56.1,0,0,0,8.27,18.41Z"/><path class="cls-31" d="M21,101a24.87,24.87,0,0,1-5.51-1h0a30.09,30.09,0,0,1-3-1.11.2.2,0,0,0-.08,0,65.5,65.5,0,0,1-7.7-4h0A54.5,54.5,0,0,1,10.21,82.6l0,0a.75.75,0,0,1,.07-.12,11.79,11.79,0,0,1,1.68-2c.06.29.12.57.19.86s.11.47.16.7a34,34,0,0,0-3,10.12,27,27,0,0,0,11.23,8.29Z"/><path class="cls-32" d="M11.53,101.65c-5-2.28-10.19-4.89-10.19-4.89.62-3,4.55-12.24,4.73-12.67-3.17,6-6.39,12.36-6,13.18s5.79,2.62,11.49,4.38Z"/><path class="cls-33" d="M119.37,89.17A56.26,56.26,0,0,1,16.21,92.5C36.94,111.6,79.09,129.44,119.37,89.17Z"/><path class="cls-34" d="M116,103.55c-2.53.73-4.85,1.37-6.53,1.84a55.67,55.67,0,0,1-6.35,6.22c-.49,1.79-1.26,4.58-2.15,7.67a69.72,69.72,0,0,1-21.82,10.47c-4.76-2.51-8.88-4.79-9.42-5.09q-1.33.06-2.7.06t-2.7-.06c-.54.3-4.78,2.65-9.63,5.21a63.05,63.05,0,0,1-21.48-10.16c-.94-3.25-1.76-6.22-2.27-8.1a55.67,55.67,0,0,1-6.35-6.22c-1.41-.39-3.26-.9-5.31-1.49a28.6,28.6,0,0,1-3.11-11.4c14.93,24.7,65,54.1,103.16-3.33C120.09,93.88,118.78,98.8,116,103.55Z"/><path class="cls-35" d="M67.06,12.21A56.27,56.27,0,0,0,13.17,52.32C22.38,32,43.28,22.17,67.06,22.17c26,0,47.54,12.48,55.27,35.83A56.26,56.26,0,0,0,67.06,12.21Z"/><path class="cls-36" d="M67.06,22.17a46.29,46.29,0,1,0,46.29,46.29A46.28,46.28,0,0,0,67.06,22.17Zm0,88.68a42.4,42.4,0,1,1,42.4-42.39A42.4,42.4,0,0,1,67.06,110.85Z"/><path class="cls-37" d="M29.81,95.92s12.4,14.93,37.25,14.93,37.26-14.93,37.26-14.93-12.1,19.49-37.26,19.49S29.81,95.92,29.81,95.92Z"/><path class="cls-38" d="M29.81,95.92a46.28,46.28,0,0,0,74.51,0s-12.1,19.49-37.26,19.49S29.81,95.92,29.81,95.92Z"/><path class="cls-39" d="M111.61,55.86c-1.09-.62-2.76-1.64-5.22-3.28h0A42.42,42.42,0,0,0,27.19,54a43.07,43.07,0,0,1-5.45,5.05,46.29,46.29,0,0,1,89.87-3.2Z"/><path class="cls-40" d="M67.06,17.6C65.22,20,79.91,23.85,81.67,22.17s.1-4.16-3.21-4.57S68.51,15.73,67.06,17.6Z"/><path class="cls-40" d="M63.79,115.3c-1.07-2,10.5-4,12.13-2.53s-1.28,2-1.28,2Z"/><ellipse class="cls-41" cx="75.92" cy="19.06" rx="7.41" ry="11.81" transform="translate(45.63 91.24) rotate(-81.32)"/><path class="cls-42" d="M56.92,122.1c-.92,3.48-5.94,5.17-11.22,3.78s-8.81-5.34-7.89-8.82,5.94-5.17,11.22-3.78S57.84,118.62,56.92,122.1Z"/><path class="cls-43" d="M134.08,42.49c0,1.56-7.53,16.47-10.88,22.6L123,61.44s9.53-14.81,10.87-21.82l.29.58h0C134.14,41,134.07,42.38,134.08,42.49Z"/><path class="cls-44" d="M134.08,97.3a.76.76,0,0,1-.18.2l-.06-.23C131.56,88.94,123,75.47,123,75.47l.23-3.62c3.35,6.12,11.46,21.21,10.88,22.6C134,94.58,134.2,97,134.08,97.3Z"/><path class="cls-45" d="M10.92,71.85V76A103.41,103.41,0,0,0,0,97.24c-.09-.46.07-2.67,0-2.79C-.53,93.06,7.58,78,10.92,71.85Z"/><path class="cls-46" d="M10.92,60.67v4.42C7.58,59,0,44.52.05,42.49c0-.14-.11-2.45,0-2.83C4.9,53.21,10.92,60.67,10.92,60.67Z"/><path class="cls-47" d="M61.86,124.46l2.5.2c-1.3.72-23.4,13-25.09,12.24-.42-.17-1.14-1.85-2-4.3.1.2,1.65,3.39,2.48,3.39S61.86,124.46,61.86,124.46Z"/><path class="cls-48" d="M96.86,132.62c-.86,2.44-1.59,4.11-2,4.28-1.69.72-23.79-11.52-25.1-12.24l3.14-.26s14.89,9.33,21,11.2C95.39,136.07,96.75,132.89,96.86,132.62Z"/><path class="cls-49" d="M95.18,80.58a24.34,24.34,0,0,0-2.72-.21,13.53,13.53,0,0,1-9.17-6.74,13.19,13.19,0,0,1-1-9.91c1.31-4.36,3-6,6.37-7.79a12.2,12.2,0,0,1,4.21-1.42,13.59,13.59,0,0,0,2.31-.21.88.88,0,0,0,.62-.52c0-.09,0-.26-.05-.31-.56-.52-3.28-.56-4.18-.79A13.14,13.14,0,0,1,81.8,41c0-.47.1-1.46-.22-1.79a1.64,1.64,0,0,0-.82-.11.49.49,0,0,0-.31.41c-.19.88,0,1.87-.19,2.77a13.33,13.33,0,0,1-5.67,8.59,13,13,0,0,1-9.67,2A13.08,13.08,0,0,1,54.3,40.32c0-.41,0-1-.31-1.22a4.33,4.33,0,0,0-.88,0c-.18,1.11-.16,2.24-.36,3.35a13.2,13.2,0,0,1-5.25,8.21c-2.54,1.84-4.93,2.27-8,2.5a.68.68,0,0,0-.57.27,1.39,1.39,0,0,0,.13.8,27.59,27.59,0,0,0,3.75.52,13.21,13.21,0,0,1,9.46,8.62,12.94,12.94,0,0,1-.71,10A13.22,13.22,0,0,1,44,79.87c-1.79.58-2.88.36-4.46.7a.57.57,0,0,0-.53.92c.8.74,2.76.37,3.82.63A13.4,13.4,0,0,1,53,94.35a3.67,3.67,0,0,0,.13,1.41,1,1,0,0,0,.69.12,1,1,0,0,0,.45-.77c.12-.76,0-1.54.16-2.3a13.43,13.43,0,0,1,5.23-8.45A13.18,13.18,0,0,1,69.53,82a13,13,0,0,1,8.38,5.22,13.29,13.29,0,0,1,2.52,7.65c0,.33,0,.82.4.9a3.74,3.74,0,0,0,.75,0c.41-.73.18-2.26.34-3.14a13.19,13.19,0,0,1,9.4-10.37,14.17,14.17,0,0,1,2.81-.44,11.14,11.14,0,0,0,1.16,0,.52.52,0,0,0,.37-.24,1.06,1.06,0,0,0,0-.5C95.57,80.82,95.49,80.68,95.18,80.58ZM77.37,75.81a13,13,0,0,1-8.72,4.63,13.09,13.09,0,0,1-9.36-2.72,13.07,13.07,0,0,1,7-23.29A13.05,13.05,0,0,1,77.37,75.81Z"/><path class="cls-50" d="M94.2,79.91c-.84-.27-1.85,0-2.72-.21A13.53,13.53,0,0,1,82.31,73a13,13,0,0,1,5.36-17.69,11.8,11.8,0,0,1,4.21-1.42,14.7,14.7,0,0,0,2.31-.22.88.88,0,0,0,.62-.52c0-.08,0-.26,0-.31-.56-.52-3.28-.56-4.18-.79a13.13,13.13,0,0,1-9.76-11.67c0-.47.1-1.47-.22-1.8a1.76,1.76,0,0,0-.82-.11.49.49,0,0,0-.31.41c-.19.89,0,1.87-.19,2.77a13.33,13.33,0,0,1-5.67,8.59,12.92,12.92,0,0,1-9.67,2A13.08,13.08,0,0,1,53.32,39.65c0-.4,0-.95-.31-1.22a5.19,5.19,0,0,0-.88,0c-.18,1.11-.16,2.24-.36,3.36A13.15,13.15,0,0,1,46.52,50c-2.54,1.84-4.92,2.28-8,2.5a.68.68,0,0,0-.57.27,1.38,1.38,0,0,0,.13.8c.64.33,2.86.35,3.75.52a13.23,13.23,0,0,1,9.46,8.62,13,13,0,0,1-.71,10,13.24,13.24,0,0,1-7.55,6.56c-1.78.58-2.88.36-4.46.7a.87.87,0,0,0-.58.3.89.89,0,0,0,0,.62c.8.74,2.76.37,3.82.64A13.38,13.38,0,0,1,52,93.69a3.84,3.84,0,0,0,.13,1.4,1,1,0,0,0,.69.13,1,1,0,0,0,.46-.78c.11-.76,0-1.54.16-2.3a13.35,13.35,0,0,1,5.22-8.44,13.14,13.14,0,0,1,9.87-2.34,13,13,0,0,1,8.38,5.21,13.29,13.29,0,0,1,2.52,7.65c0,.33,0,.82.4.91a4.67,4.67,0,0,0,.75,0c.41-.72.19-2.25.35-3.14a13.15,13.15,0,0,1,9.4-10.36,12.66,12.66,0,0,1,2.8-.44,11.13,11.13,0,0,0,1.16,0,.48.48,0,0,0,.37-.24.94.94,0,0,0,0-.5A.82.82,0,0,0,94.2,79.91ZM76.39,75.14a13,13,0,0,1-18.07,1.92A13.05,13.05,0,1,1,79.37,65.49,13,13,0,0,1,76.39,75.14Z"/><path class="cls-40" d="M68.62,52.16c-.56.72,3.89,1.9,4.43,1.39s0-1.26-1-1.39S69.06,51.6,68.62,52.16Z"/></g></g></g></svg>