<svg xmlns="http://www.w3.org/2000/svg" xmlns:xlink="http://www.w3.org/1999/xlink" viewBox="0 0 191.11 219.36"><defs><style>.cls-1{isolation:isolate;}.cls-2{fill:url(#_92);}.cls-100,.cls-101,.cls-103,.cls-105,.cls-106,.cls-107,.cls-108,.cls-110,.cls-112,.cls-113,.cls-114,.cls-115,.cls-117,.cls-119,.cls-120,.cls-122,.cls-124,.cls-125,.cls-126,.cls-127,.cls-129,.cls-131,.cls-132,.cls-133,.cls-134,.cls-136,.cls-138,.cls-139,.cls-143,.cls-146,.cls-149,.cls-150,.cls-153,.cls-154,.cls-157,.cls-158,.cls-16,.cls-161,.cls-162,.cls-165,.cls-166,.cls-169,.cls-17,.cls-170,.cls-171,.cls-172,.cls-173,.cls-175,.cls-177,.cls-181,.cls-182,.cls-183,.cls-184,.cls-187,.cls-19,.cls-192,.cls-196,.cls-197,.cls-198,.cls-203,.cls-207,.cls-208,.cls-209,.cls-21,.cls-211,.cls-22,.cls-222,.cls-224,.cls-235,.cls-237,.cls-26,.cls-260,.cls-28,.cls-29,.cls-3,.cls-33,.cls-35,.cls-36,.cls-40,.cls-42,.cls-43,.cls-47,.cls-49,.cls-5,.cls-50,.cls-54,.cls-56,.cls-57,.cls-63,.cls-65,.cls-67,.cls-68,.cls-69,.cls-70,.cls-72,.cls-74,.cls-75,.cls-76,.cls-77,.cls-79,.cls-81,.cls-82,.cls-84,.cls-86,.cls-87,.cls-88,.cls-89,.cls-91,.cls-93,.cls-94,.cls-95,.cls-96,.cls-98{opacity:0.5;}.cls-103,.cls-107,.cls-108,.cls-11,.cls-110,.cls-114,.cls-115,.cls-117,.cls-12,.cls-122,.cls-126,.cls-127,.cls-129,.cls-13,.cls-133,.cls-134,.cls-136,.cls-14,.cls-143,.cls-146,.cls-149,.cls-15,.cls-153,.cls-157,.cls-161,.cls-165,.cls-169,.cls-171,.cls-172,.cls-177,.cls-181,.cls-184,.cls-187,.cls-189,.cls-19,.cls-190,.cls-192,.cls-198,.cls-200,.cls-201,.cls-203,.cls-209,.cls-21,.cls-211,.cls-222,.cls-224,.cls-235,.cls-237,.cls-26,.cls-28,.cls-3,.cls-33,.cls-35,.cls-40,.cls-42,.cls-47,.cls-49,.cls-5,.cls-54,.cls-56,.cls-63,.cls-65,.cls-69,.cls-70,.cls-72,.cls-76,.cls-77,.cls-79,.cls-84,.cls-88,.cls-89,.cls-91,.cls-95,.cls-96,.cls-98{mix-blend-mode:multiply;}.cls-3{fill:url(#_27);}.cls-4{fill:url(#_92-2);}.cls-5{fill:url(#_27-2);}.cls-6{fill:url(#_296);}.cls-7{fill:url(#_341);}.cls-8{fill:url(#_335);}.cls-9{fill:url(#_335-2);}.cls-10{fill:url(#_335-3);}.cls-11,.cls-12,.cls-13,.cls-14,.cls-15,.cls-190,.cls-201{opacity:0.8;}.cls-11{fill:url(#_338);}.cls-12{fill:url(#_338-2);}.cls-13{fill:url(#_338-3);}.cls-14{fill:url(#_338-4);}.cls-15{fill:url(#_338-5);}.cls-100,.cls-101,.cls-105,.cls-106,.cls-112,.cls-113,.cls-119,.cls-120,.cls-124,.cls-125,.cls-131,.cls-132,.cls-138,.cls-139,.cls-150,.cls-154,.cls-158,.cls-16,.cls-162,.cls-166,.cls-17,.cls-170,.cls-173,.cls-175,.cls-179,.cls-180,.cls-182,.cls-183,.cls-193,.cls-196,.cls-197,.cls-204,.cls-207,.cls-208,.cls-22,.cls-24,.cls-251,.cls-252,.cls-253,.cls-255,.cls-257,.cls-259,.cls-29,.cls-31,.cls-36,.cls-38,.cls-43,.cls-45,.cls-50,.cls-52,.cls-57,.cls-59,.cls-67,.cls-68,.cls-74,.cls-75,.cls-81,.cls-82,.cls-86,.cls-87,.cls-93,.cls-94{mix-blend-mode:color-dodge;}.cls-16{fill:url(#_28);}.cls-17{fill:url(#_28-2);}.cls-18{fill:url(#_92-3);}.cls-19{fill:url(#_27-3);}.cls-20{fill:url(#_92-4);}.cls-21{fill:url(#_27-4);}.cls-22{fill:url(#_28-3);}.cls-23{fill:url(#linear-gradient);}.cls-179,.cls-180,.cls-24,.cls-251,.cls-252,.cls-253,.cls-255,.cls-257,.cls-259,.cls-31,.cls-38,.cls-45,.cls-52,.cls-59{opacity:0.6;}.cls-24{fill:url(#_21);}.cls-25{fill:url(#_92-5);}.cls-26{fill:url(#_27-5);}.cls-27{fill:url(#_92-6);}.cls-28{fill:url(#_27-6);}.cls-29{fill:url(#_28-4);}.cls-30{fill:url(#linear-gradient-2);}.cls-31{fill:url(#_21-2);}.cls-32{fill:url(#_92-7);}.cls-33{fill:url(#_27-7);}.cls-34{fill:url(#_92-8);}.cls-35{fill:url(#_27-8);}.cls-36{fill:url(#_28-5);}.cls-37{fill:url(#linear-gradient-3);}.cls-38{fill:url(#_21-3);}.cls-39{fill:url(#_92-9);}.cls-40{fill:url(#_27-9);}.cls-41{fill:url(#_92-10);}.cls-42{fill:url(#_27-10);}.cls-43{fill:url(#_28-6);}.cls-44{fill:url(#linear-gradient-4);}.cls-45{fill:url(#_21-4);}.cls-46{fill:url(#_92-11);}.cls-47{fill:url(#_27-11);}.cls-48{fill:url(#_92-12);}.cls-49{fill:url(#_27-12);}.cls-50{fill:url(#_28-7);}.cls-51{fill:url(#linear-gradient-5);}.cls-52{fill:url(#_21-5);}.cls-53{fill:url(#_92-13);}.cls-54{fill:url(#_27-13);}.cls-55{fill:url(#_92-14);}.cls-56{fill:url(#_27-14);}.cls-57{fill:url(#_28-8);}.cls-58{fill:url(#linear-gradient-6);}.cls-59{fill:url(#_21-6);}.cls-60{fill:url(#_92-15);}.cls-61{fill:#ffba2c;}.cls-62{fill:url(#_92-16);}.cls-63{fill:url(#_27-15);}.cls-64{fill:url(#_92-17);}.cls-65{fill:url(#_27-16);}.cls-66{fill:url(#_79);}.cls-67{fill:url(#_28-9);}.cls-68{fill:url(#_28-10);}.cls-69{fill:url(#_27-17);}.cls-70{fill:url(#_27-18);}.cls-71{fill:url(#_92-18);}.cls-72{fill:url(#_27-19);}.cls-73{fill:url(#_79-2);}.cls-74{fill:url(#_28-11);}.cls-75{fill:url(#_28-12);}.cls-76{fill:url(#_27-20);}.cls-77{fill:url(#_27-21);}.cls-78{fill:url(#_92-19);}.cls-79{fill:url(#_27-22);}.cls-80{fill:url(#_79-3);}.cls-81{fill:url(#_28-13);}.cls-82{fill:url(#_28-14);}.cls-83{fill:url(#_92-20);}.cls-84{fill:url(#_27-23);}.cls-85{fill:url(#_79-4);}.cls-86{fill:url(#_28-15);}.cls-87{fill:url(#_28-16);}.cls-88{fill:url(#_27-24);}.cls-89{fill:url(#_27-25);}.cls-90{fill:url(#_92-21);}.cls-91{fill:url(#_27-26);}.cls-92{fill:url(#_79-5);}.cls-93{fill:url(#_28-17);}.cls-94{fill:url(#_28-18);}.cls-95{fill:url(#_27-27);}.cls-96{fill:url(#_27-28);}.cls-97{fill:url(#_92-22);}.cls-98{fill:url(#_27-29);}.cls-99{fill:url(#_79-6);}.cls-100{fill:url(#_28-19);}.cls-101{fill:url(#_28-20);}.cls-102{fill:url(#_92-23);}.cls-103{fill:url(#_27-30);}.cls-104{fill:url(#_79-7);}.cls-105{fill:url(#_28-21);}.cls-106{fill:url(#_28-22);}.cls-107{fill:url(#_27-31);}.cls-108{fill:url(#_27-32);}.cls-109{fill:url(#_92-24);}.cls-110{fill:url(#_27-33);}.cls-111{fill:url(#_79-8);}.cls-112{fill:url(#_28-23);}.cls-113{fill:url(#_28-24);}.cls-114{fill:url(#_27-34);}.cls-115{fill:url(#_27-35);}.cls-116{fill:url(#_92-25);}.cls-117{fill:url(#_27-36);}.cls-118{fill:url(#_79-9);}.cls-119{fill:url(#_28-25);}.cls-120{fill:url(#_28-26);}.cls-121{fill:url(#_92-26);}.cls-122{fill:url(#_27-37);}.cls-123{fill:url(#_79-10);}.cls-124{fill:url(#_28-27);}.cls-125{fill:url(#_28-28);}.cls-126{fill:url(#_27-38);}.cls-127{fill:url(#_27-39);}.cls-128{fill:url(#_92-27);}.cls-129{fill:url(#_27-40);}.cls-130{fill:url(#_79-11);}.cls-131{fill:url(#_28-29);}.cls-132{fill:url(#_28-30);}.cls-133{fill:url(#_27-41);}.cls-134{fill:url(#_27-42);}.cls-135{fill:url(#_92-28);}.cls-136{fill:url(#_27-43);}.cls-137{fill:url(#_79-12);}.cls-138{fill:url(#_28-31);}.cls-139{fill:url(#_28-32);}.cls-140{fill:url(#_92-29);}.cls-141{fill:url(#_29);}.cls-142{fill:url(#_19);}.cls-143{fill:url(#_27-44);}.cls-144{fill:url(#_29-2);}.cls-145{fill:url(#_19-2);}.cls-146{fill:url(#_27-45);}.cls-147{fill:url(#_29-3);}.cls-148{fill:url(#_92-30);}.cls-149{fill:url(#_27-46);}.cls-150{fill:url(#_28-33);}.cls-151{fill:url(#_29-4);}.cls-152{fill:url(#_92-31);}.cls-153{fill:url(#_27-47);}.cls-154{fill:url(#_28-34);}.cls-155{fill:url(#_29-5);}.cls-156{fill:url(#_92-32);}.cls-157{fill:url(#_27-48);}.cls-158{fill:url(#_28-35);}.cls-159{fill:url(#_29-6);}.cls-160{fill:url(#_92-33);}.cls-161{fill:url(#_27-49);}.cls-162{fill:url(#_28-36);}.cls-163{fill:url(#_29-7);}.cls-164{fill:url(#_92-34);}.cls-165{fill:url(#_27-50);}.cls-166{fill:url(#_28-37);}.cls-167{fill:url(#_29-8);}.cls-168{fill:url(#_92-35);}.cls-169{fill:url(#_27-51);}.cls-170{fill:url(#_28-38);}.cls-171{fill:url(#_27-52);}.cls-172{fill:url(#_27-53);}.cls-173{fill:url(#_28-39);}.cls-174{fill:url(#_29-9);}.cls-175{fill:url(#_28-40);}.cls-176{fill:url(#linear-gradient-7);}.cls-177{fill:url(#_27-54);}.cls-178{fill:#fff;}.cls-179{fill:url(#_21-7);}.cls-180{fill:url(#_26);}.cls-181{fill:url(#_27-55);}.cls-182{fill:url(#_28-41);}.cls-183{fill:url(#_28-42);}.cls-184{fill:url(#_27-56);}.cls-185{fill:url(#_18);}.cls-186{fill:url(#_18-2);}.cls-187{fill:url(#_27-57);}.cls-188{fill:url(#_941);}.cls-189,.cls-200{opacity:0.7;}.cls-189{fill:url(#_20);}.cls-190{fill:url(#_963);}.cls-191{fill:url(#_508);}.cls-192{fill:url(#_449);}.cls-193,.cls-204{opacity:0.3;}.cls-193{fill:url(#_445);}.cls-194{fill:url(#linear-gradient-8);}.cls-195{fill:url(#_18-3);}.cls-196{fill:url(#_6);}.cls-197{fill:url(#_479);}.cls-198{fill:url(#_27-58);}.cls-199{fill:url(#_941-2);}.cls-200{fill:url(#_20-2);}.cls-201{fill:url(#_963-2);}.cls-202{fill:url(#_508-2);}.cls-203{fill:url(#_449-2);}.cls-204{fill:url(#_445-2);}.cls-205{fill:url(#linear-gradient-9);}.cls-206{fill:url(#_18-4);}.cls-207{fill:url(#_6-2);}.cls-208{fill:url(#_479-2);}.cls-209{fill:url(#_27-59);}.cls-210{fill:url(#_264);}.cls-211{fill:url(#_27-60);}.cls-212{fill:url(#_92-36);}.cls-213{fill:url(#_180);}.cls-214{fill:url(#_18-5);}.cls-215{fill:url(#_499);}.cls-216{fill:url(#_490);}.cls-217{fill:url(#_490-2);}.cls-218{fill:url(#_490-3);}.cls-219{fill:url(#_490-4);}.cls-220{fill:url(#linear-gradient-10);}.cls-221{fill:url(#linear-gradient-11);}.cls-222{fill:url(#_27-61);}.cls-223{fill:url(#_264-2);}.cls-224{fill:url(#_27-62);}.cls-225{fill:url(#_92-37);}.cls-226{fill:url(#_180-2);}.cls-227{fill:url(#_18-6);}.cls-228{fill:url(#_499-2);}.cls-229{fill:url(#_490-5);}.cls-230{fill:url(#_490-6);}.cls-231{fill:url(#_490-7);}.cls-232{fill:url(#_490-8);}.cls-233{fill:url(#linear-gradient-12);}.cls-234{fill:url(#linear-gradient-13);}.cls-235{fill:url(#_27-63);}.cls-236{fill:url(#_264-3);}.cls-237{fill:url(#_27-64);}.cls-238{fill:url(#_92-38);}.cls-239{fill:url(#_180-3);}.cls-240{fill:url(#_18-7);}.cls-241{fill:url(#_499-3);}.cls-242{fill:url(#_490-9);}.cls-243{fill:url(#_490-10);}.cls-244{fill:url(#_490-11);}.cls-245{fill:url(#_490-12);}.cls-246{fill:url(#linear-gradient-14);}.cls-247{fill:url(#linear-gradient-15);}.cls-248{fill:url(#_92-39);}.cls-249{fill:url(#_92-40);}.cls-250{fill:url(#_92-41);}.cls-251{fill:url(#_21-8);}.cls-252{fill:url(#_21-9);}.cls-253{fill:url(#_21-10);}.cls-254{fill:url(#_92-42);}.cls-255{fill:url(#_21-11);}.cls-256{fill:url(#_92-43);}.cls-257{fill:url(#_21-12);}.cls-258{fill:url(#_92-44);}.cls-259{fill:url(#_21-13);}.cls-260{fill:url(#_27-65);}.cls-261{fill:url(#linear-gradient-16);}</style><linearGradient id="_92" x1="22.13" y1="14.71" x2="20.27" y2="9.11" gradientUnits="userSpaceOnUse"><stop offset="0" stop-color="#ca6b34"/><stop offset="0.67" stop-color="#ffa933"/><stop offset="1" stop-color="#ffbd2b"/></linearGradient><linearGradient id="_27" x1="23.2" y1="13.37" x2="23.77" y2="12.18" gradientUnits="userSpaceOnUse"><stop offset="0" stop-color="#fff"/><stop offset="0.44" stop-color="#ed8a1d"/><stop offset="1" stop-color="#b41e2d"/></linearGradient><linearGradient id="_92-2" x1="-828.28" y1="14.71" x2="-830.14" y2="9.11" gradientTransform="matrix(-1, 0, 0, 1, -650.02, 0)" xlink:href="#_92"/><linearGradient id="_27-2" x1="-827.21" y1="13.37" x2="-826.64" y2="12.18" gradientTransform="matrix(-1, 0, 0, 1, -650.02, 0)" xlink:href="#_27"/><linearGradient id="_296" x1="180.39" y1="116.06" x2="-96.31" y2="116.06" gradientUnits="userSpaceOnUse"><stop offset="0" stop-color="#de3c14"/><stop offset="0.7" stop-color="#750a0a"/><stop offset="0.75" stop-color="#800b0b"/><stop offset="0.84" stop-color="#9c0c0c"/><stop offset="0.96" stop-color="#ca0e0e"/><stop offset="1" stop-color="#db0f0f"/></linearGradient><linearGradient id="_341" x1="212.38" y1="116.06" x2="118.58" y2="116.06" gradientUnits="userSpaceOnUse"><stop offset="0" stop-color="#de3c14"/><stop offset="1" stop-color="#750a0a"/></linearGradient><linearGradient id="_335" x1="58.36" y1="192.59" x2="36.62" y2="192.59" gradientUnits="userSpaceOnUse"><stop offset="0" stop-color="#ca6b34"/><stop offset="0.18" stop-color="#cc6e34"/><stop offset="0.31" stop-color="#d27733"/><stop offset="0.42" stop-color="#dc8731"/><stop offset="0.53" stop-color="#eb9e2e"/><stop offset="0.63" stop-color="#febb2b"/><stop offset="0.64" stop-color="#ffbd2b"/><stop offset="0.8" stop-color="#ffba2c"/><stop offset="0.92" stop-color="#ffb130"/><stop offset="0.97" stop-color="#ffa933"/></linearGradient><linearGradient id="_335-2" x1="125.42" y1="212.82" x2="75.37" y2="212.82" xlink:href="#_335"/><linearGradient id="_335-3" x1="169.21" y1="191.33" x2="145.69" y2="191.33" xlink:href="#_335"/><linearGradient id="_338" x1="25.95" y1="30.98" x2="67.01" y2="30.98" gradientUnits="userSpaceOnUse"><stop offset="0" stop-color="#fff"/><stop offset="1" stop-color="#b41e2d"/></linearGradient><linearGradient id="_338-2" x1="-490.51" y1="30.98" x2="-449.46" y2="30.98" gradientTransform="matrix(-1, 0, 0, 1, -317.41, 0)" xlink:href="#_338"/><linearGradient id="_338-3" x1="46.56" y1="196.71" x2="45.94" y2="172.01" xlink:href="#_338"/><linearGradient id="_338-4" x1="-473.93" y1="196.54" x2="-474.59" y2="170.24" gradientTransform="matrix(-1, 0, 0, 1, -318.08, 0)" xlink:href="#_338"/><linearGradient id="_338-5" x1="100.99" y1="214.9" x2="100.09" y2="178.89" xlink:href="#_338"/><linearGradient id="_28" x1="28.84" y1="29.57" x2="63.93" y2="29.57" gradientUnits="userSpaceOnUse"><stop offset="0" stop-color="#ebbd38"/><stop offset="1"/></linearGradient><linearGradient id="_28-2" x1="861.96" y1="29.57" x2="897.04" y2="29.57" gradientTransform="matrix(-1, 0, 0, 1, 1034.01, 0)" xlink:href="#_28"/><linearGradient id="_92-3" x1="-5074.97" y1="86.85" x2="-5074.97" y2="18.15" gradientTransform="matrix(-1, 0, 0, 1, -4974.32, -21.63)" xlink:href="#_92"/><linearGradient id="_27-3" x1="-5074.97" y1="70.12" x2="-5074.97" y2="35.78" gradientTransform="matrix(-1, 0, 0, 1, -4974.32, -21.63)" xlink:href="#_27"/><linearGradient id="_92-4" x1="-5075" y1="5.04" x2="-5075" y2="64.19" gradientTransform="matrix(-1, 0, 0, 1, -4974.32, -21.63)" xlink:href="#_92"/><linearGradient id="_27-4" x1="-5075.19" y1="65.41" x2="-5075.19" y2="31.18" gradientTransform="matrix(-1, 0, 0, 1, -4974.32, -21.63)" xlink:href="#_27"/><linearGradient id="_28-3" x1="-5071.26" y1="23.99" x2="-5073.64" y2="37.44" gradientTransform="matrix(-1, 0, 0, 1, -4974.32, -21.63)" xlink:href="#_28"/><linearGradient id="linear-gradient" x1="-5066.74" y1="38.8" x2="-5066.74" y2="25.88" gradientTransform="matrix(-1, 0, 0, 1, -4974.32, -21.63)" gradientUnits="userSpaceOnUse"><stop offset="0" stop-color="#fff"/><stop offset="1" stop-color="#fff7c4"/></linearGradient><radialGradient id="_21" cx="-5072.75" cy="-2035.01" r="12.41" gradientTransform="matrix(-1, 0, 0, 1.76, -4974.32, 3609.99)" gradientUnits="userSpaceOnUse"><stop offset="0" stop-color="#f4a940"/><stop offset="0.09" stop-color="#e6a03c"/><stop offset="0.27" stop-color="#c38733"/><stop offset="0.51" stop-color="#895f24"/><stop offset="0.8" stop-color="#39280f"/><stop offset="1"/></radialGradient><linearGradient id="_92-5" x1="-7442.84" y1="-5647.63" x2="-7442.84" y2="-5716.33" gradientTransform="translate(-1201.83 -9129.09) rotate(-135)" xlink:href="#_92"/><linearGradient id="_27-5" x1="-7442.84" y1="-5664.36" x2="-7442.84" y2="-5698.7" gradientTransform="translate(-1201.83 -9129.09) rotate(-135)" xlink:href="#_27"/><linearGradient id="_92-6" x1="-7442.86" y1="-5729.44" x2="-7442.86" y2="-5670.29" gradientTransform="translate(-1201.83 -9129.09) rotate(-135)" xlink:href="#_92"/><linearGradient id="_27-6" x1="-7443.06" y1="-5669.07" x2="-7443.06" y2="-5703.3" gradientTransform="translate(-1201.83 -9129.09) rotate(-135)" xlink:href="#_27"/><linearGradient id="_28-4" x1="-7439.13" y1="-5710.49" x2="-7441.5" y2="-5697.04" gradientTransform="translate(-1201.83 -9129.09) rotate(-135)" xlink:href="#_28"/><linearGradient id="linear-gradient-2" x1="-7434.61" y1="-5695.68" x2="-7434.61" y2="-5708.61" gradientTransform="translate(-1201.83 -9129.09) rotate(-135)" xlink:href="#linear-gradient"/><radialGradient id="_21-2" cx="-7440.62" cy="-5293.81" r="12.41" gradientTransform="matrix(0, -1, 1.76, 0, 9355.89, -7289.36)" xlink:href="#_21"/><linearGradient id="_92-7" x1="-3250.9" y1="-9839.56" x2="-3250.9" y2="-9908.26" gradientTransform="matrix(0.71, -0.71, -0.71, -0.71, -4526.3, -9129.09)" xlink:href="#_92"/><linearGradient id="_27-7" x1="-3250.9" y1="-9856.3" x2="-3250.9" y2="-9890.64" gradientTransform="matrix(0.71, -0.71, -0.71, -0.71, -4526.3, -9129.09)" xlink:href="#_27"/><linearGradient id="_92-8" x1="-3250.93" y1="-9921.38" x2="-3250.93" y2="-9862.22" gradientTransform="matrix(0.71, -0.71, -0.71, -0.71, -4526.3, -9129.09)" xlink:href="#_92"/><linearGradient id="_27-8" x1="-3251.13" y1="-9861.01" x2="-3251.13" y2="-9895.24" gradientTransform="matrix(0.71, -0.71, -0.71, -0.71, -4526.3, -9129.09)" xlink:href="#_27"/><linearGradient id="_28-5" x1="-3247.19" y1="-9902.43" x2="-3249.57" y2="-9888.98" gradientTransform="matrix(0.71, -0.71, -0.71, -0.71, -4526.3, -9129.09)" xlink:href="#_28"/><linearGradient id="linear-gradient-3" x1="-3242.68" y1="-9887.62" x2="-3242.68" y2="-9900.54" gradientTransform="matrix(0.71, -0.71, -0.71, -0.71, -4526.3, -9129.09)" xlink:href="#linear-gradient"/><radialGradient id="_21-3" cx="-3248.69" cy="-7675.97" r="12.41" gradientTransform="matrix(0.71, -0.71, -1.24, -1.24, -7094.33, -11697.12)" xlink:href="#_21"/><linearGradient id="_92-9" x1="99.99" y1="74.16" x2="99.99" y2="16.78" xlink:href="#_92"/><linearGradient id="_27-9" x1="99.99" y1="60.18" x2="99.99" y2="31.5" xlink:href="#_27"/><linearGradient id="_92-10" x1="99.96" y1="5.83" x2="99.96" y2="55.23" xlink:href="#_92"/><linearGradient id="_27-10" x1="99.72" y1="56.25" x2="99.72" y2="27.66" xlink:href="#_27"/><linearGradient id="_28-6" x1="103.99" y1="21.69" x2="102.18" y2="31.94" xlink:href="#_28"/><linearGradient id="linear-gradient-4" x1="110.02" y1="34.02" x2="110.02" y2="23.23" gradientTransform="matrix(1, 0, 0, 1, 0, 0)" xlink:href="#linear-gradient"/><radialGradient id="_21-4" cx="102.69" cy="-759.9" r="15.13" gradientTransform="translate(0 960.1) scale(1 1.21)" xlink:href="#_21"/><linearGradient id="_92-11" x1="-8833.59" y1="-802.76" x2="-8833.59" y2="-860.14" gradientTransform="translate(875.41 -8732.37) rotate(-90)" xlink:href="#_92"/><linearGradient id="_27-11" x1="-8833.59" y1="-816.74" x2="-8833.59" y2="-845.42" gradientTransform="translate(875.41 -8732.37) rotate(-90)" xlink:href="#_27"/><linearGradient id="_92-12" x1="-8833.62" y1="-871.09" x2="-8833.62" y2="-821.69" gradientTransform="translate(875.41 -8732.37) rotate(-90)" xlink:href="#_92"/><linearGradient id="_27-12" x1="-8833.87" y1="-820.67" x2="-8833.87" y2="-849.26" gradientTransform="translate(875.41 -8732.37) rotate(-90)" xlink:href="#_27"/><linearGradient id="_28-7" x1="-8829.6" y1="-855.22" x2="-8831.41" y2="-844.97" gradientTransform="translate(875.41 -8732.37) rotate(-90)" xlink:href="#_28"/><linearGradient id="linear-gradient-5" x1="-8823.57" y1="-842.89" x2="-8823.57" y2="-853.69" gradientTransform="translate(875.41 -8732.37) rotate(-90)" xlink:href="#linear-gradient"/><radialGradient id="_21-5" cx="-8830.89" cy="-1487.21" r="15.13" gradientTransform="translate(1835.51 -8732.37) rotate(-90) scale(1 1.21)" xlink:href="#_21"/><linearGradient id="_92-13" x1="-8833.59" y1="-9639.75" x2="-8833.59" y2="-9697.13" gradientTransform="matrix(0, -1, -1, 0, -9512.3, -8732.37)" xlink:href="#_92"/><linearGradient id="_27-13" x1="-8833.59" y1="-9653.73" x2="-8833.59" y2="-9682.41" gradientTransform="matrix(0, -1, -1, 0, -9512.3, -8732.37)" xlink:href="#_27"/><linearGradient id="_92-14" x1="-8833.62" y1="-9708.08" x2="-8833.62" y2="-9658.67" gradientTransform="matrix(0, -1, -1, 0, -9512.3, -8732.37)" xlink:href="#_92"/><linearGradient id="_27-14" x1="-8833.87" y1="-9657.66" x2="-8833.87" y2="-9686.24" gradientTransform="matrix(0, -1, -1, 0, -9512.3, -8732.37)" xlink:href="#_27"/><linearGradient id="_28-8" x1="-8829.6" y1="-9692.21" x2="-8831.41" y2="-9681.96" gradientTransform="matrix(0, -1, -1, 0, -9512.3, -8732.37)" xlink:href="#_28"/><linearGradient id="linear-gradient-6" x1="-8823.57" y1="-9679.88" x2="-8823.57" y2="-9690.68" gradientTransform="matrix(0, -1, -1, 0, -9512.3, -8732.37)" xlink:href="#linear-gradient"/><radialGradient id="_21-6" cx="-8830.89" cy="-8816.55" r="15.13" gradientTransform="matrix(0, -1, -1.21, 0, -10472.4, -8732.37)" xlink:href="#_21"/><linearGradient id="_92-15" x1="99.99" y1="178.75" x2="99.99" y2="148.28" xlink:href="#_92"/><linearGradient id="_92-16" x1="99.96" y1="160.01" x2="99.96" y2="183.84" xlink:href="#_92"/><linearGradient id="_27-15" x1="99.72" y1="176.03" x2="99.72" y2="157.6" xlink:href="#_27"/><linearGradient id="_92-17" x1="54.44" y1="44.07" x2="71.3" y2="44.07" xlink:href="#_92"/><linearGradient id="_27-16" x1="-9753.99" y1="-1465.89" x2="-9741.67" y2="-1441.87" gradientTransform="matrix(-0.96, -0.29, -0.29, 0.96, -9678.63, -1439.3)" xlink:href="#_27"/><linearGradient id="_79" x1="-9746.94" y1="-1453.39" x2="-9750.65" y2="-1439.71" gradientTransform="matrix(-0.96, -0.29, -0.29, 0.96, -9678.63, -1439.3)" gradientUnits="userSpaceOnUse"><stop offset="0" stop-color="#f27a13"/><stop offset="1" stop-color="#b41e2d"/></linearGradient><linearGradient id="_28-9" x1="-10747.19" y1="-4378.08" x2="-10757.14" y2="-4370.27" gradientTransform="matrix(-0.67, -0.74, -0.74, 0.67, -10410.13, -4954.12)" xlink:href="#_28"/><linearGradient id="_28-10" x1="-10747.68" y1="-4387.66" x2="-10737.71" y2="-4387.66" gradientTransform="matrix(-0.67, -0.74, -0.74, 0.67, -10410.13, -4954.12)" xlink:href="#_28"/><linearGradient id="_27-17" x1="-9750.37" y1="-1443.72" x2="-9738.65" y2="-1443.72" gradientTransform="matrix(-0.96, -0.29, -0.29, 0.96, -9678.63, -1439.3)" xlink:href="#_27"/><linearGradient id="_27-18" x1="-9750.72" y1="-1455.42" x2="-9742.84" y2="-1444.78" gradientTransform="matrix(-0.96, -0.29, -0.29, 0.96, -9678.63, -1439.3)" xlink:href="#_27"/><linearGradient id="_92-18" x1="30.96" y1="63.39" x2="60.22" y2="63.39" xlink:href="#_92"/><linearGradient id="_27-19" x1="-6916.11" y1="1100.28" x2="-6906.16" y2="1119.66" gradientTransform="matrix(-0.95, 0.3, 0.3, 0.95, -6876.49, 1096.94)" xlink:href="#_27"/><linearGradient id="_79-2" x1="-4549.17" y1="1186.46" x2="-4560.45" y2="1195.32" gradientTransform="matrix(-0.74, 0.67, 0.67, 0.74, -4132.27, 2218.39)" xlink:href="#_79"/><linearGradient id="_28-11" x1="-4549.67" y1="1188.64" x2="-4559.58" y2="1196.43" gradientTransform="matrix(-0.74, 0.67, 0.67, 0.74, -4132.27, 2218.39)" xlink:href="#_28"/><linearGradient id="_28-12" x1="-6909.63" y1="1105.82" x2="-6899.03" y2="1105.82" gradientTransform="matrix(-0.95, 0.3, 0.3, 0.95, -6876.49, 1096.94)" xlink:href="#_28"/><linearGradient id="_27-20" x1="-4558.97" y1="1195.35" x2="-4543.55" y2="1195.35" gradientTransform="matrix(-0.74, 0.67, 0.67, 0.74, -4132.27, 2218.39)" xlink:href="#_27"/><linearGradient id="_27-21" x1="-6913.78" y1="1112.75" x2="-6915.63" y2="1109.13" gradientTransform="matrix(-0.95, 0.3, 0.3, 0.95, -6876.49, 1096.94)" xlink:href="#_27"/><linearGradient id="_92-19" x1="56.75" y1="63.74" x2="45.88" y2="42.62" xlink:href="#_92"/><linearGradient id="_27-22" x1="-1499.05" y1="216.25" x2="-1496.44" y2="234.49" gradientTransform="matrix(1, -0.06, 0.06, 1, 1533.59, -254.67)" xlink:href="#_27"/><linearGradient id="_79-3" x1="-8836.35" y1="-236.77" x2="-8848.88" y2="-226.92" gradientTransform="matrix(-1, -0.07, -0.07, 1, -8781.78, -321.44)" xlink:href="#_79"/><linearGradient id="_28-13" x1="-8837.09" y1="-234.95" x2="-8848.28" y2="-226.15" gradientTransform="matrix(-1, -0.07, -0.07, 1, -8781.78, -321.44)" xlink:href="#_28"/><linearGradient id="_28-14" x1="-8838.78" y1="-245.63" x2="-8826.44" y2="-245.63" gradientTransform="matrix(-1, -0.07, -0.07, 1, -8781.78, -321.44)" xlink:href="#_28"/><linearGradient id="_92-20" x1="128.8" y1="44.07" x2="145.65" y2="44.07" xlink:href="#_92"/><linearGradient id="_27-23" x1="948.59" y1="1833.59" x2="960.91" y2="1857.61" gradientTransform="translate(-1320.68 -1439.3) rotate(-17.13)" xlink:href="#_27"/><linearGradient id="_79-4" x1="955.63" y1="1846.09" x2="951.93" y2="1859.76" gradientTransform="translate(-1320.68 -1439.3) rotate(-17.13)" xlink:href="#_79"/><linearGradient id="_28-15" x1="-3208.19" y1="3903.4" x2="-3218.14" y2="3911.21" gradientTransform="translate(-589.18 -4954.12) rotate(-47.69)" xlink:href="#_28"/><linearGradient id="_28-16" x1="-3208.68" y1="3893.81" x2="-3198.71" y2="3893.81" gradientTransform="translate(-589.18 -4954.12) rotate(-47.69)" xlink:href="#_28"/><linearGradient id="_27-24" x1="952.2" y1="1855.76" x2="963.93" y2="1855.76" gradientTransform="translate(-1320.68 -1439.3) rotate(-17.13)" xlink:href="#_27"/><linearGradient id="_27-25" x1="951.86" y1="1844.06" x2="959.74" y2="1854.69" gradientTransform="translate(-1320.68 -1439.3) rotate(-17.13)" xlink:href="#_27"/><linearGradient id="_92-21" x1="139.88" y1="63.39" x2="169.13" y2="63.39" xlink:href="#_92"/><linearGradient id="_27-26" x1="3757.38" y1="-2292.17" x2="3767.33" y2="-2272.78" gradientTransform="matrix(0.95, 0.3, -0.3, 0.95, -4122.82, 1096.94)" xlink:href="#_27"/><linearGradient id="_79-5" x1="3784.95" y1="-6294.31" x2="3773.67" y2="-6285.45" gradientTransform="translate(-6867.04 2218.39) rotate(41.91)" xlink:href="#_79"/><linearGradient id="_28-17" x1="3784.45" y1="-6292.13" x2="3774.54" y2="-6284.34" gradientTransform="translate(-6867.04 2218.39) rotate(41.91)" xlink:href="#_28"/><linearGradient id="_28-18" x1="3763.86" y1="-2286.62" x2="3774.46" y2="-2286.62" gradientTransform="matrix(0.95, 0.3, -0.3, 0.95, -4122.82, 1096.94)" xlink:href="#_28"/><linearGradient id="_27-27" x1="3775.15" y1="-6285.42" x2="3790.57" y2="-6285.42" gradientTransform="translate(-6867.04 2218.39) rotate(41.91)" xlink:href="#_27"/><linearGradient id="_27-28" x1="3759.71" y1="-2279.69" x2="3757.86" y2="-2283.31" gradientTransform="matrix(0.95, 0.3, -0.3, 0.95, -4122.82, 1096.94)" xlink:href="#_27"/><linearGradient id="_92-22" x1="151.97" y1="70.84" x2="150.41" y2="49.1" xlink:href="#_92"/><linearGradient id="_27-29" x1="-12680.61" y1="-406.38" x2="-12678" y2="-388.14" gradientTransform="matrix(-1, -0.06, -0.06, 1, -12532.9, -254.67)" xlink:href="#_27"/><linearGradient id="_79-6" x1="2337.02" y1="532.69" x2="2324.48" y2="542.54" gradientTransform="translate(-2217.53 -321.44) rotate(-3.94)" xlink:href="#_79"/><linearGradient id="_28-19" x1="2336.27" y1="534.51" x2="2325.08" y2="543.3" gradientTransform="translate(-2217.53 -321.44) rotate(-3.94)" xlink:href="#_28"/><linearGradient id="_28-20" x1="2334.59" y1="523.83" x2="2346.92" y2="523.83" gradientTransform="translate(-2217.53 -321.44) rotate(-3.94)" xlink:href="#_28"/><linearGradient id="_92-23" x1="54.44" y1="157.31" x2="71.3" y2="157.31" xlink:href="#_92"/><linearGradient id="_27-30" x1="-6900.74" y1="-10721.02" x2="-6888.42" y2="-10697" gradientTransform="translate(-9678.63 -8044.09) rotate(162.87)" xlink:href="#_27"/><linearGradient id="_79-7" x1="-6893.7" y1="-10708.52" x2="-6897.4" y2="-10694.85" gradientTransform="translate(-9678.63 -8044.09) rotate(162.87)" xlink:href="#_79"/><linearGradient id="_28-21" x1="-3585.72" y1="-10897.49" x2="-3595.67" y2="-10889.67" gradientTransform="translate(-10410.13 -4529.26) rotate(132.31)" xlink:href="#_28"/><linearGradient id="_28-22" x1="-3586.21" y1="-10907.07" x2="-3576.24" y2="-10907.07" gradientTransform="translate(-10410.13 -4529.26) rotate(132.31)" xlink:href="#_28"/><linearGradient id="_27-31" x1="-6897.13" y1="-10698.85" x2="-6885.4" y2="-10698.85" gradientTransform="translate(-9678.63 -8044.09) rotate(162.87)" xlink:href="#_27"/><linearGradient id="_27-32" x1="-6897.47" y1="-10710.55" x2="-6889.59" y2="-10699.92" gradientTransform="translate(-9678.63 -8044.09) rotate(162.87)" xlink:href="#_27"/><linearGradient id="_92-24" x1="30.96" y1="137.99" x2="60.22" y2="137.99" xlink:href="#_92"/><linearGradient id="_27-33" x1="-9849.75" y1="-8129.7" x2="-9839.81" y2="-8110.32" gradientTransform="matrix(-0.95, -0.3, 0.3, -0.95, -6876.49, -10580.32)" xlink:href="#_27"/><linearGradient id="_79-8" x1="-11018.23" y1="-6020.53" x2="-11029.5" y2="-6011.67" gradientTransform="translate(-4132.27 -11701.78) rotate(-138.09)" xlink:href="#_79"/><linearGradient id="_28-23" x1="-11018.72" y1="-6018.35" x2="-11028.63" y2="-6010.56" gradientTransform="translate(-4132.27 -11701.78) rotate(-138.09)" xlink:href="#_28"/><linearGradient id="_28-24" x1="-9843.27" y1="-8124.16" x2="-9832.67" y2="-8124.16" gradientTransform="matrix(-0.95, -0.3, 0.3, -0.95, -6876.49, -10580.32)" xlink:href="#_28"/><linearGradient id="_27-34" x1="-11028.03" y1="-6011.64" x2="-11012.6" y2="-6011.64" gradientTransform="translate(-4132.27 -11701.78) rotate(-138.09)" xlink:href="#_27"/><linearGradient id="_27-35" x1="-9847.42" y1="-8117.23" x2="-9849.27" y2="-8120.85" gradientTransform="matrix(-0.95, -0.3, 0.3, -0.95, -6876.49, -10580.32)" xlink:href="#_27"/><linearGradient id="_92-25" x1="57.24" y1="157.06" x2="41.09" y2="146.96" xlink:href="#_92"/><linearGradient id="_27-36" x1="-960.63" y1="-9453.09" x2="-958.02" y2="-9434.85" gradientTransform="matrix(1, 0.06, 0.06, -1, 1533.59, -9228.72)" xlink:href="#_27"/><linearGradient id="_79-9" x1="-8170.95" y1="-9899.02" x2="-8183.49" y2="-9889.17" gradientTransform="translate(-8781.78 -9161.94) rotate(176.06)" xlink:href="#_79"/><linearGradient id="_28-25" x1="-8171.7" y1="-9897.2" x2="-8182.89" y2="-9888.4" gradientTransform="translate(-8781.78 -9161.94) rotate(176.06)" xlink:href="#_28"/><linearGradient id="_28-26" x1="-8173.38" y1="-9907.88" x2="-8161.04" y2="-9907.88" gradientTransform="translate(-8781.78 -9161.94) rotate(176.06)" xlink:href="#_28"/><linearGradient id="_92-26" x1="128.8" y1="157.31" x2="145.65" y2="157.31" xlink:href="#_92"/><linearGradient id="_27-37" x1="3801.83" y1="-7421.55" x2="3814.16" y2="-7397.53" gradientTransform="matrix(0.96, 0.29, 0.29, -0.96, -1320.68, -8044.09)" xlink:href="#_27"/><linearGradient id="_79-10" x1="3808.88" y1="-7409.05" x2="3805.18" y2="-7395.37" gradientTransform="matrix(0.96, 0.29, 0.29, -0.96, -1320.68, -8044.09)" xlink:href="#_79"/><linearGradient id="_28-27" x1="3953.28" y1="-2616.01" x2="3943.33" y2="-2608.2" gradientTransform="matrix(0.67, 0.74, 0.74, -0.67, -589.18, -4529.26)" xlink:href="#_28"/><linearGradient id="_28-28" x1="3952.79" y1="-2625.59" x2="3962.76" y2="-2625.59" gradientTransform="matrix(0.67, 0.74, 0.74, -0.67, -589.18, -4529.26)" xlink:href="#_28"/><linearGradient id="_27-38" x1="3805.45" y1="-7399.38" x2="3817.18" y2="-7399.38" gradientTransform="matrix(0.96, 0.29, 0.29, -0.96, -1320.68, -8044.09)" xlink:href="#_27"/><linearGradient id="_27-39" x1="3805.1" y1="-7411.08" x2="3812.99" y2="-7400.44" gradientTransform="matrix(0.96, 0.29, 0.29, -0.96, -1320.68, -8044.09)" xlink:href="#_27"/><linearGradient id="_92-27" x1="139.88" y1="137.99" x2="169.13" y2="137.99" xlink:href="#_92"/><linearGradient id="_27-40" x1="823.74" y1="-11522.15" x2="833.68" y2="-11502.77" gradientTransform="matrix(0.95, -0.3, -0.3, -0.95, -4122.82, -10580.32)" xlink:href="#_27"/><linearGradient id="_79-11" x1="-2684.11" y1="-13501.31" x2="-2695.38" y2="-13492.45" gradientTransform="matrix(0.74, -0.67, -0.67, -0.74, -6867.04, -11701.78)" xlink:href="#_79"/><linearGradient id="_28-29" x1="-2684.61" y1="-13499.12" x2="-2694.51" y2="-13491.34" gradientTransform="matrix(0.74, -0.67, -0.67, -0.74, -6867.04, -11701.78)" xlink:href="#_28"/><linearGradient id="_28-30" x1="830.22" y1="-11516.6" x2="840.82" y2="-11516.6" gradientTransform="matrix(0.95, -0.3, -0.3, -0.95, -4122.82, -10580.32)" xlink:href="#_28"/><linearGradient id="_27-41" x1="-2693.91" y1="-13492.41" x2="-2678.48" y2="-13492.41" gradientTransform="matrix(0.74, -0.67, -0.67, -0.74, -6867.04, -11701.78)" xlink:href="#_27"/><linearGradient id="_27-42" x1="826.07" y1="-11509.67" x2="824.22" y2="-11513.29" gradientTransform="matrix(0.95, -0.3, -0.3, -0.95, -4122.82, -10580.32)" xlink:href="#_27"/><linearGradient id="_92-28" x1="145.89" y1="160.25" x2="156.29" y2="142.85" xlink:href="#_92"/><linearGradient id="_27-43" x1="-12142.19" y1="-10075.72" x2="-12139.58" y2="-10057.48" gradientTransform="matrix(-1, 0.06, -0.06, -1, -12532.9, -9228.72)" xlink:href="#_27"/><linearGradient id="_79-12" x1="3002.41" y1="-9129.56" x2="2989.87" y2="-9119.71" gradientTransform="matrix(1, 0.07, 0.07, -1, -2217.53, -9161.94)" xlink:href="#_79"/><linearGradient id="_28-31" x1="3001.66" y1="-9127.74" x2="2990.47" y2="-9118.95" gradientTransform="matrix(1, 0.07, 0.07, -1, -2217.53, -9161.94)" xlink:href="#_28"/><linearGradient id="_28-32" x1="2999.98" y1="-9138.42" x2="3012.32" y2="-9138.42" gradientTransform="matrix(1, 0.07, 0.07, -1, -2217.53, -9161.94)" xlink:href="#_28"/><linearGradient id="_92-29" x1="99.99" y1="171.52" x2="99.99" y2="39.25" xlink:href="#_92"/><linearGradient id="_29" x1="81.97" y1="147.53" x2="74.72" y2="163.89" gradientUnits="userSpaceOnUse"><stop offset="0" stop-color="#ca6b34"/><stop offset="0.17" stop-color="#cc6e34"/><stop offset="0.29" stop-color="#d27733"/><stop offset="0.39" stop-color="#db8631"/><stop offset="0.48" stop-color="#e99b2f"/><stop offset="0.57" stop-color="#fbb72c"/><stop offset="0.59" stop-color="#ffbd2b"/><stop offset="1" stop-color="#ffa933"/></linearGradient><linearGradient id="_19" x1="80.11" y1="162.49" x2="80.11" y2="140.83" gradientUnits="userSpaceOnUse"><stop offset="0" stop-color="#ca6b34"/><stop offset="0.74" stop-color="#ffbd2b"/><stop offset="1" stop-color="#ffa933"/></linearGradient><linearGradient id="_27-44" x1="74.56" y1="163.51" x2="81.37" y2="148.99" xlink:href="#_27"/><linearGradient id="_29-2" x1="117.77" y1="146.67" x2="126.1" y2="166.51" xlink:href="#_29"/><linearGradient id="_19-2" x1="119.88" y1="162.49" x2="119.88" y2="140.83" xlink:href="#_19"/><linearGradient id="_27-45" x1="123.76" y1="163.1" x2="118.48" y2="147.26" xlink:href="#_27"/><linearGradient id="_29-3" x1="77.19" y1="43.56" x2="82.63" y2="55.52" xlink:href="#_29"/><linearGradient id="_92-30" x1="75.58" y1="37.88" x2="80.34" y2="49.89" xlink:href="#_92"/><linearGradient id="_27-46" x1="82.21" y1="54.21" x2="72.89" y2="35.57" xlink:href="#_27"/><linearGradient id="_28-33" x1="70.23" y1="26.82" x2="77.15" y2="46.78" xlink:href="#_28"/><linearGradient id="_29-4" x1="-12963.44" y1="43.56" x2="-12958" y2="55.52" gradientTransform="matrix(-1, 0, 0, 1, -12840.63, 0)" xlink:href="#_29"/><linearGradient id="_92-31" x1="-12965.05" y1="37.88" x2="-12960.29" y2="49.89" gradientTransform="matrix(-1, 0, 0, 1, -12840.63, 0)" xlink:href="#_92"/><linearGradient id="_27-47" x1="-12958.42" y1="54.21" x2="-12967.74" y2="35.57" gradientTransform="matrix(-1, 0, 0, 1, -12840.63, 0)" xlink:href="#_27"/><linearGradient id="_28-34" x1="-12970.4" y1="26.82" x2="-12963.48" y2="46.78" gradientTransform="matrix(-1, 0, 0, 1, -12840.63, 0)" xlink:href="#_28"/><linearGradient id="_29-5" x1="-14461.97" y1="-5608.71" x2="-14456.53" y2="-5596.75" gradientTransform="matrix(-0.71, -0.71, -0.71, 0.71, -14044.42, -6163.88)" xlink:href="#_29"/><linearGradient id="_92-32" x1="-14463.59" y1="-5614.39" x2="-14458.82" y2="-5602.38" gradientTransform="matrix(-0.71, -0.71, -0.71, 0.71, -14044.42, -6163.88)" xlink:href="#_92"/><linearGradient id="_27-48" x1="-14456.95" y1="-5598.07" x2="-14466.27" y2="-5616.7" gradientTransform="matrix(-0.71, -0.71, -0.71, 0.71, -14044.42, -6163.88)" xlink:href="#_27"/><linearGradient id="_28-35" x1="-14476.25" y1="-5558.68" x2="-14469.84" y2="-5540.19" gradientTransform="matrix(-0.71, -0.7, -0.7, 0.71, -14058.34, -6093.8)" xlink:href="#_28"/><linearGradient id="_29-6" x1="-7876.47" y1="-12212.86" x2="-7871.03" y2="-12200.91" gradientTransform="matrix(-0.71, 0.71, -0.71, -0.71, -14044.42, -2960.95)" xlink:href="#_29"/><linearGradient id="_92-33" x1="-7878.09" y1="-12218.54" x2="-7873.33" y2="-12206.53" gradientTransform="matrix(-0.71, 0.71, -0.71, -0.71, -14044.42, -2960.95)" xlink:href="#_92"/><linearGradient id="_27-49" x1="-7871.45" y1="-12202.22" x2="-7880.77" y2="-12220.85" gradientTransform="matrix(-0.71, 0.71, -0.71, -0.71, -14044.42, -2960.95)" xlink:href="#_27"/><linearGradient id="_28-36" x1="-7948.29" y1="-12219.07" x2="-7941.88" y2="-12200.58" gradientTransform="matrix(-0.71, 0.7, -0.7, -0.71, -14058.34, -3031.02)" xlink:href="#_28"/><linearGradient id="_29-7" x1="-5932.29" y1="2896.88" x2="-5926.85" y2="2908.83" gradientTransform="matrix(0.71, -0.71, 0.71, 0.71, 2198.48, -6163.88)" xlink:href="#_29"/><linearGradient id="_92-34" x1="-5933.91" y1="2891.2" x2="-5929.14" y2="2903.21" gradientTransform="matrix(0.71, -0.71, 0.71, 0.71, 2198.48, -6163.88)" xlink:href="#_92"/><linearGradient id="_27-50" x1="-5927.27" y1="2907.52" x2="-5936.59" y2="2888.89" gradientTransform="matrix(0.71, -0.71, 0.71, 0.71, 2198.48, -6163.88)" xlink:href="#_27"/><linearGradient id="_28-37" x1="-5874.12" y1="2872.55" x2="-5867.6" y2="2891.37" gradientTransform="matrix(0.71, -0.7, 0.7, 0.71, 2212.4, -6093.8)" xlink:href="#_28"/><linearGradient id="_29-8" x1="653.21" y1="-3707.27" x2="658.65" y2="-3695.32" gradientTransform="matrix(0.71, 0.71, 0.71, -0.71, 2198.48, -2960.95)" xlink:href="#_29"/><linearGradient id="_92-35" x1="651.59" y1="-3712.95" x2="656.36" y2="-3700.94" gradientTransform="matrix(0.71, 0.71, 0.71, -0.71, 2198.48, -2960.95)" xlink:href="#_92"/><linearGradient id="_27-51" x1="658.23" y1="-3696.63" x2="648.91" y2="-3715.26" gradientTransform="matrix(0.71, 0.71, 0.71, -0.71, 2198.48, -2960.95)" xlink:href="#_27"/><linearGradient id="_28-38" x1="654.02" y1="-3787.79" x2="660.43" y2="-3769.3" gradientTransform="matrix(0.71, 0.7, 0.7, -0.71, 2212.4, -3031.02)" xlink:href="#_28"/><linearGradient id="_27-52" x1="100.72" y1="112.95" x2="100.72" y2="162.81" xlink:href="#_27"/><linearGradient id="_27-53" x1="100.82" y1="111.71" x2="100.82" y2="168.82" xlink:href="#_27"/><linearGradient id="_28-39" x1="100.68" y1="46.26" x2="100.68" y2="70.25" xlink:href="#_28"/><linearGradient id="_29-9" x1="99.99" y1="51.92" x2="99.99" y2="155.11" xlink:href="#_29"/><linearGradient id="_28-40" x1="99.99" y1="159.23" x2="99.99" y2="132.67" xlink:href="#_28"/><linearGradient id="linear-gradient-7" x1="99.99" y1="147.7" x2="99.99" y2="127.04" gradientTransform="matrix(1, 0, 0, 1, 0, 0)" xlink:href="#linear-gradient"/><linearGradient id="_27-54" x1="99.6" y1="87.28" x2="99.6" y2="55.37" xlink:href="#_27"/><radialGradient id="_21-7" cx="108.84" cy="51.48" r="16.27" gradientTransform="matrix(0.17, 0.97, -0.72, 0.23, 128.48, -70.4)" xlink:href="#_21"/><radialGradient id="_26" cx="-878.75" cy="-1292.5" r="7.44" gradientTransform="matrix(1.28, 0.34, -0.22, 0.85, 919.82, 1543.67)" gradientUnits="userSpaceOnUse"><stop offset="0" stop-color="#e75a29"/><stop offset="0.18" stop-color="#ad431f"/><stop offset="0.4" stop-color="#702c14"/><stop offset="0.59" stop-color="#40190b"/><stop offset="0.77" stop-color="#1d0b05"/><stop offset="0.91" stop-color="#080301"/><stop offset="1"/></radialGradient><linearGradient id="_27-55" x1="161.48" y1="111.04" x2="161.48" y2="81.84" xlink:href="#_27"/><linearGradient id="_28-41" x1="161.48" y1="103.48" x2="161.48" y2="132.08" xlink:href="#_28"/><linearGradient id="_28-42" x1="38.4" y1="103.49" x2="38.4" y2="131.79" xlink:href="#_28"/><linearGradient id="_27-56" x1="38.39" y1="111.04" x2="38.39" y2="81.84" xlink:href="#_27"/><linearGradient id="_18" x1="83.74" y1="177.86" x2="83.74" y2="157.6" gradientUnits="userSpaceOnUse"><stop offset="0" stop-color="#d16509"/><stop offset="1" stop-color="#8d2c1b"/></linearGradient><linearGradient id="_18-2" x1="116.24" y1="177.86" x2="116.24" y2="157.6" xlink:href="#_18"/><linearGradient id="_27-57" x1="-3206.5" y1="122.93" x2="-3206.6" y2="110.92" gradientTransform="matrix(-1, 0, 0, 1, -3054.42, 0)" xlink:href="#_27"/><linearGradient id="_941" x1="150.83" y1="114.56" x2="150.83" y2="93.5" gradientUnits="userSpaceOnUse"><stop offset="0" stop-color="#ca6b34"/><stop offset="1" stop-color="#ffbd2b"/></linearGradient><linearGradient id="_20" x1="150.8" y1="113.88" x2="150.8" y2="98.7" gradientUnits="userSpaceOnUse"><stop offset="0" stop-color="#f08d1d"/><stop offset="1" stop-color="#8d2c1b"/></linearGradient><linearGradient id="_963" x1="150.77" y1="114.94" x2="150.77" y2="104.05" gradientUnits="userSpaceOnUse"><stop offset="0" stop-color="#f08d1d"/><stop offset="0.21" stop-color="#d4721c"/><stop offset="0.56" stop-color="#ae4c1c"/><stop offset="0.83" stop-color="#96351b"/><stop offset="1" stop-color="#8d2c1b"/></linearGradient><radialGradient id="_508" cx="150.77" cy="102.28" r="8.04" gradientUnits="userSpaceOnUse"><stop offset="0" stop-color="#d14b4b"/><stop offset="0.17" stop-color="#c84141"/><stop offset="0.44" stop-color="#b02727"/><stop offset="0.73" stop-color="#910606"/><stop offset="0.83" stop-color="#940f0f"/><stop offset="0.99" stop-color="#9d2626"/><stop offset="1" stop-color="#9e2929"/></radialGradient><linearGradient id="_449" x1="150.77" y1="109.8" x2="150.77" y2="100.24" gradientUnits="userSpaceOnUse"><stop offset="0" stop-color="#8b2788"/><stop offset="1" stop-color="#fff"/></linearGradient><radialGradient id="_445" cx="150.38" cy="100.76" r="5.01" gradientUnits="userSpaceOnUse"><stop offset="0.16" stop-color="#e61c24"/><stop offset="0.24" stop-color="#da1b22"/><stop offset="0.39" stop-color="#ba171d"/><stop offset="0.58" stop-color="#861015"/><stop offset="0.81" stop-color="#3f080a"/><stop offset="1"/></radialGradient><linearGradient id="linear-gradient-8" x1="150.11" y1="97.89" x2="154.27" y2="97.89" gradientTransform="matrix(1, 0, 0, 1, 0, 0)" xlink:href="#linear-gradient"/><linearGradient id="_18-3" x1="139.26" y1="108.61" x2="162.39" y2="108.61" xlink:href="#_18"/><linearGradient id="_6" x1="156.62" y1="95.99" x2="161.46" y2="95.99" gradientUnits="userSpaceOnUse"><stop offset="0" stop-color="#ebbd38"/><stop offset="1" stop-color="#fff29e"/></linearGradient><radialGradient id="_479" cx="151.41" cy="102.28" r="18.49" gradientTransform="translate(30.56) scale(0.82 1)" gradientUnits="userSpaceOnUse"><stop offset="0.09" stop-color="#e84136"/><stop offset="0.15" stop-color="#d73c32"/><stop offset="0.46" stop-color="#7c231d"/><stop offset="0.72" stop-color="#39100d"/><stop offset="0.91" stop-color="#100404"/><stop offset="1"/></radialGradient><linearGradient id="_27-58" x1="47.85" y1="122.93" x2="47.74" y2="110.92" xlink:href="#_27"/><linearGradient id="_941-2" x1="48.32" y1="114.56" x2="48.32" y2="93.5" xlink:href="#_941"/><linearGradient id="_20-2" x1="48.29" y1="113.88" x2="48.29" y2="98.7" xlink:href="#_20"/><linearGradient id="_963-2" x1="48.26" y1="114.94" x2="48.26" y2="104.05" xlink:href="#_963"/><radialGradient id="_508-2" cx="48.26" cy="102.28" r="8.04" xlink:href="#_508"/><linearGradient id="_449-2" x1="48.26" y1="109.8" x2="48.26" y2="100.24" xlink:href="#_449"/><radialGradient id="_445-2" cx="47.87" cy="100.76" r="5.01" xlink:href="#_445"/><linearGradient id="linear-gradient-9" x1="47.6" y1="97.89" x2="51.76" y2="97.89" gradientTransform="matrix(1, 0, 0, 1, 0, 0)" xlink:href="#linear-gradient"/><linearGradient id="_18-4" x1="36.75" y1="108.61" x2="59.88" y2="108.61" xlink:href="#_18"/><linearGradient id="_6-2" x1="54.11" y1="95.99" x2="58.95" y2="95.99" xlink:href="#_6"/><radialGradient id="_479-2" cx="48.9" cy="102.28" r="18.49" gradientTransform="translate(6.18) scale(0.8 1)" xlink:href="#_479"/><linearGradient id="_27-59" x1="99.87" y1="176.44" x2="98.96" y2="157.13" xlink:href="#_27"/><linearGradient id="_264" x1="-67.62" y1="224.61" x2="-66.72" y2="205.66" gradientTransform="translate(158.48 -50.67) rotate(-2.26)" gradientUnits="userSpaceOnUse"><stop offset="0" stop-color="#ca6b34"/><stop offset="0.54" stop-color="#ffa933"/><stop offset="0.75" stop-color="#ffad31"/><stop offset="0.94" stop-color="#ffb82d"/><stop offset="1" stop-color="#ffbd2b"/></linearGradient><linearGradient id="_27-60" x1="-8900.56" y1="-1442.21" x2="-8907.62" y2="-1448.96" gradientTransform="matrix(-0.01, -1, -1, 0.01, -1483.4, -8711.55)" xlink:href="#_27"/><linearGradient id="_92-36" x1="100.25" y1="161.74" x2="100.25" y2="170.62" xlink:href="#_92"/><linearGradient id="_180" x1="100.2" y1="172.52" x2="100.2" y2="163.55" gradientUnits="userSpaceOnUse"><stop offset="0" stop-color="#ffa933"/><stop offset="0.33" stop-color="#ffc35a"/><stop offset="0.78" stop-color="#ffe389"/><stop offset="1" stop-color="#ffef9b"/></linearGradient><linearGradient id="_18-5" x1="-5988.83" y1="3530.88" x2="-5988.95" y2="3527.51" gradientTransform="matrix(-0.94, 0.01, 0.02, 1.12, -5569.45, -3715.67)" xlink:href="#_18"/><linearGradient id="_499" x1="-5906.31" y1="3344.03" x2="-5904.96" y2="3342.19" gradientTransform="matrix(-0.94, 0.01, 0.02, 1.12, -5488.18, -3505.59)" gradientUnits="userSpaceOnUse"><stop offset="0" stop-color="#de3c14"/><stop offset="1" stop-color="#db0f0f"/></linearGradient><linearGradient id="_490" x1="-5905.78" y1="3343.18" x2="-5907.59" y2="3344.99" gradientTransform="matrix(-0.94, 0.01, 0.02, 1.12, -5488.18, -3505.59)" gradientUnits="userSpaceOnUse"><stop offset="0" stop-color="#b51818"/><stop offset="0.23" stop-color="#bb1a19"/><stop offset="0.55" stop-color="#cd211c"/><stop offset="0.92" stop-color="#eb2c21"/><stop offset="1" stop-color="#f22f22"/></linearGradient><linearGradient id="_490-2" x1="-5905.23" y1="3342.42" x2="-5907.91" y2="3340.56" xlink:href="#_490"/><linearGradient id="_490-3" x1="-5904.17" y1="3344.1" x2="-5903.44" y2="3344.86" xlink:href="#_490"/><linearGradient id="_490-4" x1="-5903.34" y1="3340.72" x2="-5905.09" y2="3342.11" xlink:href="#_490"/><linearGradient id="linear-gradient-10" x1="-8896.17" y1="-1453.11" x2="-8896.16" y2="-1453.11" gradientTransform="matrix(-0.01, -1, -1, 0.01, -1483.4, -8711.55)" xlink:href="#linear-gradient"/><linearGradient id="linear-gradient-11" x1="100.69" y1="167.15" x2="100.69" y2="167.14" gradientTransform="matrix(1, 0, 0, 1, 0, 0)" xlink:href="#linear-gradient"/><linearGradient id="_27-61" x1="58.66" y1="75.18" x2="59.66" y2="53.9" xlink:href="#_27"/><linearGradient id="_264-2" x1="-102.53" y1="118.72" x2="-101.64" y2="99.76" xlink:href="#_264"/><linearGradient id="_27-62" x1="-8795.56" y1="-1404.71" x2="-8802.61" y2="-1411.47" gradientTransform="matrix(-0.01, -1, -1, 0.01, -1483.4, -8711.55)" xlink:href="#_27"/><linearGradient id="_92-37" x1="61.18" y1="57.31" x2="61.18" y2="66.19" xlink:href="#_92"/><linearGradient id="_180-2" x1="61.14" y1="68.09" x2="61.14" y2="59.12" xlink:href="#_180"/><linearGradient id="_18-6" x1="-5948.8" y1="3437.42" x2="-5948.93" y2="3434.05" gradientTransform="matrix(-0.94, 0.01, 0.02, 1.12, -5569.45, -3715.67)" xlink:href="#_18"/><linearGradient id="_499-2" x1="-5866.29" y1="3250.57" x2="-5864.94" y2="3248.72" xlink:href="#_499"/><linearGradient id="_490-5" x1="-5865.75" y1="3249.72" x2="-5867.56" y2="3251.52" xlink:href="#_490"/><linearGradient id="_490-6" x1="-5865.2" y1="3248.95" x2="-5867.88" y2="3247.09" xlink:href="#_490"/><linearGradient id="_490-7" x1="-5864.14" y1="3250.63" x2="-5863.41" y2="3251.39" xlink:href="#_490"/><linearGradient id="_490-8" x1="-5863.31" y1="3247.25" x2="-5865.06" y2="3248.65" xlink:href="#_490"/><linearGradient id="linear-gradient-12" x1="-8791.17" y1="-1415.61" x2="-8791.16" y2="-1415.61" gradientTransform="matrix(-0.01, -1, -1, 0.01, -1483.4, -8711.55)" xlink:href="#linear-gradient"/><linearGradient id="linear-gradient-13" x1="61.62" y1="62.72" x2="61.62" y2="62.71" gradientTransform="matrix(1, 0, 0, 1, 0, 0)" xlink:href="#linear-gradient"/><linearGradient id="_27-63" x1="-3047.88" y1="75.18" x2="-3046.87" y2="53.9" gradientTransform="matrix(-1, 0, 0, 1, -2906.89, 0)" xlink:href="#_27"/><linearGradient id="_264-3" x1="-25.87" y1="121.75" x2="-24.98" y2="102.79" xlink:href="#_264"/><linearGradient id="_27-64" x1="-8796.71" y1="-1481.42" x2="-8803.76" y2="-1488.17" gradientTransform="matrix(-0.01, -1, -1, 0.01, -1483.4, -8711.55)" xlink:href="#_27"/><linearGradient id="_92-38" x1="137.9" y1="57.31" x2="137.9" y2="66.19" xlink:href="#_92"/><linearGradient id="_180-3" x1="137.85" y1="68.09" x2="137.85" y2="59.12" xlink:href="#_180"/><linearGradient id="_18-7" x1="-6030.67" y1="3438.44" x2="-6030.8" y2="3435.07" gradientTransform="matrix(-0.94, 0.01, 0.02, 1.12, -5569.45, -3715.67)" xlink:href="#_18"/><linearGradient id="_499-3" x1="-5948.16" y1="3251.59" x2="-5946.8" y2="3249.74" xlink:href="#_499"/><linearGradient id="_490-9" x1="-5947.62" y1="3250.74" x2="-5949.43" y2="3252.54" xlink:href="#_490"/><linearGradient id="_490-10" x1="-5947.07" y1="3249.97" x2="-5949.75" y2="3248.11" xlink:href="#_490"/><linearGradient id="_490-11" x1="-5946.01" y1="3251.65" x2="-5945.28" y2="3252.41" xlink:href="#_490"/><linearGradient id="_490-12" x1="-5945.18" y1="3248.27" x2="-5946.93" y2="3249.67" xlink:href="#_490"/><linearGradient id="linear-gradient-14" x1="-8792.32" y1="-1492.32" x2="-8792.31" y2="-1492.32" gradientTransform="matrix(-0.01, -1, -1, 0.01, -1483.4, -8711.55)" xlink:href="#linear-gradient"/><linearGradient id="linear-gradient-15" x1="138.34" y1="62.72" x2="138.34" y2="62.71" gradientTransform="matrix(1, 0, 0, 1, 0, 0)" xlink:href="#linear-gradient"/><linearGradient id="_92-39" x1="8.6" y1="143.84" x2="3.3" y2="143.84" xlink:href="#_92"/><linearGradient id="_92-40" x1="20.52" y1="128.67" x2="13.28" y2="128.67" xlink:href="#_92"/><linearGradient id="_92-41" x1="67.6" y1="5.11" x2="61.74" y2="5.11" xlink:href="#_92"/><radialGradient id="_21-8" cx="4.42" cy="143.84" r="4.42" gradientTransform="matrix(1, 0, 0, 1, 0, 0)" xlink:href="#_21"/><radialGradient id="_21-9" cx="14.81" cy="128.67" r="10.71" gradientTransform="translate(139.42 93.36) rotate(80.75)" xlink:href="#_21"/><radialGradient id="_21-10" cx="62.97" cy="5.11" r="5.11" gradientTransform="matrix(1, 0, 0, 1, 0, 0)" xlink:href="#_21"/><linearGradient id="_92-42" x1="146.94" y1="12.05" x2="137.58" y2="12.05" xlink:href="#_92"/><radialGradient id="_21-11" cx="139.55" cy="12.05" r="8.16" gradientTransform="matrix(1, 0, 0, 1, 0, 0)" xlink:href="#_21"/><linearGradient id="_92-43" x1="190.33" y1="133.11" x2="180.97" y2="133.11" xlink:href="#_92"/><radialGradient id="_21-12" cx="182.95" cy="133.11" r="8.16" gradientTransform="matrix(1, 0, 0, 1, 0, 0)" xlink:href="#_21"/><linearGradient id="_92-44" x1="190.62" y1="148.77" x2="186" y2="148.77" xlink:href="#_92"/><radialGradient id="_21-13" cx="186.98" cy="148.77" r="4.03" gradientTransform="matrix(1, 0, 0, 1, 0, 0)" xlink:href="#_21"/><linearGradient id="_27-65" x1="71.86" y1="99.77" x2="128.7" y2="99.77" xlink:href="#_27"/><linearGradient id="linear-gradient-16" x1="99.3" y1="127.52" x2="99.3" y2="70.68" gradientUnits="userSpaceOnUse"><stop offset="0" stop-color="#ca6b34"/><stop offset="0.13" stop-color="#cc6e34"/><stop offset="0.22" stop-color="#d27733"/><stop offset="0.3" stop-color="#db8631"/><stop offset="0.37" stop-color="#e99b2f"/><stop offset="0.43" stop-color="#fbb72c"/><stop offset="0.44" stop-color="#ffbd2b"/><stop offset="1" stop-color="#ffa933"/></linearGradient></defs><title>Asset 32</title><g class="cls-1"><g id="Layer_2" data-name="Layer 2"><g id="frame"><path class="cls-2" d="M25.53,14.55a17.9,17.9,0,0,1-4.11-1.71c-4.86-2.84-5.65-7-5.65-7a18.55,18.55,0,0,1,6.05,4.33,17.12,17.12,0,0,1,2,2.58Z"/><path class="cls-3" d="M21.42,12.84a6.79,6.79,0,0,0,.4-2.63,17.12,17.12,0,0,1,2,2.58l1.75,1.76A17.9,17.9,0,0,1,21.42,12.84Z"/><path class="cls-4" d="M174.87,14.55A17.9,17.9,0,0,0,179,12.84c4.86-2.84,5.64-7,5.64-7a18.57,18.57,0,0,0-6,4.33,17.16,17.16,0,0,0-2,2.58Z"/><path class="cls-5" d="M179,12.84a6.79,6.79,0,0,1-.4-2.63,17.16,17.16,0,0,0-2,2.58l-1.74,1.76A17.9,17.9,0,0,0,179,12.84Z"/><path class="cls-6" d="M174.15,21.67c-6.84,36-4.92,137.83-4.37,161.54.08,3.2.13,5,.13,5-6.85,9.33-27.79,11.26-27.79,11.26q.66-3.12,1.14-6.54c3.72-26.32-.13-63.86-.13-63.86-7.35,9-19.08,17-19.08,17v64.59c-8.7,6.68-21.1,8.37-23.59,8.65v.05l-.22,0-.23,0v-.05c-2.49-.28-14.89-2-23.59-8.65V146s-11.73-8-19.08-17c0,0-3.84,37.45-.14,63.76.32,2.31.71,4.53,1.16,6.64,0,0-15.51,1-23.81-8.36,0,0,0-1.93,0-5.39-.19-24.8-1.39-128.17-8.2-164l-2.54-8.88S48,38.42,78.63,46.88c0,0-25,15.6-25,42.69S66.41,146.76,100.08,147h.16c33.78-.14,46.61-30.38,46.61-57.42s-25-42.69-25-42.69c30.62-8.46,54.85-34.09,54.85-34.09Z"/><path class="cls-7" d="M174.15,21.67c-7.76,40.87-4.24,166.52-4.24,166.52-6.85,9.33-27.79,11.26-27.79,11.26,5.55-26.09,1-70.4,1-70.4-7.35,9-19.08,17-19.08,17v64.59c-8.7,6.68-21.1,8.37-23.59,8.65v.05l-.22,0L100.08,147h.16c33.78-.14,46.61-30.38,46.61-57.42s-25-42.69-25-42.69c30.62-8.46,54.85-34.09,54.85-34.09Z"/><path class="cls-8" d="M58.36,199.45s-15.51,1-23.81-8.36c0,0,0-1.93,0-5.39a55.63,55.63,0,0,0,22.68,7.11C57.52,195.12,57.91,197.34,58.36,199.45Z"/><path class="cls-9" d="M124.05,206.9v3.73c-8.7,6.68-21.1,8.37-23.59,8.65v.05l-.22,0-.23,0v-.05c-2.49-.28-14.89-2-23.59-8.65v-4.31c10.24,4.8,23.8,7.31,23.8,7.31S114.27,210.81,124.05,206.9Z"/><path class="cls-10" d="M169.91,188.19c-6.85,9.33-27.79,11.26-27.79,11.26q.66-3.12,1.14-6.54c8.18-1.15,20.15-6.58,26.52-9.7C169.86,186.41,169.91,188.19,169.91,188.19Z"/><path class="cls-11" d="M26,17.16C34.1,29.43,57.83,43,67,44.57c0,0-16.35,1.69-27.58-4.3S26,17.16,26,17.16Z"/><path class="cls-12" d="M173.1,17.16C165,29.43,141.22,43,132.05,44.57c0,0,16.34,1.69,27.57-4.3S173.1,17.16,173.1,17.16Z"/><path class="cls-13" d="M34.5,183.21c5.19-8.58,7.28-9.2,10-7.49s3.28,22.65,3.28,22.65a43.23,43.23,0,0,0,10.62,1.08s-3.9-23.81-2.72-39.5l-21.12-1.59Z"/><path class="cls-14" d="M169.81,184.42c-5.19-8.58-10.66-10.41-13.34-8.7s-3.24,21.66-3.24,21.66-7.6,2.07-11.11,2.07a176.28,176.28,0,0,0,2.73-38.65l24.28-5.09Z"/><path class="cls-15" d="M76.42,159.15h47.63v51.48s-5.94,4.43-12,6.08c0,0-.11-37.18-1.35-44.67s-4.58-7.34-4.58-7.34l1.08,53.38s-5.42,1.52-7.15,1.25c0,0,.08-36.75.24-42.82s-5.9-11.66-8.54-6.22-3.88,36-3.88,36-.15-34.66-1.71-39.46-6,46.2-6,46.2l-3.69-2.43Z"/><path class="cls-16" d="M29.11,17.9c-2.32-2.14,10.57,15.9,34.82,23.51A117.55,117.55,0,0,1,44.46,30.1C35.34,23.37,29.11,17.9,29.11,17.9Z"/><path class="cls-17" d="M171.78,17.9c2.31-2.14-10.57,15.9-34.82,23.51A117.55,117.55,0,0,0,156.43,30.1C165.55,23.37,171.78,17.9,171.78,17.9Z"/><path class="cls-18" d="M100.65.09s16.08,11.43,28.23,45.78H72.42C84.57,11.52,100.65.09,100.65.09Z"/><path class="cls-19" d="M100.65,6.38s15.53,17.38,22.13,39.49H78.53C85.13,23.76,100.65,6.38,100.65,6.38Z"/><path class="cls-20" d="M121.31,45.87s-8.84-24.4-20.53-37.42c0,0-11.7,13.39-20.74,37.3Z"/><path class="cls-21" d="M121.71,45.75s-9.08-29.17-21.06-39.37c0,0-15.81,17.42-20.61,39.37,0,0,11-23.16,20-30.36,0,0,10.89,8.9,20.54,30.48Z"/><path class="cls-22" d="M88.87,13.09C98.11,2,101.28,1.39,101.28,1.39c1.75,1.28,6.13,5.32,6.45,5.66a45.06,45.06,0,0,0-7.08-7S95.52,3.73,88.87,13.09Z"/><path class="cls-23" d="M95.42,4.92c2.48,2.42-4,10.58-6.55,8.17,0,0,1.58-2.31,3.88-5S95.42,4.92,95.42,4.92Z"/><ellipse class="cls-24" cx="98.44" cy="28.99" rx="12.41" ry="21.84"/><path class="cls-25" d="M21.5,173.24S41,176.52,73.84,160.82l-20-20-20-20C18.22,153.78,21.5,173.24,21.5,173.24Z"/><path class="cls-26" d="M26,168.79s23.27-1.31,43.57-12.28L53.88,140.86,38.23,125.22C27.26,145.52,26,168.79,26,168.79Z"/><path class="cls-27" d="M68.48,155.47s-23.5,11-41,11.94c0,0,1.19-17.74,11.71-41Z"/><path class="cls-28" d="M68.68,155.83s-27,14.22-42.73,13c0,0,1.14-23.5,13.27-42.42,0,0-8.58,24.18-7.3,35.64,0,0,14,1.42,36.09-7Z"/><path class="cls-29" d="M22.37,155.71c-1.35,14.41.5,17,.5,17,2.14.34,8.09.57,8.56.56a45.51,45.51,0,0,1-9.93-.08S20.45,167,22.37,155.71Z"/><path class="cls-30" d="M21.22,166.12c3.47,0,4.66-10.3,1.15-10.41,0,0-.52,2.76-.81,6.28S21.22,166.12,21.22,166.12Z"/><ellipse class="cls-31" cx="40.37" cy="151.24" rx="21.84" ry="12.41" transform="translate(-95.12 72.84) rotate(-45)"/><path class="cls-32" d="M178.6,173.24s-19.45,3.28-52.34-12.42l20-20,20-20C181.88,153.78,178.6,173.24,178.6,173.24Z"/><path class="cls-33" d="M174.15,168.79s-23.27-1.31-43.57-12.28l15.64-15.65,15.65-15.64C172.84,145.52,174.15,168.79,174.15,168.79Z"/><path class="cls-34" d="M131.61,155.47s23.51,11,41,11.94c0,0-1.19-17.74-11.71-41Z"/><path class="cls-35" d="M131.42,155.83s27,14.22,42.73,13c0,0-1.14-23.5-13.27-42.42,0,0,8.58,24.18,7.29,35.64,0,0-14,1.42-36.08-7Z"/><path class="cls-36" d="M177.73,155.71c1.35,14.41-.5,17-.5,17-2.14.34-8.09.57-8.57.56a45.58,45.58,0,0,0,9.94-.08S179.65,167,177.73,155.71Z"/><path class="cls-37" d="M178.88,166.12c-3.47,0-4.66-10.3-1.15-10.41,0,0,.52,2.76.81,6.28S178.88,166.12,178.88,166.12Z"/><path class="cls-38" d="M168.51,142.46c-8.53-8.53-19.38-11.52-24.22-6.67S142.42,151.48,151,160s19.38,11.52,24.22,6.67S177,151,168.51,142.46Z"/><path class="cls-39" d="M100,19.75S80.4,29.3,65.58,58H134.4C119.59,29.3,100,19.75,100,19.75Z"/><path class="cls-40" d="M100,25S81.07,39.52,73,58H127C118.92,39.52,100,25,100,25Z"/><path class="cls-41" d="M74.81,58s10.78-20.38,25-31.25a110.62,110.62,0,0,1,25.28,31.15Z"/><path class="cls-42" d="M74.33,57.89S85.39,33.53,100,25c0,0,19.28,14.55,25.12,32.88,0,0-13.44-19.34-24.43-25.35,0,0-13.28,7.42-25,25.45Z"/><path class="cls-43" d="M114.35,30.61c-11.26-9.3-15.12-9.77-15.12-9.77-2.14,1.07-7.47,4.45-7.87,4.73A52.39,52.39,0,0,1,100,19.75S106.24,22.8,114.35,30.61Z"/><path class="cls-44" d="M106.37,23.79c-3,2,4.86,8.84,8,6.82,0,0-1.92-1.93-4.72-4.18Z"/><ellipse class="cls-45" cx="102.69" cy="43.89" rx="15.13" ry="18.24"/><path class="cls-46" d="M18.24,101.22s9.55,19.6,38.25,34.41V66.81C27.79,81.62,18.24,101.22,18.24,101.22Z"/><path class="cls-47" d="M23.5,101.22s14.52,18.92,33,27V74.25C38,82.3,23.5,101.22,23.5,101.22Z"/><path class="cls-48" d="M56.49,126.4s-20.39-10.77-31.26-25A110.77,110.77,0,0,1,56.39,76.1Z"/><path class="cls-49" d="M56.39,126.89S32,115.83,23.5,101.22c0,0,14.55-19.27,32.89-25.12,0,0-19.35,13.44-25.36,24.43,0,0,7.43,13.28,25.46,25Z"/><path class="cls-50" d="M29.11,86.86C19.8,98.12,19.33,102,19.33,102c1.07,2.13,4.45,7.47,4.73,7.86a51.89,51.89,0,0,1-5.82-8.63S21.29,95,29.11,86.86Z"/><path class="cls-51" d="M22.28,94.85c2,3,8.84-4.87,6.83-8,0,0-1.94,1.93-4.19,4.72S22.28,94.85,22.28,94.85Z"/><ellipse class="cls-52" cx="42.38" cy="98.52" rx="18.24" ry="15.13"/><path class="cls-53" d="M181.85,101.22s-9.54,19.6-38.24,34.41V66.81C172.31,81.62,181.85,101.22,181.85,101.22Z"/><path class="cls-54" d="M176.6,101.22s-14.52,18.92-33,27V74.25C162.08,82.3,176.6,101.22,176.6,101.22Z"/><path class="cls-55" d="M143.61,126.4s20.39-10.77,31.26-25A110.77,110.77,0,0,0,143.71,76.1Z"/><path class="cls-56" d="M143.71,126.89s24.37-11.06,32.89-25.67c0,0-14.55-19.27-32.89-25.12,0,0,19.35,13.44,25.36,24.43,0,0-7.43,13.28-25.46,25Z"/><path class="cls-57" d="M171,86.86c9.31,11.26,9.78,15.13,9.78,15.13-1.07,2.13-4.45,7.47-4.73,7.86a51.33,51.33,0,0,0,5.81-8.63S178.81,95,171,86.86Z"/><path class="cls-58" d="M177.82,94.85c-2,3-8.84-4.87-6.83-8,0,0,1.93,1.93,4.19,4.72S177.82,94.85,177.82,94.85Z"/><ellipse class="cls-59" cx="157.72" cy="98.52" rx="18.24" ry="15.13"/><path class="cls-60" d="M100,181.77s-19.59-9.55-34.41-38.24H134.4C119.59,172.22,100,181.77,100,181.77Z"/><path class="cls-61" d="M100,176.51s-17.53-13.09-27-33H127C118.92,162,100,176.51,100,176.51Z"/><path class="cls-62" d="M74.81,143.53s10.78,20.38,25,31.25a110.62,110.62,0,0,0,25.28-31.15Z"/><path class="cls-63" d="M74.33,143.63s2.53,13.68,25.66,32.88c0,0,19.28-14.55,25.12-32.88,0,0-13.44,7.17-24.43,13.18,0,0-9.32-1.31-25-13.28Z"/><path class="cls-64" d="M54.44,44.81a3.67,3.67,0,0,0,0,.46v0a7.58,7.58,0,0,0,.33,1.4h0c1.07,3.19,4.26,7.62,6.17,10.11l.07.09c.46.6.84,1.08,1.1,1.39h0l.34.41h3.09c3-4,5.68-11.21,5.72-14.08a2.69,2.69,0,0,0-.08-.75,20.19,20.19,0,0,0-1.35-2.84C67.54,36.69,63,29.29,62,29.41c-.61.07-3.91,5.55-5.93,10.18A16.82,16.82,0,0,0,54.44,44.81Z"/><path class="cls-65" d="M54.44,44.81a3.67,3.67,0,0,0,0,.46v0a7.58,7.58,0,0,0,.33,1.4h0c1.07,3.19,4.26,7.62,6.17,10.11l.07.09c.46.6.84,1.08,1.1,1.39h0l.34.41h3.09c3-4,5.68-11.21,5.72-14.08a6.86,6.86,0,0,1-5.53,5.2,10,10,0,0,1-2.72.09h0l-.46-.05-.36,0a13.54,13.54,0,0,1-2.67-.7s-2.63-1.76-3.17-4.08c-.23-1,0-3,.9-5.7a44.73,44.73,0,0,1,4.74-10c-.61.07-3.91,5.55-5.93,10.18A16.82,16.82,0,0,0,54.44,44.81Z"/><path class="cls-66" d="M64.65,44.26c1.42,5.56-1.31,14.48-1.31,14.48s.25-8.2-.92-12.4S64.22,42.53,64.65,44.26Z"/><path class="cls-67" d="M62.08,44.64c1.48,5,1.26,14.1,1.26,14.1Z"/><path class="cls-68" d="M69.49,40.37c-2,1.45-6.59-9.85-5.2-8.44C65.36,33,69.49,40.37,69.49,40.37Z"/><path class="cls-69" d="M54.47,45.27v0a5.92,5.92,0,0,0,.33,1.4h0c1.07,3,4.37,7.72,6.17,10.11l.07.09c.57.77,1,1.28,1.1,1.39h0c1.14,1.15.14-.74-4-8.14C56.39,47,54.4,44.14,54.47,45.27Z"/><path class="cls-70" d="M61,56.84l.07.09c.57.77,1,1.28,1.1,1.39a59.53,59.53,0,0,0,0-8.47c-.6-4.92-1.35-9.24-2.41-9.85a4.59,4.59,0,0,0-2.53-.63,3.81,3.81,0,0,0-1.19.22,16.82,16.82,0,0,0-1.62,5.22,3.67,3.67,0,0,0,0,.46v0a5.92,5.92,0,0,0,.33,1.4h0C55.88,49.92,59.07,54.35,61,56.84Z"/><path class="cls-71" d="M46.26,71.79a4.61,4.61,0,0,0,.52,0h0a6.64,6.64,0,0,0,1.25-.28h0c3.17-1,7.62-4.15,10.16-6.06l.08-.07c.63-.47,1.13-.87,1.45-1.12l0,0,.4-.32V63l0-2.23c-4-3-11.14-5.74-14-5.79a2.39,2.39,0,0,0-.75.07,21.34,21.34,0,0,0-2.84,1.32h0c-1,.51-2.07,1.12-3.21,1.77-4.06,2.33-8.55,5.24-8.47,6S42.54,71.69,46.26,71.79Z"/><path class="cls-72" d="M46.26,71.79a4.61,4.61,0,0,0,.52,0h0a6.64,6.64,0,0,0,1.25-.28h0c3.17-1,7.62-4.15,10.16-6.06l.08-.07c.63-.47,1.13-.87,1.45-1.12l0,0,.4-.32V63l0-2.23c-4-3-11.14-5.74-14-5.79a6.81,6.81,0,0,1,5.14,5.54,9.56,9.56,0,0,1,.12,2.05c0,.23,0,.45,0,.66v0c0,.15,0,.31,0,.46a13.57,13.57,0,0,1-.77,3s-1.77,2.6-4.09,3.13c-1.92.43-8.26-1.1-15.57-5.74C31.06,65.05,42.54,71.69,46.26,71.79Z"/><path class="cls-73" d="M44.49,62.59C50,57.69,60.2,63,60.2,63s-8.17-.31-12.36.83S43.84,63.17,44.49,62.59Z"/><path class="cls-74" d="M46.14,64.18C51.1,62.74,60.2,63,60.2,63Z"/><path class="cls-75" d="M33.49,61.89c1,.87,5.44-.8,7.92-2.61,1.26-.92,2-1.88,1.53-2.56l-.3-.33h0l-3.21,1.77Z"/><path class="cls-76" d="M51.65,68.1c7.4-4,9.29-5,8.13-3.89-.47.46-9.63,7.39-13.06,7.56C45.59,71.83,48.41,69.86,51.65,68.1Z"/><path class="cls-77" d="M39.43,58.16l.16.06a7.59,7.59,0,0,1,1.82,1.06,15.65,15.65,0,0,1,3.08,3.31s1.7-1.09,5.67-1c5.28.11,6.9,1,9.42,1.42h0l.24,0h0l.34.07V63l0-2.23c-4-3-11.14-5.74-14-5.79a2.39,2.39,0,0,0-.75.07,21.34,21.34,0,0,0-2.84,1.32h0C41.68,56.9,40.57,57.51,39.43,58.16Z"/><path class="cls-78" d="M42.72,56.48c3.18,3.45,17.37,5.06,17.37,5.06l2.53-2.41c-.69-5.57-4.11-13.53-6.32-15.89a3.16,3.16,0,0,0-.64-.54C53.55,41.48,37.79,37,36.87,38.08,36.22,38.86,39.88,53.39,42.72,56.48Z"/><path class="cls-79" d="M42.72,56.48c3.18,3.45,17.37,5.06,17.37,5.06l2.53-2.41c-.69-5.57-4.11-13.53-6.32-15.89,4.37,8.68-6.08,12.82-6.08,12.82s-2.23.65-5.43-1.53c-1.84-1.26-5.94-6.88-7.92-16.45C36.22,38.86,39.88,53.39,42.72,56.48Z"/><path class="cls-80" d="M48.75,48.54c7.33,2,12,12.34,12,12.34S54.61,54,50.4,51.51,47.79,48.28,48.75,48.54Z"/><path class="cls-81" d="M48.79,50.4c5.07,2.88,12,10.48,12,10.48Z"/><path class="cls-82" d="M52.61,41.52C52.1,44.26,38.5,38,40.7,38.35A123.1,123.1,0,0,1,52.61,41.52Z"/><path class="cls-83" d="M145.65,44.81a3.62,3.62,0,0,1,0,.46.09.09,0,0,1,0,0,6.85,6.85,0,0,1-.33,1.4h0c-1.07,3.19-4.26,7.62-6.18,10.11l-.06.09c-.46.6-.85,1.08-1.1,1.39h0l-.33.41h-3.1c-3-4-5.68-11.21-5.71-14.08a2.69,2.69,0,0,1,.08-.75,21,21,0,0,1,1.34-2.84c2.34-4.38,6.9-11.78,7.88-11.66.62.07,3.91,5.55,5.94,10.18A16.47,16.47,0,0,1,145.65,44.81Z"/><path class="cls-84" d="M145.65,44.81a3.62,3.62,0,0,1,0,.46.09.09,0,0,1,0,0,6.85,6.85,0,0,1-.33,1.4h0c-1.07,3.19-4.26,7.62-6.18,10.11l-.06.09c-.46.6-.85,1.08-1.1,1.39h0l-.33.41h-3.1c-3-4-5.68-11.21-5.71-14.08a6.86,6.86,0,0,0,5.52,5.2,10.1,10.1,0,0,0,2.73.09h0l.47-.05.36,0a13.54,13.54,0,0,0,2.67-.7s2.62-1.76,3.17-4.08c.22-1,0-3-.9-5.7a45.27,45.27,0,0,0-4.75-10c.62.07,3.91,5.55,5.94,10.18A16.47,16.47,0,0,1,145.65,44.81Z"/><path class="cls-85" d="M135.44,44.26c-1.41,5.56,1.31,14.48,1.31,14.48s-.25-8.2.92-12.4S135.88,42.53,135.44,44.26Z"/><path class="cls-86" d="M138,44.64c-1.48,5-1.27,14.1-1.27,14.1Z"/><path class="cls-87" d="M130.6,40.37c2,1.45,6.6-9.85,5.21-8.44C134.73,33,130.6,40.37,130.6,40.37Z"/><path class="cls-88" d="M145.63,45.27a.09.09,0,0,1,0,0,5.07,5.07,0,0,1-.33,1.4h0c-1.07,3-4.38,7.72-6.18,10.11l-.06.09c-.58.77-1,1.28-1.1,1.39h0c-1.14,1.15-.13-.74,4-8.14C143.7,47,145.69,44.14,145.63,45.27Z"/><path class="cls-89" d="M139.11,56.84l-.06.09c-.58.77-1,1.28-1.1,1.39a58,58,0,0,1,0-8.47c.6-4.92,1.34-9.24,2.4-9.85a4.62,4.62,0,0,1,2.54-.63,3.9,3.9,0,0,1,1.19.22,16.47,16.47,0,0,1,1.61,5.22,3.62,3.62,0,0,1,0,.46.09.09,0,0,1,0,0,5.07,5.07,0,0,1-.33,1.4h0C144.22,49.92,141,54.35,139.11,56.84Z"/><path class="cls-90" d="M153.84,71.79a4.61,4.61,0,0,1-.52,0h0a6.57,6.57,0,0,1-1.26-.28h0c-3.16-1-7.62-4.15-10.15-6.06l-.09-.07-1.45-1.12v0l-.41-.32V60.79c4-3,11.13-5.74,14-5.79a2.29,2.29,0,0,1,.74.07,21.28,21.28,0,0,1,2.85,1.32h0c1,.51,2.07,1.12,3.21,1.77,4.05,2.33,8.54,5.24,8.46,6S157.55,71.69,153.84,71.79Z"/><path class="cls-91" d="M153.84,71.79a4.61,4.61,0,0,1-.52,0h0a6.57,6.57,0,0,1-1.26-.28h0c-3.16-1-7.62-4.15-10.15-6.06l-.09-.07-1.45-1.12v0l-.41-.32V60.79c4-3,11.13-5.74,14-5.79a6.78,6.78,0,0,0-5.14,5.54,9,9,0,0,0-.13,2.05c0,.23,0,.45.05.66v0l.06.46a13.57,13.57,0,0,0,.77,3s1.76,2.6,4.09,3.13c1.92.43,8.26-1.1,15.56-5.74C169,65.05,157.55,71.69,153.84,71.79Z"/><path class="cls-92" d="M155.6,62.59c-5.45-4.9-15.71.43-15.71.43s8.17-.31,12.37.83S156.26,63.17,155.6,62.59Z"/><path class="cls-93" d="M154,64.18C149,62.74,139.89,63,139.89,63Z"/><path class="cls-94" d="M166.6,61.89c-1,.87-5.43-.8-7.91-2.61-1.26-.92-2-1.88-1.53-2.56l.3-.33h0l3.21,1.77Z"/><path class="cls-95" d="M148.45,68.1c-7.4-4-9.29-5-8.14-3.89.47.46,9.63,7.39,13.07,7.56C154.51,71.83,151.69,69.86,148.45,68.1Z"/><path class="cls-96" d="M160.67,58.16l-.17.06a7.53,7.53,0,0,0-1.81,1.06,15.54,15.54,0,0,0-3.09,3.31s-1.7-1.09-5.67-1c-5.27.11-6.89,1-9.42,1.42h0l-.24,0h0l-.34.07V60.79c4-3,11.13-5.74,14-5.79a2.29,2.29,0,0,1,.74.07,21.28,21.28,0,0,1,2.85,1.32h0C158.42,56.9,159.53,57.51,160.67,58.16Z"/><path class="cls-97" d="M157.38,56.48C154.2,59.93,140,61.54,140,61.54l-2.52-2.41c.68-5.57,4.11-13.53,6.32-15.89a2.91,2.91,0,0,1,.64-.54c2.11-1.22,17.86-5.73,18.79-4.62C163.88,38.86,160.22,53.39,157.38,56.48Z"/><path class="cls-98" d="M157.38,56.48C154.2,59.93,140,61.54,140,61.54l-2.52-2.41c.68-5.57,4.11-13.53,6.32-15.89-4.37,8.68,6.08,12.82,6.08,12.82s2.23.65,5.43-1.53c1.83-1.26,5.93-6.88,7.92-16.45C163.88,38.86,160.22,53.39,157.38,56.48Z"/><path class="cls-99" d="M151.34,48.54c-7.32,2-12,12.34-12,12.34s6.18-6.86,10.4-9.37S152.3,48.28,151.34,48.54Z"/><path class="cls-100" d="M151.31,50.4c-5.08,2.88-12,10.48-12,10.48Z"/><path class="cls-101" d="M147.49,41.52c.51,2.74,14.1-3.56,11.91-3.17A123.1,123.1,0,0,0,147.49,41.52Z"/><path class="cls-102" d="M54.44,156.58a3.67,3.67,0,0,1,0-.46v-.06a7.68,7.68,0,0,1,.33-1.39h0c1.07-3.19,4.26-7.62,6.17-10.11l.07-.09c.46-.6.84-1.08,1.1-1.4h0c.21-.27.34-.41.34-.41h3.09c3,4,5.68,11.21,5.72,14.08a2.57,2.57,0,0,1-.08.74,20.13,20.13,0,0,1-1.35,2.85C67.54,164.69,63,172.09,62,172c-.61-.07-3.91-5.55-5.93-10.18A16.9,16.9,0,0,1,54.44,156.58Z"/><path class="cls-103" d="M54.44,156.58a3.67,3.67,0,0,1,0-.46v-.06a7.68,7.68,0,0,1,.33-1.39h0c1.07-3.19,4.26-7.62,6.17-10.11l.07-.09c.46-.6.84-1.08,1.1-1.4h0c.21-.27.34-.41.34-.41h3.09c3,4,5.68,11.21,5.72,14.08a6.83,6.83,0,0,0-5.53-5.2,10,10,0,0,0-2.72-.1h0l-.46.05-.36,0a13.54,13.54,0,0,0-2.67.7s-2.63,1.75-3.17,4.08c-.23,1,0,3,.9,5.7A44.73,44.73,0,0,0,62,172c-.61-.07-3.91-5.55-5.93-10.18A16.9,16.9,0,0,1,54.44,156.58Z"/><path class="cls-104" d="M64.65,157.13c1.42-5.57-1.31-14.48-1.31-14.48s.25,8.2-.92,12.4S64.22,158.85,64.65,157.13Z"/><path class="cls-105" d="M62.08,156.75c1.48-5,1.26-14.1,1.26-14.1Z"/><path class="cls-106" d="M69.49,161c-2-1.45-6.59,9.85-5.2,8.44C65.36,168.37,69.49,161,69.49,161Z"/><path class="cls-107" d="M54.47,156.12v-.06a5.85,5.85,0,0,1,.33-1.39h0c1.07-3,4.37-7.72,6.17-10.11l.07-.09c.57-.77,1-1.28,1.1-1.4h0c1.14-1.15.14.74-4,8.13C56.39,154.44,54.4,157.25,54.47,156.12Z"/><path class="cls-108" d="M61,144.55l.07-.09c.57-.77,1-1.28,1.1-1.4a59.72,59.72,0,0,1,0,8.48c-.6,4.91-1.35,9.24-2.41,9.85a4.59,4.59,0,0,1-2.53.63,3.81,3.81,0,0,1-1.19-.22,16.9,16.9,0,0,1-1.62-5.22,3.67,3.67,0,0,1,0-.46v-.06a5.85,5.85,0,0,1,.33-1.39h0C55.88,151.47,59.07,147,61,144.55Z"/><path class="cls-109" d="M46.26,129.6a3.05,3.05,0,0,1,.52,0h0a6.72,6.72,0,0,1,1.25.29h0c3.17,1,7.62,4.16,10.16,6.07l.08.07c.63.47,1.13.86,1.45,1.12h0l.4.33v.86l0,2.23c-4,3-11.14,5.74-14,5.79a3.18,3.18,0,0,1-.75-.07A21.34,21.34,0,0,1,42.64,145h0c-1-.5-2.07-1.11-3.21-1.77-4.06-2.32-8.55-5.23-8.47-6S42.54,129.69,46.26,129.6Z"/><path class="cls-110" d="M46.26,129.6a3.05,3.05,0,0,1,.52,0h0a6.72,6.72,0,0,1,1.25.29h0c3.17,1,7.62,4.16,10.16,6.07l.08.07c.63.47,1.13.86,1.45,1.12h0l.4.33v.86l0,2.23c-4,3-11.14,5.74-14,5.79a6.82,6.82,0,0,0,5.14-5.54,9.65,9.65,0,0,0,.12-2.06c0-.22,0-.44,0-.65v0c0-.16,0-.31,0-.46a13.57,13.57,0,0,0-.77-3s-1.77-2.6-4.09-3.13c-1.92-.44-8.26,1.09-15.57,5.74C31.06,136.33,42.54,129.69,46.26,129.6Z"/><path class="cls-111" d="M44.49,138.8c5.46,4.9,15.71-.43,15.71-.43s-8.17.3-12.36-.83S43.84,138.21,44.49,138.8Z"/><path class="cls-112" d="M46.14,137.2c5,1.45,14.06,1.17,14.06,1.17Z"/><path class="cls-113" d="M33.49,139.5c1-.88,5.44.79,7.92,2.61,1.26.91,2,1.87,1.53,2.55l-.3.34h0l-3.21-1.77Z"/><path class="cls-114" d="M51.65,133.29c7.4,4,9.29,5,8.13,3.89-.47-.46-9.63-7.39-13.06-7.56C45.59,129.56,48.41,131.52,51.65,133.29Z"/><path class="cls-115" d="M39.43,143.22l.16-.06a7.55,7.55,0,0,0,1.82-1,15.92,15.92,0,0,0,3.08-3.31s1.7,1.08,5.67,1c5.28-.1,6.9-1,9.42-1.42h0l.24,0h0l.34-.07v.1l0,2.23c-4,3-11.14,5.74-14,5.79a3.18,3.18,0,0,1-.75-.07A21.34,21.34,0,0,1,42.64,145h0C41.68,144.49,40.57,143.88,39.43,143.22Z"/><path class="cls-116" d="M42.72,144.91c3.18-3.45,17.37-5.07,17.37-5.07l2.53,2.41c-.69,5.58-4.11,13.54-6.32,15.89a2.94,2.94,0,0,1-.64.55c-2.11,1.22-17.87,5.73-18.79,4.62C36.22,162.52,39.88,148,42.72,144.91Z"/><path class="cls-117" d="M42.72,144.91c3.18-3.45,17.37-5.07,17.37-5.07l2.53,2.41c-.69,5.58-4.11,13.54-6.32,15.89,4.37-8.67-6.08-12.81-6.08-12.81s-2.23-.65-5.43,1.53c-1.84,1.25-5.94,6.87-7.92,16.45C36.22,162.52,39.88,148,42.72,144.91Z"/><path class="cls-118" d="M48.75,152.85c7.33-2,12-12.34,12-12.34s-6.18,6.86-10.39,9.37S47.79,153.11,48.75,152.85Z"/><path class="cls-119" d="M48.79,151c5.07-2.89,12-10.48,12-10.48Z"/><path class="cls-120" d="M52.61,159.87c-.51-2.75-14.11,3.55-11.91,3.17A123.1,123.1,0,0,0,52.61,159.87Z"/><path class="cls-121" d="M145.65,156.58a3.62,3.62,0,0,0,0-.46.13.13,0,0,0,0-.06,6.92,6.92,0,0,0-.33-1.39h0c-1.07-3.19-4.26-7.62-6.18-10.11l-.06-.09c-.46-.6-.85-1.08-1.1-1.4h0l-.33-.41h-3.1c-3,4-5.68,11.21-5.71,14.08a2.57,2.57,0,0,0,.08.74,20.91,20.91,0,0,0,1.34,2.85c2.34,4.37,6.9,11.77,7.88,11.66.62-.07,3.91-5.55,5.94-10.18A16.55,16.55,0,0,0,145.65,156.58Z"/><path class="cls-122" d="M145.65,156.58a3.62,3.62,0,0,0,0-.46.13.13,0,0,0,0-.06,6.92,6.92,0,0,0-.33-1.39h0c-1.07-3.19-4.26-7.62-6.18-10.11l-.06-.09c-.46-.6-.85-1.08-1.1-1.4h0l-.33-.41h-3.1c-3,4-5.68,11.21-5.71,14.08a6.83,6.83,0,0,1,5.52-5.2,10.12,10.12,0,0,1,2.73-.1h0l.47.05.36,0a13.54,13.54,0,0,1,2.67.7s2.62,1.75,3.17,4.08c.22,1,0,3-.9,5.7a45.27,45.27,0,0,1-4.75,10c.62-.07,3.91-5.55,5.94-10.18A16.55,16.55,0,0,0,145.65,156.58Z"/><path class="cls-123" d="M135.44,157.13c-1.41-5.57,1.31-14.48,1.31-14.48s-.25,8.2.92,12.4S135.88,158.85,135.44,157.13Z"/><path class="cls-124" d="M138,156.75c-1.48-5-1.27-14.1-1.27-14.1Z"/><path class="cls-125" d="M130.6,161c2-1.45,6.6,9.85,5.21,8.44C134.73,168.37,130.6,161,130.6,161Z"/><path class="cls-126" d="M145.63,156.12a.13.13,0,0,0,0-.06,5,5,0,0,0-.33-1.39h0c-1.07-3-4.38-7.72-6.18-10.11l-.06-.09c-.58-.77-1-1.28-1.1-1.4h0c-1.14-1.15-.13.74,4,8.13C143.7,154.44,145.69,157.25,145.63,156.12Z"/><path class="cls-127" d="M139.11,144.55l-.06-.09c-.58-.77-1-1.28-1.1-1.4a58.17,58.17,0,0,0,0,8.48c.6,4.91,1.34,9.24,2.4,9.85a4.62,4.62,0,0,0,2.54.63,3.9,3.9,0,0,0,1.19-.22,16.55,16.55,0,0,0,1.61-5.22,3.62,3.62,0,0,0,0-.46.13.13,0,0,0,0-.06,5,5,0,0,0-.33-1.39h0C144.22,151.47,141,147,139.11,144.55Z"/><path class="cls-128" d="M153.84,129.6a3.05,3.05,0,0,0-.52,0h0a6.64,6.64,0,0,0-1.26.29h0c-3.16,1-7.62,4.16-10.15,6.07l-.09.07-1.45,1.12h0l-.41.33v3.09c4,3,11.13,5.74,14,5.79a3,3,0,0,0,.74-.07,21.28,21.28,0,0,0,2.85-1.32h0c1-.5,2.07-1.11,3.21-1.77,4.05-2.32,8.54-5.23,8.46-6S157.55,129.69,153.84,129.6Z"/><path class="cls-129" d="M153.84,129.6a3.05,3.05,0,0,0-.52,0h0a6.64,6.64,0,0,0-1.26.29h0c-3.16,1-7.62,4.16-10.15,6.07l-.09.07-1.45,1.12h0l-.41.33v3.09c4,3,11.13,5.74,14,5.79a6.8,6.8,0,0,1-5.14-5.54,9.06,9.06,0,0,1-.13-2.06c0-.22,0-.44.05-.65v0l.06-.46a13.57,13.57,0,0,1,.77-3s1.76-2.6,4.09-3.13c1.92-.44,8.26,1.09,15.56,5.74C169,136.33,157.55,129.69,153.84,129.6Z"/><path class="cls-130" d="M155.6,138.8c-5.45,4.9-15.71-.43-15.71-.43s8.17.3,12.37-.83S156.26,138.21,155.6,138.8Z"/><path class="cls-131" d="M154,137.2c-5,1.45-14.07,1.17-14.07,1.17Z"/><path class="cls-132" d="M166.6,139.5c-1-.88-5.43.79-7.91,2.61-1.26.91-2,1.87-1.53,2.55l.3.34h0l3.21-1.77Z"/><path class="cls-133" d="M148.45,133.29c-7.4,4-9.29,5-8.14,3.89.47-.46,9.63-7.39,13.07-7.56C154.51,129.56,151.69,131.52,148.45,133.29Z"/><path class="cls-134" d="M160.67,143.22a1.15,1.15,0,0,1-.17-.06,7.49,7.49,0,0,1-1.81-1,15.8,15.8,0,0,1-3.09-3.31s-1.7,1.08-5.67,1c-5.27-.1-6.89-1-9.42-1.42h0l-.24,0h0l-.34-.07v2.33c4,3,11.13,5.74,14,5.79a3,3,0,0,0,.74-.07,21.28,21.28,0,0,0,2.85-1.32h0C158.42,144.49,159.53,143.88,160.67,143.22Z"/><path class="cls-135" d="M157.38,144.91c-3.18-3.45-17.38-5.07-17.38-5.07l-2.52,2.41c.68,5.58,4.11,13.54,6.32,15.89a2.73,2.73,0,0,0,.64.55c2.11,1.22,17.86,5.73,18.79,4.62C163.88,162.52,160.22,148,157.38,144.91Z"/><path class="cls-136" d="M157.38,144.91c-3.18-3.45-17.38-5.07-17.38-5.07l-2.52,2.41c.68,5.58,4.11,13.54,6.32,15.89-4.37-8.67,6.08-12.81,6.08-12.81s2.23-.65,5.43,1.53c1.83,1.25,5.93,6.87,7.92,16.45C163.88,162.52,160.22,148,157.38,144.91Z"/><path class="cls-137" d="M151.34,152.85c-7.32-2-12-12.34-12-12.34s6.18,6.86,10.4,9.37S152.3,153.11,151.34,152.85Z"/><path class="cls-138" d="M151.31,151c-5.08-2.89-12-10.48-12-10.48Z"/><path class="cls-139" d="M147.49,159.87c.51-2.75,14.1,3.55,11.91,3.17A123.1,123.1,0,0,1,147.49,159.87Z"/><path class="cls-140" d="M167,126.8c.58-1.39-7.53-16.47-10.88-22.6a52.92,52.92,0,0,0,0-6.76c3.35-6.12,10.92-21,10.88-22.59A27.25,27.25,0,0,0,167,72c-.58-1.36-17.74-6.21-24.58-8.09a55.67,55.67,0,0,0-6.35-6.22c-1.71-6.26-6.87-24.7-8.29-25.29-1.69-.72-23.8,11.52-25.1,12.24q-1.34-.06-2.7-.06t-2.7.06c-1.3-.72-23.4-13-25.1-12.24-1.41.59-6.57,19-8.28,25.29a55.67,55.67,0,0,0-6.35,6.22C50.72,65.78,33.55,70.63,33,72a22.71,22.71,0,0,0,0,2.86c0,2,7.52,16.47,10.87,22.59a37.84,37.84,0,0,0,0,6.76C40.5,110.33,32.4,125.41,33,126.8c.06.13-.12,2.57,0,2.85.57,1.37,17.74,6.21,24.58,8.09A56.61,56.61,0,0,0,63.91,144c1.71,6.26,6.87,24.7,8.28,25.29,1.7.71,23.8-11.53,25.1-12.25.9,0,1.8.07,2.7.07s1.81,0,2.7-.07c1.3.72,23.41,13,25.1,12.25,1.42-.59,6.58-19,8.29-25.29a56.61,56.61,0,0,0,6.35-6.23c6.84-1.88,24-6.72,24.58-8.09C167.12,129.37,167,126.93,167,126.8Zm-24.62-26A42.4,42.4,0,1,1,100,58.44,42.39,42.39,0,0,1,142.39,100.82Z"/><path class="cls-141" d="M90.28,156.27l.61.11a37,37,0,0,1-5.2,3.09l0,0c-1,.49-2,.92-2.89,1.31l-.09,0a46.88,46.88,0,0,1-8.3,2.58h0a59.35,59.35,0,0,1-4.68-12.54.09.09,0,0,0,0-.05l0-.13c-.26-1.06-.48-2-.65-2.87l.45.29.74.47.61.38a56,56,0,0,0,18.85,7.2Z"/><path class="cls-142" d="M90,156.23c-3,2-8.76,5.23-15.19,6.18,0,0-2.69-4.21-4.65-13.83l.61.38a56,56,0,0,0,18.85,7.2Z"/><path class="cls-143" d="M90.28,156.27a24.21,24.21,0,0,1-4.59,3.2l0,0a27.76,27.76,0,0,1-2.89,1.31l-.09,0a65.42,65.42,0,0,1-8.3,2.58h0a54.84,54.84,0,0,1-4.68-12.54.09.09,0,0,0,0-.05l0-.13a12.05,12.05,0,0,1-.2-2.58l.74.47.61.38a33.9,33.9,0,0,0,5,9.26,27,27,0,0,0,13.8-2.06Z"/><path class="cls-144" d="M131,147.82c-.17.84-.39,1.81-.65,2.87l0,.13a.09.09,0,0,1,0,.05,59.26,59.26,0,0,1-4.67,12.54h0a46.41,46.41,0,0,1-8.31-2.59l-.08,0c-1-.39-1.93-.83-2.93-1.33a37,37,0,0,1-5.19-3.1l.6-.1.63-.11a56,56,0,0,0,18.86-7.2l.61-.38.74-.47Z"/><path class="cls-145" d="M129.8,148.58c-2,9.62-4.65,13.83-4.65,13.83-6.43-.95-12.19-4.22-15.19-6.18h0l.37-.07a56,56,0,0,0,18.86-7.2Z"/><path class="cls-146" d="M130.34,150.69l0,.13a.09.09,0,0,1,0,.05,54.56,54.56,0,0,1-4.67,12.54h0a65,65,0,0,1-8.31-2.59l-.08,0a29,29,0,0,1-2.9-1.31l0,0a24.55,24.55,0,0,1-4.59-3.2l.63-.11a27,27,0,0,0,13.81,2.06,33.9,33.9,0,0,0,5-9.26l.61-.38.74-.47A12.05,12.05,0,0,1,130.34,150.69Z"/><path class="cls-147" d="M90.28,45.43l.61-.1a38.09,38.09,0,0,0-5.2-3.1h0c-1-.49-2-.93-2.89-1.31l-.09,0a46.88,46.88,0,0,0-8.3-2.58h0a59.35,59.35,0,0,0-4.68,12.54s0,0,0,0l0,.14c-.26,1.06-.48,2-.65,2.87l.45-.29.74-.47.61-.38a56,56,0,0,1,18.85-7.2Z"/><path class="cls-148" d="M90,45.48c-3-2-8.76-5.23-15.19-6.18,0,0-2.69,4.21-4.65,13.83l.61-.38a56,56,0,0,1,18.85-7.2Z"/><path class="cls-149" d="M90.28,45.43a24.68,24.68,0,0,0-4.59-3.2h0a27.76,27.76,0,0,0-2.89-1.31l-.09,0a65.42,65.42,0,0,0-8.3-2.58h0a54.84,54.84,0,0,0-4.68,12.54s0,0,0,0l0,.14a12.05,12.05,0,0,0-.2,2.58l.74-.47.61-.38a33.9,33.9,0,0,1,5-9.26,27,27,0,0,1,13.8,2.06Z"/><path class="cls-150" d="M84.37,37.7c-5.61-2.05-11.55-3.92-11.55-3.92C71,36.58,67.09,46.64,66.9,47.11c2.06-7,4.41-14.35,5.29-14.72s6.45,2.35,12.17,5.31Z"/><path class="cls-151" d="M109.72,45.43l-.6-.1a38,38,0,0,1,5.19-3.1h0c1-.49,2-.93,2.9-1.31l.08,0a46.88,46.88,0,0,1,8.3-2.58h0a59.82,59.82,0,0,1,4.67,12.54s0,0,0,0l0,.14c.27,1.06.48,2,.65,2.87l-.45-.29c-.24-.16-.48-.32-.73-.47l-.62-.38a56,56,0,0,0-18.85-7.2Z"/><path class="cls-152" d="M110,45.48c3-2,8.75-5.23,15.18-6.18,0,0,2.69,4.21,4.66,13.83l-.62-.38a56,56,0,0,0-18.85-7.2Z"/><path class="cls-153" d="M109.72,45.43a24.68,24.68,0,0,1,4.59-3.2h0a27.07,27.07,0,0,1,2.9-1.31l.08,0a65.93,65.93,0,0,1,8.3-2.58h0a55.1,55.1,0,0,1,4.67,12.54s0,0,0,0l0,.14a10.89,10.89,0,0,1,.2,2.58c-.24-.16-.48-.32-.73-.47l-.62-.38a33.9,33.9,0,0,0-5-9.26,27,27,0,0,0-13.8,2.06Z"/><path class="cls-154" d="M115.64,37.7c5.6-2.05,11.54-3.92,11.54-3.92,1.82,2.8,5.74,12.86,5.92,13.33-2-7-4.41-14.35-5.29-14.72s-6.45,2.35-12.17,5.31Z"/><path class="cls-155" d="M145.82,68.27l-.35-.49a37.47,37.47,0,0,1,5.86,1.47h0c1,.35,2,.73,3,1.12l.09,0a47.73,47.73,0,0,1,7.7,4h0a59.27,59.27,0,0,1-5.55,12.18s0,0,0,0a.75.75,0,0,0-.07.12c-.56.94-1.1,1.77-1.57,2.49,0-.17-.07-.35-.11-.52s-.13-.57-.19-.86-.11-.47-.17-.7a56,56,0,0,0-8.26-18.41Z"/><path class="cls-156" d="M146,68.49a39.94,39.94,0,0,1,15.12,6.34s-1.07,4.88-6.47,13.08c-.06-.23-.11-.47-.17-.7a56,56,0,0,0-8.26-18.41Z"/><path class="cls-157" d="M145.82,68.27a24.87,24.87,0,0,1,5.51,1h0a28,28,0,0,1,3,1.12l.09,0a67.11,67.11,0,0,1,7.7,4h0a54.83,54.83,0,0,1-5.55,12.18s0,0,0,0a.75.75,0,0,0-.07.12,12.28,12.28,0,0,1-1.68,2c-.06-.29-.13-.57-.19-.86s-.11-.47-.17-.7a34,34,0,0,0,3-10.12,27.1,27.1,0,0,0-11.23-8.29Z"/><path class="cls-158" d="M155.26,67.59c5.05,2.28,10.19,4.9,10.19,4.9-.61,3-4.55,12.23-4.73,12.66,3.18-6,6.39-12.36,6.05-13.18s-5.8-2.62-11.5-4.38Z"/><path class="cls-159" d="M145.82,133.32c-.12.17-.23.34-.35.5a37.47,37.47,0,0,0,5.86-1.47h0c1-.35,2-.73,3-1.12l.09,0a46.82,46.82,0,0,0,7.7-4h0v0A59.41,59.41,0,0,0,156.58,115l0,0a.75.75,0,0,1-.07-.12c-.56-.94-1.1-1.77-1.57-2.49,0,.17-.07.35-.11.52s-.13.57-.19.85-.11.47-.17.71a56,56,0,0,1-8.26,18.41Z"/><path class="cls-160" d="M146,133.11c3.51-.72,9.89-2.48,15.12-6.35,0,0-1.07-4.88-6.47-13.08-.06.24-.11.47-.17.71a56,56,0,0,1-8.26,18.41Z"/><path class="cls-161" d="M145.82,133.32a24.75,24.75,0,0,0,5.51-1h0a30.35,30.35,0,0,0,3-1.12l.09,0a64.08,64.08,0,0,0,7.7-4h0v0A54.87,54.87,0,0,0,156.58,115l0,0a.75.75,0,0,1-.07-.12,11.86,11.86,0,0,0-1.68-2c-.06.28-.13.57-.19.85s-.11.47-.17.71a33.83,33.83,0,0,1,3,10.12,27.1,27.1,0,0,1-11.23,8.29Z"/><path class="cls-162" d="M155.26,134c5.05-2.28,10.19-4.89,10.19-4.89-.61-3-4.55-12.23-4.73-12.66,3.18,6,6.39,12.36,6.05,13.18s-5.8,2.62-11.5,4.37Z"/><path class="cls-163" d="M53.9,68.27l.36-.49a37.32,37.32,0,0,0-5.87,1.47h0c-1,.35-2,.73-3,1.12l-.08,0a47.73,47.73,0,0,0-7.7,4h0a59.29,59.29,0,0,0,5.54,12.18l0,0a.75.75,0,0,0,.07.12c.56.94,1.09,1.77,1.57,2.49,0-.17.07-.35.11-.52s.12-.57.19-.86.11-.47.16-.7A56,56,0,0,1,53.54,68.8Z"/><path class="cls-164" d="M53.75,68.49c-3.5.72-9.89,2.48-15.12,6.34,0,0,1.08,4.88,6.48,13.08,0-.23.11-.47.16-.7A56,56,0,0,1,53.54,68.8Z"/><path class="cls-165" d="M53.9,68.27a24.87,24.87,0,0,0-5.51,1h0a28,28,0,0,0-3,1.12l-.08,0a65.5,65.5,0,0,0-7.7,4h0a54.5,54.5,0,0,0,5.54,12.18l0,0a.75.75,0,0,0,.07.12,11.79,11.79,0,0,0,1.68,2c.06-.29.12-.57.19-.86s.11-.47.16-.7a34,34,0,0,1-3-10.12A27,27,0,0,1,53.54,68.8Z"/><path class="cls-166" d="M44.46,67.59c-5,2.28-10.19,4.9-10.19,4.9.62,3,4.59,12.6,4.77,13C36,79.86,32.72,72.29,33,72c.49-.67,5.79-2.62,11.49-4.38Z"/><path class="cls-167" d="M53.9,133.32l.36.5a37.32,37.32,0,0,1-5.87-1.47h0c-1-.35-2-.73-3-1.12l-.08,0a46.82,46.82,0,0,1-7.7-4h0v0A59.43,59.43,0,0,1,43.14,115l0,0a.75.75,0,0,1,.07-.12c.56-.94,1.09-1.77,1.57-2.49,0,.17.07.35.11.52s.12.57.19.85.11.47.16.71a56,56,0,0,0,8.27,18.41Z"/><path class="cls-168" d="M53.75,133.11c-3.5-.72-9.89-2.48-15.12-6.35,0,0,1.08-4.88,6.48-13.08,0,.24.11.47.16.71a56,56,0,0,0,8.27,18.41Z"/><path class="cls-169" d="M53.9,133.32a24.75,24.75,0,0,1-5.51-1h0a30.35,30.35,0,0,1-3-1.12l-.08,0a62.61,62.61,0,0,1-7.7-4h0v0A54.54,54.54,0,0,1,43.14,115l0,0a.75.75,0,0,1,.07-.12,11.41,11.41,0,0,1,1.68-2c.06.28.12.57.19.85s.11.47.16.71a33.82,33.82,0,0,0-3,10.12,27,27,0,0,0,11.23,8.29Z"/><path class="cls-170" d="M44.46,134c-5-2.28-10.19-4.89-10.19-4.89.62-3,4.55-12.23,4.73-12.66-3.17,6-6.39,12.36-6,13.18s5.79,2.62,11.49,4.37Z"/><path class="cls-171" d="M152.3,121.52a56.27,56.27,0,0,1-103.16,3.34C69.87,144,112,161.8,152.3,121.52Z"/><path class="cls-172" d="M149,135.91c-2.53.73-4.85,1.37-6.53,1.83a56.61,56.61,0,0,1-6.35,6.23c-.49,1.79-1.26,4.58-2.15,7.66a69.74,69.74,0,0,1-21.82,10.48c-4.76-2.52-8.88-4.8-9.42-5.1-.89.05-1.79.07-2.7.07s-1.8,0-2.7-.07c-.54.31-4.78,2.65-9.63,5.21a62.84,62.84,0,0,1-21.48-10.15c-.94-3.26-1.76-6.23-2.27-8.1a56.61,56.61,0,0,1-6.35-6.23c-1.41-.38-3.26-.9-5.31-1.48a28.69,28.69,0,0,1-3.11-11.4c14.93,24.69,65,54.09,103.16-3.34C153,126.24,151.71,131.16,149,135.91Z"/><path class="cls-173" d="M100,44.57A56.27,56.27,0,0,0,46.1,84.67C55.31,64.32,76.21,54.53,100,54.53c26,0,47.54,12.48,55.27,35.83A56.26,56.26,0,0,0,100,44.57Z"/><path class="cls-174" d="M100,54.53a46.28,46.28,0,1,0,46.29,46.28A46.28,46.28,0,0,0,100,54.53Zm0,88.68a42.4,42.4,0,1,1,42.4-42.4A42.4,42.4,0,0,1,100,143.21Z"/><path class="cls-175" d="M62.74,128.28s12.4,14.93,37.25,14.93,37.26-14.93,37.26-14.93-12.1,19.49-37.26,19.49S62.74,128.28,62.74,128.28Z"/><path class="cls-176" d="M62.74,128.28a46.3,46.3,0,0,0,74.51,0s-12.1,19.49-37.26,19.49S62.74,128.28,62.74,128.28Z"/><path class="cls-177" d="M144.54,88.22c-1.09-.62-2.76-1.64-5.22-3.29h0a42.42,42.42,0,0,0-79.2,1.44,43.07,43.07,0,0,1-5.45,5,46.29,46.29,0,0,1,89.87-3.2Z"/><path class="cls-178" d="M100,50c-1.84,2.38,12.85,6.26,14.61,4.58s.1-4.16-3.21-4.58S101.44,48.09,100,50Z"/><path class="cls-178" d="M96.72,147.65c-1.07-2,10.5-4,12.12-2.53s-1.27,2-1.27,2Z"/><ellipse class="cls-179" cx="109.82" cy="47.31" rx="11.99" ry="16.27" transform="translate(38.73 143.46) rotate(-76.83)"/><path class="cls-180" d="M89.85,154.46c-.92,3.48-5.94,5.17-11.22,3.77s-8.81-5.34-7.89-8.82,5.94-5.17,11.22-3.77S90.77,151,89.85,154.46Z"/><path class="cls-181" d="M167,74.85c0,1.55-7.53,16.47-10.88,22.59l-.23-3.65S165.43,79,166.77,72l.28.59h0C167.07,73.37,167,74.74,167,74.85Z"/><path class="cls-182" d="M167,129.65a.63.63,0,0,1-.18.2l-.06-.22c-2.28-8.33-10.87-21.8-10.87-21.8l.23-3.63c3.35,6.13,11.46,21.21,10.88,22.6C167,126.93,167.12,129.37,167,129.65Z"/><path class="cls-183" d="M43.85,104.2v4.2A103.41,103.41,0,0,0,33,129.6c-.09-.47.07-2.67,0-2.8C32.4,125.41,40.5,110.33,43.85,104.2Z"/><path class="cls-184" d="M43.85,93v4.42C40.5,91.32,32.94,76.87,33,74.85c0-.15-.11-2.46,0-2.83C37.83,85.57,43.85,93,43.85,93Z"/><path class="cls-185" d="M94.79,156.81l2.5.2c-1.3.72-23.4,13-25.1,12.25-.41-.17-1.13-1.85-2-4.3.1.2,1.65,3.38,2.48,3.38S94.79,156.81,94.79,156.81Z"/><path class="cls-186" d="M129.79,165c-.86,2.44-1.59,4.12-2,4.29-1.69.71-23.8-11.53-25.1-12.25l3.14-.26s14.89,9.34,21,11.2C128.32,168.43,129.68,165.25,129.79,165Z"/><path class="cls-187" d="M142.06,120a11.23,11.23,0,0,0-2-5.48s2.06-5.19,1.85-8.4l14.18-.32,3.84-10.59s5.28,4.06,4.24,10.59-2.89,8.2-2.89,8.2l-1.58.52A11,11,0,0,1,153,120S149.55,123,142.06,120Z"/><path class="cls-188" d="M141,97c-4.61,7.77.73,16,8,17.31s15.66-5.44,12.89-14.84S145,90.21,141,97Z"/><path class="cls-189" d="M145.81,95c-4,2.07-5.57,9.1-2.06,13.45s11.73,4.87,15.06-1.24C162.39,100.65,155.89,89.82,145.81,95Z"/><path class="cls-190" d="M159,102.58a8.28,8.28,0,1,1-8.27-8.28A8.27,8.27,0,0,1,159,102.58Z"/><path class="cls-191" d="M158.81,102.28a8,8,0,1,1-8-8A8,8,0,0,1,158.81,102.28Z"/><path class="cls-192" d="M158.81,102.28A8,8,0,1,1,145,96.71a6.91,6.91,0,0,0-1.09,3.76,6.51,6.51,0,1,0,13,0,6.85,6.85,0,0,0-2.6-5.43A8,8,0,0,1,158.81,102.28Z"/><path class="cls-193" d="M155.39,100.76a5,5,0,1,1-5-5A5,5,0,0,1,155.39,100.76Z"/><path class="cls-194" d="M150.12,98.06c-.1.85,2.3,1.85,3,1.85,0,0,1.58-1.52,1-3,0,0-1.74-1.39-3.31-1A5.51,5.51,0,0,0,150.12,98.06Z"/><path class="cls-195" d="M149,114.35a11.76,11.76,0,0,1-9.7-11.62c.78,6.52,5.53,12.21,15,10,1.16-.28,7.58-3.25,8.12-10C162.66,110.38,155.36,115.48,149,114.35Z"/><path class="cls-196" d="M161.46,98.41c-.4,1-5.44-3.94-4.78-5h0A9.75,9.75,0,0,1,161.46,98.41Z"/><ellipse class="cls-197" cx="154.74" cy="102.28" rx="15.16" ry="18.49"/><path class="cls-198" d="M57.86,120a11.23,11.23,0,0,1,2-5.48s-2.06-5.19-1.85-8.4l-14.18-.32L40,95.19s-5.28,4.06-4.24,10.59,2.89,8.2,2.89,8.2l1.58.52A11,11,0,0,0,47,120S50.37,123,57.86,120Z"/><path class="cls-199" d="M38.47,97c-4.61,7.77.73,16,8,17.31s15.66-5.44,12.89-14.84S42.53,90.21,38.47,97Z"/><path class="cls-200" d="M43.3,95c-4,2.07-5.57,9.1-2.06,13.45S53,113.33,56.3,107.22C59.88,100.65,53.38,89.82,43.3,95Z"/><circle class="cls-201" cx="48.26" cy="102.58" r="8.27"/><circle class="cls-202" cx="48.26" cy="102.28" r="8.04"/><path class="cls-203" d="M56.3,102.28a8,8,0,1,1-13.85-5.57,6.91,6.91,0,0,0-1.09,3.76,6.51,6.51,0,1,0,13,0A6.83,6.83,0,0,0,51.76,95,8,8,0,0,1,56.3,102.28Z"/><circle class="cls-204" cx="47.87" cy="100.76" r="5.01"/><path class="cls-205" d="M47.61,98.06c-.1.85,2.3,1.85,3,1.85,0,0,1.58-1.52,1-3,0,0-1.74-1.39-3.31-1A5.51,5.51,0,0,0,47.61,98.06Z"/><path class="cls-206" d="M46.45,114.35a11.76,11.76,0,0,1-9.7-11.62c.78,6.52,5.53,12.21,15,10,1.16-.28,7.58-3.25,8.12-10C60.15,110.38,52.85,115.48,46.45,114.35Z"/><path class="cls-207" d="M59,98.41c-.4,1-5.44-3.94-4.78-5h0A9.75,9.75,0,0,1,59,98.41Z"/><ellipse class="cls-208" cx="45.14" cy="102.28" rx="14.73" ry="18.49"/><path class="cls-209" d="M93.42,156.67l.59.57-.74,2-3,6.34,1.31,3.38,4.23,4,4.19,3.46,6.51-5.54,2-4.27-2.39-7.69.23-1.82-.48-.3A42.66,42.66,0,0,1,93.42,156.67Z"/><path class="cls-210" d="M107.16,166.51c-1.87,4.55-7.15,9.86-7.15,9.86s-5.45-5.15-7.45-9.64c1.87-4.55,7.15-10,7.15-10S105.16,162,107.16,166.51Z"/><path class="cls-211" d="M92.56,166.73c2,4.49,7.45,9.64,7.45,9.64l.31-2.47a30.53,30.53,0,0,1-5.89-7.09A8.41,8.41,0,0,0,92.56,166.73Z"/><path class="cls-212" d="M100.32,173.9s-4.36-3.84-5.89-7.09a22,22,0,0,1,5.51-7.59,20.61,20.61,0,0,1,6.14,7.3A32.55,32.55,0,0,1,100.32,173.9Z"/><path class="cls-213" d="M96,166.86A14.11,14.11,0,0,0,100.4,172a18.34,18.34,0,0,0,4-5.3,33.67,33.67,0,0,0-4.33-5.33A62.29,62.29,0,0,0,96,166.86Z"/><path class="cls-214" d="M96,166.86l8.49-.12a37.94,37.94,0,0,0-4.33-5.33A62.29,62.29,0,0,0,96,166.86Z"/><polygon class="cls-215" points="101.88 166.73 100.26 164.7 98.54 166.78 100.24 168.76 101.88 166.73"/><polygon class="cls-216" points="103.83 166.7 101.88 166.73 100.24 168.76 100.27 171.1 103.83 166.7"/><polygon class="cls-217" points="100.22 162.36 100.26 164.7 101.88 166.73 103.83 166.7 100.22 162.36"/><polygon class="cls-218" points="98.54 166.78 100.24 168.76 100.27 171.1 96.58 166.81 98.54 166.78"/><polygon class="cls-219" points="100.22 162.36 100.26 164.7 98.54 166.78 96.58 166.81 100.22 162.36"/><path class="cls-220" d="M103.68,161.6c-.13.38-1.57-1.41-1.36-1.63S103.85,161.11,103.68,161.6Z"/><path class="cls-221" d="M101.07,165.72c-.81-.51-1.23.33-1,.84s1.65.63,1.22-.58Z"/><path class="cls-222" d="M60.1,53.13s-6.27,3.21-10.73,13.09l2.39-.69,2.14,2.74L55,67.11a35.92,35.92,0,0,0,4.91,8.06,54.86,54.86,0,0,0,5.7-6.68A58.06,58.06,0,0,0,69,61.81a11.28,11.28,0,0,0-3.94-3.49Z"/><path class="cls-223" d="M68.09,62.08c-1.86,4.55-7.15,9.86-7.15,9.86s-5.44-5.15-7.45-9.64c1.87-4.55,7.16-10,7.16-10S66.09,57.59,68.09,62.08Z"/><path class="cls-224" d="M53.49,62.3c2,4.49,7.45,9.64,7.45,9.64l.31-2.47a30.53,30.53,0,0,1-5.89-7.09A8.41,8.41,0,0,0,53.49,62.3Z"/><path class="cls-225" d="M61.25,69.47s-4.36-3.84-5.89-7.09a22,22,0,0,1,5.51-7.59A20.61,20.61,0,0,1,67,62.09,32.55,32.55,0,0,1,61.25,69.47Z"/><path class="cls-226" d="M56.89,62.43a14,14,0,0,0,4.44,5.17,18.22,18.22,0,0,0,4-5.29A34,34,0,0,0,61.05,57,63.37,63.37,0,0,0,56.89,62.43Z"/><path class="cls-227" d="M56.89,62.43l8.49-.12A38.27,38.27,0,0,0,61.05,57,63.37,63.37,0,0,0,56.89,62.43Z"/><polygon class="cls-228" points="62.81 62.3 61.19 60.27 59.47 62.35 61.17 64.33 62.81 62.3"/><polygon class="cls-229" points="64.76 62.27 62.81 62.3 61.17 64.33 61.2 66.67 64.76 62.27"/><polygon class="cls-230" points="61.16 57.93 61.19 60.27 62.81 62.3 64.76 62.27 61.16 57.93"/><polygon class="cls-231" points="59.47 62.35 61.17 64.33 61.2 66.67 57.52 62.38 59.47 62.35"/><polygon class="cls-232" points="61.16 57.93 61.19 60.27 59.47 62.35 57.52 62.38 61.16 57.93"/><path class="cls-233" d="M64.61,57.17c-.13.38-1.57-1.41-1.36-1.63S64.78,56.68,64.61,57.17Z"/><path class="cls-234" d="M62,61.29c-.81-.51-1.23.33-1,.84s1.65.63,1.22-.58Z"/><path class="cls-235" d="M139.54,53.13s6.27,3.21,10.73,13.09l-2.39-.69-2.15,2.74-1.06-1.16a36.34,36.34,0,0,1-4.91,8.06,55.56,55.56,0,0,1-5.71-6.68,59.06,59.06,0,0,1-3.41-6.68,11.28,11.28,0,0,1,3.94-3.49Z"/><path class="cls-236" d="M144.8,62.08c-1.86,4.55-7.15,9.86-7.15,9.86s-5.44-5.15-7.44-9.64c1.86-4.55,7.15-10,7.15-10S142.8,57.59,144.8,62.08Z"/><path class="cls-237" d="M130.21,62.3c2,4.49,7.44,9.64,7.44,9.64l.31-2.47a30.83,30.83,0,0,1-5.89-7.09A8.35,8.35,0,0,0,130.21,62.3Z"/><path class="cls-238" d="M138,69.47s-4.35-3.84-5.89-7.09a22,22,0,0,1,5.51-7.59,20.5,20.5,0,0,1,6.14,7.3A32.55,32.55,0,0,1,138,69.47Z"/><path class="cls-239" d="M133.61,62.43A13.94,13.94,0,0,0,138,67.6a18.22,18.22,0,0,0,4.05-5.29A34.22,34.22,0,0,0,137.77,57,61.15,61.15,0,0,0,133.61,62.43Z"/><path class="cls-240" d="M133.61,62.43l8.48-.12A38.48,38.48,0,0,0,137.77,57,61.15,61.15,0,0,0,133.61,62.43Z"/><polygon class="cls-241" points="139.52 62.3 137.9 60.27 136.18 62.35 137.88 64.33 139.52 62.3"/><polygon class="cls-242" points="141.47 62.27 139.52 62.3 137.88 64.33 137.92 66.67 141.47 62.27"/><polygon class="cls-243" points="137.87 57.93 137.9 60.27 139.52 62.3 141.47 62.27 137.87 57.93"/><polygon class="cls-244" points="136.18 62.35 137.88 64.33 137.92 66.67 134.23 62.38 136.18 62.35"/><polygon class="cls-245" points="137.87 57.93 137.9 60.27 136.18 62.35 134.23 62.38 137.87 57.93"/><path class="cls-246" d="M141.32,57.17c-.13.38-1.56-1.41-1.36-1.63S141.49,56.68,141.32,57.17Z"/><path class="cls-247" d="M138.71,61.29c-.8-.51-1.22.33-1,.84s1.65.63,1.22-.58Z"/><path class="cls-248" d="M3.9,143.54c.43-.42.46-2.55.46-2.55a8.52,8.52,0,0,0,.34,2.48,8.66,8.66,0,0,0,1.89.54,5.52,5.52,0,0,0-1.83.32,11.41,11.41,0,0,0-.4,2.36,7.44,7.44,0,0,0-.45-2.22A5.08,5.08,0,0,0,2.26,144,4.43,4.43,0,0,0,3.9,143.54Z"/><path class="cls-249" d="M14.09,128.25c.6-.57.63-3.48.63-3.48s.09,3.06.47,3.39a12.11,12.11,0,0,0,2.58.74,7.61,7.61,0,0,0-2.5.43,15.93,15.93,0,0,0-.55,3.23s-.21-2.66-.62-3a6.92,6.92,0,0,0-2.25-.62A6,6,0,0,0,14.09,128.25Z"/><path class="cls-250" d="M62.39,4.77c.49-.46.52-2.81.52-2.81s.07,2.47.37,2.74a9.88,9.88,0,0,0,2.09.6,6,6,0,0,0-2,.35,12.69,12.69,0,0,0-.44,2.61A8,8,0,0,0,62.4,5.8a5.51,5.51,0,0,0-1.82-.5A4.8,4.8,0,0,0,62.39,4.77Z"/><circle class="cls-251" cx="4.42" cy="143.84" r="4.42"/><circle class="cls-252" cx="14.81" cy="128.67" r="10.71" transform="translate(-114.57 122.59) rotate(-80.75)"/><path class="cls-253" d="M68.08,5.11A5.11,5.11,0,1,1,63,0,5.11,5.11,0,0,1,68.08,5.11Z"/><path class="cls-254" d="M138.63,11.51c.77-.73.82-4.49.82-4.49s.11,4,.6,4.38a15.39,15.39,0,0,0,3.32.95s-2.72.11-3.22.56c-.35.32-.7,4.18-.7,4.18s-.28-3.44-.81-3.93a9,9,0,0,0-2.91-.81S138,12.08,138.63,11.51Z"/><circle class="cls-255" cx="139.55" cy="12.05" r="8.16"/><path class="cls-256" d="M182,132.57c.77-.73.82-4.49.82-4.49s.11,3.95.61,4.37a14.94,14.94,0,0,0,3.32,1s-2.72.11-3.22.56-.71,4.17-.71,4.17-.27-3.43-.8-3.92a9,9,0,0,0-2.91-.81S181.43,133.14,182,132.57Z"/><circle class="cls-257" cx="182.95" cy="133.11" r="8.16"/><path class="cls-258" d="M186.52,148.5c.38-.36.4-2.22.4-2.22a7.58,7.58,0,0,0,.3,2.16,7.59,7.59,0,0,0,1.64.47,4.7,4.7,0,0,0-1.59.28,10.32,10.32,0,0,0-.35,2.06,6.25,6.25,0,0,0-.39-1.94,4.52,4.52,0,0,0-1.44-.4A3.81,3.81,0,0,0,186.52,148.5Z"/><path class="cls-259" d="M191,148.77a4,4,0,1,1-4-4A4,4,0,0,1,191,148.77Z"/><path class="cls-260" d="M128.09,112.87a24.33,24.33,0,0,0-2.73-.21,13.53,13.53,0,0,1-9.16-6.74,13.14,13.14,0,0,1-1-9.91c1.31-4.36,3-6,6.37-7.78a11.8,11.8,0,0,1,4.21-1.42,14.57,14.57,0,0,0,2.3-.22.88.88,0,0,0,.63-.52c0-.08,0-.26,0-.31-.56-.52-3.28-.56-4.18-.79a13.14,13.14,0,0,1-9.77-11.68c0-.47.11-1.46-.21-1.79a1.78,1.78,0,0,0-.82-.11.49.49,0,0,0-.31.41c-.19.88,0,1.87-.2,2.77a13.31,13.31,0,0,1-5.66,8.59,12.93,12.93,0,0,1-9.67,2A13.11,13.11,0,0,1,87.2,72.61c0-.4,0-1-.3-1.22a5.19,5.19,0,0,0-.88,0c-.18,1.11-.16,2.24-.36,3.35a13.24,13.24,0,0,1-5.25,8.21c-2.54,1.84-4.93,2.28-8,2.5a.68.68,0,0,0-.56.27,1.47,1.47,0,0,0,.12.8c.65.33,2.86.34,3.76.52a13.22,13.22,0,0,1,9.46,8.62,13,13,0,0,1-.71,10A13.24,13.24,0,0,1,77,112.16c-1.79.58-2.88.36-4.47.7a.92.92,0,0,0-.58.29.86.86,0,0,0,.06.63c.8.74,2.76.37,3.81.64a13.39,13.39,0,0,1,10.14,12.22,3.67,3.67,0,0,0,.13,1.41,1,1,0,0,0,.69.13,1,1,0,0,0,.45-.78c.12-.76,0-1.54.16-2.3a13.34,13.34,0,0,1,5.23-8.44,13,13,0,0,1,18.25,2.87,13.29,13.29,0,0,1,2.52,7.65c0,.33,0,.82.4.9a3.67,3.67,0,0,0,.74,0c.42-.73.19-2.25.35-3.14a13.19,13.19,0,0,1,9.4-10.37,13.94,13.94,0,0,1,2.81-.44,11.14,11.14,0,0,0,1.16,0,.48.48,0,0,0,.36-.24.94.94,0,0,0,.06-.5C128.47,113.11,128.4,113,128.09,112.87Zm-17.82-4.77a13,13,0,0,1-8.71,4.64,13,13,0,0,1-11.5-21.13,13,13,0,0,1,18.59-1.86,13,13,0,0,1,1.62,18.35Z"/><path class="cls-261" d="M127.11,112.21a26.92,26.92,0,0,0-2.73-.22,13.55,13.55,0,0,1-9.16-6.73,13,13,0,0,1,5.36-17.7,12.2,12.2,0,0,1,4.21-1.42,13.48,13.48,0,0,0,2.3-.22.88.88,0,0,0,.63-.52c0-.08,0-.25,0-.31-.56-.52-3.28-.56-4.18-.79a13.14,13.14,0,0,1-9.77-11.67c0-.47.11-1.47-.21-1.8a1.76,1.76,0,0,0-.82-.11c-.21.14-.25.16-.31.41-.19.89,0,1.87-.2,2.77a13.31,13.31,0,0,1-5.66,8.59,13,13,0,0,1-9.67,2A13.13,13.13,0,0,1,86.22,71.94c0-.4,0-.94-.3-1.22a4.32,4.32,0,0,0-.88,0c-.18,1.11-.16,2.23-.36,3.35a13.19,13.19,0,0,1-5.25,8.2c-2.54,1.84-4.93,2.28-8,2.51a.65.65,0,0,0-.57.26,1.38,1.38,0,0,0,.13.8c.64.33,2.85.35,3.75.53A13.19,13.19,0,0,1,84.23,95a13,13,0,0,1-.71,10A13.2,13.2,0,0,1,76,111.49c-1.79.58-2.88.37-4.47.7a.89.89,0,0,0-.57.3.83.83,0,0,0,0,.62c.8.74,2.76.37,3.81.64A13.41,13.41,0,0,1,84.93,126a3.71,3.71,0,0,0,.13,1.41,1.1,1.1,0,0,0,.69.12,1,1,0,0,0,.45-.78c.12-.76,0-1.54.16-2.3A13.36,13.36,0,0,1,91.59,116a13,13,0,0,1,18.25,2.87,13.29,13.29,0,0,1,2.52,7.65c0,.34,0,.82.4.91a4.58,4.58,0,0,0,.74,0c.42-.73.19-2.26.35-3.14a13.19,13.19,0,0,1,9.4-10.37,14.05,14.05,0,0,1,2.81-.44,11.13,11.13,0,0,0,1.16,0,.48.48,0,0,0,.37-.23,1.09,1.09,0,0,0,0-.51C127.49,112.45,127.42,112.31,127.11,112.21Zm-17.81-4.77a13,13,0,0,1-18.08,1.91,13.28,13.28,0,0,1-4.92-8.78A13.14,13.14,0,0,1,89.08,91a13.3,13.3,0,0,1,9.1-4.9,13.06,13.06,0,0,1,11.12,21.39Z"/><path class="cls-178" d="M101.52,84.45c-.55.72,3.9,1.9,4.43,1.39s0-1.26-1-1.39S102,83.89,101.52,84.45Z"/></g></g></g></svg>