<svg xmlns="http://www.w3.org/2000/svg" xmlns:xlink="http://www.w3.org/1999/xlink" viewBox="0 0 225 225"><defs><style>.cls-1{isolation:isolate;}.cls-100,.cls-102,.cls-103,.cls-107,.cls-11,.cls-110,.cls-113,.cls-114,.cls-117,.cls-118,.cls-121,.cls-122,.cls-125,.cls-126,.cls-129,.cls-13,.cls-130,.cls-133,.cls-134,.cls-135,.cls-136,.cls-137,.cls-139,.cls-14,.cls-141,.cls-145,.cls-146,.cls-147,.cls-148,.cls-151,.cls-156,.cls-160,.cls-161,.cls-162,.cls-167,.cls-171,.cls-172,.cls-173,.cls-175,.cls-18,.cls-186,.cls-188,.cls-199,.cls-2,.cls-20,.cls-201,.cls-21,.cls-218,.cls-27,.cls-29,.cls-31,.cls-32,.cls-33,.cls-34,.cls-36,.cls-38,.cls-39,.cls-4,.cls-40,.cls-41,.cls-43,.cls-45,.cls-46,.cls-48,.cls-50,.cls-51,.cls-52,.cls-53,.cls-55,.cls-57,.cls-58,.cls-59,.cls-6,.cls-60,.cls-62,.cls-64,.cls-65,.cls-67,.cls-69,.cls-7,.cls-70,.cls-71,.cls-72,.cls-74,.cls-76,.cls-77,.cls-78,.cls-79,.cls-81,.cls-83,.cls-84,.cls-86,.cls-88,.cls-89,.cls-90,.cls-91,.cls-93,.cls-95,.cls-96,.cls-97,.cls-98{opacity:0.5;}.cls-2{mix-blend-mode:screen;fill:url(#_355);}.cls-3{fill:url(#_92);}.cls-100,.cls-107,.cls-11,.cls-110,.cls-113,.cls-117,.cls-121,.cls-125,.cls-129,.cls-13,.cls-133,.cls-135,.cls-136,.cls-141,.cls-145,.cls-148,.cls-151,.cls-153,.cls-154,.cls-156,.cls-162,.cls-164,.cls-165,.cls-167,.cls-173,.cls-175,.cls-18,.cls-186,.cls-188,.cls-199,.cls-20,.cls-201,.cls-27,.cls-29,.cls-33,.cls-34,.cls-36,.cls-4,.cls-40,.cls-41,.cls-43,.cls-48,.cls-52,.cls-53,.cls-55,.cls-59,.cls-6,.cls-60,.cls-62,.cls-67,.cls-71,.cls-72,.cls-74,.cls-78,.cls-79,.cls-81,.cls-86,.cls-90,.cls-91,.cls-93,.cls-97,.cls-98{mix-blend-mode:multiply;}.cls-4{fill:url(#_27);}.cls-5{fill:url(#_92-2);}.cls-6{fill:url(#_27-2);}.cls-102,.cls-103,.cls-114,.cls-118,.cls-122,.cls-126,.cls-130,.cls-134,.cls-137,.cls-139,.cls-14,.cls-143,.cls-144,.cls-146,.cls-147,.cls-157,.cls-16,.cls-160,.cls-161,.cls-168,.cls-171,.cls-172,.cls-21,.cls-215,.cls-216,.cls-217,.cls-23,.cls-31,.cls-32,.cls-38,.cls-39,.cls-45,.cls-46,.cls-50,.cls-51,.cls-57,.cls-58,.cls-64,.cls-65,.cls-69,.cls-7,.cls-70,.cls-76,.cls-77,.cls-83,.cls-84,.cls-88,.cls-89,.cls-9,.cls-95,.cls-96{mix-blend-mode:color-dodge;}.cls-7{fill:url(#_28);}.cls-8{fill:url(#linear-gradient);}.cls-143,.cls-144,.cls-16,.cls-215,.cls-216,.cls-217,.cls-23,.cls-9{opacity:0.6;}.cls-9{fill:url(#_21);}.cls-10{fill:url(#_92-3);}.cls-11{fill:url(#_27-3);}.cls-12{fill:url(#_92-4);}.cls-13{fill:url(#_27-4);}.cls-14{fill:url(#_28-2);}.cls-15{fill:url(#linear-gradient-2);}.cls-16{fill:url(#_21-2);}.cls-17{fill:url(#_92-5);}.cls-18{fill:url(#_27-5);}.cls-19{fill:url(#_92-6);}.cls-20{fill:url(#_27-6);}.cls-21{fill:url(#_28-3);}.cls-22{fill:url(#linear-gradient-3);}.cls-23{fill:url(#_21-3);}.cls-24{fill:url(#_92-7);}.cls-25{fill:#ffba2c;}.cls-26{fill:url(#_92-8);}.cls-27{fill:url(#_27-7);}.cls-28{fill:url(#_92-9);}.cls-29{fill:url(#_27-8);}.cls-30{fill:url(#_79);}.cls-31{fill:url(#_28-4);}.cls-32{fill:url(#_28-5);}.cls-33{fill:url(#_27-9);}.cls-34{fill:url(#_27-10);}.cls-35{fill:url(#_92-10);}.cls-36{fill:url(#_27-11);}.cls-37{fill:url(#_79-2);}.cls-38{fill:url(#_28-6);}.cls-39{fill:url(#_28-7);}.cls-40{fill:url(#_27-12);}.cls-41{fill:url(#_27-13);}.cls-42{fill:url(#_92-11);}.cls-43{fill:url(#_27-14);}.cls-44{fill:url(#_79-3);}.cls-45{fill:url(#_28-8);}.cls-46{fill:url(#_28-9);}.cls-47{fill:url(#_92-12);}.cls-48{fill:url(#_27-15);}.cls-49{fill:url(#_79-4);}.cls-50{fill:url(#_28-10);}.cls-51{fill:url(#_28-11);}.cls-52{fill:url(#_27-16);}.cls-53{fill:url(#_27-17);}.cls-54{fill:url(#_92-13);}.cls-55{fill:url(#_27-18);}.cls-56{fill:url(#_79-5);}.cls-57{fill:url(#_28-12);}.cls-58{fill:url(#_28-13);}.cls-59{fill:url(#_27-19);}.cls-60{fill:url(#_27-20);}.cls-61{fill:url(#_92-14);}.cls-62{fill:url(#_27-21);}.cls-63{fill:url(#_79-6);}.cls-64{fill:url(#_28-14);}.cls-65{fill:url(#_28-15);}.cls-66{fill:url(#_92-15);}.cls-67{fill:url(#_27-22);}.cls-68{fill:url(#_79-7);}.cls-69{fill:url(#_28-16);}.cls-70{fill:url(#_28-17);}.cls-71{fill:url(#_27-23);}.cls-72{fill:url(#_27-24);}.cls-73{fill:url(#_92-16);}.cls-74{fill:url(#_27-25);}.cls-75{fill:url(#_79-8);}.cls-76{fill:url(#_28-18);}.cls-77{fill:url(#_28-19);}.cls-78{fill:url(#_27-26);}.cls-79{fill:url(#_27-27);}.cls-80{fill:url(#_92-17);}.cls-81{fill:url(#_27-28);}.cls-82{fill:url(#_79-9);}.cls-83{fill:url(#_28-20);}.cls-84{fill:url(#_28-21);}.cls-85{fill:url(#_92-18);}.cls-86{fill:url(#_27-29);}.cls-87{fill:url(#_79-10);}.cls-88{fill:url(#_28-22);}.cls-89{fill:url(#_28-23);}.cls-90{fill:url(#_27-30);}.cls-91{fill:url(#_27-31);}.cls-92{fill:url(#_92-19);}.cls-93{fill:url(#_27-32);}.cls-94{fill:url(#_79-11);}.cls-95{fill:url(#_28-24);}.cls-96{fill:url(#_28-25);}.cls-97{fill:url(#_27-33);}.cls-98{fill:url(#_27-34);}.cls-99{fill:url(#_92-20);}.cls-100{fill:url(#_27-35);}.cls-101{fill:url(#_79-12);}.cls-102{fill:url(#_28-26);}.cls-103{fill:url(#_28-27);}.cls-104{fill:url(#_92-21);}.cls-105{fill:url(#_29);}.cls-106{fill:url(#_19);}.cls-107{fill:url(#_27-36);}.cls-108{fill:url(#_29-2);}.cls-109{fill:url(#_19-2);}.cls-110{fill:url(#_27-37);}.cls-111{fill:url(#_29-3);}.cls-112{fill:url(#_92-22);}.cls-113{fill:url(#_27-38);}.cls-114{fill:url(#_28-28);}.cls-115{fill:url(#_29-4);}.cls-116{fill:url(#_92-23);}.cls-117{fill:url(#_27-39);}.cls-118{fill:url(#_28-29);}.cls-119{fill:url(#_29-5);}.cls-120{fill:url(#_92-24);}.cls-121{fill:url(#_27-40);}.cls-122{fill:url(#_28-30);}.cls-123{fill:url(#_29-6);}.cls-124{fill:url(#_92-25);}.cls-125{fill:url(#_27-41);}.cls-126{fill:url(#_28-31);}.cls-127{fill:url(#_29-7);}.cls-128{fill:url(#_92-26);}.cls-129{fill:url(#_27-42);}.cls-130{fill:url(#_28-32);}.cls-131{fill:url(#_29-8);}.cls-132{fill:url(#_92-27);}.cls-133{fill:url(#_27-43);}.cls-134{fill:url(#_28-33);}.cls-135{fill:url(#_27-44);}.cls-136{fill:url(#_27-45);}.cls-137{fill:url(#_28-34);}.cls-138{fill:url(#_29-9);}.cls-139{fill:url(#_28-35);}.cls-140{fill:url(#linear-gradient-4);}.cls-141{fill:url(#_27-46);}.cls-142{fill:#fff;}.cls-143{fill:url(#_21-4);}.cls-144{fill:url(#_26);}.cls-145{fill:url(#_27-47);}.cls-146{fill:url(#_28-36);}.cls-147{fill:url(#_28-37);}.cls-148{fill:url(#_27-48);}.cls-149{fill:url(#_18);}.cls-150{fill:url(#_18-2);}.cls-151{fill:url(#_27-49);}.cls-152{fill:url(#_941);}.cls-153,.cls-164{opacity:0.7;}.cls-153{fill:url(#_20);}.cls-154,.cls-165{opacity:0.8;}.cls-154{fill:url(#_963);}.cls-155{fill:url(#_508);}.cls-156{fill:url(#_449);}.cls-157,.cls-168{opacity:0.3;}.cls-157{fill:url(#_445);}.cls-158{fill:url(#linear-gradient-5);}.cls-159{fill:url(#_18-3);}.cls-160{fill:url(#_6);}.cls-161{fill:url(#_479);}.cls-162{fill:url(#_27-50);}.cls-163{fill:url(#_941-2);}.cls-164{fill:url(#_20-2);}.cls-165{fill:url(#_963-2);}.cls-166{fill:url(#_508-2);}.cls-167{fill:url(#_449-2);}.cls-168{fill:url(#_445-2);}.cls-169{fill:url(#linear-gradient-6);}.cls-170{fill:url(#_18-4);}.cls-171{fill:url(#_6-2);}.cls-172{fill:url(#_479-2);}.cls-173{fill:url(#_27-51);}.cls-174{fill:url(#_264);}.cls-175{fill:url(#_27-52);}.cls-176{fill:url(#_92-28);}.cls-177{fill:url(#_180);}.cls-178{fill:url(#_18-5);}.cls-179{fill:url(#_499);}.cls-180{fill:url(#_490);}.cls-181{fill:url(#_490-2);}.cls-182{fill:url(#_490-3);}.cls-183{fill:url(#_490-4);}.cls-184{fill:url(#linear-gradient-7);}.cls-185{fill:url(#linear-gradient-8);}.cls-186{fill:url(#_27-53);}.cls-187{fill:url(#_264-2);}.cls-188{fill:url(#_27-54);}.cls-189{fill:url(#_92-29);}.cls-190{fill:url(#_180-2);}.cls-191{fill:url(#_18-6);}.cls-192{fill:url(#_499-2);}.cls-193{fill:url(#_490-5);}.cls-194{fill:url(#_490-6);}.cls-195{fill:url(#_490-7);}.cls-196{fill:url(#_490-8);}.cls-197{fill:url(#linear-gradient-9);}.cls-198{fill:url(#linear-gradient-10);}.cls-199{fill:url(#_27-55);}.cls-200{fill:url(#_264-3);}.cls-201{fill:url(#_27-56);}.cls-202{fill:url(#_92-30);}.cls-203{fill:url(#_180-3);}.cls-204{fill:url(#_18-7);}.cls-205{fill:url(#_499-3);}.cls-206{fill:url(#_490-9);}.cls-207{fill:url(#_490-10);}.cls-208{fill:url(#_490-11);}.cls-209{fill:url(#_490-12);}.cls-210{fill:url(#linear-gradient-11);}.cls-211{fill:url(#linear-gradient-12);}.cls-212{fill:url(#_92-31);}.cls-213{fill:url(#_92-32);}.cls-214{fill:url(#_92-33);}.cls-215{fill:url(#_21-5);}.cls-216{fill:url(#_21-6);}.cls-217{fill:url(#_21-7);}.cls-218{fill:url(#_27-57);}.cls-219{fill:url(#linear-gradient-13);}</style><radialGradient id="_355" cx="112.64" cy="112.93" r="112.29" gradientTransform="translate(-0.36 -0.64)" gradientUnits="userSpaceOnUse"><stop offset="0"/><stop offset="0.25" stop-color="#020001"/><stop offset="0.34" stop-color="#090206"/><stop offset="0.41" stop-color="#15040e"/><stop offset="0.46" stop-color="#260819"/><stop offset="0.51" stop-color="#3c0d28"/><stop offset="0.55" stop-color="#57123a"/><stop offset="0.58" stop-color="#77194f"/><stop offset="0.61" stop-color="#941f63"/><stop offset="0.62" stop-color="#831b58"/><stop offset="0.65" stop-color="#601440"/><stop offset="0.69" stop-color="#420e2c"/><stop offset="0.72" stop-color="#2a091c"/><stop offset="0.76" stop-color="#17050f"/><stop offset="0.81" stop-color="#0a0207"/><stop offset="0.87" stop-color="#020001"/><stop offset="1"/></radialGradient><linearGradient id="_92" x1="113.04" y1="89.44" x2="113.04" y2="31.07" gradientUnits="userSpaceOnUse"><stop offset="0" stop-color="#ca6b34"/><stop offset="0.67" stop-color="#ffa933"/><stop offset="1" stop-color="#ffbd2b"/></linearGradient><linearGradient id="_27" x1="113.04" y1="75.23" x2="113.04" y2="46.05" gradientUnits="userSpaceOnUse"><stop offset="0" stop-color="#fff"/><stop offset="0.44" stop-color="#ed8a1d"/><stop offset="1" stop-color="#b41e2d"/></linearGradient><linearGradient id="_92-2" x1="113" y1="20.03" x2="113" y2="70.29" xlink:href="#_92"/><linearGradient id="_27-2" x1="112.76" y1="71.08" x2="112.76" y2="42" xlink:href="#_27"/><linearGradient id="_28" x1="117.1" y1="35.93" x2="115.26" y2="46.36" gradientUnits="userSpaceOnUse"><stop offset="0" stop-color="#ebbd38"/><stop offset="1"/></linearGradient><linearGradient id="linear-gradient" x1="123.24" y1="48.47" x2="123.24" y2="37.49" gradientUnits="userSpaceOnUse"><stop offset="0" stop-color="#fff"/><stop offset="1" stop-color="#fff7c4"/></linearGradient><radialGradient id="_21" cx="115.78" cy="-797.68" r="15.39" gradientTransform="translate(-1.1 1017.3) scale(1.01 1.2)" gradientUnits="userSpaceOnUse"><stop offset="0" stop-color="#f4a940"/><stop offset="0.09" stop-color="#e6a03c"/><stop offset="0.27" stop-color="#c38733"/><stop offset="0.51" stop-color="#895f24"/><stop offset="0.8" stop-color="#39280f"/><stop offset="1"/></radialGradient><linearGradient id="_92-3" x1="-8926.27" y1="-1297.88" x2="-8926.27" y2="-1356.25" gradientTransform="translate(1383.32 -8809.44) rotate(-90)" xlink:href="#_92"/><linearGradient id="_27-3" x1="-8926.27" y1="-1312.1" x2="-8926.27" y2="-1341.27" gradientTransform="translate(1383.32 -8809.44) rotate(-90)" xlink:href="#_27"/><linearGradient id="_92-4" x1="-8926.3" y1="-1367.29" x2="-8926.3" y2="-1317.03" gradientTransform="translate(1383.32 -8809.44) rotate(-90)" xlink:href="#_92"/><linearGradient id="_27-4" x1="-8926.55" y1="-1316.33" x2="-8926.55" y2="-1345.41" gradientTransform="translate(1383.32 -8809.44) rotate(-90)" xlink:href="#_27"/><linearGradient id="_28-2" x1="-8922.21" y1="-1351.47" x2="-8924.05" y2="-1341.05" gradientTransform="translate(1383.32 -8809.44) rotate(-90)" xlink:href="#_28"/><linearGradient id="linear-gradient-2" x1="-8916.07" y1="-1338.93" x2="-8916.07" y2="-1349.91" gradientTransform="translate(1383.32 -8809.44) rotate(-90)" xlink:href="#linear-gradient"/><radialGradient id="_21-2" cx="-8923.52" cy="-1948.38" r="15.39" gradientTransform="translate(2396.44 -8871.78) rotate(-90) scale(1.01 1.2)" xlink:href="#_21"/><linearGradient id="_92-5" x1="-8926.27" y1="-9729.92" x2="-8926.27" y2="-9788.29" gradientTransform="matrix(0, -1, -1, 0, -9589.36, -8809.44)" xlink:href="#_92"/><linearGradient id="_27-5" x1="-8926.27" y1="-9744.14" x2="-8926.27" y2="-9773.32" gradientTransform="matrix(0, -1, -1, 0, -9589.36, -8809.44)" xlink:href="#_27"/><linearGradient id="_92-6" x1="-8926.3" y1="-9800.33" x2="-8926.3" y2="-9750.07" gradientTransform="matrix(0, -1, -1, 0, -9589.36, -8809.44)" xlink:href="#_92"/><linearGradient id="_27-6" x1="-8926.55" y1="-9748.55" x2="-8926.55" y2="-9777.63" gradientTransform="matrix(0, -1, -1, 0, -9589.36, -8809.44)" xlink:href="#_27"/><linearGradient id="_28-3" x1="-8922.21" y1="-9783.7" x2="-8924.05" y2="-9773.28" gradientTransform="matrix(0, -1, -1, 0, -9589.36, -8809.44)" xlink:href="#_28"/><linearGradient id="linear-gradient-3" x1="-8916.07" y1="-9771.16" x2="-8916.07" y2="-9782.14" gradientTransform="matrix(0, -1, -1, 0, -9589.36, -8809.44)" xlink:href="#linear-gradient"/><radialGradient id="_21-3" cx="-8923.52" cy="-8942.02" r="15.39" gradientTransform="matrix(0, -1.01, -1.2, 0, -10576.72, -8871.78)" xlink:href="#_21"/><linearGradient id="_92-7" x1="113.04" y1="195.83" x2="113.04" y2="164.84" xlink:href="#_92"/><linearGradient id="_92-8" x1="113" y1="176.67" x2="113" y2="200.91" xlink:href="#_92"/><linearGradient id="_27-7" x1="112.76" y1="192.94" x2="112.76" y2="174.19" xlink:href="#_27"/><linearGradient id="_92-9" x1="66.95" y1="59.08" x2="84.09" y2="59.08" xlink:href="#_92"/><linearGradient id="_27-8" x1="-9435.51" y1="-1405.01" x2="-9422.97" y2="-1380.58" gradientTransform="matrix(-0.96, -0.29, -0.29, 0.96, -9343.51, -1388.82)" xlink:href="#_27"/><linearGradient id="_79" x1="-9427.99" y1="-1392.59" x2="-9431.76" y2="-1378.68" gradientTransform="matrix(-0.96, -0.29, -0.29, 0.96, -9343.51, -1388.82)" gradientUnits="userSpaceOnUse"><stop offset="0" stop-color="#f27a13"/><stop offset="1" stop-color="#b41e2d"/></linearGradient><linearGradient id="_28-4" x1="-10622.22" y1="-4313.68" x2="-10632.33" y2="-4305.73" gradientTransform="matrix(-0.67, -0.74, -0.74, 0.67, -10265.98, -4890.4)" xlink:href="#_28"/><linearGradient id="_28-5" x1="-10622.72" y1="-4323.43" x2="-10612.57" y2="-4323.43" gradientTransform="matrix(-0.67, -0.74, -0.74, 0.67, -10265.98, -4890.4)" xlink:href="#_28"/><linearGradient id="_27-9" x1="-9431.48" y1="-1382.76" x2="-9419.55" y2="-1382.76" gradientTransform="matrix(-0.96, -0.29, -0.29, 0.96, -9343.51, -1388.82)" xlink:href="#_27"/><linearGradient id="_27-10" x1="-9431.83" y1="-1394.66" x2="-9423.81" y2="-1383.84" gradientTransform="matrix(-0.96, -0.29, -0.29, 0.96, -9343.51, -1388.82)" xlink:href="#_27"/><linearGradient id="_92-10" x1="42.81" y1="78.35" x2="73" y2="78.35" xlink:href="#_92"/><linearGradient id="_27-11" x1="-6414" y1="1039.13" x2="-6403.91" y2="1058.8" gradientTransform="matrix(-0.95, 0.3, 0.3, 0.95, -6367.18, 1017.94)" xlink:href="#_27"/><linearGradient id="_79-2" x1="-3977.09" y1="986.94" x2="-3988.56" y2="995.95" gradientTransform="matrix(-0.74, 0.67, 0.67, 0.74, -3561.15, 1999.67)" xlink:href="#_79"/><linearGradient id="_28-6" x1="-3977.6" y1="989.16" x2="-3987.68" y2="997.08" gradientTransform="matrix(-0.74, 0.67, 0.67, 0.74, -3561.15, 1999.67)" xlink:href="#_28"/><linearGradient id="_28-7" x1="-6407.29" y1="1044.65" x2="-6396.51" y2="1044.65" gradientTransform="matrix(-0.95, 0.3, 0.3, 0.95, -6367.18, 1017.94)" xlink:href="#_28"/><linearGradient id="_27-12" x1="-3987.06" y1="995.98" x2="-3971.37" y2="995.98" gradientTransform="matrix(-0.74, 0.67, 0.67, 0.74, -3561.15, 1999.67)" xlink:href="#_27"/><linearGradient id="_27-13" x1="-6411.71" y1="1051.8" x2="-6413.58" y2="1048.11" gradientTransform="matrix(-0.95, 0.3, 0.3, 0.95, -6367.18, 1017.94)" xlink:href="#_27"/><linearGradient id="_92-11" x1="69.05" y1="78.7" x2="57.99" y2="57.22" xlink:href="#_92"/><linearGradient id="_27-14" x1="-1503.64" y1="219.09" x2="-1500.99" y2="237.65" gradientTransform="matrix(1, -0.06, 0.06, 1, 1550.18, -243.13)" xlink:href="#_27"/><linearGradient id="_79-3" x1="-8439.25" y1="-208.8" x2="-8452" y2="-198.78" gradientTransform="matrix(-1, -0.07, -0.07, 1, -8371.54, -307.34)" xlink:href="#_79"/><linearGradient id="_28-8" x1="-8440.01" y1="-206.95" x2="-8451.39" y2="-198" gradientTransform="matrix(-1, -0.07, -0.07, 1, -8371.54, -307.34)" xlink:href="#_28"/><linearGradient id="_28-9" x1="-8441.72" y1="-217.82" x2="-8429.17" y2="-217.82" gradientTransform="matrix(-1, -0.07, -0.07, 1, -8371.54, -307.34)" xlink:href="#_28"/><linearGradient id="_92-12" x1="141.91" y1="59.08" x2="159.05" y2="59.08" xlink:href="#_92"/><linearGradient id="_27-15" x1="880.09" y1="1775.16" x2="892.62" y2="1799.59" gradientTransform="translate(-1224.95 -1388.82) rotate(-17.13)" xlink:href="#_27"/><linearGradient id="_79-4" x1="887.78" y1="1787.64" x2="884.01" y2="1801.55" gradientTransform="translate(-1224.95 -1388.82) rotate(-17.13)" xlink:href="#_79"/><linearGradient id="_28-10" x1="-3355.69" y1="3668.5" x2="-3365.8" y2="3676.45" gradientTransform="translate(-302.49 -4890.4) rotate(-47.69)" xlink:href="#_28"/><linearGradient id="_28-11" x1="-3356.18" y1="3658.75" x2="-3346.04" y2="3658.75" gradientTransform="translate(-302.49 -4890.4) rotate(-47.69)" xlink:href="#_28"/><linearGradient id="_27-16" x1="884.29" y1="1797.47" x2="896.22" y2="1797.47" gradientTransform="translate(-1224.95 -1388.82) rotate(-17.13)" xlink:href="#_27"/><linearGradient id="_27-17" x1="883.94" y1="1785.57" x2="891.96" y2="1796.39" gradientTransform="translate(-1224.95 -1388.82) rotate(-17.13)" xlink:href="#_27"/><linearGradient id="_92-13" x1="153" y1="78.35" x2="183.37" y2="78.35" xlink:href="#_92"/><linearGradient id="_27-18" x1="3873.6" y1="-2230.64" x2="3883.69" y2="-2210.97" gradientTransform="matrix(0.95, 0.3, -0.3, 0.95, -4201.29, 1017.94)" xlink:href="#_27"/><linearGradient id="_79-5" x1="4055.82" y1="-6223.47" x2="4044.35" y2="-6214.46" gradientTransform="translate(-7007.31 1999.67) rotate(41.91)" xlink:href="#_79"/><linearGradient id="_28-12" x1="4055.31" y1="-6221.25" x2="4045.23" y2="-6213.33" gradientTransform="translate(-7007.31 1999.67) rotate(41.91)" xlink:href="#_28"/><linearGradient id="_28-13" x1="3880.44" y1="-2225.19" x2="3891.23" y2="-2225.19" gradientTransform="matrix(0.95, 0.3, -0.3, 0.95, -4201.29, 1017.94)" xlink:href="#_28"/><linearGradient id="_27-19" x1="4045.85" y1="-6214.43" x2="4061.54" y2="-6214.43" gradientTransform="translate(-7007.31 1999.67) rotate(41.91)" xlink:href="#_27"/><linearGradient id="_27-20" x1="3875.94" y1="-2218" x2="3874.07" y2="-2221.68" gradientTransform="matrix(0.95, 0.3, -0.3, 0.95, -4201.29, 1017.94)" xlink:href="#_27"/><linearGradient id="_92-14" x1="165.91" y1="85.93" x2="164.33" y2="63.81" xlink:href="#_92"/><linearGradient id="_27-21" x1="-12281.09" y1="-381.04" x2="-12278.44" y2="-362.48" gradientTransform="matrix(-1, -0.06, -0.06, 1, -12118.64, -243.13)" xlink:href="#_27"/><linearGradient id="_79-6" x1="2330.29" y1="532.84" x2="2317.54" y2="542.86" gradientTransform="translate(-2196.92 -307.34) rotate(-3.94)" xlink:href="#_79"/><linearGradient id="_28-14" x1="2329.54" y1="534.7" x2="2318.15" y2="543.64" gradientTransform="translate(-2196.92 -307.34) rotate(-3.94)" xlink:href="#_28"/><linearGradient id="_28-15" x1="2327.82" y1="523.83" x2="2340.37" y2="523.83" gradientTransform="translate(-2196.92 -307.34) rotate(-3.94)" xlink:href="#_28"/><linearGradient id="_92-15" x1="66.95" y1="173.92" x2="84.09" y2="173.92" xlink:href="#_92"/><linearGradient id="_27-22" x1="-6400.61" y1="-11249.39" x2="-6388.07" y2="-11224.95" gradientTransform="translate(-9343.51 -8679.54) rotate(162.87)" xlink:href="#_27"/><linearGradient id="_79-7" x1="-6393.21" y1="-11236.58" x2="-6396.98" y2="-11222.66" gradientTransform="translate(-9343.51 -8679.54) rotate(162.87)" xlink:href="#_79"/><linearGradient id="_28-16" x1="-3005.11" y1="-11247.87" x2="-3015.22" y2="-11239.93" gradientTransform="translate(-10265.98 -5177.96) rotate(132.31)" xlink:href="#_28"/><linearGradient id="_28-17" x1="-3005.6" y1="-11257.63" x2="-2995.46" y2="-11257.63" gradientTransform="translate(-10265.98 -5177.96) rotate(132.31)" xlink:href="#_28"/><linearGradient id="_27-23" x1="-6396.7" y1="-11226.74" x2="-6384.77" y2="-11226.74" gradientTransform="translate(-9343.51 -8679.54) rotate(162.87)" xlink:href="#_27"/><linearGradient id="_27-24" x1="-6397.05" y1="-11238.64" x2="-6389.03" y2="-11227.82" gradientTransform="translate(-9343.51 -8679.54) rotate(162.87)" xlink:href="#_27"/><linearGradient id="_92-16" x1="42.81" y1="154.24" x2="73" y2="154.24" xlink:href="#_92"/><linearGradient id="_27-25" x1="-9534.29" y1="-8778.1" x2="-9524.2" y2="-8758.43" gradientTransform="matrix(-0.95, -0.3, 0.3, -0.95, -6367.18, -11086.3)" xlink:href="#_27"/><linearGradient id="_79-8" x1="-10857.73" y1="-6678.59" x2="-10869.21" y2="-6669.58" gradientTransform="translate(-3561.15 -12068.03) rotate(-138.09)" xlink:href="#_79"/><linearGradient id="_28-18" x1="-10858.24" y1="-6676.37" x2="-10868.32" y2="-6668.45" gradientTransform="translate(-3561.15 -12068.03) rotate(-138.09)" xlink:href="#_28"/><linearGradient id="_28-19" x1="-9527.59" y1="-8772.58" x2="-9516.8" y2="-8772.58" gradientTransform="matrix(-0.95, -0.3, 0.3, -0.95, -6367.18, -11086.3)" xlink:href="#_28"/><linearGradient id="_27-26" x1="-10867.71" y1="-6669.55" x2="-10852.01" y2="-6669.55" gradientTransform="translate(-3561.15 -12068.03) rotate(-138.09)" xlink:href="#_27"/><linearGradient id="_27-27" x1="-9532" y1="-8765.43" x2="-9533.88" y2="-8769.12" gradientTransform="matrix(-0.95, -0.3, 0.3, -0.95, -6367.18, -11086.3)" xlink:href="#_27"/><linearGradient id="_92-17" x1="69.55" y1="173.64" x2="53.11" y2="163.37" xlink:href="#_92"/><linearGradient id="_27-28" x1="-930.96" y1="-10065.45" x2="-928.31" y2="-10046.89" gradientTransform="matrix(1, 0.06, 0.06, -1, 1550.18, -9825.23)" xlink:href="#_27"/><linearGradient id="_79-9" x1="-7731.52" y1="-10485.81" x2="-7744.27" y2="-10475.79" gradientTransform="translate(-8371.54 -9761.02) rotate(176.06)" xlink:href="#_79"/><linearGradient id="_28-20" x1="-7732.28" y1="-10483.95" x2="-7743.66" y2="-10475.01" gradientTransform="translate(-8371.54 -9761.02) rotate(176.06)" xlink:href="#_28"/><linearGradient id="_28-21" x1="-7733.99" y1="-10494.82" x2="-7721.44" y2="-10494.82" gradientTransform="translate(-8371.54 -9761.02) rotate(176.06)" xlink:href="#_28"/><linearGradient id="_92-18" x1="141.91" y1="173.92" x2="159.05" y2="173.92" xlink:href="#_92"/><linearGradient id="_27-29" x1="3914.99" y1="-8069.21" x2="3927.53" y2="-8044.78" gradientTransform="matrix(0.96, 0.29, 0.29, -0.96, -1224.95, -8679.54)" xlink:href="#_27"/><linearGradient id="_79-10" x1="3922.56" y1="-8056.35" x2="3918.8" y2="-8042.44" gradientTransform="matrix(0.96, 0.29, 0.29, -0.96, -1224.95, -8679.54)" xlink:href="#_79"/><linearGradient id="_28-22" x1="4261.43" y1="-3265.7" x2="4251.31" y2="-3257.75" gradientTransform="matrix(0.67, 0.74, 0.74, -0.67, -302.49, -5177.96)" xlink:href="#_28"/><linearGradient id="_28-23" x1="4260.93" y1="-3275.45" x2="4271.08" y2="-3275.45" gradientTransform="matrix(0.67, 0.74, 0.74, -0.67, -302.49, -5177.96)" xlink:href="#_28"/><linearGradient id="_27-30" x1="3919.07" y1="-8046.51" x2="3931.01" y2="-8046.51" gradientTransform="matrix(0.96, 0.29, 0.29, -0.96, -1224.95, -8679.54)" xlink:href="#_27"/><linearGradient id="_27-31" x1="3918.72" y1="-8058.41" x2="3926.74" y2="-8047.59" gradientTransform="matrix(0.96, 0.29, 0.29, -0.96, -1224.95, -8679.54)" xlink:href="#_27"/><linearGradient id="_92-19" x1="153" y1="154.24" x2="183.37" y2="154.24" xlink:href="#_92"/><linearGradient id="_27-32" x1="753.31" y1="-12047.87" x2="763.4" y2="-12028.2" gradientTransform="matrix(0.95, -0.3, -0.3, -0.95, -4201.29, -11086.3)" xlink:href="#_27"/><linearGradient id="_79-11" x1="-2824.82" y1="-13889" x2="-2836.29" y2="-13879.99" gradientTransform="matrix(0.74, -0.67, -0.67, -0.74, -7007.31, -12068.03)" xlink:href="#_79"/><linearGradient id="_28-24" x1="-2825.33" y1="-13886.78" x2="-2835.41" y2="-13878.86" gradientTransform="matrix(0.74, -0.67, -0.67, -0.74, -7007.31, -12068.03)" xlink:href="#_28"/><linearGradient id="_28-25" x1="760.15" y1="-12042.42" x2="770.94" y2="-12042.42" gradientTransform="matrix(0.95, -0.3, -0.3, -0.95, -4201.29, -11086.3)" xlink:href="#_28"/><linearGradient id="_27-33" x1="-2834.79" y1="-13879.96" x2="-2819.1" y2="-13879.96" gradientTransform="matrix(0.74, -0.67, -0.67, -0.74, -7007.31, -12068.03)" xlink:href="#_27"/><linearGradient id="_27-34" x1="755.65" y1="-12035.23" x2="753.77" y2="-12038.91" gradientTransform="matrix(0.95, -0.3, -0.3, -0.95, -4201.29, -11086.3)" xlink:href="#_27"/><linearGradient id="_92-20" x1="159.72" y1="176.88" x2="170.31" y2="159.19" xlink:href="#_92"/><linearGradient id="_27-35" x1="-11708.41" y1="-10665.58" x2="-11705.76" y2="-10647.02" gradientTransform="matrix(-1, 0.06, -0.06, -1, -12118.64, -9825.23)" xlink:href="#_27"/><linearGradient id="_79-12" x1="3038.02" y1="-9744.16" x2="3025.27" y2="-9734.14" gradientTransform="matrix(1, 0.07, 0.07, -1, -2196.92, -9761.02)" xlink:href="#_79"/><linearGradient id="_28-26" x1="3037.26" y1="-9742.3" x2="3025.88" y2="-9733.36" gradientTransform="matrix(1, 0.07, 0.07, -1, -2196.92, -9761.02)" xlink:href="#_28"/><linearGradient id="_28-27" x1="3035.55" y1="-9753.17" x2="3048.1" y2="-9753.17" gradientTransform="matrix(1, 0.07, 0.07, -1, -2196.92, -9761.02)" xlink:href="#_28"/><linearGradient id="_92-21" x1="113.04" y1="188.35" x2="113.04" y2="53.79" xlink:href="#_92"/><linearGradient id="_29" x1="94.7" y1="163.95" x2="87.32" y2="180.59" gradientUnits="userSpaceOnUse"><stop offset="0" stop-color="#ca6b34"/><stop offset="0.17" stop-color="#cc6e34"/><stop offset="0.29" stop-color="#d27733"/><stop offset="0.39" stop-color="#db8631"/><stop offset="0.48" stop-color="#e99b2f"/><stop offset="0.57" stop-color="#fbb72c"/><stop offset="0.59" stop-color="#ffbd2b"/><stop offset="1" stop-color="#ffa933"/></linearGradient><linearGradient id="_19" x1="92.8" y1="179.16" x2="92.8" y2="157.13" gradientUnits="userSpaceOnUse"><stop offset="0" stop-color="#ca6b34"/><stop offset="0.74" stop-color="#ffbd2b"/><stop offset="1" stop-color="#ffa933"/></linearGradient><linearGradient id="_27-36" x1="87.16" y1="180.2" x2="94.09" y2="165.43" xlink:href="#_27"/><linearGradient id="_29-2" x1="131.12" y1="163.08" x2="139.59" y2="183.26" xlink:href="#_29"/><linearGradient id="_19-2" x1="133.27" y1="179.37" x2="133.27" y2="157.33" xlink:href="#_19"/><linearGradient id="_27-37" x1="137.21" y1="179.78" x2="131.84" y2="163.67" xlink:href="#_27"/><linearGradient id="_29-3" x1="89.84" y1="58.18" x2="95.37" y2="70.34" xlink:href="#_29"/><linearGradient id="_92-22" x1="88.2" y1="52.4" x2="93.04" y2="64.62" xlink:href="#_92"/><linearGradient id="_27-38" x1="94.95" y1="69.01" x2="85.47" y2="50.05" xlink:href="#_27"/><linearGradient id="_28-28" x1="82.76" y1="41.15" x2="89.8" y2="61.45" xlink:href="#_28"/><linearGradient id="_29-4" x1="-12546.03" y1="58.18" x2="-12540.5" y2="70.34" gradientTransform="matrix(-1, 0, 0, 1, -12409.78, 0)" xlink:href="#_29"/><linearGradient id="_92-23" x1="-12547.67" y1="52.4" x2="-12542.83" y2="64.62" gradientTransform="matrix(-1, 0, 0, 1, -12409.78, 0)" xlink:href="#_92"/><linearGradient id="_27-39" x1="-12540.92" y1="69.01" x2="-12550.4" y2="50.05" gradientTransform="matrix(-1, 0, 0, 1, -12409.78, 0)" xlink:href="#_27"/><linearGradient id="_28-29" x1="-12553.11" y1="41.15" x2="-12546.07" y2="61.45" gradientTransform="matrix(-1, 0, 0, 1, -12409.78, 0)" xlink:href="#_28"/><linearGradient id="_29-5" x1="-14321.18" y1="-5541.12" x2="-14315.65" y2="-5528.96" gradientTransform="matrix(-0.71, -0.71, -0.71, 0.71, -13882.98, -6097.14)" xlink:href="#_29"/><linearGradient id="_92-24" x1="-14322.82" y1="-5546.9" x2="-14317.98" y2="-5534.68" gradientTransform="matrix(-0.71, -0.71, -0.71, 0.71, -13882.98, -6097.14)" xlink:href="#_92"/><linearGradient id="_27-40" x1="-14316.07" y1="-5530.3" x2="-14325.55" y2="-5549.25" gradientTransform="matrix(-0.71, -0.71, -0.71, 0.71, -13882.98, -6097.14)" xlink:href="#_27"/><linearGradient id="_28-30" x1="-14332.45" y1="-5490.75" x2="-14325.93" y2="-5471.94" gradientTransform="matrix(-0.71, -0.7, -0.7, 0.71, -13893.8, -6026.6)" xlink:href="#_28"/><linearGradient id="_29-6" x1="-7300.58" y1="-12581.6" x2="-7295.05" y2="-12569.44" gradientTransform="matrix(-0.71, 0.71, -0.71, -0.71, -13882.98, -3612.66)" xlink:href="#_29"/><linearGradient id="_92-25" x1="-7302.23" y1="-12587.38" x2="-7297.38" y2="-12575.17" gradientTransform="matrix(-0.71, 0.71, -0.71, -0.71, -13882.98, -3612.66)" xlink:href="#_92"/><linearGradient id="_27-41" x1="-7295.48" y1="-12570.78" x2="-7304.95" y2="-12589.73" gradientTransform="matrix(-0.71, 0.71, -0.71, -0.71, -13882.98, -3612.66)" xlink:href="#_27"/><linearGradient id="_28-31" x1="-7373.2" y1="-12591.18" x2="-7366.67" y2="-12572.37" gradientTransform="matrix(-0.71, 0.7, -0.7, -0.71, -13893.8, -3683.2)" xlink:href="#_28"/><linearGradient id="_29-7" x1="-6078.12" y1="2678.65" x2="-6072.59" y2="2690.82" gradientTransform="matrix(0.71, -0.71, 0.71, 0.71, 2467.89, -6097.14)" xlink:href="#_29"/><linearGradient id="_92-26" x1="-6079.76" y1="2672.88" x2="-6074.92" y2="2685.09" gradientTransform="matrix(0.71, -0.71, 0.71, 0.71, 2467.89, -6097.14)" xlink:href="#_92"/><linearGradient id="_27-42" x1="-6073.01" y1="2689.48" x2="-6082.49" y2="2670.53" gradientTransform="matrix(0.71, -0.71, 0.71, 0.71, 2467.89, -6097.14)" xlink:href="#_27"/><linearGradient id="_28-32" x1="-6019.39" y1="2657.17" x2="-6012.75" y2="2676.31" gradientTransform="matrix(0.71, -0.7, 0.7, 0.71, 2478.71, -6026.6)" xlink:href="#_28"/><linearGradient id="_29-8" x1="942.48" y1="-4361.83" x2="948.01" y2="-4349.66" gradientTransform="matrix(0.71, 0.71, 0.71, -0.71, 2467.89, -3612.66)" xlink:href="#_29"/><linearGradient id="_92-27" x1="940.83" y1="-4367.6" x2="945.68" y2="-4355.39" gradientTransform="matrix(0.71, 0.71, 0.71, -0.71, 2467.89, -3612.66)" xlink:href="#_92"/><linearGradient id="_27-43" x1="947.58" y1="-4351" x2="938.1" y2="-4369.96" gradientTransform="matrix(0.71, 0.71, 0.71, -0.71, 2467.89, -3612.66)" xlink:href="#_27"/><linearGradient id="_28-33" x1="940.05" y1="-4443.22" x2="946.58" y2="-4424.41" gradientTransform="matrix(0.71, 0.7, 0.7, -0.71, 2478.71, -3683.2)" xlink:href="#_28"/><linearGradient id="_27-44" x1="113.77" y1="128.77" x2="113.77" y2="179.49" xlink:href="#_27"/><linearGradient id="_27-45" x1="113.87" y1="127.5" x2="113.87" y2="185.6" xlink:href="#_27"/><linearGradient id="_28-34" x1="113.74" y1="60.92" x2="113.74" y2="85.33" xlink:href="#_28"/><linearGradient id="_29-9" x1="113.04" y1="66.68" x2="113.04" y2="171.66" xlink:href="#_29"/><linearGradient id="_28-35" x1="113.04" y1="175.85" x2="113.04" y2="148.83" xlink:href="#_28"/><linearGradient id="linear-gradient-4" x1="113.04" y1="164.12" x2="113.04" y2="143.1" xlink:href="#linear-gradient"/><linearGradient id="_27-46" x1="112.64" y1="102.65" x2="112.64" y2="70.19" xlink:href="#_27"/><radialGradient id="_21-4" cx="122.04" cy="66.23" r="16.55" gradientTransform="translate(136.94 -71.18) rotate(67.5)" xlink:href="#_21"/><radialGradient id="_26" cx="-751.5" cy="-1184.57" r="7.57" gradientTransform="matrix(0, 1.33, -0.88, 0, -943.85, 1166.43)" gradientUnits="userSpaceOnUse"><stop offset="0" stop-color="#e75a29"/><stop offset="0.18" stop-color="#ad431f"/><stop offset="0.4" stop-color="#702c14"/><stop offset="0.59" stop-color="#40190b"/><stop offset="0.77" stop-color="#1d0b05"/><stop offset="0.91" stop-color="#080301"/><stop offset="1"/></radialGradient><linearGradient id="_27-47" x1="175.33" y1="126.82" x2="175.33" y2="97.12" xlink:href="#_27"/><linearGradient id="_28-36" x1="175.58" y1="119.13" x2="175.58" y2="148.22" xlink:href="#_28"/><linearGradient id="_28-37" x1="50.45" y1="119.14" x2="50.45" y2="147.94" xlink:href="#_28"/><linearGradient id="_27-48" x1="50.44" y1="126.82" x2="50.44" y2="97.12" xlink:href="#_27"/><linearGradient id="_18" x1="96.5" y1="194.8" x2="96.5" y2="174.19" gradientUnits="userSpaceOnUse"><stop offset="0" stop-color="#d16509"/><stop offset="1" stop-color="#8d2c1b"/></linearGradient><linearGradient id="_18-2" x1="129.57" y1="194.8" x2="129.57" y2="174.19" xlink:href="#_18"/><linearGradient id="_27-49" x1="-2789.6" y1="138.92" x2="-2789.7" y2="126.7" gradientTransform="matrix(-1, 0, 0, 1, -2623.58, 0)" xlink:href="#_27"/><linearGradient id="_941" x1="164.75" y1="130.41" x2="164.75" y2="108.98" gradientUnits="userSpaceOnUse"><stop offset="0" stop-color="#ca6b34"/><stop offset="1" stop-color="#ffbd2b"/></linearGradient><linearGradient id="_20" x1="164.73" y1="129.71" x2="164.73" y2="114.27" gradientUnits="userSpaceOnUse"><stop offset="0" stop-color="#f08d1d"/><stop offset="1" stop-color="#8d2c1b"/></linearGradient><linearGradient id="_963" x1="164.69" y1="130.79" x2="164.69" y2="119.72" gradientUnits="userSpaceOnUse"><stop offset="0" stop-color="#f08d1d"/><stop offset="0.21" stop-color="#d4721c"/><stop offset="0.56" stop-color="#ae4c1c"/><stop offset="0.83" stop-color="#96351b"/><stop offset="1" stop-color="#8d2c1b"/></linearGradient><radialGradient id="_508" cx="164.69" cy="117.91" r="8.18" gradientUnits="userSpaceOnUse"><stop offset="0" stop-color="#d14b4b"/><stop offset="0.17" stop-color="#c84141"/><stop offset="0.44" stop-color="#b02727"/><stop offset="0.73" stop-color="#910606"/><stop offset="0.83" stop-color="#940f0f"/><stop offset="0.99" stop-color="#9d2626"/><stop offset="1" stop-color="#9e2929"/></radialGradient><linearGradient id="_449" x1="164.69" y1="125.57" x2="164.69" y2="115.83" gradientUnits="userSpaceOnUse"><stop offset="0" stop-color="#8b2788"/><stop offset="1" stop-color="#fff"/></linearGradient><radialGradient id="_445" cx="164.29" cy="116.37" r="5.1" gradientUnits="userSpaceOnUse"><stop offset="0.16" stop-color="#e61c24"/><stop offset="0.24" stop-color="#da1b22"/><stop offset="0.39" stop-color="#ba171d"/><stop offset="0.58" stop-color="#861015"/><stop offset="0.81" stop-color="#3f080a"/><stop offset="1"/></radialGradient><linearGradient id="linear-gradient-5" x1="164.02" y1="113.45" x2="168.25" y2="113.45" xlink:href="#linear-gradient"/><linearGradient id="_18-3" x1="152.98" y1="124.35" x2="176.52" y2="124.35" xlink:href="#_18"/><linearGradient id="_6" x1="170.64" y1="111.59" x2="175.57" y2="111.59" gradientUnits="userSpaceOnUse"><stop offset="0" stop-color="#ebbd38"/><stop offset="1" stop-color="#fff29e"/></linearGradient><radialGradient id="_479" cx="165.35" cy="117.91" r="18.81" gradientTransform="matrix(0.29, 0.97, -0.97, 0.29, 230.59, -76.35)" gradientUnits="userSpaceOnUse"><stop offset="0.09" stop-color="#e84136"/><stop offset="0.15" stop-color="#d73c32"/><stop offset="0.46" stop-color="#7c231d"/><stop offset="0.72" stop-color="#39100d"/><stop offset="0.91" stop-color="#100404"/><stop offset="1"/></radialGradient><linearGradient id="_27-50" x1="59.98" y1="138.92" x2="59.88" y2="126.7" xlink:href="#_27"/><linearGradient id="_941-2" x1="60.46" y1="130.41" x2="60.46" y2="108.98" xlink:href="#_941"/><linearGradient id="_20-2" x1="60.44" y1="129.71" x2="60.44" y2="114.27" xlink:href="#_20"/><linearGradient id="_963-2" x1="60.5" y1="131.2" x2="60.5" y2="120.02" xlink:href="#_963"/><radialGradient id="_508-2" cx="60.4" cy="117.91" r="8.18" gradientTransform="translate(143.89 19.34) rotate(67.5) scale(0.98 0.98)" xlink:href="#_508"/><linearGradient id="_449-2" x1="60.4" y1="125.57" x2="60.4" y2="115.83" xlink:href="#_449"/><radialGradient id="_445-2" cx="60.01" cy="116.37" r="5.1" xlink:href="#_445"/><linearGradient id="linear-gradient-6" x1="59.74" y1="113.45" x2="63.97" y2="113.45" xlink:href="#linear-gradient"/><linearGradient id="_18-4" x1="48.7" y1="124.35" x2="72.23" y2="124.35" xlink:href="#_18"/><linearGradient id="_6-2" x1="66.36" y1="111.59" x2="71.28" y2="111.59" xlink:href="#_6"/><radialGradient id="_479-2" cx="61.06" cy="117.91" r="18.81" gradientTransform="translate(143.15 11.99) rotate(65.15) scale(1.01 1.01)" xlink:href="#_479"/><linearGradient id="_27-51" x1="112.91" y1="193.36" x2="111.98" y2="173.71" xlink:href="#_27"/><linearGradient id="_264" x1="-66.64" y1="233.3" x2="-65.74" y2="214.02" gradientTransform="translate(170.2 -42.4) rotate(-2.26)" gradientUnits="userSpaceOnUse"><stop offset="0" stop-color="#ca6b34"/><stop offset="0.54" stop-color="#ffa933"/><stop offset="0.75" stop-color="#ffad31"/><stop offset="0.94" stop-color="#ffb82d"/><stop offset="1" stop-color="#ffbd2b"/></linearGradient><linearGradient id="_27-52" x1="-8991.29" y1="-1527.57" x2="-8998.47" y2="-1534.44" gradientTransform="matrix(-0.01, -1, -1, 0.01, -1557.2, -8784.25)" xlink:href="#_27"/><linearGradient id="_92-28" x1="113.3" y1="178.41" x2="113.3" y2="187.44" xlink:href="#_92"/><linearGradient id="_180" x1="113.25" y1="189.37" x2="113.25" y2="180.25" gradientUnits="userSpaceOnUse"><stop offset="0" stop-color="#ffa933"/><stop offset="0.33" stop-color="#ffc35a"/><stop offset="0.78" stop-color="#ffe389"/><stop offset="1" stop-color="#ffef9b"/></linearGradient><linearGradient id="_18-5" x1="-5552.48" y1="3511.28" x2="-5552.61" y2="3507.86" gradientTransform="matrix(-0.94, 0.01, 0.02, 1.12, -5147.3, -3682.63)" xlink:href="#_18"/><linearGradient id="_499" x1="-5469.99" y1="3324.11" x2="-5468.61" y2="3322.23" gradientTransform="matrix(-0.94, 0.01, 0.02, 1.12, -5066.03, -3472.54)" gradientUnits="userSpaceOnUse"><stop offset="0" stop-color="#de3c14"/><stop offset="1" stop-color="#db0f0f"/></linearGradient><linearGradient id="_490" x1="-5469.15" y1="3322.83" x2="-5470.99" y2="3324.67" gradientTransform="matrix(-0.94, 0.01, 0.02, 1.12, -5066.03, -3472.54)" gradientUnits="userSpaceOnUse"><stop offset="0" stop-color="#b51818"/><stop offset="0.23" stop-color="#bb1a19"/><stop offset="0.55" stop-color="#cd211c"/><stop offset="0.92" stop-color="#eb2c21"/><stop offset="1" stop-color="#f22f22"/></linearGradient><linearGradient id="_490-2" x1="-5468.61" y1="3322.03" x2="-5471.33" y2="3320.14" xlink:href="#_490"/><linearGradient id="_490-3" x1="-5467.49" y1="3324.56" x2="-5466.75" y2="3325.33" xlink:href="#_490"/><linearGradient id="_490-4" x1="-5466.66" y1="3321.15" x2="-5468.44" y2="3322.57" xlink:href="#_490"/><linearGradient id="linear-gradient-7" x1="-8986.82" y1="-1538.66" x2="-8986.82" y2="-1538.66" gradientTransform="matrix(-0.01, -1, -1, 0.01, -1557.2, -8784.25)" xlink:href="#linear-gradient"/><linearGradient id="linear-gradient-8" x1="113.75" y1="183.9" x2="113.75" y2="183.9" xlink:href="#linear-gradient"/><linearGradient id="_27-53" x1="70.98" y1="90.35" x2="72" y2="68.69" xlink:href="#_27"/><linearGradient id="_264-2" x1="-102.16" y1="125.57" x2="-101.25" y2="106.29" xlink:href="#_264"/><linearGradient id="_27-54" x1="-8884.47" y1="-1489.42" x2="-8891.65" y2="-1496.29" gradientTransform="matrix(-0.01, -1, -1, 0.01, -1557.2, -8784.25)" xlink:href="#_27"/><linearGradient id="_92-29" x1="73.55" y1="72.17" x2="73.55" y2="81.2" xlink:href="#_92"/><linearGradient id="_180-2" x1="73.5" y1="83.13" x2="73.5" y2="74.01" xlink:href="#_180"/><linearGradient id="_18-6" x1="-5511.77" y1="3415.52" x2="-5511.9" y2="3412.09" gradientTransform="matrix(-0.94, 0.01, 0.02, 1.12, -5147.3, -3682.63)" xlink:href="#_18"/><linearGradient id="_499-2" x1="-5429.27" y1="3229.02" x2="-5427.89" y2="3227.14" xlink:href="#_499"/><linearGradient id="_490-5" x1="-5429.22" y1="3227.97" x2="-5431.06" y2="3229.81" xlink:href="#_490"/><linearGradient id="_490-6" x1="-5428.68" y1="3227.17" x2="-5431.4" y2="3225.28" xlink:href="#_490"/><linearGradient id="_490-7" x1="-5427.58" y1="3228.81" x2="-5426.84" y2="3229.58" xlink:href="#_490"/><linearGradient id="_490-8" x1="-5426.75" y1="3225.39" x2="-5428.53" y2="3226.81" xlink:href="#_490"/><linearGradient id="linear-gradient-9" x1="-8880" y1="-1500.51" x2="-8879.99" y2="-1500.51" gradientTransform="matrix(-0.01, -1, -1, 0.01, -1557.2, -8784.25)" xlink:href="#linear-gradient"/><linearGradient id="linear-gradient-10" x1="74" y1="77.66" x2="74" y2="77.66" xlink:href="#linear-gradient"/><linearGradient id="_27-55" x1="-2630.78" y1="90.35" x2="-2629.76" y2="68.69" gradientTransform="matrix(-1, 0, 0, 1, -2476.05, 0)" xlink:href="#_27"/><linearGradient id="_264-3" x1="-24.18" y1="128.66" x2="-23.27" y2="109.37" xlink:href="#_264"/><linearGradient id="_27-56" x1="-8885.64" y1="-1567.45" x2="-8892.82" y2="-1574.33" gradientTransform="matrix(-0.01, -1, -1, 0.01, -1557.2, -8784.25)" xlink:href="#_27"/><linearGradient id="_92-30" x1="151.6" y1="72.17" x2="151.6" y2="81.2" xlink:href="#_92"/><linearGradient id="_180-3" x1="151.55" y1="83.13" x2="151.55" y2="74.01" xlink:href="#_180"/><linearGradient id="_18-7" x1="-5595.06" y1="3416.56" x2="-5595.19" y2="3413.13" gradientTransform="matrix(-0.94, 0.01, 0.02, 1.12, -5147.3, -3682.63)" xlink:href="#_18"/><linearGradient id="_499-3" x1="-5512.55" y1="3230.06" x2="-5511.18" y2="3228.18" xlink:href="#_499"/><linearGradient id="_490-9" x1="-5512.46" y1="3229.01" x2="-5514.3" y2="3230.85" xlink:href="#_490"/><linearGradient id="_490-10" x1="-5511.92" y1="3228.2" x2="-5514.64" y2="3226.31" xlink:href="#_490"/><linearGradient id="_490-11" x1="-5510.82" y1="3229.84" x2="-5510.08" y2="3230.62" xlink:href="#_490"/><linearGradient id="_490-12" x1="-5509.99" y1="3226.43" x2="-5511.77" y2="3227.85" xlink:href="#_490"/><linearGradient id="linear-gradient-11" x1="-8881.17" y1="-1578.54" x2="-8881.17" y2="-1578.54" gradientTransform="matrix(-0.01, -1, -1, 0.01, -1557.2, -8784.25)" xlink:href="#linear-gradient"/><linearGradient id="linear-gradient-12" x1="152.04" y1="77.66" x2="152.04" y2="77.66" xlink:href="#linear-gradient"/><linearGradient id="_92-31" x1="141.64" y1="25.78" x2="134.75" y2="25.78" xlink:href="#_92"/><linearGradient id="_92-32" x1="146.73" y1="31.32" x2="142.83" y2="31.32" xlink:href="#_92"/><linearGradient id="_92-33" x1="96.4" y1="30.35" x2="82.95" y2="30.35" xlink:href="#_92"/><radialGradient id="_21-5" cx="136.2" cy="25.78" r="5.76" gradientTransform="matrix(1, 0, 0, 1, 0, 0)" xlink:href="#_21"/><radialGradient id="_21-6" cx="143.65" cy="31.32" r="5.76" gradientTransform="matrix(1, 0, 0, 1, 0, 0)" xlink:href="#_21"/><radialGradient id="_21-7" cx="85.79" cy="30.35" r="11.73" gradientTransform="translate(95.14 -58.21) rotate(76.72) scale(0.98 0.98)" xlink:href="#_21"/><linearGradient id="_27-57" x1="84.65" y1="115.33" x2="141.49" y2="115.33" xlink:href="#_27"/><linearGradient id="linear-gradient-13" x1="112.09" y1="143.09" x2="112.09" y2="86.25" gradientUnits="userSpaceOnUse"><stop offset="0" stop-color="#ca6b34"/><stop offset="0.13" stop-color="#cc6e34"/><stop offset="0.22" stop-color="#d27733"/><stop offset="0.3" stop-color="#db8631"/><stop offset="0.37" stop-color="#e99b2f"/><stop offset="0.43" stop-color="#fbb72c"/><stop offset="0.44" stop-color="#ffbd2b"/><stop offset="1" stop-color="#ffa933"/></linearGradient></defs><title>Asset 27</title><g class="cls-1"><g id="Layer_2" data-name="Layer 2"><g id="frame"><circle class="cls-2" cx="112.5" cy="112.5" r="112.5"/><path class="cls-3" d="M113,34.1S93.1,43.81,78,73h70C133,43.81,113,34.1,113,34.1Z"/><path class="cls-4" d="M113,39.44S93.79,54.21,85.6,73h54.87C132.29,54.21,113,39.44,113,39.44Z"/><path class="cls-5" d="M87.42,73.1s11-20.73,25.45-31.79A112.44,112.44,0,0,1,138.59,73Z"/><path class="cls-6" d="M86.92,72.75S98.18,48,113,39.3c0,0,19.6,14.8,25.55,33.45,0,0-13.67-19.68-24.85-25.79,0,0-13.52,7.56-25.48,25.9Z"/><path class="cls-7" d="M127.64,45c-11.45-9.47-15.38-9.94-15.38-9.94-2.18,1.08-7.6,4.52-8,4.81A53.16,53.16,0,0,1,113,34S119.39,37.05,127.64,45Z"/><path class="cls-8" d="M119.52,38.06c-3.08,2,5,9,8.12,6.94,0,0-2-2-4.8-4.25Z"/><ellipse class="cls-9" cx="115.5" cy="58.5" rx="15.5" ry="18.5"/><path class="cls-10" d="M30.1,116.83s9.71,19.94,38.9,35v-70C39.81,96.9,30.1,116.83,30.1,116.83Z"/><path class="cls-11" d="M35.45,116.83S50.21,136.09,69,144.27V89.4C50.21,97.58,35.45,116.83,35.45,116.83Z"/><path class="cls-12" d="M69.1,142.45s-20.73-11-31.79-25.45A112.44,112.44,0,0,1,69,91.28Z"/><path class="cls-13" d="M68.67,143s-24.78-11.26-33.45-26.12c0,0,14.8-19.6,33.45-25.55,0,0-19.68,13.67-25.79,24.85,0,0,7.55,13.52,25.89,25.48Z"/><path class="cls-14" d="M40.92,102.23C31.45,113.68,31,117.62,31,117.62c1.08,2.17,4.52,7.59,4.81,8a53.16,53.16,0,0,1-5.92-8.79S33,110.48,40.92,102.23Z"/><path class="cls-15" d="M34,110.35c2.05,3.08,9-4.95,6.94-8.12,0,0-2,2-4.26,4.8Z"/><ellipse class="cls-16" cx="54.5" cy="114.5" rx="18.5" ry="15.5"/><path class="cls-17" d="M195.9,116.83s-9.71,19.94-38.9,35v-70C186.19,96.9,195.9,116.83,195.9,116.83Z"/><path class="cls-18" d="M190.55,116.83S175.79,136.09,157,144.27V89.4C175.79,97.58,190.55,116.83,190.55,116.83Z"/><path class="cls-19" d="M157.9,142.45s20.73-11,31.79-25.45A112.44,112.44,0,0,0,158,91.28Z"/><path class="cls-20" d="M157.51,143S182.3,131.69,191,116.83c0,0-14.8-19.6-33.46-25.55,0,0,19.68,13.67,25.8,24.85,0,0-7.56,13.52-25.9,25.48Z"/><path class="cls-21" d="M185.26,102.23c9.47,11.45,10,15.39,10,15.39-1.09,2.17-4.53,7.59-4.81,8a53.16,53.16,0,0,0,5.92-8.79S193.22,110.48,185.26,102.23Z"/><path class="cls-22" d="M192.21,110.35c-2.06,3.08-9-4.95-7-8.12,0,0,2,2,4.26,4.8S192.21,110.35,192.21,110.35Z"/><ellipse class="cls-23" cx="171.5" cy="114.5" rx="18.5" ry="15.5"/><path class="cls-24" d="M113,198.9S93.1,189.19,78,160h70C133,189.19,113,198.9,113,198.9Z"/><path class="cls-25" d="M113,193.56S95.2,180.24,85.6,160h54.87C132.29,178.79,113,193.56,113,193.56Z"/><path class="cls-26" d="M87.42,159.9s11,20.73,25.45,31.79A112.44,112.44,0,0,0,138.59,160Z"/><path class="cls-27" d="M86.92,160S89.5,173.9,113,193.43c0,0,19.6-14.8,25.55-33.46,0,0-13.67,7.31-24.85,13.42,0,0-9.49-1.34-25.48-13.52Z"/><path class="cls-28" d="M67,59.83a2.4,2.4,0,0,0,0,.46v.06a7.08,7.08,0,0,0,.34,1.42h0c1.09,3.24,4.33,7.76,6.28,10.29l.06.09c.47.61.86,1.1,1.12,1.42h0c.21.27.34.42.34.42h3.15c3-4.06,5.78-11.41,5.81-14.32a2.72,2.72,0,0,0-.08-.76A20.61,20.61,0,0,0,82.64,56c-2.38-4.45-7-12-8-11.86-.63.07-4,5.65-6,10.36A16.88,16.88,0,0,0,67,59.83Z"/><path class="cls-29" d="M67,59.83a2.4,2.4,0,0,0,0,.46v.06a7.08,7.08,0,0,0,.34,1.42h0c1.09,3.24,4.33,7.76,6.28,10.29l.06.09c.47.61.86,1.1,1.12,1.42h0c.21.27.34.42.34.42h3.15c3-4.06,5.78-11.41,5.81-14.32A7,7,0,0,1,78.47,65a10.39,10.39,0,0,1-2.77.09h0l-.47,0L74.83,65a13.76,13.76,0,0,1-2.73-.71s-2.67-1.78-3.22-4.15c-.23-1,0-3,.91-5.8a46.42,46.42,0,0,1,4.84-10.13c-.63.07-4,5.65-6,10.36A16.88,16.88,0,0,0,67,59.83Z"/><path class="cls-30" d="M77.08,58.88c1.44,5.67-1.33,14.74-1.33,14.74S76,65.27,74.82,61,76.64,57.13,77.08,58.88Z"/><path class="cls-31" d="M74.46,59.27c1.51,5,1.29,14.35,1.29,14.35Z"/><path class="cls-32" d="M82,54.93c-2.05,1.47-6.71-10-5.3-8.59C77.81,47.45,82,54.93,82,54.93Z"/><path class="cls-33" d="M66.72,59.91a.13.13,0,0,0,0,.06,5.13,5.13,0,0,0,.33,1.41v0c1.09,3.06,4.45,7.85,6.28,10.29l.06.08c.59.78,1,1.31,1.12,1.42h0c1.16,1.17.14-.75-4-8.28C68.68,61.62,66.66,58.76,66.72,59.91Z"/><path class="cls-34" d="M73.35,71.69l.06.08c.59.78,1,1.31,1.12,1.42a58.06,58.06,0,0,0,0-8.62c-.61-5-1.37-9.4-2.45-10a4.7,4.7,0,0,0-2.58-.64,4,4,0,0,0-1.21.22,16.73,16.73,0,0,0-1.64,5.32,2.43,2.43,0,0,0,0,.46.13.13,0,0,0,0,.06,5.13,5.13,0,0,0,.33,1.41v0C68.16,64.64,71.4,69.15,73.35,71.69Z"/><path class="cls-35" d="M58.37,86.89a3.17,3.17,0,0,0,.53,0h0a7.93,7.93,0,0,0,1.28-.29h0c3.22-1,7.76-4.23,10.34-6.17l.08-.07c.64-.48,1.15-.88,1.48-1.14h0c.27-.22-.13-.34-.13-.34l1-.77V75.7s-11.76-5.84-14.66-5.89a2.76,2.76,0,0,0-.76.07,20.45,20.45,0,0,0-2.89,1.35h0c-1,.51-2.1,1.13-3.26,1.8-4.12,2.37-8.69,5.32-8.61,6.1S54.59,86.79,58.37,86.89Z"/><path class="cls-36" d="M58.37,86.89a3.17,3.17,0,0,0,.53,0h0a7.93,7.93,0,0,0,1.28-.29h0c3.22-1,7.76-4.23,10.34-6.17l.08-.07c.64-.48,1.15-.88,1.48-1.14h0c.27-.22-.13-.34-.13-.34l1-.77V75.7s-11.76-5.84-14.66-5.89a6.9,6.9,0,0,1,5.23,5.64,9.89,9.89,0,0,1,.12,2.09c0,.23,0,.45,0,.67v0c0,.16,0,.32,0,.47a13.91,13.91,0,0,1-.79,3.07S61,84.43,58.64,85c-2,.44-8.4-1.12-15.83-5.84C42.91,80,54.59,86.79,58.37,86.89Z"/><path class="cls-37" d="M56.58,77.53c5.54-5,16,.44,16,.44s-8.31-.31-12.57.84S55.91,78.13,56.58,77.53Z"/><path class="cls-38" d="M58.25,79.15c5-1.46,14.3-1.18,14.3-1.18Z"/><path class="cls-39" d="M45.38,76.82c1,.89,5.53-.81,8.06-2.65,1.28-.94,2-1.91,1.55-2.6l-.3-.34h0L51.42,73Z"/><path class="cls-40" d="M63.86,83.14c7.52-4.1,9.45-5.11,8.27-4-.48.47-9.8,7.52-13.3,7.69C57.69,86.93,60.56,84.93,63.86,83.14Z"/><path class="cls-41" d="M51.42,73l.17.06a7.71,7.71,0,0,1,1.85,1.08,16.05,16.05,0,0,1,3.14,3.36s1.72-1.1,5.76-1c5.37.1,7,1,9.59,1.44h0l.24,0h0c.11,0,.23,0-.21.07l1-.1V75.7c-4.46-3.06-11.76-5.84-14.66-5.89a2.76,2.76,0,0,0-.76.07,20.45,20.45,0,0,0-2.89,1.35h0C53.71,71.74,52.58,72.36,51.42,73Z"/><path class="cls-42" d="M54.77,71.32c3.23,3.51,17.67,5.15,17.67,5.15L75,74c-.69-5.67-4.18-13.77-6.42-16.17a3,3,0,0,0-.66-.55c-2.14-1.24-18.17-5.83-19.11-4.7C48.16,53.4,51.88,68.18,54.77,71.32Z"/><path class="cls-43" d="M54.77,71.32c3.23,3.51,17.67,5.15,17.67,5.15L75,74c-.69-5.67-4.18-13.77-6.42-16.17,4.44,8.83-6.19,13-6.19,13s-2.27.66-5.53-1.56c-1.86-1.27-6-7-8-16.73C48.16,53.4,51.88,68.18,54.77,71.32Z"/><path class="cls-44" d="M60.91,63.24c7.45,2,12.25,12.55,12.25,12.55s-6.29-7-10.58-9.53S59.93,63,60.91,63.24Z"/><path class="cls-45" d="M60.94,65.13c5.16,2.94,12.22,10.66,12.22,10.66Z"/><path class="cls-46" d="M64.83,56.1c-.52,2.79-14.35-3.62-12.12-3.23C57.06,53.63,64.83,56.1,64.83,56.1Z"/><path class="cls-47" d="M159.05,59.83a2.4,2.4,0,0,1,0,.46v.06a7.08,7.08,0,0,1-.34,1.42h0c-1.09,3.24-4.33,7.76-6.28,10.29l-.06.09c-.47.61-.86,1.1-1.12,1.42h0c-.21.27-.34.42-.34.42h-3.15c-3-4.06-5.78-11.41-5.81-14.32a2.72,2.72,0,0,1,.08-.76,20.61,20.61,0,0,1,1.37-2.9c2.38-4.45,7-12,8-11.86.63.07,4,5.65,6,10.36A16.88,16.88,0,0,1,159.05,59.83Z"/><path class="cls-48" d="M159.05,59.83a2.4,2.4,0,0,1,0,.46v.06a7.08,7.08,0,0,1-.34,1.42h0c-1.09,3.24-4.33,7.76-6.28,10.29l-.06.09c-.47.61-.86,1.1-1.12,1.42h0c-.21.27-.34.42-.34.42h-3.15c-3-4.06-5.78-11.41-5.81-14.32A7,7,0,0,0,147.53,65a10.39,10.39,0,0,0,2.77.09h0l.47,0,.36-.06a13.76,13.76,0,0,0,2.73-.71s2.67-1.78,3.22-4.15c.23-1,0-3-.91-5.8a46.42,46.42,0,0,0-4.84-10.13c.63.07,4,5.65,6,10.36A16.88,16.88,0,0,1,159.05,59.83Z"/><path class="cls-49" d="M149.1,58.88c-1.44,5.67,1.33,14.74,1.33,14.74s-.25-8.35.94-12.62S149.54,57.13,149.1,58.88Z"/><path class="cls-50" d="M151.72,59.27c-1.51,5-1.29,14.35-1.29,14.35Z"/><path class="cls-51" d="M144.17,54.93c2.05,1.47,6.71-10,5.3-8.59C148.38,47.45,144.17,54.93,144.17,54.93Z"/><path class="cls-52" d="M159.46,59.91V60a5.59,5.59,0,0,1-.34,1.41v0c-1.1,3.06-4.46,7.85-6.29,10.29l-.06.08c-.59.78-1,1.31-1.12,1.42h0c-1.16,1.17-.13-.75,4-8.28C157.5,61.62,159.53,58.76,159.46,59.91Z"/><path class="cls-53" d="M152.83,71.69l-.06.08c-.59.78-1,1.31-1.12,1.42a59.56,59.56,0,0,1-.05-8.62c.62-5,1.38-9.4,2.45-10a4.71,4.71,0,0,1,2.59-.64,4,4,0,0,1,1.21.22,16.92,16.92,0,0,1,1.63,5.32,2.43,2.43,0,0,1,0,.46V60a5.59,5.59,0,0,1-.34,1.41v0C158,64.64,154.78,69.15,152.83,71.69Z"/><path class="cls-54" d="M167.81,86.89a3.21,3.21,0,0,1-.53,0h0a7.49,7.49,0,0,1-1.28-.29h0c-3.22-1-7.76-4.23-10.33-6.17l-.09-.07c-.64-.48-1.14-.88-1.48-1.14h0a3.09,3.09,0,0,0-1.05-.34l1-.77V75.7s10.94-5.84,13.84-5.89a2.76,2.76,0,0,1,.76.07,20.94,20.94,0,0,1,2.9,1.35h0c1,.51,2.1,1.13,3.26,1.8,4.13,2.37,8.7,5.32,8.61,6.1S171.59,86.79,167.81,86.89Z"/><path class="cls-55" d="M167.81,86.89a3.21,3.21,0,0,1-.53,0h0a7.49,7.49,0,0,1-1.28-.29h0c-3.22-1-7.76-4.23-10.33-6.17l-.09-.07c-.64-.48-1.14-.88-1.48-1.14h0a3.09,3.09,0,0,0-1.05-.34l1-.77V75.7s10.94-5.84,13.84-5.89a6.93,6.93,0,0,0-5.23,5.64,9.89,9.89,0,0,0-.12,2.09c0,.23,0,.45,0,.67v0c0,.16,0,.32.05.47a13.91,13.91,0,0,0,.79,3.07s1.79,2.65,4.16,3.19c2,.44,8.4-1.12,15.83-5.84C183.27,80,171.59,86.79,167.81,86.89Z"/><path class="cls-56" d="M169.61,77.53c-5.55-5-16,.44-16,.44s8.31-.31,12.58.84S170.27,78.13,169.61,77.53Z"/><path class="cls-57" d="M167.93,79.15c-5-1.46-14.3-1.18-14.3-1.18Z"/><path class="cls-58" d="M180.8,76.82c-1,.89-5.53-.81-8.05-2.65-1.29-.94-2.05-1.91-1.56-2.6l.31-.34h0l3.26,1.8Z"/><path class="cls-59" d="M162.33,83.14c-7.53-4.1-9.45-5.11-8.28-4,.48.47,9.8,7.52,13.3,7.69C168.49,86.93,165.63,84.93,162.33,83.14Z"/><path class="cls-60" d="M174.76,73l-.17.06a7.46,7.46,0,0,0-1.84,1.08,15.74,15.74,0,0,0-3.14,3.36s-1.73-1.1-5.77-1c-5.36.1-7,1-9.58,1.44h0L154,78h0a5.67,5.67,0,0,1-1,.07l1-.1V75.7c3.64-3.06,10.94-5.84,13.84-5.89a2.76,2.76,0,0,1,.76.07,20.94,20.94,0,0,1,2.9,1.35h0C172.48,71.74,173.6,72.36,174.76,73Z"/><path class="cls-61" d="M171.41,71.32c-3.23,3.51-17.67,5.15-17.67,5.15L151.17,74c.7-5.67,4.18-13.77,6.43-16.17a2.75,2.75,0,0,1,.65-.55c2.15-1.24,18.17-5.83,19.12-4.7C178,53.4,174.31,68.18,171.41,71.32Z"/><path class="cls-62" d="M171.41,71.32c-3.23,3.51-17.67,5.15-17.67,5.15L151.17,74c.7-5.67,4.18-13.77,6.43-16.17-4.44,8.83,6.19,13,6.19,13s2.26.66,5.52-1.56c1.87-1.27,6-7,8.06-16.73C178,53.4,174.31,68.18,171.41,71.32Z"/><path class="cls-63" d="M165.28,63.24c-7.46,2-12.25,12.55-12.25,12.55s6.28-7,10.57-9.53S166.25,63,165.28,63.24Z"/><path class="cls-64" d="M165.24,65.13C160.08,68.07,153,75.79,153,75.79Z"/><path class="cls-65" d="M161.35,56.1c.52,2.79,14.35-3.62,12.12-3.23C169.13,53.63,161.35,56.1,161.35,56.1Z"/><path class="cls-66" d="M67,173.17a2.4,2.4,0,0,1,0-.46v-.06a7.08,7.08,0,0,1,.34-1.42h0c1.09-3.24,4.33-7.76,6.28-10.29l.06-.09c.47-.61.86-1.1,1.12-1.42h0c.21-.27.34-.42.34-.42h3.15c3,4.06,5.78,11.41,5.81,14.32a2.72,2.72,0,0,1-.08.76,20.61,20.61,0,0,1-1.37,2.9c-2.38,4.45-7,12-8,11.86-.63-.07-4-5.65-6-10.36A16.88,16.88,0,0,1,67,173.17Z"/><path class="cls-67" d="M67,173.17a2.4,2.4,0,0,1,0-.46v-.06a7.08,7.08,0,0,1,.34-1.42h0c1.09-3.24,4.33-7.76,6.28-10.29l.06-.09c.47-.61.86-1.1,1.12-1.42h0c.21-.27.34-.42.34-.42h3.15c3,4.06,5.78,11.41,5.81,14.32A7,7,0,0,0,78.47,168a10.39,10.39,0,0,0-2.77-.09h0l-.47.05-.36.06a13.76,13.76,0,0,0-2.73.71s-2.67,1.78-3.22,4.15c-.23,1,0,3,.91,5.8a46.42,46.42,0,0,0,4.84,10.13c-.63-.07-4-5.65-6-10.36A16.88,16.88,0,0,1,67,173.17Z"/><path class="cls-68" d="M77.08,173.71c1.44-5.66-1.33-14.73-1.33-14.73s.25,8.34-.93,12.61S76.64,175.47,77.08,173.71Z"/><path class="cls-69" d="M74.46,173.33C76,168.27,75.75,159,75.75,159Z"/><path class="cls-70" d="M82,177.67c-2.05-1.48-6.71,10-5.3,8.58C77.81,185.15,82,177.67,82,177.67Z"/><path class="cls-71" d="M66.72,172.68a.11.11,0,0,1,0-.05,5.11,5.11,0,0,1,.33-1.42h0c1.09-3.07,4.45-7.86,6.28-10.29l.06-.09c.59-.78,1-1.3,1.12-1.42h0c1.16-1.17.14.75-4,8.27C68.68,171,66.66,173.83,66.72,172.68Z"/><path class="cls-72" d="M73.35,160.91l.06-.09c.59-.78,1-1.3,1.12-1.42a58.06,58.06,0,0,1,0,8.62c-.61,5-1.37,9.41-2.45,10a4.72,4.72,0,0,1-2.58.65,4.12,4.12,0,0,1-1.21-.23,16.69,16.69,0,0,1-1.64-5.31,2.54,2.54,0,0,1,0-.47.11.11,0,0,1,0-.05,5.11,5.11,0,0,1,.33-1.42h0C68.16,168,71.4,163.44,73.35,160.91Z"/><path class="cls-73" d="M58.37,145.7a3.2,3.2,0,0,1,.53,0h0a6.25,6.25,0,0,1,1.28.29h0c3.22,1,7.76,4.22,10.34,6.17l.08.06c.64.48,1.15.88,1.48,1.15h0c.27.21-.13.33-.13.33l1,.77v2.37s-11.76,5.84-14.66,5.89a2.42,2.42,0,0,1-.76-.07,21.25,21.25,0,0,1-2.89-1.34h0c-1-.51-2.1-1.13-3.26-1.79-4.12-2.37-8.69-5.33-8.61-6.11S54.59,145.8,58.37,145.7Z"/><path class="cls-74" d="M58.37,145.7a3.2,3.2,0,0,1,.53,0h0a6.25,6.25,0,0,1,1.28.29h0c3.22,1,7.76,4.22,10.34,6.17l.08.06c.64.48,1.15.88,1.48,1.15h0c.27.21-.13.33-.13.33l1,.77v2.37s-11.76,5.84-14.66,5.89a6.9,6.9,0,0,0,5.23-5.63,9.93,9.93,0,0,0,.12-2.09c0-.23,0-.45,0-.67v0c0-.16,0-.32,0-.47a13.91,13.91,0,0,0-.79-3.07s-1.79-2.65-4.16-3.18c-2-.45-8.4,1.11-15.83,5.83C42.91,152.55,54.59,145.8,58.37,145.7Z"/><path class="cls-75" d="M56.58,155.06c5.54,5,16-.44,16-.44s-8.31.31-12.57-.84S55.91,154.47,56.58,155.06Z"/><path class="cls-76" d="M58.25,153.44c5,1.47,14.3,1.18,14.3,1.18Z"/><path class="cls-77" d="M45.38,155.77c1-.89,5.53.81,8.06,2.66,1.28.93,2,1.91,1.55,2.6l-.3.34h0l-3.26-1.79Z"/><path class="cls-78" d="M63.86,149.46c7.52,4.1,9.45,5.11,8.27,4-.48-.47-9.8-7.53-13.3-7.7C57.69,145.66,60.56,147.66,63.86,149.46Z"/><path class="cls-79" d="M51.42,159.57l.17-.07a8,8,0,0,0,1.85-1.07,16.24,16.24,0,0,0,3.14-3.37s1.72,1.11,5.76,1c5.37-.11,7-1,9.59-1.45h0l.24,0h0c.11,0,.23,0-.21-.07l1,.1v2.27c-4.46,3.06-11.76,5.84-14.66,5.89a2.42,2.42,0,0,1-.76-.07,21.25,21.25,0,0,1-2.89-1.34h0C53.71,160.85,52.58,160.23,51.42,159.57Z"/><path class="cls-80" d="M54.77,161.28c3.23-3.51,17.67-5.15,17.67-5.15L75,158.58c-.69,5.67-4.18,13.77-6.42,16.16a3.39,3.39,0,0,1-.66.56c-2.14,1.24-18.17,5.83-19.11,4.69C48.16,179.2,51.88,164.42,54.77,161.28Z"/><path class="cls-81" d="M54.77,161.28c3.23-3.51,17.67-5.15,17.67-5.15L75,158.58c-.69,5.67-4.18,13.77-6.42,16.16,4.44-8.82-6.19-13-6.19-13s-2.27-.67-5.53,1.55c-1.86,1.28-6,7-8,16.73C48.16,179.2,51.88,164.42,54.77,161.28Z"/><path class="cls-82" d="M60.91,169.35c7.45-2,12.25-12.55,12.25-12.55s-6.29,7-10.58,9.53S59.93,169.62,60.91,169.35Z"/><path class="cls-83" d="M60.94,167.47c5.16-2.94,12.22-10.67,12.22-10.67Z"/><path class="cls-84" d="M64.83,176.5c-.52-2.79-14.35,3.61-12.12,3.23C57.06,179,64.83,176.5,64.83,176.5Z"/><path class="cls-85" d="M159.05,173.17a2.4,2.4,0,0,0,0-.46v-.06a7.08,7.08,0,0,0-.34-1.42h0c-1.09-3.24-4.33-7.76-6.28-10.29l-.06-.09c-.47-.61-.86-1.1-1.12-1.42h0c-.21-.27-.34-.42-.34-.42h-3.15c-3,4.06-5.78,11.41-5.81,14.32a2.72,2.72,0,0,0,.08.76,20.61,20.61,0,0,0,1.37,2.9c2.38,4.45,7,12,8,11.86.63-.07,4-5.65,6-10.36A16.88,16.88,0,0,0,159.05,173.17Z"/><path class="cls-86" d="M159.05,173.17a2.4,2.4,0,0,0,0-.46v-.06a7.08,7.08,0,0,0-.34-1.42h0c-1.09-3.24-4.33-7.76-6.28-10.29l-.06-.09c-.47-.61-.86-1.1-1.12-1.42h0c-.21-.27-.34-.42-.34-.42h-3.15c-3,4.06-5.78,11.41-5.81,14.32a7,7,0,0,1,5.62-5.29,10.39,10.39,0,0,1,2.77-.09h0l.47.05.36.06a13.76,13.76,0,0,1,2.73.71s2.67,1.78,3.22,4.15c.23,1,0,3-.91,5.8a46.42,46.42,0,0,1-4.84,10.13c.63-.07,4-5.65,6-10.36A16.88,16.88,0,0,0,159.05,173.17Z"/><path class="cls-87" d="M149.1,173.71c-1.44-5.66,1.33-14.73,1.33-14.73s-.25,8.34.94,12.61S149.54,175.47,149.1,173.71Z"/><path class="cls-88" d="M151.72,173.33c-1.51-5.06-1.29-14.35-1.29-14.35Z"/><path class="cls-89" d="M144.17,177.67c2.05-1.48,6.71,10,5.3,8.58C148.38,185.15,144.17,177.67,144.17,177.67Z"/><path class="cls-90" d="M159.46,172.68v-.05a5.56,5.56,0,0,0-.34-1.42h0c-1.1-3.07-4.46-7.86-6.29-10.29l-.06-.09c-.59-.78-1-1.3-1.12-1.42h0c-1.16-1.17-.13.75,4,8.27C157.5,171,159.53,173.83,159.46,172.68Z"/><path class="cls-91" d="M152.83,160.91l-.06-.09c-.59-.78-1-1.3-1.12-1.42a59.56,59.56,0,0,0-.05,8.62c.62,5,1.38,9.41,2.45,10a4.73,4.73,0,0,0,2.59.65,4.22,4.22,0,0,0,1.21-.23,16.88,16.88,0,0,0,1.63-5.31,2.54,2.54,0,0,0,0-.47v-.05a5.56,5.56,0,0,0-.34-1.42h0C158,168,154.78,163.44,152.83,160.91Z"/><path class="cls-92" d="M167.81,145.7a3.26,3.26,0,0,0-.53,0h0A6,6,0,0,0,166,146h0c-3.22,1-7.76,4.22-10.33,6.17l-.09.06c-.64.48-1.14.88-1.48,1.15h0a3.25,3.25,0,0,1-1.05.33l1,.77v2.37s10.94,5.84,13.84,5.89a2.42,2.42,0,0,0,.76-.07,21.77,21.77,0,0,0,2.9-1.34h0c1-.51,2.1-1.13,3.26-1.79,4.13-2.37,8.7-5.33,8.61-6.11S171.59,145.8,167.81,145.7Z"/><path class="cls-93" d="M167.81,145.7a3.26,3.26,0,0,0-.53,0h0A6,6,0,0,0,166,146h0c-3.22,1-7.76,4.22-10.33,6.17l-.09.06c-.64.48-1.14.88-1.48,1.15h0a3.25,3.25,0,0,1-1.05.33l1,.77v2.37s10.94,5.84,13.84,5.89a6.93,6.93,0,0,1-5.23-5.63,9.93,9.93,0,0,1-.12-2.09c0-.23,0-.45,0-.67v0c0-.16,0-.32.05-.47a13.91,13.91,0,0,1,.79-3.07s1.79-2.65,4.16-3.18c2-.45,8.4,1.11,15.83,5.83C183.27,152.55,171.59,145.8,167.81,145.7Z"/><path class="cls-94" d="M169.61,155.06c-5.55,5-16-.44-16-.44s8.31.31,12.58-.84S170.27,154.47,169.61,155.06Z"/><path class="cls-95" d="M167.93,153.44c-5,1.47-14.3,1.18-14.3,1.18Z"/><path class="cls-96" d="M180.8,155.77c-1-.89-5.53.81-8.05,2.66-1.29.93-2.05,1.91-1.56,2.6l.31.34h0l3.26-1.79Z"/><path class="cls-97" d="M162.33,149.46c-7.53,4.1-9.45,5.11-8.28,4,.48-.47,9.8-7.53,13.3-7.7C168.49,145.66,165.63,147.66,162.33,149.46Z"/><path class="cls-98" d="M174.76,159.57l-.17-.07a7.75,7.75,0,0,1-1.84-1.07,15.92,15.92,0,0,1-3.14-3.37s-1.73,1.11-5.77,1c-5.36-.11-7-1-9.58-1.45h0l-.24,0h0c-.12,0-.24,0-1-.07l1,.1v2.27c3.64,3.06,10.94,5.84,13.84,5.89a2.42,2.42,0,0,0,.76-.07,21.77,21.77,0,0,0,2.9-1.34h0C172.48,160.85,173.6,160.23,174.76,159.57Z"/><path class="cls-99" d="M171.41,161.28c-3.23-3.51-17.67-5.15-17.67-5.15l-2.57,2.45c.7,5.67,4.18,13.77,6.43,16.16a3.1,3.1,0,0,0,.65.56c2.15,1.24,18.17,5.83,19.12,4.69C178,179.2,174.31,164.42,171.41,161.28Z"/><path class="cls-100" d="M171.41,161.28c-3.23-3.51-17.67-5.15-17.67-5.15l-2.57,2.45c.7,5.67,4.18,13.77,6.43,16.16-4.44-8.82,6.19-13,6.19-13s2.26-.67,5.52,1.55c1.87,1.28,6,7,8.06,16.73C178,179.2,174.31,164.42,171.41,161.28Z"/><path class="cls-101" d="M165.28,169.35c-7.46-2-12.25-12.55-12.25-12.55s6.28,7,10.57,9.53S166.25,169.62,165.28,169.35Z"/><path class="cls-102" d="M165.24,167.47C160.08,164.53,153,156.8,153,156.8Z"/><path class="cls-103" d="M161.35,176.5c.52-2.79,14.35,3.61,12.12,3.23C169.13,179,161.35,176.5,161.35,176.5Z"/><path class="cls-104" d="M181.21,142.86c.59-1.42-7.65-16.76-11.06-23a57.09,57.09,0,0,0,0-6.88c3.41-6.23,11.1-21.41,11.06-23a25.47,25.47,0,0,0,0-2.9c-.58-1.39-18.05-6.32-25-8.23a57.62,57.62,0,0,0-6.46-6.33c-1.75-6.37-7-25.13-8.43-25.73-1.73-.73-24.21,11.72-25.54,12.46-.91-.05-1.82-.07-2.74-.07s-1.84,0-2.75.07C109,58.53,86.48,46.08,84.75,46.81c-1.43.6-6.68,19.36-8.43,25.73a56.7,56.7,0,0,0-6.45,6.33c-7,1.91-24.43,6.84-25,8.23a25.47,25.47,0,0,0,0,2.9c0,2.06,7.66,16.76,11.06,23a38.14,38.14,0,0,0,0,6.88c-3.4,6.23-11.65,21.57-11.06,23,.06.13-.12,2.61,0,2.9.58,1.38,18,6.32,25,8.23a57.55,57.55,0,0,0,6.45,6.33c1.75,6.37,7,25.13,8.43,25.73,1.73.73,24.22-11.72,25.54-12.46.91,0,1.82.07,2.75.07s1.83,0,2.74-.07c1.33.74,23.81,13.19,25.54,12.46,1.44-.6,6.68-19.36,8.43-25.73a58.5,58.5,0,0,0,6.46-6.33c6.95-1.91,24.42-6.85,25-8.23C181.33,145.47,181.15,143,181.21,142.86Zm-25-26.43A43.14,43.14,0,1,1,113,73.31,43.13,43.13,0,0,1,156.17,116.43Z"/><path class="cls-105" d="M103.16,172.84l.61.11a38.77,38.77,0,0,1-5.29,3.15h0c-1,.5-2,.94-2.95,1.34l-.09,0A47.3,47.3,0,0,1,87,180.11h0a61.19,61.19,0,0,1-4.75-12.76v0l0-.14c-.27-1.08-.49-2.06-.66-2.92l.45.3.75.47.63.39a57.14,57.14,0,0,0,19.18,7.33Z"/><path class="cls-106" d="M102.9,172.8c-3.05,2-8.91,5.31-15.45,6.29,0,0-2.74-4.29-4.74-14.08l.63.39a57.14,57.14,0,0,0,19.18,7.33Z"/><path class="cls-107" d="M103.16,172.84a25,25,0,0,1-4.68,3.26h0a28.91,28.91,0,0,1-2.95,1.34l-.09,0A66.57,66.57,0,0,1,87,180.11h0a56.59,56.59,0,0,1-4.75-12.76v0l0-.14a11.84,11.84,0,0,1-.21-2.62l.75.47.63.39a34.09,34.09,0,0,0,5.13,9.42,27.52,27.52,0,0,0,14-2.09Z"/><path class="cls-108" d="M144.57,164.24c-.18.86-.4,1.84-.67,2.92l0,.14a.06.06,0,0,1,0,0,61.19,61.19,0,0,1-4.75,12.76h0a47.26,47.26,0,0,1-8.45-2.63l-.08,0c-1-.4-2-.85-3-1.36a37.3,37.3,0,0,1-5.28-3.15l.61-.1.65-.11a57.22,57.22,0,0,0,19.18-7.33l.62-.39.75-.47Z"/><path class="cls-109" d="M143.36,165.22c-2,9.78-4.73,14.07-4.73,14.07-6.55-1-12.41-4.29-15.45-6.29h0l.39-.07a57,57,0,0,0,19.18-7.33Z"/><path class="cls-110" d="M143.9,167.16l0,.14a.06.06,0,0,1,0,0,56,56,0,0,1-4.75,12.76h0a67.26,67.26,0,0,1-8.45-2.63l-.08,0a28.91,28.91,0,0,1-3-1.34l0,0a24.76,24.76,0,0,1-4.67-3.25l.65-.11a27.48,27.48,0,0,0,14,2.09,34.39,34.39,0,0,0,5.14-9.42l.62-.39.75-.47A11.84,11.84,0,0,1,143.9,167.16Z"/><path class="cls-111" d="M103.16,60.08l.61-.1a36.84,36.84,0,0,0-5.29-3.15l0,0c-1-.5-2-.94-2.95-1.34l-.09,0A48.3,48.3,0,0,0,87,52.81h0a61.19,61.19,0,0,0-4.75,12.76s0,0,0,0l0,.13c-.27,1.08-.49,2.06-.66,2.92l.45-.29.75-.48.63-.39a56.91,56.91,0,0,1,19.18-7.32Z"/><path class="cls-112" d="M102.9,60.13c-3.05-2-8.91-5.32-15.45-6.29,0,0-2.74,4.28-4.74,14.07l.63-.39a56.91,56.91,0,0,1,19.18-7.32Z"/><path class="cls-113" d="M103.16,60.08a25,25,0,0,0-4.68-3.25l0,0c-.84-.44-1.84-.89-2.95-1.34l-.09,0A66.57,66.57,0,0,0,87,52.81h0a56.83,56.83,0,0,0-4.75,12.76s0,0,0,0l0,.13A11.89,11.89,0,0,0,82,68.39l.75-.48.63-.39a34.09,34.09,0,0,1,5.13-9.42,27.47,27.47,0,0,1,14,2.1Z"/><path class="cls-114" d="M97.14,52.21c-5.71-2.08-11.75-4-11.75-4-1.85,2.86-5.83,13.09-6,13.56,2.09-7.11,4.48-14.6,5.39-15s6.55,2.39,12.37,5.4Z"/><path class="cls-115" d="M122.93,60.08l-.61-.1a37.3,37.3,0,0,1,5.28-3.15l0,0c1-.5,2-.94,3-1.34l.09,0a48,48,0,0,1,8.44-2.63h0a60.72,60.72,0,0,1,4.76,12.76.09.09,0,0,0,0,0l0,.13c.27,1.08.49,2.06.66,2.92l-.45-.29-.75-.48-.63-.39a56.91,56.91,0,0,0-19.18-7.32Z"/><path class="cls-116" d="M123.19,60.13c3-2,8.91-5.32,15.45-6.29,0,0,2.74,4.28,4.74,14.07l-.63-.39a56.91,56.91,0,0,0-19.18-7.32Z"/><path class="cls-117" d="M122.93,60.08a25.23,25.23,0,0,1,4.67-3.25l0,0c.84-.44,1.84-.89,3-1.34l.09,0a66.57,66.57,0,0,1,8.44-2.63h0a56,56,0,0,1,4.76,12.76.09.09,0,0,0,0,0l0,.13a11.89,11.89,0,0,1,.21,2.63l-.75-.48-.63-.39a34.35,34.35,0,0,0-5.13-9.42,27.47,27.47,0,0,0-14.05,2.1Z"/><path class="cls-118" d="M129,52.21c5.71-2.08,11.75-4,11.75-4,1.85,2.86,5.83,13.09,6,13.56-2.09-7.11-4.49-14.6-5.39-15s-6.55,2.39-12.38,5.4Z"/><path class="cls-119" d="M159.66,83.32l-.36-.51a38.89,38.89,0,0,1,6,1.5h0c1.07.36,2.08.74,3,1.13a.2.2,0,0,0,.08,0,49,49,0,0,1,7.84,4.1h0A60.56,60.56,0,0,1,170.6,102a.05.05,0,0,1,0,0l-.07.12c-.57,1-1.11,1.81-1.6,2.54,0-.18-.07-.36-.11-.54s-.13-.57-.19-.86-.12-.48-.17-.72A56.9,56.9,0,0,0,160,83.85Z"/><path class="cls-120" d="M159.81,83.53c3.57.74,10.06,2.53,15.38,6.46,0,0-1.09,5-6.58,13.31-.06-.24-.12-.48-.17-.72A56.9,56.9,0,0,0,160,83.85Z"/><path class="cls-121" d="M159.66,83.32a25.29,25.29,0,0,1,5.61,1h0a31.26,31.26,0,0,1,3,1.13.2.2,0,0,0,.08,0,67.91,67.91,0,0,1,7.84,4.1h0A56.32,56.32,0,0,1,170.6,102a.05.05,0,0,1,0,0l-.07.12a11.78,11.78,0,0,1-1.71,2c-.06-.29-.13-.57-.19-.86s-.12-.48-.17-.72a34.35,34.35,0,0,0,3-10.3A27.43,27.43,0,0,0,160,83.85Z"/><path class="cls-122" d="M169.26,82.62c5.14,2.32,10.37,5,10.37,5-.63,3.09-4.63,12.45-4.81,12.88,3.23-6.06,6.5-12.57,6.15-13.4s-5.9-2.67-11.7-4.46Z"/><path class="cls-123" d="M159.66,149.49l-.36.51a38.89,38.89,0,0,0,6-1.5h0c1.07-.36,2.08-.74,3-1.14l.08,0a49,49,0,0,0,7.84-4.1h0a60.56,60.56,0,0,0-5.65-12.39.05.05,0,0,0,0,0l-.07-.12c-.57-1-1.11-1.81-1.6-2.54,0,.18-.07.36-.11.53s-.13.58-.19.87-.12.48-.17.72A57,57,0,0,1,160,149Z"/><path class="cls-124" d="M159.81,149.28c3.57-.74,10.06-2.53,15.38-6.46,0,0-1.09-5-6.58-13.31-.06.24-.12.48-.17.72A57,57,0,0,1,160,149Z"/><path class="cls-125" d="M159.66,149.49a25.29,25.29,0,0,0,5.61-1h0a29.07,29.07,0,0,0,3-1.14l.08,0a67.91,67.91,0,0,0,7.84-4.1h0a56.1,56.1,0,0,0-5.65-12.39.05.05,0,0,0,0,0l-.07-.12a11.84,11.84,0,0,0-1.71-2c-.06.29-.13.58-.19.87s-.12.48-.17.72a34.37,34.37,0,0,1,3,10.29A27.4,27.4,0,0,1,160,149Z"/><path class="cls-126" d="M169.26,150.19c5.14-2.32,10.37-5,10.37-5-.63-3.09-4.63-12.45-4.81-12.89,3.23,6.07,6.5,12.58,6.15,13.41s-5.9,2.67-11.7,4.46Z"/><path class="cls-127" d="M66.15,83.32l.36-.51a38.6,38.6,0,0,0-6,1.5h0c-1.06.36-2.08.74-3,1.13l-.09,0a48.1,48.1,0,0,0-7.83,4.1h0A60.05,60.05,0,0,0,55.2,102s0,0,0,0l.08.12c.57,1,1.11,1.81,1.59,2.54l.12-.54c.06-.29.12-.57.19-.86s.11-.48.17-.72a56.9,56.9,0,0,1,8.41-18.73Z"/><path class="cls-128" d="M66,83.53c-3.56.74-10.06,2.53-15.38,6.46,0,0,1.09,5,6.59,13.31,0-.24.11-.48.17-.72a56.9,56.9,0,0,1,8.41-18.73Z"/><path class="cls-129" d="M66.15,83.32a25.29,25.29,0,0,0-5.61,1h0a31.15,31.15,0,0,0-3,1.13l-.09,0a67.83,67.83,0,0,0-7.83,4.1h0A55.44,55.44,0,0,0,55.2,102s0,0,0,0l.08.12a11.78,11.78,0,0,0,1.71,2c.06-.29.12-.57.19-.86s.11-.48.17-.72a34.35,34.35,0,0,1-3-10.3,27.51,27.51,0,0,1,11.43-8.43Z"/><path class="cls-130" d="M56.54,82.62c-5.13,2.32-10.36,5-10.36,5,.62,3.09,4.66,12.82,4.85,13.26C47.91,95.1,44.6,87.4,44.84,87.08c.49-.68,5.89-2.67,11.69-4.46Z"/><path class="cls-131" d="M66.15,149.49l.36.51a38.6,38.6,0,0,1-6-1.5h0c-1.06-.36-2.08-.74-3-1.14l-.09,0a48.1,48.1,0,0,1-7.83-4.1h0a60.05,60.05,0,0,1,5.64-12.39l0,0,.08-.12c.57-1,1.11-1.81,1.59-2.54l.12.53c.06.29.12.58.19.87s.11.48.17.72A57,57,0,0,0,65.78,149Z"/><path class="cls-132" d="M66,149.28c-3.56-.74-10.06-2.53-15.38-6.46,0,0,1.09-5,6.59-13.31,0,.24.11.48.17.72A57,57,0,0,0,65.78,149Z"/><path class="cls-133" d="M66.15,149.49a25.29,25.29,0,0,1-5.61-1h0a29,29,0,0,1-3-1.14l-.09,0a67.83,67.83,0,0,1-7.83-4.1h0a55.22,55.22,0,0,1,5.64-12.39l0,0,.08-.12a11.84,11.84,0,0,1,1.71-2c.06.29.12.58.19.87s.11.48.17.72a34.38,34.38,0,0,0-3,10.29A27.48,27.48,0,0,0,65.78,149Z"/><path class="cls-134" d="M56.54,150.19c-5.13-2.32-10.36-5-10.36-5,.62-3.09,4.62-12.45,4.81-12.89-3.23,6.07-6.5,12.58-6.15,13.41s5.89,2.67,11.69,4.46Z"/><path class="cls-135" d="M166.25,137.49A57.24,57.24,0,0,1,61.3,140.88C82.39,160.31,125.27,178.46,166.25,137.49Z"/><path class="cls-136" d="M162.85,152.12c-2.58.74-4.93,1.4-6.64,1.87a58.5,58.5,0,0,1-6.46,6.33c-.5,1.83-1.29,4.66-2.19,7.8a70.74,70.74,0,0,1-22.2,10.66c-4.84-2.56-9-4.88-9.58-5.19-.91,0-1.82.07-2.74.07s-1.84,0-2.75-.07c-.56.31-4.87,2.7-9.8,5.3a63.82,63.82,0,0,1-21.85-10.33c-1-3.31-1.79-6.33-2.32-8.24A56.7,56.7,0,0,1,69.87,154l-5.4-1.51a29,29,0,0,1-3.17-11.6c15.19,25.12,66.17,55,105-3.39C167,142.29,165.64,147.29,162.85,152.12Z"/><path class="cls-137" d="M113,59.2A57.24,57.24,0,0,0,58.21,100C67.57,79.3,88.84,69.33,113,69.33c26.39,0,48.35,12.7,56.22,36.45A57.22,57.22,0,0,0,113,59.2Z"/><path class="cls-138" d="M113,69.33a47.09,47.09,0,1,0,47.08,47.09A47.09,47.09,0,0,0,113,69.33Zm0,90.22a43.14,43.14,0,1,1,43.13-43.13A43.13,43.13,0,0,1,113,159.55Z"/><path class="cls-139" d="M75.14,144.36s12.61,15.19,37.9,15.19,37.89-15.19,37.89-15.19-12.3,19.82-37.89,19.82S75.14,144.36,75.14,144.36Z"/><path class="cls-140" d="M75.14,144.36a47.08,47.08,0,0,0,75.79,0s-12.3,19.82-37.89,19.82S75.14,144.36,75.14,144.36Z"/><path class="cls-141" d="M158.36,103.61c-1.11-.63-2.81-1.67-5.32-3.35h0a43.15,43.15,0,0,0-80.57,1.47,42.13,42.13,0,0,1-5.55,5.13,47.1,47.1,0,0,1,91.44-3.25Z"/><path class="cls-142" d="M113,64.68c-1.88,2.41,13.06,6.36,14.85,4.65s.11-4.23-3.26-4.65S114.51,62.78,113,64.68Z"/><path class="cls-142" d="M109.7,164.07c-1.08-2,10.69-4,12.34-2.57s-1.29,2.06-1.29,2.06Z"/><circle class="cls-143" cx="122.5" cy="66.5" r="16.5" transform="translate(14.18 154.23) rotate(-67.5)"/><ellipse class="cls-144" cx="93" cy="168.43" rx="6.63" ry="10.05" transform="matrix(0.26, -0.97, 0.97, 0.26, -93.59, 215.35)"/><path class="cls-145" d="M181,90c0,1.58-7.65,16.76-11.06,23l-.23-3.71s9.69-15.06,11.05-22.2l.29.59h0C181,88.5,181,89.89,181,90Z"/><path class="cls-146" d="M181.21,145.76a.53.53,0,0,1-.18.2l-.06-.23c-2.32-8.47-11.05-22.17-11.05-22.17l.23-3.69c3.41,6.23,11.65,21.57,11.06,23C181.15,143,181.33,145.47,181.21,145.76Z"/><path class="cls-147" d="M56,119.87v4.26A105.43,105.43,0,0,0,44.92,145.7c-.08-.47.07-2.71,0-2.84C44.35,141.44,52.59,126.1,56,119.87Z"/><path class="cls-148" d="M56,108.49V113c-3.41-6.23-11.1-20.93-11.06-23a24.7,24.7,0,0,1,0-2.87C49.87,100.91,56,108.49,56,108.49Z"/><path class="cls-149" d="M107.74,173.39l2.55.2c-1.32.74-23.81,13.19-25.53,12.46-.42-.17-1.16-1.88-2-4.38.09.21,1.67,3.45,2.51,3.45S107.74,173.39,107.74,173.39Z"/><path class="cls-150" d="M143.35,181.69c-.88,2.48-1.62,4.19-2,4.36-1.73.73-24.21-11.72-25.54-12.46l3.19-.26s15.15,9.49,21.32,11.39C141.85,185.2,143.23,182,143.35,181.69Z"/><path class="cls-151" d="M155.83,135.92a11.34,11.34,0,0,0-2-5.57s2.1-5.29,1.89-8.56l14.42-.32L174,110.69s5.37,4.13,4.32,10.78-3,8.34-3,8.34l-1.6.54a11.18,11.18,0,0,1-6.87,5.57S163.45,139,155.83,135.92Z"/><path class="cls-152" d="M154.74,112.58c-4.7,7.9.74,16.3,8.12,17.61s15.92-5.54,13.11-15.1S158.86,105.63,154.74,112.58Z"/><path class="cls-153" d="M159.65,110.52c-4.09,2.11-5.67,9.25-2.1,13.68s11.94,5,15.32-1.26C176.52,116.25,169.9,105.23,159.65,110.52Z"/><path class="cls-154" d="M173.11,118.22a8.42,8.42,0,1,1-8.42-8.42A8.42,8.42,0,0,1,173.11,118.22Z"/><path class="cls-155" d="M172.87,117.91a8.19,8.19,0,1,1-8.18-8.19A8.18,8.18,0,0,1,172.87,117.91Z"/><path class="cls-156" d="M172.87,117.91a8.19,8.19,0,1,1-14.09-5.67,7.1,7.1,0,0,0-1.11,3.83,6.63,6.63,0,1,0,13.24,0,7,7,0,0,0-2.65-5.53A8.19,8.19,0,0,1,172.87,117.91Z"/><circle class="cls-157" cx="164.29" cy="116.37" r="5.1"/><path class="cls-158" d="M164,113.62c-.1.87,2.35,1.88,3.08,1.88,0,0,1.61-1.55,1-3,0,0-1.77-1.41-3.37-1A5.62,5.62,0,0,0,164,113.62Z"/><path class="cls-159" d="M162.85,130.19A12,12,0,0,1,153,118.37c.79,6.63,5.62,12.42,15.26,10.14,1.18-.28,7.72-3.3,8.26-10.16C176.79,126.15,169.36,131.34,162.85,130.19Z"/><path class="cls-160" d="M175.57,114.06c-.41,1-5.54-4-4.86-5.06h0A9.92,9.92,0,0,1,175.57,114.06Z"/><circle class="cls-161" cx="165" cy="118" r="19" transform="translate(4.25 241.73) rotate(-73.15)"/><path class="cls-162" d="M70.17,135.92a11.47,11.47,0,0,1,2-5.57s-2.1-5.29-1.89-8.56l-14.42-.32L52,110.69s-5.37,4.13-4.31,10.78,2.94,8.34,2.94,8.34l1.61.54a11.18,11.18,0,0,0,6.87,5.57S62.55,139,70.17,135.92Z"/><path class="cls-163" d="M50.45,112.58c-4.7,7.9.74,16.3,8.12,17.61s15.93-5.54,13.11-15.1S54.58,105.63,50.45,112.58Z"/><path class="cls-164" d="M55.36,110.52c-4.09,2.11-5.66,9.25-2.09,13.68s11.93,5,15.32-1.26C72.23,116.25,65.61,105.23,55.36,110.52Z"/><circle class="cls-165" cx="60.5" cy="118.5" r="8.5"/><circle class="cls-166" cx="60" cy="118" r="8" transform="translate(-71.98 128.28) rotate(-67.5)"/><path class="cls-167" d="M68.59,117.91a8.19,8.19,0,1,1-14.09-5.67,7,7,0,0,0-1.11,3.83,6.63,6.63,0,1,0,13.24,0A7,7,0,0,0,64,110.54,8.2,8.2,0,0,1,68.59,117.91Z"/><path class="cls-168" d="M65.11,116.37a5.1,5.1,0,1,1-5.1-5.1A5.11,5.11,0,0,1,65.11,116.37Z"/><path class="cls-169" d="M59.74,113.62c-.1.87,2.35,1.88,3.09,1.88,0,0,1.61-1.55,1-3,0,0-1.77-1.41-3.37-1A5.82,5.82,0,0,0,59.74,113.62Z"/><path class="cls-170" d="M58.57,130.19a12,12,0,0,1-9.87-11.82c.79,6.63,5.62,12.42,15.27,10.14,1.17-.28,7.71-3.3,8.25-10.16C72.5,126.15,65.08,131.34,58.57,130.19Z"/><path class="cls-171" d="M71.28,114.06c-.41,1-5.54-4-4.86-5.06h0A9.89,9.89,0,0,1,71.28,114.06Z"/><circle class="cls-172" cx="61" cy="118" r="19" transform="translate(-71.71 123.77) rotate(-65.15)"/><path class="cls-173" d="M106.35,173.25l.6.57-.75,2-3,6.45,1.33,3.44,4.3,4,4.26,3.52,6.62-5.63,2-4.35-2.44-7.82.24-1.85-.49-.3A43.69,43.69,0,0,1,106.35,173.25Z"/><path class="cls-174" d="M120.33,183.25c-1.9,4.63-7.28,10-7.28,10s-5.54-5.24-7.57-9.81c1.89-4.62,7.27-10.14,7.27-10.14S118.29,178.68,120.33,183.25Z"/><path class="cls-175" d="M105.48,183.47c2,4.57,7.57,9.81,7.57,9.81l.31-2.51a30.93,30.93,0,0,1-6-7.21A8.34,8.34,0,0,0,105.48,183.47Z"/><path class="cls-176" d="M113.37,190.77s-4.43-3.9-6-7.21a22.43,22.43,0,0,1,5.6-7.72,20.92,20.92,0,0,1,6.24,7.43A33,33,0,0,1,113.37,190.77Z"/><path class="cls-177" d="M108.94,183.61a14.27,14.27,0,0,0,4.51,5.27,18.78,18.78,0,0,0,4.12-5.39,35.06,35.06,0,0,0-4.4-5.43A63.44,63.44,0,0,0,108.94,183.61Z"/><path class="cls-178" d="M108.94,184l8.63-.12a39.42,39.42,0,0,0-4.4-5.43A63.44,63.44,0,0,0,108.94,184Z"/><polygon class="cls-179" points="114.95 183.48 113.31 181.42 111.55 183.53 113.28 185.54 114.95 183.48"/><polygon class="cls-180" points="116.66 183 114.67 183.03 113 185.09 113.04 187.47 116.66 183"/><polygon class="cls-181" points="113 178.56 113.04 180.94 114.68 183 116.67 182.97 113 178.56"/><polygon class="cls-182" points="111.27 183.97 113 185.98 113.04 188.37 109.28 184 111.27 183.97"/><polygon class="cls-183" points="113 179.5 113.04 181.89 111.28 184 109.3 184.03 113 179.5"/><path class="cls-184" d="M116.78,178.26c-.13.38-1.59-1.43-1.38-1.66S117,177.76,116.78,178.26Z"/><path class="cls-185" d="M114.13,182.45c-.82-.52-1.25.34-1,.85s1.68.65,1.24-.58Z"/><path class="cls-186" d="M72.45,67.91s-6.38,3.26-10.92,13.31l2.44-.7,2.18,2.8,1.08-1.19a36.89,36.89,0,0,0,5,8.2,56.62,56.62,0,0,0,5.8-6.8,58.6,58.6,0,0,0,3.48-6.79,11.63,11.63,0,0,0-4-3.55Z"/><path class="cls-187" d="M80.58,77c-1.9,4.63-7.27,10-7.27,10s-5.54-5.24-7.58-9.81C67.63,72.61,73,67.09,73,67.09S78.55,72.44,80.58,77Z"/><path class="cls-188" d="M65.73,77.23c2,4.57,7.58,9.81,7.58,9.81l.31-2.51a31.1,31.1,0,0,1-6-7.21A8.34,8.34,0,0,0,65.73,77.23Z"/><path class="cls-189" d="M73.62,84.53s-4.43-3.9-6-7.21a22.43,22.43,0,0,1,5.6-7.72A20.89,20.89,0,0,1,79.48,77,33.21,33.21,0,0,1,73.62,84.53Z"/><path class="cls-190" d="M69.19,77.37a14.37,14.37,0,0,0,4.51,5.27,18.57,18.57,0,0,0,4.12-5.39,34.43,34.43,0,0,0-4.4-5.43A63.44,63.44,0,0,0,69.19,77.37Z"/><path class="cls-191" d="M69.19,77l8.63-.12a38.65,38.65,0,0,0-4.4-5.43A63.44,63.44,0,0,0,69.19,77Z"/><polygon class="cls-192" points="75.21 77.24 73.56 75.18 71.81 77.29 73.54 79.3 75.21 77.24"/><polygon class="cls-193" points="77.66 77 75.67 77.03 74 79.09 74.04 81.47 77.66 77"/><polygon class="cls-194" points="74 72.56 74.04 74.94 75.68 77 77.67 76.97 74 72.56"/><polygon class="cls-195" points="72.27 76.97 74 78.98 74.04 81.36 70.28 77 72.27 76.97"/><polygon class="cls-196" points="74 72.5 74.04 74.89 72.28 77 70.3 77.03 74 72.5"/><path class="cls-197" d="M77,72c-.14.38-1.59-1.43-1.38-1.66S77.21,71.52,77,72Z"/><path class="cls-198" d="M74.38,76.21c-.82-.52-1.24.34-1,.85s1.67.65,1.24-.58Z"/><path class="cls-199" d="M153.27,67.91s6.38,3.26,10.92,13.31l-2.44-.7-2.18,2.8-1.08-1.19a36.89,36.89,0,0,1-5,8.2,55.68,55.68,0,0,1-5.8-6.8,58.6,58.6,0,0,1-3.48-6.79,11.63,11.63,0,0,1,4-3.55Z"/><path class="cls-200" d="M158.62,77c-1.89,4.63-7.27,10-7.27,10s-5.54-5.24-7.58-9.81c1.9-4.62,7.28-10.14,7.28-10.14S156.59,72.44,158.62,77Z"/><path class="cls-201" d="M143.77,77.23c2,4.57,7.58,9.81,7.58,9.81l.31-2.51a31.1,31.1,0,0,1-6-7.21A8.34,8.34,0,0,0,143.77,77.23Z"/><path class="cls-202" d="M151.66,84.53s-4.43-3.9-6-7.21a22.43,22.43,0,0,1,5.6-7.72A20.89,20.89,0,0,1,157.52,77,33.21,33.21,0,0,1,151.66,84.53Z"/><path class="cls-203" d="M147.23,77.37a14.37,14.37,0,0,0,4.51,5.27,18.57,18.57,0,0,0,4.12-5.39,34.43,34.43,0,0,0-4.4-5.43A63.44,63.44,0,0,0,147.23,77.37Z"/><path class="cls-204" d="M147.23,77l8.63-.12a38.65,38.65,0,0,0-4.4-5.43A63.44,63.44,0,0,0,147.23,77Z"/><polygon class="cls-205" points="153.25 77.24 151.6 75.18 149.85 77.29 151.58 79.3 153.25 77.24"/><polygon class="cls-206" points="155.66 77 153.67 77.03 152 79.09 152.04 81.47 155.66 77"/><polygon class="cls-207" points="152 72.56 152.04 74.94 153.68 77 155.67 76.97 152 72.56"/><polygon class="cls-208" points="150.27 76.97 152 78.98 152.04 81.36 148.28 77 150.27 76.97"/><polygon class="cls-209" points="152 72.5 152.04 74.89 150.28 77 148.3 77.03 152 72.5"/><path class="cls-210" d="M155.08,72c-.13.38-1.59-1.43-1.38-1.66S155.25,71.52,155.08,72Z"/><path class="cls-211" d="M152.42,76.21c-.81-.52-1.24.34-1,.85s1.68.65,1.24-.58Z"/><path class="cls-212" d="M135.52,25.38c.57-.54.6-3.31.6-3.31s.09,2.91.45,3.22A11.24,11.24,0,0,0,139,26a7.07,7.07,0,0,0-2.38.41,14.81,14.81,0,0,0-.52,3.07s-.2-2.53-.59-2.89a6.67,6.67,0,0,0-2.15-.59A5.75,5.75,0,0,0,135.52,25.38Z"/><path class="cls-213" d="M143.27,31.09c.32-.3.34-1.87.34-1.87a6.42,6.42,0,0,0,.25,1.82,6.32,6.32,0,0,0,1.38.4,4.08,4.08,0,0,0-1.34.24,8.78,8.78,0,0,0-.29,1.73,5.27,5.27,0,0,0-.34-1.63,3.62,3.62,0,0,0-1.21-.34A3.21,3.21,0,0,0,143.27,31.09Z"/><path class="cls-214" d="M84.46,29.58c1.11-1.06,1.18-6.46,1.18-6.46s.16,5.68.86,6.29,4.78,1.37,4.78,1.37-3.91.15-4.63.81c-.51.45-1,6-1,6s-.4-4.93-1.16-5.64-4.18-1.16-4.18-1.16S83.61,30.39,84.46,29.58Z"/><path class="cls-215" d="M142,25.78A5.76,5.76,0,1,1,136.2,20,5.75,5.75,0,0,1,142,25.78Z"/><path class="cls-216" d="M149.41,31.32a5.76,5.76,0,1,1-5.76-5.76A5.75,5.75,0,0,1,149.41,31.32Z"/><circle class="cls-217" cx="85.5" cy="30.5" r="11.5" transform="translate(36.17 106.71) rotate(-76.72)"/><path class="cls-218" d="M140.88,128.44a24.33,24.33,0,0,0-2.73-.21,13.59,13.59,0,0,1-9.16-6.74,13.17,13.17,0,0,1-1-9.92c1.31-4.36,3-6,6.37-7.78a12.13,12.13,0,0,1,4.21-1.42,13.47,13.47,0,0,0,2.3-.21.9.9,0,0,0,.63-.52c0-.09,0-.26-.05-.32-.56-.52-3.28-.55-4.18-.79a13.12,13.12,0,0,1-9.77-11.67c0-.47.11-1.47-.21-1.79a1.55,1.55,0,0,0-.82-.11c-.21.13-.25.15-.31.41-.19.88,0,1.86-.2,2.76a13.31,13.31,0,0,1-5.66,8.6,13,13,0,0,1-9.67,2A13.13,13.13,0,0,1,100,88.17c0-.4,0-.94-.3-1.21a4.33,4.33,0,0,0-.88,0c-.18,1.11-.16,2.23-.36,3.35a13.19,13.19,0,0,1-5.25,8.2c-2.54,1.84-4.93,2.28-8,2.51a.7.7,0,0,0-.56.26,1.49,1.49,0,0,0,.12.81,27.75,27.75,0,0,0,3.76.52A13.2,13.2,0,0,1,98,111.19a13,13,0,0,1-.71,10,13.2,13.2,0,0,1-7.55,6.56c-1.79.59-2.88.37-4.47.7a.91.91,0,0,0-.58.3.83.83,0,0,0,.06.62c.8.74,2.76.37,3.81.64A13.41,13.41,0,0,1,98.7,142.21a3.71,3.71,0,0,0,.13,1.41,1.1,1.1,0,0,0,.69.12A1,1,0,0,0,100,143c.12-.76,0-1.53.16-2.3a13.36,13.36,0,0,1,5.23-8.44,13,13,0,0,1,18.25,2.87,13.41,13.41,0,0,1,2.52,7.65c0,.34,0,.82.4.91a3.67,3.67,0,0,0,.74,0c.42-.73.19-2.26.35-3.14a13.19,13.19,0,0,1,9.4-10.37,13.94,13.94,0,0,1,2.81-.44,11.14,11.14,0,0,0,1.16,0,.48.48,0,0,0,.36-.24.88.88,0,0,0,.05-.51C141.26,128.68,141.19,128.54,140.88,128.44Zm-17.82-4.77A13,13,0,0,1,105,125.58,13.05,13.05,0,1,1,126.05,114,13,13,0,0,1,123.06,123.67Z"/><path class="cls-219" d="M139.9,127.77a24.33,24.33,0,0,0-2.73-.21,13.53,13.53,0,0,1-9.16-6.74,13.06,13.06,0,0,1,5.36-17.7,12.2,12.2,0,0,1,4.21-1.42,13.47,13.47,0,0,0,2.3-.21.88.88,0,0,0,.63-.52c0-.09,0-.26,0-.31-.56-.52-3.28-.56-4.18-.79a13.15,13.15,0,0,1-9.77-11.68c0-.47.11-1.46-.21-1.79a1.64,1.64,0,0,0-.82-.11.49.49,0,0,0-.31.41c-.19.88,0,1.87-.2,2.77a13.31,13.31,0,0,1-5.66,8.59,13,13,0,0,1-9.67,2A13.11,13.11,0,0,1,99,87.51c0-.41,0-1-.3-1.22a4.33,4.33,0,0,0-.88,0c-.18,1.11-.16,2.24-.36,3.35a13.24,13.24,0,0,1-5.25,8.21c-2.54,1.84-4.93,2.27-8,2.5a.68.68,0,0,0-.56.27,1.47,1.47,0,0,0,.12.8,27.75,27.75,0,0,0,3.76.52A13.2,13.2,0,0,1,97,110.52a13,13,0,0,1-.71,10,13.22,13.22,0,0,1-7.55,6.57c-1.79.58-2.88.36-4.47.7a.83.83,0,0,0-.57.29.86.86,0,0,0,0,.63c.8.74,2.76.37,3.81.63a13.41,13.41,0,0,1,10.14,12.23,3.67,3.67,0,0,0,.13,1.41,1,1,0,0,0,.69.12,1,1,0,0,0,.45-.77c.12-.76,0-1.54.16-2.3a13.39,13.39,0,0,1,5.23-8.45,13.15,13.15,0,0,1,9.86-2.34,13,13,0,0,1,8.39,5.22,13.29,13.29,0,0,1,2.52,7.65c0,.33,0,.81.4.9a3.67,3.67,0,0,0,.74,0c.42-.73.19-2.26.35-3.14A13.19,13.19,0,0,1,136,129.5a13.94,13.94,0,0,1,2.81-.44,11.14,11.14,0,0,0,1.16,0,.48.48,0,0,0,.36-.24,1,1,0,0,0,.06-.5C140.28,128,140.21,127.87,139.9,127.77ZM122.08,123a12.93,12.93,0,0,1-8.71,4.63,13.09,13.09,0,0,1-9.36-2.72,13.28,13.28,0,0,1-4.92-8.78,13.07,13.07,0,1,1,23,6.87Z"/><path class="cls-142" d="M114.31,100c-.55.72,3.9,1.89,4.43,1.39s0-1.27-1-1.39S114.75,99.45,114.31,100Z"/></g></g></g></svg>