<svg xmlns="http://www.w3.org/2000/svg" xmlns:xlink="http://www.w3.org/1999/xlink" viewBox="0 0 115.66 114.46"><defs><style>.cls-1{isolation:isolate;}.cls-2{fill:url(#_7);}.cls-14,.cls-15,.cls-16,.cls-17,.cls-18,.cls-20,.cls-21,.cls-22,.cls-23,.cls-24,.cls-25,.cls-3{opacity:0.5;}.cls-17,.cls-20,.cls-21,.cls-22,.cls-23,.cls-24,.cls-25,.cls-3{mix-blend-mode:multiply;}.cls-3{fill:url(#_144);}.cls-4{fill:url(#_7-2);}.cls-5{fill:#7c1338;}.cls-10,.cls-11,.cls-12,.cls-13,.cls-6,.cls-7,.cls-8,.cls-9{mix-blend-mode:soft-light;}.cls-6{fill:url(#_24);}.cls-7{fill:url(#_24-2);}.cls-8{fill:url(#_24-3);}.cls-9{fill:url(#_24-4);}.cls-10{fill:url(#_24-5);}.cls-11{fill:url(#_24-6);}.cls-12{fill:url(#_24-7);}.cls-13{fill:url(#_24-8);}.cls-14,.cls-15,.cls-19{mix-blend-mode:color-dodge;}.cls-14{fill:url(#_1084);}.cls-15,.cls-16{fill:url(#_24-9);}.cls-16,.cls-18{mix-blend-mode:screen;}.cls-17{fill:url(#_144-2);}.cls-18{fill:url(#_24-11);}.cls-19{opacity:0.6;fill:url(#_1097);}.cls-20{fill:url(#_144-3);}.cls-21{fill:url(#_144-4);}.cls-22{fill:url(#_144-5);}.cls-23{fill:url(#_144-6);}.cls-24{fill:url(#_144-7);}.cls-25{fill:url(#_144-8);}.cls-26{fill:url(#_7-3);}</style><linearGradient id="_7" x1="57.78" y1="4.6" x2="57.78" y2="123.5" gradientUnits="userSpaceOnUse"><stop offset="0.02" stop-color="#cd6d22"/><stop offset="0.95" stop-color="#c74d3e"/></linearGradient><linearGradient id="_144" x1="58.57" y1="116.45" x2="58.57" y2="84.27" gradientUnits="userSpaceOnUse"><stop offset="0" stop-color="#961f63"/><stop offset="1" stop-color="#ea7052"/></linearGradient><linearGradient id="_7-2" x1="1.82" y1="23.03" x2="115.12" y2="23.03" xlink:href="#_7"/><radialGradient id="_24" cx="15.16" cy="29.61" r="6.3" gradientUnits="userSpaceOnUse"><stop offset="0.02" stop-color="#ffa41a"/><stop offset="1" stop-color="#ff8836"/></radialGradient><radialGradient id="_24-2" cx="6.09" cy="56.09" r="3.95" xlink:href="#_24"/><radialGradient id="_24-3" cx="10.94" cy="81.03" r="4.65" xlink:href="#_24"/><radialGradient id="_24-4" cx="61.16" cy="108.2" r="13.94" xlink:href="#_24"/><radialGradient id="_24-5" cx="104.81" cy="79.52" r="3.61" xlink:href="#_24"/><radialGradient id="_24-6" cx="109.91" cy="55.15" r="3.57" xlink:href="#_24"/><radialGradient id="_24-7" cx="101.26" cy="27.31" r="4.62" xlink:href="#_24"/><radialGradient id="_24-8" cx="58.08" cy="7.48" r="17.19" xlink:href="#_24"/><radialGradient id="_1084" cx="-597.64" cy="-1026" r="5.18" gradientTransform="matrix(1.28, 0.34, -0.22, 0.85, 579.01, 1177.19)" gradientUnits="userSpaceOnUse"><stop offset="0" stop-color="#f1a640"/><stop offset="0.06" stop-color="#e19b3c"/><stop offset="0.41" stop-color="#825a23"/><stop offset="0.69" stop-color="#3c2910"/><stop offset="0.9" stop-color="#110b04"/><stop offset="1"/></radialGradient><radialGradient id="_24-9" cx="57.78" cy="95.07" r="27.7" xlink:href="#_24"/><linearGradient id="_144-2" x1="57.38" y1="13.4" x2="57.38" y2="46.25" xlink:href="#_144"/><radialGradient id="_24-11" cx="60.83" cy="103.33" r="4.69" xlink:href="#_24"/><radialGradient id="_1097" cx="87.95" cy="16.38" r="6.85" gradientTransform="translate(0.61 -0.06)" gradientUnits="userSpaceOnUse"><stop offset="0" stop-color="#e87052"/><stop offset="0.1" stop-color="#da694d"/><stop offset="0.28" stop-color="#b75841"/><stop offset="0.53" stop-color="#7d3c2c"/><stop offset="0.84" stop-color="#2d1610"/><stop offset="1"/></radialGradient><linearGradient id="_144-3" x1="18.9" y1="79.59" x2="18.9" y2="80.67" xlink:href="#_144"/><linearGradient id="_144-4" x1="12.69" y1="55.56" x2="12.69" y2="56.32" xlink:href="#_144"/><linearGradient id="_144-5" x1="19.96" y1="29.37" x2="24.63" y2="29.37" xlink:href="#_144"/><linearGradient id="_144-6" x1="90.15" y1="28.09" x2="94.02" y2="28.09" xlink:href="#_144"/><linearGradient id="_144-7" x1="100.86" y1="54.27" x2="104.86" y2="54.27" xlink:href="#_144"/><linearGradient id="_144-8" x1="94.46" y1="79.17" x2="99.82" y2="79.17" xlink:href="#_144"/><linearGradient id="_7-3" x1="29" y1="57.28" x2="85.84" y2="57.28" xlink:href="#_7"/></defs><title>Asset 23</title><g class="cls-1"><g id="Layer_2" data-name="Layer 2"><g id="frame"><path class="cls-2" d="M114.89,60.67a54.81,54.81,0,0,0,0-6.88c3.41-6.23-7-32.21-13.94-34.12a56.89,56.89,0,0,0-6.46-6.34C92.75,7,61.85-.67,60.53.07,59.62,0,58.7,0,57.78,0S55.94,0,55,.07c-1.32-.74-32.22,6.9-34,13.26a56.89,56.89,0,0,0-6.46,6.34C7.65,21.58-2.74,47.56.67,53.79a36.18,36.18,0,0,0,0,6.88c-3.41,6.23,7,32.2,13.94,34.12a56.8,56.8,0,0,0,6.46,6.33c1.74,6.37,32.64,14,34,13.27.91,0,1.83.07,2.75.07s1.84,0,2.75-.07c1.32.73,32.22-6.9,34-13.27A56.8,56.8,0,0,0,101,94.79C107.91,92.87,118.3,66.9,114.89,60.67Zm-14-3.44A43.13,43.13,0,1,1,57.78,14.11,43.12,43.12,0,0,1,100.91,57.23Z"/><path class="cls-3" d="M112.23,78.28h0c-3,7.9-7.63,15.5-11.27,16.5a57.65,57.65,0,0,1-6.46,6.33c-1.74,6.37-32.64,14-34,13.27-.91,0-1.83.07-2.75.07s-1.84,0-2.75-.07c-1.32.73-32.22-6.9-34-13.27a57.65,57.65,0,0,1-6.46-6.33c-3-.84-6.77-6.32-9.69-12.73h0C26,101.49,71.25,119.26,112.23,78.28Z"/><path class="cls-4" d="M101,19.67a56.89,56.89,0,0,0-6.46-6.34C92.75,7,61.85-.67,60.53.06,59.62,0,58.7,0,57.78,0S55.94,0,55,.06C53.71-.67,22.81,7,21.07,13.33a56.89,56.89,0,0,0-6.46,6.34C10.3,20.85,4.66,31.29,1.82,40.54l.4.74c9.37-20.7,31.36-31.15,55.56-31.15,26.39,0,49.47,12.17,57.34,35.93h0C113.3,36,106.16,21.1,101,19.67Z"/><path class="cls-5" d="M7.05,28.16a79.34,79.34,0,0,0,19.16-.31c-.39.41-.76.83-1.12,1.25l-18.82.51Z"/><path class="cls-5" d="M107.78,27l-18.86.5-.53-.54,19.18-.31Z"/><path class="cls-5" d="M.54,54.94H14.69c0,.64,0,.93,0,1H.51A4.56,4.56,0,0,0,.54,54.94Z"/><path class="cls-5" d="M115.57,53.85c0,.37.05.73.06,1.09l-15.45.21c0-.41-.05-.81-.08-1.21l15.56-.26Z"/><path class="cls-5" d="M20.55,79c.31.53.64,1.06,1,1.58l-17.15.24c-.2-.48-.41-1-.6-1.46C9.06,80.76,14.06,79.92,20.55,79Z"/><path class="cls-5" d="M112.63,77.21c-.24.66-.5,1.33-.76,2l-17.14.29c.39-.64.76-1.29,1.11-2C100.91,79,105.46,79.3,112.63,77.21Z"/><path class="cls-5" d="M89,105.69c-.82.42-1.7.84-2.63,1.25l-56.22.39c-.94-.4-1.85-.81-2.69-1.22,0,0,23.56.45,30.77.4C66.37,106.45,89,105.69,89,105.69Z"/><path class="cls-5" d="M85.94,7.22C67.5,7,47.77,6.74,31.21,6.55c1.09-.44,2.23-.87,3.38-1.29,0,0,19.54,1,25.77,1,5.36,0,20.6-1,20.6-1C82.7,5.88,84.39,6.54,85.94,7.22Z"/><path class="cls-6" d="M6.27,29.61l17.78-.48S12.64,30.92,6.27,29.61Z"/><path class="cls-7" d="M.51,55.94l11.16-.15S5.47,57,.51,55.94Z"/><path class="cls-8" d="M4.37,80.94l13.14-.19S9.39,81.87,4.37,80.94Z"/><path class="cls-9" d="M41.46,107.94l39.4-.35A191.11,191.11,0,0,1,41.46,107.94Z"/><path class="cls-10" d="M99.71,79.48l10.2-.25S104.15,80.37,99.71,79.48Z"/><path class="cls-11" d="M104.86,54.94,115,54.8S112.42,56.28,104.86,54.94Z"/><path class="cls-12" d="M107.78,26.89l-13,.35S103,28.55,107.78,26.89Z"/><path class="cls-13" d="M33.78,6.94l48.6.64A399.06,399.06,0,0,1,33.78,6.94Z"/><path class="cls-14" d="M47.56,108c-.64,2.42-4.14,3.6-7.82,2.63s-6.14-3.72-5.5-6.15,4.14-3.6,7.82-2.63S48.2,105.62,47.56,108Z"/><path class="cls-5" d="M57.78,10.13a47.09,47.09,0,1,0,47.08,47.09A47.08,47.08,0,0,0,57.78,10.13Zm0,90.22a43.14,43.14,0,1,1,43.13-43.13A43.13,43.13,0,0,1,57.78,100.35Z"/><path class="cls-15" d="M19.88,85.16s12.62,15.19,37.9,15.19,37.9-15.19,37.9-15.19S83.37,105,57.78,105,19.88,85.16,19.88,85.16Z"/><path class="cls-16" d="M19.88,85.16a47.09,47.09,0,0,0,75.8,0S83.37,105,57.78,105,19.88,85.16,19.88,85.16Z"/><path class="cls-17" d="M103.1,44.4c-1.11-.63-2.81-1.66-5.31-3.34h0a43.16,43.16,0,0,0-80.58,1.46,41.73,41.73,0,0,1-5.54,5.14A47.1,47.1,0,0,1,103.1,44.4Z"/><path class="cls-18" d="M54.45,104.87c-1.09-2,10.68-4.05,12.33-2.57s-1.29,2.06-1.29,2.06Z"/><circle class="cls-19" cx="88.29" cy="16.27" r="6.83"/><polygon class="cls-20" points="16.28 79.48 21.1 79.92 21.52 80.59 16.97 80.71 16.28 79.48"/><polygon class="cls-21" points="10.73 55.48 14.69 55.67 14.66 56.16 10.7 56.35 10.73 55.48"/><polygon class="cls-22" points="20.52 28.43 24.63 29.61 24.05 30.32 19.96 29.3 20.52 28.43"/><polygon class="cls-23" points="93.56 26.8 90.15 28.73 90.71 29.37 94.02 27.15 93.56 26.8"/><polygon class="cls-24" points="104.73 53.6 100.92 54.27 100.86 54.94 104.86 54.88 104.73 53.6"/><polygon class="cls-25" points="99.83 78.43 95.25 78.59 94.46 79.92 99.25 79.52 99.83 78.43"/><path class="cls-5" d="M1.82,55.94c.84-2.63,4.45-2.2,6.24,0Z"/><path class="cls-5" d="M112.23,78.28c2.72-5.36-6.71-.71-5.66.36Z"/><path class="cls-5" d="M86.21,71.05a24.52,24.52,0,0,0-2.73-.21,13.53,13.53,0,0,1-9.16-6.74,13.15,13.15,0,0,1-1-9.91c1.31-4.36,3-6,6.36-7.79A12.25,12.25,0,0,1,83.89,45a13.47,13.47,0,0,0,2.3-.21.88.88,0,0,0,.63-.52c0-.09,0-.26,0-.31-.56-.52-3.29-.56-4.18-.79a13.14,13.14,0,0,1-9.77-11.68c0-.47.11-1.46-.21-1.79a1.65,1.65,0,0,0-.82-.11c-.21.13-.26.16-.31.41-.19.88,0,1.87-.2,2.77a13.31,13.31,0,0,1-5.66,8.59,13,13,0,0,1-9.67,2A13.11,13.11,0,0,1,45.32,30.79c0-.41,0-.95-.3-1.22a4.39,4.39,0,0,0-.89,0c-.17,1.11-.15,2.24-.35,3.35a13.24,13.24,0,0,1-5.25,8.21c-2.54,1.84-4.93,2.28-8,2.5a.68.68,0,0,0-.56.27,1.38,1.38,0,0,0,.12.8,27.75,27.75,0,0,0,3.76.52,13.22,13.22,0,0,1,9.46,8.62,13,13,0,0,1-.71,10,13.22,13.22,0,0,1-7.55,6.57c-1.79.58-2.88.36-4.47.7a.57.57,0,0,0-.52.92c.79.74,2.76.37,3.81.63A13.41,13.41,0,0,1,44,84.82a3.67,3.67,0,0,0,.13,1.41,1,1,0,0,0,.69.12,1,1,0,0,0,.45-.77c.12-.76,0-1.54.16-2.3a13.41,13.41,0,0,1,5.22-8.45,13.19,13.19,0,0,1,9.87-2.34,13,13,0,0,1,8.39,5.22,13.36,13.36,0,0,1,2.52,7.65c0,.33,0,.82.4.9a3.67,3.67,0,0,0,.74,0c.42-.73.19-2.26.35-3.14a13.19,13.19,0,0,1,9.4-10.37,14,14,0,0,1,2.8-.44,11.24,11.24,0,0,0,1.17,0,.48.48,0,0,0,.36-.24.85.85,0,0,0,0-.5C86.59,71.29,86.51,71.15,86.21,71.05ZM68.39,66.28a12.93,12.93,0,0,1-8.71,4.63,13.09,13.09,0,0,1-9.36-2.72,13.07,13.07,0,0,1,7-23.29A13,13,0,0,1,68.39,66.28Z"/><path class="cls-26" d="M85.23,70.39a26.92,26.92,0,0,0-2.73-.22,13.53,13.53,0,0,1-9.16-6.74A13,13,0,0,1,78.7,45.74a11.8,11.8,0,0,1,4.21-1.42,14.57,14.57,0,0,0,2.3-.22.88.88,0,0,0,.63-.52c0-.08,0-.25,0-.31-.56-.52-3.28-.56-4.18-.79a13.14,13.14,0,0,1-9.77-11.67c0-.47.11-1.47-.21-1.8a1.78,1.78,0,0,0-.82-.11.49.49,0,0,0-.31.41c-.19.89,0,1.87-.2,2.77a13.31,13.31,0,0,1-5.66,8.59,12.93,12.93,0,0,1-9.67,2A13.11,13.11,0,0,1,44.34,30.12c0-.4,0-.95-.3-1.22a5.19,5.19,0,0,0-.88,0C43,30,43,31.1,42.8,32.22a13.19,13.19,0,0,1-5.25,8.2c-2.54,1.84-4.93,2.28-8,2.5a.68.68,0,0,0-.56.27,1.46,1.46,0,0,0,.12.8,24.9,24.9,0,0,0,3.76.52,13.24,13.24,0,0,1,9.46,8.63,13,13,0,0,1-.71,10,13.24,13.24,0,0,1-7.55,6.56c-1.79.58-2.88.36-4.47.7a.89.89,0,0,0-.58.3.84.84,0,0,0,.06.62c.8.74,2.76.37,3.81.64A13.39,13.39,0,0,1,43.05,84.16a3.64,3.64,0,0,0,.13,1.4,1,1,0,0,0,.69.13,1,1,0,0,0,.45-.78c.12-.76,0-1.54.16-2.3a13.36,13.36,0,0,1,5.23-8.44,13.11,13.11,0,0,1,9.86-2.34A13,13,0,0,1,68,77a13.36,13.36,0,0,1,2.52,7.65c0,.33,0,.82.4.91a4.58,4.58,0,0,0,.74,0c.42-.72.19-2.25.35-3.14a13.18,13.18,0,0,1,9.4-10.36,12.66,12.66,0,0,1,2.81-.44,11.13,11.13,0,0,0,1.16-.05.46.46,0,0,0,.36-.24.85.85,0,0,0,0-.5C85.61,70.62,85.54,70.49,85.23,70.39ZM67.41,65.61a13,13,0,0,1-8.71,4.64,13.14,13.14,0,0,1-9.36-2.72,13.28,13.28,0,0,1-4.92-8.78A13.06,13.06,0,1,1,70.4,56,13,13,0,0,1,67.41,65.61Z"/><path class="cls-5" d="M33.1,42.6l52.69.64A469,469,0,0,1,33.1,42.6Z"/><path class="cls-5" d="M29.82,70.42l55.88.64A527.46,527.46,0,0,1,29.82,70.42Z"/></g></g></g></svg>