<svg xmlns="http://www.w3.org/2000/svg" xmlns:xlink="http://www.w3.org/1999/xlink" viewBox="0 0 113.59 112.51"><defs><style>.cls-1{isolation:isolate;}.cls-2{fill:url(#_92);}.cls-12,.cls-3,.cls-4,.cls-6,.cls-8{opacity:0.5;}.cls-3,.cls-8{mix-blend-mode:multiply;}.cls-3{fill:url(#_27);}.cls-10,.cls-11,.cls-4,.cls-6{mix-blend-mode:color-dodge;}.cls-4{fill:url(#_28);}.cls-5{fill:url(#_29);}.cls-6{fill:url(#_28-2);}.cls-7{fill:url(#linear-gradient);}.cls-8{fill:url(#_27-2);}.cls-9{fill:#fff;}.cls-10,.cls-11{opacity:0.6;}.cls-10{fill:url(#_21);}.cls-11{fill:url(#_26);}.cls-12{fill:url(#_27-3);}.cls-13{fill:url(#linear-gradient-2);}</style><linearGradient id="_92" x1="56.8" y1="114.34" x2="56.8" y2="5.67" gradientUnits="userSpaceOnUse"><stop offset="0" stop-color="#ca6b34"/><stop offset="0.67" stop-color="#ffa933"/><stop offset="1" stop-color="#ffbd2b"/></linearGradient><linearGradient id="_27" x1="57.57" y1="68.38" x2="57.57" y2="118.27" gradientUnits="userSpaceOnUse"><stop offset="0" stop-color="#fff"/><stop offset="0.44" stop-color="#ed8a1d"/><stop offset="1" stop-color="#b41e2d"/></linearGradient><linearGradient id="_28" x1="57.47" y1="1.67" x2="57.47" y2="25.39" gradientUnits="userSpaceOnUse"><stop offset="0" stop-color="#ebbd38"/><stop offset="1"/></linearGradient><linearGradient id="_29" x1="56.8" y1="7.35" x2="56.8" y2="110.54" gradientUnits="userSpaceOnUse"><stop offset="0" stop-color="#ca6b34"/><stop offset="0.17" stop-color="#cc6e34"/><stop offset="0.29" stop-color="#d27733"/><stop offset="0.39" stop-color="#db8631"/><stop offset="0.48" stop-color="#e99b2f"/><stop offset="0.57" stop-color="#fbb72c"/><stop offset="0.59" stop-color="#ffbd2b"/><stop offset="1" stop-color="#ffa933"/></linearGradient><linearGradient id="_28-2" x1="56.8" y1="114.66" x2="56.8" y2="88.1" xlink:href="#_28"/><linearGradient id="linear-gradient" x1="56.8" y1="103.13" x2="56.8" y2="82.47" gradientUnits="userSpaceOnUse"><stop offset="0" stop-color="#fff"/><stop offset="1" stop-color="#fff7c4"/></linearGradient><linearGradient id="_27-2" x1="56.41" y1="42.71" x2="56.41" y2="10.8" xlink:href="#_27"/><radialGradient id="_21" cx="64.48" cy="11.83" r="11.2" gradientTransform="matrix(0.13, 0.97, -0.53, 0.23, 63.85, -58.6)" gradientUnits="userSpaceOnUse"><stop offset="0" stop-color="#f4a940"/><stop offset="0.09" stop-color="#e6a03c"/><stop offset="0.27" stop-color="#c38733"/><stop offset="0.51" stop-color="#895f24"/><stop offset="0.8" stop-color="#39280f"/><stop offset="1"/></radialGradient><radialGradient id="_26" cx="-662.26" cy="-1063.09" r="5.19" gradientTransform="matrix(0, 1.33, -0.88, 0, -892.91, 982.95)" gradientUnits="userSpaceOnUse"><stop offset="0" stop-color="#e75a29"/><stop offset="0.18" stop-color="#ad431f"/><stop offset="0.4" stop-color="#702c14"/><stop offset="0.59" stop-color="#40190b"/><stop offset="0.77" stop-color="#1d0b05"/><stop offset="0.91" stop-color="#080301"/><stop offset="1"/></radialGradient><linearGradient id="_27-3" x1="28.61" y1="56.16" x2="85.44" y2="56.16" xlink:href="#_27"/><linearGradient id="linear-gradient-2" x1="56.05" y1="83.92" x2="56.05" y2="27.07" gradientUnits="userSpaceOnUse"><stop offset="0" stop-color="#ca6b34"/><stop offset="0.13" stop-color="#cc6e34"/><stop offset="0.22" stop-color="#d27733"/><stop offset="0.3" stop-color="#db8631"/><stop offset="0.37" stop-color="#e99b2f"/><stop offset="0.43" stop-color="#fbb72c"/><stop offset="0.44" stop-color="#ffbd2b"/><stop offset="1" stop-color="#ffa933"/></linearGradient></defs><title>Asset 28</title><g class="cls-1"><g id="Layer_2" data-name="Layer 2"><g id="frame"><path class="cls-2" d="M112.94,59.63a57.51,57.51,0,0,0,0-6.76c3.35-6.12-6.87-31.66-13.71-33.54a55.67,55.67,0,0,0-6.35-6.22C91.17,6.85,60.8-.66,59.5.06Q58.15,0,56.8,0T54.1.06C52.79-.66,22.42,6.85,20.71,13.11a55.67,55.67,0,0,0-6.35,6.22C7.52,21.21-2.69,46.75.66,52.87a35.84,35.84,0,0,0,0,6.76c-3.35,6.13,6.86,31.66,13.7,33.54a56.61,56.61,0,0,0,6.35,6.23c1.71,6.26,32.08,13.76,33.39,13,.89,0,1.79.07,2.7.07s1.8,0,2.7-.07c1.3.72,31.67-6.78,33.38-13a56.61,56.61,0,0,0,6.35-6.23C106.07,91.29,116.29,65.76,112.94,59.63ZM99.2,56.25A42.4,42.4,0,1,1,56.8,13.87,42.41,42.41,0,0,1,99.2,56.25Z"/><path class="cls-3" d="M110.31,77h0c-3,7.77-7.5,15.23-11.08,16.21a56.61,56.61,0,0,1-6.35,6.23c-1.71,6.26-32.08,13.76-33.38,13-.9,0-1.8.07-2.7.07s-1.81,0-2.7-.07c-1.3.72-31.68-6.78-33.39-13a56.61,56.61,0,0,1-6.35-6.23c-3-.82-6.66-6.21-9.52-12.51h0C25.56,99.76,70,117.23,110.31,77Z"/><path class="cls-4" d="M99.23,19.33a55.67,55.67,0,0,0-6.35-6.22C91.17,6.85,60.8-.66,59.5.06Q58.15,0,56.8,0T54.1.06C52.8-.66,22.42,6.85,20.71,13.11a55.67,55.67,0,0,0-6.35,6.22C10.12,20.5,4.58,30.76,1.79,39.85c.12.24.26.48.4.73C11.39,20.23,33,10,56.8,10c25.94,0,48.63,12,56.36,35.31h0C111.37,35.42,104.35,20.74,99.23,19.33Z"/><path class="cls-5" d="M56.8,10a46.28,46.28,0,1,0,46.28,46.28A46.29,46.29,0,0,0,56.8,10Zm0,88.68a42.4,42.4,0,1,1,42.4-42.4A42.4,42.4,0,0,1,56.8,98.64Z"/><path class="cls-6" d="M19.54,83.71S31.94,98.64,56.8,98.64,94.05,83.71,94.05,83.71,82,103.19,56.8,103.19,19.54,83.71,19.54,83.71Z"/><path class="cls-7" d="M19.54,83.71a46.3,46.3,0,0,0,74.51,0S82,103.19,56.8,103.19,19.54,83.71,19.54,83.71Z"/><path class="cls-8" d="M101.34,43.65c-1.08-.62-2.76-1.64-5.22-3.29h0a42.42,42.42,0,0,0-79.2,1.44,41.73,41.73,0,0,1-5.45,5.05,46.29,46.29,0,0,1,89.87-3.2Z"/><path class="cls-9" d="M56.8,5.38C55,7.76,69.64,11.64,71.4,10s.1-4.16-3.21-4.58S58.24,3.52,56.8,5.38Z"/><path class="cls-9" d="M53.52,103.08c-1.07-2,10.5-4,12.13-2.53s-1.28,2-1.28,2Z"/><ellipse class="cls-10" cx="65.65" cy="6.88" rx="6.12" ry="11.2" transform="translate(43.87 69.2) rotate(-76.72)"/><ellipse class="cls-11" cx="37.6" cy="103.46" rx="4.55" ry="6.9" transform="translate(-72.03 113.4) rotate(-75.21)"/><path class="cls-12" d="M84.84,69.27c-.85-.28-1.86,0-2.73-.22A13.51,13.51,0,0,1,73,62.31a13.14,13.14,0,0,1-1-9.91c1.3-4.36,3-6,6.36-7.78a11.86,11.86,0,0,1,4.21-1.42A13.59,13.59,0,0,0,84.82,43a.86.86,0,0,0,.62-.52c0-.08,0-.25,0-.31-.56-.52-3.29-.56-4.19-.79a13.13,13.13,0,0,1-9.76-11.67c0-.47.1-1.47-.21-1.8a1.8,1.8,0,0,0-.83-.11c-.2.13-.25.16-.3.41-.19.89,0,1.87-.2,2.77a13.31,13.31,0,0,1-5.66,8.59,13,13,0,0,1-9.67,2A13.1,13.1,0,0,1,44,29c0-.4,0-.95-.3-1.22a5.26,5.26,0,0,0-.89,0c-.18,1.12-.16,2.24-.36,3.36a13.11,13.11,0,0,1-5.25,8.2c-2.54,1.84-4.92,2.28-8,2.5a.68.68,0,0,0-.56.27,1.3,1.3,0,0,0,.12.8,25,25,0,0,0,3.75.52A13.2,13.2,0,0,1,42,52a12.9,12.9,0,0,1-.71,10,13.18,13.18,0,0,1-7.55,6.56c-1.78.58-2.87.36-4.46.7a.91.91,0,0,0-.58.3.84.84,0,0,0,.06.62c.79.74,2.76.37,3.81.64A13.37,13.37,0,0,1,42.65,83a4.07,4.07,0,0,0,.13,1.4,1.06,1.06,0,0,0,.69.13,1,1,0,0,0,.46-.78c.11-.76,0-1.54.16-2.3a13.39,13.39,0,0,1,5.22-8.44,13.15,13.15,0,0,1,9.87-2.34,13,13,0,0,1,8.39,5.21,13.35,13.35,0,0,1,2.51,7.65c0,.33,0,.82.4.91a4.7,4.7,0,0,0,.75,0c.41-.72.19-2.25.35-3.13A13.15,13.15,0,0,1,81,71a12.66,12.66,0,0,1,2.8-.44,11.33,11.33,0,0,0,1.17,0,.46.46,0,0,0,.36-.24.94.94,0,0,0,0-.5A.81.81,0,0,0,84.84,69.27ZM67,64.5A13,13,0,0,1,49,66.41,13.05,13.05,0,1,1,65.39,46.14,13,13,0,0,1,67,64.5Z"/><path class="cls-13" d="M83.86,68.6a24.7,24.7,0,0,0-2.73-.21A13.57,13.57,0,0,1,72,61.65,13.06,13.06,0,0,1,77.32,44a12.25,12.25,0,0,1,4.22-1.42,13.47,13.47,0,0,0,2.3-.21.88.88,0,0,0,.62-.52c0-.09,0-.26,0-.32-.56-.52-3.29-.55-4.19-.79A13.13,13.13,0,0,1,70.47,29c0-.47.1-1.47-.21-1.79a1.57,1.57,0,0,0-.83-.11c-.2.13-.25.15-.3.41-.19.88,0,1.87-.2,2.76a13.31,13.31,0,0,1-5.66,8.6,13,13,0,0,1-9.67,2A13.1,13.1,0,0,1,43,28.34c0-.41,0-.95-.3-1.22a4.39,4.39,0,0,0-.89,0c-.18,1.11-.15,2.24-.35,3.35a13.17,13.17,0,0,1-5.26,8.2c-2.54,1.84-4.92,2.28-8,2.51a.7.7,0,0,0-.56.26,1.33,1.33,0,0,0,.12.81,27.82,27.82,0,0,0,3.75.52A13.17,13.17,0,0,1,41,51.35a12.9,12.9,0,0,1-.71,10,13.14,13.14,0,0,1-7.55,6.56c-1.78.59-2.87.37-4.46.7a.91.91,0,0,0-.58.3.83.83,0,0,0,.06.62c.79.74,2.76.37,3.81.64A13.39,13.39,0,0,1,41.67,82.37a4.15,4.15,0,0,0,.13,1.41,1.12,1.12,0,0,0,.69.12,1,1,0,0,0,.46-.78c.12-.76,0-1.53.16-2.3a13.39,13.39,0,0,1,5.22-8.44,13,13,0,0,1,18.26,2.87,13.41,13.41,0,0,1,2.52,7.65c0,.34,0,.82.4.91a3.64,3.64,0,0,0,.74,0c.41-.73.19-2.26.35-3.14A13.18,13.18,0,0,1,80,70.33a14,14,0,0,1,2.8-.44,11.34,11.34,0,0,0,1.17,0,.48.48,0,0,0,.36-.24,1,1,0,0,0,0-.5C84.24,68.84,84.16,68.7,83.86,68.6ZM66,63.83A13,13,0,0,1,48,65.74,13.05,13.05,0,1,1,64.41,45.47,13,13,0,0,1,66,63.83Z"/><path class="cls-9" d="M57.44,41.3c-.56.72,3.89,1.9,4.43,1.39s0-1.26-1-1.39S57.87,40.73,57.44,41.3Z"/></g></g></g></svg>