<svg xmlns="http://www.w3.org/2000/svg" xmlns:xlink="http://www.w3.org/1999/xlink" viewBox="0 0 166.44 176.84"><defs><style>.cls-1{isolation:isolate;}.cls-2{fill:url(#_92);}.cls-10,.cls-101,.cls-102,.cls-106,.cls-109,.cls-112,.cls-113,.cls-116,.cls-117,.cls-12,.cls-120,.cls-121,.cls-124,.cls-125,.cls-128,.cls-129,.cls-13,.cls-132,.cls-133,.cls-134,.cls-135,.cls-136,.cls-138,.cls-140,.cls-144,.cls-145,.cls-146,.cls-147,.cls-150,.cls-155,.cls-159,.cls-160,.cls-161,.cls-166,.cls-17,.cls-170,.cls-171,.cls-172,.cls-174,.cls-185,.cls-187,.cls-19,.cls-198,.cls-20,.cls-200,.cls-214,.cls-26,.cls-28,.cls-3,.cls-30,.cls-31,.cls-32,.cls-33,.cls-35,.cls-37,.cls-38,.cls-39,.cls-40,.cls-42,.cls-44,.cls-45,.cls-47,.cls-49,.cls-5,.cls-50,.cls-51,.cls-52,.cls-54,.cls-56,.cls-57,.cls-58,.cls-59,.cls-6,.cls-61,.cls-63,.cls-64,.cls-66,.cls-68,.cls-69,.cls-70,.cls-71,.cls-73,.cls-75,.cls-76,.cls-77,.cls-78,.cls-80,.cls-82,.cls-83,.cls-85,.cls-87,.cls-88,.cls-89,.cls-90,.cls-92,.cls-94,.cls-95,.cls-96,.cls-97,.cls-99{opacity:0.5;}.cls-10,.cls-106,.cls-109,.cls-112,.cls-116,.cls-12,.cls-120,.cls-124,.cls-128,.cls-132,.cls-134,.cls-135,.cls-140,.cls-144,.cls-147,.cls-150,.cls-152,.cls-153,.cls-155,.cls-161,.cls-163,.cls-164,.cls-166,.cls-17,.cls-172,.cls-174,.cls-185,.cls-187,.cls-19,.cls-198,.cls-200,.cls-26,.cls-28,.cls-3,.cls-32,.cls-33,.cls-35,.cls-39,.cls-40,.cls-42,.cls-47,.cls-5,.cls-51,.cls-52,.cls-54,.cls-58,.cls-59,.cls-61,.cls-66,.cls-70,.cls-71,.cls-73,.cls-77,.cls-78,.cls-80,.cls-85,.cls-89,.cls-90,.cls-92,.cls-96,.cls-97,.cls-99{mix-blend-mode:multiply;}.cls-3{fill:url(#_27);}.cls-4{fill:url(#_92-2);}.cls-5{fill:url(#_27-2);}.cls-101,.cls-102,.cls-113,.cls-117,.cls-121,.cls-125,.cls-129,.cls-13,.cls-133,.cls-136,.cls-138,.cls-142,.cls-143,.cls-145,.cls-146,.cls-15,.cls-156,.cls-159,.cls-160,.cls-167,.cls-170,.cls-171,.cls-20,.cls-22,.cls-30,.cls-31,.cls-37,.cls-38,.cls-44,.cls-45,.cls-49,.cls-50,.cls-56,.cls-57,.cls-6,.cls-63,.cls-64,.cls-68,.cls-69,.cls-75,.cls-76,.cls-8,.cls-82,.cls-83,.cls-87,.cls-88,.cls-94,.cls-95{mix-blend-mode:color-dodge;}.cls-6{fill:url(#_28);}.cls-7{fill:url(#linear-gradient);}.cls-142,.cls-143,.cls-15,.cls-22,.cls-8{opacity:0.6;}.cls-8{fill:url(#_21);}.cls-9{fill:url(#_92-3);}.cls-10{fill:url(#_27-3);}.cls-11{fill:url(#_92-4);}.cls-12{fill:url(#_27-4);}.cls-13{fill:url(#_28-2);}.cls-14{fill:url(#linear-gradient-2);}.cls-15{fill:url(#_21-2);}.cls-16{fill:url(#_92-5);}.cls-17{fill:url(#_27-5);}.cls-18{fill:url(#_92-6);}.cls-19{fill:url(#_27-6);}.cls-20{fill:url(#_28-3);}.cls-21{fill:url(#linear-gradient-3);}.cls-22{fill:url(#_21-3);}.cls-23{fill:url(#_92-7);}.cls-24{fill:#ffba2c;}.cls-25{fill:url(#_92-8);}.cls-26{fill:url(#_27-7);}.cls-27{fill:url(#_92-9);}.cls-28{fill:url(#_27-8);}.cls-29{fill:url(#_79);}.cls-30{fill:url(#_28-4);}.cls-31{fill:url(#_28-5);}.cls-32{fill:url(#_27-9);}.cls-33{fill:url(#_27-10);}.cls-34{fill:url(#_92-10);}.cls-35{fill:url(#_27-11);}.cls-36{fill:url(#_79-2);}.cls-37{fill:url(#_28-6);}.cls-38{fill:url(#_28-7);}.cls-39{fill:url(#_27-12);}.cls-40{fill:url(#_27-13);}.cls-41{fill:url(#_92-11);}.cls-42{fill:url(#_27-14);}.cls-43{fill:url(#_79-3);}.cls-44{fill:url(#_28-8);}.cls-45{fill:url(#_28-9);}.cls-46{fill:url(#_92-12);}.cls-47{fill:url(#_27-15);}.cls-48{fill:url(#_79-4);}.cls-49{fill:url(#_28-10);}.cls-50{fill:url(#_28-11);}.cls-51{fill:url(#_27-16);}.cls-52{fill:url(#_27-17);}.cls-53{fill:url(#_92-13);}.cls-54{fill:url(#_27-18);}.cls-55{fill:url(#_79-5);}.cls-56{fill:url(#_28-12);}.cls-57{fill:url(#_28-13);}.cls-58{fill:url(#_27-19);}.cls-59{fill:url(#_27-20);}.cls-60{fill:url(#_92-14);}.cls-61{fill:url(#_27-21);}.cls-62{fill:url(#_79-6);}.cls-63{fill:url(#_28-14);}.cls-64{fill:url(#_28-15);}.cls-65{fill:url(#_92-15);}.cls-66{fill:url(#_27-22);}.cls-67{fill:url(#_79-7);}.cls-68{fill:url(#_28-16);}.cls-69{fill:url(#_28-17);}.cls-70{fill:url(#_27-23);}.cls-71{fill:url(#_27-24);}.cls-72{fill:url(#_92-16);}.cls-73{fill:url(#_27-25);}.cls-74{fill:url(#_79-8);}.cls-75{fill:url(#_28-18);}.cls-76{fill:url(#_28-19);}.cls-77{fill:url(#_27-26);}.cls-78{fill:url(#_27-27);}.cls-79{fill:url(#_92-17);}.cls-80{fill:url(#_27-28);}.cls-81{fill:url(#_79-9);}.cls-82{fill:url(#_28-20);}.cls-83{fill:url(#_28-21);}.cls-84{fill:url(#_92-18);}.cls-85{fill:url(#_27-29);}.cls-86{fill:url(#_79-10);}.cls-87{fill:url(#_28-22);}.cls-88{fill:url(#_28-23);}.cls-89{fill:url(#_27-30);}.cls-90{fill:url(#_27-31);}.cls-91{fill:url(#_92-19);}.cls-92{fill:url(#_27-32);}.cls-93{fill:url(#_79-11);}.cls-94{fill:url(#_28-24);}.cls-95{fill:url(#_28-25);}.cls-96{fill:url(#_27-33);}.cls-97{fill:url(#_27-34);}.cls-98{fill:url(#_92-20);}.cls-99{fill:url(#_27-35);}.cls-100{fill:url(#_79-12);}.cls-101{fill:url(#_28-26);}.cls-102{fill:url(#_28-27);}.cls-103{fill:url(#_92-21);}.cls-104{fill:url(#_29);}.cls-105{fill:url(#_19);}.cls-106{fill:url(#_27-36);}.cls-107{fill:url(#_29-2);}.cls-108{fill:url(#_19-2);}.cls-109{fill:url(#_27-37);}.cls-110{fill:url(#_29-3);}.cls-111{fill:url(#_92-22);}.cls-112{fill:url(#_27-38);}.cls-113{fill:url(#_28-28);}.cls-114{fill:url(#_29-4);}.cls-115{fill:url(#_92-23);}.cls-116{fill:url(#_27-39);}.cls-117{fill:url(#_28-29);}.cls-118{fill:url(#_29-5);}.cls-119{fill:url(#_92-24);}.cls-120{fill:url(#_27-40);}.cls-121{fill:url(#_28-30);}.cls-122{fill:url(#_29-6);}.cls-123{fill:url(#_92-25);}.cls-124{fill:url(#_27-41);}.cls-125{fill:url(#_28-31);}.cls-126{fill:url(#_29-7);}.cls-127{fill:url(#_92-26);}.cls-128{fill:url(#_27-42);}.cls-129{fill:url(#_28-32);}.cls-130{fill:url(#_29-8);}.cls-131{fill:url(#_92-27);}.cls-132{fill:url(#_27-43);}.cls-133{fill:url(#_28-33);}.cls-134{fill:url(#_27-44);}.cls-135{fill:url(#_27-45);}.cls-136{fill:url(#_28-34);}.cls-137{fill:url(#_29-9);}.cls-138{fill:url(#_28-35);}.cls-139{fill:url(#linear-gradient-4);}.cls-140{fill:url(#_27-46);}.cls-141{fill:#fff;}.cls-142{fill:url(#_21-4);}.cls-143{fill:url(#_26);}.cls-144{fill:url(#_27-47);}.cls-145{fill:url(#_28-36);}.cls-146{fill:url(#_28-37);}.cls-147{fill:url(#_27-48);}.cls-148{fill:url(#_18);}.cls-149{fill:url(#_18-2);}.cls-150{fill:url(#_27-49);}.cls-151{fill:url(#_941);}.cls-152,.cls-163{opacity:0.7;}.cls-152{fill:url(#_20);}.cls-153,.cls-164{opacity:0.8;}.cls-153{fill:url(#_963);}.cls-154{fill:url(#_508);}.cls-155{fill:url(#_449);}.cls-156,.cls-167{opacity:0.3;}.cls-156{fill:url(#_445);}.cls-157{fill:url(#linear-gradient-5);}.cls-158{fill:url(#_18-3);}.cls-159{fill:url(#_6);}.cls-160{fill:url(#_479);}.cls-161{fill:url(#_27-50);}.cls-162{fill:url(#_941-2);}.cls-163{fill:url(#_20-2);}.cls-164{fill:url(#_963-2);}.cls-165{fill:url(#_508-2);}.cls-166{fill:url(#_449-2);}.cls-167{fill:url(#_445-2);}.cls-168{fill:url(#linear-gradient-6);}.cls-169{fill:url(#_18-4);}.cls-170{fill:url(#_6-2);}.cls-171{fill:url(#_479-2);}.cls-172{fill:url(#_27-51);}.cls-173{fill:url(#_264);}.cls-174{fill:url(#_27-52);}.cls-175{fill:url(#_92-28);}.cls-176{fill:url(#_180);}.cls-177{fill:url(#_18-5);}.cls-178{fill:url(#_499);}.cls-179{fill:url(#_490);}.cls-180{fill:url(#_490-2);}.cls-181{fill:url(#_490-3);}.cls-182{fill:url(#_490-4);}.cls-183{fill:url(#linear-gradient-7);}.cls-184{fill:url(#linear-gradient-8);}.cls-185{fill:url(#_27-53);}.cls-186{fill:url(#_264-2);}.cls-187{fill:url(#_27-54);}.cls-188{fill:url(#_92-29);}.cls-189{fill:url(#_180-2);}.cls-190{fill:url(#_18-6);}.cls-191{fill:url(#_499-2);}.cls-192{fill:url(#_490-5);}.cls-193{fill:url(#_490-6);}.cls-194{fill:url(#_490-7);}.cls-195{fill:url(#_490-8);}.cls-196{fill:url(#linear-gradient-9);}.cls-197{fill:url(#linear-gradient-10);}.cls-198{fill:url(#_27-55);}.cls-199{fill:url(#_264-3);}.cls-200{fill:url(#_27-56);}.cls-201{fill:url(#_92-30);}.cls-202{fill:url(#_180-3);}.cls-203{fill:url(#_18-7);}.cls-204{fill:url(#_499-3);}.cls-205{fill:url(#_490-9);}.cls-206{fill:url(#_490-10);}.cls-207{fill:url(#_490-11);}.cls-208{fill:url(#_490-12);}.cls-209{fill:url(#linear-gradient-11);}.cls-210{fill:url(#linear-gradient-12);}.cls-211{fill:url(#_92-31);}.cls-212{fill:url(#_92-32);}.cls-213{fill:url(#_92-33);}.cls-214{fill:url(#_27-57);}.cls-215{fill:url(#linear-gradient-13);}</style><linearGradient id="_92" x1="83.17" y1="67.38" x2="83.17" y2="9.01" gradientUnits="userSpaceOnUse"><stop offset="0" stop-color="#ca6b34"/><stop offset="0.67" stop-color="#ffa933"/><stop offset="1" stop-color="#ffbd2b"/></linearGradient><linearGradient id="_27" x1="83.17" y1="53.16" x2="83.17" y2="23.98" gradientUnits="userSpaceOnUse"><stop offset="0" stop-color="#fff"/><stop offset="0.44" stop-color="#ed8a1d"/><stop offset="1" stop-color="#b41e2d"/></linearGradient><linearGradient id="_92-2" x1="83.13" y1="-2.04" x2="83.13" y2="48.23" xlink:href="#_92"/><linearGradient id="_27-2" x1="82.89" y1="49.01" x2="82.89" y2="19.93" xlink:href="#_27"/><linearGradient id="_28" x1="87.23" y1="13.86" x2="85.39" y2="24.29" gradientUnits="userSpaceOnUse"><stop offset="0" stop-color="#ebbd38"/><stop offset="1"/></linearGradient><linearGradient id="linear-gradient" x1="93.37" y1="26.4" x2="93.37" y2="15.42" gradientUnits="userSpaceOnUse"><stop offset="0" stop-color="#fff"/><stop offset="1" stop-color="#fff7c4"/></linearGradient><radialGradient id="_21" cx="85.91" cy="-819.74" r="15.39" gradientTransform="translate(-559.3 556.01) rotate(45) scale(1.01 1.01)" gradientUnits="userSpaceOnUse"><stop offset="0" stop-color="#f4a940"/><stop offset="0.09" stop-color="#e6a03c"/><stop offset="0.27" stop-color="#c38733"/><stop offset="0.51" stop-color="#895f24"/><stop offset="0.8" stop-color="#39280f"/><stop offset="1"/></radialGradient><linearGradient id="_92-3" x1="-8956.14" y1="-1319.94" x2="-8956.14" y2="-1378.32" gradientTransform="translate(1375.52 -8861.37) rotate(-90)" xlink:href="#_92"/><linearGradient id="_27-3" x1="-8956.14" y1="-1334.16" x2="-8956.14" y2="-1363.34" gradientTransform="translate(1375.52 -8861.37) rotate(-90)" xlink:href="#_27"/><linearGradient id="_92-4" x1="-8956.17" y1="-1389.36" x2="-8956.17" y2="-1339.1" gradientTransform="translate(1375.52 -8861.37) rotate(-90)" xlink:href="#_92"/><linearGradient id="_27-4" x1="-8956.42" y1="-1338.39" x2="-8956.42" y2="-1367.47" gradientTransform="translate(1375.52 -8861.37) rotate(-90)" xlink:href="#_27"/><linearGradient id="_28-2" x1="-8952.08" y1="-1373.54" x2="-8953.92" y2="-1363.11" gradientTransform="translate(1375.52 -8861.37) rotate(-90)" xlink:href="#_28"/><linearGradient id="linear-gradient-2" x1="-8945.94" y1="-1361" x2="-8945.94" y2="-1371.98" gradientTransform="translate(1375.52 -8861.37) rotate(-90)" xlink:href="#linear-gradient"/><radialGradient id="_21-2" cx="-8953.39" cy="-1970.45" r="15.39" gradientTransform="translate(2231.81 -8923.93) rotate(-90) scale(1.01 1.12)" xlink:href="#_21"/><linearGradient id="_92-5" x1="-8956.14" y1="-9751.99" x2="-8956.14" y2="-9810.36" gradientTransform="matrix(0, -1, -1, 0, -9641.3, -8861.37)" xlink:href="#_92"/><linearGradient id="_27-5" x1="-8956.14" y1="-9766.21" x2="-8956.14" y2="-9795.38" gradientTransform="matrix(0, -1, -1, 0, -9641.3, -8861.37)" xlink:href="#_27"/><linearGradient id="_92-6" x1="-8956.17" y1="-9822.4" x2="-8956.17" y2="-9772.14" gradientTransform="matrix(0, -1, -1, 0, -9641.3, -8861.37)" xlink:href="#_92"/><linearGradient id="_27-6" x1="-8956.42" y1="-9770.62" x2="-8956.42" y2="-9799.7" gradientTransform="matrix(0, -1, -1, 0, -9641.3, -8861.37)" xlink:href="#_27"/><linearGradient id="_28-3" x1="-8952.08" y1="-9805.77" x2="-8953.92" y2="-9795.34" gradientTransform="matrix(0, -1, -1, 0, -9641.3, -8861.37)" xlink:href="#_28"/><linearGradient id="linear-gradient-3" x1="-8945.94" y1="-9793.23" x2="-8945.94" y2="-9804.21" gradientTransform="matrix(0, -1, -1, 0, -9641.3, -8861.37)" xlink:href="#linear-gradient"/><radialGradient id="_21-3" cx="-8953.39" cy="-8964.08" r="15.39" gradientTransform="matrix(0, -1.01, -1.1, 0, -9728.37, -8923.93)" xlink:href="#_21"/><linearGradient id="_92-7" x1="83.17" y1="173.76" x2="83.17" y2="142.77" xlink:href="#_92"/><linearGradient id="_92-8" x1="83.13" y1="154.6" x2="83.13" y2="178.84" xlink:href="#_92"/><linearGradient id="_27-7" x1="82.89" y1="170.87" x2="82.89" y2="152.12" xlink:href="#_27"/><linearGradient id="_92-9" x1="37.07" y1="37.01" x2="54.22" y2="37.01" xlink:href="#_92"/><linearGradient id="_27-8" x1="-9465.38" y1="-1427.08" x2="-9452.84" y2="-1402.65" gradientTransform="matrix(-0.96, -0.29, -0.29, 0.96, -9408.43, -1398.6)" xlink:href="#_27"/><linearGradient id="_79" x1="-9457.86" y1="-1414.66" x2="-9461.63" y2="-1400.75" gradientTransform="matrix(-0.96, -0.29, -0.29, 0.96, -9408.43, -1398.6)" gradientUnits="userSpaceOnUse"><stop offset="0" stop-color="#f27a13"/><stop offset="1" stop-color="#b41e2d"/></linearGradient><linearGradient id="_28-4" x1="-10652.09" y1="-4335.74" x2="-10662.2" y2="-4327.79" gradientTransform="matrix(-0.67, -0.74, -0.74, 0.67, -10332.28, -4919.7)" xlink:href="#_28"/><linearGradient id="_28-5" x1="-10652.59" y1="-4345.49" x2="-10642.44" y2="-4345.49" gradientTransform="matrix(-0.67, -0.74, -0.74, 0.67, -10332.28, -4919.7)" xlink:href="#_28"/><linearGradient id="_27-9" x1="-9461.35" y1="-1404.82" x2="-9449.42" y2="-1404.82" gradientTransform="matrix(-0.96, -0.29, -0.29, 0.96, -9408.43, -1398.6)" xlink:href="#_27"/><linearGradient id="_27-10" x1="-9461.7" y1="-1416.73" x2="-9453.68" y2="-1405.91" gradientTransform="matrix(-0.96, -0.29, -0.29, 0.96, -9408.43, -1398.6)" xlink:href="#_27"/><linearGradient id="_92-10" x1="12.94" y1="56.28" x2="43.13" y2="56.28" xlink:href="#_92"/><linearGradient id="_27-11" x1="-6443.87" y1="1017.06" x2="-6433.78" y2="1036.73" gradientTransform="matrix(-0.95, 0.3, 0.3, 0.95, -6418.83, 1025.95)" xlink:href="#_27"/><linearGradient id="_79-2" x1="-4006.96" y1="964.87" x2="-4018.43" y2="973.88" gradientTransform="matrix(-0.74, 0.67, 0.67, 0.74, -3598.51, 2013.98)" xlink:href="#_79"/><linearGradient id="_28-6" x1="-4007.47" y1="967.09" x2="-4017.55" y2="975.01" gradientTransform="matrix(-0.74, 0.67, 0.67, 0.74, -3598.51, 2013.98)" xlink:href="#_28"/><linearGradient id="_28-7" x1="-6437.16" y1="1022.58" x2="-6426.38" y2="1022.58" gradientTransform="matrix(-0.95, 0.3, 0.3, 0.95, -6418.83, 1025.95)" xlink:href="#_28"/><linearGradient id="_27-12" x1="-4016.93" y1="973.92" x2="-4001.24" y2="973.92" gradientTransform="matrix(-0.74, 0.67, 0.67, 0.74, -3598.51, 2013.98)" xlink:href="#_27"/><linearGradient id="_27-13" x1="-6441.58" y1="1029.73" x2="-6443.45" y2="1026.05" gradientTransform="matrix(-0.95, 0.3, 0.3, 0.95, -6418.83, 1025.95)" xlink:href="#_27"/><linearGradient id="_92-11" x1="39.18" y1="56.64" x2="28.12" y2="35.15" xlink:href="#_92"/><linearGradient id="_27-14" x1="-1533.51" y1="197.02" x2="-1530.86" y2="215.58" gradientTransform="matrix(1, -0.06, 0.06, 1, 1551.36, -244.82)" xlink:href="#_27"/><linearGradient id="_79-3" x1="-8469.12" y1="-230.87" x2="-8481.87" y2="-220.85" gradientTransform="matrix(-1, -0.07, -0.07, 1, -8432.72, -309.45)" xlink:href="#_79"/><linearGradient id="_28-8" x1="-8469.88" y1="-229.02" x2="-8481.26" y2="-220.07" gradientTransform="matrix(-1, -0.07, -0.07, 1, -8432.72, -309.45)" xlink:href="#_28"/><linearGradient id="_28-9" x1="-8471.59" y1="-239.89" x2="-8459.04" y2="-239.89" gradientTransform="matrix(-1, -0.07, -0.07, 1, -8432.72, -309.45)" xlink:href="#_28"/><linearGradient id="_92-12" x1="112.04" y1="37.01" x2="129.18" y2="37.01" xlink:href="#_92"/><linearGradient id="_27-15" x1="850.22" y1="1753.09" x2="862.75" y2="1777.53" gradientTransform="translate(-1219.77 -1398.6) rotate(-17.13)" xlink:href="#_27"/><linearGradient id="_79-4" x1="857.91" y1="1765.57" x2="854.14" y2="1779.48" gradientTransform="translate(-1219.77 -1398.6) rotate(-17.13)" xlink:href="#_79"/><linearGradient id="_28-10" x1="-3385.56" y1="3646.43" x2="-3395.67" y2="3654.38" gradientTransform="translate(-295.93 -4919.7) rotate(-47.69)" xlink:href="#_28"/><linearGradient id="_28-11" x1="-3386.05" y1="3636.68" x2="-3375.91" y2="3636.68" gradientTransform="translate(-295.93 -4919.7) rotate(-47.69)" xlink:href="#_28"/><linearGradient id="_27-16" x1="854.42" y1="1775.41" x2="866.35" y2="1775.41" gradientTransform="translate(-1219.77 -1398.6) rotate(-17.13)" xlink:href="#_27"/><linearGradient id="_27-17" x1="854.07" y1="1763.5" x2="862.09" y2="1774.32" gradientTransform="translate(-1219.77 -1398.6) rotate(-17.13)" xlink:href="#_27"/><linearGradient id="_92-13" x1="123.13" y1="56.28" x2="153.5" y2="56.28" xlink:href="#_92"/><linearGradient id="_27-18" x1="3843.73" y1="-2252.71" x2="3853.82" y2="-2233.04" gradientTransform="matrix(0.95, 0.3, -0.3, 0.95, -4209.37, 1025.95)" xlink:href="#_27"/><linearGradient id="_79-5" x1="4025.95" y1="-6245.54" x2="4014.48" y2="-6236.52" gradientTransform="translate(-7029.7 2013.98) rotate(41.91)" xlink:href="#_79"/><linearGradient id="_28-12" x1="4025.44" y1="-6243.32" x2="4015.36" y2="-6235.4" gradientTransform="translate(-7029.7 2013.98) rotate(41.91)" xlink:href="#_28"/><linearGradient id="_28-13" x1="3850.57" y1="-2247.25" x2="3861.36" y2="-2247.25" gradientTransform="matrix(0.95, 0.3, -0.3, 0.95, -4209.37, 1025.95)" xlink:href="#_28"/><linearGradient id="_27-19" x1="4015.98" y1="-6236.49" x2="4031.67" y2="-6236.49" gradientTransform="translate(-7029.7 2013.98) rotate(41.91)" xlink:href="#_27"/><linearGradient id="_27-20" x1="3846.07" y1="-2240.06" x2="3844.2" y2="-2243.75" gradientTransform="matrix(0.95, 0.3, -0.3, 0.95, -4209.37, 1025.95)" xlink:href="#_27"/><linearGradient id="_92-14" x1="136.04" y1="63.86" x2="134.46" y2="41.74" xlink:href="#_92"/><linearGradient id="_27-21" x1="-12310.96" y1="-403.1" x2="-12308.31" y2="-384.54" gradientTransform="matrix(-1, -0.06, -0.06, 1, -12179.57, -244.82)" xlink:href="#_27"/><linearGradient id="_79-6" x1="2300.42" y1="510.78" x2="2287.67" y2="520.8" gradientTransform="translate(-2195.48 -309.45) rotate(-3.94)" xlink:href="#_79"/><linearGradient id="_28-14" x1="2299.66" y1="512.63" x2="2288.28" y2="521.58" gradientTransform="translate(-2195.48 -309.45) rotate(-3.94)" xlink:href="#_28"/><linearGradient id="_28-15" x1="2297.95" y1="501.76" x2="2310.5" y2="501.76" gradientTransform="translate(-2195.48 -309.45) rotate(-3.94)" xlink:href="#_28"/><linearGradient id="_92-15" x1="37.07" y1="151.85" x2="54.22" y2="151.85" xlink:href="#_92"/><linearGradient id="_27-22" x1="-6430.48" y1="-11271.45" x2="-6417.94" y2="-11247.02" gradientTransform="translate(-9408.43 -8713.9) rotate(162.87)" xlink:href="#_27"/><linearGradient id="_79-7" x1="-6423.08" y1="-11258.64" x2="-6426.85" y2="-11244.73" gradientTransform="translate(-9408.43 -8713.9) rotate(162.87)" xlink:href="#_79"/><linearGradient id="_28-16" x1="-3034.98" y1="-11269.94" x2="-3045.09" y2="-11261.99" gradientTransform="translate(-10332.28 -5192.79) rotate(132.31)" xlink:href="#_28"/><linearGradient id="_28-17" x1="-3035.47" y1="-11279.69" x2="-3025.33" y2="-11279.69" gradientTransform="translate(-10332.28 -5192.79) rotate(132.31)" xlink:href="#_28"/><linearGradient id="_27-23" x1="-6426.57" y1="-11248.81" x2="-6414.64" y2="-11248.81" gradientTransform="translate(-9408.43 -8713.9) rotate(162.87)" xlink:href="#_27"/><linearGradient id="_27-24" x1="-6426.92" y1="-11260.71" x2="-6418.9" y2="-11249.89" gradientTransform="translate(-9408.43 -8713.9) rotate(162.87)" xlink:href="#_27"/><linearGradient id="_92-16" x1="12.94" y1="132.18" x2="43.13" y2="132.18" xlink:href="#_92"/><linearGradient id="_27-25" x1="-9564.16" y1="-8800.17" x2="-9554.07" y2="-8780.5" gradientTransform="matrix(-0.95, -0.3, 0.3, -0.95, -6418.83, -11138.44)" xlink:href="#_27"/><linearGradient id="_79-8" x1="-10887.61" y1="-6700.66" x2="-10899.08" y2="-6691.65" gradientTransform="translate(-3598.51 -12126.48) rotate(-138.09)" xlink:href="#_79"/><linearGradient id="_28-18" x1="-10888.11" y1="-6698.44" x2="-10898.19" y2="-6690.52" gradientTransform="translate(-3598.51 -12126.48) rotate(-138.09)" xlink:href="#_28"/><linearGradient id="_28-19" x1="-9557.46" y1="-8794.65" x2="-9546.67" y2="-8794.65" gradientTransform="matrix(-0.95, -0.3, 0.3, -0.95, -6418.83, -11138.44)" xlink:href="#_28"/><linearGradient id="_27-26" x1="-10897.58" y1="-6691.61" x2="-10881.88" y2="-6691.61" gradientTransform="translate(-3598.51 -12126.48) rotate(-138.09)" xlink:href="#_27"/><linearGradient id="_27-27" x1="-9561.87" y1="-8787.5" x2="-9563.75" y2="-8791.18" gradientTransform="matrix(-0.95, -0.3, 0.3, -0.95, -6418.83, -11138.44)" xlink:href="#_27"/><linearGradient id="_92-17" x1="39.68" y1="151.57" x2="23.24" y2="141.3" xlink:href="#_92"/><linearGradient id="_27-28" x1="-960.83" y1="-10087.52" x2="-958.18" y2="-10068.96" gradientTransform="matrix(1, 0.06, 0.06, -1, 1551.36, -9867.67)" xlink:href="#_27"/><linearGradient id="_79-9" x1="-7761.39" y1="-10507.87" x2="-7774.14" y2="-10497.85" gradientTransform="translate(-8432.72 -9803.05) rotate(176.06)" xlink:href="#_79"/><linearGradient id="_28-20" x1="-7762.15" y1="-10506.02" x2="-7773.53" y2="-10497.07" gradientTransform="translate(-8432.72 -9803.05) rotate(176.06)" xlink:href="#_28"/><linearGradient id="_28-21" x1="-7763.86" y1="-10516.89" x2="-7751.31" y2="-10516.89" gradientTransform="translate(-8432.72 -9803.05) rotate(176.06)" xlink:href="#_28"/><linearGradient id="_92-18" x1="112.04" y1="151.85" x2="129.18" y2="151.85" xlink:href="#_92"/><linearGradient id="_27-29" x1="3885.12" y1="-8091.28" x2="3897.65" y2="-8066.85" gradientTransform="matrix(0.96, 0.29, 0.29, -0.96, -1219.77, -8713.9)" xlink:href="#_27"/><linearGradient id="_79-10" x1="3892.69" y1="-8078.41" x2="3888.92" y2="-8064.5" gradientTransform="matrix(0.96, 0.29, 0.29, -0.96, -1219.77, -8713.9)" xlink:href="#_79"/><linearGradient id="_28-22" x1="4231.56" y1="-3287.77" x2="4221.44" y2="-3279.82" gradientTransform="matrix(0.67, 0.74, 0.74, -0.67, -295.93, -5192.79)" xlink:href="#_28"/><linearGradient id="_28-23" x1="4231.06" y1="-3297.52" x2="4241.21" y2="-3297.52" gradientTransform="matrix(0.67, 0.74, 0.74, -0.67, -295.93, -5192.79)" xlink:href="#_28"/><linearGradient id="_27-30" x1="3889.2" y1="-8068.58" x2="3901.13" y2="-8068.58" gradientTransform="matrix(0.96, 0.29, 0.29, -0.96, -1219.77, -8713.9)" xlink:href="#_27"/><linearGradient id="_27-31" x1="3888.85" y1="-8080.48" x2="3896.87" y2="-8069.66" gradientTransform="matrix(0.96, 0.29, 0.29, -0.96, -1219.77, -8713.9)" xlink:href="#_27"/><linearGradient id="_92-19" x1="123.13" y1="132.18" x2="153.5" y2="132.18" xlink:href="#_92"/><linearGradient id="_27-32" x1="723.44" y1="-12069.94" x2="733.53" y2="-12050.27" gradientTransform="matrix(0.95, -0.3, -0.3, -0.95, -4209.37, -11138.44)" xlink:href="#_27"/><linearGradient id="_79-11" x1="-2854.69" y1="-13911.07" x2="-2866.16" y2="-13902.06" gradientTransform="matrix(0.74, -0.67, -0.67, -0.74, -7029.7, -12126.48)" xlink:href="#_79"/><linearGradient id="_28-24" x1="-2855.2" y1="-13908.85" x2="-2865.28" y2="-13900.93" gradientTransform="matrix(0.74, -0.67, -0.67, -0.74, -7029.7, -12126.48)" xlink:href="#_28"/><linearGradient id="_28-25" x1="730.28" y1="-12064.48" x2="741.07" y2="-12064.48" gradientTransform="matrix(0.95, -0.3, -0.3, -0.95, -4209.37, -11138.44)" xlink:href="#_28"/><linearGradient id="_27-33" x1="-2864.66" y1="-13902.02" x2="-2848.97" y2="-13902.02" gradientTransform="matrix(0.74, -0.67, -0.67, -0.74, -7029.7, -12126.48)" xlink:href="#_27"/><linearGradient id="_27-34" x1="725.78" y1="-12057.29" x2="723.9" y2="-12060.98" gradientTransform="matrix(0.95, -0.3, -0.3, -0.95, -4209.37, -11138.44)" xlink:href="#_27"/><linearGradient id="_92-20" x1="129.85" y1="154.82" x2="140.44" y2="137.12" xlink:href="#_92"/><linearGradient id="_27-35" x1="-11738.28" y1="-10687.65" x2="-11735.63" y2="-10669.09" gradientTransform="matrix(-1, 0.06, -0.06, -1, -12179.57, -9867.67)" xlink:href="#_27"/><linearGradient id="_79-12" x1="3008.15" y1="-9766.23" x2="2995.4" y2="-9756.21" gradientTransform="matrix(1, 0.07, 0.07, -1, -2195.48, -9803.05)" xlink:href="#_79"/><linearGradient id="_28-26" x1="3007.39" y1="-9764.37" x2="2996.01" y2="-9755.43" gradientTransform="matrix(1, 0.07, 0.07, -1, -2195.48, -9803.05)" xlink:href="#_28"/><linearGradient id="_28-27" x1="3005.68" y1="-9775.24" x2="3018.23" y2="-9775.24" gradientTransform="matrix(1, 0.07, 0.07, -1, -2195.48, -9803.05)" xlink:href="#_28"/><linearGradient id="_92-21" x1="83.17" y1="166.28" x2="83.17" y2="31.73" xlink:href="#_92"/><linearGradient id="_29" x1="64.83" y1="141.88" x2="57.45" y2="158.52" gradientUnits="userSpaceOnUse"><stop offset="0" stop-color="#ca6b34"/><stop offset="0.17" stop-color="#cc6e34"/><stop offset="0.29" stop-color="#d27733"/><stop offset="0.39" stop-color="#db8631"/><stop offset="0.48" stop-color="#e99b2f"/><stop offset="0.57" stop-color="#fbb72c"/><stop offset="0.59" stop-color="#ffbd2b"/><stop offset="1" stop-color="#ffa933"/></linearGradient><linearGradient id="_19" x1="62.93" y1="157.1" x2="62.93" y2="135.06" gradientUnits="userSpaceOnUse"><stop offset="0" stop-color="#ca6b34"/><stop offset="0.74" stop-color="#ffbd2b"/><stop offset="1" stop-color="#ffa933"/></linearGradient><linearGradient id="_27-36" x1="57.29" y1="158.13" x2="64.22" y2="143.36" xlink:href="#_27"/><linearGradient id="_29-2" x1="101.25" y1="141.01" x2="109.72" y2="161.19" xlink:href="#_29"/><linearGradient id="_19-2" x1="103.4" y1="157.3" x2="103.4" y2="135.26" xlink:href="#_19"/><linearGradient id="_27-37" x1="107.34" y1="157.72" x2="101.97" y2="141.6" xlink:href="#_27"/><linearGradient id="_29-3" x1="59.97" y1="36.11" x2="65.5" y2="48.28" xlink:href="#_29"/><linearGradient id="_92-22" x1="58.33" y1="30.33" x2="63.17" y2="42.55" xlink:href="#_92"/><linearGradient id="_27-38" x1="65.08" y1="46.94" x2="55.6" y2="27.98" xlink:href="#_27"/><linearGradient id="_28-28" x1="52.89" y1="19.08" x2="59.93" y2="39.38" xlink:href="#_28"/><linearGradient id="_29-4" x1="-12575.9" y1="36.11" x2="-12570.37" y2="48.28" gradientTransform="matrix(-1, 0, 0, 1, -12469.52, 0)" xlink:href="#_29"/><linearGradient id="_92-23" x1="-12577.54" y1="30.33" x2="-12572.7" y2="42.55" gradientTransform="matrix(-1, 0, 0, 1, -12469.52, 0)" xlink:href="#_92"/><linearGradient id="_27-39" x1="-12570.79" y1="46.94" x2="-12580.27" y2="27.98" gradientTransform="matrix(-1, 0, 0, 1, -12469.52, 0)" xlink:href="#_27"/><linearGradient id="_28-29" x1="-12582.98" y1="19.08" x2="-12575.94" y2="39.38" gradientTransform="matrix(-1, 0, 0, 1, -12469.52, 0)" xlink:href="#_28"/><linearGradient id="_29-5" x1="-14351.05" y1="-5563.19" x2="-14345.52" y2="-5551.03" gradientTransform="matrix(-0.71, -0.71, -0.71, 0.71, -13949.59, -6124.68)" xlink:href="#_29"/><linearGradient id="_92-24" x1="-14352.69" y1="-5568.97" x2="-14347.85" y2="-5556.75" gradientTransform="matrix(-0.71, -0.71, -0.71, 0.71, -13949.59, -6124.68)" xlink:href="#_92"/><linearGradient id="_27-40" x1="-14345.94" y1="-5552.36" x2="-14355.42" y2="-5571.32" gradientTransform="matrix(-0.71, -0.71, -0.71, 0.71, -13949.59, -6124.68)" xlink:href="#_27"/><linearGradient id="_28-30" x1="-14362.32" y1="-5512.82" x2="-14355.8" y2="-5494" gradientTransform="matrix(-0.71, -0.7, -0.7, 0.71, -13960.45, -6053.81)" xlink:href="#_28"/><linearGradient id="_29-6" x1="-7330.45" y1="-12603.67" x2="-7324.92" y2="-12591.51" gradientTransform="matrix(-0.71, 0.71, -0.71, -0.71, -13949.59, -3629.26)" xlink:href="#_29"/><linearGradient id="_92-25" x1="-7332.1" y1="-12609.45" x2="-7327.25" y2="-12597.23" gradientTransform="matrix(-0.71, 0.71, -0.71, -0.71, -13949.59, -3629.26)" xlink:href="#_92"/><linearGradient id="_27-41" x1="-7325.35" y1="-12592.84" x2="-7334.83" y2="-12611.8" gradientTransform="matrix(-0.71, 0.71, -0.71, -0.71, -13949.59, -3629.26)" xlink:href="#_27"/><linearGradient id="_28-31" x1="-7403.07" y1="-12613.25" x2="-7396.54" y2="-12594.43" gradientTransform="matrix(-0.71, 0.7, -0.7, -0.71, -13960.45, -3700.12)" xlink:href="#_28"/><linearGradient id="_29-7" x1="-6107.99" y1="2656.59" x2="-6102.46" y2="2668.75" gradientTransform="matrix(0.71, -0.71, 0.71, 0.71, 2474.75, -6124.68)" xlink:href="#_29"/><linearGradient id="_92-26" x1="-6109.63" y1="2650.81" x2="-6104.79" y2="2663.03" gradientTransform="matrix(0.71, -0.71, 0.71, 0.71, 2474.75, -6124.68)" xlink:href="#_92"/><linearGradient id="_27-42" x1="-6102.88" y1="2667.42" x2="-6112.36" y2="2648.46" gradientTransform="matrix(0.71, -0.71, 0.71, 0.71, 2474.75, -6124.68)" xlink:href="#_27"/><linearGradient id="_28-32" x1="-6049.26" y1="2635.1" x2="-6042.62" y2="2654.25" gradientTransform="matrix(0.71, -0.7, 0.7, 0.71, 2485.62, -6053.81)" xlink:href="#_28"/><linearGradient id="_29-8" x1="912.61" y1="-4383.89" x2="918.14" y2="-4371.73" gradientTransform="matrix(0.71, 0.71, 0.71, -0.71, 2474.75, -3629.26)" xlink:href="#_29"/><linearGradient id="_92-27" x1="910.96" y1="-4389.67" x2="915.81" y2="-4377.45" gradientTransform="matrix(0.71, 0.71, 0.71, -0.71, 2474.75, -3629.26)" xlink:href="#_92"/><linearGradient id="_27-43" x1="917.71" y1="-4373.07" x2="908.23" y2="-4392.02" gradientTransform="matrix(0.71, 0.71, 0.71, -0.71, 2474.75, -3629.26)" xlink:href="#_27"/><linearGradient id="_28-33" x1="910.18" y1="-4465.29" x2="916.71" y2="-4446.47" gradientTransform="matrix(0.71, 0.7, 0.7, -0.71, 2485.62, -3700.12)" xlink:href="#_28"/><linearGradient id="_27-44" x1="83.9" y1="106.7" x2="83.9" y2="157.42" xlink:href="#_27"/><linearGradient id="_27-45" x1="84" y1="105.44" x2="84" y2="163.54" xlink:href="#_27"/><linearGradient id="_28-34" x1="83.87" y1="38.85" x2="83.87" y2="63.26" xlink:href="#_28"/><linearGradient id="_29-9" x1="83.17" y1="44.61" x2="83.17" y2="149.59" xlink:href="#_29"/><linearGradient id="_28-35" x1="83.17" y1="153.78" x2="83.17" y2="126.76" xlink:href="#_28"/><linearGradient id="linear-gradient-4" x1="83.17" y1="142.05" x2="83.17" y2="121.03" xlink:href="#linear-gradient"/><linearGradient id="_27-46" x1="82.77" y1="80.58" x2="82.77" y2="48.12" xlink:href="#_27"/><radialGradient id="_21-4" cx="92.17" cy="44.16" r="16.55" gradientTransform="matrix(0.27, 0.92, -0.66, 0.38, 98.37, -61.6)" xlink:href="#_21"/><radialGradient id="_26" cx="-781.37" cy="-1206.64" r="7.57" gradientTransform="matrix(0, 1.33, -0.88, 0, -993.03, 1184.03)" gradientUnits="userSpaceOnUse"><stop offset="0" stop-color="#e75a29"/><stop offset="0.18" stop-color="#ad431f"/><stop offset="0.4" stop-color="#702c14"/><stop offset="0.59" stop-color="#40190b"/><stop offset="0.77" stop-color="#1d0b05"/><stop offset="0.91" stop-color="#080301"/><stop offset="1"/></radialGradient><linearGradient id="_27-47" x1="145.46" y1="104.75" x2="145.46" y2="75.05" xlink:href="#_27"/><linearGradient id="_28-36" x1="145.71" y1="97.07" x2="145.71" y2="126.16" xlink:href="#_28"/><linearGradient id="_28-37" x1="20.58" y1="97.07" x2="20.58" y2="125.87" xlink:href="#_28"/><linearGradient id="_27-48" x1="20.57" y1="104.75" x2="20.57" y2="75.05" xlink:href="#_27"/><linearGradient id="_18" x1="66.63" y1="172.74" x2="66.63" y2="152.12" gradientUnits="userSpaceOnUse"><stop offset="0" stop-color="#d16509"/><stop offset="1" stop-color="#8d2c1b"/></linearGradient><linearGradient id="_18-2" x1="99.7" y1="172.74" x2="99.7" y2="152.12" xlink:href="#_18"/><linearGradient id="_27-49" x1="-2819.47" y1="116.85" x2="-2819.57" y2="104.63" gradientTransform="matrix(-1, 0, 0, 1, -2683.32, 0)" xlink:href="#_27"/><linearGradient id="_941" x1="134.88" y1="108.34" x2="134.88" y2="86.92" gradientUnits="userSpaceOnUse"><stop offset="0" stop-color="#ca6b34"/><stop offset="1" stop-color="#ffbd2b"/></linearGradient><linearGradient id="_20" x1="134.86" y1="107.65" x2="134.86" y2="92.2" gradientUnits="userSpaceOnUse"><stop offset="0" stop-color="#f08d1d"/><stop offset="1" stop-color="#8d2c1b"/></linearGradient><linearGradient id="_963" x1="134.82" y1="108.73" x2="134.82" y2="97.65" gradientUnits="userSpaceOnUse"><stop offset="0" stop-color="#f08d1d"/><stop offset="0.21" stop-color="#d4721c"/><stop offset="0.56" stop-color="#ae4c1c"/><stop offset="0.83" stop-color="#96351b"/><stop offset="1" stop-color="#8d2c1b"/></linearGradient><radialGradient id="_508" cx="134.82" cy="95.84" r="8.18" gradientUnits="userSpaceOnUse"><stop offset="0" stop-color="#d14b4b"/><stop offset="0.17" stop-color="#c84141"/><stop offset="0.44" stop-color="#b02727"/><stop offset="0.73" stop-color="#910606"/><stop offset="0.83" stop-color="#940f0f"/><stop offset="0.99" stop-color="#9d2626"/><stop offset="1" stop-color="#9e2929"/></radialGradient><linearGradient id="_449" x1="134.82" y1="103.5" x2="134.82" y2="93.76" gradientUnits="userSpaceOnUse"><stop offset="0" stop-color="#8b2788"/><stop offset="1" stop-color="#fff"/></linearGradient><radialGradient id="_445" cx="134.42" cy="94.3" r="5.1" gradientUnits="userSpaceOnUse"><stop offset="0.16" stop-color="#e61c24"/><stop offset="0.24" stop-color="#da1b22"/><stop offset="0.39" stop-color="#ba171d"/><stop offset="0.58" stop-color="#861015"/><stop offset="0.81" stop-color="#3f080a"/><stop offset="1"/></radialGradient><linearGradient id="linear-gradient-5" x1="134.15" y1="91.38" x2="138.38" y2="91.38" xlink:href="#linear-gradient"/><linearGradient id="_18-3" x1="123.11" y1="102.28" x2="146.65" y2="102.28" xlink:href="#_18"/><linearGradient id="_6" x1="140.77" y1="89.53" x2="145.7" y2="89.53" gradientUnits="userSpaceOnUse"><stop offset="0" stop-color="#ebbd38"/><stop offset="1" stop-color="#fff29e"/></linearGradient><radialGradient id="_479" cx="135.48" cy="95.84" r="18.81" gradientTransform="matrix(0.29, 0.43, -0.97, 0.13, 187.68, 25.63)" gradientUnits="userSpaceOnUse"><stop offset="0.09" stop-color="#e84136"/><stop offset="0.15" stop-color="#d73c32"/><stop offset="0.46" stop-color="#7c231d"/><stop offset="0.72" stop-color="#39100d"/><stop offset="0.91" stop-color="#100404"/><stop offset="1"/></radialGradient><linearGradient id="_27-50" x1="30.11" y1="116.85" x2="30.01" y2="104.63" xlink:href="#_27"/><linearGradient id="_941-2" x1="30.59" y1="108.34" x2="30.59" y2="86.92" xlink:href="#_941"/><linearGradient id="_20-2" x1="30.57" y1="107.65" x2="30.57" y2="92.2" xlink:href="#_20"/><linearGradient id="_963-2" x1="30.63" y1="109.13" x2="30.63" y2="97.95" xlink:href="#_963"/><radialGradient id="_508-2" cx="30.53" cy="95.84" r="8.18" gradientTransform="translate(105.26 32.51) rotate(67.5) scale(0.98 0.98)" xlink:href="#_508"/><linearGradient id="_449-2" x1="30.53" y1="103.5" x2="30.53" y2="93.76" xlink:href="#_449"/><radialGradient id="_445-2" cx="30.14" cy="94.3" r="5.1" xlink:href="#_445"/><linearGradient id="linear-gradient-6" x1="29.87" y1="91.38" x2="34.1" y2="91.38" xlink:href="#linear-gradient"/><linearGradient id="_18-4" x1="18.83" y1="102.28" x2="42.36" y2="102.28" xlink:href="#_18"/><linearGradient id="_6-2" x1="36.49" y1="89.53" x2="41.41" y2="89.53" xlink:href="#_6"/><radialGradient id="_479-2" cx="31.19" cy="95.84" r="18.81" gradientTransform="matrix(0.45, 0.38, -0.97, 0.18, 108.69, 65.5)" xlink:href="#_479"/><linearGradient id="_27-51" x1="83.04" y1="171.29" x2="82.11" y2="151.65" xlink:href="#_27"/><linearGradient id="_264" x1="-96.52" y1="211.23" x2="-95.61" y2="191.95" gradientTransform="translate(171.05 -43.6) rotate(-2.26)" gradientUnits="userSpaceOnUse"><stop offset="0" stop-color="#ca6b34"/><stop offset="0.54" stop-color="#ffa933"/><stop offset="0.75" stop-color="#ffad31"/><stop offset="0.94" stop-color="#ffb82d"/><stop offset="1" stop-color="#ffbd2b"/></linearGradient><linearGradient id="_27-52" x1="-9021.16" y1="-1549.64" x2="-9028.34" y2="-1556.51" gradientTransform="matrix(-0.01, -1, -1, 0.01, -1609.58, -8835.85)" xlink:href="#_27"/><linearGradient id="_92-28" x1="83.43" y1="156.34" x2="83.43" y2="165.37" xlink:href="#_92"/><linearGradient id="_180" x1="83.38" y1="167.31" x2="83.38" y2="158.18" gradientUnits="userSpaceOnUse"><stop offset="0" stop-color="#ffa933"/><stop offset="0.33" stop-color="#ffc35a"/><stop offset="0.78" stop-color="#ffe389"/><stop offset="1" stop-color="#ffef9b"/></linearGradient><linearGradient id="_18-5" x1="-5582.35" y1="3489.22" x2="-5582.48" y2="3485.79" gradientTransform="matrix(-0.94, 0.01, 0.02, 1.12, -5204.79, -3679.49)" xlink:href="#_18"/><linearGradient id="_499" x1="-5499.86" y1="3302.04" x2="-5498.48" y2="3300.16" gradientTransform="matrix(-0.94, 0.01, 0.02, 1.12, -5123.51, -3469.4)" gradientUnits="userSpaceOnUse"><stop offset="0" stop-color="#de3c14"/><stop offset="1" stop-color="#db0f0f"/></linearGradient><linearGradient id="_490" x1="-5499.02" y1="3300.77" x2="-5500.86" y2="3302.61" gradientTransform="matrix(-0.94, 0.01, 0.02, 1.12, -5123.51, -3469.4)" gradientUnits="userSpaceOnUse"><stop offset="0" stop-color="#b51818"/><stop offset="0.23" stop-color="#bb1a19"/><stop offset="0.55" stop-color="#cd211c"/><stop offset="0.92" stop-color="#eb2c21"/><stop offset="1" stop-color="#f22f22"/></linearGradient><linearGradient id="_490-2" x1="-5498.48" y1="3299.96" x2="-5501.2" y2="3298.07" xlink:href="#_490"/><linearGradient id="_490-3" x1="-5497.36" y1="3302.49" x2="-5496.62" y2="3303.26" xlink:href="#_490"/><linearGradient id="_490-4" x1="-5496.53" y1="3299.08" x2="-5498.31" y2="3300.5" xlink:href="#_490"/><linearGradient id="linear-gradient-7" x1="-9016.7" y1="-1560.73" x2="-9016.69" y2="-1560.73" gradientTransform="matrix(-0.01, -1, -1, 0.01, -1609.58, -8835.85)" xlink:href="#linear-gradient"/><linearGradient id="linear-gradient-8" x1="83.88" y1="161.83" x2="83.88" y2="161.83" xlink:href="#linear-gradient"/><linearGradient id="_27-53" x1="41.11" y1="68.28" x2="42.13" y2="46.63" xlink:href="#_27"/><linearGradient id="_264-2" x1="-132.03" y1="103.51" x2="-131.12" y2="84.22" xlink:href="#_264"/><linearGradient id="_27-54" x1="-8914.34" y1="-1511.49" x2="-8921.52" y2="-1518.36" gradientTransform="matrix(-0.01, -1, -1, 0.01, -1609.58, -8835.85)" xlink:href="#_27"/><linearGradient id="_92-29" x1="43.68" y1="50.1" x2="43.68" y2="59.13" xlink:href="#_92"/><linearGradient id="_180-2" x1="43.63" y1="61.07" x2="43.63" y2="51.94" xlink:href="#_180"/><linearGradient id="_18-6" x1="-5541.64" y1="3393.45" x2="-5541.77" y2="3390.03" gradientTransform="matrix(-0.94, 0.01, 0.02, 1.12, -5204.79, -3679.49)" xlink:href="#_18"/><linearGradient id="_499-2" x1="-5459.14" y1="3206.95" x2="-5457.76" y2="3205.07" xlink:href="#_499"/><linearGradient id="_490-5" x1="-5459.09" y1="3205.91" x2="-5460.93" y2="3207.74" xlink:href="#_490"/><linearGradient id="_490-6" x1="-5458.55" y1="3205.1" x2="-5461.27" y2="3203.21" xlink:href="#_490"/><linearGradient id="_490-7" x1="-5457.45" y1="3206.74" x2="-5456.71" y2="3207.51" xlink:href="#_490"/><linearGradient id="_490-8" x1="-5456.62" y1="3203.33" x2="-5458.4" y2="3204.75" xlink:href="#_490"/><linearGradient id="linear-gradient-9" x1="-8909.87" y1="-1522.58" x2="-8909.86" y2="-1522.58" gradientTransform="matrix(-0.01, -1, -1, 0.01, -1609.58, -8835.85)" xlink:href="#linear-gradient"/><linearGradient id="linear-gradient-10" x1="44.13" y1="55.59" x2="44.13" y2="55.59" xlink:href="#linear-gradient"/><linearGradient id="_27-55" x1="-2660.65" y1="68.28" x2="-2659.63" y2="46.63" gradientTransform="matrix(-1, 0, 0, 1, -2535.79, 0)" xlink:href="#_27"/><linearGradient id="_264-3" x1="-54.05" y1="106.59" x2="-53.14" y2="87.3" xlink:href="#_264"/><linearGradient id="_27-56" x1="-8915.51" y1="-1589.52" x2="-8922.69" y2="-1596.39" gradientTransform="matrix(-0.01, -1, -1, 0.01, -1609.58, -8835.85)" xlink:href="#_27"/><linearGradient id="_92-30" x1="121.73" y1="50.1" x2="121.73" y2="59.13" xlink:href="#_92"/><linearGradient id="_180-3" x1="121.68" y1="61.07" x2="121.68" y2="51.94" xlink:href="#_180"/><linearGradient id="_18-7" x1="-5624.93" y1="3394.49" x2="-5625.06" y2="3391.06" gradientTransform="matrix(-0.94, 0.01, 0.02, 1.12, -5204.79, -3679.49)" xlink:href="#_18"/><linearGradient id="_499-3" x1="-5542.42" y1="3207.99" x2="-5541.05" y2="3206.11" xlink:href="#_499"/><linearGradient id="_490-9" x1="-5542.33" y1="3206.94" x2="-5544.17" y2="3208.78" xlink:href="#_490"/><linearGradient id="_490-10" x1="-5541.79" y1="3206.14" x2="-5544.51" y2="3204.25" xlink:href="#_490"/><linearGradient id="_490-11" x1="-5540.69" y1="3207.78" x2="-5539.95" y2="3208.55" xlink:href="#_490"/><linearGradient id="_490-12" x1="-5539.86" y1="3204.36" x2="-5541.64" y2="3205.78" xlink:href="#_490"/><linearGradient id="linear-gradient-11" x1="-8911.04" y1="-1600.61" x2="-8911.04" y2="-1600.61" gradientTransform="matrix(-0.01, -1, -1, 0.01, -1609.58, -8835.85)" xlink:href="#linear-gradient"/><linearGradient id="linear-gradient-12" x1="122.17" y1="55.59" x2="122.17" y2="55.59" xlink:href="#linear-gradient"/><linearGradient id="_92-31" x1="111.77" y1="3.71" x2="104.87" y2="3.71" xlink:href="#_92"/><linearGradient id="_92-32" x1="116.86" y1="9.25" x2="112.96" y2="9.25" xlink:href="#_92"/><linearGradient id="_92-33" x1="66.53" y1="8.28" x2="53.08" y2="8.28" xlink:href="#_92"/><linearGradient id="_27-57" x1="54.78" y1="93.27" x2="111.62" y2="93.27" xlink:href="#_27"/><linearGradient id="linear-gradient-13" x1="82.22" y1="121.02" x2="82.22" y2="64.18" gradientUnits="userSpaceOnUse"><stop offset="0" stop-color="#ca6b34"/><stop offset="0.13" stop-color="#cc6e34"/><stop offset="0.22" stop-color="#d27733"/><stop offset="0.3" stop-color="#db8631"/><stop offset="0.37" stop-color="#e99b2f"/><stop offset="0.43" stop-color="#fbb72c"/><stop offset="0.44" stop-color="#ffbd2b"/><stop offset="1" stop-color="#ffa933"/></linearGradient></defs><title>l9</title><g class="cls-1"><g id="Layer_2" data-name="Layer 2"><g id="frame"><path class="cls-2" d="M83.17,12s-19.94,9.71-35,38.9h70C103.1,21.74,83.17,12,83.17,12Z"/><path class="cls-3" d="M83.17,17.38S63.91,32.14,55.73,50.93H110.6C102.42,32.14,83.17,17.38,83.17,17.38Z"/><path class="cls-4" d="M57.55,51S68.51,30.3,83,19.24a112.44,112.44,0,0,1,25.72,31.69Z"/><path class="cls-5" d="M57.05,50.69S68.31,25.9,83.17,17.23c0,0,19.6,14.8,25.55,33.46,0,0-13.67-19.68-24.85-25.8,0,0-13.52,7.56-25.48,25.9Z"/><path class="cls-6" d="M97.77,22.94C86.32,13.47,82.38,13,82.38,13c-2.17,1.09-7.59,4.53-8,4.81a53.16,53.16,0,0,1,8.79-5.92S89.52,15,97.77,22.94Z"/><path class="cls-7" d="M89.65,16c-3.08,2.06,4.95,9,8.12,7,0,0-2-2-4.8-4.26S89.65,16,89.65,16Z"/><circle class="cls-8" cx="85.63" cy="33.43" r="15.5" transform="translate(1.44 70.34) rotate(-45)"/><path class="cls-9" d="M.23,94.77s9.71,19.93,38.9,35v-70C9.94,74.83.23,94.77.23,94.77Z"/><path class="cls-10" d="M5.57,94.77S20.34,114,39.13,122.2V67.33C20.34,75.52,5.57,94.77,5.57,94.77Z"/><path class="cls-11" d="M39.23,120.39s-20.73-11-31.79-25.46A112.63,112.63,0,0,1,39.13,69.21Z"/><path class="cls-12" d="M38.8,120.88S14,109.63,5.35,94.77c0,0,14.8-19.61,33.45-25.56,0,0-19.68,13.68-25.79,24.86,0,0,7.55,13.51,25.89,25.48Z"/><path class="cls-13" d="M11.05,80.16C1.58,91.61,1.11,95.55,1.11,95.55c1.08,2.17,4.52,7.6,4.81,8A52.89,52.89,0,0,1,0,94.77S3.1,88.41,11.05,80.16Z"/><path class="cls-14" d="M4.11,88.28c2.05,3.08,9-4.94,6.94-8.12,0,0-2,2-4.26,4.8S4.11,88.28,4.11,88.28Z"/><ellipse class="cls-15" cx="23.38" cy="92.43" rx="17.25" ry="15.5"/><path class="cls-16" d="M166,94.77s-9.71,19.93-38.9,35v-70C156.32,74.83,166,94.77,166,94.77Z"/><path class="cls-17" d="M160.68,94.77S145.92,114,127.13,122.2V67.33C145.92,75.52,160.68,94.77,160.68,94.77Z"/><path class="cls-18" d="M128,120.39s20.73-11,31.79-25.46a112.63,112.63,0,0,0-31.69-25.72Z"/><path class="cls-19" d="M127.64,120.88s24.79-11.25,33.46-26.11c0,0-14.8-19.61-33.46-25.56,0,0,19.68,13.68,25.8,24.86,0,0-7.56,13.51-25.9,25.48Z"/><path class="cls-20" d="M155.39,80.16c9.47,11.45,10,15.39,10,15.39-1.09,2.17-4.53,7.6-4.81,8a52.33,52.33,0,0,0,5.91-8.78S163.35,88.41,155.39,80.16Z"/><path class="cls-21" d="M162.34,88.28c-2.06,3.08-9-4.94-7-8.12,0,0,2,2,4.26,4.8S162.34,88.28,162.34,88.28Z"/><ellipse class="cls-22" cx="143.18" cy="92.43" rx="16.95" ry="15.5"/><path class="cls-23" d="M83.17,176.84s-19.94-9.72-35-38.91h70C103.1,167.12,83.17,176.84,83.17,176.84Z"/><path class="cls-24" d="M83.17,171.49s-17.84-13.32-27.44-33.56H110.6C102.42,156.72,83.17,171.49,83.17,171.49Z"/><path class="cls-25" d="M57.55,137.83s11,20.74,25.45,31.8a112.58,112.58,0,0,0,25.72-31.7Z"/><path class="cls-26" d="M57.05,137.91s2.58,13.92,26.12,33.45c0,0,19.6-14.8,25.55-33.45,0,0-13.67,7.3-24.85,13.41,0,0-9.49-1.34-25.48-13.51Z"/><path class="cls-27" d="M37.08,37.76a2.5,2.5,0,0,0,0,.47v.06a7.16,7.16,0,0,0,.34,1.41v0C38.54,43,41.78,47.47,43.73,50l.06.09c.47.61.86,1.1,1.12,1.42h0l.34.41h3.15c3-4.06,5.78-11.4,5.81-14.32a2.72,2.72,0,0,0-.08-.76A20.13,20.13,0,0,0,52.77,34c-2.38-4.45-7-12-8-11.87-.63.08-4,5.65-6,10.36A16.88,16.88,0,0,0,37.08,37.76Z"/><path class="cls-28" d="M37.08,37.76a2.5,2.5,0,0,0,0,.47v.06a7.16,7.16,0,0,0,.34,1.41v0C38.54,43,41.78,47.47,43.73,50l.06.09c.47.61.86,1.1,1.12,1.42h0l.34.41h3.15c3-4.06,5.78-11.4,5.81-14.32A7,7,0,0,1,48.6,42.9a10.41,10.41,0,0,1-2.77.1h0l-.47-.05-.36,0a13.34,13.34,0,0,1-2.73-.72S39.56,40.39,39,38c-.23-1,0-3,.91-5.79a46.47,46.47,0,0,1,4.84-10.14c-.63.08-4,5.65-6,10.36A16.88,16.88,0,0,0,37.08,37.76Z"/><path class="cls-29" d="M47.21,36.82c1.44,5.66-1.33,14.73-1.33,14.73s.25-8.34-.93-12.62S46.77,35.06,47.21,36.82Z"/><path class="cls-30" d="M44.59,37.2c1.51,5.06,1.29,14.35,1.29,14.35Z"/><path class="cls-31" d="M52.14,32.86c-2,1.47-6.71-10-5.3-8.59C47.93,25.38,52.14,32.86,52.14,32.86Z"/><path class="cls-32" d="M36.85,37.84v.06a5.56,5.56,0,0,0,.34,1.42h0c1.09,3.07,4.45,7.85,6.28,10.29l.06.08c.59.79,1,1.31,1.12,1.43h0c1.16,1.17.13-.75-4-8.27C38.81,39.56,36.78,36.7,36.85,37.84Z"/><path class="cls-33" d="M43.48,49.62l.06.08c.59.79,1,1.31,1.12,1.43a58.17,58.17,0,0,0,.05-8.63c-.61-5-1.37-9.4-2.45-10a4.78,4.78,0,0,0-2.58-.64,3.76,3.76,0,0,0-1.21.23,16.69,16.69,0,0,0-1.64,5.31,2.4,2.4,0,0,0,0,.46v.06a5.56,5.56,0,0,0,.34,1.42h0C38.29,42.57,41.53,47.08,43.48,49.62Z"/><path class="cls-34" d="M28.5,64.83l.53,0h0a7,7,0,0,0,1.28-.29h0c3.22-1,7.76-4.22,10.34-6.17l.08-.07c.64-.48,1.15-.88,1.48-1.14h0c.27-.21-.13-.33-.13-.33l1-.78V53.63S31.37,47.8,28.47,47.74a2.72,2.72,0,0,0-.76.08,21.25,21.25,0,0,0-2.89,1.34h0c-1,.52-2.1,1.13-3.26,1.8-4.12,2.37-8.69,5.33-8.61,6.1S24.72,64.73,28.5,64.83Z"/><path class="cls-35" d="M28.5,64.83l.53,0h0a7,7,0,0,0,1.28-.29h0c3.22-1,7.76-4.22,10.34-6.17l.08-.07c.64-.48,1.15-.88,1.48-1.14h0c.27-.21-.13-.33-.13-.33l1-.78V53.63S31.37,47.8,28.47,47.74a6.94,6.94,0,0,1,5.23,5.64,9.93,9.93,0,0,1,.12,2.09c0,.23,0,.45,0,.67v0c0,.16,0,.31-.05.47a14.12,14.12,0,0,1-.79,3.07s-1.79,2.64-4.16,3.18c-1.95.44-8.4-1.11-15.83-5.84C13,58,24.72,64.73,28.5,64.83Z"/><path class="cls-36" d="M26.7,55.46c5.55-5,16,.44,16,.44s-8.31-.31-12.57.85S26,56.06,26.7,55.46Z"/><path class="cls-37" d="M28.38,57.09c5.05-1.47,14.3-1.19,14.3-1.19Z"/><path class="cls-38" d="M15.51,54.75c1,.89,5.53-.81,8.06-2.65,1.28-.93,2-1.91,1.55-2.6l-.3-.34h0L21.55,51Z"/><path class="cls-39" d="M34,61.07c7.52-4.1,9.44-5.11,8.27-4-.48.47-9.8,7.52-13.3,7.7C27.82,64.86,30.69,62.87,34,61.07Z"/><path class="cls-40" d="M21.55,51l.17.06a8.05,8.05,0,0,1,1.85,1.08,16.32,16.32,0,0,1,3.14,3.36s1.72-1.1,5.76-1c5.37.11,7,1,9.59,1.45h0l.24,0h0c.12,0,.24,0-.2.07l1-.1V53.63c-4.46-3.05-11.76-5.83-14.66-5.89a2.72,2.72,0,0,0-.76.08,21.25,21.25,0,0,0-2.89,1.34h0C23.84,49.68,22.71,50.29,21.55,51Z"/><path class="cls-41" d="M24.9,49.25c3.23,3.51,17.67,5.15,17.67,5.15L45.14,52c-.69-5.67-4.18-13.77-6.42-16.17a3.29,3.29,0,0,0-.66-.55C35.92,34,19.89,29.4,19,30.53,18.29,31.33,22,46.11,24.9,49.25Z"/><path class="cls-42" d="M24.9,49.25c3.23,3.51,17.67,5.15,17.67,5.15L45.14,52c-.69-5.67-4.18-13.77-6.42-16.17,4.44,8.83-6.19,13-6.19,13s-2.27.67-5.53-1.56c-1.86-1.27-6-7-8-16.73C18.29,31.33,22,46.11,24.9,49.25Z"/><path class="cls-43" d="M31,41.17c7.45,2,12.25,12.55,12.25,12.55s-6.29-7-10.58-9.52S30.06,40.91,31,41.17Z"/><path class="cls-44" d="M31.07,43.06C36.23,46,43.29,53.72,43.29,53.72Z"/><path class="cls-45" d="M35,34c-.52,2.79-14.35-3.62-12.12-3.23C27.19,31.56,35,34,35,34Z"/><path class="cls-46" d="M129.18,37.76a2.5,2.5,0,0,1,0,.47v.06a7.16,7.16,0,0,1-.34,1.41v0c-1.09,3.24-4.33,7.75-6.28,10.28l-.06.09c-.47.61-.86,1.1-1.12,1.42h0l-.34.41h-3.15c-3-4.06-5.78-11.4-5.81-14.32a2.72,2.72,0,0,1,.08-.76A20.13,20.13,0,0,1,113.49,34c2.37-4.45,7-12,8-11.87.63.08,4,5.65,6,10.36A16.88,16.88,0,0,1,129.18,37.76Z"/><path class="cls-47" d="M129.18,37.76a2.5,2.5,0,0,1,0,.47v.06a7.16,7.16,0,0,1-.34,1.41v0c-1.09,3.24-4.33,7.75-6.28,10.28l-.06.09c-.47.61-.86,1.1-1.12,1.42h0l-.34.41h-3.15c-3-4.06-5.78-11.4-5.81-14.32a7,7,0,0,0,5.62,5.29,10.41,10.41,0,0,0,2.77.1h0l.47-.05.36,0a13.34,13.34,0,0,0,2.73-.72s2.67-1.78,3.22-4.15c.23-1,0-3-.92-5.79a45.91,45.91,0,0,0-4.83-10.14c.63.08,4,5.65,6,10.36A16.88,16.88,0,0,1,129.18,37.76Z"/><path class="cls-48" d="M119.23,36.82c-1.44,5.66,1.33,14.73,1.33,14.73s-.25-8.34.94-12.62S119.67,35.06,119.23,36.82Z"/><path class="cls-49" d="M121.85,37.2c-1.51,5.06-1.29,14.35-1.29,14.35Z"/><path class="cls-50" d="M114.3,32.86c2,1.47,6.71-10,5.3-8.59C118.51,25.38,114.3,32.86,114.3,32.86Z"/><path class="cls-51" d="M129.59,37.84v.06a5.56,5.56,0,0,1-.34,1.42h0c-1.09,3.07-4.45,7.85-6.28,10.29l-.06.08c-.59.79-1,1.31-1.12,1.43h0c-1.16,1.17-.13-.75,4-8.27C127.63,39.56,129.66,36.7,129.59,37.84Z"/><path class="cls-52" d="M123,49.62l-.06.08c-.59.79-1,1.31-1.12,1.43a59.67,59.67,0,0,1,0-8.63c.61-5,1.38-9.4,2.45-10a4.8,4.8,0,0,1,2.59-.64,3.85,3.85,0,0,1,1.21.23,16.88,16.88,0,0,1,1.63,5.31,2.4,2.4,0,0,1,0,.46v.06a5.56,5.56,0,0,1-.34,1.42h0C128.15,42.57,124.91,47.08,123,49.62Z"/><path class="cls-53" d="M137.94,64.83l-.53,0h0a6.64,6.64,0,0,1-1.28-.29h0c-3.22-1-7.76-4.22-10.33-6.17l-.09-.07c-.64-.48-1.15-.88-1.48-1.14h0a3.25,3.25,0,0,0-1.05-.33l1-.78V53.63S135.07,47.8,138,47.74a2.72,2.72,0,0,1,.76.08,21.77,21.77,0,0,1,2.9,1.34h0c1,.52,2.1,1.13,3.26,1.8,4.13,2.37,8.7,5.33,8.61,6.1S141.72,64.73,137.94,64.83Z"/><path class="cls-54" d="M137.94,64.83l-.53,0h0a6.64,6.64,0,0,1-1.28-.29h0c-3.22-1-7.76-4.22-10.33-6.17l-.09-.07c-.64-.48-1.15-.88-1.48-1.14h0a3.25,3.25,0,0,0-1.05-.33l1-.78V53.63S135.07,47.8,138,47.74a7,7,0,0,0-5.23,5.64,9.93,9.93,0,0,0-.12,2.09c0,.23,0,.45,0,.67v0c0,.16,0,.31.05.47a14.12,14.12,0,0,0,.79,3.07s1.79,2.64,4.16,3.18c2,.44,8.4-1.11,15.83-5.84C153.4,58,141.72,64.73,137.94,64.83Z"/><path class="cls-55" d="M139.74,55.46c-5.55-5-16,.44-16,.44s8.31-.31,12.58.85S140.4,56.06,139.74,55.46Z"/><path class="cls-56" d="M138.06,57.09c-5.05-1.47-14.3-1.19-14.3-1.19Z"/><path class="cls-57" d="M150.93,54.75c-1,.89-5.53-.81-8.05-2.65-1.29-.93-2-1.91-1.56-2.6l.31-.34h0l3.26,1.8Z"/><path class="cls-58" d="M132.46,61.07c-7.53-4.1-9.45-5.11-8.28-4,.48.47,9.8,7.52,13.3,7.7C138.62,64.86,135.76,62.87,132.46,61.07Z"/><path class="cls-59" d="M144.89,51l-.17.06a7.79,7.79,0,0,0-1.84,1.08,16,16,0,0,0-3.14,3.36s-1.73-1.1-5.77-1c-5.37.11-7,1-9.58,1.45h0l-.24,0h0a5.67,5.67,0,0,1-1,.07l1-.1V53.63c3.64-3.05,10.94-5.83,13.84-5.89a2.72,2.72,0,0,1,.76.08,21.77,21.77,0,0,1,2.9,1.34h0C142.61,49.68,143.73,50.29,144.89,51Z"/><path class="cls-60" d="M141.54,49.25c-3.23,3.51-17.67,5.15-17.67,5.15L121.3,52c.7-5.67,4.18-13.77,6.43-16.17a3,3,0,0,1,.65-.55c2.15-1.24,18.17-5.83,19.11-4.7C148.15,31.33,144.44,46.11,141.54,49.25Z"/><path class="cls-61" d="M141.54,49.25c-3.23,3.51-17.67,5.15-17.67,5.15L121.3,52c.7-5.67,4.18-13.77,6.43-16.17-4.44,8.83,6.19,13,6.19,13s2.26.67,5.52-1.56c1.87-1.27,6-7,8.05-16.73C148.15,31.33,144.44,46.11,141.54,49.25Z"/><path class="cls-62" d="M135.41,41.17c-7.46,2-12.25,12.55-12.25,12.55s6.28-7,10.57-9.52S136.38,40.91,135.41,41.17Z"/><path class="cls-63" d="M135.37,43.06c-5.16,2.94-12.21,10.66-12.21,10.66Z"/><path class="cls-64" d="M131.48,34c.52,2.79,14.35-3.62,12.12-3.23C139.26,31.56,131.48,34,131.48,34Z"/><path class="cls-65" d="M37.08,151.1a2.43,2.43,0,0,1,0-.46v-.06a7.24,7.24,0,0,1,.34-1.42h0c1.09-3.24,4.33-7.75,6.28-10.29l.06-.08c.47-.61.86-1.1,1.12-1.42h0c.21-.27.34-.42.34-.42h3.15c3,4.07,5.78,11.41,5.81,14.33a2.77,2.77,0,0,1-.08.76,20.66,20.66,0,0,1-1.37,2.89c-2.38,4.45-7,12-8,11.86-.63-.07-4-5.64-6-10.35A17,17,0,0,1,37.08,151.1Z"/><path class="cls-66" d="M37.08,151.1a2.43,2.43,0,0,1,0-.46v-.06a7.24,7.24,0,0,1,.34-1.42h0c1.09-3.24,4.33-7.75,6.28-10.29l.06-.08c.47-.61.86-1.1,1.12-1.42h0c.21-.27.34-.42.34-.42h3.15c3,4.07,5.78,11.41,5.81,14.33A6.93,6.93,0,0,0,48.6,146a10,10,0,0,0-2.77-.1h0l-.47.06L45,146a13.76,13.76,0,0,0-2.73.71s-2.67,1.78-3.22,4.15c-.23,1,0,3,.91,5.8a46.21,46.21,0,0,0,4.84,10.13c-.63-.07-4-5.64-6-10.35A17,17,0,0,1,37.08,151.1Z"/><path class="cls-67" d="M47.21,151.64c1.44-5.66-1.33-14.73-1.33-14.73s.25,8.34-.93,12.62S46.77,153.4,47.21,151.64Z"/><path class="cls-68" d="M44.59,151.26c1.51-5.06,1.29-14.35,1.29-14.35Z"/><path class="cls-69" d="M52.14,155.6c-2-1.47-6.71,10-5.3,8.59C47.93,163.08,52.14,155.6,52.14,155.6Z"/><path class="cls-70" d="M36.85,150.62v-.06a5.65,5.65,0,0,1,.34-1.42h0c1.09-3.07,4.45-7.85,6.28-10.29l.06-.08c.59-.79,1-1.31,1.12-1.43h0c1.16-1.17.13.75-4,8.27C38.81,148.9,36.78,151.76,36.85,150.62Z"/><path class="cls-71" d="M43.48,138.84l.06-.08c.59-.79,1-1.31,1.12-1.43a58.17,58.17,0,0,1,.05,8.63c-.61,5-1.37,9.4-2.45,10a4.78,4.78,0,0,1-2.58.64,3.76,3.76,0,0,1-1.21-.23,16.69,16.69,0,0,1-1.64-5.31,2.4,2.4,0,0,1,0-.46v-.06a5.65,5.65,0,0,1,.34-1.42h0C38.29,145.89,41.53,141.38,43.48,138.84Z"/><path class="cls-72" d="M28.5,123.63l.53,0h0a7,7,0,0,1,1.28.29h0c3.22,1,7.76,4.22,10.34,6.17l.08.07c.64.48,1.15.88,1.48,1.14h0c.27.21-.13.33-.13.33l1,.78v2.37s-11.76,5.83-14.66,5.89a2.72,2.72,0,0,1-.76-.08,20,20,0,0,1-2.89-1.34h0c-1-.52-2.1-1.13-3.26-1.8-4.12-2.37-8.69-5.33-8.61-6.1S24.72,123.73,28.5,123.63Z"/><path class="cls-73" d="M28.5,123.63l.53,0h0a7,7,0,0,1,1.28.29h0c3.22,1,7.76,4.22,10.34,6.17l.08.07c.64.48,1.15.88,1.48,1.14h0c.27.21-.13.33-.13.33l1,.78v2.37s-11.76,5.83-14.66,5.89a6.94,6.94,0,0,0,5.23-5.64,9.93,9.93,0,0,0,.12-2.09c0-.23,0-.45,0-.67v0c0-.16,0-.31-.05-.47a14.12,14.12,0,0,0-.79-3.07s-1.79-2.64-4.16-3.18c-1.95-.44-8.4,1.11-15.83,5.84C13,130.49,24.72,123.73,28.5,123.63Z"/><path class="cls-74" d="M26.7,133c5.55,5,16-.44,16-.44s-8.31.31-12.57-.85S26,132.4,26.7,133Z"/><path class="cls-75" d="M28.38,131.37c5.05,1.47,14.3,1.19,14.3,1.19Z"/><path class="cls-76" d="M15.51,133.71c1-.89,5.53.81,8.06,2.65,1.28.94,2,1.91,1.55,2.6l-.3.34h0l-3.26-1.8Z"/><path class="cls-77" d="M34,127.39c7.52,4.1,9.44,5.11,8.27,4-.48-.47-9.8-7.52-13.3-7.7C27.82,123.6,30.69,125.59,34,127.39Z"/><path class="cls-78" d="M21.55,137.5l.17-.06a8.05,8.05,0,0,0,1.85-1.08A16.32,16.32,0,0,0,26.71,133s1.72,1.1,5.76,1c5.37-.11,7-1,9.59-1.45h0l.24,0h0c.12,0,.24-.05-.2-.07l1,.1v2.27c-4.46,3.06-11.76,5.83-14.66,5.89a2.72,2.72,0,0,1-.76-.08,20,20,0,0,1-2.89-1.34h0C23.84,138.78,22.71,138.17,21.55,137.5Z"/><path class="cls-79" d="M24.9,139.21c3.23-3.51,17.67-5.15,17.67-5.15l2.57,2.45c-.69,5.67-4.18,13.77-6.42,16.17a3,3,0,0,1-.66.55c-2.14,1.24-18.17,5.83-19.11,4.7C18.29,157.13,22,142.35,24.9,139.21Z"/><path class="cls-80" d="M24.9,139.21c3.23-3.51,17.67-5.15,17.67-5.15l2.57,2.45c-.69,5.67-4.18,13.77-6.42,16.17,4.44-8.83-6.19-13-6.19-13S30.26,139,27,141.2c-1.86,1.27-6,7-8,16.73C18.29,157.13,22,142.35,24.9,139.21Z"/><path class="cls-81" d="M31,147.29c7.45-2,12.25-12.55,12.25-12.55s-6.29,7-10.58,9.52S30.06,147.55,31,147.29Z"/><path class="cls-82" d="M31.07,145.4c5.16-2.94,12.22-10.66,12.22-10.66Z"/><path class="cls-83" d="M35,154.43c-.52-2.79-14.35,3.62-12.12,3.23C27.19,156.9,35,154.43,35,154.43Z"/><path class="cls-84" d="M129.18,151.1a2.43,2.43,0,0,0,0-.46v-.06a7.24,7.24,0,0,0-.34-1.42h0c-1.09-3.24-4.33-7.75-6.28-10.29l-.06-.08c-.47-.61-.86-1.1-1.12-1.42h0c-.21-.27-.34-.42-.34-.42h-3.15c-3,4.07-5.78,11.41-5.81,14.33a2.77,2.77,0,0,0,.08.76,20.66,20.66,0,0,0,1.37,2.89c2.37,4.45,7,12,8,11.86.63-.07,4-5.64,6-10.35A17,17,0,0,0,129.18,151.1Z"/><path class="cls-85" d="M129.18,151.1a2.43,2.43,0,0,0,0-.46v-.06a7.24,7.24,0,0,0-.34-1.42h0c-1.09-3.24-4.33-7.75-6.28-10.29l-.06-.08c-.47-.61-.86-1.1-1.12-1.42h0c-.21-.27-.34-.42-.34-.42h-3.15c-3,4.07-5.78,11.41-5.81,14.33a6.93,6.93,0,0,1,5.62-5.29,10,10,0,0,1,2.77-.1h0l.47.06.36,0a13.76,13.76,0,0,1,2.73.71s2.67,1.78,3.22,4.15c.23,1,0,3-.92,5.8a45.66,45.66,0,0,1-4.83,10.13c.63-.07,4-5.64,6-10.35A17,17,0,0,0,129.18,151.1Z"/><path class="cls-86" d="M119.23,151.64c-1.44-5.66,1.33-14.73,1.33-14.73s-.25,8.34.94,12.62S119.67,153.4,119.23,151.64Z"/><path class="cls-87" d="M121.85,151.26c-1.51-5.06-1.29-14.35-1.29-14.35Z"/><path class="cls-88" d="M114.3,155.6c2-1.47,6.71,10,5.3,8.59C118.51,163.08,114.3,155.6,114.3,155.6Z"/><path class="cls-89" d="M129.59,150.62v-.06a5.65,5.65,0,0,0-.34-1.42h0c-1.09-3.07-4.45-7.85-6.28-10.29l-.06-.08c-.59-.79-1-1.31-1.12-1.43h0c-1.16-1.17-.13.75,4,8.27C127.63,148.9,129.66,151.76,129.59,150.62Z"/><path class="cls-90" d="M123,138.84l-.06-.08c-.59-.79-1-1.31-1.12-1.43a59.67,59.67,0,0,0,0,8.63c.61,5,1.38,9.4,2.45,10a4.8,4.8,0,0,0,2.59.64,3.85,3.85,0,0,0,1.21-.23,16.88,16.88,0,0,0,1.63-5.31,2.4,2.4,0,0,0,0-.46v-.06a5.65,5.65,0,0,0-.34-1.42h0C128.15,145.89,124.91,141.38,123,138.84Z"/><path class="cls-91" d="M137.94,123.63l-.53,0h0a6.64,6.64,0,0,0-1.28.29h0c-3.22,1-7.76,4.22-10.33,6.17l-.09.07c-.64.48-1.15.88-1.48,1.14h0a3.25,3.25,0,0,1-1.05.33l1,.78v2.37s10.94,5.83,13.84,5.89a2.72,2.72,0,0,0,.76-.08,20.5,20.5,0,0,0,2.9-1.34h0c1-.52,2.1-1.13,3.26-1.8,4.13-2.37,8.7-5.33,8.61-6.1S141.72,123.73,137.94,123.63Z"/><path class="cls-92" d="M137.94,123.63l-.53,0h0a6.64,6.64,0,0,0-1.28.29h0c-3.22,1-7.76,4.22-10.33,6.17l-.09.07c-.64.48-1.15.88-1.48,1.14h0a3.25,3.25,0,0,1-1.05.33l1,.78v2.37s10.94,5.83,13.84,5.89a7,7,0,0,1-5.23-5.64,9.93,9.93,0,0,1-.12-2.09c0-.23,0-.45,0-.67v0c0-.16,0-.31.05-.47a14.12,14.12,0,0,1,.79-3.07s1.79-2.64,4.16-3.18c2-.44,8.4,1.11,15.83,5.84C153.4,130.49,141.72,123.73,137.94,123.63Z"/><path class="cls-93" d="M139.74,133c-5.55,5-16-.44-16-.44s8.31.31,12.58-.85S140.4,132.4,139.74,133Z"/><path class="cls-94" d="M138.06,131.37c-5.05,1.47-14.3,1.19-14.3,1.19Z"/><path class="cls-95" d="M150.93,133.71c-1-.89-5.53.81-8.05,2.65-1.29.94-2,1.91-1.56,2.6l.31.34h0l3.26-1.8Z"/><path class="cls-96" d="M132.46,127.39c-7.53,4.1-9.45,5.11-8.28,4,.48-.47,9.8-7.52,13.3-7.7C138.62,123.6,135.76,125.59,132.46,127.39Z"/><path class="cls-97" d="M144.89,137.5l-.17-.06a7.79,7.79,0,0,1-1.84-1.08,16,16,0,0,1-3.14-3.36s-1.73,1.1-5.77,1c-5.37-.11-7-1-9.58-1.45h0l-.24,0h0a5.67,5.67,0,0,0-1-.07l1,.1v2.27c3.64,3.06,10.94,5.83,13.84,5.89a2.72,2.72,0,0,0,.76-.08,20.5,20.5,0,0,0,2.9-1.34h0C142.61,138.78,143.73,138.17,144.89,137.5Z"/><path class="cls-98" d="M141.54,139.21c-3.23-3.51-17.67-5.15-17.67-5.15l-2.57,2.45c.7,5.67,4.18,13.77,6.43,16.17a2.75,2.75,0,0,0,.65.55c2.15,1.24,18.17,5.83,19.11,4.7C148.15,157.13,144.44,142.35,141.54,139.21Z"/><path class="cls-99" d="M141.54,139.21c-3.23-3.51-17.67-5.15-17.67-5.15l-2.57,2.45c.7,5.67,4.18,13.77,6.43,16.17-4.44-8.83,6.19-13,6.19-13s2.26-.66,5.52,1.56c1.87,1.27,6,7,8.05,16.73C148.15,157.13,144.44,142.35,141.54,139.21Z"/><path class="cls-100" d="M135.41,147.29c-7.46-2-12.25-12.55-12.25-12.55s6.28,7,10.57,9.52S136.38,147.55,135.41,147.29Z"/><path class="cls-101" d="M135.37,145.4c-5.16-2.94-12.21-10.66-12.21-10.66Z"/><path class="cls-102" d="M131.48,154.43c.52-2.79,14.35,3.62,12.12,3.23C139.26,156.9,131.48,154.43,131.48,154.43Z"/><path class="cls-103" d="M151.34,120.79c.59-1.41-7.65-16.76-11.06-23a57.09,57.09,0,0,0,0-6.88c3.41-6.23,11.1-21.4,11.06-23a25.47,25.47,0,0,0,0-2.9c-.58-1.38-18.05-6.31-25-8.23a58.5,58.5,0,0,0-6.46-6.33c-1.75-6.37-7-25.13-8.43-25.73C109.72,24,87.24,36.47,85.91,37.2c-.91,0-1.82-.07-2.74-.07s-1.84,0-2.75.07C79.09,36.47,56.61,24,54.88,24.74c-1.43.6-6.68,19.36-8.43,25.73A57.55,57.55,0,0,0,40,56.8C33,58.72,15.57,63.65,15,65a25.47,25.47,0,0,0,0,2.9c0,2.07,7.66,16.76,11.06,23a38.14,38.14,0,0,0,0,6.88c-3.4,6.23-11.65,21.58-11.06,23,.06.14-.12,2.61,0,2.9.58,1.39,18,6.32,25,8.23a57.64,57.64,0,0,0,6.45,6.34c1.75,6.36,7,25.12,8.43,25.73,1.73.72,24.21-11.73,25.54-12.46.91,0,1.82.06,2.75.06s1.83,0,2.74-.07c1.33.74,23.81,13.19,25.54,12.47,1.43-.61,6.68-19.37,8.43-25.73a58.59,58.59,0,0,0,6.46-6.34c6.95-1.91,24.42-6.84,25-8.23C151.46,123.4,151.28,120.93,151.34,120.79Zm-25-26.43A43.14,43.14,0,1,1,83.17,51.24,43.13,43.13,0,0,1,126.3,94.36Z"/><path class="cls-104" d="M73.29,150.77l.61.11A37.78,37.78,0,0,1,68.61,154h0c-1,.5-2,1-3,1.34l-.09,0A47.73,47.73,0,0,1,57.11,158h0v0a60.78,60.78,0,0,1-4.75-12.76s0,0,0,0l0-.14c-.27-1.08-.49-2.06-.66-2.92l.45.3.75.48.63.38a56.85,56.85,0,0,0,19.18,7.33Z"/><path class="cls-105" d="M73,150.73c-3,2-8.91,5.32-15.45,6.29,0,0-2.74-4.29-4.74-14.07l.63.38a56.85,56.85,0,0,0,19.18,7.33Z"/><path class="cls-106" d="M73.29,150.77A25,25,0,0,1,68.61,154h0a28.91,28.91,0,0,1-3,1.34l-.09,0A66.63,66.63,0,0,1,57.11,158h0v0a56,56,0,0,1-4.75-12.76s0,0,0,0l0-.14a11.79,11.79,0,0,1-.21-2.62l.75.48.63.38a34.09,34.09,0,0,0,5.13,9.42,27.52,27.52,0,0,0,14.05-2.09Z"/><path class="cls-107" d="M114.69,142.17c-.17.86-.39,1.84-.66,2.92l0,.14s0,0,0,0A60.78,60.78,0,0,1,109.24,158v0h0a47.26,47.26,0,0,1-8.45-2.63l-.08,0c-1-.4-2-.85-3-1.35a39.29,39.29,0,0,1-5.28-3.15l.61-.11.65-.11a57,57,0,0,0,19.18-7.33l.62-.38.75-.48Z"/><path class="cls-108" d="M113.49,143.15c-2,9.79-4.73,14.07-4.73,14.07-6.55-1-12.41-4.29-15.46-6.29h0l.39-.07a56.8,56.8,0,0,0,19.18-7.33Z"/><path class="cls-109" d="M114,145.09l0,.14s0,0,0,0A56,56,0,0,1,109.24,158v0h0a65.65,65.65,0,0,1-8.45-2.63l-.08,0a28.91,28.91,0,0,1-3-1.34h0A25.19,25.19,0,0,1,93,150.77l.65-.11a27.48,27.48,0,0,0,14,2.09,34.39,34.39,0,0,0,5.14-9.42l.62-.38.75-.48A11.79,11.79,0,0,1,114,145.09Z"/><path class="cls-110" d="M73.29,38l.61-.1a37.78,37.78,0,0,0-5.29-3.15l0,0c-1-.49-2-.94-3-1.33l-.09,0a49.35,49.35,0,0,0-8.44-2.63h0v0a60.78,60.78,0,0,0-4.75,12.76s0,0,0,0l0,.14c-.27,1.07-.49,2.06-.66,2.92l.45-.3.75-.48.63-.38a56.64,56.64,0,0,1,19.18-7.33Z"/><path class="cls-111" d="M73,38.06c-3-2-8.91-5.32-15.45-6.29,0,0-2.74,4.29-4.74,14.07l.63-.38a56.64,56.64,0,0,1,19.18-7.33Z"/><path class="cls-112" d="M73.29,38a25,25,0,0,0-4.68-3.25l0,0a31.37,31.37,0,0,0-3-1.33l-.09,0a66.57,66.57,0,0,0-8.44-2.63h0v0a56,56,0,0,0-4.75,12.76s0,0,0,0l0,.14a11.79,11.79,0,0,0-.21,2.62l.75-.48.63-.38A34.14,34.14,0,0,1,58.6,36a27.47,27.47,0,0,1,14.05,2.1Z"/><path class="cls-113" d="M67.27,30.15c-5.71-2.09-11.75-4-11.75-4-1.85,2.86-5.83,13.09-6,13.57,2.09-7.11,4.48-14.6,5.39-15s6.55,2.4,12.37,5.4Z"/><path class="cls-114" d="M93.06,38l-.61-.1a38.27,38.27,0,0,1,5.28-3.15l0,0c1-.49,2-.94,2.95-1.33l.09,0a49.06,49.06,0,0,1,8.44-2.63h0v0A60.31,60.31,0,0,1,114,43.52a.08.08,0,0,0,0,0l0,.14c.27,1.07.49,2.06.66,2.92l-.45-.3-.75-.48-.63-.38A56.72,56.72,0,0,0,93.7,38.13Z"/><path class="cls-115" d="M93.32,38.06c3.05-2,8.91-5.32,15.45-6.29,0,0,2.74,4.29,4.74,14.07l-.63-.38A56.72,56.72,0,0,0,93.7,38.13Z"/><path class="cls-116" d="M93.06,38a25.23,25.23,0,0,1,4.67-3.25l0,0a31.37,31.37,0,0,1,2.95-1.33l.09,0a66.57,66.57,0,0,1,8.44-2.63h0v0A55.76,55.76,0,0,1,114,43.52a.08.08,0,0,0,0,0l0,.14a11.79,11.79,0,0,1,.21,2.62l-.75-.48-.63-.38A34.67,34.67,0,0,0,107.75,36a27.47,27.47,0,0,0-14,2.1Z"/><path class="cls-117" d="M99.08,30.15c5.7-2.09,11.75-4,11.75-4,1.85,2.86,5.83,13.09,6,13.57-2.09-7.11-4.49-14.6-5.39-15s-6.56,2.4-12.38,5.4Z"/><path class="cls-118" d="M129.79,61.25l-.36-.51a38.47,38.47,0,0,1,6,1.5h0c1.07.36,2.08.74,3,1.14l.08,0a49,49,0,0,1,7.84,4.1h0a60.56,60.56,0,0,1-5.65,12.39.05.05,0,0,1,0,0l-.07.12c-.57,1-1.11,1.81-1.6,2.54,0-.18-.07-.36-.11-.53s-.13-.58-.19-.87-.12-.48-.17-.72a57,57,0,0,0-8.41-18.73Z"/><path class="cls-119" d="M129.94,61.46c3.57.74,10.06,2.53,15.38,6.46,0,0-1.09,5-6.58,13.31-.06-.24-.12-.48-.17-.72a57,57,0,0,0-8.41-18.73Z"/><path class="cls-120" d="M129.79,61.25a25.13,25.13,0,0,1,5.6,1h0a31.52,31.52,0,0,1,3,1.14l.08,0a69.52,69.52,0,0,1,7.84,4.1h0a56.1,56.1,0,0,1-5.65,12.39.05.05,0,0,1,0,0l-.07.12a11.84,11.84,0,0,1-1.71,2c-.06-.29-.13-.58-.19-.87s-.12-.48-.17-.72a34.37,34.37,0,0,0,3-10.29,27.4,27.4,0,0,0-11.42-8.44Z"/><path class="cls-121" d="M139.39,60.56c5.13,2.31,10.37,5,10.37,5-.63,3.09-4.63,12.45-4.81,12.89,3.22-6.07,6.5-12.58,6.15-13.41s-5.9-2.67-11.7-4.45Z"/><path class="cls-122" d="M129.79,127.43l-.36.5a37.37,37.37,0,0,0,6-1.5h0c1.07-.36,2.08-.74,3-1.13a.2.2,0,0,1,.08,0,49,49,0,0,0,7.84-4.1h0v0a60.82,60.82,0,0,0-5.65-12.39.08.08,0,0,0,0,0l-.07-.12c-.57-1-1.11-1.8-1.6-2.53,0,.17-.07.35-.11.53s-.13.58-.19.86-.12.48-.17.72a56.9,56.9,0,0,1-8.41,18.73Z"/><path class="cls-123" d="M129.94,127.21c3.57-.74,10.06-2.53,15.38-6.46,0,0-1.09-5-6.58-13.31-.06.24-.12.48-.17.72a56.9,56.9,0,0,1-8.41,18.73Z"/><path class="cls-124" d="M129.79,127.43a25.25,25.25,0,0,0,5.6-1h0a31.26,31.26,0,0,0,3-1.13.2.2,0,0,1,.08,0,66.38,66.38,0,0,0,7.84-4.1h0v0a56.32,56.32,0,0,0-5.65-12.39.08.08,0,0,0,0,0l-.07-.12a11.78,11.78,0,0,0-1.71-2c-.06.29-.13.58-.19.86s-.12.48-.17.72a34.43,34.43,0,0,1,3,10.3,27.43,27.43,0,0,1-11.42,8.43Z"/><path class="cls-125" d="M139.39,128.12c5.13-2.32,10.37-5,10.37-5-.63-3.09-4.63-12.45-4.81-12.88,3.22,6.06,6.5,12.57,6.15,13.4s-5.9,2.67-11.7,4.46Z"/><path class="cls-126" d="M36.28,61.25l.36-.51a38.6,38.6,0,0,0-6,1.5h0c-1.06.36-2.08.74-3,1.14l-.09,0a48.1,48.1,0,0,0-7.83,4.1h0a60.05,60.05,0,0,0,5.64,12.39s0,0,0,0l.08.12c.57,1,1.11,1.81,1.59,2.54,0-.18.08-.36.11-.53s.13-.58.2-.87.11-.48.17-.72a57,57,0,0,1,8.41-18.73Z"/><path class="cls-127" d="M36.12,61.46c-3.56.74-10.06,2.53-15.38,6.46,0,0,1.09,5,6.59,13.31.05-.24.11-.48.17-.72a57,57,0,0,1,8.41-18.73Z"/><path class="cls-128" d="M36.28,61.25a25.29,25.29,0,0,0-5.61,1h0a31.41,31.41,0,0,0-3,1.14l-.09,0a69.43,69.43,0,0,0-7.83,4.1h0a55.22,55.22,0,0,0,5.64,12.39s0,0,0,0l.08.12a12.25,12.25,0,0,0,1.7,2c.07-.29.13-.58.2-.87s.11-.48.17-.72a34.09,34.09,0,0,1-3-10.29,27.48,27.48,0,0,1,11.43-8.44Z"/><path class="cls-129" d="M26.67,60.56c-5.13,2.31-10.36,5-10.36,5,.62,3.09,4.66,12.82,4.85,13.26C18,73,14.73,65.34,15,65c.49-.68,5.89-2.67,11.69-4.45Z"/><path class="cls-130" d="M36.28,127.43l.36.5a37.5,37.5,0,0,1-6-1.5h0c-1.06-.36-2.08-.74-3-1.13l-.09,0a48.1,48.1,0,0,1-7.83-4.1h0v0a60.3,60.3,0,0,1,5.64-12.39.08.08,0,0,0,0,0l.08-.12c.57-1,1.11-1.8,1.59-2.53,0,.17.08.35.11.53s.13.58.2.86.11.48.17.72a56.9,56.9,0,0,0,8.41,18.73Z"/><path class="cls-131" d="M36.12,127.21c-3.56-.74-10.06-2.53-15.38-6.46,0,0,1.09-5,6.59-13.31.05.24.11.48.17.72a56.9,56.9,0,0,0,8.41,18.73Z"/><path class="cls-132" d="M36.28,127.43a25.42,25.42,0,0,1-5.61-1h0a31.15,31.15,0,0,1-3-1.13l-.09,0a66.3,66.3,0,0,1-7.83-4.1h0v0a55.44,55.44,0,0,1,5.64-12.39.08.08,0,0,0,0,0l.08-.12a12.19,12.19,0,0,1,1.7-2c.07.29.13.58.2.86s.11.48.17.72a34.15,34.15,0,0,0-3,10.3,27.51,27.51,0,0,0,11.43,8.43Z"/><path class="cls-133" d="M26.67,128.12c-5.13-2.32-10.36-5-10.36-5,.62-3.09,4.62-12.45,4.81-12.88-3.23,6.06-6.51,12.57-6.15,13.4s5.89,2.67,11.69,4.46Z"/><path class="cls-134" d="M136.38,115.42a57.24,57.24,0,0,1-104.95,3.39C52.52,138.25,95.4,156.4,136.38,115.42Z"/><path class="cls-135" d="M133,130.06c-2.58.74-4.93,1.39-6.64,1.86a58.59,58.59,0,0,1-6.46,6.34c-.5,1.82-1.29,4.66-2.19,7.79a70.74,70.74,0,0,1-22.2,10.66c-4.84-2.56-9-4.88-9.58-5.19-.91,0-1.82.07-2.74.07s-1.84,0-2.75-.06c-.56.3-4.87,2.69-9.8,5.3a63.84,63.84,0,0,1-21.85-10.34c-1-3.31-1.79-6.33-2.32-8.23A57.64,57.64,0,0,1,40,131.92c-1.44-.39-3.32-.91-5.4-1.51a28.94,28.94,0,0,1-3.17-11.6c15.19,25.12,66.17,55,105-3.39C137.11,120.22,135.77,125.23,133,130.06Z"/><path class="cls-136" d="M83.17,37.13a57.24,57.24,0,0,0-54.83,40.8C37.7,57.23,59,47.27,83.17,47.27c26.39,0,48.35,12.69,56.22,36.44A57.23,57.23,0,0,0,83.17,37.13Z"/><path class="cls-137" d="M83.17,47.27a47.08,47.08,0,1,0,47.08,47.08A47.08,47.08,0,0,0,83.17,47.27Zm0,90.21A43.14,43.14,0,1,1,126.3,94.35,43.13,43.13,0,0,1,83.17,137.48Z"/><path class="cls-138" d="M45.27,122.29s12.61,15.19,37.9,15.19,37.89-15.19,37.89-15.19-12.3,19.83-37.89,19.83S45.27,122.29,45.27,122.29Z"/><path class="cls-139" d="M45.27,122.29a47.08,47.08,0,0,0,75.79,0s-12.3,19.83-37.89,19.83S45.27,122.29,45.27,122.29Z"/><path class="cls-140" d="M128.49,81.54c-1.11-.63-2.82-1.67-5.32-3.34h0A43.15,43.15,0,0,0,42.6,79.66a42.13,42.13,0,0,1-5.55,5.13,47.1,47.1,0,0,1,91.44-3.25Z"/><path class="cls-141" d="M83.17,42.61C81.29,45,96.23,49,98,47.27s.11-4.24-3.26-4.66S84.64,40.72,83.17,42.61Z"/><path class="cls-141" d="M79.83,142c-1.08-2,10.69-4,12.34-2.57s-1.29,2.06-1.29,2.06Z"/><ellipse class="cls-142" cx="94.41" cy="40.14" rx="11.86" ry="16.5" transform="translate(21.19 112) rotate(-67.5)"/><ellipse class="cls-143" cx="63.13" cy="146.36" rx="6.63" ry="10.05" transform="matrix(0.26, -0.97, 0.97, 0.26, -94.5, 170.03)"/><path class="cls-144" d="M151.08,67.93c0,1.59-7.65,16.76-11.06,23l-.23-3.71s9.69-15.06,11.05-22.2l.29.6h0C151.15,66.43,151.08,67.83,151.08,67.93Z"/><path class="cls-145" d="M151.34,123.69a.77.77,0,0,1-.18.21l-.06-.24c-2.32-8.47-11-22.17-11-22.17l.23-3.69c3.41,6.23,11.65,21.58,11.06,23C151.28,120.93,151.46,123.4,151.34,123.69Z"/><path class="cls-146" d="M26.13,97.8v4.27a105.18,105.18,0,0,0-11.08,21.56c-.09-.47.07-2.71,0-2.84C14.48,119.38,22.72,104,26.13,97.8Z"/><path class="cls-147" d="M26.13,86.43v4.49C22.72,84.69,15,70,15.07,67.93a24.7,24.7,0,0,1,0-2.87C20,78.84,26.13,86.43,26.13,86.43Z"/><path class="cls-148" d="M77.87,151.32l2.55.21c-1.32.73-23.81,13.18-25.53,12.45-.42-.17-1.16-1.88-2-4.37.09.2,1.67,3.44,2.51,3.44S77.87,151.32,77.87,151.32Z"/><path class="cls-149" d="M113.48,159.62c-.88,2.49-1.62,4.19-2,4.36-1.73.73-24.21-11.72-25.54-12.46l3.19-.26s15.15,9.5,21.32,11.4C112,163.14,113.36,159.91,113.48,159.62Z"/><path class="cls-150" d="M126,113.86a11.39,11.39,0,0,0-2-5.58s2.1-5.29,1.89-8.55l14.42-.33,3.91-10.77s5.37,4.13,4.32,10.77-2.95,8.34-2.95,8.34l-1.6.54a11.18,11.18,0,0,1-6.87,5.58S133.58,116.93,126,113.86Z"/><path class="cls-151" d="M124.87,90.51c-4.7,7.91.74,16.3,8.12,17.61S148.91,102.59,146.1,93,129,83.57,124.87,90.51Z"/><path class="cls-152" d="M129.78,88.45c-4.09,2.11-5.67,9.26-2.1,13.68s11.94,5,15.32-1.26C146.65,94.18,140,83.17,129.78,88.45Z"/><path class="cls-153" d="M143.24,96.15a8.42,8.42,0,1,1-8.42-8.42A8.42,8.42,0,0,1,143.24,96.15Z"/><path class="cls-154" d="M143,95.84a8.19,8.19,0,1,1-8.18-8.18A8.18,8.18,0,0,1,143,95.84Z"/><path class="cls-155" d="M143,95.84a8.19,8.19,0,1,1-14.09-5.67A7.1,7.1,0,0,0,127.8,94,6.63,6.63,0,1,0,141,94a7,7,0,0,0-2.65-5.52A8.17,8.17,0,0,1,143,95.84Z"/><circle class="cls-156" cx="134.42" cy="94.3" r="5.1"/><path class="cls-157" d="M134.16,91.55c-.1.87,2.34,1.88,3.08,1.88,0,0,1.61-1.54,1-3,0,0-1.77-1.41-3.37-1A5.62,5.62,0,0,0,134.16,91.55Z"/><path class="cls-158" d="M133,108.12a12,12,0,0,1-9.86-11.82c.79,6.64,5.62,12.42,15.26,10.14,1.18-.28,7.72-3.3,8.26-10.16C146.92,104.08,139.49,109.27,133,108.12Z"/><path class="cls-159" d="M145.7,92c-.41,1-5.54-4-4.87-5.06h0A10,10,0,0,1,145.7,92Z"/><ellipse class="cls-160" cx="134.68" cy="95.8" rx="19" ry="8.38" transform="translate(3.97 196.94) rotate(-73.15)"/><path class="cls-161" d="M40.3,113.86a11.52,11.52,0,0,1,2-5.58s-2.1-5.29-1.89-8.55L26,99.4,22.11,88.63S16.74,92.76,17.8,99.4s2.94,8.34,2.94,8.34l1.61.54a11.18,11.18,0,0,0,6.87,5.58S32.68,116.93,40.3,113.86Z"/><path class="cls-162" d="M20.58,90.51c-4.7,7.91.74,16.3,8.12,17.61S44.63,102.59,41.81,93,24.71,83.57,20.58,90.51Z"/><path class="cls-163" d="M25.49,88.45c-4.09,2.11-5.66,9.26-2.09,13.68s11.93,5,15.32-1.26C42.36,94.18,35.74,83.17,25.49,88.45Z"/><circle class="cls-164" cx="30.63" cy="96.43" r="8.5"/><circle class="cls-165" cx="30.13" cy="95.93" r="8" transform="translate(-70.03 87.06) rotate(-67.5)"/><path class="cls-166" d="M38.72,95.84a8.19,8.19,0,1,1-14.09-5.67A7,7,0,0,0,23.52,94a6.63,6.63,0,1,0,13.24,0,7,7,0,0,0-2.66-5.52A8.18,8.18,0,0,1,38.72,95.84Z"/><path class="cls-167" d="M35.24,94.3a5.1,5.1,0,1,1-5.1-5.1A5.1,5.1,0,0,1,35.24,94.3Z"/><path class="cls-168" d="M29.87,91.55c-.1.87,2.35,1.88,3.09,1.88,0,0,1.61-1.54,1-3,0,0-1.77-1.41-3.37-1A5.62,5.62,0,0,0,29.87,91.55Z"/><path class="cls-169" d="M28.7,108.12A12,12,0,0,1,18.83,96.3c.79,6.64,5.62,12.42,15.27,10.14,1.17-.28,7.71-3.3,8.25-10.16C42.63,104.08,35.21,109.27,28.7,108.12Z"/><path class="cls-170" d="M41.41,92c-.41,1-5.54-4-4.86-5.06h0A9.92,9.92,0,0,1,41.41,92Z"/><ellipse class="cls-171" cx="29.99" cy="94.25" rx="20.04" ry="7.89" transform="translate(-68.14 81.86) rotate(-65.15)"/><path class="cls-172" d="M76.48,151.18l.6.57-.76,2-3,6.45,1.33,3.44,4.3,4,4.26,3.52,6.62-5.64,2-4.34-2.44-7.83.24-1.84-.49-.31A43.69,43.69,0,0,1,76.48,151.18Z"/><path class="cls-173" d="M90.46,161.18c-1.9,4.63-7.28,10-7.28,10s-5.54-5.24-7.57-9.81c1.89-4.63,7.27-10.15,7.27-10.15S88.42,156.62,90.46,161.18Z"/><path class="cls-174" d="M75.61,161.41c2,4.57,7.57,9.81,7.57,9.81l.31-2.52a30.93,30.93,0,0,1-6-7.21A8.73,8.73,0,0,0,75.61,161.41Z"/><path class="cls-175" d="M83.5,168.7s-4.44-3.9-6-7.21a22.43,22.43,0,0,1,5.6-7.72,20.92,20.92,0,0,1,6.24,7.43A33,33,0,0,1,83.5,168.7Z"/><path class="cls-176" d="M79.06,161.54a14.34,14.34,0,0,0,4.52,5.27,18.5,18.5,0,0,0,4.11-5.39A34.66,34.66,0,0,0,83.3,156,64.54,64.54,0,0,0,79.06,161.54Z"/><path class="cls-177" d="M79.06,161.93l8.63-.12a38.54,38.54,0,0,0-4.39-5.42A63.46,63.46,0,0,0,79.06,161.93Z"/><polygon class="cls-178" points="85.08 161.41 83.44 159.35 81.68 161.46 83.41 163.48 85.08 161.41"/><polygon class="cls-179" points="86.78 160.93 84.8 160.96 83.13 163.03 83.17 165.41 86.78 160.93"/><polygon class="cls-180" points="83.13 156.49 83.17 158.87 84.81 160.93 86.8 160.9 83.13 156.49"/><polygon class="cls-181" points="81.4 161.9 83.13 163.92 83.17 166.3 79.41 161.93 81.4 161.9"/><polygon class="cls-182" points="83.13 157.44 83.17 159.82 81.41 161.93 79.42 161.96 83.13 157.44"/><path class="cls-183" d="M86.91,156.19c-.13.38-1.59-1.43-1.38-1.66S87.08,155.69,86.91,156.19Z"/><path class="cls-184" d="M84.26,160.38c-.82-.52-1.25.34-1,.86s1.68.64,1.24-.59Z"/><path class="cls-185" d="M42.58,45.84S36.2,49.1,31.66,59.16l2.44-.71,2.18,2.8,1.08-1.19a36.47,36.47,0,0,0,5,8.2,55.78,55.78,0,0,0,5.8-6.8,58.82,58.82,0,0,0,3.48-6.78,11.52,11.52,0,0,0-4-3.55Z"/><path class="cls-186" d="M50.71,54.94c-1.9,4.63-7.27,10-7.27,10s-5.54-5.24-7.58-9.81C37.76,50.54,43.14,45,43.14,45S48.68,50.38,50.71,54.94Z"/><path class="cls-187" d="M35.86,55.17c2,4.57,7.57,9.81,7.57,9.81l.32-2.52a31.1,31.1,0,0,1-6-7.21A8.73,8.73,0,0,0,35.86,55.17Z"/><path class="cls-188" d="M43.75,62.46s-4.43-3.9-6-7.21a22.43,22.43,0,0,1,5.6-7.72A20.89,20.89,0,0,1,49.61,55,33.21,33.21,0,0,1,43.75,62.46Z"/><path class="cls-189" d="M39.32,55.3a14.37,14.37,0,0,0,4.51,5.27A18.43,18.43,0,0,0,48,55.18a34.43,34.43,0,0,0-4.4-5.43A63.44,63.44,0,0,0,39.32,55.3Z"/><path class="cls-190" d="M39.32,54.93,48,54.81a38.33,38.33,0,0,0-4.4-5.42A62.39,62.39,0,0,0,39.32,54.93Z"/><polygon class="cls-191" points="45.34 55.17 43.69 53.11 41.94 55.22 43.67 57.24 45.34 55.17"/><polygon class="cls-192" points="47.78 54.93 45.8 54.96 44.13 57.03 44.16 59.41 47.78 54.93"/><polygon class="cls-193" points="44.13 50.49 44.16 52.87 45.81 54.93 47.8 54.9 44.13 50.49"/><polygon class="cls-194" points="42.4 54.9 44.13 56.92 44.16 59.3 40.41 54.93 42.4 54.9"/><polygon class="cls-195" points="44.13 50.44 44.16 52.82 42.41 54.93 40.42 54.96 44.13 50.44"/><path class="cls-196" d="M47.17,50c-.14.38-1.59-1.43-1.38-1.66S47.34,49.45,47.17,50Z"/><path class="cls-197" d="M44.51,54.14c-.82-.52-1.24.34-1,.86s1.67.64,1.24-.59Z"/><path class="cls-198" d="M123.4,45.84s6.37,3.26,10.92,13.32l-2.44-.71-2.18,2.8-1.08-1.19a36.89,36.89,0,0,1-5,8.2,54.86,54.86,0,0,1-5.8-6.8,58.82,58.82,0,0,1-3.48-6.78,11.52,11.52,0,0,1,4-3.55Z"/><path class="cls-199" d="M128.75,54.94c-1.89,4.63-7.27,10-7.27,10s-5.54-5.24-7.58-9.81c1.9-4.63,7.28-10.15,7.28-10.15S126.72,50.38,128.75,54.94Z"/><path class="cls-200" d="M113.9,55.17c2,4.57,7.58,9.81,7.58,9.81l.31-2.52a31.1,31.1,0,0,1-6-7.21A8.73,8.73,0,0,0,113.9,55.17Z"/><path class="cls-201" d="M121.79,62.46s-4.43-3.9-6-7.21a22.43,22.43,0,0,1,5.6-7.72A20.89,20.89,0,0,1,127.65,55,33.21,33.21,0,0,1,121.79,62.46Z"/><path class="cls-202" d="M117.36,55.3a14.37,14.37,0,0,0,4.51,5.27A18.43,18.43,0,0,0,126,55.18a34.43,34.43,0,0,0-4.4-5.43A63.44,63.44,0,0,0,117.36,55.3Z"/><path class="cls-203" d="M117.36,54.93l8.63-.12a38.33,38.33,0,0,0-4.4-5.42A62.39,62.39,0,0,0,117.36,54.93Z"/><polygon class="cls-204" points="123.38 55.17 121.73 53.11 119.98 55.22 121.71 57.24 123.38 55.17"/><polygon class="cls-205" points="125.78 54.93 123.8 54.96 122.13 57.03 122.17 59.41 125.78 54.93"/><polygon class="cls-206" points="122.13 50.49 122.17 52.87 123.81 54.93 125.8 54.9 122.13 50.49"/><polygon class="cls-207" points="120.4 54.9 122.13 56.92 122.17 59.3 118.41 54.93 120.4 54.9"/><polygon class="cls-208" points="122.13 50.44 122.17 52.82 120.41 54.93 118.42 54.96 122.13 50.44"/><path class="cls-209" d="M125.21,50c-.13.38-1.59-1.43-1.38-1.66S125.38,49.45,125.21,50Z"/><path class="cls-210" d="M122.55,54.14c-.81-.52-1.24.34-1,.86s1.68.64,1.24-.59Z"/><path class="cls-211" d="M105.65,3.31c.57-.54.6-3.31.6-3.31s.09,2.91.45,3.22a10.7,10.7,0,0,0,2.45.71,7.33,7.33,0,0,0-2.38.41,14.89,14.89,0,0,0-.52,3.08s-.2-2.53-.59-2.9a6.67,6.67,0,0,0-2.15-.59A5.75,5.75,0,0,0,105.65,3.31Z"/><path class="cls-212" d="M113.4,9c.32-.31.34-1.87.34-1.87A6.12,6.12,0,0,0,114,9a6.32,6.32,0,0,0,1.38.4,4,4,0,0,0-1.34.23,8.18,8.18,0,0,0-.29,1.74,5.38,5.38,0,0,0-.34-1.64,3.81,3.81,0,0,0-1.21-.33A3.41,3.41,0,0,0,113.4,9Z"/><path class="cls-213" d="M54.59,7.51c1.11-1.06,1.18-6.46,1.18-6.46s.16,5.68.86,6.29,4.78,1.37,4.78,1.37-3.91.15-4.63.81c-.51.45-1,6-1,6s-.4-4.94-1.16-5.65-4.18-1.16-4.18-1.16S53.73,8.32,54.59,7.51Z"/><path class="cls-214" d="M111,106.37a24.52,24.52,0,0,0-2.73-.21,13.56,13.56,0,0,1-9.16-6.74,13.15,13.15,0,0,1-1-9.91c1.31-4.36,3-6,6.36-7.79a12.25,12.25,0,0,1,4.22-1.42,13.47,13.47,0,0,0,2.3-.21.88.88,0,0,0,.63-.52c0-.09,0-.26-.05-.31-.56-.53-3.28-.56-4.18-.79a13.15,13.15,0,0,1-9.77-11.68c0-.47.11-1.46-.21-1.79a1.55,1.55,0,0,0-.82-.11.49.49,0,0,0-.31.41c-.19.88,0,1.87-.2,2.77a13.31,13.31,0,0,1-5.66,8.59,13,13,0,0,1-9.67,2A13.13,13.13,0,0,1,70.12,66.11c0-.41,0-1-.3-1.22a4.39,4.39,0,0,0-.89,0c-.17,1.11-.15,2.24-.35,3.35a13.24,13.24,0,0,1-5.25,8.21c-2.54,1.84-4.93,2.27-8,2.5a.7.7,0,0,0-.56.26,1.49,1.49,0,0,0,.12.81,27.75,27.75,0,0,0,3.76.52,13.2,13.2,0,0,1,9.46,8.62,13,13,0,0,1-.71,10,13.25,13.25,0,0,1-7.55,6.57c-1.79.58-2.88.36-4.47.69a.91.91,0,0,0-.58.3.86.86,0,0,0,.06.63c.8.73,2.76.36,3.81.63a13.41,13.41,0,0,1,10.14,12.23,3.69,3.69,0,0,0,.13,1.41,1,1,0,0,0,.69.12,1,1,0,0,0,.45-.77c.12-.76,0-1.54.16-2.3a13.41,13.41,0,0,1,5.22-8.45,13.15,13.15,0,0,1,9.87-2.34A13,13,0,0,1,93.74,113a13.35,13.35,0,0,1,2.52,7.64c0,.34,0,.82.4.91a3.67,3.67,0,0,0,.74,0c.42-.73.19-2.26.35-3.14a13.19,13.19,0,0,1,9.4-10.37,13.94,13.94,0,0,1,2.81-.44,11.14,11.14,0,0,0,1.16,0,.48.48,0,0,0,.36-.24.86.86,0,0,0,0-.5C111.39,106.61,111.32,106.47,111,106.37ZM93.19,101.6a12.93,12.93,0,0,1-8.71,4.63A13,13,0,0,1,73,85.11a13.3,13.3,0,0,1,9.1-4.9A13.05,13.05,0,0,1,93.19,101.6Z"/><path class="cls-215" d="M110,105.7a26.94,26.94,0,0,0-2.73-.21,13.53,13.53,0,0,1-9.16-6.74,13,13,0,0,1,5.36-17.69,11.8,11.8,0,0,1,4.21-1.42,14.57,14.57,0,0,0,2.3-.22.88.88,0,0,0,.63-.52c0-.08,0-.26,0-.31-.56-.52-3.28-.56-4.18-.79a13.14,13.14,0,0,1-9.77-11.67c0-.47.11-1.47-.21-1.8a1.78,1.78,0,0,0-.82-.11.49.49,0,0,0-.31.41c-.19.88,0,1.87-.2,2.77A13.31,13.31,0,0,1,89.44,76a12.93,12.93,0,0,1-9.67,2A13.11,13.11,0,0,1,69.14,65.44c0-.4,0-1-.3-1.22a5.19,5.19,0,0,0-.88,0c-.18,1.11-.16,2.24-.36,3.36a13.19,13.19,0,0,1-5.25,8.2c-2.54,1.84-4.93,2.28-8,2.5a.68.68,0,0,0-.56.27,1.46,1.46,0,0,0,.12.8c.65.33,2.86.34,3.76.52a13.24,13.24,0,0,1,9.46,8.62,13,13,0,0,1-.71,10A13.24,13.24,0,0,1,58.89,105c-1.79.58-2.88.36-4.47.7a.57.57,0,0,0-.52.92c.8.74,2.76.37,3.81.64a13.39,13.39,0,0,1,10.14,12.23,3.64,3.64,0,0,0,.13,1.4,1,1,0,0,0,.69.13,1,1,0,0,0,.45-.78c.12-.76,0-1.54.16-2.3a13.36,13.36,0,0,1,5.23-8.44,13.16,13.16,0,0,1,9.86-2.35,13,13,0,0,1,8.39,5.22A13.29,13.29,0,0,1,95.28,120c0,.33,0,.82.4.91a4.58,4.58,0,0,0,.74,0c.42-.73.19-2.25.35-3.14A13,13,0,0,1,109,107a8.93,8.93,0,0,0,1.16,0,.46.46,0,0,0,.36-.24.94.94,0,0,0,.06-.5C110.41,105.94,110.34,105.81,110,105.7Zm-17.82-4.77a13,13,0,0,1-8.71,4.64,13.14,13.14,0,0,1-9.36-2.72A13.05,13.05,0,1,1,90.59,82.58a13,13,0,0,1,1.62,18.35Z"/><path class="cls-141" d="M84.44,78c-.55.72,3.9,1.9,4.43,1.39s0-1.26-1-1.39S84.88,77.39,84.44,78Z"/></g></g></g></svg>