<svg xmlns="http://www.w3.org/2000/svg" xmlns:xlink="http://www.w3.org/1999/xlink" viewBox="0 0 140.56 144.68"><defs><style>.cls-1{isolation:isolate;}.cls-2{fill:url(#_1162);}.cls-11,.cls-13,.cls-16,.cls-18,.cls-20,.cls-22,.cls-24,.cls-27,.cls-29,.cls-3,.cls-31,.cls-33,.cls-35,.cls-38,.cls-40,.cls-41,.cls-43,.cls-45,.cls-47,.cls-52,.cls-55,.cls-58,.cls-6,.cls-61,.cls-64,.cls-67,.cls-7,.cls-70,.cls-73,.cls-9{opacity:0.5;}.cls-11,.cls-13,.cls-16,.cls-18,.cls-20,.cls-22,.cls-24,.cls-27,.cls-29,.cls-3,.cls-31,.cls-33,.cls-35,.cls-38,.cls-40,.cls-41,.cls-43,.cls-45,.cls-47,.cls-52,.cls-55,.cls-58,.cls-6,.cls-61,.cls-64,.cls-67,.cls-7,.cls-70,.cls-73,.cls-76,.cls-9{mix-blend-mode:multiply;}.cls-3{fill:url(#_10);}.cls-4{fill:url(#_11);}.cls-5,.cls-77{fill:#f7ffff;}.cls-5{mix-blend-mode:soft-light;}.cls-6{fill:url(#_10-2);}.cls-7{fill:#c10065;}.cls-8{fill:url(#_1162-2);}.cls-9{fill:url(#_10-3);}.cls-10{fill:url(#_11-2);}.cls-11{fill:url(#_10-4);}.cls-12{fill:url(#_1162-3);}.cls-13{fill:url(#_10-5);}.cls-14{fill:url(#_11-3);}.cls-15{fill:url(#_1162-4);}.cls-16{fill:url(#_10-6);}.cls-17{fill:url(#_11-4);}.cls-18{fill:url(#_10-7);}.cls-19{fill:url(#_1162-5);}.cls-20{fill:url(#_10-8);}.cls-21{fill:url(#_11-5);}.cls-22{fill:url(#_10-9);}.cls-23{fill:url(#_1162-6);}.cls-24{fill:url(#_10-10);}.cls-25{fill:url(#_11-6);}.cls-26{fill:url(#_1162-7);}.cls-27{fill:url(#_10-11);}.cls-28{fill:url(#_11-7);}.cls-29{fill:url(#_10-12);}.cls-30{fill:url(#_1162-8);}.cls-31{fill:url(#_10-13);}.cls-32{fill:url(#_11-8);}.cls-33{fill:url(#_10-14);}.cls-34{fill:url(#_1162-9);}.cls-35{fill:url(#_10-15);}.cls-36{fill:url(#_11-9);}.cls-37{fill:url(#_1162-10);}.cls-38{fill:url(#_10-16);}.cls-39{fill:url(#_11-10);}.cls-40{fill:url(#_10-17);}.cls-41{fill:url(#_10-18);}.cls-42{fill:url(#_1162-11);}.cls-43{fill:url(#_10-19);}.cls-44{fill:url(#_11-11);}.cls-45{fill:url(#_10-20);}.cls-46{fill:url(#_1162-12);}.cls-47{fill:url(#_10-21);}.cls-48{fill:url(#_11-12);}.cls-49{fill:url(#_1162-13);}.cls-50{fill:url(#_11-13);}.cls-51{fill:url(#_12);}.cls-52{fill:url(#_10-22);}.cls-53{fill:url(#_11-14);}.cls-54{fill:url(#_12-2);}.cls-55{fill:url(#_10-23);}.cls-56{fill:url(#_11-15);}.cls-57{fill:url(#_1162-14);}.cls-58{fill:url(#_10-24);}.cls-59{fill:url(#_11-16);}.cls-60{fill:url(#_1162-15);}.cls-61{fill:url(#_10-25);}.cls-62{fill:url(#_11-17);}.cls-63{fill:url(#_1162-16);}.cls-64{fill:url(#_10-26);}.cls-65{fill:url(#_11-18);}.cls-66{fill:url(#_1162-17);}.cls-67{fill:url(#_10-27);}.cls-68{fill:url(#_11-19);}.cls-69{fill:url(#_1162-18);}.cls-70{fill:url(#_10-28);}.cls-71{fill:url(#_11-20);}.cls-72{fill:url(#_1162-19);}.cls-73{fill:url(#_10-29);}.cls-74{fill:url(#_9);}.cls-75{fill:url(#linear-gradient);}.cls-76{fill:#d01bdc;opacity:0.2;}.cls-78,.cls-79{opacity:0.8;mix-blend-mode:color-dodge;}.cls-78{fill:url(#_8);}.cls-79{fill:url(#_1163);}.cls-80{fill:#680a0a;}.cls-81{fill:url(#_1162-20);}.cls-82{fill:url(#_1162-21);}.cls-83{fill:url(#_9-2);}.cls-84{fill:url(#_1162-22);}.cls-85{fill:#fff;}</style><linearGradient id="_1162" x1="23.74" y1="14.92" x2="40.88" y2="14.92" gradientUnits="userSpaceOnUse"><stop offset="0" stop-color="#e5552f"/><stop offset="0.14" stop-color="#e75a34"/><stop offset="0.3" stop-color="#ed6843"/><stop offset="0.48" stop-color="#f77e5b"/><stop offset="0.49" stop-color="#f77f5c"/><stop offset="1" stop-color="#f7a66c"/></linearGradient><linearGradient id="_10" x1="23.74" y1="14.92" x2="40.88" y2="14.92" gradientUnits="userSpaceOnUse"><stop offset="0" stop-color="#b01b03"/><stop offset="0.18" stop-color="#b11e06"/><stop offset="0.31" stop-color="#b4260f"/><stop offset="0.43" stop-color="#b83520"/><stop offset="0.54" stop-color="#be4936"/><stop offset="0.64" stop-color="#c76454"/><stop offset="0.74" stop-color="#d18578"/><stop offset="0.84" stop-color="#ddaca3"/><stop offset="0.93" stop-color="#ebd7d3"/><stop offset="1" stop-color="#f7ffff"/></linearGradient><linearGradient id="_11" x1="-8673.7" y1="-1316.6" x2="-8677.46" y2="-1302.69" gradientTransform="matrix(-0.96, -0.29, -0.29, 0.96, -8643.13, -1283.31)" gradientUnits="userSpaceOnUse"><stop offset="0" stop-color="#e84e1a"/><stop offset="0.51" stop-color="#d74348"/><stop offset="1" stop-color="#c62c15"/></linearGradient><linearGradient id="_10-2" x1="23.91" y1="22.49" x2="32.18" y2="22.49" xlink:href="#_10"/><linearGradient id="_1162-2" x1="0" y1="34.26" x2="29.79" y2="34.26" xlink:href="#_1162"/><linearGradient id="_10-3" x1="0" y1="34.26" x2="29.79" y2="34.26" xlink:href="#_10"/><linearGradient id="_11-2" x1="-3308.93" y1="670.56" x2="-3320.41" y2="679.58" gradientTransform="matrix(-0.74, 0.67, 0.67, 0.74, -2895.38, 1744.69)" xlink:href="#_11"/><linearGradient id="_10-4" x1="15.77" y1="38.71" x2="29.64" y2="38.71" xlink:href="#_10"/><linearGradient id="_1162-3" x1="26.24" y1="34.61" x2="15.18" y2="13.12" xlink:href="#_1162"/><linearGradient id="_10-5" x1="5.93" y1="20.44" x2="32.2" y2="20.44" xlink:href="#_10"/><linearGradient id="_11-3" x1="-7667.8" y1="-224.89" x2="-7680.56" y2="-214.87" gradientTransform="matrix(-1, -0.07, -0.07, 1, -7645.86, -282.39)" xlink:href="#_11"/><linearGradient id="_1162-4" x1="99.7" y1="14.92" x2="116.85" y2="14.92" xlink:href="#_1162"/><linearGradient id="_10-6" x1="99.7" y1="14.92" x2="116.85" y2="14.92" xlink:href="#_10"/><linearGradient id="_11-4" x1="863.03" y1="1623.46" x2="859.27" y2="1637.37" gradientTransform="translate(-1195.74 -1283.31) rotate(-17.13)" xlink:href="#_11"/><linearGradient id="_10-7" x1="108.39" y1="22.49" x2="116.66" y2="22.49" xlink:href="#_10"/><linearGradient id="_1162-5" x1="110.79" y1="34.26" x2="140.56" y2="34.26" xlink:href="#_1162"/><linearGradient id="_10-8" x1="110.79" y1="34.26" x2="140.56" y2="34.26" xlink:href="#_10"/><linearGradient id="_11-5" x1="4117.34" y1="-5995.32" x2="4105.87" y2="-5986.3" gradientTransform="translate(-6943.5 1744.69) rotate(41.91)" xlink:href="#_11"/><linearGradient id="_10-9" x1="110.92" y1="38.71" x2="124.8" y2="38.71" xlink:href="#_10"/><linearGradient id="_1162-6" x1="123.1" y1="41.84" x2="121.52" y2="19.72" xlink:href="#_1162"/><linearGradient id="_10-10" x1="108.36" y1="20.44" x2="134.63" y2="20.44" xlink:href="#_10"/><linearGradient id="_11-6" x1="2288.43" y1="460.75" x2="2275.68" y2="470.77" gradientTransform="translate(-2193.01 -282.39) rotate(-3.94)" xlink:href="#_11"/><linearGradient id="_1162-7" x1="23.74" y1="129.76" x2="40.88" y2="129.76" xlink:href="#_1162"/><linearGradient id="_10-11" x1="23.74" y1="129.76" x2="40.88" y2="129.76" xlink:href="#_10"/><linearGradient id="_11-7" x1="-5638.88" y1="-11160.71" x2="-5642.64" y2="-11146.8" gradientTransform="translate(-8643.13 -8873.37) rotate(162.87)" xlink:href="#_11"/><linearGradient id="_10-12" x1="23.91" y1="121.92" x2="32.18" y2="121.92" xlink:href="#_10"/><linearGradient id="_1162-8" x1="0" y1="110.15" x2="29.79" y2="110.15" xlink:href="#_1162"/><linearGradient id="_10-13" x1="0" y1="110.15" x2="29.79" y2="110.15" xlink:href="#_10"/><linearGradient id="_11-8" x1="-10189.66" y1="-6995.07" x2="-10201.14" y2="-6986.05" gradientTransform="translate(-2895.38 -11901.37) rotate(-138.09)" xlink:href="#_11"/><linearGradient id="_10-14" x1="15.77" y1="105.7" x2="29.64" y2="105.7" xlink:href="#_10"/><linearGradient id="_1162-9" x1="30.81" y1="132.09" x2="5.93" y2="116.54" xlink:href="#_1162"/><linearGradient id="_10-15" x1="5.93" y1="123.97" x2="32.2" y2="123.97" xlink:href="#_10"/><linearGradient id="_11-9" x1="-6960.07" y1="-10502.03" x2="-6972.82" y2="-10492.01" gradientTransform="translate(-7645.86 -9874.29) rotate(176.06)" xlink:href="#_11"/><linearGradient id="_1162-10" x1="99.7" y1="129.76" x2="116.85" y2="129.76" xlink:href="#_1162"/><linearGradient id="_10-16" x1="99.7" y1="129.76" x2="116.85" y2="129.76" xlink:href="#_10"/><linearGradient id="_11-10" x1="3897.86" y1="-8220.65" x2="3894.09" y2="-8206.74" gradientTransform="matrix(0.96, 0.29, 0.29, -0.96, -1195.74, -8873.37)" xlink:href="#_11"/><linearGradient id="_10-17" x1="108.39" y1="121.92" x2="116.66" y2="121.92" xlink:href="#_10"/><linearGradient id="_10-18" x1="108.64" y1="124.95" x2="116.68" y2="124.95" xlink:href="#_10"/><linearGradient id="_1162-11" x1="110.79" y1="110.15" x2="140.56" y2="110.15" xlink:href="#_1162"/><linearGradient id="_10-19" x1="110.79" y1="110.15" x2="140.56" y2="110.15" xlink:href="#_10"/><linearGradient id="_11-11" x1="-2763.39" y1="-13660.95" x2="-2774.87" y2="-13651.93" gradientTransform="matrix(0.74, -0.67, -0.67, -0.74, -6943.5, -11901.37)" xlink:href="#_11"/><linearGradient id="_10-20" x1="110.92" y1="105.7" x2="124.8" y2="105.7" xlink:href="#_10"/><linearGradient id="_1162-12" x1="116.92" y1="132.79" x2="127.5" y2="115.1" xlink:href="#_1162"/><linearGradient id="_10-21" x1="108.36" y1="123.97" x2="134.63" y2="123.97" xlink:href="#_10"/><linearGradient id="_11-12" x1="2996.17" y1="-9816.39" x2="2983.41" y2="-9806.37" gradientTransform="matrix(1, 0.07, 0.07, -1, -2193.01, -9874.29)" xlink:href="#_11"/><linearGradient id="_1162-13" x1="70.23" y1="125.06" x2="70.23" y2="-24.29" xlink:href="#_1162"/><linearGradient id="_11-13" x1="51.89" y1="119.85" x2="44.52" y2="136.49" gradientTransform="matrix(1, 0, 0, 1, 0, 0)" xlink:href="#_11"/><linearGradient id="_12" x1="50" y1="134.9" x2="50" y2="126.57" gradientUnits="userSpaceOnUse"><stop offset="0" stop-color="#f7632e"/><stop offset="1" stop-color="#f7b57e"/></linearGradient><linearGradient id="_10-22" x1="39.15" y1="128.23" x2="60.35" y2="128.23" xlink:href="#_10"/><linearGradient id="_11-14" x1="88.31" y1="118.98" x2="96.78" y2="139.16" gradientTransform="matrix(1, 0, 0, 1, 0, 0)" xlink:href="#_11"/><linearGradient id="_12-2" x1="90.46" y1="135.04" x2="90.46" y2="126.71" xlink:href="#_12"/><linearGradient id="_10-23" x1="80.11" y1="128.23" x2="101.3" y2="128.23" xlink:href="#_10"/><linearGradient id="_11-15" x1="47.03" y1="14.08" x2="52.56" y2="26.25" gradientTransform="matrix(1, 0, 0, 1, 0, 0)" xlink:href="#_11"/><linearGradient id="_1162-14" x1="45.39" y1="8.31" x2="50.23" y2="20.52" xlink:href="#_1162"/><linearGradient id="_10-24" x1="39.15" y1="16.51" x2="60.35" y2="16.51" xlink:href="#_10"/><linearGradient id="_11-16" x1="-11773.63" y1="14.08" x2="-11768.1" y2="26.25" gradientTransform="matrix(-1, 0, 0, 1, -11680.19, 0)" xlink:href="#_11"/><linearGradient id="_1162-15" x1="-11775.28" y1="8.31" x2="-11770.43" y2="20.52" gradientTransform="matrix(-1, 0, 0, 1, -11680.19, 0)" xlink:href="#_1162"/><linearGradient id="_10-25" x1="80.12" y1="16.51" x2="101.32" y2="16.51" xlink:href="#_10"/><linearGradient id="_11-17" x1="-13667.8" y1="-5297.42" x2="-13662.27" y2="-5285.26" gradientTransform="matrix(-0.71, -0.71, -0.71, 0.71, -13291.06, -5852.45)" xlink:href="#_11"/><linearGradient id="_1162-16" x1="-13669.45" y1="-5303.2" x2="-13664.6" y2="-5290.98" gradientTransform="matrix(-0.71, -0.71, -0.71, 0.71, -13291.06, -5852.45)" xlink:href="#_1162"/><linearGradient id="_10-26" x1="116.85" y1="49.65" x2="133.44" y2="49.65" xlink:href="#_10"/><linearGradient id="_11-18" x1="-6647.11" y1="-12338" x2="-6641.58" y2="-12325.83" gradientTransform="matrix(-0.71, 0.71, -0.71, -0.71, -13291.06, -3945.67)" xlink:href="#_11"/><linearGradient id="_1162-17" x1="-6648.76" y1="-12343.78" x2="-6643.91" y2="-12331.56" gradientTransform="matrix(-0.71, 0.71, -0.71, -0.71, -13291.06, -3945.67)" xlink:href="#_1162"/><linearGradient id="_10-27" x1="116.85" y1="94.98" x2="133.44" y2="94.98" xlink:href="#_10"/><linearGradient id="_11-19" x1="-6002" y1="2346.73" x2="-5996.47" y2="2358.89" gradientTransform="matrix(0.71, -0.71, 0.71, 0.71, 2605.56, -5852.45)" xlink:href="#_11"/><linearGradient id="_1162-18" x1="-6003.64" y1="2340.95" x2="-5998.8" y2="2353.17" gradientTransform="matrix(0.71, -0.71, 0.71, 0.71, 2605.56, -5852.45)" xlink:href="#_1162"/><linearGradient id="_10-28" x1="6.74" y1="49.65" x2="23.34" y2="49.65" xlink:href="#_10"/><linearGradient id="_11-20" x1="1018.69" y1="-4693.85" x2="1024.22" y2="-4681.68" gradientTransform="matrix(0.71, 0.71, 0.71, -0.71, 2605.56, -3945.67)" xlink:href="#_11"/><linearGradient id="_1162-19" x1="1017.05" y1="-4699.62" x2="1021.89" y2="-4687.41" gradientTransform="matrix(0.71, 0.71, 0.71, -0.71, 2605.56, -3945.67)" xlink:href="#_1162"/><linearGradient id="_10-29" x1="6.74" y1="94.98" x2="23.34" y2="94.98" xlink:href="#_10"/><linearGradient id="_9" x1="70.23" y1="179.6" x2="70.23" y2="26.27" gradientUnits="userSpaceOnUse"><stop offset="0" stop-color="#f36134"/><stop offset="1" stop-color="#c40721"/></linearGradient><linearGradient id="linear-gradient" x1="70.23" y1="120.03" x2="70.23" y2="99.01" gradientUnits="userSpaceOnUse"><stop offset="0" stop-color="#f7ffeb"/><stop offset="1" stop-color="#f7fcb0"/></linearGradient><radialGradient id="_8" cx="81.57" cy="21.02" r="9.03" gradientTransform="translate(0.59 0.38)" gradientUnits="userSpaceOnUse"><stop offset="0" stop-color="#f74e24"/><stop offset="0.04" stop-color="#e64921"/><stop offset="0.17" stop-color="#aa3719"/><stop offset="0.31" stop-color="#772811"/><stop offset="0.44" stop-color="#4d1b0b"/><stop offset="0.57" stop-color="#2c1206"/><stop offset="0.69" stop-color="#150b03"/><stop offset="0.8" stop-color="#070601"/><stop offset="0.9" stop-color="#020500"/></radialGradient><radialGradient id="_1163" cx="-683.43" cy="-1109.79" r="7.57" gradientTransform="matrix(1.28, 0.34, -0.22, 0.85, 679.74, 1295.24)" gradientUnits="userSpaceOnUse"><stop offset="0" stop-color="#df5a29"/><stop offset="0.16" stop-color="#af4820"/><stop offset="0.38" stop-color="#723015"/><stop offset="0.58" stop-color="#421e0c"/><stop offset="0.76" stop-color="#1f1005"/><stop offset="0.91" stop-color="#0a0801"/><stop offset="1" stop-color="#020500"/></radialGradient><linearGradient id="_1162-20" x1="132.77" y1="115.78" x2="132.77" y2="75.72" xlink:href="#_1162"/><linearGradient id="_1162-21" x1="7.24" y1="115.78" x2="7.24" y2="75.72" xlink:href="#_1162"/><linearGradient id="_9-2" x1="41.73" y1="72.17" x2="98.57" y2="72.17" xlink:href="#_9"/><linearGradient id="_1162-22" x1="69.17" y1="99.93" x2="69.17" y2="43.09" xlink:href="#_1162"/></defs><title>Asset 25</title><g class="cls-1"><g id="Layer_2" data-name="Layer 2"><g id="frame"><path class="cls-2" d="M23.74,15.67a3.86,3.86,0,0,0,0,.47.11.11,0,0,0,0,.05,7.76,7.76,0,0,0,.33,1.42h0c1.09,3.25,4.33,7.76,6.28,10.29l.06.09,1.13,1.42h0l.34.42h3.15c3-4.06,5.78-11.41,5.81-14.32a2.39,2.39,0,0,0-.08-.76,20.61,20.61,0,0,0-1.37-2.9c-2.37-4.45-7-12-8-11.86-.63.07-4,5.65-6,10.36A17,17,0,0,0,23.74,15.67Z"/><path class="cls-3" d="M23.74,15.67a3.86,3.86,0,0,0,0,.47.11.11,0,0,0,0,.05,7.76,7.76,0,0,0,.33,1.42h0c1.09,3.25,4.33,7.76,6.28,10.29l.06.09,1.13,1.42h0l.34.42h3.15c3-4.06,5.78-11.41,5.81-14.32a7,7,0,0,1-5.62,5.29,10.39,10.39,0,0,1-2.77.09h0l-.47,0-.37-.06a13.53,13.53,0,0,1-2.72-.71s-2.67-1.78-3.23-4.15c-.22-1,0-3,.92-5.8A46.08,46.08,0,0,1,31.42,0c-.63.07-4,5.65-6,10.36A17,17,0,0,0,23.74,15.67Z"/><path class="cls-4" d="M34.28,14.79c1.43,5.66-1.34,14.73-1.34,14.73s.26-8.34-.93-12.61S33.83,13,34.28,14.79Z"/><path class="cls-5" d="M31.66,15.18c1.5,5.05,1.28,14.34,1.28,14.34Z"/><path class="cls-5" d="M39.2,10.84c-2.05,1.47-6.71-10-5.3-8.59C35,3.36,39.2,10.84,39.2,10.84Z"/><path class="cls-6" d="M23.91,15.82a.13.13,0,0,0,0,.06,5.52,5.52,0,0,0,.33,1.41v0c1.09,3.06,4.45,7.85,6.28,10.28l.06.09c.59.78,1,1.31,1.12,1.42h0c1.16,1.17.14-.75-4-8.28C25.87,17.53,23.85,14.67,23.91,15.82Z"/><path class="cls-7" d="M30.54,27.59l.06.09c.59.78,1,1.31,1.12,1.42a58.06,58.06,0,0,0,.05-8.62c-.61-5-1.37-9.4-2.45-10a4.7,4.7,0,0,0-2.58-.64,4,4,0,0,0-1.21.22,16.69,16.69,0,0,0-1.64,5.31,3.77,3.77,0,0,0,0,.47.13.13,0,0,0,0,.06,5.52,5.52,0,0,0,.33,1.41v0C25.35,20.55,28.59,25.06,30.54,27.59Z"/><path class="cls-8" d="M15.56,42.8a3.17,3.17,0,0,0,.53,0h0a6.91,6.91,0,0,0,1.28-.28h0c3.21-1,7.75-4.23,10.33-6.17l.08-.07c.64-.48,1.15-.88,1.48-1.14v0c.27-.21-.53-.33-.53-.33l1-.77V31.61s-11.35-5.84-14.26-5.89a2.46,2.46,0,0,0-.76.07,20.45,20.45,0,0,0-2.89,1.35h0c-1,.51-2.1,1.13-3.25,1.8C4.49,31.31-.08,34.26,0,35S11.78,42.7,15.56,42.8Z"/><path class="cls-9" d="M15.56,42.8a3.17,3.17,0,0,0,.53,0h0a6.91,6.91,0,0,0,1.28-.28h0c3.21-1,7.75-4.23,10.33-6.17l.08-.07c.64-.48,1.15-.88,1.48-1.14v0c.27-.21-.53-.33-.53-.33l1-.77V31.61s-11.35-5.84-14.26-5.89a6.9,6.9,0,0,1,5.23,5.63,10,10,0,0,1,.13,2.1c0,.22,0,.45-.05.66v0l-.06.47A13.6,13.6,0,0,1,20,37.69s-1.8,2.65-4.16,3.19C13.88,41.32,7.43,39.76,0,35,.1,36,11.78,42.7,15.56,42.8Z"/><path class="cls-10" d="M13.77,33.44c5.55-5,16,.44,16,.44s-8.32-.31-12.58.84S13.1,34,13.77,33.44Z"/><path class="cls-5" d="M15.44,35.06c5-1.47,14.31-1.18,14.31-1.18Z"/><path class="cls-5" d="M2.57,32.73c1,.89,5.54-.81,8.06-2.65,1.28-.94,2-1.92,1.55-2.61l-.3-.33h0l-3.25,1.8Z"/><path class="cls-11" d="M21.05,39c7.52-4.1,9.45-5.1,8.27-4-.48.47-9.79,7.53-13.29,7.7C14.88,42.84,17.75,40.84,21.05,39Z"/><path class="cls-7" d="M8.62,28.94l.16.06a7.52,7.52,0,0,1,1.85,1.08,16.05,16.05,0,0,1,3.14,3.36s1.72-1.1,5.76-1c5.37.1,7,1,9.59,1.44h0l.24,0h0c.11,0,.23,0-.61.07l1-.1V31.61c-4.06-3.06-11.35-5.84-14.26-5.89a2.46,2.46,0,0,0-.76.07,20.45,20.45,0,0,0-2.89,1.35h0C10.9,27.65,9.77,28.27,8.62,28.94Z"/><path class="cls-12" d="M12,27.22c3.23,3.51,17.68,5.16,17.68,5.16l2.56-2.45c-.69-5.68-4.18-13.78-6.42-16.17a3.39,3.39,0,0,0-.66-.56C23,12,7,7.37,6,8.51,5.35,9.3,9.07,24.08,12,27.22Z"/><path class="cls-13" d="M12,27.22c3.23,3.51,17.68,5.16,17.68,5.16l2.56-2.45c-.69-5.68-4.18-13.78-6.42-16.17,4.44,8.82-6.19,13-6.19,13s-2.27.66-5.53-1.56C12.2,24,8,18.24,6,8.51,5.35,9.3,9.07,24.08,12,27.22Z"/><path class="cls-14" d="M18.1,19.15c7.45,2,12.25,12.55,12.25,12.55s-6.29-7-10.58-9.53S17.12,18.88,18.1,19.15Z"/><path class="cls-5" d="M18.14,21C23.3,24,30.35,31.7,30.35,31.7Z"/><path class="cls-5" d="M22,12C21.5,14.8,7.67,8.39,9.9,8.78A124.54,124.54,0,0,1,22,12Z"/><path class="cls-15" d="M116.85,15.67c0,.15,0,.3,0,.47a.07.07,0,0,0,0,.05,7.08,7.08,0,0,1-.34,1.42h0c-1.09,3.25-4.33,7.76-6.28,10.29l-.07.09c-.47.61-.86,1.1-1.12,1.42h0l-.34.42h-3.15c-3-4.06-5.78-11.41-5.82-14.32a3.16,3.16,0,0,1,.08-.76,23.3,23.3,0,0,1,1.37-2.9c2.38-4.45,7-12,8-11.86.62.07,4,5.65,6,10.36A17,17,0,0,1,116.85,15.67Z"/><path class="cls-16" d="M116.85,15.67c0,.15,0,.3,0,.47a.07.07,0,0,0,0,.05,7.08,7.08,0,0,1-.34,1.42h0c-1.09,3.25-4.33,7.76-6.28,10.29l-.07.09c-.47.61-.86,1.1-1.12,1.42h0l-.34.42h-3.15c-3-4.06-5.78-11.41-5.82-14.32a7,7,0,0,0,5.62,5.29,10.41,10.41,0,0,0,2.77.09h0l.47,0,.37-.06a13.53,13.53,0,0,0,2.72-.71s2.67-1.78,3.22-4.15c.23-1,0-3-.91-5.8A46.08,46.08,0,0,0,109.17,0c.62.07,4,5.65,6,10.36A17,17,0,0,1,116.85,15.67Z"/><path class="cls-17" d="M106.29,14.79c-1.44,5.66,1.33,14.73,1.33,14.73s-.25-8.34.94-12.61S106.73,13,106.29,14.79Z"/><path class="cls-5" d="M108.91,15.18c-1.51,5.05-1.29,14.34-1.29,14.34Z"/><path class="cls-5" d="M101.37,10.84c2,1.47,6.7-10,5.29-8.59C105.57,3.36,101.37,10.84,101.37,10.84Z"/><path class="cls-18" d="M116.65,15.82v.06a5.59,5.59,0,0,1-.34,1.41v0c-1.1,3.06-4.46,7.85-6.28,10.28l-.07.09c-.59.78-1,1.31-1.12,1.42h0c-1.16,1.17-.13-.75,4-8.28C114.69,17.53,116.72,14.67,116.65,15.82Z"/><path class="cls-7" d="M110,27.59l-.07.09c-.59.78-1,1.31-1.12,1.42a60.1,60.1,0,0,1,0-8.62c.61-5,1.37-9.4,2.44-10a4.71,4.71,0,0,1,2.59-.64A4,4,0,0,1,115,10a17.23,17.23,0,0,1,1.64,5.31,3.83,3.83,0,0,1,0,.47v.06a5.59,5.59,0,0,1-.34,1.41v0C115.21,20.55,112,25.06,110,27.59Z"/><path class="cls-19" d="M125,42.8a3.21,3.21,0,0,1-.53,0h0a6.58,6.58,0,0,1-1.28-.28h0c-3.22-1-7.76-4.23-10.33-6.17l-.09-.07-1.48-1.14v0c-.27-.21-.45-.33-.45-.33l1-.77-1-.1V31.61s11.34-5.84,14.25-5.89a2.39,2.39,0,0,1,.75.07,20.94,20.94,0,0,1,2.9,1.35h0c1,.51,2.1,1.13,3.26,1.8,4.13,2.37,8.7,5.32,8.61,6.1S128.78,42.7,125,42.8Z"/><path class="cls-20" d="M125,42.8a3.21,3.21,0,0,1-.53,0h0a6.58,6.58,0,0,1-1.28-.28h0c-3.22-1-7.76-4.23-10.33-6.17l-.09-.07-1.48-1.14v0c-.27-.21-.45-.33-.45-.33l1-.77-1-.1V31.61s11.34-5.84,14.25-5.89a6.93,6.93,0,0,0-5.24,5.63,10,10,0,0,0-.12,2.1c0,.22,0,.45,0,.66v0l.06.47a13.6,13.6,0,0,0,.78,3.07s1.8,2.65,4.16,3.19c2,.44,8.4-1.12,15.83-5.84C140.46,36,128.78,42.7,125,42.8Z"/><path class="cls-21" d="M126.8,33.44c-5.55-5-16,.44-16,.44s8.31-.31,12.58.84S127.46,34,126.8,33.44Z"/><path class="cls-5" d="M125.12,35.06c-5-1.47-14.3-1.18-14.3-1.18Z"/><path class="cls-5" d="M138,32.73c-1,.89-5.53-.81-8.05-2.65-1.29-.94-2-1.92-1.56-2.61l.31-.33h0l3.26,1.8Z"/><path class="cls-22" d="M119.52,39c-7.53-4.1-9.45-5.1-8.28-4,.48.47,9.8,7.53,13.3,7.7C125.68,42.84,122.82,40.84,119.52,39Z"/><path class="cls-7" d="M132,28.94l-.17.06a7.46,7.46,0,0,0-1.84,1.08,15.74,15.74,0,0,0-3.14,3.36s-1.73-1.1-5.77-1c-5.36.1-7,1-9.58,1.44h0l-.25,0h0l-.38.07,1-.1V31.61c3-3.06,10.34-5.84,13.25-5.89a2.39,2.39,0,0,1,.75.07,20.94,20.94,0,0,1,2.9,1.35h0C129.67,27.65,130.79,28.27,132,28.94Z"/><path class="cls-23" d="M128.6,27.22c-3.23,3.51-17.67,5.16-17.67,5.16l-2.57-2.45c.7-5.68,4.19-13.78,6.43-16.17a3.1,3.1,0,0,1,.65-.56c2.15-1.23,18.18-5.83,19.12-4.69C135.22,9.3,131.5,24.08,128.6,27.22Z"/><path class="cls-24" d="M128.6,27.22c-3.23,3.51-17.67,5.16-17.67,5.16l-2.57-2.45c.7-5.68,4.19-13.78,6.43-16.17-4.44,8.82,6.19,13,6.19,13s2.26.66,5.52-1.56c1.87-1.28,6-7,8.06-16.73C135.22,9.3,131.5,24.08,128.6,27.22Z"/><path class="cls-25" d="M122.47,19.15c-7.46,2-12.25,12.55-12.25,12.55s6.28-7,10.58-9.53S123.44,18.88,122.47,19.15Z"/><path class="cls-5" d="M122.43,21C117.27,24,110.22,31.7,110.22,31.7Z"/><path class="cls-5" d="M118.55,12c.51,2.8,14.34-3.61,12.11-3.22A124.9,124.9,0,0,0,118.55,12Z"/><path class="cls-26" d="M23.74,129a3.62,3.62,0,0,1,0-.46.13.13,0,0,1,0-.06,8,8,0,0,1,.33-1.42h0c1.09-3.24,4.33-7.76,6.28-10.29l.06-.09,1.13-1.42h0l.34-.42h3.15c3,4.07,5.78,11.41,5.81,14.32a2.39,2.39,0,0,1-.08.76,20.61,20.61,0,0,1-1.37,2.9c-2.37,4.45-7,12-8,11.86-.63-.07-4-5.64-6-10.36A17,17,0,0,1,23.74,129Z"/><path class="cls-27" d="M23.74,129a3.62,3.62,0,0,1,0-.46.13.13,0,0,1,0-.06,8,8,0,0,1,.33-1.42h0c1.09-3.24,4.33-7.76,6.28-10.29l.06-.09,1.13-1.42h0l.34-.42h3.15c3,4.07,5.78,11.41,5.81,14.32a7,7,0,0,0-5.62-5.29,10.39,10.39,0,0,0-2.77-.09h0l-.47,0-.37.06a13.53,13.53,0,0,0-2.72.71s-2.67,1.78-3.23,4.15c-.22,1,0,3,.92,5.8a45.87,45.87,0,0,0,4.83,10.13c-.63-.07-4-5.64-6-10.36A17,17,0,0,1,23.74,129Z"/><path class="cls-28" d="M34.28,129.62c1.43-5.66-1.34-14.73-1.34-14.73s.26,8.34-.93,12.61S33.83,131.37,34.28,129.62Z"/><path class="cls-5" d="M31.66,129.23c1.5-5,1.28-14.34,1.28-14.34Z"/><path class="cls-5" d="M39.2,133.57c-2.05-1.47-6.71,10-5.3,8.59C35,141.05,39.2,133.57,39.2,133.57Z"/><path class="cls-29" d="M23.91,128.59a.13.13,0,0,1,0-.06,5.52,5.52,0,0,1,.33-1.41v0c1.09-3.06,4.45-7.85,6.28-10.28l.06-.09c.59-.78,1-1.31,1.12-1.42h0c1.16-1.17.14.75-4,8.28C25.87,126.88,23.85,129.74,23.91,128.59Z"/><path class="cls-7" d="M30.54,116.82l.06-.09c.59-.78,1-1.31,1.12-1.42a58.06,58.06,0,0,1,.05,8.62c-.61,5-1.37,9.4-2.45,10a4.7,4.7,0,0,1-2.58.64,4,4,0,0,1-1.21-.22,16.69,16.69,0,0,1-1.64-5.31,3.77,3.77,0,0,1,0-.47.13.13,0,0,1,0-.06,5.52,5.52,0,0,1,.33-1.41v0C25.35,123.86,28.59,119.35,30.54,116.82Z"/><path class="cls-30" d="M15.56,101.61a3.17,3.17,0,0,1,.53,0h0a6.91,6.91,0,0,1,1.28.28h0c3.21,1,7.75,4.23,10.33,6.17l.08.07c.64.48,1.15.88,1.48,1.14v0c.27.21-.53.33-.53.33l1,.77v2.37s-11.35,5.84-14.26,5.89a2.46,2.46,0,0,1-.76-.07,20.45,20.45,0,0,1-2.89-1.35h0c-1-.51-2.1-1.13-3.25-1.8-4.13-2.37-8.7-5.32-8.62-6.1S11.78,101.71,15.56,101.61Z"/><path class="cls-31" d="M15.56,101.61a3.17,3.17,0,0,1,.53,0h0a6.91,6.91,0,0,1,1.28.28h0c3.21,1,7.75,4.23,10.33,6.17l.08.07c.64.48,1.15.88,1.48,1.14v0c.27.21-.53.33-.53.33l1,.77v2.37s-11.35,5.84-14.26,5.89a6.9,6.9,0,0,0,5.23-5.63,10,10,0,0,0,.13-2.1c0-.22,0-.45-.05-.66v0l-.06-.47a13.6,13.6,0,0,0-.78-3.07s-1.8-2.65-4.16-3.19c-2-.44-8.41,1.12-15.84,5.84C.1,108.46,11.78,101.71,15.56,101.61Z"/><path class="cls-32" d="M13.77,111c5.55,5,16-.44,16-.44s-8.32.31-12.58-.84S13.1,110.37,13.77,111Z"/><path class="cls-5" d="M15.44,109.35c5,1.47,14.31,1.18,14.31,1.18Z"/><path class="cls-5" d="M2.57,111.68c1-.89,5.54.81,8.06,2.65,1.28.94,2,1.91,1.55,2.61l-.3.33h0l-3.25-1.8Z"/><path class="cls-33" d="M21.05,105.37c7.52,4.1,9.45,5.1,8.27,4-.48-.47-9.79-7.53-13.29-7.7C14.88,101.57,17.75,103.57,21.05,105.37Z"/><path class="cls-7" d="M8.62,115.47l.16-.06a7.52,7.52,0,0,0,1.85-1.08A16.05,16.05,0,0,0,13.77,111s1.72,1.1,5.76,1c5.37-.1,7-1,9.59-1.44h0l.24,0h0c.11,0,.23,0-.61-.07l1,.1v2.27c-4.06,3.06-11.35,5.84-14.26,5.89a2.46,2.46,0,0,1-.76-.07,20.45,20.45,0,0,1-2.89-1.35h0C10.9,116.76,9.77,116.14,8.62,115.47Z"/><path class="cls-34" d="M12,117.19c3.23-3.51,17.68-5.16,17.68-5.16l2.56,2.45c-.69,5.68-4.18,13.77-6.42,16.17a3.39,3.39,0,0,1-.66.56C23,132.44,7,137,6,135.9,5.35,135.11,9.07,120.33,12,117.19Z"/><path class="cls-35" d="M12,117.19c3.23-3.51,17.68-5.16,17.68-5.16l2.56,2.45c-.69,5.68-4.18,13.77-6.42,16.17,4.44-8.82-6.19-13-6.19-13s-2.27-.66-5.53,1.56c-1.86,1.28-6,7-8,16.73C5.35,135.11,9.07,120.33,12,117.19Z"/><path class="cls-36" d="M18.1,125.26c7.45-2,12.25-12.55,12.25-12.55s-6.29,7-10.58,9.53S17.12,125.53,18.1,125.26Z"/><path class="cls-5" d="M18.14,123.37c5.16-2.93,12.21-10.66,12.21-10.66Z"/><path class="cls-5" d="M22,132.41c-.52-2.8-14.35,3.61-12.12,3.22A124.54,124.54,0,0,0,22,132.41Z"/><path class="cls-37" d="M116.85,129c0-.15,0-.3,0-.46a.13.13,0,0,1,0-.06,7.24,7.24,0,0,0-.34-1.42h0c-1.09-3.24-4.33-7.76-6.28-10.29l-.07-.09c-.47-.61-.86-1.1-1.12-1.42h0l-.34-.42h-3.15c-3,4.07-5.78,11.41-5.82,14.32a3.16,3.16,0,0,0,.08.76,23.3,23.3,0,0,0,1.37,2.9c2.38,4.45,7,12,8,11.86.62-.07,4-5.64,6-10.36A17,17,0,0,0,116.85,129Z"/><path class="cls-38" d="M116.85,129c0-.15,0-.3,0-.46a.13.13,0,0,1,0-.06,7.24,7.24,0,0,0-.34-1.42h0c-1.09-3.24-4.33-7.76-6.28-10.29l-.07-.09c-.47-.61-.86-1.1-1.12-1.42h0l-.34-.42h-3.15c-3,4.07-5.78,11.41-5.82,14.32a7,7,0,0,1,5.62-5.29,10.41,10.41,0,0,1,2.77-.09h0l.47,0,.37.06a13.53,13.53,0,0,1,2.72.71s2.67,1.78,3.22,4.15c.23,1,0,3-.91,5.8a45.87,45.87,0,0,1-4.83,10.13c.62-.07,4-5.64,6-10.36A17,17,0,0,0,116.85,129Z"/><path class="cls-39" d="M106.29,129.62c-1.44-5.66,1.33-14.73,1.33-14.73s-.25,8.34.94,12.61S106.73,131.37,106.29,129.62Z"/><path class="cls-7" d="M108.91,129.23c-1.51-5-1.29-14.34-1.29-14.34Z"/><path class="cls-5" d="M101.37,133.57c2-1.47,6.7,10,5.29,8.59C105.57,141.05,101.37,133.57,101.37,133.57Z"/><path class="cls-40" d="M116.65,128.59v-.06a5.59,5.59,0,0,0-.34-1.41v0c-1.1-3.06-4.46-7.85-6.28-10.28l-.07-.09c-.59-.78-1-1.31-1.12-1.42h0c-1.16-1.17-.13.75,4,8.28C114.69,126.88,116.72,129.74,116.65,128.59Z"/><path class="cls-41" d="M110,116.82l-.07-.09c-.59-.78-1-1.31-1.12-1.42a60.1,60.1,0,0,0,0,8.62c.61,5,1.37,9.4,2.44,10a4.71,4.71,0,0,0,2.59.64,4,4,0,0,0,1.21-.22,17.23,17.23,0,0,0,1.64-5.31,3.83,3.83,0,0,0,0-.47v-.06a5.59,5.59,0,0,0-.34-1.41v0C115.21,123.86,112,119.35,110,116.82Z"/><path class="cls-42" d="M125,101.61a3.21,3.21,0,0,0-.53,0h0a6.58,6.58,0,0,0-1.28.28h0c-3.22,1-7.76,4.23-10.33,6.17l-.09.07-1.48,1.14v0c-.27.21-.45.33-.45.33l1,.77-1,.1v2.27s11.34,5.84,14.25,5.89a2.39,2.39,0,0,0,.75-.07,20.94,20.94,0,0,0,2.9-1.35h0c1-.51,2.1-1.13,3.26-1.8,4.13-2.37,8.7-5.32,8.61-6.1S128.78,101.71,125,101.61Z"/><path class="cls-43" d="M125,101.61a3.21,3.21,0,0,0-.53,0h0a6.58,6.58,0,0,0-1.28.28h0c-3.22,1-7.76,4.23-10.33,6.17l-.09.07-1.48,1.14v0c-.27.21-.45.33-.45.33l1,.77-1,.1v2.27s11.34,5.84,14.25,5.89a6.93,6.93,0,0,1-5.24-5.63,10,10,0,0,1-.12-2.1c0-.22,0-.45,0-.66v0l.06-.47a13.6,13.6,0,0,1,.78-3.07s1.8-2.65,4.16-3.19c2-.44,8.4,1.12,15.83,5.84C140.46,108.46,128.78,101.71,125,101.61Z"/><path class="cls-44" d="M126.8,111c-5.55,5-16-.44-16-.44s8.31.31,12.58-.84S127.46,110.37,126.8,111Z"/><path class="cls-5" d="M125.12,109.35c-5,1.47-14.3,1.18-14.3,1.18Z"/><path class="cls-5" d="M138,111.68c-1-.89-5.53.81-8.05,2.65-1.29.94-2,1.91-1.56,2.61l.31.33h0l3.26-1.8Z"/><path class="cls-45" d="M119.52,105.37c-7.53,4.1-9.45,5.1-8.28,4,.48-.47,9.8-7.53,13.3-7.7C125.68,101.57,122.82,103.57,119.52,105.37Z"/><path class="cls-7" d="M132,115.47l-.17-.06a7.46,7.46,0,0,1-1.84-1.08A15.74,15.74,0,0,1,126.8,111s-1.73,1.1-5.77,1c-5.36-.1-7-1-9.58-1.44h0l-.25,0h0l-.38-.07,1,.1v2.27c3,3.06,10.34,5.84,13.25,5.89a2.39,2.39,0,0,0,.75-.07,20.94,20.94,0,0,0,2.9-1.35h0C129.67,116.76,130.79,116.14,132,115.47Z"/><path class="cls-46" d="M128.6,117.19c-3.23-3.51-17.67-5.16-17.67-5.16l-2.57,2.45c.7,5.68,4.19,13.77,6.43,16.17a3.1,3.1,0,0,0,.65.56c2.15,1.23,18.18,5.83,19.12,4.69C135.22,135.11,131.5,120.33,128.6,117.19Z"/><path class="cls-47" d="M128.6,117.19c-3.23-3.51-17.67-5.16-17.67-5.16l-2.57,2.45c.7,5.68,4.19,13.77,6.43,16.17-4.44-8.82,6.19-13,6.19-13s2.26-.66,5.52,1.56c1.87,1.28,6,7,8.06,16.73C135.22,135.11,131.5,120.33,128.6,117.19Z"/><path class="cls-48" d="M122.47,125.26c-7.46-2-12.25-12.55-12.25-12.55s6.28,7,10.58,9.53S123.44,125.53,122.47,125.26Z"/><path class="cls-5" d="M122.43,123.37c-5.16-2.93-12.21-10.66-12.21-10.66Z"/><path class="cls-5" d="M118.55,132.41c.51-2.8,14.34,3.61,12.11,3.22A124.9,124.9,0,0,1,118.55,132.41Z"/><path class="cls-49" d="M138.4,98.77c.59-1.42-7.65-16.76-11.06-23a54.81,54.81,0,0,0,0-6.88c3.41-6.23,11.1-21.41,11.06-23a23.35,23.35,0,0,0,0-2.9c-.58-1.39-18.05-6.32-25-8.23a57.73,57.73,0,0,0-6.46-6.34c-1.75-6.36-7-25.12-8.43-25.73C96.78,2,74.3,14.44,73,15.17c-.91,0-1.82-.06-2.74-.06s-1.84,0-2.75.06C66.16,14.44,43.67,2,42,2.71c-1.44.61-6.69,19.37-8.44,25.73a57.64,57.64,0,0,0-6.45,6.34c-7,1.91-24.42,6.84-25,8.23a25.47,25.47,0,0,0,0,2.9C2,48,9.71,62.67,13.11,68.9a38.18,38.18,0,0,0,0,6.88C9.71,82,1.46,97.35,2.05,98.77c.06.13-.12,2.61,0,2.9.59,1.38,18.05,6.31,25,8.23a58.42,58.42,0,0,0,6.45,6.33c1.75,6.37,7,25.13,8.44,25.73,1.72.72,24.21-11.73,25.53-12.46.91,0,1.83.06,2.75.06s1.83,0,2.74-.06c1.33.73,23.81,13.18,25.54,12.46,1.44-.6,6.68-19.36,8.43-25.73a58.52,58.52,0,0,0,6.46-6.33c6.95-1.92,24.42-6.85,25-8.23C138.52,101.38,138.34,98.9,138.4,98.77Zm-25-26.43A43.14,43.14,0,1,1,70.23,29.22,43.13,43.13,0,0,1,113.36,72.34Z"/><path class="cls-50" d="M60.35,128.75l.61.1A37.3,37.3,0,0,1,55.68,132l0,0c-1,.5-2,.94-2.95,1.34l-.09,0A48.3,48.3,0,0,1,44.17,136h0a60.72,60.72,0,0,1-4.76-12.76.09.09,0,0,0,0,0l0-.13c-.27-1.08-.49-2.06-.66-2.92l.45.29.75.48.63.39a56.91,56.91,0,0,0,19.18,7.32Z"/><path class="cls-51" d="M60.09,128.7C57,130.7,51.18,134,44.64,135c0,0-2.74-4.28-4.74-14.07l.63.39a56.91,56.91,0,0,0,19.18,7.32Z"/><path class="cls-52" d="M60.35,128.75A25.23,25.23,0,0,1,55.68,132l0,0c-.84.44-1.84.89-2.95,1.34l-.09,0A66.57,66.57,0,0,1,44.17,136h0a56,56,0,0,1-4.76-12.76.09.09,0,0,0,0,0l0-.13a11.89,11.89,0,0,1-.21-2.63l.75.48.63.39a34.5,34.5,0,0,0,5.13,9.42,27.47,27.47,0,0,0,14.05-2.1Z"/><path class="cls-53" d="M101.76,120.15c-.18.86-.39,1.84-.66,2.92a.65.65,0,0,0,0,.13.09.09,0,0,1,0,0A61.19,61.19,0,0,1,96.3,136h0a48.26,48.26,0,0,1-8.45-2.63s0,0-.08,0c-1-.4-2-.85-3-1.36a37.3,37.3,0,0,1-5.28-3.15l.62-.1.64-.12a56.91,56.91,0,0,0,19.18-7.32l.62-.39.75-.48Z"/><path class="cls-54" d="M100.55,121.06c-2,9.78-4.73,14.07-4.73,14.07-6.54-1-12.41-4.29-15.45-6.29h0l.39-.07a56.72,56.72,0,0,0,19.18-7.33Z"/><path class="cls-55" d="M101.1,123.07a.65.65,0,0,0,0,.13.09.09,0,0,1,0,0A55.71,55.71,0,0,1,96.3,136h0a67.26,67.26,0,0,1-8.45-2.63s0,0-.08,0c-1.11-.45-2.1-.9-2.94-1.34l0,0a24.76,24.76,0,0,1-4.66-3.25l.64-.12a27.43,27.43,0,0,0,14,2.1,34.54,34.54,0,0,0,5.14-9.42l.62-.39.75-.48A12.53,12.53,0,0,1,101.1,123.07Z"/><path class="cls-56" d="M60.35,16l.61-.11a39.29,39.29,0,0,0-5.28-3.15h0c-1-.5-2-.94-2.95-1.34l-.09,0a47.3,47.3,0,0,0-8.44-2.63h0A60.72,60.72,0,0,0,39.4,21.49a.06.06,0,0,1,0,0l0,.14c-.27,1.08-.49,2.06-.66,2.92l.45-.3.75-.47.63-.39A57.14,57.14,0,0,1,59.71,16.1Z"/><path class="cls-57" d="M60.09,16C57,14,51.18,10.72,44.64,9.74c0,0-2.74,4.29-4.74,14.08l.63-.39A57.14,57.14,0,0,1,59.71,16.1Z"/><path class="cls-58" d="M60.35,16a25.19,25.19,0,0,0-4.67-3.26h0a28.91,28.91,0,0,0-2.95-1.34l-.09,0a66.57,66.57,0,0,0-8.44-2.63h0A55.76,55.76,0,0,0,39.4,21.49a.06.06,0,0,1,0,0l0,.14a11.84,11.84,0,0,0-.21,2.62l.75-.47.63-.39A34.35,34.35,0,0,1,45.66,14,27.52,27.52,0,0,1,59.71,16.1Z"/><path class="cls-5" d="M54.33,8.12c-5.71-2.09-11.75-4-11.75-4-1.85,2.85-5.83,13.08-6,13.56,2.09-7.11,4.49-14.6,5.39-15s6.55,2.4,12.37,5.41Z"/><path class="cls-59" d="M80.12,16l-.61-.11a38.77,38.77,0,0,1,5.29-3.15h0c1-.5,2-.94,3-1.34l.09,0A47.3,47.3,0,0,1,96.3,8.72h0a61.19,61.19,0,0,1,4.75,12.76s0,0,0,0l0,.14c.27,1.08.49,2.06.66,2.92l-.45-.3-.75-.47-.63-.39A57.14,57.14,0,0,0,80.76,16.1Z"/><path class="cls-60" d="M80.38,16c3.05-2,8.91-5.31,15.45-6.29,0,0,2.74,4.29,4.74,14.08l-.63-.39A57.14,57.14,0,0,0,80.76,16.1Z"/><path class="cls-61" d="M80.12,16a25,25,0,0,1,4.68-3.26h0a28.91,28.91,0,0,1,3-1.34l.09,0A66.57,66.57,0,0,1,96.3,8.72h0a56.59,56.59,0,0,1,4.75,12.76s0,0,0,0l0,.14a11.84,11.84,0,0,1,.21,2.62l-.75-.47-.63-.39A34.09,34.09,0,0,0,94.81,14a27.52,27.52,0,0,0-14,2.09Z"/><path class="cls-5" d="M86.14,8.12c5.71-2.09,11.75-4,11.75-4,1.85,2.85,5.83,13.08,6,13.56-2.09-7.11-4.49-14.6-5.39-15S92,5.11,86.15,8.12Z"/><path class="cls-62" d="M116.85,39.22l-.36-.5a37.77,37.77,0,0,1,6,1.5h0c1.06.35,2.07.74,3,1.13l.08,0a49,49,0,0,1,7.84,4.1h0v0a60.28,60.28,0,0,1-5.65,12.39.08.08,0,0,1,0,0l-.07.12c-.57,1-1.11,1.8-1.6,2.53,0-.17-.07-.35-.11-.53s-.12-.58-.19-.87-.11-.47-.17-.71a56.81,56.81,0,0,0-8.41-18.73Z"/><path class="cls-63" d="M117,39.44c3.57.74,10.06,2.53,15.38,6.46,0,0-1.09,5-6.58,13.3-.06-.23-.11-.47-.17-.71a56.81,56.81,0,0,0-8.41-18.73Z"/><path class="cls-64" d="M116.85,39.22a25.42,25.42,0,0,1,5.61,1h0a29.58,29.58,0,0,1,3,1.13l.08,0a65.61,65.61,0,0,1,7.84,4.1h0v0a55.76,55.76,0,0,1-5.65,12.39.08.08,0,0,1,0,0l-.07.12a11.78,11.78,0,0,1-1.71,2c-.06-.29-.12-.58-.19-.87s-.11-.47-.17-.71a34.43,34.43,0,0,0,3-10.3,27.43,27.43,0,0,0-11.42-8.43Z"/><path class="cls-5" d="M126.45,38.53c5.14,2.32,10.37,5,10.37,5C136.19,46.6,132.19,56,132,56.39c3.23-6.06,6.5-12.57,6.15-13.41s-5.9-2.66-11.7-4.45Z"/><path class="cls-65" d="M116.85,105.4l-.36.51a38.89,38.89,0,0,0,6-1.5h0c1.06-.36,2.07-.75,3-1.14l.08,0a48.08,48.08,0,0,0,7.84-4.1h0v0a60.53,60.53,0,0,0-5.65-12.39l0,0s0-.08-.07-.13c-.57-1-1.11-1.8-1.6-2.53,0,.18-.07.36-.11.53s-.12.58-.19.87-.11.48-.17.71a57,57,0,0,1-8.41,18.74Z"/><path class="cls-66" d="M117,105.18c3.57-.73,10.06-2.52,15.38-6.45,0,0-1.09-5-6.58-13.31-.06.24-.11.48-.17.71a57,57,0,0,1-8.41,18.74Z"/><path class="cls-67" d="M116.85,105.4a25.29,25.29,0,0,0,5.61-1h0c.9-.28,1.93-.67,3-1.14l.08,0a65.61,65.61,0,0,0,7.84-4.1h0v0a56,56,0,0,0-5.65-12.39l0,0s0-.08-.07-.13a12.18,12.18,0,0,0-1.71-2c-.06.29-.12.58-.19.87s-.11.48-.17.71a34.52,34.52,0,0,1,3,10.3,27.4,27.4,0,0,1-11.42,8.44Z"/><path class="cls-5" d="M126.45,106.09c5.14-2.32,10.37-5,10.37-5-.63-3.1-4.63-12.45-4.81-12.89,3.23,6.07,6.5,12.57,6.15,13.41s-5.9,2.67-11.7,4.45Z"/><path class="cls-68" d="M23.34,39.22l.36-.5a37.77,37.77,0,0,0-6,1.5h0c-1.06.35-2.08.74-3,1.13l-.09,0a48.1,48.1,0,0,0-7.83,4.1h0v0a60.3,60.3,0,0,0,5.64,12.39l0,0a.75.75,0,0,0,.07.12c.57,1,1.11,1.8,1.59,2.53l.12-.53c.06-.29.12-.58.19-.87s.11-.47.17-.71A56.81,56.81,0,0,1,23,39.76Z"/><path class="cls-69" d="M23.19,39.44C19.62,40.18,13.12,42,7.8,45.9c0,0,1.1,5,6.59,13.3.06-.23.11-.47.17-.71A56.81,56.81,0,0,1,23,39.76Z"/><path class="cls-70" d="M23.34,39.22a25.42,25.42,0,0,0-5.61,1h0a28.74,28.74,0,0,0-3,1.13l-.09,0a66.3,66.3,0,0,0-7.83,4.1h0v0a55.44,55.44,0,0,0,5.64,12.39l0,0a.75.75,0,0,0,.07.12,11.78,11.78,0,0,0,1.71,2c.06-.29.12-.58.19-.87s.11-.47.17-.71a34.44,34.44,0,0,1-3-10.3A27.51,27.51,0,0,1,23,39.76Z"/><path class="cls-5" d="M13.73,38.53c-5.13,2.32-10.36,5-10.36,5C4,46.6,8,56,8.18,56.39,5,50.33,1.68,43.82,2,43s5.89-2.66,11.7-4.45Z"/><path class="cls-71" d="M23.34,105.4l.36.51a38.89,38.89,0,0,1-6-1.5h0c-1.06-.36-2.08-.75-3-1.14l-.09,0a47.21,47.21,0,0,1-7.83-4.1h0v0a60.55,60.55,0,0,1,5.64-12.39l0,0,.07-.13c.57-1,1.11-1.8,1.59-2.53l.12.53c.06.29.12.58.19.87s.11.48.17.71A57,57,0,0,0,23,104.87Z"/><path class="cls-72" d="M23.19,105.18c-3.57-.73-10.07-2.52-15.39-6.45,0,0,1.1-5,6.59-13.31.06.24.11.48.17.71A57,57,0,0,0,23,104.87Z"/><path class="cls-73" d="M23.34,105.4a25.29,25.29,0,0,1-5.61-1h0a31.41,31.41,0,0,1-3-1.14l-.09,0a66.3,66.3,0,0,1-7.83-4.1h0v0a55.65,55.65,0,0,1,5.64-12.39l0,0,.07-.13a12.18,12.18,0,0,1,1.71-2c.06.29.12.58.19.87s.11.48.17.71a34.53,34.53,0,0,0-3,10.3A27.48,27.48,0,0,0,23,104.87Z"/><path class="cls-5" d="M13.73,106.09c-5.13-2.32-10.36-5-10.36-5C4,98,8,88.67,8.18,88.23,5,94.3,1.68,100.8,2,101.64s5.89,2.67,11.7,4.45Z"/><path class="cls-7" d="M123.44,93.39a57.24,57.24,0,0,1-104.95,3.4C39.58,116.22,82.46,134.37,123.44,93.39Z"/><path class="cls-7" d="M120,108c-2.58.74-4.93,1.39-6.64,1.87a58.52,58.52,0,0,1-6.46,6.33c-.5,1.82-1.29,4.66-2.19,7.8a71,71,0,0,1-22.2,10.66c-4.83-2.57-9-4.89-9.58-5.19-.91,0-1.82.07-2.74.07s-1.84,0-2.75-.07c-.56.31-4.87,2.7-9.8,5.3a63.82,63.82,0,0,1-21.85-10.33c-.95-3.31-1.79-6.33-2.32-8.24a58.42,58.42,0,0,1-6.45-6.33l-5.4-1.51a29.15,29.15,0,0,1-3.17-11.6c15.19,25.12,66.17,55,105-3.4C124.17,98.19,122.83,103.2,120,108Z"/><path class="cls-5" d="M70.23,15.11A57.24,57.24,0,0,0,15.4,55.91C24.77,35.2,46,25.24,70.23,25.24c26.39,0,48.35,12.69,56.22,36.45A57.22,57.22,0,0,0,70.23,15.11Z"/><path class="cls-74" d="M70.23,25.24a47.09,47.09,0,1,0,47.08,47.08A47.08,47.08,0,0,0,70.23,25.24Zm0,90.22a43.14,43.14,0,1,1,43.13-43.14A43.14,43.14,0,0,1,70.23,115.46Z"/><path class="cls-5" d="M32.33,100.27S45,115.46,70.23,115.46s37.9-15.19,37.9-15.19-12.31,19.82-37.9,19.82S32.33,100.27,32.33,100.27Z"/><path class="cls-75" d="M32.33,100.27a47.09,47.09,0,0,0,75.8,0s-12.31,19.82-37.9,19.82S32.33,100.27,32.33,100.27Z"/><path class="cls-76" d="M115.55,59.51c-1.11-.63-2.81-1.66-5.31-3.34h0a43.15,43.15,0,0,0-80.57,1.46,42.37,42.37,0,0,1-5.55,5.14,47.1,47.1,0,0,1,91.44-3.26Z"/><path class="cls-77" d="M70.23,20.59C68.36,23,83.29,27,85.08,25.24s.11-4.23-3.26-4.65S71.7,18.69,70.23,20.59Z"/><path class="cls-77" d="M66.89,120c-1.08-2,10.69-4,12.34-2.57s-1.29,2.06-1.29,2.06Z"/><circle class="cls-78" cx="81.92" cy="21.34" r="9"/><path class="cls-79" d="M59.91,126.9c-.94,3.54-6,5.26-11.41,3.84s-9-5.43-8-9,6-5.26,11.41-3.84S60.84,123.36,59.91,126.9Z"/><path class="cls-80" d="M138.74,45.91c0,1.58-7.65,16.76-11.06,23l-.23-3.71s9.69-15.07,11-22.21l.29.6h0C138.81,44.41,138.74,45.8,138.74,45.91Z"/><path class="cls-81" d="M138.4,101.67a.58.58,0,0,1-.17.2,1.55,1.55,0,0,1-.07-.23c-2.32-8.48-11-22.18-11-22.18l.23-3.68c3.41,6.23,11.65,21.57,11.06,23C138.34,98.9,138.52,101.38,138.4,101.67Z"/><path class="cls-82" d="M12.79,75.78V80A105.11,105.11,0,0,0,1.72,101.61c-.09-.47.07-2.72,0-2.84C1.14,97.35,9.39,82,12.79,75.78Z"/><path class="cls-80" d="M12.79,64.4v4.5C9.39,62.67,1.69,48,1.73,45.91c0-.14-.11-2.5,0-2.88C6.66,56.82,12.79,64.4,12.79,64.4Z"/><path class="cls-80" d="M64.94,129.3l2.54.2C66.16,130.23,43.67,142.68,42,142c-.42-.18-1.16-1.89-2-4.38.09.2,1.67,3.45,2.52,3.45S64.94,129.3,64.94,129.3Z"/><path class="cls-80" d="M100.54,137.6c-.88,2.48-1.62,4.18-2,4.36-1.73.72-24.21-11.73-25.54-12.46l3.19-.26s15.15,9.49,21.32,11.39C99,141.11,100.42,137.88,100.54,137.6Z"/><path class="cls-83" d="M98,85.28a24.33,24.33,0,0,0-2.73-.21,13.59,13.59,0,0,1-9.16-6.74,13.15,13.15,0,0,1-1-9.91c1.31-4.37,3-6,6.37-7.79a12.2,12.2,0,0,1,4.21-1.42,13.47,13.47,0,0,0,2.3-.21.9.9,0,0,0,.63-.52c0-.09,0-.26,0-.32-.56-.52-3.28-.55-4.18-.79A13.14,13.14,0,0,1,84.57,45.7c0-.47.11-1.47-.21-1.79a1.54,1.54,0,0,0-.82-.11c-.21.13-.25.15-.31.41-.19.88,0,1.87-.2,2.76a13.31,13.31,0,0,1-5.66,8.6,13,13,0,0,1-9.67,2A13.13,13.13,0,0,1,57.07,45c0-.41,0-1-.3-1.22a4.33,4.33,0,0,0-.88,0c-.18,1.11-.16,2.24-.36,3.35a13.19,13.19,0,0,1-5.25,8.2c-2.54,1.84-4.93,2.28-8,2.51a.7.7,0,0,0-.56.26,1.49,1.49,0,0,0,.12.81,27.75,27.75,0,0,0,3.76.52A13.19,13.19,0,0,1,55.08,68a13,13,0,0,1-.71,10,13.2,13.2,0,0,1-7.55,6.56c-1.79.59-2.88.37-4.47.7a.89.89,0,0,0-.57.3.83.83,0,0,0,0,.62c.8.74,2.76.37,3.81.64A13.41,13.41,0,0,1,55.78,99.05a3.71,3.71,0,0,0,.13,1.41,1.1,1.1,0,0,0,.69.12,1,1,0,0,0,.45-.78c.12-.76,0-1.53.16-2.3a13.36,13.36,0,0,1,5.23-8.44,13,13,0,0,1,18.25,2.87,13.34,13.34,0,0,1,2.52,7.65c0,.34,0,.82.4.91a3.67,3.67,0,0,0,.74,0c.42-.73.19-2.26.35-3.14A13.19,13.19,0,0,1,94.1,87a13.94,13.94,0,0,1,2.81-.44,11.14,11.14,0,0,0,1.16,0,.48.48,0,0,0,.36-.24,1,1,0,0,0,.06-.5C98.34,85.52,98.27,85.38,98,85.28ZM80.14,80.51a13,13,0,0,1-8.71,4.63,13.14,13.14,0,0,1-9.36-2.72,13.28,13.28,0,0,1-4.92-8.78A13.14,13.14,0,0,1,59.93,64a13.3,13.3,0,0,1,9.1-4.9A13.05,13.05,0,0,1,80.14,80.51Z"/><path class="cls-84" d="M97,84.61a24.33,24.33,0,0,0-2.73-.21,13.53,13.53,0,0,1-9.16-6.74A13.06,13.06,0,0,1,90.45,60a12.2,12.2,0,0,1,4.21-1.42A13.69,13.69,0,0,0,97,58.33a.88.88,0,0,0,.62-.52c0-.08,0-.26,0-.31-.56-.52-3.28-.56-4.18-.79A13.15,13.15,0,0,1,83.59,45c0-.47.11-1.46-.21-1.79a1.64,1.64,0,0,0-.82-.11.49.49,0,0,0-.31.41c-.19.88,0,1.87-.19,2.77a13.36,13.36,0,0,1-5.67,8.59,13,13,0,0,1-9.67,2A13.11,13.11,0,0,1,56.09,44.35c0-.41,0-1-.3-1.22a5.19,5.19,0,0,0-.88,0c-.18,1.11-.16,2.24-.36,3.35a13.24,13.24,0,0,1-5.25,8.21c-2.54,1.84-4.93,2.28-8,2.5a.68.68,0,0,0-.57.27,1.39,1.39,0,0,0,.13.8c.64.33,2.85.34,3.75.52a13.21,13.21,0,0,1,9.46,8.62,13,13,0,0,1-.71,10,13.24,13.24,0,0,1-7.55,6.56c-1.79.58-2.88.36-4.47.7a.83.83,0,0,0-.57.29.86.86,0,0,0,.05.63c.8.74,2.76.37,3.81.63A13.4,13.4,0,0,1,54.8,98.38a3.67,3.67,0,0,0,.13,1.41,1,1,0,0,0,.69.12,1,1,0,0,0,.45-.77c.12-.76,0-1.54.16-2.3a13.39,13.39,0,0,1,5.23-8.45,13.16,13.16,0,0,1,9.86-2.34,13,13,0,0,1,8.39,5.22,13.29,13.29,0,0,1,2.52,7.65c0,.33,0,.82.4.9a3.67,3.67,0,0,0,.74,0c.42-.73.19-2.26.35-3.14a13.19,13.19,0,0,1,9.4-10.37,14.05,14.05,0,0,1,2.81-.44,11.14,11.14,0,0,0,1.16,0,.52.52,0,0,0,.37-.24,1,1,0,0,0,.05-.5C97.37,84.85,97.29,84.71,97,84.61ZM79.17,79.84a13,13,0,0,1-8.72,4.64A13.05,13.05,0,0,1,59,63.35a13.28,13.28,0,0,1,9.1-4.89A13.05,13.05,0,0,1,79.17,79.84Z"/><path class="cls-85" d="M71.39,56.86c-.55.72,3.9,1.9,4.43,1.39s0-1.27-1-1.39S71.83,56.29,71.39,56.86Z"/></g></g></g></svg>