<svg xmlns="http://www.w3.org/2000/svg" xmlns:xlink="http://www.w3.org/1999/xlink" viewBox="0 0 39.75 64.08"><defs><style>.cls-1{fill:none;clip-rule:evenodd;}.cls-2{isolation:isolate;}.cls-10,.cls-11,.cls-12,.cls-13,.cls-14,.cls-15,.cls-16,.cls-17,.cls-19,.cls-20,.cls-21,.cls-22,.cls-23,.cls-24,.cls-26,.cls-27,.cls-28,.cls-29,.cls-3,.cls-4,.cls-5,.cls-6,.cls-7,.cls-8,.cls-9{fill-rule:evenodd;}.cls-3{fill:url(#radial-gradient);}.cls-4{fill:url(#radial-gradient-2);}.cls-5{fill:url(#radial-gradient-3);}.cls-13,.cls-15,.cls-16,.cls-17,.cls-27,.cls-29,.cls-6,.cls-7{opacity:0.5;}.cls-10,.cls-11,.cls-27,.cls-6,.cls-7{mix-blend-mode:multiply;}.cls-6{fill:url(#radial-gradient-4);}.cls-7{fill:url(#radial-gradient-5);}.cls-12,.cls-13,.cls-14,.cls-15,.cls-16,.cls-17,.cls-20,.cls-21,.cls-22,.cls-23,.cls-24,.cls-28,.cls-29,.cls-8{mix-blend-mode:screen;}.cls-8{fill:url(#radial-gradient-6);}.cls-9{opacity:0.8;fill:url(#linear-gradient);}.cls-10{fill:url(#radial-gradient-7);}.cls-11{fill:url(#radial-gradient-8);}.cls-12{fill:url(#radial-gradient-9);}.cls-13{fill:url(#radial-gradient-10);}.cls-14{opacity:0.75;fill:url(#linear-gradient-2);}.cls-15{fill:url(#linear-gradient-3);}.cls-16{fill:url(#radial-gradient-11);}.cls-17{fill:url(#radial-gradient-12);}.cls-18{clip-path:url(#clip-path);}.cls-19{fill:url(#radial-gradient-13);}.cls-20{fill:url(#radial-gradient-14);}.cls-21{fill:url(#radial-gradient-15);}.cls-22{fill:url(#linear-gradient-4);}.cls-23{fill:url(#linear-gradient-5);}.cls-24{fill:url(#radial-gradient-16);}.cls-25{clip-path:url(#clip-path-2);}.cls-26{fill:url(#radial-gradient-17);}.cls-27{fill:url(#radial-gradient-18);}.cls-28{fill:url(#radial-gradient-19);}.cls-29{fill:url(#radial-gradient-20);}</style><radialGradient id="radial-gradient" cx="-3.05" cy="28.74" r="16.48" gradientUnits="userSpaceOnUse"><stop offset="0" stop-color="#283c59"/><stop offset="1" stop-color="#618fbf"/></radialGradient><radialGradient id="radial-gradient-2" cx="29.42" cy="5.15" r="40.39" gradientUnits="userSpaceOnUse"><stop offset="0" stop-color="#618fbf"/><stop offset="1" stop-color="#283c59"/></radialGradient><radialGradient id="radial-gradient-3" cx="36.11" cy="52.5" r="75.9" xlink:href="#radial-gradient-2"/><radialGradient id="radial-gradient-4" cx="33.67" cy="10.48" r="7.9" gradientUnits="userSpaceOnUse"><stop offset="0" stop-color="#fff"/><stop offset="0.14" stop-color="#f9fbfd"/><stop offset="0.31" stop-color="#e9f0f7"/><stop offset="0.51" stop-color="#cfdfee"/><stop offset="0.72" stop-color="#aac6e1"/><stop offset="0.94" stop-color="#7ba7d1"/><stop offset="1" stop-color="#6e9ecc"/></radialGradient><radialGradient id="radial-gradient-5" cx="4.45" cy="25.29" r="42.26" xlink:href="#radial-gradient-4"/><radialGradient id="radial-gradient-6" cx="22.79" cy="43.47" r="27.24" gradientUnits="userSpaceOnUse"><stop offset="0" stop-color="#b5deff"/><stop offset="1"/></radialGradient><linearGradient id="linear-gradient" x1="25.37" y1="36.68" x2="2.42" y2="13.73" gradientUnits="userSpaceOnUse"><stop offset="0" stop-color="#38779e"/><stop offset="1" stop-color="#b0dbff"/></linearGradient><radialGradient id="radial-gradient-7" cx="22.05" cy="11.22" r="15.49" xlink:href="#radial-gradient-4"/><radialGradient id="radial-gradient-8" cx="1.95" cy="30.43" r="14.85" xlink:href="#radial-gradient-4"/><radialGradient id="radial-gradient-9" cx="14" cy="-14.59" r="31.14" gradientUnits="userSpaceOnUse"><stop offset="0" stop-color="#d9f0ff"/><stop offset="1"/></radialGradient><radialGradient id="radial-gradient-10" cx="45.39" cy="77.89" r="62.62" gradientUnits="userSpaceOnUse"><stop offset="0" stop-color="#8fcbff"/><stop offset="0.12" stop-color="#81b8e7"/><stop offset="0.38" stop-color="#5e85a8"/><stop offset="0.76" stop-color="#263644"/><stop offset="1"/></radialGradient><linearGradient id="linear-gradient-2" x1="20.29" y1="-1.62" x2="2.73" y2="31.87" gradientUnits="userSpaceOnUse"><stop offset="0" stop-color="#cff2ff"/><stop offset="1"/></linearGradient><linearGradient id="linear-gradient-3" x1="23.33" y1="21.39" x2="34.77" y2="21.39" xlink:href="#linear-gradient-2"/><radialGradient id="radial-gradient-11" cx="12.23" cy="18.17" r="45.79" gradientUnits="userSpaceOnUse"><stop offset="0" stop-color="#80d5ff"/><stop offset="1"/></radialGradient><radialGradient id="radial-gradient-12" cx="-8.68" cy="7.63" r="43.29" xlink:href="#radial-gradient-9"/><clipPath id="clip-path"><path class="cls-1" d="M6.34,55.72C9,53,11.6,50.21,14.26,47.3H5.05c-1.19,3.25-2.1,6-2.49,7.6-.31,1.31-1.08,3.94-.57,4.21l.1,0h0c.68,0,2.9-2,4.24-3.41Z"/></clipPath><radialGradient id="radial-gradient-13" cx="13.55" cy="0.68" r="58.71" gradientUnits="userSpaceOnUse"><stop offset="0" stop-color="#fcf800"/><stop offset="1" stop-color="#fc9700"/></radialGradient><radialGradient id="radial-gradient-14" cx="29.43" cy="13.59" r="31.14" gradientUnits="userSpaceOnUse"><stop offset="0"/><stop offset="0.08" stop-color="#232112"/><stop offset="0.22" stop-color="#5c582e"/><stop offset="0.36" stop-color="#8e8747"/><stop offset="0.5" stop-color="#b7ae5c"/><stop offset="0.64" stop-color="#d6cc6c"/><stop offset="0.77" stop-color="#ede277"/><stop offset="0.89" stop-color="#faef7e"/><stop offset="1" stop-color="#fff380"/></radialGradient><radialGradient id="radial-gradient-15" cx="45.39" cy="77.89" r="62.62" gradientUnits="userSpaceOnUse"><stop offset="0" stop-color="#ffd000"/><stop offset="0.11" stop-color="#facc00"/><stop offset="0.23" stop-color="#edc100"/><stop offset="0.36" stop-color="#d6af00"/><stop offset="0.5" stop-color="#b79500"/><stop offset="0.64" stop-color="#8e7400"/><stop offset="0.78" stop-color="#5c4b00"/><stop offset="0.92" stop-color="#231c00"/><stop offset="1"/></radialGradient><linearGradient id="linear-gradient-4" x1="20.29" y1="-1.62" x2="2.73" y2="31.87" gradientUnits="userSpaceOnUse"><stop offset="0" stop-color="#fffacf"/><stop offset="1"/></linearGradient><linearGradient id="linear-gradient-5" x1="23.33" y1="21.39" x2="34.77" y2="21.39" xlink:href="#linear-gradient-4"/><radialGradient id="radial-gradient-16" cx="-8.68" cy="7.63" r="43.29" gradientUnits="userSpaceOnUse"><stop offset="0" stop-color="#fff261"/><stop offset="0.11" stop-color="#faee5f"/><stop offset="0.23" stop-color="#ede15a"/><stop offset="0.36" stop-color="#d6cb52"/><stop offset="0.5" stop-color="#b7ad46"/><stop offset="0.64" stop-color="#8e8736"/><stop offset="0.78" stop-color="#5c5823"/><stop offset="0.92" stop-color="#23210d"/><stop offset="1"/></radialGradient><clipPath id="clip-path-2"><path class="cls-1" d="M10.08,60.66q3.91-4,7.9-8.39l-3.72-5C11.6,50.21,9,53,6.34,55.72,5,57.09,2.78,59.12,2.1,59.13h0l-.1,0,0,0,0,0c.21.4,3.17,4.35,3.72,4.92a.6.6,0,0,0,.08.08c.5.27,2.93-1.94,4.35-3.4Z"/></clipPath><radialGradient id="radial-gradient-17" cx="36.11" cy="52.5" r="75.9" gradientUnits="userSpaceOnUse"><stop offset="0" stop-color="#fcac00"/><stop offset="1" stop-color="#ff7300"/></radialGradient><radialGradient id="radial-gradient-18" cx="4.45" cy="25.29" r="42.26" gradientUnits="userSpaceOnUse"><stop offset="0" stop-color="#fff"/><stop offset="0.1" stop-color="#fffdf9"/><stop offset="0.22" stop-color="#fef6e9"/><stop offset="0.36" stop-color="#fdeacf"/><stop offset="0.51" stop-color="#fbdbaa"/><stop offset="0.67" stop-color="#f9c67a"/><stop offset="0.84" stop-color="#f6ae41"/><stop offset="1" stop-color="#f39200"/></radialGradient><radialGradient id="radial-gradient-19" cx="22.79" cy="43.47" r="27.24" gradientUnits="userSpaceOnUse"><stop offset="0.58"/><stop offset="0.74" stop-color="#020201"/><stop offset="0.79" stop-color="#090805"/><stop offset="0.83" stop-color="#14130b"/><stop offset="0.87" stop-color="#252315"/><stop offset="0.89" stop-color="#3b3721"/><stop offset="0.92" stop-color="#575131"/><stop offset="0.94" stop-color="#776f43"/><stop offset="0.96" stop-color="#9d9258"/><stop offset="0.98" stop-color="#c8bb70"/><stop offset="1" stop-color="#f6e58a"/><stop offset="1" stop-color="#ffee8f"/></radialGradient><radialGradient id="radial-gradient-20" cx="0.83" cy="13.61" r="45.79" gradientUnits="userSpaceOnUse"><stop offset="0" stop-color="aqua"/><stop offset="0.11" stop-color="#00fafa"/><stop offset="0.23" stop-color="#00eded"/><stop offset="0.36" stop-color="#00d6d6"/><stop offset="0.5" stop-color="#00b7b7"/><stop offset="0.64" stop-color="#008e8e"/><stop offset="0.78" stop-color="#005c5c"/><stop offset="0.92" stop-color="#002323"/><stop offset="1"/></radialGradient></defs><title>LL2</title><g class="cls-2"><g id="Layer_2" data-name="Layer 2"><g id="Layer_1-2" data-name="Layer 1"><path class="cls-3" d="M11.23,32a102.29,102.29,0,0,1-10.37.09.86.86,0,0,1-.7-.39,21.84,21.84,0,0,0,2.31,3.08A13.14,13.14,0,0,0,4.6,37c1.14.06,2.76.09,4.44.09.73-1.75,1.46-3.48,2.19-5.13Z"/><path class="cls-4" d="M35.44,1.94c-3.61,5.76-8.14,12.59-12,18.33,2.05-.1,4.74-.16,7.2-.17,3-4.42,6-9.09,8.59-13.22A1,1,0,0,0,39.24,6a37.53,37.53,0,0,0-3.9-5.2h.16a.88.88,0,0,1-.06.86Z"/><path class="cls-5" d="M35.84,21.61A401.89,401.89,0,0,1,6.34,55.72C4.92,57.18,2.5,59.37,2,59.11l0,0H2l0,0c.21.4,3.17,4.35,3.72,4.92a.6.6,0,0,0,.08.08c.5.27,2.93-1.94,4.35-3.4a398.8,398.8,0,0,0,29.5-34.11,1,1,0,0,0,.1-.93c-.09-.19-.07-.12-.11-.17-.42-.69-3-4.05-3.67-4.86h0v0h0a.87.87,0,0,1-.1.94Z"/><path class="cls-6" d="M35.3,2.17a6.25,6.25,0,0,1,2.11,3c.5,3.84-3.18,8.89-5.2,11.7-1.57,2.18-2.74,3-4.17,3.27.85,0,1.71,0,2.55,0,3-4.42,6-9.09,8.59-13.22A1,1,0,0,0,39.24,6a37.33,37.33,0,0,0-3.9-5.2h.16a.88.88,0,0,1-.06.86l-.14.23Z"/><path class="cls-7" d="M39.57,25.45c-.36-.59-2.26-3.13-3.26-4.36,2,4.22,2,5.74-.74,9.45C32.17,35.11,28.68,39.62,25,44c-3.36,4-6.85,7.86-10.51,11.57a40.68,40.68,0,0,1-5.38,4.51,5.5,5.5,0,0,1-6,.63c1,1.3,2.22,2.94,2.56,3.29a.6.6,0,0,0,.08.08c.5.27,2.93-1.94,4.35-3.4a398.8,398.8,0,0,0,29.5-34.11,1,1,0,0,0,.1-.93c-.09-.19-.07-.12-.11-.17Z"/><path class="cls-8" d="M8.36,62.32c-.43.22-.95.36-1.21.16a25.72,25.72,0,0,1-2.6-3.25l-.09-.13a1.93,1.93,0,0,1,.06-1.64c-1.12,1-2.21,1.82-2.53,1.65l-.06,0c.21.4,3.17,4.35,3.72,4.92a.6.6,0,0,0,.08.08c.33.17,1.48-.71,2.63-1.74ZM34.78,23.17a1.15,1.15,0,0,1,1-.08.52.52,0,0,1,.11.1,27.41,27.41,0,0,1,2.57,3.29,1.77,1.77,0,0,1,0,1.46c.36-.46.72-.92,1.07-1.39a1,1,0,0,0,.1-.93c-.09-.19-.07-.12-.11-.17-.42-.69-3-4.05-3.67-4.86,0,0,0,.05,0,.08a.87.87,0,0,1-.1.94l-1.21,1.56-.09.13a1.36,1.36,0,0,1,.24-.13Z"/><path class="cls-9" d="M15.92.65c3.82-.8,14-.89,18.9-.09a.89.89,0,0,1,.68.52.88.88,0,0,1-.06.86c-3.61,5.76-8.14,12.59-12,18.33,3.49-.16,8.83-.23,11.76-.12a.91.91,0,0,1,.79.52.87.87,0,0,1-.1.94A401.89,401.89,0,0,1,6.34,55.72C4.92,57.18,2.5,59.37,2,59.11s.26-2.9.57-4.21c1-3.93,5-14.55,8.67-22.92a102.29,102.29,0,0,1-10.37.09.86.86,0,0,1-.7-.39.91.91,0,0,1-.11-.8C2.61,23.25,10.91,6.82,14.83,1.37A1.71,1.71,0,0,1,15.92.65Z"/><path class="cls-10" d="M34,14.92c-2.53,2.29-7.41,3.77-8.52,2.24-.71,1.06-1.42,2.1-2.11,3.11,2.05-.1,4.74-.16,7.2-.17,1.14-1.7,2.29-3.44,3.43-5.18Z"/><path class="cls-11" d="M7.58,32.14C9,33.21,6.82,36.61,4,36.54c.27.28.49.48.58.48,1.14.06,2.76.09,4.44.09.73-1.75,1.46-3.48,2.19-5.13-1,.08-2.25.13-3.65.16Z"/><path class="cls-12" d="M16.26,4.87a54.76,54.76,0,0,1,13.48-.28,3.11,3.11,0,0,1,1.64.62c.89.75.28,2.4-.5,3.84C32.48,6.6,34,4.19,35.44,1.94a.88.88,0,0,0,.06-.86.89.89,0,0,0-.68-.52c-4.91-.8-15.08-.71-18.9.09a1.71,1.71,0,0,0-1.09.72A115.89,115.89,0,0,0,7.34,14.5c1.93-3.28,6-9.15,8.92-9.63Z"/><path class="cls-13" d="M2,59.09l0,0,0,0ZM35.15,20.15c-.95,0-2.15,0-3.46,0,2.2.71,2.2,2.32.43,4.62C27.36,30.9,14.71,46.3,8.5,50.84c-3.14,2.29-4.16.84-4.28-1.21-.78,2.21-1.36,4.06-1.66,5.27s-1,3.7-.63,4.16l0,0,0,0c.32.17,1.41-.66,2.53-1.65.64-.58,1.3-1.21,1.82-1.74A404.86,404.86,0,0,0,34.54,23.3c.43-.57.87-1.13,1.3-1.69a.87.87,0,0,0,.1-.94h0v0h0a.93.93,0,0,0-.75-.44Z"/><path class="cls-14" d="M16.9,1.18a2.6,2.6,0,0,0-1.34.62C12.49,5,5.07,19.48,4,23.33c-.07.26-.17.72,0,.89s.76-.39.92-.64c2.74-4.32,5.17-8.82,7.87-13.16,1.35-2.18,2.95-4.67,4.52-6.7,1-1.28,2.83-1.63,4.26-2,2-.57,1.22-1.08-.26-1a28.48,28.48,0,0,0-4.44.5Z"/><path class="cls-15" d="M34.14,20.41c-3.34,0-6.69,0-10,.13-1.63.08-.37,1.74.77,1.82a29.11,29.11,0,0,0,9.17-1.23c.27-.09.68-.2.72-.49s-.4-.23-.63-.23Z"/><path class="cls-16" d="M5.55,56.51c-.21,3.65,8.18-3.09,10.08-4.83,6.45-5.92,14.15-14.12,18.53-21.79,1.5-2.65,1.69-6.06-.52-5.45A403.2,403.2,0,0,1,6.55,55.5l-.21.22-.79.79Z"/><path class="cls-17" d="M17.23,7.74a8.21,8.21,0,0,0-2.31,2.35c-3.08,5.26-5.73,10.76-8.54,16.17-.59,1.13-1.24,3.27.86,3.46,2.46.22,4.93,0,7.39,0C12.08,35.29,9,41,7.29,46.86c-.53,1.81,1,1.85,2.11.77,5.39-5,14.81-15.32,18.63-21.89,1-1.72-.69-2.54-2.12-2.6-2.06-.07-4.12.07-6.19.1,2.4-3.9,4.91-7.74,7.2-11.71a5.18,5.18,0,0,0,.63-1.87,2.81,2.81,0,0,0-1-2.45c-1.06-1-4-1-6.39-.56a7.94,7.94,0,0,0-3,1.09Z"/><g class="cls-18"><path class="cls-19" d="M15.92.65c3.82-.8,14-.89,18.9-.09a.89.89,0,0,1,.68.52.88.88,0,0,1-.06.86c-3.61,5.76-8.14,12.59-12,18.33,3.49-.16,8.83-.23,11.76-.12a.91.91,0,0,1,.79.52.87.87,0,0,1-.1.94A401.89,401.89,0,0,1,6.34,55.72C4.92,57.18,2.5,59.37,2,59.11s.26-2.9.57-4.21c1-3.93,5-14.55,8.67-22.92a102.29,102.29,0,0,1-10.37.09.86.86,0,0,1-.7-.39.91.91,0,0,1-.11-.8C2.61,23.25,10.91,6.82,14.83,1.37A1.71,1.71,0,0,1,15.92.65Z"/><path class="cls-20" d="M16.26,4.87a54.76,54.76,0,0,1,13.48-.28,3.11,3.11,0,0,1,1.64.62c.89.75.28,2.4-.5,3.84C32.48,6.6,34,4.19,35.44,1.94a.88.88,0,0,0,.06-.86.89.89,0,0,0-.68-.52c-4.91-.8-15.08-.71-18.9.09a1.71,1.71,0,0,0-1.09.72A115.89,115.89,0,0,0,7.34,14.5c1.93-3.28,6-9.15,8.92-9.63Z"/><path class="cls-21" d="M2,59.09l0,0,0,0ZM35.15,20.15c-.95,0-2.15,0-3.46,0,2.2.71,2.2,2.32.43,4.62C27.36,30.9,14.71,46.3,8.5,50.84c-3.14,2.29-4.16.84-4.28-1.21-.78,2.21-1.36,4.06-1.66,5.27s-1,3.7-.63,4.16l0,0,0,0c.32.17,1.41-.66,2.53-1.65.64-.58,1.3-1.21,1.82-1.74A404.86,404.86,0,0,0,34.54,23.3c.43-.57.87-1.13,1.3-1.69a.87.87,0,0,0,.1-.94h0v0h0a.93.93,0,0,0-.75-.44Z"/><path class="cls-22" d="M16.9,1.18a2.6,2.6,0,0,0-1.34.62C12.49,5,5.07,19.48,4,23.33c-.07.26-.17.72,0,.89s.76-.39.92-.64c2.74-4.32,5.17-8.82,7.87-13.16,1.35-2.18,2.95-4.67,4.52-6.7,1-1.28,2.83-1.63,4.26-2,2-.57,1.22-1.08-.26-1a28.48,28.48,0,0,0-4.44.5Z"/><path class="cls-23" d="M34.14,20.41c-3.34,0-6.69,0-10,.13-1.63.08-.37,1.74.77,1.82a29.11,29.11,0,0,0,9.17-1.23c.27-.09.68-.2.72-.49s-.4-.23-.63-.23Z"/><path class="cls-24" d="M17.23,7.74a8.21,8.21,0,0,0-2.31,2.35c-3.08,5.26-5.73,10.76-8.54,16.17-.59,1.13-1.24,3.27.86,3.46,2.46.22,4.93,0,7.39,0C12.08,35.29,9,41,7.29,46.86c-.53,1.81,1,1.85,2.11.77,5.39-5,14.81-15.32,18.63-21.89,1-1.72-.69-2.54-2.12-2.6-2.06-.07-4.12.07-6.19.1,2.4-3.9,4.91-7.74,7.2-11.71a5.18,5.18,0,0,0,.63-1.87,2.81,2.81,0,0,0-1-2.45c-1.06-1-4-1-6.39-.56a7.94,7.94,0,0,0-3,1.09Z"/></g><g class="cls-25"><path class="cls-26" d="M35.84,21.61A401.89,401.89,0,0,1,6.34,55.72C4.92,57.18,2.5,59.37,2,59.11l0,0H2l0,0c.21.4,3.17,4.35,3.72,4.92a.6.6,0,0,0,.08.08c.5.27,2.93-1.94,4.35-3.4a398.8,398.8,0,0,0,29.5-34.11,1,1,0,0,0,.1-.93c-.09-.19-.07-.12-.11-.17-.42-.69-3-4.05-3.67-4.86h0v0h0a.87.87,0,0,1-.1.94Z"/><path class="cls-27" d="M39.57,25.45c-.36-.59-2.26-3.13-3.26-4.36,2,4.22,2,5.74-.74,9.45C32.17,35.11,28.68,39.62,25,44c-3.36,4-6.85,7.86-10.51,11.57a40.68,40.68,0,0,1-5.38,4.51,5.5,5.5,0,0,1-6,.63c1,1.3,2.22,2.94,2.56,3.29a.6.6,0,0,0,.08.08c.5.27,2.93-1.94,4.35-3.4a398.8,398.8,0,0,0,29.5-34.11,1,1,0,0,0,.1-.93c-.09-.19-.07-.12-.11-.17Z"/><path class="cls-28" d="M8.36,62.32c-.43.22-.95.36-1.21.16a25.72,25.72,0,0,1-2.6-3.25l-.09-.13a1.93,1.93,0,0,1,.06-1.64c-1.12,1-2.21,1.82-2.53,1.65l-.06,0c.21.4,3.17,4.35,3.72,4.92a.6.6,0,0,0,.08.08c.33.17,1.48-.71,2.63-1.74ZM34.78,23.17a1.15,1.15,0,0,1,1-.08.52.52,0,0,1,.11.1,27.41,27.41,0,0,1,2.57,3.29,1.77,1.77,0,0,1,0,1.46c.36-.46.72-.92,1.07-1.39a1,1,0,0,0,.1-.93c-.09-.19-.07-.12-.11-.17-.42-.69-3-4.05-3.67-4.86,0,0,0,.05,0,.08a.87.87,0,0,1-.1.94l-1.21,1.56-.09.13a1.36,1.36,0,0,1,.24-.13Z"/><path class="cls-29" d="M5.55,56.51c-.21,3.65,8.18-3.09,10.08-4.83,6.45-5.92,14.15-14.12,18.53-21.79,1.5-2.65,1.69-6.06-.52-5.45A403.2,403.2,0,0,1,6.55,55.5l-.21.22-.79.79Z"/></g></g></g></g></svg>