<svg width="94" height="94" viewBox="0 0 94 94" fill="none" xmlns="http://www.w3.org/2000/svg">
<rect opacity="0.2" width="94" height="94" rx="47" fill="#789E2A"/>
<ellipse cx="47.1197" cy="47.9949" rx="37.125" ry="36" fill="url(#paint0_linear_1_168)"/>
<path d="M63.7595 39.8041H54.5433C52.8624 39.8041 51.4713 41.1953 51.4713 42.8762V43.9195H43.2984V42.8762C43.2984 36.6741 48.3412 31.6313 54.5433 31.6313H63.7595V39.8041Z" fill="white"/>
<path fill-rule="evenodd" clip-rule="evenodd" d="M51.4713 52.0924L51.4713 43.9195H43.2984L40.2264 43.9195C34.0244 43.9195 28.9816 48.9623 28.9816 55.1644C28.9816 61.3665 34.0244 66.4093 40.2264 66.4093C46.4285 66.4093 51.4713 61.3665 51.4713 55.1644V52.0924ZM40.2264 58.2365C41.9074 58.2365 43.2985 56.8454 43.2985 55.1644V52.0924H40.2264C38.5455 52.0924 37.1544 53.4835 37.1544 55.1644C37.1544 56.8454 38.5455 58.2365 40.2264 58.2365Z" fill="white"/>
<path d="M51.4713 43.9195L59.6444 43.9195V52.0924H51.4713L51.4713 43.9195Z" fill="white"/>
<defs>
<linearGradient id="paint0_linear_1_168" x1="28.1933" y1="22.5831" x2="63.4694" y2="101.76" gradientUnits="userSpaceOnUse">
<stop stop-color="#0BD882"/>
<stop offset="1" stop-color="#309168"/>
<stop offset="1.0001" stop-color="#116AC3"/>
</linearGradient>
</defs>
</svg>
