<svg xmlns="http://www.w3.org/2000/svg" xmlns:xlink="http://www.w3.org/1999/xlink" viewBox="0 0 19.45 22.22"><defs><style>.cls-1{isolation:isolate;}.cls-10,.cls-11,.cls-12,.cls-13,.cls-14,.cls-15,.cls-16,.cls-17,.cls-18,.cls-19,.cls-2,.cls-20,.cls-21,.cls-22,.cls-23,.cls-24,.cls-25,.cls-26,.cls-27,.cls-28,.cls-29,.cls-3,.cls-30,.cls-31,.cls-32,.cls-33,.cls-34,.cls-35,.cls-36,.cls-37,.cls-39,.cls-4,.cls-40,.cls-41,.cls-42,.cls-43,.cls-44,.cls-45,.cls-5,.cls-6,.cls-7,.cls-8,.cls-9{fill-rule:evenodd;}.cls-2{fill:url(#linear-gradient);}.cls-16,.cls-18,.cls-23,.cls-3,.cls-31,.cls-41,.cls-43,.cls-44,.cls-5,.cls-6{opacity:0.5;}.cls-18,.cls-23,.cls-3,.cls-41,.cls-44,.cls-6{mix-blend-mode:multiply;}.cls-3{fill:url(#linear-gradient-2);}.cls-10,.cls-11,.cls-14,.cls-15,.cls-16,.cls-17,.cls-19,.cls-21,.cls-22,.cls-35,.cls-36,.cls-37,.cls-38,.cls-4,.cls-42,.cls-43,.cls-5,.cls-7{mix-blend-mode:screen;}.cls-4{fill:url(#linear-gradient-3);}.cls-5{fill:url(#linear-gradient-4);}.cls-6{fill:url(#linear-gradient-5);}.cls-7{fill:#e26f80;}.cls-8{fill:url(#radial-gradient);}.cls-9{fill:url(#radial-gradient-2);}.cls-10{fill:url(#radial-gradient-3);}.cls-11,.cls-14,.cls-15{opacity:0.6;}.cls-11{fill:url(#radial-gradient-4);}.cls-12{fill:url(#radial-gradient-5);}.cls-13{fill:url(#radial-gradient-6);}.cls-14{fill:url(#radial-gradient-7);}.cls-15{fill:url(#radial-gradient-8);}.cls-16{fill:url(#radial-gradient-9);}.cls-17{opacity:0.3;fill:url(#radial-gradient-10);}.cls-18{fill:url(#radial-gradient-11);}.cls-19{fill:url(#radial-gradient-12);}.cls-20{fill:url(#radial-gradient-13);}.cls-21{fill:url(#radial-gradient-14);}.cls-22{fill:url(#radial-gradient-15);}.cls-23{fill:url(#radial-gradient-16);}.cls-24,.cls-33{fill:#fff;}.cls-25,.cls-26,.cls-28{fill:#f9b233;}.cls-25{opacity:0.75;}.cls-27{fill:#c94300;}.cls-28{opacity:0.4;}.cls-29{fill:#f99900;}.cls-30,.cls-31,.cls-32{fill:#ffc82c;}.cls-32{opacity:0.8;}.cls-33{opacity:0.1;}.cls-34{fill:url(#radial-gradient-17);}.cls-35{opacity:0.35;fill:url(#radial-gradient-18);}.cls-36{fill:url(#radial-gradient-19);}.cls-37{fill:url(#radial-gradient-20);}.cls-39{fill:url(#radial-gradient-21);}.cls-40{fill:url(#linear-gradient-6);}.cls-41{fill:url(#linear-gradient-7);}.cls-42{fill:url(#linear-gradient-8);}.cls-43{fill:url(#linear-gradient-9);}.cls-44{fill:url(#linear-gradient-10);}.cls-45{fill:url(#radial-gradient-22);}</style><linearGradient id="linear-gradient" x1="27.53" y1="-11.9" x2="39.46" y2="-11.9" gradientTransform="translate(-29.81 12.6) rotate(30)" gradientUnits="userSpaceOnUse"><stop offset="0.01" stop-color="#781916"/><stop offset="0.31" stop-color="#963333"/><stop offset="1" stop-color="#450e0e"/></linearGradient><linearGradient id="linear-gradient-2" x1="27.53" y1="-12.39" x2="28.16" y2="-12.39" gradientTransform="translate(-29.81 12.6) rotate(30)" gradientUnits="userSpaceOnUse"><stop offset="0" stop-color="#616dbe"/><stop offset="0.6" stop-color="#c3c7e6"/><stop offset="1" stop-color="#fff"/></linearGradient><linearGradient id="linear-gradient-3" x1="29.91" y1="-11.21" x2="32.3" y2="-11.21" gradientTransform="translate(-29.81 12.6) rotate(30)" gradientUnits="userSpaceOnUse"><stop offset="0" stop-color="#ab665d"/><stop offset="1" stop-color="#2b2321"/></linearGradient><linearGradient id="linear-gradient-4" x1="36.05" y1="-11.37" x2="37.76" y2="-11.37" xlink:href="#linear-gradient-3"/><linearGradient id="linear-gradient-5" x1="38.55" y1="-12.31" x2="39.46" y2="-12.31" gradientTransform="translate(-29.81 12.6) rotate(30)" gradientUnits="userSpaceOnUse"><stop offset="0" stop-color="#fff"/><stop offset="0.4" stop-color="#c3c7e6"/><stop offset="1" stop-color="#616dbe"/></linearGradient><radialGradient id="radial-gradient" cx="31.52" cy="-8.7" r="8.16" gradientTransform="translate(-29.81 12.6) rotate(30)" gradientUnits="userSpaceOnUse"><stop offset="0" stop-color="#bf4444"/><stop offset="1" stop-color="#57172e"/></radialGradient><radialGradient id="radial-gradient-2" cx="33.15" cy="-15.43" r="6.98" gradientTransform="translate(-29.81 12.6) rotate(30)" gradientUnits="userSpaceOnUse"><stop offset="0" stop-color="#ffa536"/><stop offset="1" stop-color="#a11300"/></radialGradient><radialGradient id="radial-gradient-3" cx="33.02" cy="-17.7" r="6.37" gradientTransform="translate(-29.81 12.6) rotate(30)" gradientUnits="userSpaceOnUse"><stop offset="0" stop-color="#e94e1b"/><stop offset="0.12" stop-color="#e44c1a"/><stop offset="0.25" stop-color="#d74819"/><stop offset="0.38" stop-color="#c04016"/><stop offset="0.53" stop-color="#a13613"/><stop offset="0.67" stop-color="#78280e"/><stop offset="0.82" stop-color="#471808"/><stop offset="0.97" stop-color="#0d0402"/><stop offset="1"/></radialGradient><radialGradient id="radial-gradient-4" cx="31.5" cy="-18.17" r="5.88" gradientTransform="translate(-29.81 12.6) rotate(30)" gradientUnits="userSpaceOnUse"><stop offset="0" stop-color="#f39200"/><stop offset="0.11" stop-color="#ee8f00"/><stop offset="0.24" stop-color="#e18700"/><stop offset="0.37" stop-color="#ca7a00"/><stop offset="0.51" stop-color="#ab6700"/><stop offset="0.66" stop-color="#824e00"/><stop offset="0.8" stop-color="#503000"/><stop offset="0.95" stop-color="#170e00"/><stop offset="1"/></radialGradient><radialGradient id="radial-gradient-5" cx="31.47" cy="-17.82" r="7.34" gradientTransform="translate(-29.81 12.6) rotate(30)" gradientUnits="userSpaceOnUse"><stop offset="0" stop-color="#ffa536"/><stop offset="1" stop-color="#d14a00"/></radialGradient><radialGradient id="radial-gradient-6" cx="33.15" cy="-26.35" r="5.41" xlink:href="#radial-gradient-2"/><radialGradient id="radial-gradient-7" cx="30.44" cy="-19.08" r="6.21" xlink:href="#radial-gradient-3"/><radialGradient id="radial-gradient-8" cx="30.68" cy="-17.57" r="3.81" xlink:href="#radial-gradient-4"/><radialGradient id="radial-gradient-9" cx="33.22" cy="-17.39" r="3.15" xlink:href="#radial-gradient-3"/><radialGradient id="radial-gradient-10" cx="33.05" cy="-16.7" r="1.91" xlink:href="#radial-gradient-4"/><radialGradient id="radial-gradient-11" cx="35.73" cy="-16.34" r="2.8" gradientTransform="translate(-29.81 12.6) rotate(30)" gradientUnits="userSpaceOnUse"><stop offset="0" stop-color="#c30"/><stop offset="1" stop-color="#fff"/></radialGradient><radialGradient id="radial-gradient-12" cx="33.37" cy="-25.6" r="4" xlink:href="#radial-gradient-3"/><radialGradient id="radial-gradient-13" cx="34.04" cy="-25.91" r="5.82" xlink:href="#radial-gradient-5"/><radialGradient id="radial-gradient-14" cx="32.91" cy="-27.32" r="4.33" xlink:href="#radial-gradient-3"/><radialGradient id="radial-gradient-15" cx="32.36" cy="-26.89" r="3.27" xlink:href="#radial-gradient-4"/><radialGradient id="radial-gradient-16" cx="35.32" cy="-26.59" r="5.61" xlink:href="#radial-gradient-11"/><radialGradient id="radial-gradient-17" cx="26.63" cy="-26.59" r="22.5" gradientTransform="translate(-29.81 12.6) rotate(30)" gradientUnits="userSpaceOnUse"><stop offset="0" stop-color="#ccf0ef"/><stop offset="1" stop-color="#5e73e6"/></radialGradient><radialGradient id="radial-gradient-18" cx="43.34" cy="-19.68" r="13.29" gradientTransform="translate(-29.81 12.6) rotate(30)" gradientUnits="userSpaceOnUse"><stop offset="0.37"/><stop offset="1" stop-color="#fff"/></radialGradient><radialGradient id="radial-gradient-19" cx="33.36" cy="-22.11" r="15.52" gradientTransform="translate(-29.81 12.6) rotate(30)" gradientUnits="userSpaceOnUse"><stop offset="0"/><stop offset="1" stop-color="#fff"/></radialGradient><radialGradient id="radial-gradient-20" cx="33.02" cy="-16.54" r="17.76" gradientTransform="translate(-29.81 12.6) rotate(30)" gradientUnits="userSpaceOnUse"><stop offset="0"/><stop offset="0.57" stop-color="#fff"/></radialGradient><radialGradient id="radial-gradient-21" cx="-27.99" cy="-412.22" r="6.26" gradientTransform="matrix(0.93, -0.36, 0.36, 0.93, 186.92, 380.89)" xlink:href="#radial-gradient-19"/><linearGradient id="linear-gradient-6" x1="27.53" y1="-28.45" x2="39.46" y2="-28.45" xlink:href="#linear-gradient"/><linearGradient id="linear-gradient-7" x1="27.53" y1="-28.93" x2="28.16" y2="-28.93" xlink:href="#linear-gradient-2"/><linearGradient id="linear-gradient-8" x1="29.91" y1="-27.76" x2="32.3" y2="-27.76" xlink:href="#linear-gradient-3"/><linearGradient id="linear-gradient-9" x1="36.05" y1="-27.91" x2="37.76" y2="-27.91" xlink:href="#linear-gradient-3"/><linearGradient id="linear-gradient-10" x1="38.54" y1="-28.86" x2="39.46" y2="-28.86" xlink:href="#linear-gradient-5"/><radialGradient id="radial-gradient-22" cx="28.71" cy="-26.2" r="14.37" xlink:href="#radial-gradient"/></defs><title>home</title><g class="cls-1"><g id="Layer_2" data-name="Layer 2"><g id="Layer_1-2" data-name="Layer 1"><path class="cls-2" d="M11.1,20.67l-.69,1.18c-.49.85-3.19.2-6-1.45S-.41,16.73.08,15.89L.76,14.7l10.34,6Z"/><path class="cls-3" d="M.23,16.88.91,15.7a1,1,0,0,1-.15-1L.08,15.89c-.15.24-.08.59.15,1Z"/><path class="cls-4" d="M2.12,17.11,1.44,18.3a15,15,0,0,0,1.9,1.47L4,18.58a14.23,14.23,0,0,1-1.91-1.47Z"/><path class="cls-5" d="M7.35,20.34l-.69,1.19a12.19,12.19,0,0,0,1.66.54L9,20.88a11.22,11.22,0,0,1-1.65-.54Z"/><path class="cls-6" d="M9.83,21l-.68,1.19c.64.05,1.09-.06,1.26-.36l.69-1.18c-.17.29-.63.41-1.27.35Z"/><path class="cls-7" d="M6.75,16.2c2.83,1.63,4.72,3.64,4.23,4.49s-3.18.22-6-1.41S.26,15.64.75,14.79s3.18-.22,6,1.41Z"/><path class="cls-8" d="M6.81,16.15c2.86,1.65,4.78,3.67,4.29,4.52s-3.2.19-6-1.46S.27,15.54.76,14.7s3.2-.2,6.05,1.45Z"/><path class="cls-9" d="M1.57,15a1,1,0,0,0,.16.77,4.83,4.83,0,0,0,.58.68,14.7,14.7,0,0,0,3,2.24,14.07,14.07,0,0,0,3.45,1.49,4.9,4.9,0,0,0,.88.17,1,1,0,0,0,.94-.49l.68-1.18a4.83,4.83,0,0,0,.53-3.31c0-.11-.05-.22-.08-.34V15L1.57,15Z"/><path class="cls-10" d="M2.7,16.06l7.82-.12a6.39,6.39,0,0,1-1.1,3.11,1.19,1.19,0,0,1-1.34.34,12.39,12.39,0,0,1-5.17-2.53.63.63,0,0,1-.21-.8Z"/><path class="cls-11" d="M3.37,16.31,9.1,16a2.79,2.79,0,0,1-.84,1.76,2.48,2.48,0,0,1-1.74.14A12.25,12.25,0,0,1,5,17.54c-.76-.23-1.75-.73-1.58-1.23Z"/><path class="cls-12" d="M11.69,14.91a.41.41,0,0,1,0,.31c-.2.9-1.52,1.06-2.47,1-1.54-.14-2.68.69-4.22.74-1.31,0-3.45-.54-3.45-1.82a.66.66,0,0,1,.29-.47,9.64,9.64,0,0,1,3.3-1.41,22.27,22.27,0,0,1,3.79-.59c.88-.05,2.4,1.51,2.75,2.28Z"/><path class="cls-13" d="M9.36,9.56a1.48,1.48,0,0,1,.36,1c0,.12,0,.32.08.38s.26-.05.36-.13a1.49,1.49,0,0,1,1.09-.21,14.27,14.27,0,0,0,1.73,0,5.82,5.82,0,0,0,1.76-.32A5,5,0,0,0,16.81,9L8.94,8.88c.13.23.27.46.42.68Z"/><path class="cls-14" d="M7.15,12.92a14.41,14.41,0,0,0-4.44,1.37c-1.28.69.66,1.07,1.16,1.11,1.69.15,1.35-.11,2.51-1.11A2.43,2.43,0,0,1,7,13.86a5.36,5.36,0,0,1,2.22-.24c.2,0,1.06,0,.7-.44-.48-.64-2.12-.37-2.73-.26Z"/><path class="cls-15" d="M6.77,13.09a9.39,9.39,0,0,0-3.44,1c-.82.56.23.81.74.81,1,0,1.07-.29,1.76-.81a12.48,12.48,0,0,1,1.47-.82c.27-.16,0-.22-.15-.24a2.36,2.36,0,0,0-.38,0Z"/><path class="cls-16" d="M6.37,16.64c.27-.07.53-.18.8-.26a4.62,4.62,0,0,1,1.61-.32c.31,0,.8.11.84-.11s-.5-.77-1-1.06A1.4,1.4,0,0,0,6.69,15a3.27,3.27,0,0,0-.7.87c-.36.65-.48.94.38.74Z"/><path class="cls-17" d="M7.15,14.8a2.36,2.36,0,0,0-.81.73c-.62.9.35.72,1,.55A.88.88,0,0,0,8,15.45c.09-.57-.31-.94-.83-.65Z"/><path class="cls-18" d="M9.8,14.12a1,1,0,0,0-.56.31c-.42.72,1.68,1.86,2.19.92a.54.54,0,0,0,0-.53,1.78,1.78,0,0,0-.44-.51,1.05,1.05,0,0,0-1.14-.19Z"/><path class="cls-19" d="M9.26,9.09l5.49.23a4.28,4.28,0,0,1-3.2,1.09,3.2,3.2,0,0,1-1.15-.16A2.22,2.22,0,0,1,9.26,9.09Z"/><path class="cls-20" d="M13.2,7C15,7,17,8,17,8.63s-1.82,1.2-4.06,1.2S8.85,9.3,8.85,8.63,11.35,7,13.2,7Z"/><path class="cls-21" d="M13.33,7.06a7.56,7.56,0,0,0-3,.62c-1.41.64-.74,1.09.46,1.22.9.1,3.82.44,4.11-.85.11-.48-1-1-1.61-1Z"/><path class="cls-22" d="M10.43,7.75c-.63.34-.16.5.43.58.86.12,1.93.23,2.42-.66.09-.17.08-.29,0-.37a.8.8,0,0,0-.63-.15,7.36,7.36,0,0,0-2.23.6Z"/><path class="cls-23" d="M16,7.87c.74.7.11,1.22-.63,1.47a12.72,12.72,0,0,1-3.45.45c.33,0,.68,0,1,0,2.24,0,4.06-.53,4.06-1.2s-1.29-1.31-2.77-1.57A4.33,4.33,0,0,1,16,7.87Z"/><path class="cls-24" d="M11.07,10.64A5.45,5.45,0,0,0,16.5,9.27C14.45,10.88,11.07,10.64,11.07,10.64Z"/><path class="cls-24" d="M10.55,12.53a5,5,0,0,1,1.11,5.32C12.18,15.36,10.55,12.53,10.55,12.53Z"/><path class="cls-25" d="M7.21,18.74c.11.05.18.15.14.25a.2.2,0,0,1-.27.08C7,19,6.9,18.9,7,18.81a.19.19,0,0,1,.26-.07Z"/><path class="cls-25" d="M8.43,14.1a.12.12,0,0,0,.1.13c.07,0,.13,0,.14-.05s-.05-.11-.12-.13-.11,0-.12,0Z"/><path class="cls-25" d="M8.44,15.12a.19.19,0,0,1,.25,0c.07.07.09.15,0,.21a.19.19,0,0,1-.26-.06c-.06-.08-.08-.14,0-.19Z"/><path class="cls-26" d="M8.25,12.18a.2.2,0,0,1,.25,0c.07.08.1.16,0,.21a.18.18,0,0,1-.25,0c-.07-.08-.08-.14,0-.2Z"/><path class="cls-27" d="M9.29,11.46a.23.23,0,0,1,.3.06c.09.09.12.18,0,.25a.22.22,0,0,1-.31-.07c-.08-.09-.1-.17,0-.24Z"/><path class="cls-25" d="M5.48,16.3a.11.11,0,0,1,0-.17c0-.05.14,0,.18,0a.12.12,0,0,1,0,.17s-.1,0-.16,0Z"/><path class="cls-28" d="M4.45,17.5a.2.2,0,0,1,.28,0,.19.19,0,0,1,0,.29.28.28,0,0,1-.33,0c-.12-.05-.07-.2,0-.29Z"/><path class="cls-25" d="M9.76,19.29c.14,0,.2-.07.2-.17s0-.19-.19-.19-.2.08-.19.18.05.18.18.18Z"/><path class="cls-28" d="M8.2,19.4a.16.16,0,0,0,.18-.16.18.18,0,0,0-.17-.18.16.16,0,0,0-.16.17.17.17,0,0,0,.15.17Z"/><path class="cls-25" d="M9.86,18.37a.14.14,0,0,0,.21,0,.16.16,0,0,0-.05-.22.15.15,0,0,0-.22.05.16.16,0,0,0,.06.2Z"/><path class="cls-28" d="M6.23,18.13a.16.16,0,0,0,.25-.05.19.19,0,0,0-.05-.27.19.19,0,0,0-.26.08.18.18,0,0,0,.06.24Z"/><path class="cls-25" d="M7.76,14.77c.1,0,.21,0,.19-.15a.19.19,0,0,0-.18-.17.19.19,0,0,0-.19.17.17.17,0,0,0,.18.15Z"/><path class="cls-25" d="M8.91,20.13A.16.16,0,0,0,9.08,20a.17.17,0,0,0-.17-.17.16.16,0,1,0,0,.32Z"/><path class="cls-25" d="M7.38,17.66a.11.11,0,0,1,.14,0,.13.13,0,0,1,0,.15.11.11,0,0,1-.14,0s0-.08,0-.13Z"/><path class="cls-25" d="M8,18.16a.15.15,0,0,0,.1.19.16.16,0,0,0,.19-.12A.15.15,0,0,0,8.22,18a.16.16,0,0,0-.18.12Z"/><path class="cls-28" d="M8.68,18a.17.17,0,0,0,.13.23.21.21,0,0,0,.24-.13.19.19,0,0,0-.15-.23.19.19,0,0,0-.22.13Z"/><path class="cls-25" d="M5.07,18.41a.11.11,0,0,0,.18,0A.14.14,0,0,0,5,18.23a.12.12,0,0,0,0,.18Z"/><path class="cls-25" d="M9.5,17.32a.22.22,0,0,1-.19-.24.24.24,0,0,1,.26-.17.21.21,0,0,1,.17.26.2.2,0,0,1-.24.15Z"/><path class="cls-25" d="M3.33,17.24a.11.11,0,0,0,.18,0,.12.12,0,0,0,0-.19.13.13,0,1,0-.15.21Z"/><path class="cls-28" d="M7.05,13.74A.22.22,0,0,1,7.2,14a.2.2,0,0,1-.27.08c-.11-.05-.18-.17-.13-.26a.19.19,0,0,1,.25-.07Z"/><path class="cls-25" d="M10.74,16.41a.2.2,0,0,1,.28,0,.19.19,0,0,1,0,.29.28.28,0,0,1-.33,0c-.12-.05-.07-.2,0-.29Z"/><path class="cls-25" d="M6.42,14.88c.1,0,.18.15.14.24a.2.2,0,0,1-.27.08A.19.19,0,0,1,6.16,15a.18.18,0,0,1,.26-.07Z"/><path class="cls-29" d="M9.74,12.15c.14.06.23.18.18.3a.24.24,0,0,1-.33.1.25.25,0,0,1-.16-.32.22.22,0,0,1,.31-.08Z"/><path class="cls-25" d="M10.94,17.66a.09.09,0,0,1,.14,0s0,.11,0,.14a.09.09,0,0,1-.13,0s0-.08,0-.12Z"/><path class="cls-25" d="M8.08,13.26c0,.07,0,.11.1.14s.12,0,.13-.05a.13.13,0,0,0-.11-.14c-.07,0-.12,0-.12,0Z"/><path class="cls-28" d="M9.24,13.83a.12.12,0,0,0,.1.13c.07,0,.13,0,.13-.05s0-.11-.11-.13-.11,0-.12.05Z"/><path class="cls-30" d="M12.44,8.26a.15.15,0,0,0,.17-.14A.17.17,0,0,0,12.44,8a.14.14,0,0,0-.16.16.15.15,0,0,0,.16.14Z"/><path class="cls-30" d="M12.73,9.22a.11.11,0,0,1,.16,0,.13.13,0,0,1,0,.18.14.14,0,0,1-.17,0,.13.13,0,0,1,0-.16Z"/><path class="cls-30" d="M15.63,8.07c.09,0,.14,0,.14-.11a.13.13,0,0,0-.26,0c0,.07,0,.11.12.11Z"/><path class="cls-31" d="M11,7.76a.16.16,0,0,0-.24,0,.18.18,0,0,0,0,.25A.17.17,0,0,0,11,8a.16.16,0,0,0,0-.23Z"/><path class="cls-31" d="M9.12,8.68a.21.21,0,0,0,.16.24.23.23,0,0,0,.24-.19.21.21,0,0,0-.19-.24.19.19,0,0,0-.21.19Z"/><path class="cls-31" d="M10.16,9.2c0,.09.05.12.13.13s.11,0,.15-.1a.14.14,0,0,0-.13-.18.16.16,0,0,0-.15.15Z"/><path class="cls-31" d="M10.91,9.85a.16.16,0,0,1,.18,0c.05.06.05.12,0,.15a.14.14,0,0,1-.18,0c-.05-.06-.05-.11,0-.14Z"/><path class="cls-31" d="M11.09,8.8a.16.16,0,0,1,.05.22.16.16,0,0,1-.22,0,.15.15,0,0,1-.05-.22.16.16,0,0,1,.22,0Z"/><path class="cls-31" d="M12.35,7.63a.14.14,0,0,1-.18.1.17.17,0,0,1-.09-.19.14.14,0,1,1,.27.09Z"/><path class="cls-31" d="M11.7,8.38c0,.06,0,.13-.1.12a.12.12,0,1,1,.1-.12Z"/><path class="cls-31" d="M12.12,9.06A.09.09,0,0,1,12.2,9c.05,0,.09.05.1.1a.11.11,0,0,1-.1.1s-.07,0-.08-.09Z"/><path class="cls-31" d="M14.8,8.1a.17.17,0,0,0,0-.26.17.17,0,0,0-.27,0c-.09.12,0,.21,0,.26a.16.16,0,0,0,.25,0Z"/><path class="cls-32" d="M13.1,8.18a.17.17,0,0,0,.25,0,.19.19,0,0,0,0-.27.18.18,0,0,0-.26,0,.17.17,0,0,0,0,.24Z"/><path class="cls-31" d="M12.9,8.81a.14.14,0,0,0,.2,0,.15.15,0,0,0,0-.22.15.15,0,0,0-.21,0,.13.13,0,0,0,0,.2Z"/><path class="cls-31" d="M13.9,10.22a.17.17,0,0,0,.21,0c.08-.06.12-.12.06-.18a.18.18,0,0,0-.23,0c-.07.06-.1.11,0,.17Z"/><path class="cls-31" d="M14.68,9.28a.16.16,0,0,0,0-.22.17.17,0,0,0-.23,0,.15.15,0,1,0,.25.18Z"/><path class="cls-32" d="M15.73,8.89c.06-.08.08-.2,0-.24a.19.19,0,0,0-.24,0,.17.17,0,0,0,0,.24.16.16,0,0,0,.22,0Z"/><path class="cls-31" d="M16.37,9.12a.1.1,0,0,0,0-.15.11.11,0,0,0-.16,0,.12.12,0,0,0,0,.15.12.12,0,0,0,.14,0Z"/><path class="cls-33" d="M8.9,2,18,7.29l-.57,1a4.94,4.94,0,0,1-2.66,2.16,6.09,6.09,0,0,1-1.79.33,14.6,14.6,0,0,1-1.75,0c-.32,0-.91,0-1.1.29s.11.84.29,1.1a14.3,14.3,0,0,1,.88,1.52,5.73,5.73,0,0,1,.61,1.71,4.93,4.93,0,0,1-.54,3.39l-.68,1.17a1.09,1.09,0,0,1-1,.55,5.49,5.49,0,0,1-.9-.17,10.8,10.8,0,0,1-1.83-.66,18.28,18.28,0,0,1-1.65-.84,17.13,17.13,0,0,1-1.55-1,11.88,11.88,0,0,1-1.49-1.25,6.34,6.34,0,0,1-.59-.69,1.09,1.09,0,0,1,0-1.19l.68-1.17a4.87,4.87,0,0,1,2.66-2.16A5.73,5.73,0,0,1,6.72,11a14.6,14.6,0,0,1,1.75,0c.31,0,.91,0,1.1-.3s-.12-.83-.3-1.1A15.13,15.13,0,0,1,8.4,8.11,5.93,5.93,0,0,1,7.79,6.4,4.88,4.88,0,0,1,8.33,3L8.9,2Z"/><path class="cls-34" d="M8.73,1.42l9.88,5.7-.79,1.37a5.37,5.37,0,0,1-2.9,2.36A6.4,6.4,0,0,1,13,11.2c-3.18.1-2.81-.55-1.3,2.26a6.63,6.63,0,0,1,.65,1.84A5.34,5.34,0,0,1,11.76,19L11,20.35c-.47.81-3.05.19-5.78-1.38s-4.56-3.51-4.1-4.32l.79-1.36a5.4,5.4,0,0,1,2.9-2.36,6.52,6.52,0,0,1,1.92-.35c3.19-.11,2.81.55,1.31-2.26a6.35,6.35,0,0,1-.66-1.84A5.35,5.35,0,0,1,8,2.79l.78-1.37Zm.21.76-.52.88A4.8,4.8,0,0,0,7.9,6.38a6,6,0,0,0,.59,1.68,17.2,17.2,0,0,0,.87,1.5c.73,1,.37,1.67-.9,1.57a14.43,14.43,0,0,0-1.74,0A5.88,5.88,0,0,0,5,11.45a4.81,4.81,0,0,0-2.6,2.11l-.68,1.18a1,1,0,0,0,.05,1.06,4.83,4.83,0,0,0,.58.68,14.7,14.7,0,0,0,3,2.24,14.07,14.07,0,0,0,3.45,1.49,4.9,4.9,0,0,0,.88.17,1,1,0,0,0,.94-.49l.68-1.18a4.83,4.83,0,0,0,.53-3.31,5.92,5.92,0,0,0-.6-1.68,13.94,13.94,0,0,0-.87-1.5c-.73-1.06-.37-1.68.91-1.57a14.27,14.27,0,0,0,1.73,0,5.82,5.82,0,0,0,1.76-.32,4.82,4.82,0,0,0,2.6-2.12l.52-.88L8.94,2.18Z"/><path class="cls-35" d="M15,6.86A10.3,10.3,0,0,1,12.76,9.6a6.06,6.06,0,0,1-1.19.78c-1.84.87-1.46.22-1.3,2.26a5.8,5.8,0,0,1-.08,1.41,10.45,10.45,0,0,1-1.25,3.31L7.39,20.05A10.6,10.6,0,0,0,9,20.56l1.38-2.38a6.75,6.75,0,0,0,.92-3.5A5.17,5.17,0,0,0,11,13.05c-.83-2.43-1.21-1.77,1.31-2.26a5.2,5.2,0,0,0,1.55-.57,6.62,6.62,0,0,0,2.57-2.55l.79-1.36-1.41-.82L15,6.86Z"/><path class="cls-36" d="M5.47,15.36a16.32,16.32,0,0,1,2.06-2.84,7.76,7.76,0,0,1,1-.9c1.48-1.08,1.1-.43,1.3-2.25a6.57,6.57,0,0,1,.29-1.3,15.3,15.3,0,0,1,1.43-3.21l.78-1.36L9.63,1.94,8.84,3.31A6.11,6.11,0,0,0,8,6.87a5.5,5.5,0,0,0,.42,1.71c1.08,2.56,1.46,1.91-1.3,2.26a5.64,5.64,0,0,0-1.69.49,6,6,0,0,0-2.69,2.48L1.51,16a10.84,10.84,0,0,0,2.36,2.12c.54-.92,1.07-1.84,1.6-2.77Z"/><path class="cls-37" d="M6.65,11.16a5,5,0,0,0-2.92,1.63,4.73,4.73,0,0,0-1,1.72c0,.66,1.37,1.46,1.55,1.17A16.8,16.8,0,0,1,6.72,12.2c.19-.2.42-.36.64-.55s-.4-.52-.71-.49Z"/><g class="cls-38"><path class="cls-39" d="M10.3,4.35a5,5,0,0,0-.93-.59c-.08,0-.16,0-.26.12a3.26,3.26,0,0,0-.59,1.24,3.54,3.54,0,0,0,.39,3c.07.08.2.24.31.23s.08-.05.06-.18a3.43,3.43,0,0,1,0-1.06,6.66,6.66,0,0,1,.91-2.32C10.35,4.53,10.36,4.42,10.3,4.35Z"/></g><path class="cls-40" d="M19.37,6.34l-.69,1.19c-.48.84-3.19.19-6-1.46S7.86,2.4,8.35,1.56L9,.37l10.34,6Z"/><path class="cls-41" d="M8.5,2.56l.68-1.19A1,1,0,0,1,9,.37L8.35,1.56a1,1,0,0,0,.15,1Z"/><path class="cls-42" d="M10.39,2.79,9.71,4a14.4,14.4,0,0,0,1.91,1.46l.68-1.18a17,17,0,0,1-1.91-1.47Z"/><path class="cls-43" d="M15.62,6,14.93,7.2a9.92,9.92,0,0,0,1.66.54l.69-1.18A11.07,11.07,0,0,1,15.62,6Z"/><path class="cls-44" d="M18.1,6.69l-.68,1.19c.64.06,1.09,0,1.26-.35l.69-1.19c-.17.3-.63.41-1.27.35Z"/><path class="cls-7" d="M15,1.87c2.83,1.63,4.72,3.64,4.23,4.49s-3.18.22-6-1.41S8.53,1.31,9,.46,12.2.24,15,1.87Z"/><path class="cls-45" d="M15.09,1.82c2.85,1.65,4.77,3.67,4.28,4.52s-3.2.19-6.05-1.46S8.55,1.21,9,.37s3.2-.19,6.06,1.45Z"/></g></g></g></svg>