<svg width="25" height="40" viewBox="0 0 25 40" fill="none" xmlns="http://www.w3.org/2000/svg">
<g clip-path="url(#clip0_1_3108)">
<path fill-rule="evenodd" clip-rule="evenodd" d="M7.06285 19.9751C4.8912 20.1033 2.7144 20.122 0.540838 20.0313C0.453057 20.0292 0.367102 20.006 0.290398 19.9636C0.213695 19.9212 0.148548 19.8608 0.100586 19.7878C0.526895 20.4699 1.01306 21.1133 1.55342 21.7104C1.94374 22.2228 2.39337 22.6879 2.89304 23.0962C3.61002 23.1337 4.62889 23.1524 5.68549 23.1524C6.14461 22.06 6.60373 20.9801 7.06285 19.9501V19.9751Z" fill="url(#paint0_radial_1_3108)"/>
<path fill-rule="evenodd" clip-rule="evenodd" d="M22.2894 1.211C20.0189 4.80651 17.1699 9.06993 14.7422 12.6529C16.0315 12.5905 17.7233 12.5531 19.2705 12.5468C21.1573 9.78778 23.0441 6.87267 24.673 4.29465C24.7162 4.20962 24.7392 4.11592 24.7403 4.02071C24.7414 3.9255 24.7205 3.83131 24.6793 3.74533C23.9578 2.59498 23.1371 1.50893 22.2265 0.49939H22.3271C22.3677 0.584567 22.3856 0.678689 22.379 0.772705C22.3724 0.86672 22.3415 0.957467 22.2894 1.03622V1.211Z" fill="url(#paint1_radial_1_3108)"/>
<path fill-rule="evenodd" clip-rule="evenodd" d="M22.5408 13.4894C16.7627 20.9258 10.5685 28.0344 3.98737 34.7815C3.09429 35.6929 1.57228 37.0599 1.25781 36.8976C1.38989 37.1473 3.25152 39.613 3.59743 39.9688C3.61258 39.987 3.62943 40.0037 3.64775 40.0187C3.96222 40.1873 5.49052 38.8078 6.3836 37.8964C12.9678 31.152 19.1622 24.0433 24.9371 16.6043C24.9944 16.5199 25.0301 16.4229 25.0411 16.3217C25.0521 16.2206 25.0379 16.1183 25 16.0237C24.9433 15.9051 24.9559 15.9488 24.9308 15.9176C24.6666 15.4869 23.044 13.3895 22.6226 12.8839C22.6702 12.9773 22.6896 13.0824 22.6784 13.1865C22.6673 13.2906 22.626 13.3893 22.5597 13.4707L22.5408 13.4894Z" fill="url(#paint2_radial_1_3108)"/>
<path style="mix-blend-mode:multiply" opacity="0.5" fill-rule="evenodd" clip-rule="evenodd" d="M22.2013 1.35457C22.8224 1.83302 23.2846 2.48534 23.5283 3.22723C23.8428 5.62423 21.5283 8.77654 20.2579 10.5306C19.2705 11.8914 18.5346 12.4033 17.6353 12.5718C18.1698 12.5718 18.7107 12.5718 19.239 12.5718C21.1258 9.81275 23.0126 6.89764 24.6415 4.31961C24.6938 4.23392 24.7245 4.137 24.7311 4.03705C24.7376 3.93709 24.7199 3.83704 24.6793 3.74533C23.9583 2.59463 23.1376 1.50853 22.2264 0.49939H22.3271C22.3677 0.584567 22.3856 0.678689 22.379 0.772705C22.3724 0.86672 22.3415 0.957467 22.2893 1.03622L22.2013 1.17979V1.35457Z" fill="url(#paint3_radial_1_3108)"/>
<path style="mix-blend-mode:multiply" opacity="0.5" fill-rule="evenodd" clip-rule="evenodd" d="M24.8866 15.8864C24.6602 15.5181 23.4652 13.9326 22.8363 13.1648C24.0942 15.799 24.0942 16.7478 22.3709 19.0637C20.2325 21.9164 18.0376 24.7316 15.7231 27.4657C13.6099 29.9625 11.4149 32.372 9.11304 34.6879C8.069 35.7213 6.93691 36.6632 5.7294 37.5031C5.20742 37.9265 4.57219 38.1892 3.90178 38.2591C3.23137 38.329 2.555 38.2029 1.95581 37.8964C2.58474 38.7079 3.35204 39.7316 3.56587 39.9501C3.58102 39.9682 3.59787 39.985 3.61619 40C3.93065 40.1685 5.45896 38.789 6.35204 37.8777C12.9362 31.1333 19.1306 24.0246 24.9055 16.5855C24.9629 16.5012 24.9986 16.4042 25.0095 16.303C25.0205 16.2018 25.0064 16.0995 24.9684 16.005C24.9118 15.8864 24.9244 15.9301 24.8992 15.8989L24.8866 15.8864Z" fill="url(#paint4_radial_1_3108)"/>
<path style="mix-blend-mode:screen" fill-rule="evenodd" clip-rule="evenodd" d="M5.25789 38.9014C4.98745 39.0387 4.66041 39.1261 4.49689 39.0012C3.89749 38.3699 3.35063 37.6915 2.86167 36.9725L2.80506 36.8914C2.73517 36.7285 2.70232 36.5523 2.70884 36.3753C2.71536 36.1984 2.7611 36.025 2.8428 35.8676C2.1384 36.4919 1.45286 37.0037 1.2516 36.8976H1.21387C1.34594 37.1473 3.20758 39.613 3.55349 39.9688C3.56864 39.9869 3.58549 40.0037 3.6038 40.0187C3.81135 40.1248 4.53462 39.5755 5.25789 38.9326V38.9014ZM21.8742 14.4631C21.9685 14.4082 22.074 14.3752 22.1829 14.3665C22.2919 14.3579 22.4014 14.3738 22.5032 14.4132C22.5291 14.4306 22.5524 14.4516 22.5724 14.4756C23.163 15.1184 23.7033 15.805 24.1887 16.5293C24.254 16.6725 24.2878 16.8278 24.2878 16.985C24.2878 17.1422 24.254 17.2975 24.1887 17.4407C24.4151 17.1535 24.6415 16.8664 24.8617 16.573C24.919 16.4887 24.9548 16.3917 24.9657 16.2905C24.9767 16.1893 24.9625 16.087 24.9246 15.9925C24.868 15.8739 24.8805 15.9176 24.8554 15.8864C24.5912 15.4557 22.9686 13.3583 22.5472 12.8527C22.5472 12.8527 22.5472 12.8839 22.5472 12.9026C22.5948 12.996 22.6142 13.1011 22.6031 13.2052C22.5919 13.3093 22.5507 13.408 22.4843 13.4894L21.7233 14.4631L21.6667 14.5443C21.7141 14.5123 21.7647 14.4851 21.8176 14.4631H21.8742Z" fill="url(#paint5_radial_1_3108)"/>
<path opacity="0.8" fill-rule="evenodd" clip-rule="evenodd" d="M10.0125 0.405757C12.415 -0.0936184 18.8175 -0.149798 21.8993 0.349578C21.9923 0.36364 22.0803 0.400755 22.155 0.45749C22.2298 0.514225 22.2889 0.588749 22.327 0.674172C22.3676 0.759349 22.3855 0.853471 22.3789 0.947487C22.3723 1.0415 22.3414 1.13225 22.2892 1.211C20.0188 4.80651 17.1697 9.06993 14.7421 12.6529C16.937 12.5531 20.2955 12.5094 22.1383 12.578C22.2431 12.5818 22.3449 12.614 22.4325 12.6712C22.5202 12.7285 22.5903 12.8085 22.6352 12.9026C22.6828 12.9961 22.7022 13.1011 22.691 13.2052C22.6798 13.3093 22.6386 13.408 22.5723 13.4894C16.784 20.9267 10.5793 28.0353 3.98735 34.7815C3.09427 35.6929 1.57226 37.0599 1.25779 36.8976C0.943327 36.7353 1.42131 35.0874 1.61628 34.2697C2.24521 31.8165 4.76094 25.1873 7.06911 19.9626C4.89746 20.0907 2.72066 20.1095 0.547101 20.0187C0.45932 20.0167 0.373366 19.9934 0.296662 19.951C0.219958 19.9086 0.154811 19.8483 0.106849 19.7753C0.057374 19.703 0.0253911 19.6203 0.0133915 19.5336C0.00139181 19.447 0.0096993 19.3588 0.037667 19.2759C1.64144 14.5131 6.86157 4.25719 9.32697 0.855196C9.48655 0.621242 9.73308 0.459623 10.0125 0.405757Z" fill="url(#paint6_linear_1_3108)"/>
<path style="mix-blend-mode:multiply" fill-rule="evenodd" clip-rule="evenodd" d="M21.3835 9.31335C19.7923 10.7428 16.7232 11.6667 16.025 10.7116C15.5785 11.3733 15.132 12.0225 14.698 12.6529C15.9873 12.5905 17.6791 12.5531 19.2263 12.5468C19.9433 11.4856 20.6666 10.3995 21.3835 9.31335Z" fill="url(#paint7_radial_1_3108)"/>
<path style="mix-blend-mode:multiply" fill-rule="evenodd" clip-rule="evenodd" d="M4.7672 20.0624C5.66028 20.7303 4.28921 22.8527 2.51562 22.809C2.68544 22.9837 2.8238 23.1086 2.8804 23.1086C3.59739 23.146 4.61625 23.1648 5.67286 23.1648C6.13198 22.0724 6.5911 20.9925 7.05022 19.9625C6.42129 20.0125 5.63512 20.0437 4.75462 20.0624H4.7672Z" fill="url(#paint8_radial_1_3108)"/>
<path style="mix-blend-mode:screen" fill-rule="evenodd" clip-rule="evenodd" d="M10.2263 3.03996C13.0342 2.63531 15.8818 2.5766 18.7043 2.86518C19.0784 2.89334 19.4364 3.02768 19.7357 3.2522C20.2955 3.72036 19.9118 4.75033 19.4212 5.6492C20.4275 4.11986 21.3835 2.61549 22.2892 1.211C22.3413 1.13225 22.3722 1.0415 22.3788 0.947487C22.3854 0.853471 22.3675 0.759349 22.3269 0.674172C22.2889 0.588749 22.2297 0.514225 22.155 0.45749C22.0802 0.400755 21.9923 0.36364 21.8992 0.349578C18.8112 -0.149798 12.415 -0.0936184 10.0124 0.405757C9.733 0.459622 9.48648 0.621242 9.3269 0.855196C7.57863 3.48254 6.00506 6.22036 4.61621 9.0512C5.83005 7.00376 8.3898 3.33959 10.2263 3.03996Z" fill="url(#paint9_radial_1_3108)"/>
<path style="mix-blend-mode:screen" opacity="0.5" fill-rule="evenodd" clip-rule="evenodd" d="M22.1068 12.578C21.5093 12.578 20.7546 12.578 19.9307 12.578C21.3144 13.0212 21.3144 14.0262 20.2011 15.4619C17.2074 19.2884 9.25146 28.9013 5.3458 31.7353C3.37096 33.1648 2.72945 32.2597 2.65398 30.98C2.16341 32.3595 1.79863 33.5143 1.60995 34.2696C1.42127 35.0249 0.981021 36.5793 1.21373 36.8664C1.41498 36.9725 2.10052 36.4544 2.80492 35.8364C3.20744 35.4744 3.62253 35.0811 3.94957 34.7503C10.2303 28.332 16.1632 21.5871 21.7232 14.5443C21.9936 14.1885 22.2703 13.8389 22.5408 13.4894C22.6071 13.408 22.6484 13.3093 22.6595 13.2052C22.6707 13.1011 22.6513 12.996 22.6037 12.9026C22.5535 12.8221 22.4844 12.7551 22.4021 12.7072C22.3199 12.6593 22.2272 12.6321 22.132 12.6279L22.1068 12.578Z" fill="url(#paint10_radial_1_3108)"/>
<path style="mix-blend-mode:screen" opacity="0.75" fill-rule="evenodd" clip-rule="evenodd" d="M10.6289 0.736541C10.3162 0.782006 10.0234 0.916432 9.78611 1.12356C7.85529 3.12106 3.18862 12.1598 2.51567 14.563C2.47164 14.7253 2.40875 15.0124 2.51567 15.1186C2.62259 15.2247 2.99366 14.8751 3.09428 14.7191C4.81755 12.0224 6.34586 9.21345 8.04397 6.50433C8.89303 5.14353 9.89931 3.58923 10.8867 2.32206C11.5157 1.52306 12.6666 1.30458 13.566 1.07362C14.8238 0.717815 14.3333 0.399463 13.4025 0.4494C12.4648 0.480696 11.5312 0.585054 10.61 0.76151L10.6289 0.736541Z" fill="url(#paint11_linear_1_3108)"/>
<path style="mix-blend-mode:screen" opacity="0.5" fill-rule="evenodd" clip-rule="evenodd" d="M21.4717 12.7404C19.3711 12.7404 17.2641 12.7404 15.1824 12.8215C14.1572 12.8715 14.9497 13.9077 15.6667 13.9576C17.618 14.0085 19.5651 13.7493 21.434 13.1898C21.6038 13.1336 21.8616 13.065 21.8868 12.884C21.9119 12.7029 21.6352 12.7404 21.4906 12.7404H21.4717Z" fill="url(#paint12_linear_1_3108)"/>
<path style="mix-blend-mode:screen" opacity="0.5" fill-rule="evenodd" clip-rule="evenodd" d="M3.49047 35.2746C3.3584 37.553 8.63513 33.3458 9.8301 32.2597C13.8867 28.5643 18.7295 23.4457 21.4842 18.6579C22.4276 17.0037 22.5471 14.8751 21.1571 15.2559C15.8146 22.0027 10.1279 28.4739 4.1194 34.6442L3.98733 34.7815L3.49047 35.2746Z" fill="url(#paint13_radial_1_3108)"/>
<path style="mix-blend-mode:screen" opacity="0.5" fill-rule="evenodd" clip-rule="evenodd" d="M10.8363 4.83149C10.2571 5.21799 9.76292 5.71701 9.3835 6.29841C7.4464 9.5818 5.77973 13.015 4.01243 16.392C3.64137 17.0974 3.23256 18.4332 4.55332 18.5518C6.10048 18.6892 7.65394 18.5518 9.20111 18.5518C7.59734 22.0287 5.66023 25.593 4.58476 29.251C4.25143 30.3808 5.21369 30.4058 5.91181 29.7316C9.30174 26.6105 15.2263 20.1686 17.6288 16.0674C18.2577 14.9938 17.1948 14.4819 16.2955 14.4445C14.9999 14.4008 13.7043 14.4882 12.4024 14.5069C13.9118 12.0724 15.4904 9.67544 16.9307 7.19728C17.1369 6.83698 17.2714 6.44069 17.3269 6.02999C17.3567 5.74342 17.3149 5.45398 17.2052 5.18724C17.0955 4.92051 16.9213 4.6847 16.698 4.50065C16.0313 3.87643 14.1822 3.87643 12.6791 4.15109C12.0103 4.24879 11.3684 4.48027 10.7923 4.83149H10.8363Z" fill="url(#paint14_radial_1_3108)"/>
<mask id="mask0_1_3108" style="mask-type:luminance" maskUnits="userSpaceOnUse" x="1" y="29" width="8" height="8">
<path d="M3.98735 34.7816C5.66031 33.0837 7.29553 31.3421 8.96848 29.5256H3.17603C2.4276 31.5543 1.85528 33.271 1.60999 34.2697C1.41502 35.0874 0.930748 36.7291 1.2515 36.8977H1.3144C1.74207 36.8977 3.1383 35.6492 3.98106 34.7691L3.98735 34.7816Z" fill="white"/>
</mask>
<g mask="url(#mask0_1_3108)">
<path fill-rule="evenodd" clip-rule="evenodd" d="M10.0125 0.405757C12.415 -0.0936184 18.8175 -0.149798 21.8993 0.349578C21.9923 0.36364 22.0803 0.400755 22.155 0.45749C22.2298 0.514225 22.2889 0.588749 22.327 0.674172C22.3676 0.759349 22.3855 0.853471 22.3789 0.947487C22.3723 1.0415 22.3414 1.13225 22.2892 1.211C20.0188 4.80651 17.1697 9.06993 14.7421 12.6529C16.937 12.5531 20.2955 12.5094 22.1383 12.578C22.2431 12.5818 22.3449 12.614 22.4325 12.6712C22.5202 12.7285 22.5903 12.8085 22.6352 12.9026C22.6828 12.9961 22.7022 13.1011 22.691 13.2052C22.6798 13.3093 22.6386 13.408 22.5723 13.4894C16.784 20.9267 10.5793 28.0353 3.98735 34.7815C3.09427 35.6929 1.57226 37.0599 1.25779 36.8976C0.943327 36.7353 1.42131 35.0874 1.61628 34.2697C2.24521 31.8165 4.76094 25.1873 7.06911 19.9626C4.89746 20.0907 2.72066 20.1095 0.547101 20.0187C0.45932 20.0167 0.373366 19.9934 0.296662 19.951C0.219958 19.9086 0.154811 19.8483 0.106849 19.7753C0.057374 19.703 0.0253911 19.6203 0.0133915 19.5336C0.00139181 19.447 0.0096993 19.3588 0.037667 19.2759C1.64144 14.5131 6.86157 4.25719 9.32697 0.855196C9.48655 0.621242 9.73308 0.459623 10.0125 0.405757Z" fill="url(#paint15_radial_1_3108)"/>
<path style="mix-blend-mode:screen" fill-rule="evenodd" clip-rule="evenodd" d="M22.1068 12.578C21.5093 12.578 20.7546 12.578 19.9307 12.578C21.3144 13.0212 21.3144 14.0262 20.2011 15.4619C17.2074 19.2884 9.25146 28.9013 5.3458 31.7353C3.37096 33.1648 2.72945 32.2597 2.65398 30.98C2.16341 32.3595 1.79863 33.5143 1.60995 34.2696C1.42127 35.0249 0.981021 36.5793 1.21373 36.8664C1.41498 36.9725 2.10052 36.4544 2.80492 35.8364C3.20744 35.4744 3.62253 35.0811 3.94957 34.7503C10.2303 28.332 16.1632 21.5871 21.7232 14.5443C21.9936 14.1885 22.2703 13.8389 22.5408 13.4894C22.6071 13.408 22.6484 13.3093 22.6595 13.2052C22.6707 13.1011 22.6513 12.996 22.6037 12.9026C22.5535 12.8221 22.4844 12.7551 22.4021 12.7072C22.3199 12.6593 22.2272 12.6321 22.132 12.6279L22.1068 12.578Z" fill="url(#paint16_radial_1_3108)"/>
<path style="mix-blend-mode:screen" fill-rule="evenodd" clip-rule="evenodd" d="M10.8363 4.83149C10.2571 5.21799 9.76292 5.71701 9.3835 6.29841C7.4464 9.5818 5.77973 13.015 4.01243 16.392C3.64137 17.0974 3.23256 18.4332 4.55332 18.5518C6.10048 18.6892 7.65394 18.5518 9.20111 18.5518C7.59734 22.0287 5.66023 25.593 4.58476 29.251C4.25143 30.3808 5.21369 30.4058 5.91181 29.7316C9.30174 26.6105 15.2263 20.1686 17.6288 16.0674C18.2577 14.9938 17.1948 14.4819 16.2955 14.4445C14.9999 14.4008 13.7043 14.4882 12.4024 14.5069C13.9118 12.0724 15.4904 9.67544 16.9307 7.19728C17.1369 6.83698 17.2714 6.44069 17.3269 6.02999C17.3567 5.74342 17.3149 5.45398 17.2052 5.18724C17.0955 4.92051 16.9213 4.6847 16.698 4.50065C16.0313 3.87643 14.1822 3.87643 12.6791 4.15109C12.0103 4.24879 11.3684 4.48027 10.7923 4.83149H10.8363Z" fill="url(#paint17_radial_1_3108)"/>
</g>
<mask id="mask1_1_3108" style="mask-type:luminance" maskUnits="userSpaceOnUse" x="1" y="29" width="11" height="12">
<path d="M6.33957 37.8651C7.97899 36.2006 9.63517 34.4548 11.3081 32.6279L8.9685 29.5068C7.29555 31.342 5.66033 33.0836 3.98737 34.7815C3.14461 35.6367 1.74838 36.9038 1.32071 36.9101H1.25781C1.38989 37.1598 3.25152 39.6254 3.59744 39.9812C3.61258 39.9994 3.62943 40.0161 3.64775 40.0312C3.96222 40.1997 5.49052 38.8202 6.3836 37.9088L6.33957 37.8651Z" fill="white"/>
</mask>
<g mask="url(#mask1_1_3108)">
<path fill-rule="evenodd" clip-rule="evenodd" d="M22.5408 13.4894C16.7627 20.9258 10.5685 28.0344 3.98737 34.7815C3.09429 35.6929 1.57228 37.0599 1.25781 36.8976C1.38989 37.1473 3.25152 39.613 3.59743 39.9688C3.61258 39.987 3.62943 40.0037 3.64775 40.0187C3.96222 40.1873 5.49052 38.8078 6.3836 37.8964C12.9678 31.152 19.1622 24.0433 24.9371 16.6043C24.9944 16.5199 25.0301 16.4229 25.0411 16.3217C25.0521 16.2206 25.0379 16.1183 25 16.0237C24.9433 15.9051 24.9559 15.9488 24.9308 15.9176C24.6666 15.4869 23.044 13.3895 22.6226 12.8839C22.6702 12.9773 22.6896 13.0824 22.6784 13.1865C22.6673 13.2906 22.626 13.3893 22.5597 13.4707L22.5408 13.4894Z" fill="url(#paint18_radial_1_3108)"/>
<path style="mix-blend-mode:multiply" opacity="0.5" fill-rule="evenodd" clip-rule="evenodd" d="M24.8869 15.8864C24.6605 15.5181 23.4655 13.9326 22.8366 13.1648C24.0944 15.799 24.0944 16.7478 22.3711 19.0637C20.2328 21.9164 18.0378 24.7316 15.7233 27.4657C13.6101 29.9625 11.4152 32.372 9.11329 34.6879C8.06925 35.7213 6.93715 36.6632 5.72964 37.5031C5.20766 37.9265 4.57243 38.1892 3.90202 38.2591C3.23161 38.329 2.55525 38.2029 1.95605 37.8964C2.58499 38.7079 3.35228 39.7316 3.56612 39.9501C3.58127 39.9682 3.59811 39.985 3.61643 40C3.9309 40.1685 5.4592 38.789 6.35228 37.8777C12.9365 31.1333 19.1308 24.0246 24.9057 16.5855C24.9631 16.5012 24.9988 16.4042 25.0098 16.303C25.0208 16.2018 25.0066 16.0995 24.9686 16.005C24.912 15.8864 24.9246 15.9301 24.8995 15.8989L24.8869 15.8864Z" fill="url(#paint19_radial_1_3108)"/>
<path style="mix-blend-mode:screen" fill-rule="evenodd" clip-rule="evenodd" d="M5.25789 38.9014C4.98745 39.0387 4.66041 39.1261 4.49689 39.0012C3.89749 38.3699 3.35063 37.6915 2.86167 36.9725L2.80506 36.8914C2.73517 36.7285 2.70232 36.5523 2.70884 36.3753C2.71536 36.1984 2.7611 36.025 2.8428 35.8676C2.1384 36.4919 1.45286 37.0037 1.2516 36.8976H1.21387C1.34594 37.1473 3.20758 39.613 3.55349 39.9688C3.56864 39.9869 3.58549 40.0037 3.6038 40.0187C3.81135 40.1248 4.53462 39.5755 5.25789 38.9326V38.9014ZM21.8742 14.4631C21.9685 14.4082 22.074 14.3752 22.1829 14.3665C22.2919 14.3579 22.4014 14.3738 22.5032 14.4132C22.5291 14.4306 22.5524 14.4516 22.5724 14.4756C23.163 15.1184 23.7033 15.805 24.1887 16.5293C24.254 16.6725 24.2878 16.8278 24.2878 16.985C24.2878 17.1422 24.254 17.2975 24.1887 17.4407C24.4151 17.1535 24.6415 16.8664 24.8617 16.573C24.919 16.4887 24.9548 16.3917 24.9657 16.2905C24.9767 16.1893 24.9625 16.087 24.9246 15.9925C24.868 15.8739 24.8805 15.9176 24.8554 15.8864C24.5912 15.4557 22.9686 13.3583 22.5472 12.8527C22.5472 12.8527 22.5472 12.8839 22.5472 12.9026C22.5948 12.996 22.6142 13.1011 22.6031 13.2052C22.5919 13.3093 22.5507 13.408 22.4843 13.4894L21.7233 14.4631L21.6667 14.5443C21.7141 14.5123 21.7647 14.4851 21.8176 14.4631H21.8742Z" fill="url(#paint20_radial_1_3108)"/>
<path style="mix-blend-mode:screen" opacity="0.5" fill-rule="evenodd" clip-rule="evenodd" d="M3.49072 35.2746C3.35864 37.553 8.63537 33.3458 9.83034 32.2597C13.8869 28.5643 18.7297 23.4457 21.4844 18.6579C22.4278 17.0037 22.5473 14.8751 21.1574 15.2559C15.8149 22.0027 10.1282 28.4739 4.11965 34.6442L3.98757 34.7815L3.49072 35.2746Z" fill="url(#paint21_radial_1_3108)"/>
</g>
</g>
<defs>
<radialGradient id="paint0_radial_1_3108" cx="0" cy="0" r="1" gradientUnits="userSpaceOnUse" gradientTransform="translate(-1.91828 17.9402) scale(10.3648 10.2871)">
<stop stop-color="#283C59"/>
<stop offset="1" stop-color="#618FBF"/>
</radialGradient>
<radialGradient id="paint1_radial_1_3108" cx="0" cy="0" r="1" gradientUnits="userSpaceOnUse" gradientTransform="translate(18.5032 3.21475) scale(25.4025 25.2122)">
<stop stop-color="#618FBF"/>
<stop offset="1" stop-color="#283C59"/>
</radialGradient>
<radialGradient id="paint2_radial_1_3108" cx="0" cy="0" r="1" gradientUnits="userSpaceOnUse" gradientTransform="translate(22.7106 32.7716) scale(47.7358 47.3783)">
<stop stop-color="#618FBF"/>
<stop offset="1" stop-color="#283C59"/>
</radialGradient>
<radialGradient id="paint3_radial_1_3108" cx="0" cy="0" r="1" gradientUnits="userSpaceOnUse" gradientTransform="translate(21.1761 6.54184) scale(4.96855 4.93134)">
<stop stop-color="white"/>
<stop offset="0.14" stop-color="#F9FBFD"/>
<stop offset="0.31" stop-color="#E9F0F7"/>
<stop offset="0.51" stop-color="#CFDFEE"/>
<stop offset="0.72" stop-color="#AAC6E1"/>
<stop offset="0.94" stop-color="#7BA7D1"/>
<stop offset="1" stop-color="#6E9ECC"/>
</radialGradient>
<radialGradient id="paint4_radial_1_3108" cx="0" cy="0" r="1" gradientUnits="userSpaceOnUse" gradientTransform="translate(2.79858 15.7865) scale(26.5786 26.3795)">
<stop stop-color="white"/>
<stop offset="0.14" stop-color="#F9FBFD"/>
<stop offset="0.31" stop-color="#E9F0F7"/>
<stop offset="0.51" stop-color="#CFDFEE"/>
<stop offset="0.72" stop-color="#AAC6E1"/>
<stop offset="0.94" stop-color="#7BA7D1"/>
<stop offset="1" stop-color="#6E9ECC"/>
</radialGradient>
<radialGradient id="paint5_radial_1_3108" cx="0" cy="0" r="1" gradientUnits="userSpaceOnUse" gradientTransform="translate(14.3334 27.1348) scale(17.1321 17.0037)">
<stop stop-color="#B5DEFF"/>
<stop offset="1"/>
</radialGradient>
<linearGradient id="paint6_linear_1_3108" x1="15.9559" y1="22.8964" x2="1.63047" y2="8.46284" gradientUnits="userSpaceOnUse">
<stop stop-color="#38779E"/>
<stop offset="1" stop-color="#B0DBFF"/>
</linearGradient>
<radialGradient id="paint7_radial_1_3108" cx="0" cy="0" r="1" gradientUnits="userSpaceOnUse" gradientTransform="translate(13.8678 7.00374) scale(9.74214 9.66916)">
<stop stop-color="white"/>
<stop offset="0.14" stop-color="#F9FBFD"/>
<stop offset="0.31" stop-color="#E9F0F7"/>
<stop offset="0.51" stop-color="#CFDFEE"/>
<stop offset="0.72" stop-color="#AAC6E1"/>
<stop offset="0.94" stop-color="#7BA7D1"/>
<stop offset="1" stop-color="#6E9ECC"/>
</radialGradient>
<radialGradient id="paint8_radial_1_3108" cx="0" cy="0" r="1" gradientUnits="userSpaceOnUse" gradientTransform="translate(1.22632 18.995) scale(9.33962 9.26966)">
<stop stop-color="white"/>
<stop offset="0.14" stop-color="#F9FBFD"/>
<stop offset="0.31" stop-color="#E9F0F7"/>
<stop offset="0.51" stop-color="#CFDFEE"/>
<stop offset="0.72" stop-color="#AAC6E1"/>
<stop offset="0.94" stop-color="#7BA7D1"/>
<stop offset="1" stop-color="#6E9ECC"/>
</radialGradient>
<radialGradient id="paint9_radial_1_3108" cx="0" cy="0" r="1" gradientUnits="userSpaceOnUse" gradientTransform="translate(8.80489 -9.10735) scale(19.5849 19.4382)">
<stop stop-color="#D9F0FF"/>
<stop offset="1"/>
</radialGradient>
<radialGradient id="paint10_radial_1_3108" cx="0" cy="0" r="1" gradientUnits="userSpaceOnUse" gradientTransform="translate(28.5471 48.6205) scale(39.3836 39.0886)">
<stop stop-color="#8FCBFF"/>
<stop offset="0.12" stop-color="#81B8E7"/>
<stop offset="0.38" stop-color="#5E85A8"/>
<stop offset="0.76" stop-color="#263644"/>
<stop offset="1"/>
</radialGradient>
<linearGradient id="paint11_linear_1_3108" x1="12.7609" y1="-1.01127" x2="1.84663" y2="19.9613" gradientUnits="userSpaceOnUse">
<stop stop-color="#CFF2FF"/>
<stop offset="1"/>
</linearGradient>
<linearGradient id="paint12_linear_1_3108" x1="14.673" y1="13.3521" x2="21.8679" y2="13.3521" gradientUnits="userSpaceOnUse">
<stop stop-color="#CFF2FF"/>
<stop offset="1"/>
</linearGradient>
<radialGradient id="paint13_radial_1_3108" cx="0" cy="0" r="1" gradientUnits="userSpaceOnUse" gradientTransform="translate(7.69173 11.3421) scale(28.7987 28.583)">
<stop stop-color="#80D5FF"/>
<stop offset="1"/>
</radialGradient>
<radialGradient id="paint14_radial_1_3108" cx="0" cy="0" r="1" gradientUnits="userSpaceOnUse" gradientTransform="translate(-5.45926 4.76283) scale(27.2264 27.0225)">
<stop stop-color="#D9F0FF"/>
<stop offset="1"/>
</radialGradient>
<radialGradient id="paint15_radial_1_3108" cx="0" cy="0" r="1" gradientUnits="userSpaceOnUse" gradientTransform="translate(8.52194 0.424484) scale(36.9245 36.6479)">
<stop stop-color="#FCF800"/>
<stop offset="1" stop-color="#FC9700"/>
</radialGradient>
<radialGradient id="paint16_radial_1_3108" cx="0" cy="0" r="1" gradientUnits="userSpaceOnUse" gradientTransform="translate(28.5471 48.6205) scale(39.3836 39.0886)">
<stop stop-color="#FFD000"/>
<stop offset="0.11" stop-color="#FACC00"/>
<stop offset="0.23" stop-color="#EDC100"/>
<stop offset="0.36" stop-color="#D6AF00"/>
<stop offset="0.5" stop-color="#B79500"/>
<stop offset="0.64" stop-color="#8E7400"/>
<stop offset="0.78" stop-color="#5C4B00"/>
<stop offset="0.92" stop-color="#231C00"/>
<stop offset="1"/>
</radialGradient>
<radialGradient id="paint17_radial_1_3108" cx="0" cy="0" r="1" gradientUnits="userSpaceOnUse" gradientTransform="translate(-5.45926 4.76283) scale(27.2264 27.0225)">
<stop stop-color="#FFF261"/>
<stop offset="0.11" stop-color="#FAEE5F"/>
<stop offset="0.23" stop-color="#EDE15A"/>
<stop offset="0.36" stop-color="#D6CB52"/>
<stop offset="0.5" stop-color="#B7AD46"/>
<stop offset="0.64" stop-color="#8E8736"/>
<stop offset="0.78" stop-color="#5C5823"/>
<stop offset="0.92" stop-color="#23210D"/>
<stop offset="1"/>
</radialGradient>
<radialGradient id="paint18_radial_1_3108" cx="0" cy="0" r="1" gradientUnits="userSpaceOnUse" gradientTransform="translate(22.7106 32.7716) scale(47.7358 47.3783)">
<stop stop-color="#FCAC00"/>
<stop offset="1" stop-color="#FF7300"/>
</radialGradient>
<radialGradient id="paint19_radial_1_3108" cx="0" cy="0" r="1" gradientUnits="userSpaceOnUse" gradientTransform="translate(2.79882 15.7865) scale(26.5786 26.3795)">
<stop stop-color="white"/>
<stop offset="0.1" stop-color="#FFFDF9"/>
<stop offset="0.22" stop-color="#FEF6E9"/>
<stop offset="0.36" stop-color="#FDEACF"/>
<stop offset="0.51" stop-color="#FBDBAA"/>
<stop offset="0.67" stop-color="#F9C67A"/>
<stop offset="0.84" stop-color="#F6AE41"/>
<stop offset="1" stop-color="#F39200"/>
</radialGradient>
<radialGradient id="paint20_radial_1_3108" cx="0" cy="0" r="1" gradientUnits="userSpaceOnUse" gradientTransform="translate(14.3334 27.1348) scale(17.1321 17.0037)">
<stop offset="0.58"/>
<stop offset="0.74" stop-color="#020201"/>
<stop offset="0.79" stop-color="#090805"/>
<stop offset="0.83" stop-color="#14130B"/>
<stop offset="0.87" stop-color="#252315"/>
<stop offset="0.89" stop-color="#3B3721"/>
<stop offset="0.92" stop-color="#575131"/>
<stop offset="0.94" stop-color="#776F43"/>
<stop offset="0.96" stop-color="#9D9258"/>
<stop offset="0.98" stop-color="#C8BB70"/>
<stop offset="1" stop-color="#FFEE8F"/>
</radialGradient>
<radialGradient id="paint21_radial_1_3108" cx="0" cy="0" r="1" gradientUnits="userSpaceOnUse" gradientTransform="translate(0.522164 8.49562) scale(28.7987 28.583)">
<stop stop-color="#00FFFF"/>
<stop offset="0.11" stop-color="#00FAFA"/>
<stop offset="0.23" stop-color="#00EDED"/>
<stop offset="0.36" stop-color="#00D6D6"/>
<stop offset="0.5" stop-color="#00B7B7"/>
<stop offset="0.64" stop-color="#008E8E"/>
<stop offset="0.78" stop-color="#005C5C"/>
<stop offset="0.92" stop-color="#002323"/>
<stop offset="1"/>
</radialGradient>
<clipPath id="clip0_1_3108">
<rect width="25" height="40" fill="white"/>
</clipPath>
</defs>
</svg>
