<svg xmlns="http://www.w3.org/2000/svg" xmlns:xlink="http://www.w3.org/1999/xlink" viewBox="0 0 20.82 22.76"><defs><style>.cls-1{isolation:isolate;}.cls-10,.cls-11,.cls-12,.cls-13,.cls-14,.cls-15,.cls-16,.cls-17,.cls-18,.cls-19,.cls-2,.cls-20,.cls-21,.cls-22,.cls-23,.cls-24,.cls-25,.cls-26,.cls-27,.cls-28,.cls-29,.cls-3,.cls-30,.cls-31,.cls-32,.cls-33,.cls-34,.cls-35,.cls-36,.cls-37,.cls-38,.cls-39,.cls-4,.cls-40,.cls-41,.cls-42,.cls-43,.cls-44,.cls-45,.cls-46,.cls-47,.cls-48,.cls-49,.cls-5,.cls-50,.cls-6,.cls-7,.cls-8,.cls-9{fill-rule:evenodd;}.cls-2{fill:url(#linear-gradient);}.cls-16,.cls-18,.cls-19,.cls-3,.cls-44,.cls-45,.cls-46,.cls-47{opacity:0.5;}.cls-16,.cls-17,.cls-20,.cls-22,.cls-25,.cls-26,.cls-29,.cls-3,.cls-30,.cls-32,.cls-33,.cls-36,.cls-37,.cls-38,.cls-41,.cls-43,.cls-44,.cls-45,.cls-50,.cls-51{mix-blend-mode:screen;}.cls-3{fill:url(#radial-gradient);}.cls-4{fill:#bc7800;}.cls-5{fill:url(#linear-gradient-2);}.cls-6{fill:url(#linear-gradient-3);}.cls-7{fill:url(#linear-gradient-4);}.cls-8{fill:url(#linear-gradient-5);}.cls-9{fill:url(#linear-gradient-6);}.cls-10{fill:url(#linear-gradient-7);}.cls-11{fill:url(#linear-gradient-8);}.cls-12{fill:url(#linear-gradient-9);}.cls-13{fill:url(#linear-gradient-10);}.cls-14,.cls-15,.cls-18,.cls-19,.cls-21,.cls-23,.cls-27,.cls-28,.cls-34,.cls-35,.cls-42,.cls-46,.cls-47,.cls-48,.cls-49{mix-blend-mode:multiply;}.cls-14{fill:url(#radial-gradient-2);}.cls-15{fill:url(#radial-gradient-3);}.cls-16{fill:url(#radial-gradient-4);}.cls-17{fill:url(#radial-gradient-5);}.cls-18{fill:url(#linear-gradient-11);}.cls-19{fill:url(#linear-gradient-12);}.cls-20,.cls-25,.cls-26,.cls-28,.cls-34,.cls-35,.cls-38,.cls-49{opacity:0.75;}.cls-20{fill:url(#linear-gradient-13);}.cls-21{fill:url(#radial-gradient-6);}.cls-22{opacity:0.35;fill:url(#linear-gradient-14);}.cls-23{fill:url(#radial-gradient-7);}.cls-24{fill:url(#linear-gradient-15);}.cls-25{fill:url(#radial-gradient-8);}.cls-26{fill:url(#radial-gradient-9);}.cls-27{fill:url(#radial-gradient-10);}.cls-28{fill:url(#radial-gradient-11);}.cls-29{opacity:0.6;fill:url(#radial-gradient-12);}.cls-30{fill:url(#radial-gradient-13);}.cls-31{fill:url(#radial-gradient-14);}.cls-32{fill:url(#radial-gradient-15);}.cls-33{fill:url(#radial-gradient-16);}.cls-34{fill:url(#radial-gradient-17);}.cls-35{fill:url(#radial-gradient-18);}.cls-36{opacity:0.65;fill:url(#radial-gradient-19);}.cls-37{fill:url(#radial-gradient-20);}.cls-38{fill:#fffce4;}.cls-39{fill:url(#radial-gradient-21);}.cls-40{fill:url(#radial-gradient-22);}.cls-41{fill:url(#radial-gradient-23);}.cls-42{fill:url(#radial-gradient-24);}.cls-43{fill:url(#radial-gradient-25);}.cls-44{fill:url(#radial-gradient-26);}.cls-45{fill:url(#radial-gradient-27);}.cls-46{fill:url(#radial-gradient-28);}.cls-47{fill:url(#radial-gradient-29);}.cls-48{fill:url(#linear-gradient-16);}.cls-49{fill:url(#linear-gradient-17);}.cls-50{fill:url(#radial-gradient-30);}.cls-51{fill:url(#radial-gradient-31);}</style><linearGradient id="linear-gradient" x1="18.38" y1="7.47" x2="21.04" y2="11.24" gradientUnits="userSpaceOnUse"><stop offset="0" stop-color="#fc0"/><stop offset="1" stop-color="#9c5900"/></linearGradient><radialGradient id="radial-gradient" cx="21.78" cy="10.55" r="3.46" gradientUnits="userSpaceOnUse"><stop offset="0"/><stop offset="1" stop-color="#fff369"/></radialGradient><linearGradient id="linear-gradient-2" x1="2.04" y1="0.67" x2="6.99" y2="10.28" gradientUnits="userSpaceOnUse"><stop offset="0" stop-color="#fc0"/><stop offset="1" stop-color="#b36600"/></linearGradient><linearGradient id="linear-gradient-3" x1="6.27" y1="0.9" x2="6.7" y2="4.1" gradientUnits="userSpaceOnUse"><stop offset="0" stop-color="#db7d00"/><stop offset="1" stop-color="#914900"/></linearGradient><linearGradient id="linear-gradient-4" x1="2.91" y1="2.53" x2="4.05" y2="9.52" gradientUnits="userSpaceOnUse"><stop offset="0" stop-color="#c77000"/><stop offset="0.4" stop-color="#cc8b00"/><stop offset="1" stop-color="#ba5e00"/></linearGradient><linearGradient id="linear-gradient-5" x1="3.06" y1="1.05" x2="5.72" y2="1.05" xlink:href="#linear-gradient-2"/><linearGradient id="linear-gradient-6" x1="11.11" y1="13.59" x2="30.4" y2="7.7" gradientUnits="userSpaceOnUse"><stop offset="0" stop-color="#b35100"/><stop offset="1" stop-color="#fc0"/></linearGradient><linearGradient id="linear-gradient-7" x1="16.73" y1="9.67" x2="19.45" y2="8.55" gradientUnits="userSpaceOnUse"><stop offset="0" stop-color="#8a4500"/><stop offset="1" stop-color="#b86800"/></linearGradient><linearGradient id="linear-gradient-8" x1="13.06" y1="14.99" x2="19.65" y2="12.04" gradientUnits="userSpaceOnUse"><stop offset="0" stop-color="#c75a00"/><stop offset="0.4" stop-color="#bf6d00"/><stop offset="1" stop-color="#914900"/></linearGradient><linearGradient id="linear-gradient-9" x1="0.09" y1="17.96" x2="7.82" y2="22.42" gradientUnits="userSpaceOnUse"><stop offset="0.01" stop-color="#781916"/><stop offset="0.31" stop-color="#963333"/><stop offset="1" stop-color="#450e0e"/></linearGradient><linearGradient id="linear-gradient-10" x1="1.57" y1="15.41" x2="9.29" y2="19.87" gradientUnits="userSpaceOnUse"><stop offset="0.05" stop-color="#ed9500"/><stop offset="0.4" stop-color="#fc0"/><stop offset="0.93" stop-color="#b36600"/></linearGradient><radialGradient id="radial-gradient-2" cx="2.91" cy="18.29" r="4.99" gradientUnits="userSpaceOnUse"><stop offset="0" stop-color="#fff"/><stop offset="1" stop-color="#e08f48"/></radialGradient><radialGradient id="radial-gradient-3" cx="6.46" cy="20.93" r="5.21" xlink:href="#radial-gradient-2"/><radialGradient id="radial-gradient-4" cx="4.95" cy="18.84" r="3.6" gradientUnits="userSpaceOnUse"><stop offset="0" stop-color="#fff369"/><stop offset="0.11" stop-color="#faef67"/><stop offset="0.23" stop-color="#ede262"/><stop offset="0.36" stop-color="#d6cc58"/><stop offset="0.5" stop-color="#b7ae4b"/><stop offset="0.64" stop-color="#8e873b"/><stop offset="0.78" stop-color="#5c5826"/><stop offset="0.92" stop-color="#23210e"/><stop offset="1"/></radialGradient><radialGradient id="radial-gradient-5" cx="2.87" cy="16.66" r="3.6" xlink:href="#radial-gradient-4"/><linearGradient id="linear-gradient-11" x1="0.27" y1="17.64" x2="0.68" y2="17.88" gradientUnits="userSpaceOnUse"><stop offset="0" stop-color="#616dbe"/><stop offset="0.6" stop-color="#c3c7e6"/><stop offset="1" stop-color="#fff"/></linearGradient><linearGradient id="linear-gradient-12" x1="7.38" y1="21.81" x2="7.97" y2="22.15" gradientUnits="userSpaceOnUse"><stop offset="0" stop-color="#fff"/><stop offset="0.4" stop-color="#c3c7e6"/><stop offset="1" stop-color="#616dbe"/></linearGradient><linearGradient id="linear-gradient-13" x1="1.38" y1="19.3" x2="2.92" y2="20.19" gradientUnits="userSpaceOnUse"><stop offset="0" stop-color="#ab665d"/><stop offset="1" stop-color="#2b2321"/></linearGradient><radialGradient id="radial-gradient-6" cx="12.9" cy="9.32" r="7.09" gradientUnits="userSpaceOnUse"><stop offset="0" stop-color="#e08f48"/><stop offset="1" stop-color="#fff"/></radialGradient><linearGradient id="linear-gradient-14" x1="5.41" y1="21.49" x2="6.51" y2="22.13" xlink:href="#linear-gradient-13"/><radialGradient id="radial-gradient-7" cx="7.27" cy="14.77" r="3.06" gradientUnits="userSpaceOnUse"><stop offset="0" stop-color="#ffa163"/><stop offset="1" stop-color="#fff"/></radialGradient><linearGradient id="linear-gradient-15" x1="3.51" y1="7.57" x2="15.11" y2="14.27" gradientUnits="userSpaceOnUse"><stop offset="0.05" stop-color="#ed9500"/><stop offset="0.4" stop-color="#fc0"/><stop offset="1" stop-color="#d96d00"/></linearGradient><radialGradient id="radial-gradient-8" cx="6.81" cy="4.86" r="11.07" xlink:href="#radial-gradient-4"/><radialGradient id="radial-gradient-9" cx="7.59" cy="3.8" r="8.83" xlink:href="#radial-gradient-4"/><radialGradient id="radial-gradient-10" cx="9.46" cy="8.95" r="9.31" xlink:href="#radial-gradient-2"/><radialGradient id="radial-gradient-11" cx="10.38" cy="9.82" r="8.05" xlink:href="#radial-gradient-2"/><radialGradient id="radial-gradient-12" cx="8.7" cy="5.31" r="10.57" xlink:href="#radial-gradient-4"/><radialGradient id="radial-gradient-13" cx="4.89" cy="4.62" r="11.14" xlink:href="#radial-gradient-4"/><radialGradient id="radial-gradient-14" cx="7.91" cy="5.15" r="10.95" gradientUnits="userSpaceOnUse"><stop offset="0" stop-color="#fc0"/><stop offset="1" stop-color="#ed9500"/></radialGradient><radialGradient id="radial-gradient-15" cx="14.49" cy="-0.81" r="10.69" xlink:href="#radial-gradient-4"/><radialGradient id="radial-gradient-16" cx="12.21" cy="1" r="7.57" xlink:href="#radial-gradient-4"/><radialGradient id="radial-gradient-17" cx="15.69" cy="7.65" r="4.56" gradientUnits="userSpaceOnUse"><stop offset="0" stop-color="#fff"/><stop offset="1" stop-color="#ffa163"/></radialGradient><radialGradient id="radial-gradient-18" cx="8.42" cy="4.02" r="4.66" xlink:href="#radial-gradient-17"/><radialGradient id="radial-gradient-19" cx="13.31" cy="6.58" r="4.32" xlink:href="#radial-gradient-4"/><radialGradient id="radial-gradient-20" cx="7.31" cy="3.64" r="5.71" xlink:href="#radial-gradient-4"/><radialGradient id="radial-gradient-21" cx="6.92" cy="3.32" r="15.9" gradientUnits="userSpaceOnUse"><stop offset="0" stop-color="#fcf80d"/><stop offset="1" stop-color="#fc9c0d"/></radialGradient><radialGradient id="radial-gradient-22" cx="18.03" cy="1.52" r="8.27" gradientUnits="userSpaceOnUse"><stop offset="0" stop-color="#fcf80d"/><stop offset="1" stop-color="#f78a0c"/></radialGradient><radialGradient id="radial-gradient-23" cx="13.32" cy="7.82" r="10.57" gradientUnits="userSpaceOnUse"><stop offset="0"/><stop offset="0.15" stop-color="#211f0d"/><stop offset="0.48" stop-color="#746e30"/><stop offset="0.97" stop-color="#f7eb66"/><stop offset="1" stop-color="#fff369"/></radialGradient><radialGradient id="radial-gradient-24" cx="6.06" cy="7.77" r="9.4" xlink:href="#radial-gradient-6"/><radialGradient id="radial-gradient-25" cx="2.74" cy="16.37" r="3.13" xlink:href="#radial-gradient-4"/><radialGradient id="radial-gradient-26" cx="2.12" cy="0.01" r="6.97" xlink:href="#radial-gradient-4"/><radialGradient id="radial-gradient-27" cx="4.71" cy="0.32" r="2.42" gradientUnits="userSpaceOnUse"><stop offset="0"/><stop offset="0.08" stop-color="#23210e"/><stop offset="0.22" stop-color="#5c5826"/><stop offset="0.36" stop-color="#8e873b"/><stop offset="0.5" stop-color="#b7ae4b"/><stop offset="0.64" stop-color="#d6cc58"/><stop offset="0.77" stop-color="#ede262"/><stop offset="0.89" stop-color="#faef67"/><stop offset="1" stop-color="#fff369"/></radialGradient><radialGradient id="radial-gradient-28" cx="5.93" cy="5.95" r="4.65" xlink:href="#radial-gradient-2"/><radialGradient id="radial-gradient-29" cx="14.72" cy="10.1" r="6.24" xlink:href="#radial-gradient-2"/><linearGradient id="linear-gradient-16" x1="17.03" y1="10.6" x2="18.57" y2="10.6" xlink:href="#radial-gradient-6"/><linearGradient id="linear-gradient-17" x1="5.86" y1="4.15" x2="4.81" y2="2.75" xlink:href="#radial-gradient-6"/><radialGradient id="radial-gradient-30" cx="8.61" cy="4.48" r="3.66" gradientUnits="userSpaceOnUse"><stop offset="0" stop-color="#fff200"/><stop offset="0.07" stop-color="#e1d600"/><stop offset="0.21" stop-color="#a69e00"/><stop offset="0.36" stop-color="#746e00"/><stop offset="0.5" stop-color="#4a4600"/><stop offset="0.64" stop-color="#2a2800"/><stop offset="0.77" stop-color="#131200"/><stop offset="0.89" stop-color="#050500"/><stop offset="1"/></radialGradient><radialGradient id="radial-gradient-31" cx="4.77" cy="1.42" r="1.42" xlink:href="#radial-gradient-30"/></defs><title>mission</title><g class="cls-1"><g id="Layer_2" data-name="Layer 2"><g id="Layer_1-2" data-name="Layer 1"><path class="cls-2" d="M20.82,11.49A2.86,2.86,0,0,0,19.7,9.75l0-.7a3,3,0,0,1,1.09,2v.39Z"/><path class="cls-3" d="M20.11,9.88a3.79,3.79,0,0,1,.66,1.39A2.9,2.9,0,0,0,19.7,9.75l0-.7a1.81,1.81,0,0,1,.42.41c-.08,0-.19,0-.19.09a.84.84,0,0,0,.15.33Z"/><path class="cls-4" d="M8.42,5.66l-3.9,5.8c-.88-.62-5-5-1.67-9.92l.21-.31L3.4,1A2.94,2.94,0,0,1,5.72,1c-1,1.66-.6,2.39.53,3L8.61,5.37l-.19.29ZM3.7,3.21h0A3.08,3.08,0,0,0,5.25,5.12L6.83,6,4.64,9.29A5.58,5.58,0,0,1,3.7,3.21Z"/><path class="cls-4" d="M14.3,9.06l-3.07,6.28c1,.45,6.81,1.83,9.43-3.52l.16-.33V11.1a3,3,0,0,0-1.09-2c-.93,1.71-1.78,1.71-2.9,1.06L14.46,8.74l-.16.32Zm4.49,2.86h0a3.09,3.09,0,0,1-2.44-.39l-1.57-.91-1.73,3.53a5.57,5.57,0,0,0,5.74-2.23Z"/><path class="cls-5" d="M8.42,5.66l-3.9,5.8c-.88-.62-5-5-1.67-9.92l.21-.31a2.86,2.86,0,0,1,2.06.11A1.91,1.91,0,0,0,5.88,4.2L8.42,5.66ZM6.83,6,5.25,5.12A2.92,2.92,0,0,1,3.62,2.4a5.7,5.7,0,0,0-.44,5.31,8.2,8.2,0,0,0,1.17,2v0L6.83,6Z"/><path class="cls-6" d="M8.42,5.66l.19-.29L6.25,4C5.12,3.35,4.7,2.62,5.72,1l-.6.38A1.91,1.91,0,0,0,5.88,4.2L8.42,5.66Z"/><path class="cls-7" d="M3.7,3.21a2.72,2.72,0,0,1-.08-.81,5.7,5.7,0,0,0-.44,5.31,8.17,8.17,0,0,0,1.18,2l.28-.41A5.58,5.58,0,0,1,3.7,3.21Z"/><path class="cls-8" d="M3.06,1.23a2.86,2.86,0,0,1,2.06.11L5.72,1A2.94,2.94,0,0,0,3.4,1l-.34.19Z"/><path class="cls-9" d="M14.3,9.06l-3.07,6.28c1,.45,6.81,1.83,9.43-3.52l.16-.33A2.86,2.86,0,0,0,19.7,9.75a1.92,1.92,0,0,1-2.86.78L14.3,9.06Zm.48,1.56,1.57.91a2.91,2.91,0,0,0,3.18.05,5.7,5.7,0,0,1-4.38,3,8,8,0,0,1-2.29,0h0l1.94-4Z"/><path class="cls-10" d="M14.3,9.06l.16-.32,2.37,1.37c1.12.65,2,.65,2.9-1.06l0,.7a1.92,1.92,0,0,1-2.86.78L14.3,9.06Z"/><path class="cls-11" d="M18.79,11.92a2.61,2.61,0,0,0,.74-.34,5.7,5.7,0,0,1-4.38,3,8.13,8.13,0,0,1-2.31,0l.21-.44a5.57,5.57,0,0,0,5.74-2.23Z"/><path class="cls-12" d="M8.51,21.22l-.73,1.26c-.36.63-2.39.15-4.52-1.09S-.31,18.65.06,18l.73-1.26,7.72,4.46Z"/><path class="cls-13" d="M8.51,21.22c-.36.63-2.39.14-4.52-1.09S.42,17.39.79,16.76c.67-1.17,1.8-.83,3.17-.74a1.55,1.55,0,0,0,1.57-.69l.41-.71.93.53.92.53-.41.71a1.55,1.55,0,0,0,.18,1.71c.76,1.14,1.62,1.95,1,3.12Z"/><path class="cls-14" d="M1.19,17c.68-1.16,1.7-.88,3-.86a1.54,1.54,0,0,0,1.48-.75c.14-.23.27-.47.41-.71l-.1-.05-.41.71A1.55,1.55,0,0,1,4,16c-1.37-.09-2.5-.43-3.17.74a.75.75,0,0,0,.11.74c.1-.17.2-.34.29-.51Z"/><path class="cls-15" d="M7.29,17.94c.59,1,1.3,1.77.63,2.93l-.35.61c.47,0,.81,0,.94-.26.67-1.17-.19-2-1-3.12a1.55,1.55,0,0,1-.18-1.71l.41-.71-.14-.08-.42.71a1.56,1.56,0,0,0,.06,1.63Z"/><path class="cls-16" d="M7.41,20.58c.67-1.17.09-1.81-.36-2.78a1.59,1.59,0,0,1,.06-1.56l.41-.71-.26-.15c-.14.23-.27.47-.41.71a2,2,0,0,0-.31,1.41,2.64,2.64,0,0,1-.24,2.44c-.19.35-.39.69-.59,1a8.81,8.81,0,0,0,1.24.4l.46-.8Z"/><path class="cls-17" d="M3.88,18.54A4.29,4.29,0,0,1,5.4,16.85a3.61,3.61,0,0,0,.87-1.1c.14-.23.27-.47.41-.71l-.37-.21-.41.71a1.65,1.65,0,0,1-1.22.89c-.94.17-1.68.05-2.35,1.22l-.53.91a11.85,11.85,0,0,0,1.43,1.1l.65-1.12Z"/><path class="cls-18" d="M.79,16.76.06,18c-.11.19-.06.44.11.75L.9,17.5a.75.75,0,0,1-.11-.74Z"/><path class="cls-19" d="M7.57,21.48l-.73,1.27c.47,0,.81,0,.94-.27l.73-1.26c-.13.22-.47.3-.94.26Z"/><path class="cls-20" d="M2.5,20.93l.73-1.27a11.85,11.85,0,0,1-1.43-1.1l-.73,1.27a13,13,0,0,0,1.43,1.1Z"/><path class="cls-21" d="M14.3,9.06l-3.07,6.28a6.76,6.76,0,0,0,1.57.4,11.19,11.19,0,0,0,1.9-1.08,7.57,7.57,0,0,1-1.84-.07h0l1.94-4,1.57.91A3.47,3.47,0,0,0,17.6,12l.19-.23.78-1a2.05,2.05,0,0,1-1.73-.25L14.3,9.06Z"/><path class="cls-22" d="M5.71,21,5,22.24a7.67,7.67,0,0,0,1.24.4L7,21.38A8.81,8.81,0,0,1,5.71,21Z"/><path class="cls-23" d="M7.49,16.2h0c-.09.15-.55,0-1-.35s-.8-.75-.71-.9L6,14.49l1.73,1.25-.26.46Z"/><path class="cls-24" d="M6.2,2.9,12,6.25l5.8,3.35-1.15,1.51c-2.27,3-6.56,6.5-10,4.48S4,8.11,5.47,4.65L6.2,2.9Z"/><path class="cls-25" d="M6.43,3l4.68,2.7L15.8,8.44l-1,1.34c-1.9,2.65-5.47,5.8-8.29,4.17s-2-6.36-.75-9.39L6.43,3Z"/><path class="cls-26" d="M6.78,3.23,10.36,5.3l3.58,2.06-.8,1.14c-1.59,2.26-4.49,5-6.65,3.74S5.14,7.06,6.23,4.52l.55-1.29Z"/><path class="cls-27" d="M6.61,15.59C3.48,13.79,4.55,8.43,6.05,5l.77-1.74L6.2,2.9,5.47,4.65C4,8.11,3.11,13.58,6.61,15.59Z"/><path class="cls-28" d="M15.92,10.68c-2.22,3-6.28,6.66-9.31,4.91,3.49,2,7.78-1.48,10.05-4.48L17.81,9.6,17,9.15l-1.11,1.53Z"/><path class="cls-29" d="M6.61,15.59c2.49,1.45,6.3-2.33,8.45-5.4l1.09-1.55-1.66-1c-.34.53-.68,1.06-1,1.58-2,3.14-5.35,7.2-6.85,6.33Z"/><path class="cls-30" d="M6.61,15.59c-.7-.4,1.55-5.08,3.33-8.36.3-.55.6-1.1.91-1.65L8.52,4.24C8.25,4.8,8,5.37,7.7,5.94c-1.62,3.37-3.19,8.44-1.09,9.65Z"/><path class="cls-31" d="M11,8.08C8.2,6.49,6.22,4.58,6,3.41,5.88,2.79,6.66,1.59,7,1l6,3.48,6,3.48c-.35.61-1,1.86-1.58,2.07-1.13.39-3.77-.36-6.52-1.95Z"/><path class="cls-32" d="M10.36,7.52c-2.25-1.42-3.87-3.1-4-4.11-.09-.53.56-1.53.84-2L12.11,4.5l4.94,3.12c-.29.51-.83,1.56-1.32,1.72-.93.31-3.11-.4-5.37-1.82Z"/><path class="cls-33" d="M9.75,6.82C8,5.6,6.73,4.19,6.6,3.36c-.06-.43.46-1.23.68-1.63L11.14,4.4,15,7.08c-.23.41-.66,1.25-1.05,1.37-.73.23-2.44-.41-4.2-1.63Z"/><path class="cls-34" d="M19.05,8c-.22.39-.82.53-1.65.45l-.44.7-.63,1A2.7,2.7,0,0,0,17.47,10h0C18.07,9.8,18.7,8.56,19.05,8Z"/><path class="cls-35" d="M6.89,3.29l.43-.81C6.94,1.9,6.8,1.4,7,1.05H7c-.35.6-1.07,1.74-1,2.34v0a1.58,1.58,0,0,0,.12.37,3.35,3.35,0,0,0,.24.45v0l.52-1Z"/><path class="cls-36" d="M14.4,7.63l-1,1.68h0c.49.2,1,.36,1.39.49l.43.12L16,8.57l.22-.38a13.09,13.09,0,0,1-1.82-.62l0,.06Z"/><path class="cls-37" d="M10.85,5.67A17.8,17.8,0,0,1,8.76,4.08l-1,1.73A16.13,16.13,0,0,0,9.85,7.4l1-1.73Z"/><path class="cls-38" d="M14.06,2.64c3.29,1.91,5.47,4.3,4.86,5.35s-3.77.36-7.06-1.54S6.39,2.16,7,1.1s3.77-.36,7.07,1.54Z"/><path class="cls-39" d="M14.1,2.62c3.33,1.92,5.54,4.31,5,5.34s-3.77.3-7.1-1.62S6.4,2,7,1s3.77-.3,7.1,1.62Z"/><path class="cls-40" d="M14,2.75c3.12,1.81,5.22,4,4.69,4.94s-3.5.22-6.62-1.59-5.23-4-4.69-4.94S10.9,1,14,2.75Z"/><path class="cls-41" d="M13,2.36c2.31,1.33,3.9,3.12,4.17,4.49A1.64,1.64,0,0,1,17,8a.35.35,0,0,1,0,.08c.86.13,1.49.05,1.74-.3l0,0c.53-.92-1.57-3.13-4.69-4.94C11.41,1.25,8.91.5,7.85.84A9.82,9.82,0,0,1,13,2.36Z"/><path class="cls-42" d="M14.64,7.35c.14-.73-.39-1.73-1.37-2.73a11.71,11.71,0,0,0-2.46-1.85A11.36,11.36,0,0,0,8,1.57l-.66-.15c-.09,1,1.91,3,4.77,4.68a19.23,19.23,0,0,0,2.55,1.25Z"/><path class="cls-43" d="M3.29,17.16c.59.43,1,1,.81,1.21s-.72.08-1.31-.35-1-1-.82-1.21.73-.08,1.32.35Z"/><path class="cls-44" d="M3.18,1.7c.35-.31,1.39-.15,1.49.22A3.61,3.61,0,0,0,4.85,3a2.09,2.09,0,0,1,.27-1.7,2.86,2.86,0,0,0-2.06-.11l-.21.31A6.9,6.9,0,0,0,1.58,5.81,7,7,0,0,1,3.18,1.7Z"/><path class="cls-45" d="M4.81,1a3.73,3.73,0,0,0-1.54.13,2.89,2.89,0,0,1,1.85.17L5.72,1A2.1,2.1,0,0,0,5.15.79c.06.06.11.17,0,.22a.73.73,0,0,1-.35,0Z"/><path class="cls-46" d="M4.16,8.62c0,.15,0,.31-.23.14-1.11-.92-1.4-3.34-1-4.58,0-.1.2-.55.35-.5s.11.18.11.31a6.16,6.16,0,0,1,.29-.78,2.72,2.72,0,0,1-.08-.81,5.7,5.7,0,0,0-.44,5.31h0A8.56,8.56,0,0,0,4,9.14l.27.37c0-.23,0-.46.08-.69,0-.07-.09-.14-.14-.2Z"/><path class="cls-47" d="M13.87,14.22c-.13.07-.25.19,0,.28,1.35.5,3.58-.46,4.45-1.45.07-.08.38-.45.26-.54s-.21,0-.32.05c.18-.2.36-.41.53-.64a2.61,2.61,0,0,0,.74-.34,5.7,5.7,0,0,1-4.38,3h0a8,8,0,0,1-1.63.05l-.45-.05.56-.41Z"/><path class="cls-48" d="M17.65,10.46a2.32,2.32,0,0,1-.4-.13l-.22.3a1.94,1.94,0,0,0,1.54.15c-.12,0-1,.06-1-.19,0-.06,0-.1.1-.13Z"/><path class="cls-49" d="M5.53,3.47a1.69,1.69,0,0,0,.32.27l-.15.35a1.92,1.92,0,0,1-.9-1.26c0,.12.43.85.67.78.06,0,.07-.07.06-.14Z"/><path class="cls-50" d="M12.27,4.48A3.66,3.66,0,1,1,8.61.82,3.66,3.66,0,0,1,12.27,4.48Z"/><circle class="cls-51" cx="4.77" cy="1.42" r="1.42"/></g></g></g></svg>