<?xml version="1.0" encoding="UTF-8"?>
<svg id="Layer_1" data-name="Layer 1" xmlns="http://www.w3.org/2000/svg" viewBox="0 0 425.14 424.55">
  <defs>
    <style>
      .cls-1 {
        stroke-width: 0px;
      }
    </style>
  </defs>
  <path fill="#fff" class="cls-1" d="M.7,106.2c6-.71,11.99-1.49,17.99-2.1,39.68-4.05,74.98-34.98,83.59-73.69,1.68-7.53,2.44-15.31,3.05-23.02.51-6.39.36-7.3,5.83-7.26,1.73.01,3.18,1.31,3.38,3.03.46,3.8.97,7.66,1.23,11.53,2.91,42.75,34.48,78.71,76.8,87.99,38.84,8.52,80.4-8.02,102.93-44.06,9.79-15.67,14.76-32.77,14.81-51.31,0-2.96-1.11-7.09,4.31-7.29,4.82-.18,6.05,2.63,5.89,6.59-.58,14.9,2.71,29.07,9.26,42.26,13.57,27.33,35.02,45.53,64.9,52.84,7.79,1.91,16,2.19,24.03,3.02,3.46.36,6.17.95,6.3,5.3.11,3.66-1.71,4.45-4.89,4.49-11.65.13-23.15,1.62-34.09,5.75-33.66,12.71-55.43,36.3-63.2,71.61-7.19,32.7,1.14,61.7,23.72,86.38,19.14,20.93,43.22,31.11,71.5,31.58,2.8.05,5.88-.39,6.8,3.4,1.05,4.31-1.02,6.82-5.95,6.7-16.46-.4-31.97,3.4-46.31,11.25-28.54,15.63-45.88,39.46-50.96,71.79-.92,5.86-1.38,11.79-1.92,17.71-.2,2.19-2.04,3.86-4.24,3.86h0c-1.83,0-3.46-1.17-4.04-2.91s-1.08-3.37-1.13-5.07c-.29-11.53-2.37-22.6-6.38-33.47-17.82-48.28-72.49-75.31-120.86-58.4-39.84,13.92-62.44,42.55-67.3,84.76-.43,3.77-.96,7.53-1.48,11.29-.3,2.18-2.17,3.81-4.37,3.81h0c-2.34,0-4.27-1.82-4.41-4.15-.06-.92-.1-1.85-.12-2.77-.35-21.07-6.12-40.45-18.84-57.36-19.27-25.61-44.9-39.34-77.16-40.38-3.15-.1-6.26-1.37-9.39-2.09,0-.33,0-.67,0-1-.19-5.65,2.89-7.07,8.07-7.07,18.29,0,35.25-4.94,50.83-14.61,36.14-22.41,53-64.53,44.27-103.16-10.2-45.13-48.12-75.85-94.44-77.37-7.61-.25-7.56-.25-8.75-7.45l.7-.93ZM212.47,309.72c53.05.25,97.21-43.4,97.7-96.27.51-54.27-43.04-98.74-97.29-98.58-54.55.16-97.36,42.87-97.47,97.45-.11,54.23,43.48,96.88,97.06,97.4Z"/>
</svg>