<svg xmlns="http://www.w3.org/2000/svg" xmlns:xlink="http://www.w3.org/1999/xlink" viewBox="0 0 22.82 22.22"><defs><style>.cls-1{isolation:isolate;}.cls-2{fill:#ffd400;}.cls-10,.cls-11,.cls-12,.cls-13,.cls-14,.cls-15,.cls-16,.cls-17,.cls-2,.cls-3,.cls-4,.cls-5,.cls-6,.cls-7,.cls-8,.cls-9{fill-rule:evenodd;}.cls-3{fill:url(#radial-gradient);}.cls-13,.cls-14,.cls-4{mix-blend-mode:multiply;}.cls-4{fill:url(#radial-gradient-2);}.cls-15,.cls-16,.cls-17,.cls-5,.cls-6,.cls-7{mix-blend-mode:screen;}.cls-5{fill:url(#radial-gradient-3);}.cls-6{fill:url(#radial-gradient-4);}.cls-7{fill:url(#radial-gradient-5);}.cls-8{fill:#848484;}.cls-9{fill:url(#radial-gradient-6);}.cls-10{fill:url(#radial-gradient-7);}.cls-11{fill:url(#radial-gradient-8);}.cls-12{fill:url(#radial-gradient-9);}.cls-13{fill:url(#radial-gradient-10);}.cls-14{fill:url(#radial-gradient-11);}.cls-15{fill:url(#radial-gradient-12);}.cls-16{fill:url(#radial-gradient-13);}.cls-17{fill:url(#radial-gradient-14);}</style><radialGradient id="radial-gradient" cx="6.89" cy="4.14" r="20.22" gradientUnits="userSpaceOnUse"><stop offset="0" stop-color="#fcf800"/><stop offset="1" stop-color="#fc9700"/></radialGradient><radialGradient id="radial-gradient-2" cx="9.52" cy="6.1" r="19.28" gradientUnits="userSpaceOnUse"><stop offset="0" stop-color="#fff"/><stop offset="0.1" stop-color="#fffdf9"/><stop offset="0.22" stop-color="#fff7e9"/><stop offset="0.36" stop-color="#ffeccf"/><stop offset="0.51" stop-color="#ffdeaa"/><stop offset="0.67" stop-color="#ffcc7a"/><stop offset="0.84" stop-color="#ffb641"/><stop offset="1" stop-color="#ff9d00"/></radialGradient><radialGradient id="radial-gradient-3" cx="4.37" cy="0.28" r="17.74" gradientUnits="userSpaceOnUse"><stop offset="0" stop-color="#fff261"/><stop offset="0.11" stop-color="#faee5f"/><stop offset="0.23" stop-color="#ede15a"/><stop offset="0.36" stop-color="#d6cb52"/><stop offset="0.5" stop-color="#b7ad46"/><stop offset="0.64" stop-color="#8e8736"/><stop offset="0.78" stop-color="#5c5823"/><stop offset="0.92" stop-color="#23210d"/><stop offset="1"/></radialGradient><radialGradient id="radial-gradient-4" cx="4.43" cy="0.97" r="12.85" gradientUnits="userSpaceOnUse"><stop offset="0" stop-color="#fffacf"/><stop offset="1"/></radialGradient><radialGradient id="radial-gradient-5" cx="13.09" cy="18.67" r="8.27" gradientUnits="userSpaceOnUse"><stop offset="0"/><stop offset="0.08" stop-color="#232112"/><stop offset="0.22" stop-color="#5c582e"/><stop offset="0.36" stop-color="#8e8747"/><stop offset="0.5" stop-color="#b7ae5c"/><stop offset="0.64" stop-color="#d6cc6c"/><stop offset="0.77" stop-color="#ede277"/><stop offset="0.89" stop-color="#faef7e"/><stop offset="1" stop-color="#fff380"/></radialGradient><radialGradient id="radial-gradient-6" cx="15.76" cy="5.89" r="9.42" gradientUnits="userSpaceOnUse"><stop offset="0" stop-color="#fcac00"/><stop offset="1" stop-color="#ff7300"/></radialGradient><radialGradient id="radial-gradient-7" cx="11.13" cy="19.78" r="8.66" gradientUnits="userSpaceOnUse"><stop offset="0" stop-color="#fc8f00"/><stop offset="1" stop-color="#e86900"/></radialGradient><radialGradient id="radial-gradient-8" cx="20.45" cy="12.89" r="10.82" xlink:href="#radial-gradient-6"/><radialGradient id="radial-gradient-9" cx="4.8" cy="24.09" r="8.66" xlink:href="#radial-gradient-7"/><radialGradient id="radial-gradient-10" cx="12.26" cy="14.97" r="10.93" gradientUnits="userSpaceOnUse"><stop offset="0" stop-color="#fff"/><stop offset="0.1" stop-color="#fefbf9"/><stop offset="0.22" stop-color="#fbf0e9"/><stop offset="0.36" stop-color="#f6decf"/><stop offset="0.51" stop-color="#f0c4aa"/><stop offset="0.67" stop-color="#e7a47a"/><stop offset="0.84" stop-color="#dd7c41"/><stop offset="1" stop-color="#d15000"/></radialGradient><radialGradient id="radial-gradient-11" cx="12.97" cy="12.82" r="10.39" xlink:href="#radial-gradient-10"/><radialGradient id="radial-gradient-12" cx="21.14" cy="6.46" r="4.73" xlink:href="#radial-gradient-3"/><radialGradient id="radial-gradient-13" cx="4.44" cy="17.8" r="4.84" xlink:href="#radial-gradient-3"/><radialGradient id="radial-gradient-14" cx="19.7" cy="17.94" r="5.13" xlink:href="#radial-gradient-3"/></defs><title>ref</title><g class="cls-1"><g id="Layer_2" data-name="Layer 2"><g id="Layer_1-2" data-name="Layer 1"><path class="cls-2" d="M18.07,22.2a.71.71,0,0,0,.6-.12.65.65,0,0,0,.29-.53c.14-1.94-.94-5.72-.66-6.59s3.38-3.3,4.41-5a.7.7,0,0,0,.08-.6A.68.68,0,0,0,22.37,9c-1.8-.73-5.73-.87-6.47-1.41S12.46.89,11.37.26c-.19-.11-.41.08-.55.25C9.57,2,8.86,7,8.12,7.56S2.4,7.2.59,7.93a.69.69,0,0,0-.41.44c-.18.54,3.77,4.57,4.2,5A6.24,6.24,0,0,1,5.71,15c.29.87-.79,4.65-.66,6.59a.71.71,0,0,0,.29.53.72.72,0,0,0,.6.12c1.89-.47,5.15-2.67,6.07-2.67s4.18,2.2,6.06,2.67Z"/><path class="cls-3" d="M16.88,20.62a.71.71,0,0,0,.6-.12.65.65,0,0,0,.29-.53c.14-1.94-.94-5.72-.66-6.59s3.38-3.3,4.41-5a.7.7,0,0,0,.08-.6.68.68,0,0,0-.42-.44c-1.8-.73-5.73-.87-6.47-1.41S12.62,1.75,11.37.26a.71.71,0,0,0-1.1,0C9,1.75,7.67,5.44,6.93,6S2.26,6.66.45,7.39A.67.67,0,0,0,0,7.83a.67.67,0,0,0,.07.6c1,1.65,4.13,4.08,4.41,5S3.73,18,3.86,20a.71.71,0,0,0,.29.53.72.72,0,0,0,.6.12C6.64,20.15,9.9,18,10.82,18s4.17,2.2,6.06,2.67Z"/><path class="cls-4" d="M20.79,8.34c-2.19,1.57-3.41,2.51-5.32,3.76a.84.84,0,0,0-.41.83c.56,1.81,2.15,4.72,2.27,6.53.06,1.07-.85.75-1.38.51-1.85-.79-3.09-1.91-4.87-2.82a1.52,1.52,0,0,0-1.74.15c-1.07.7-3,2.4-4.56,2.9-.44.14-.72.1-.9-.1a.69.69,0,0,0,.27.4.72.72,0,0,0,.6.12C6.64,20.15,9.9,18,10.82,18s4.17,2.2,6.06,2.67a.71.71,0,0,0,.6-.12.65.65,0,0,0,.29-.53c.14-1.94-.94-5.72-.66-6.59s3.38-3.3,4.41-5a.7.7,0,0,0,.08-.6.68.68,0,0,0-.42-.44c-1.8-.73-5.73-.87-6.47-1.41S12.62,1.75,11.37.26a.71.71,0,0,0-1.1,0,5.86,5.86,0,0,0-.59.84C10.22.52,10.79.17,11.3,1a20.32,20.32,0,0,1,1.85,4.52c.32.93.51,1.31,2.33,1.44,2.09.14,3.82.28,5.07.49.68.12.7.6.24.93Z"/><path class="cls-5" d="M9.61,1.52C9,2.62,8.5,3.82,8,4.94c-.47.95-.65,1.52-1.82,1.72-1.46.25-2.95.29-4.41.52S-.23,7.8.92,9.06c.68.76,3.79,3.57,4,4.26a9.36,9.36,0,0,1-.18,2.43c0,.33.11.82.66.22C9.68,11.23,10.78,10.34,17,8.26c.67-.22,1.36-.39,2-.59.19-.06.44-.25-.12-.32-2-.27-3.51-.06-5.2-.21-.75-.07-1.24-1-1.47-1.61-.49-1.33-.75-2.74-1.21-4.08-.37-1-1.05-.66-1.45.07Z"/><path class="cls-6" d="M4.62,7.69c-.4-.07-.3-.49.07-.58.6-.14,1.22-.17,1.82-.31A1.69,1.69,0,0,0,7.85,5.71c.64-1.32,1.29-3,2-4.19.25-.43.53-.36.46.11a33.5,33.5,0,0,1-1,4.43c-.22.75-.46,1.56-1.49,1.68a13.64,13.64,0,0,1-3.19,0ZM3.15,7.21a9.8,9.8,0,0,0-2,.35c-.62.22-.49.36.08.39a15.79,15.79,0,0,0,1.82,0c.86-.07.74-.77.1-.73Z"/><path class="cls-7" d="M15.43,18.86c-.28.11-1,.27-.13.72a4.88,4.88,0,0,0,1.11.45c.83.23.83-.36.71-1a20.3,20.3,0,0,0-1.27-3.68c-.23-.52-.51-.79-.42,0s.26,1.86.36,2.8c0,.42,0,.48-.36.64Z"/><path class="cls-8" d="M4,20.33a9,9,0,0,0,1.36,1.75.72.72,0,0,0,.6.12c1.89-.47,5.15-2.67,6.07-2.67s4.18,2.2,6.06,2.67a.71.71,0,0,0,.6-.12.65.65,0,0,0,.29-.53c.14-1.94-.94-5.72-.66-6.59s3.38-3.3,4.41-5a.7.7,0,0,0,.08-.6,9,9,0,0,0-1.35-1.85c0,.05.14.22.16.27a.7.7,0,0,1-.08.6c-1,1.65-4.12,4.08-4.41,5s.8,4.65.66,6.59a.65.65,0,0,1-.29.53.71.71,0,0,1-.6.12C15,20.15,11.73,18,10.82,18s-4.18,2.2-6.07,2.67a.72.72,0,0,1-.6-.12S4,20.36,4,20.33Z"/><path class="cls-9" d="M17.11,13.38,18.3,15c.3-.88,3.38-3.3,4.41-5a.7.7,0,0,0,.08-.6l-.07-.15a10,10,0,0,0-1.28-1.7c0,.05.14.22.16.27a.7.7,0,0,1-.08.6,1.5,1.5,0,0,1-.15.23c-1.15,1.64-4,3.89-4.26,4.72Z"/><path class="cls-10" d="M18.3,15l-1.19-1.58c-.28.87.8,4.65.66,6.59a.65.65,0,0,1-.29.53l-.05,0,1.19,1.58.05,0a.65.65,0,0,0,.29-.53c.14-1.94-.94-5.72-.66-6.59Z"/><path class="cls-11" d="M16.88,20.62C15,20.15,11.73,18,10.82,18L12,19.53c.93,0,4.18,2.2,6.06,2.67a.7.7,0,0,0,.55-.08l-1.19-1.58a.7.7,0,0,1-.55.08Z"/><path class="cls-12" d="M5.94,22.2c1.89-.47,5.15-2.67,6.07-2.67h0L10.82,18c-.87,0-3.84,2-5.75,2.58l-.32.09a.72.72,0,0,1-.6-.12S4,20.36,4,20.33A9.84,9.84,0,0,0,5.26,22l.08.07a.72.72,0,0,0,.6.12Z"/><path class="cls-13" d="M12.85,19.49a1.45,1.45,0,0,0-1.64-.07c-1.54.69-3.51,2-5,2.42A1.25,1.25,0,0,1,5,21.69a2.85,2.85,0,0,0,.38.39.72.72,0,0,0,.6.12c1.89-.47,5.15-2.67,6.07-2.67s4.18,2.2,6.06,2.67a.78.78,0,0,0,.26,0,5.54,5.54,0,0,1-1.43-.56c-1.31-.65-2.83-1.57-4-2.17Z"/><path class="cls-14" d="M18.76,13.74A1.93,1.93,0,0,0,18,16.07c.27,1.69.68,3.49.83,5.18a2,2,0,0,1,0,.74.7.7,0,0,0,.18-.44c.14-1.94-.94-5.72-.66-6.59s3.38-3.3,4.41-5a.7.7,0,0,0,.08-.6,5.68,5.68,0,0,0-.61-1c.37.8.29,1.7-.82,2.84-.83.86-1.74,1.63-2.6,2.46Z"/><path class="cls-15" d="M21.45,8.82c.62-.12,1,.81.95,1.33a2.14,2.14,0,0,1-.22.58,6,6,0,0,0,.53-.72.7.7,0,0,0,.08-.6l-.07-.15a10,10,0,0,0-1.28-1.7c0,.05.14.22.16.27a.7.7,0,0,1-.08.6,1.5,1.5,0,0,1-.15.23,2.55,2.55,0,0,1-.21.28,1,1,0,0,1,.29-.12Z"/><path class="cls-16" d="M5.13,20.92l-.08-.13a.37.37,0,0,1,0-.25l-.27.08a.72.72,0,0,1-.6-.12S4,20.36,4,20.33A9.84,9.84,0,0,0,5.26,22l.08.07a.72.72,0,0,0,.6.12A5,5,0,0,0,6.5,22a.86.86,0,0,1-.61-.26,8.71,8.71,0,0,1-.76-.85Z"/><path class="cls-17" d="M17,20.8a6.89,6.89,0,0,1,.66.85c.14.18.27.42.17.48l.25.07a.71.71,0,0,0,.6-.12.64.64,0,0,0,.26-.35.35.35,0,0,1-.26-.13c-.23-.27-.43-.54-.63-.82a1,1,0,0,1-.28-.72.68.68,0,0,1-.28.44.71.71,0,0,1-.6.12l-.18-.05a1.28,1.28,0,0,1,.29.23Z"/></g></g></g></svg>