<svg xmlns="http://www.w3.org/2000/svg" xmlns:xlink="http://www.w3.org/1999/xlink" viewBox="0 0 21.28 21.02"><defs><style>.cls-1{isolation:isolate;}.cls-10,.cls-11,.cls-12,.cls-13,.cls-14,.cls-16,.cls-17,.cls-18,.cls-19,.cls-2,.cls-20,.cls-21,.cls-22,.cls-23,.cls-24,.cls-25,.cls-26,.cls-27,.cls-28,.cls-29,.cls-3,.cls-30,.cls-31,.cls-32,.cls-33,.cls-34,.cls-35,.cls-36,.cls-37,.cls-38,.cls-39,.cls-4,.cls-40,.cls-41,.cls-42,.cls-43,.cls-44,.cls-45,.cls-5,.cls-6,.cls-7,.cls-8,.cls-9{fill-rule:evenodd;}.cls-2{fill:url(#radial-gradient);}.cls-3{fill:#bc7800;}.cls-4{fill:url(#linear-gradient);}.cls-5{fill:url(#radial-gradient-2);}.cls-16,.cls-27,.cls-28,.cls-31,.cls-39,.cls-41,.cls-6{opacity:0.5;}.cls-23,.cls-27,.cls-28,.cls-31,.cls-32,.cls-37,.cls-38,.cls-39,.cls-42,.cls-6{mix-blend-mode:multiply;}.cls-6{fill:url(#radial-gradient-3);}.cls-7{fill:#b3b3b3;}.cls-8{fill:url(#radial-gradient-4);}.cls-9{fill:url(#radial-gradient-5);}.cls-10{fill:url(#radial-gradient-6);}.cls-11{fill:url(#linear-gradient-2);}.cls-12{fill:url(#linear-gradient-3);}.cls-13{fill:url(#linear-gradient-4);}.cls-14{fill:url(#linear-gradient-5);}.cls-15{fill:#3b1919;}.cls-16{fill:#ac3e6e;}.cls-16,.cls-17,.cls-24,.cls-25,.cls-26,.cls-30,.cls-33,.cls-34,.cls-41,.cls-44,.cls-45{mix-blend-mode:screen;}.cls-17{opacity:0.35;fill:url(#radial-gradient-7);}.cls-18{fill:url(#radial-gradient-8);}.cls-19{fill:url(#linear-gradient-6);}.cls-20{fill:url(#radial-gradient-9);}.cls-21{fill:url(#linear-gradient-7);}.cls-22{fill:url(#linear-gradient-8);}.cls-23{opacity:0.65;fill:url(#radial-gradient-10);}.cls-24{fill:url(#radial-gradient-11);}.cls-25{opacity:0.25;fill:url(#radial-gradient-12);}.cls-26,.cls-30,.cls-33,.cls-34{opacity:0.3;}.cls-26{fill:url(#radial-gradient-13);}.cls-27{fill:#900;}.cls-28{fill:#7b6a58;}.cls-29{fill:#f4cc67;}.cls-30{fill:url(#radial-gradient-14);}.cls-31{fill:url(#radial-gradient-15);}.cls-32{fill:#a48a7b;}.cls-33{fill:url(#radial-gradient-16);}.cls-34{fill:url(#radial-gradient-17);}.cls-35{fill:url(#linear-gradient-9);}.cls-36{fill:url(#radial-gradient-18);}.cls-37{fill:url(#radial-gradient-19);}.cls-38{fill:url(#radial-gradient-20);}.cls-39{fill:#896443;}.cls-40{fill:url(#linear-gradient-10);}.cls-41{fill:url(#radial-gradient-21);}.cls-42{fill:url(#radial-gradient-22);}.cls-43{fill:url(#linear-gradient-11);}.cls-44{fill:url(#radial-gradient-23);}.cls-45{fill:url(#radial-gradient-24);}</style><radialGradient id="radial-gradient" cx="3.14" cy="7.07" r="9.6" gradientUnits="userSpaceOnUse"><stop offset="0" stop-color="#c28a1f"/><stop offset="1" stop-color="#753e0a"/></radialGradient><linearGradient id="linear-gradient" x1="4.45" y1="18.57" x2="6.85" y2="10.79" gradientUnits="userSpaceOnUse"><stop offset="0" stop-color="#e3a634"/><stop offset="1" stop-color="#d6902d"/></linearGradient><radialGradient id="radial-gradient-2" cx="23.84" cy="21.29" r="16.28" gradientUnits="userSpaceOnUse"><stop offset="0" stop-color="#c28a1f"/><stop offset="1" stop-color="#87550c"/></radialGradient><radialGradient id="radial-gradient-3" cx="11.47" cy="10.34" r="12.15" gradientUnits="userSpaceOnUse"><stop offset="0.64" stop-color="#fff"/><stop offset="0.79" stop-color="#e6c3e6"/><stop offset="1" stop-color="#bc61be"/></radialGradient><radialGradient id="radial-gradient-4" cx="6.57" cy="9.77" r="8.32" gradientUnits="userSpaceOnUse"><stop offset="0" stop-color="#8a3434"/><stop offset="1" stop-color="#4a2121"/></radialGradient><radialGradient id="radial-gradient-5" cx="12.94" cy="11.64" r="9.01" gradientUnits="userSpaceOnUse"><stop offset="0" stop-color="#781616"/><stop offset="1" stop-color="#330a0a"/></radialGradient><radialGradient id="radial-gradient-6" cx="-0.55" cy="16.65" r="6.51" xlink:href="#radial-gradient-2"/><linearGradient id="linear-gradient-2" x1="2.25" y1="16.76" x2="8.86" y2="16.76" gradientUnits="userSpaceOnUse"><stop offset="0" stop-color="#e8ab23"/><stop offset="0.51" stop-color="#ffc75c"/><stop offset="1" stop-color="#823c00"/></linearGradient><linearGradient id="linear-gradient-3" x1="13.69" y1="16.98" x2="18.99" y2="16.98" gradientUnits="userSpaceOnUse"><stop offset="0" stop-color="#824f23"/><stop offset="1" stop-color="#e0a531"/></linearGradient><linearGradient id="linear-gradient-4" x1="18.89" y1="16.03" x2="18.89" y2="11.56" gradientUnits="userSpaceOnUse"><stop offset="0" stop-color="#e3a634"/><stop offset="1" stop-color="#945906"/></linearGradient><linearGradient id="linear-gradient-5" x1="8.45" y1="8.45" x2="9.99" y2="1.18" gradientUnits="userSpaceOnUse"><stop offset="0" stop-color="#4a2121"/><stop offset="0.51" stop-color="#8a3434"/><stop offset="1" stop-color="#4a2121"/></linearGradient><radialGradient id="radial-gradient-7" cx="9.03" cy="-3.57" r="11.44" gradientUnits="userSpaceOnUse"><stop offset="0" stop-color="#b17575"/><stop offset="1" stop-color="#000505"/></radialGradient><radialGradient id="radial-gradient-8" cx="21.54" cy="13.66" r="13.26" xlink:href="#radial-gradient-2"/><linearGradient id="linear-gradient-6" x1="8.27" y1="8.72" x2="9.89" y2="1.12" xlink:href="#linear-gradient-2"/><radialGradient id="radial-gradient-9" cx="14.2" cy="4.62" r="6.57" xlink:href="#radial-gradient-5"/><linearGradient id="linear-gradient-7" x1="18.74" y1="7.44" x2="18.74" y2="4.83" xlink:href="#linear-gradient-4"/><linearGradient id="linear-gradient-8" x1="12.99" y1="8.41" x2="19.88" y2="8.41" xlink:href="#linear-gradient-3"/><radialGradient id="radial-gradient-10" cx="8.24" cy="14.62" r="16.89" gradientUnits="userSpaceOnUse"><stop offset="0.64" stop-color="#fff"/><stop offset="0.79" stop-color="#c3c7e6"/><stop offset="1" stop-color="#616dbe"/></radialGradient><radialGradient id="radial-gradient-11" cx="8.19" cy="-0.36" r="16.28" gradientUnits="userSpaceOnUse"><stop offset="0" stop-color="#b18654"/><stop offset="1" stop-color="#000505"/></radialGradient><radialGradient id="radial-gradient-12" cx="10.14" cy="-5.03" r="18.55" gradientUnits="userSpaceOnUse"><stop offset="0" stop-color="#000505"/><stop offset="1" stop-color="#b18654"/></radialGradient><radialGradient id="radial-gradient-13" cx="16.62" cy="2.92" r="13.49" xlink:href="#radial-gradient-12"/><radialGradient id="radial-gradient-14" cx="6.03" cy="9.75" r="7.89" xlink:href="#radial-gradient-7"/><radialGradient id="radial-gradient-15" cx="8.81" cy="7.85" r="15.05" xlink:href="#radial-gradient-3"/><radialGradient id="radial-gradient-16" cx="16.78" cy="17.34" r="8.09" gradientUnits="userSpaceOnUse"><stop offset="0" stop-color="#000505"/><stop offset="1" stop-color="#b17575"/></radialGradient><radialGradient id="radial-gradient-17" cx="18.09" cy="8.88" r="8.19" xlink:href="#radial-gradient-16"/><linearGradient id="linear-gradient-9" x1="16.04" y1="11.64" x2="17.33" y2="11.64" xlink:href="#linear-gradient"/><radialGradient id="radial-gradient-18" cx="15.79" cy="13.25" r="3.48" gradientUnits="userSpaceOnUse"><stop offset="0" stop-color="#db950d"/><stop offset="1" stop-color="#875000"/></radialGradient><radialGradient id="radial-gradient-19" cx="17.7" cy="11.96" r="2.22" gradientUnits="userSpaceOnUse"><stop offset="0" stop-color="#616dbe"/><stop offset="0.6" stop-color="#c3c7e6"/><stop offset="1" stop-color="#fff"/></radialGradient><radialGradient id="radial-gradient-20" cx="15.03" cy="13.69" r="4.36" xlink:href="#radial-gradient-3"/><linearGradient id="linear-gradient-10" x1="16.89" y1="10.35" x2="17.54" y2="12.4" gradientUnits="userSpaceOnUse"><stop offset="0" stop-color="#a16702"/><stop offset="0.51" stop-color="#e6a529"/><stop offset="1" stop-color="#823c00"/></linearGradient><radialGradient id="radial-gradient-21" cx="17.18" cy="12.04" r="2.26" xlink:href="#radial-gradient-11"/><radialGradient id="radial-gradient-22" cx="17.02" cy="10.93" r="1.79" xlink:href="#radial-gradient-10"/><linearGradient id="linear-gradient-11" x1="16.04" y1="11.56" x2="17.33" y2="11.56" xlink:href="#linear-gradient"/><radialGradient id="radial-gradient-23" cx="15.26" cy="12.34" r="4.58" xlink:href="#radial-gradient-11"/><radialGradient id="radial-gradient-24" cx="19.07" cy="15.07" r="3.22" xlink:href="#radial-gradient-11"/></defs><title>wallet</title><g class="cls-1"><g id="Layer_2" data-name="Layer 2"><g id="Layer_1-2" data-name="Layer 1"><path class="cls-2" d="M2.18,9.16,12.36,7.3a9,9,0,0,0-1-4.64A3.71,3.71,0,0,0,6.66.8C4.59,1.6,3.08,4,2.55,6.13a17,17,0,0,0-.37,3Z"/><path class="cls-3" d="M0,8.48a41.39,41.39,0,0,1,.2,8.25L11.26,21l9.82-3.85a39.44,39.44,0,0,1,.2-8.34L0,8.48Z"/><path class="cls-4" d="M11.26,21l0-9L0,8.48a73.31,73.31,0,0,1,.2,8.25L11.26,21Z"/><path class="cls-5" d="M11.28,12l0,9,9.82-3.85a80.07,80.07,0,0,1,.2-8.34l-10,3.2Z"/><path class="cls-6" d="M20.09,9.21c.45,0,.78.2.9,1a28,28,0,0,1-.23,5.41,2.56,2.56,0,0,1-1.14,1.8,30.84,30.84,0,0,1-3,1.41c-1,.42-2,.83-3.06,1.18-.8.27-1.93.7-2.27.07V21l9.82-3.85a80.07,80.07,0,0,1,.2-8.34l-1.19.38Z"/><polygon class="cls-7" points="2.14 11.15 8.82 13.37 8.86 18.02 2.25 15.57 2.14 11.15 2.14 11.15"/><polygon class="cls-7" points="13.71 13.36 19.07 11.56 18.99 16.03 13.69 18.02 13.71 13.36 13.71 13.36"/><polygon class="cls-8" points="2.49 15.49 8.86 17.85 8.82 13.37 2.39 11.23 2.49 15.49 2.49 15.49"/><polygon class="cls-9" points="13.71 13.36 13.69 17.83 18.72 15.94 18.8 11.65 13.71 13.36 13.71 13.36"/><polygon class="cls-10" points="2.14 11.15 2.25 15.57 2.49 15.49 2.39 11.23 2.14 11.15 2.14 11.15"/><polygon class="cls-11" points="8.86 17.85 2.49 15.49 2.25 15.57 8.86 18.02 8.86 17.85 8.86 17.85"/><polygon class="cls-12" points="18.72 15.94 13.69 17.83 13.69 18.02 18.99 16.03 18.72 15.94 18.72 15.94"/><polygon class="cls-13" points="18.8 11.65 18.72 15.94 18.99 16.03 19.07 11.56 18.8 11.65 18.8 11.65"/><path class="cls-14" d="M12.64,9.34l3.12-6.79L8.92,1h0a3.41,3.41,0,0,0-2,.17c-2,.78-3.48,3.1-4,5.19,0,.06,0,.12,0,.19L8.53,8.15l4.11,1.19Z"/><path class="cls-15" d="M12.46,2.7c1.44.38,2.9.79,4.3,1.19-1.38-.29-2.9-.68-4.34-1.06s-3-.76-4.27-1.19C9.53,2,11,2.33,12.46,2.7Z"/><path class="cls-16" d="M8.18,1.64C10,2.05,11.87,2.52,13.7,3a.37.37,0,0,0-.25-.15C11.68,2.39,9.92,2,8.18,1.64Z"/><path class="cls-17" d="M11.5,4A37.67,37.67,0,0,1,5,2.33a8,8,0,0,0-1.42,2,27.56,27.56,0,0,1,6.45,1.74A9.79,9.79,0,0,1,11.5,4Z"/><path class="cls-15" d="M9.24,4.53c1.65.43,3.33.9,4.94,1.37-1.58-.34-3.33-.79-5-1.22S5.77,3.8,4.29,3.32c1.58.35,3.31.78,5,1.21Z"/><path class="cls-16" d="M4.33,3.31c2.13.47,4.23,1,6.34,1.57a.48.48,0,0,0-.29-.17c-2-.54-4.06-1-6.05-1.4Z"/><path class="cls-18" d="M11.28,12l10-3.2a8.09,8.09,0,0,0-1-4.43,3.32,3.32,0,0,0-4.59-1.19,9.21,9.21,0,0,0-4,5.79,18.29,18.29,0,0,0-.36,3Z"/><path class="cls-19" d="M9.23,8.35l-6.74-2,.06-.26C3.08,4,4.59,1.6,6.66.8a3.49,3.49,0,0,1,2-.2L6.6.12,6.33.06A3.42,3.42,0,0,0,4.4.26C2.36,1,.88,3.39.36,5.5a16.29,16.29,0,0,0-.36,3L11.28,12a18.29,18.29,0,0,1,.36-3,9.21,9.21,0,0,1,4-5.79,3.56,3.56,0,0,1,2.44-.4l-2.37-.55-.23,0a3.58,3.58,0,0,0-2.32.4,9,9,0,0,0-4,5.69v0Z"/><path class="cls-20" d="M13,9.24l6.39-1.93a3.61,3.61,0,0,0-1.82-2.48c-1.85-.31-4,2-4.57,4.41Z"/><path class="cls-21" d="M17.61,4.83a3.61,3.61,0,0,1,1.82,2.48l.45.13C19.35,5.75,18.52,5,17.61,4.83Z"/><path class="cls-22" d="M19.43,7.31,13,9.24a2.33,2.33,0,0,0,0,.28l6.89-2.08-.45-.13Z"/><path class="cls-23" d="M15.52,2.21a3.35,3.35,0,0,0-2,.24A7.29,7.29,0,0,1,16,3a3.5,3.5,0,0,1,2.09-.23l-2.6-.6ZM6.66.8A3.59,3.59,0,0,1,8.44.56l.22,0L6.33.06A3.42,3.42,0,0,0,4.4.26h0A12.14,12.14,0,0,1,6.65.8Z"/><path class="cls-24" d="M3.22,4.3A8.57,8.57,0,0,1,4.69,2.16c-.37,0-2.05-.25-2.22-.56A8.11,8.11,0,0,0,1,3.7a5.66,5.66,0,0,1,2.2.6Zm8.34-.41A9.67,9.67,0,0,0,10,6.15a5.8,5.8,0,0,1,2.42.66A9.82,9.82,0,0,1,14,4.51a7.06,7.06,0,0,1-2.45-.62Z"/><path class="cls-25" d="M.06,7.56,0,8.48,11.28,12c0-.33,0-.67.07-1C11,12,.42,8.77.06,7.56Z"/><path class="cls-26" d="M11.35,11c0,.34,0,.68-.07,1l10-3.2c0-.33,0-.65,0-1C20.68,9.44,11.62,12,11.35,11Z"/><path class="cls-27" d="M2.4,11.91c.61-.47,5.82,1.37,6.43,2.14v-.68L2.39,11.23v.68Z"/><path class="cls-28" d="M16.85,11.15c1,0,1.7,1.14,1.51,2.56s-1.18,2.55-2.2,2.55-1.7-1.14-1.51-2.55,1.17-2.56,2.2-2.56Zm0,1.06a1,1,0,0,0-.61.38,2.46,2.46,0,0,0-.54,1.26c0,.33,0,1.16.36,1.33a.16.16,0,0,0,.1,0,1,1,0,0,0,.61-.38,2.51,2.51,0,0,0,.54-1.26c0-.33,0-1.16-.36-1.33l-.1,0Z"/><path class="cls-27" d="M13.71,13.91c.45-.7,4.82-2.17,5.08-1.71v-.55l-5.09,1.71v.55Z"/><path class="cls-27" d="M10,1.21,8.88.94h0A3.48,3.48,0,0,0,7.05,1a51.36,51.36,0,0,1,6.3,1.5l.2-.09a3.88,3.88,0,0,1,.78-.24l-4.3-1Z"/><path class="cls-29" d="M7.91,11,11.28,12l3.63-1.16-3.51.91A11.18,11.18,0,0,1,13,5.91a10.48,10.48,0,0,0-1.76,5.89L7.91,11Z"/><path class="cls-30" d="M3.19,12.11a.55.55,0,0,0-.56.53,15,15,0,0,0,0,2.32.5.5,0,0,0,.24.34,31.56,31.56,0,0,0,5.2,2c.19.06.55.08.59-.19a6.33,6.33,0,0,0-.13-2.57c-.65-1.18-4.07-2.43-5.35-2.42Z"/><path class="cls-27" d="M13.71,8.7c.22-2.25,2.68-4.43,4.81-3.18a2.4,2.4,0,0,0-.91-.69c-1.72-.29-3.7,1.64-4.42,3.86a4.94,4.94,0,0,0-.15.55L13.7,9c0-.11,0-.23,0-.34Z"/><path class="cls-31" d="M11.26,20.1c-.55.37-1.36.14-2.49-.23-2.17-.71-4.44-1.59-6.53-2.51-1.21-.54-1.78-.82-2-1.6a.68.68,0,0,1,0-.14l0,1.11L11.26,21V20.1Z"/><path class="cls-32" d="M0,8.48,11.28,12l9.83-3.15c-.39.22-2.42.89-4.7,1.63-1.77.58-3.84,1.16-5.13,1.68C9.67,11.55,6.74,10.74,4.45,10A44.13,44.13,0,0,1,0,8.48Z"/><path class="cls-33" d="M14.36,13.54c-.53.31-.58,2.1-.55,3,0,.6.33.7.7.56.7-.28,4.09-3.6,3.59-4.36s-3.08.4-3.74.79Z"/><path class="cls-34" d="M14.86,6.42A4.1,4.1,0,0,0,14,8.11c-.06.23-.14.72.26.63A8.89,8.89,0,0,0,16,8.1a12.67,12.67,0,0,0,1.72-2.59.18.18,0,0,0-.13-.15,2.83,2.83,0,0,0-2.75,1.06Z"/><path class="cls-35" d="M16.43,11.09c.77.23.81,1.46-.05,1.16l-.31-.11v.31l.2.08c.3.11.44.16.63.1.63-.22.58-1.54-.36-1.84L16,10.62V11l.39.12Z"/><path class="cls-36" d="M17.32,10.92c1,0,1.7,1.15,1.51,2.56S17.65,16,16.63,16s-1.7-1.15-1.51-2.56,1.17-2.56,2.2-2.56Zm0,1.06a1,1,0,0,0-.61.38,2.46,2.46,0,0,0-.54,1.26c-.05.34,0,1.16.36,1.33a.16.16,0,0,0,.1,0,1,1,0,0,0,.61-.38,2.51,2.51,0,0,0,.54-1.25c0-.34,0-1.16-.37-1.34l-.09,0Z"/><path class="cls-37" d="M17.74,12.55c.15-.39.66-.83,1-.51a1.51,1.51,0,0,0-1.38-1.12A2.07,2.07,0,0,0,15.68,12a.65.65,0,0,1,.67-.28.44.44,0,0,1,.3.47c0,.1-.19.49-.25.69a1.93,1.93,0,0,1,.31-.49,1,1,0,0,1,.61-.38l.09,0a.72.72,0,0,1,.33.55Z"/><path class="cls-38" d="M17,11c1,0,1.7,1.15,1.51,2.56A3.07,3.07,0,0,1,16.9,16a2.89,2.89,0,0,0,1.93-2.53c.19-1.41-.49-2.56-1.51-2.56a1.39,1.39,0,0,0-.57.12L17,11Z"/><path class="cls-39" d="M17.77,12.72c0-.35-.13-.72-.37-.83l-.1,0a1,1,0,0,0-.62.39,2.5,2.5,0,0,0-.55,1.28,2.07,2.07,0,0,0,.18,1.2,2.14,2.14,0,0,1-.14-1.12,2.46,2.46,0,0,1,.54-1.26,1,1,0,0,1,.61-.38l.09,0c.22.1.32.41.36.72Z"/><path class="cls-40" d="M16.55,10.79c.94.3,1,1.62.36,1.84l.41-.14a1.17,1.17,0,0,0,.76-.51,1.18,1.18,0,0,0-.68-1.51L17,10.33l-.91.29.51.17Z"/><path class="cls-41" d="M17,11.09a1.24,1.24,0,0,1,.3.74,1.52,1.52,0,0,1,.84-.28,1.24,1.24,0,0,0-.29-.73,1.81,1.81,0,0,1-.85.27Z"/><path class="cls-42" d="M18.08,12a1.55,1.55,0,0,1-.81.28.63.63,0,0,1-.36.37l.41-.14a1.17,1.17,0,0,0,.76-.51Z"/><path class="cls-43" d="M16.43,11.09c.56.17.73.87.45,1.12h0l.24.28a1.12,1.12,0,0,0-.57-1.7L16,10.62V11l.39.12Z"/><path class="cls-44" d="M15.84,11.94a3.14,3.14,0,0,0-.26,3.43c.13.15.58.46.47,0a4.51,4.51,0,0,1,.31-3.17c.14-.39-.37-.41-.52-.25Z"/><path class="cls-39" d="M16.8,15.05c.36,0,.75-.55.93-1.16a2.12,2.12,0,0,0,0-1.27.34.34,0,0,1,0,.1,2.62,2.62,0,0,1,0,.62,2.73,2.73,0,0,1-.31.91,1.56,1.56,0,0,1-.23.34c-.06.06-.12.13-.2.2a.72.72,0,0,1-.41.18.16.16,0,0,1-.1,0l-.09,0a.39.39,0,0,0,.36.15Z"/><path class="cls-45" d="M18,13a.92.92,0,0,0-.06.33A2.47,2.47,0,0,1,17,15.15c-.11.09.05.19.16.16a2.18,2.18,0,0,0,1.2-1.83,1,1,0,0,0,0-.38c-.05-.14-.24-.29-.34-.1Z"/></g></g></g></svg>